<?xml version="1.0" encoding="utf-8"?>
<!-- Generator: Adobe Illustrator 24.2.3, SVG Export Plug-In . SVG Version: 6.00 Build 0)  -->
<svg version="1.1" id="Layer_1" xmlns="http://www.w3.org/2000/svg" xmlns:xlink="http://www.w3.org/1999/xlink" x="0px" y="0px"
	 viewBox="0 0 300 250" style="enable-background:new 0 0 300 250;" xml:space="preserve">
<style type="text/css">
	.st0{fill:#373535;}
</style>
<g>
	<path class="st0" d="M20.42,239.68l1.92-5.01h0.71l2.05,5.01h-0.76l-0.58-1.52h-2.1l-0.55,1.52H20.42z M21.86,237.62h1.7
		l-0.52-1.39c-0.16-0.42-0.28-0.77-0.36-1.04c-0.06,0.32-0.15,0.64-0.27,0.96L21.86,237.62z"/>
	<path class="st0" d="M25.63,239.68v-5.01h1.73c0.39,0,0.69,0.02,0.89,0.07c0.29,0.07,0.53,0.19,0.73,0.36
		c0.26,0.22,0.46,0.51,0.59,0.86c0.13,0.35,0.2,0.74,0.2,1.19c0,0.38-0.04,0.72-0.13,1.01c-0.09,0.29-0.2,0.54-0.34,0.73
		s-0.29,0.34-0.46,0.45c-0.17,0.11-0.36,0.19-0.6,0.25c-0.23,0.06-0.5,0.09-0.81,0.09H25.63z M26.3,239.09h1.07
		c0.33,0,0.59-0.03,0.78-0.09c0.19-0.06,0.34-0.15,0.45-0.26c0.16-0.16,0.28-0.37,0.37-0.63c0.09-0.27,0.13-0.59,0.13-0.97
		c0-0.52-0.09-0.93-0.26-1.21c-0.17-0.28-0.38-0.47-0.63-0.57c-0.18-0.07-0.46-0.1-0.86-0.1H26.3V239.09z"/>
	<path class="st0" d="M30.72,239.68v-5.01h3.38v0.59h-2.72v1.55h2.35v0.59h-2.35v2.28H30.72z"/>
	<path class="st0" d="M34.78,239.76l0.3-1.46H34.5v-0.51h0.68l0.25-1.24H34.5v-0.51h1.04l0.3-1.47h0.51l-0.3,1.47h1.08l0.3-1.47
		h0.52l-0.3,1.47h0.59v0.51h-0.69l-0.26,1.24h0.95v0.51h-1.05l-0.3,1.46h-0.51l0.29-1.46h-1.07l-0.3,1.46H34.78z M35.69,237.8h1.07
		l0.26-1.24h-1.08L35.69,237.8z"/>
	<path class="st0" d="M40.29,239.68l1.94-2.61l-1.71-2.4h0.79l0.91,1.29c0.19,0.27,0.32,0.47,0.4,0.62c0.11-0.18,0.24-0.37,0.4-0.57
		l1.01-1.33h0.72l-1.76,2.36l1.9,2.65h-0.82l-1.26-1.79c-0.07-0.1-0.14-0.21-0.22-0.34c-0.11,0.18-0.19,0.31-0.24,0.38l-1.26,1.75
		H40.29z"/>
	<path class="st0" d="M44.96,239.68l1.94-2.61l-1.71-2.4h0.79l0.91,1.29c0.19,0.27,0.32,0.47,0.4,0.62c0.11-0.18,0.24-0.37,0.4-0.57
		l1.01-1.33h0.72l-1.76,2.36l1.9,2.65h-0.82l-1.26-1.79c-0.07-0.1-0.14-0.21-0.22-0.34c-0.11,0.18-0.19,0.31-0.24,0.38l-1.26,1.75
		H44.96z"/>
	<path class="st0" d="M49.63,239.68l1.94-2.61l-1.71-2.4h0.79l0.91,1.29c0.19,0.27,0.32,0.47,0.4,0.62c0.11-0.18,0.24-0.37,0.4-0.57
		l1.01-1.33h0.72l-1.76,2.36l1.9,2.65h-0.82l-1.26-1.79c-0.07-0.1-0.14-0.21-0.22-0.34c-0.11,0.18-0.19,0.31-0.24,0.38l-1.26,1.75
		H49.63z"/>
	<path class="st0" d="M54.3,239.68l1.94-2.61l-1.71-2.4h0.79l0.91,1.29c0.19,0.27,0.32,0.47,0.4,0.62c0.11-0.18,0.24-0.37,0.4-0.57
		l1.01-1.33h0.72L57,237.03l1.9,2.65h-0.82l-1.26-1.79c-0.07-0.1-0.14-0.21-0.22-0.34c-0.11,0.18-0.19,0.31-0.24,0.38l-1.26,1.75
		H54.3z"/>
	<path class="st0" d="M58.97,239.68l1.94-2.61l-1.71-2.4h0.79l0.91,1.29c0.19,0.27,0.32,0.47,0.4,0.62c0.11-0.18,0.24-0.37,0.4-0.57
		l1.01-1.33h0.72l-1.76,2.36l1.9,2.65h-0.82l-1.26-1.79c-0.07-0.1-0.14-0.21-0.22-0.34c-0.11,0.18-0.19,0.31-0.24,0.38l-1.26,1.75
		H58.97z"/>
	<path class="st0" d="M63.64,239.68l1.94-2.61l-1.71-2.4h0.79l0.91,1.29c0.19,0.27,0.32,0.47,0.4,0.62c0.11-0.18,0.24-0.37,0.4-0.57
		l1.01-1.33h0.72l-1.76,2.36l1.9,2.65h-0.82l-1.26-1.79c-0.07-0.1-0.14-0.21-0.22-0.34c-0.11,0.18-0.19,0.31-0.24,0.38l-1.26,1.75
		H63.64z"/>
	<path class="st0" d="M68.31,239.68l1.94-2.61l-1.71-2.4h0.79l0.91,1.29c0.19,0.27,0.32,0.47,0.4,0.62c0.11-0.18,0.24-0.37,0.4-0.57
		l1.01-1.33h0.72L71,237.03l1.9,2.65h-0.82l-1.26-1.79c-0.07-0.1-0.14-0.21-0.22-0.34c-0.11,0.18-0.19,0.31-0.24,0.38l-1.26,1.75
		H68.31z"/>
	<path class="st0" d="M72.98,239.68l1.94-2.61l-1.71-2.4H74l0.91,1.29c0.19,0.27,0.32,0.47,0.4,0.62c0.11-0.18,0.24-0.37,0.4-0.57
		l1.01-1.33h0.72l-1.76,2.36l1.9,2.65h-0.82l-1.26-1.79c-0.07-0.1-0.14-0.21-0.22-0.34c-0.11,0.18-0.19,0.31-0.24,0.38l-1.26,1.75
		H72.98z"/>
</g>
</svg>
