<?xml version="1.0" encoding="utf-8"?>
<!-- Generator: Adobe Illustrator 24.2.3, SVG Export Plug-In . SVG Version: 6.00 Build 0)  -->
<svg version="1.1" id="Layer_1" xmlns="http://www.w3.org/2000/svg" xmlns:xlink="http://www.w3.org/1999/xlink" x="0px" y="0px"
	 viewBox="0 0 300 250" style="enable-background:new 0 0 300 250;" xml:space="preserve">
<style type="text/css">
	.st0{fill:#373535;}
</style>
<g>
	<path class="st0" d="M20.86,241.68v-4.29h0.57v3.79h2.12v0.51H20.86z"/>
	<path class="st0" d="M24.01,239.56c0-0.51,0.05-0.92,0.16-1.23s0.26-0.55,0.47-0.72s0.47-0.25,0.78-0.25
		c0.23,0,0.43,0.05,0.61,0.14c0.17,0.09,0.32,0.23,0.43,0.4s0.2,0.39,0.27,0.64s0.1,0.59,0.1,1.01c0,0.5-0.05,0.91-0.16,1.22
		c-0.1,0.31-0.26,0.55-0.46,0.72s-0.47,0.25-0.78,0.25c-0.41,0-0.74-0.15-0.98-0.45C24.15,240.95,24.01,240.37,24.01,239.56z
		 M24.55,239.56c0,0.71,0.08,1.17,0.25,1.41c0.17,0.23,0.37,0.35,0.61,0.35s0.45-0.12,0.61-0.35s0.25-0.7,0.25-1.41
		c0-0.71-0.08-1.18-0.25-1.41s-0.37-0.35-0.62-0.35c-0.24,0-0.44,0.1-0.58,0.31C24.64,238.37,24.55,238.86,24.55,239.56z"/>
	<path class="st0" d="M28.16,239.35c-0.22-0.08-0.38-0.19-0.49-0.34s-0.16-0.33-0.16-0.53c0-0.31,0.11-0.58,0.34-0.79
		s0.52-0.32,0.9-0.32c0.38,0,0.68,0.11,0.91,0.33c0.23,0.22,0.34,0.48,0.34,0.8c0,0.2-0.05,0.37-0.16,0.52s-0.26,0.26-0.48,0.34
		c0.26,0.09,0.46,0.22,0.6,0.42s0.21,0.42,0.21,0.69c0,0.37-0.13,0.68-0.39,0.93s-0.6,0.38-1.03,0.38s-0.77-0.12-1.03-0.38
		s-0.39-0.56-0.39-0.94c0-0.28,0.07-0.51,0.21-0.7S27.9,239.42,28.16,239.35z M27.88,240.44c0,0.15,0.04,0.3,0.11,0.44
		s0.18,0.25,0.32,0.33c0.14,0.08,0.29,0.12,0.45,0.12c0.25,0,0.46-0.08,0.62-0.24s0.25-0.37,0.25-0.62c0-0.25-0.08-0.46-0.25-0.63
		s-0.38-0.25-0.63-0.25c-0.25,0-0.45,0.08-0.62,0.25S27.88,240.19,27.88,240.44z M28.05,238.46c0,0.2,0.07,0.37,0.2,0.5
		s0.3,0.19,0.51,0.19c0.2,0,0.37-0.06,0.5-0.19s0.19-0.29,0.19-0.47c0-0.19-0.07-0.36-0.2-0.49c-0.13-0.13-0.3-0.2-0.5-0.2
		c-0.2,0-0.37,0.06-0.5,0.19S28.05,238.28,28.05,238.46z"/>
	<path class="st0" d="M33.46,241.17v0.51h-2.84c0-0.13,0.02-0.25,0.06-0.37c0.07-0.19,0.19-0.38,0.35-0.57s0.39-0.4,0.69-0.65
		c0.47-0.38,0.78-0.69,0.95-0.91c0.16-0.22,0.25-0.43,0.25-0.63c0-0.21-0.07-0.39-0.22-0.53c-0.15-0.14-0.34-0.22-0.58-0.22
		c-0.25,0-0.46,0.08-0.61,0.23s-0.23,0.36-0.23,0.63l-0.54-0.06c0.04-0.4,0.18-0.71,0.42-0.92s0.57-0.32,0.98-0.32
		c0.41,0,0.74,0.11,0.98,0.34s0.36,0.51,0.36,0.85c0,0.17-0.04,0.34-0.11,0.51s-0.19,0.34-0.35,0.52s-0.43,0.44-0.81,0.76
		c-0.32,0.27-0.52,0.45-0.61,0.54c-0.09,0.1-0.16,0.19-0.22,0.29H33.46z"/>
	<path class="st0" d="M34.02,239.56c0-0.51,0.05-0.92,0.16-1.23s0.26-0.55,0.47-0.72s0.47-0.25,0.78-0.25
		c0.23,0,0.43,0.05,0.61,0.14c0.17,0.09,0.32,0.23,0.43,0.4s0.2,0.39,0.27,0.64s0.1,0.59,0.1,1.01c0,0.5-0.05,0.91-0.16,1.22
		c-0.1,0.31-0.26,0.55-0.46,0.72s-0.47,0.25-0.78,0.25c-0.41,0-0.74-0.15-0.98-0.45C34.16,240.95,34.02,240.37,34.02,239.56z
		 M34.56,239.56c0,0.71,0.08,1.17,0.25,1.41c0.17,0.23,0.37,0.35,0.61,0.35s0.45-0.12,0.61-0.35s0.25-0.7,0.25-1.41
		c0-0.71-0.08-1.18-0.25-1.41s-0.37-0.35-0.62-0.35c-0.24,0-0.44,0.1-0.58,0.31C34.65,238.37,34.56,238.86,34.56,239.56z"/>
	<path class="st0" d="M37.36,239.56c0-0.51,0.05-0.92,0.16-1.23s0.26-0.55,0.47-0.72s0.47-0.25,0.78-0.25
		c0.23,0,0.43,0.05,0.61,0.14c0.17,0.09,0.32,0.23,0.43,0.4s0.2,0.39,0.27,0.64s0.1,0.59,0.1,1.01c0,0.5-0.05,0.91-0.16,1.22
		c-0.1,0.31-0.26,0.55-0.46,0.72s-0.47,0.25-0.78,0.25c-0.41,0-0.74-0.15-0.98-0.45C37.5,240.95,37.36,240.37,37.36,239.56z
		 M37.9,239.56c0,0.71,0.08,1.17,0.25,1.41c0.17,0.23,0.37,0.35,0.61,0.35s0.45-0.12,0.61-0.35s0.25-0.7,0.25-1.41
		c0-0.71-0.08-1.18-0.25-1.41s-0.37-0.35-0.62-0.35c-0.24,0-0.44,0.1-0.58,0.31C37.99,238.37,37.9,238.86,37.9,239.56z"/>
	<path class="st0" d="M40.7,239.56c0-0.51,0.05-0.92,0.16-1.23s0.26-0.55,0.47-0.72s0.47-0.25,0.78-0.25c0.23,0,0.43,0.05,0.61,0.14
		c0.17,0.09,0.32,0.23,0.43,0.4s0.2,0.39,0.27,0.64s0.1,0.59,0.1,1.01c0,0.5-0.05,0.91-0.16,1.22c-0.1,0.31-0.26,0.55-0.46,0.72
		s-0.47,0.25-0.78,0.25c-0.41,0-0.74-0.15-0.98-0.45C40.84,240.95,40.7,240.37,40.7,239.56z M41.24,239.56
		c0,0.71,0.08,1.17,0.25,1.41c0.17,0.23,0.37,0.35,0.61,0.35s0.45-0.12,0.61-0.35s0.25-0.7,0.25-1.41c0-0.71-0.08-1.18-0.25-1.41
		s-0.37-0.35-0.62-0.35c-0.24,0-0.44,0.1-0.58,0.31C41.33,238.37,41.24,238.86,41.24,239.56z"/>
	<path class="st0" d="M44.07,237.95v-0.51h2.78v0.41c-0.27,0.29-0.54,0.68-0.81,1.16s-0.48,0.98-0.62,1.49
		c-0.11,0.36-0.17,0.75-0.2,1.18h-0.54c0.01-0.34,0.07-0.75,0.2-1.22s0.31-0.94,0.55-1.38c0.24-0.44,0.49-0.82,0.76-1.12H44.07z"/>
	<path class="st0" d="M49.36,241.68h-0.53v-3.36c-0.13,0.12-0.29,0.24-0.5,0.36s-0.39,0.21-0.56,0.27v-0.51
		c0.29-0.14,0.55-0.31,0.77-0.5s0.38-0.39,0.47-0.57h0.34V241.68z"/>
	<path class="st0" d="M50.71,240.55l0.55-0.05c0.04,0.27,0.14,0.47,0.29,0.61c0.15,0.14,0.33,0.2,0.54,0.2
		c0.25,0,0.47-0.1,0.64-0.29s0.26-0.45,0.26-0.76c0-0.3-0.08-0.54-0.25-0.71s-0.39-0.26-0.66-0.26c-0.17,0-0.32,0.04-0.46,0.12
		s-0.24,0.18-0.32,0.3l-0.5-0.06l0.42-2.21h2.14v0.5h-1.71l-0.23,1.15c0.26-0.18,0.53-0.27,0.81-0.27c0.38,0,0.69,0.13,0.95,0.39
		s0.39,0.59,0.39,1c0,0.39-0.11,0.72-0.34,1.01c-0.28,0.35-0.65,0.52-1.13,0.52c-0.39,0-0.71-0.11-0.96-0.33
		S50.74,240.92,50.71,240.55z"/>
	<path class="st0" d="M54.08,237.95v-0.51h2.78v0.41c-0.27,0.29-0.54,0.68-0.81,1.16s-0.48,0.98-0.62,1.49
		c-0.11,0.36-0.17,0.75-0.2,1.18h-0.54c0.01-0.34,0.07-0.75,0.2-1.22s0.31-0.94,0.55-1.38c0.24-0.44,0.49-0.82,0.76-1.12H54.08z"/>
	<path class="st0" d="M57.54,242.87v-5.49h1.16v0.44h-0.64v4.61h0.64v0.44H57.54z"/>
	<path class="st0" d="M61.32,240.68l0.54,0.07c-0.09,0.32-0.25,0.57-0.48,0.74s-0.53,0.26-0.89,0.26c-0.46,0-0.82-0.14-1.08-0.42
		s-0.4-0.67-0.4-1.18c0-0.52,0.13-0.93,0.4-1.22s0.62-0.43,1.05-0.43c0.42,0,0.76,0.14,1.02,0.42s0.4,0.68,0.4,1.2
		c0,0.03,0,0.08,0,0.14h-2.32c0.02,0.34,0.12,0.6,0.29,0.79s0.39,0.27,0.65,0.27c0.19,0,0.36-0.05,0.5-0.15
		S61.24,240.9,61.32,240.68z M59.59,239.82h1.74c-0.02-0.26-0.09-0.46-0.2-0.59c-0.17-0.2-0.39-0.3-0.65-0.3
		c-0.24,0-0.45,0.08-0.61,0.24S59.61,239.55,59.59,239.82z"/>
	<path class="st0" d="M62.18,241.68l1.14-1.62l-1.05-1.49h0.66l0.48,0.73c0.09,0.14,0.16,0.25,0.22,0.35
		c0.09-0.13,0.17-0.24,0.24-0.34l0.52-0.74h0.63l-1.08,1.46l1.16,1.65h-0.65l-0.64-0.97l-0.17-0.26l-0.82,1.23H62.18z"/>
	<path class="st0" d="M65.53,242.87v-4.3h0.48v0.4c0.11-0.16,0.24-0.28,0.38-0.36c0.14-0.08,0.32-0.12,0.52-0.12
		c0.27,0,0.5,0.07,0.7,0.21s0.36,0.33,0.46,0.58c0.1,0.25,0.16,0.52,0.16,0.82c0,0.32-0.06,0.6-0.17,0.86
		c-0.11,0.25-0.28,0.45-0.5,0.59c-0.22,0.13-0.45,0.2-0.69,0.2c-0.18,0-0.33-0.04-0.47-0.11s-0.25-0.17-0.34-0.28v1.51H65.53z
		 M66.01,240.14c0,0.4,0.08,0.7,0.24,0.89s0.36,0.29,0.59,0.29c0.23,0,0.44-0.1,0.6-0.3s0.25-0.51,0.25-0.92
		c0-0.4-0.08-0.69-0.24-0.89s-0.36-0.3-0.58-0.3c-0.22,0-0.42,0.11-0.6,0.32S66.01,239.74,66.01,240.14z"/>
	<path class="st0" d="M68.72,239.56c0-0.51,0.05-0.92,0.16-1.23s0.26-0.55,0.47-0.72s0.47-0.25,0.78-0.25
		c0.23,0,0.43,0.05,0.61,0.14c0.17,0.09,0.32,0.23,0.43,0.4s0.2,0.39,0.27,0.64s0.1,0.59,0.1,1.01c0,0.5-0.05,0.91-0.16,1.22
		c-0.1,0.31-0.26,0.55-0.46,0.72s-0.47,0.25-0.78,0.25c-0.41,0-0.74-0.15-0.98-0.45C68.86,240.95,68.72,240.37,68.72,239.56z
		 M69.26,239.56c0,0.71,0.08,1.17,0.25,1.41c0.17,0.23,0.37,0.35,0.61,0.35s0.45-0.12,0.61-0.35s0.25-0.7,0.25-1.41
		c0-0.71-0.08-1.18-0.25-1.41s-0.37-0.35-0.62-0.35c-0.24,0-0.44,0.1-0.58,0.31C69.35,238.37,69.26,238.86,69.26,239.56z"/>
	<path class="st0" d="M72.87,239.35c-0.22-0.08-0.38-0.19-0.49-0.34s-0.16-0.33-0.16-0.53c0-0.31,0.11-0.58,0.34-0.79
		s0.52-0.32,0.9-0.32c0.38,0,0.68,0.11,0.91,0.33c0.23,0.22,0.34,0.48,0.34,0.8c0,0.2-0.05,0.37-0.16,0.52s-0.26,0.26-0.48,0.34
		c0.26,0.09,0.46,0.22,0.6,0.42s0.21,0.42,0.21,0.69c0,0.37-0.13,0.68-0.39,0.93s-0.6,0.38-1.03,0.38s-0.77-0.12-1.03-0.38
		s-0.39-0.56-0.39-0.94c0-0.28,0.07-0.51,0.21-0.7S72.61,239.42,72.87,239.35z M72.59,240.44c0,0.15,0.04,0.3,0.11,0.44
		s0.18,0.25,0.32,0.33c0.14,0.08,0.29,0.12,0.45,0.12c0.25,0,0.46-0.08,0.62-0.24s0.25-0.37,0.25-0.62c0-0.25-0.08-0.46-0.25-0.63
		s-0.38-0.25-0.63-0.25c-0.25,0-0.45,0.08-0.62,0.25S72.59,240.19,72.59,240.44z M72.76,238.46c0,0.2,0.07,0.37,0.2,0.5
		s0.3,0.19,0.51,0.19c0.2,0,0.37-0.06,0.5-0.19s0.19-0.29,0.19-0.47c0-0.19-0.07-0.36-0.2-0.49c-0.13-0.13-0.3-0.2-0.5-0.2
		c-0.2,0-0.37,0.06-0.5,0.19S72.76,238.28,72.76,238.46z"/>
	<path class="st0" d="M78.17,241.17v0.51h-2.84c0-0.13,0.02-0.25,0.06-0.37c0.07-0.19,0.19-0.38,0.35-0.57s0.39-0.4,0.69-0.65
		c0.47-0.38,0.78-0.69,0.95-0.91c0.16-0.22,0.25-0.43,0.25-0.63c0-0.21-0.07-0.39-0.22-0.53c-0.15-0.14-0.34-0.22-0.58-0.22
		c-0.25,0-0.46,0.08-0.61,0.23s-0.23,0.36-0.23,0.63l-0.54-0.06c0.04-0.4,0.18-0.71,0.42-0.92s0.57-0.32,0.98-0.32
		c0.41,0,0.74,0.11,0.98,0.34s0.36,0.51,0.36,0.85c0,0.17-0.04,0.34-0.11,0.51s-0.19,0.34-0.35,0.52s-0.43,0.44-0.81,0.76
		c-0.32,0.27-0.52,0.45-0.61,0.54c-0.09,0.1-0.16,0.19-0.22,0.29H78.17z"/>
	<path class="st0" d="M80.72,241.68h-0.53v-3.36c-0.13,0.12-0.29,0.24-0.5,0.36s-0.39,0.21-0.56,0.27v-0.51
		c0.29-0.14,0.55-0.31,0.77-0.5s0.38-0.39,0.47-0.57h0.34V241.68z"/>
	<path class="st0" d="M83.1,242.87h-1.16v-0.44h0.64v-4.61h-0.64v-0.44h1.16V242.87z"/>
	<path class="st0" d="M83.89,242.87v-5.49h1.16v0.44h-0.64v4.61h0.64v0.44H83.89z"/>
	<path class="st0" d="M85.15,241.68l1.65-4.29h0.61l1.76,4.29h-0.65l-0.5-1.3h-1.8l-0.47,1.3H85.15z M86.38,239.92h1.46l-0.45-1.19
		c-0.14-0.36-0.24-0.66-0.3-0.89c-0.05,0.28-0.13,0.55-0.23,0.82L86.38,239.92z"/>
	<path class="st0" d="M89.54,241.68v-4.29h0.53v4.29H89.54z"/>
	<path class="st0" d="M90.87,241.68v-4.29h0.53v4.29H90.87z"/>
	<path class="st0" d="M93.76,240.3l0.54-0.05c0.03,0.21,0.08,0.39,0.18,0.53c0.09,0.14,0.24,0.25,0.43,0.33
		c0.2,0.09,0.42,0.13,0.66,0.13c0.22,0,0.41-0.03,0.57-0.1s0.29-0.15,0.37-0.27c0.08-0.11,0.12-0.23,0.12-0.37
		c0-0.13-0.04-0.25-0.12-0.35c-0.08-0.1-0.21-0.18-0.39-0.25c-0.12-0.04-0.37-0.11-0.76-0.21c-0.39-0.09-0.67-0.18-0.83-0.27
		c-0.21-0.11-0.36-0.24-0.46-0.4c-0.1-0.16-0.15-0.34-0.15-0.53c0-0.22,0.06-0.42,0.18-0.61c0.12-0.19,0.3-0.33,0.54-0.43
		s0.5-0.15,0.79-0.15c0.32,0,0.6,0.05,0.84,0.15c0.24,0.1,0.43,0.25,0.56,0.45s0.2,0.42,0.21,0.68l-0.54,0.04
		c-0.03-0.27-0.13-0.48-0.3-0.62s-0.42-0.21-0.75-0.21c-0.34,0-0.59,0.06-0.75,0.19c-0.16,0.12-0.24,0.28-0.24,0.46
		c0,0.15,0.06,0.28,0.17,0.38c0.11,0.1,0.4,0.2,0.86,0.31s0.78,0.2,0.95,0.27c0.25,0.12,0.43,0.26,0.55,0.44
		c0.12,0.18,0.18,0.38,0.18,0.61c0,0.23-0.07,0.44-0.2,0.65c-0.13,0.2-0.32,0.36-0.56,0.47c-0.25,0.11-0.52,0.17-0.83,0.17
		c-0.39,0-0.71-0.06-0.98-0.17s-0.47-0.28-0.62-0.51S93.77,240.59,93.76,240.3z"/>
	<path class="st0" d="M99.04,241.21l0.08,0.47c-0.15,0.03-0.28,0.05-0.4,0.05c-0.19,0-0.34-0.03-0.45-0.09s-0.18-0.14-0.22-0.24
		c-0.04-0.1-0.06-0.31-0.06-0.62v-1.79H97.6v-0.41h0.39v-0.77l0.52-0.32v1.09h0.53v0.41h-0.53v1.82c0,0.15,0.01,0.25,0.03,0.29
		s0.05,0.08,0.09,0.1s0.1,0.04,0.18,0.04C98.86,241.23,98.94,241.22,99.04,241.21z"/>
	<path class="st0" d="M101.58,241.29c-0.2,0.17-0.38,0.28-0.56,0.35s-0.37,0.1-0.58,0.1c-0.34,0-0.6-0.08-0.79-0.25
		c-0.18-0.17-0.28-0.38-0.28-0.64c0-0.15,0.03-0.29,0.1-0.42c0.07-0.12,0.16-0.23,0.27-0.3s0.24-0.13,0.38-0.17
		c0.1-0.03,0.26-0.05,0.47-0.08c0.43-0.05,0.74-0.11,0.94-0.18c0-0.07,0-0.12,0-0.14c0-0.21-0.05-0.37-0.15-0.45
		c-0.13-0.12-0.33-0.18-0.6-0.18c-0.25,0-0.43,0.04-0.55,0.13c-0.12,0.09-0.21,0.24-0.26,0.46l-0.52-0.07
		c0.05-0.22,0.12-0.4,0.23-0.53s0.26-0.24,0.47-0.31c0.2-0.07,0.44-0.11,0.71-0.11c0.27,0,0.48,0.03,0.65,0.09s0.29,0.14,0.37,0.24
		s0.13,0.21,0.16,0.36c0.02,0.09,0.03,0.25,0.03,0.49v0.7c0,0.49,0.01,0.8,0.03,0.93s0.07,0.25,0.13,0.37h-0.55
		C101.63,241.57,101.6,241.44,101.58,241.29z M101.54,240.12c-0.19,0.08-0.48,0.14-0.86,0.2c-0.22,0.03-0.37,0.07-0.46,0.11
		s-0.16,0.1-0.21,0.17c-0.05,0.08-0.07,0.16-0.07,0.25c0,0.14,0.05,0.26,0.16,0.35s0.26,0.14,0.47,0.14c0.2,0,0.38-0.04,0.54-0.13
		c0.16-0.09,0.27-0.21,0.35-0.36c0.06-0.12,0.08-0.29,0.08-0.53V240.12z"/>
	<path class="st0" d="M104.04,241.21l0.08,0.47c-0.15,0.03-0.28,0.05-0.4,0.05c-0.19,0-0.34-0.03-0.45-0.09s-0.18-0.14-0.22-0.24
		c-0.04-0.1-0.06-0.31-0.06-0.62v-1.79h-0.39v-0.41h0.39v-0.77l0.52-0.32v1.09h0.53v0.41h-0.53v1.82c0,0.15,0.01,0.25,0.03,0.29
		s0.05,0.08,0.09,0.1s0.1,0.04,0.18,0.04C103.87,241.23,103.95,241.22,104.04,241.21z"/>
	<path class="st0" d="M106.69,240.68l0.54,0.07c-0.09,0.32-0.25,0.57-0.48,0.74s-0.53,0.26-0.89,0.26c-0.46,0-0.82-0.14-1.08-0.42
		s-0.4-0.67-0.4-1.18c0-0.52,0.13-0.93,0.4-1.22s0.62-0.43,1.05-0.43c0.42,0,0.76,0.14,1.02,0.42s0.4,0.68,0.4,1.2
		c0,0.03,0,0.08,0,0.14h-2.32c0.02,0.34,0.12,0.6,0.29,0.79s0.39,0.27,0.65,0.27c0.19,0,0.36-0.05,0.5-0.15
		S106.61,240.9,106.69,240.68z M104.96,239.82h1.74c-0.02-0.26-0.09-0.46-0.2-0.59c-0.17-0.2-0.39-0.3-0.65-0.3
		c-0.24,0-0.45,0.08-0.61,0.24S104.97,239.55,104.96,239.82z"/>
	<path class="st0" d="M107.68,240.75l0.52-0.08c0.03,0.21,0.11,0.37,0.24,0.48s0.32,0.17,0.56,0.17c0.24,0,0.42-0.05,0.54-0.15
		c0.12-0.1,0.18-0.21,0.18-0.35c0-0.12-0.05-0.21-0.16-0.28c-0.07-0.05-0.25-0.11-0.54-0.18c-0.39-0.1-0.65-0.18-0.8-0.25
		c-0.15-0.07-0.26-0.17-0.34-0.29c-0.08-0.13-0.12-0.27-0.12-0.42c0-0.14,0.03-0.27,0.1-0.38s0.15-0.22,0.26-0.29
		c0.08-0.06,0.19-0.11,0.34-0.15c0.14-0.04,0.29-0.06,0.46-0.06c0.24,0,0.46,0.04,0.64,0.11s0.32,0.17,0.41,0.29
		c0.09,0.12,0.15,0.28,0.18,0.48l-0.52,0.07c-0.02-0.16-0.09-0.29-0.2-0.38s-0.27-0.13-0.48-0.13c-0.24,0-0.42,0.04-0.52,0.12
		s-0.16,0.17-0.16,0.28c0,0.07,0.02,0.13,0.06,0.18c0.04,0.06,0.11,0.1,0.2,0.14c0.05,0.02,0.21,0.06,0.47,0.13
		c0.37,0.1,0.63,0.18,0.78,0.24c0.15,0.06,0.26,0.16,0.35,0.28s0.13,0.27,0.13,0.45c0,0.18-0.05,0.34-0.15,0.5
		c-0.1,0.16-0.25,0.28-0.44,0.36c-0.19,0.08-0.41,0.13-0.66,0.13c-0.4,0-0.71-0.08-0.92-0.25S107.74,241.08,107.68,240.75z"/>
	<path class="st0" d="M111.78,242.87h-1.16v-0.44h0.64v-4.61h-0.64v-0.44h1.16V242.87z"/>
	<path class="st0" d="M112.57,242.87v-5.49h1.16v0.44h-0.64v4.61h0.64v0.44H112.57z"/>
	<path class="st0" d="M114.3,241.68v-4.29h1.48c0.33,0,0.59,0.02,0.76,0.06c0.25,0.06,0.46,0.16,0.63,0.31
		c0.23,0.19,0.4,0.44,0.51,0.73s0.17,0.64,0.17,1.02c0,0.33-0.04,0.62-0.11,0.87s-0.17,0.46-0.29,0.63s-0.25,0.29-0.39,0.39
		c-0.14,0.1-0.31,0.17-0.51,0.22s-0.43,0.07-0.69,0.07H114.3z M114.86,241.17h0.92c0.28,0,0.51-0.03,0.67-0.08s0.29-0.13,0.39-0.22
		c0.13-0.13,0.24-0.32,0.31-0.54s0.11-0.5,0.11-0.83c0-0.45-0.07-0.79-0.22-1.04s-0.33-0.4-0.54-0.49c-0.15-0.06-0.4-0.09-0.74-0.09
		h-0.9V241.17z"/>
	<path class="st0" d="M121.69,240.17l0.57,0.14c-0.12,0.47-0.33,0.82-0.64,1.07c-0.31,0.25-0.69,0.37-1.14,0.37
		c-0.46,0-0.84-0.09-1.13-0.28s-0.51-0.46-0.66-0.82s-0.23-0.74-0.23-1.15c0-0.45,0.09-0.84,0.26-1.17s0.41-0.59,0.73-0.76
		c0.32-0.17,0.66-0.26,1.04-0.26c0.43,0,0.79,0.11,1.08,0.33s0.5,0.53,0.61,0.92l-0.56,0.13c-0.1-0.31-0.24-0.54-0.43-0.68
		s-0.43-0.21-0.71-0.21c-0.33,0-0.61,0.08-0.83,0.24s-0.38,0.37-0.47,0.64c-0.09,0.27-0.13,0.54-0.13,0.83
		c0,0.37,0.05,0.68,0.16,0.96c0.11,0.27,0.27,0.48,0.5,0.61s0.47,0.2,0.73,0.2c0.32,0,0.59-0.09,0.81-0.28
		S121.61,240.53,121.69,240.17z"/>
	<path class="st0" d="M123.03,241.68v-0.6h0.6v0.6c0,0.22-0.04,0.4-0.12,0.54c-0.08,0.13-0.2,0.24-0.37,0.31L123,242.3
		c0.11-0.05,0.19-0.12,0.25-0.22s0.08-0.23,0.09-0.41H123.03z"/>
	<path class="st0" d="M126.64,239.99v-0.5l1.82,0v1.59c-0.28,0.22-0.57,0.39-0.86,0.5c-0.3,0.11-0.6,0.17-0.91,0.17
		c-0.42,0-0.81-0.09-1.15-0.27s-0.6-0.44-0.78-0.78s-0.26-0.72-0.26-1.15c0-0.42,0.09-0.81,0.26-1.17s0.43-0.63,0.75-0.81
		s0.71-0.26,1.13-0.26c0.31,0,0.59,0.05,0.84,0.15s0.45,0.24,0.59,0.42s0.25,0.41,0.33,0.7l-0.51,0.14
		c-0.06-0.22-0.14-0.39-0.24-0.52s-0.23-0.22-0.41-0.3c-0.18-0.07-0.38-0.11-0.59-0.11c-0.26,0-0.48,0.04-0.67,0.12
		c-0.19,0.08-0.34,0.18-0.46,0.31s-0.21,0.27-0.27,0.42c-0.11,0.27-0.16,0.55-0.16,0.86c0,0.38,0.07,0.7,0.2,0.96
		s0.32,0.45,0.58,0.57s0.52,0.19,0.8,0.19c0.25,0,0.49-0.05,0.72-0.14c0.23-0.09,0.41-0.2,0.53-0.3v-0.8H126.64z"/>
	<path class="st0" d="M132.11,237.38h0.57v2.48c0,0.43-0.05,0.77-0.15,1.03s-0.27,0.46-0.53,0.62c-0.25,0.16-0.59,0.24-1,0.24
		c-0.4,0-0.73-0.07-0.99-0.21s-0.44-0.34-0.55-0.6s-0.16-0.62-0.16-1.08v-2.48h0.57v2.48c0,0.37,0.03,0.65,0.1,0.82
		c0.07,0.18,0.19,0.31,0.36,0.41s0.38,0.14,0.62,0.14c0.42,0,0.72-0.09,0.89-0.28s0.27-0.55,0.27-1.09V237.38z"/>
	<path class="st0" d="M133.7,241.68v-0.6h0.6v0.6c0,0.22-0.04,0.4-0.12,0.54c-0.08,0.13-0.2,0.24-0.37,0.31l-0.15-0.23
		c0.11-0.05,0.19-0.12,0.25-0.22s0.08-0.23,0.09-0.41H133.7z"/>
	<path class="st0" d="M135.28,241.68v-4.29h0.86l1.02,3.04c0.09,0.28,0.16,0.5,0.21,0.64c0.05-0.16,0.12-0.39,0.23-0.69l1.03-2.99
		h0.76v4.29h-0.55v-3.59l-1.25,3.59h-0.51l-1.24-3.66v3.66H135.28z"/>
	<path class="st0" d="M140.29,241.68v-4.29h1.62c0.29,0,0.5,0.01,0.65,0.04c0.21,0.04,0.39,0.1,0.53,0.2s0.26,0.24,0.34,0.41
		c0.09,0.18,0.13,0.37,0.13,0.59c0,0.37-0.12,0.67-0.35,0.93s-0.65,0.38-1.26,0.38h-1.1v1.75H140.29z M140.86,239.43h1.11
		c0.37,0,0.63-0.07,0.78-0.21s0.23-0.33,0.23-0.58c0-0.18-0.05-0.33-0.14-0.46c-0.09-0.13-0.21-0.21-0.36-0.25
		c-0.1-0.03-0.27-0.04-0.53-0.04h-1.1V239.43z"/>
	<path class="st0" d="M144.37,241.68v-0.6h0.6v0.6c0,0.22-0.04,0.4-0.12,0.54c-0.08,0.13-0.2,0.24-0.37,0.31l-0.15-0.23
		c0.11-0.05,0.19-0.12,0.25-0.22s0.08-0.23,0.09-0.41H144.37z"/>
	<path class="st0" d="M145.96,241.68v-4.29h1.62c0.29,0,0.5,0.01,0.65,0.04c0.21,0.04,0.39,0.1,0.53,0.2s0.26,0.24,0.34,0.41
		c0.09,0.18,0.13,0.37,0.13,0.59c0,0.37-0.12,0.67-0.35,0.93s-0.65,0.38-1.26,0.38h-1.1v1.75H145.96z M146.53,239.43h1.11
		c0.37,0,0.63-0.07,0.78-0.21s0.23-0.33,0.23-0.58c0-0.18-0.05-0.33-0.14-0.46c-0.09-0.13-0.21-0.21-0.36-0.25
		c-0.1-0.03-0.27-0.04-0.53-0.04h-1.1V239.43z"/>
	<path class="st0" d="M149.97,241.68v-4.29h1.9c0.38,0,0.67,0.04,0.87,0.12c0.2,0.08,0.36,0.21,0.48,0.41s0.18,0.41,0.18,0.65
		c0,0.3-0.1,0.56-0.3,0.77s-0.5,0.34-0.91,0.4c0.15,0.07,0.26,0.14,0.34,0.21c0.17,0.15,0.32,0.34,0.47,0.57l0.75,1.17h-0.71
		l-0.57-0.89c-0.17-0.26-0.3-0.46-0.41-0.59s-0.2-0.23-0.29-0.29c-0.09-0.05-0.17-0.09-0.26-0.11c-0.06-0.01-0.17-0.02-0.32-0.02
		h-0.66v1.91H149.97z M150.54,239.28h1.22c0.26,0,0.46-0.03,0.61-0.08c0.15-0.05,0.26-0.14,0.33-0.26c0.08-0.12,0.11-0.25,0.11-0.38
		c0-0.2-0.07-0.37-0.22-0.5s-0.38-0.2-0.7-0.2h-1.36V239.28z"/>
	<path class="st0" d="M154.37,241.68v-0.6h0.6v0.6c0,0.22-0.04,0.4-0.12,0.54c-0.08,0.13-0.2,0.24-0.37,0.31l-0.15-0.23
		c0.11-0.05,0.19-0.12,0.25-0.22s0.08-0.23,0.09-0.41H154.37z"/>
	<path class="st0" d="M157.19,241.68l-1.66-4.29h0.62l1.12,3.12c0.09,0.25,0.17,0.48,0.23,0.7c0.07-0.23,0.14-0.47,0.23-0.7
		l1.16-3.12h0.58l-1.68,4.29H157.19z"/>
	<path class="st0" d="M160.06,241.68v-4.29h0.57v4.29H160.06z"/>
	<path class="st0" d="M162.45,242.87h-1.16v-0.44h0.64v-4.61h-0.64v-0.44h1.16V242.87z"/>
</g>
</svg>
