<?xml version="1.0" encoding="utf-8"?>
<!-- Generator: Adobe Illustrator 24.2.3, SVG Export Plug-In . SVG Version: 6.00 Build 0)  -->
<svg version="1.1" id="Layer_1" xmlns="http://www.w3.org/2000/svg" xmlns:xlink="http://www.w3.org/1999/xlink" x="0px" y="0px"
	 viewBox="0 0 300 250" style="enable-background:new 0 0 300 250;" xml:space="preserve">
<style type="text/css">
	.st0{fill:#006098;}
</style>
<g>
	<path class="st0" d="M28.31,38.22h7.07v27.13h-7.07V38.22z"/>
	<path class="st0" d="M43.93,58.85c0,0.99,0.42,1.71,1.06,2.2c0.61,0.46,1.48,0.68,2.39,0.68c1.25,0,3.04-0.53,3.04-2.09
		c0-1.52-2.01-1.82-3.15-2.09c-4.07-1.03-9.16-1.14-9.16-6.46c0-4.75,5.13-6.04,9-6.04c4.33,0,8.85,1.25,9.08,6.38h-5.97
		c0-0.84-0.3-1.37-0.84-1.71c-0.53-0.34-1.25-0.49-2.05-0.49c-1.06,0-2.77,0.11-2.77,1.48c0,1.86,4.33,2.2,7.29,2.85
		c3.99,0.8,5.02,3.69,5.02,5.32c0,5.28-5.02,7.03-9.46,7.03c-4.67,0-9.46-1.56-9.65-7.07H43.93z"/>
	<path class="st0" d="M82.08,67.1c-1.56,4.33-3.88,4.86-8.24,4.86H70.8v-5.24h2.24c1.48,0,2.58-0.84,2.58-2.2
		c0-1.06-1.25-4.1-1.63-5.17L68.9,45.63h6.84l3.72,12.84h0.08l3.72-12.84h6.61L82.08,67.1z"/>
	<path class="st0" d="M99.83,45.06c6.12,0,10.41,4.52,10.41,10.45c0,5.93-4.29,10.41-10.41,10.41s-10.37-4.48-10.37-10.41
		C89.45,49.58,93.71,45.06,99.83,45.06z M99.83,60.98c3,0,3.95-2.96,3.95-5.47c0-2.51-0.95-5.51-3.95-5.51s-3.91,3-3.91,5.51
		C95.91,58.02,96.82,60.98,99.83,60.98z"/>
	<path class="st0" d="M132.31,65.35h-6.27v-2.7h-0.08c-1.22,2.01-3.72,3.27-6,3.27c-5.66,0-7.29-3.27-7.29-8.43V45.63h6.46v11.44
		c0,2.62,1.14,3.53,3.19,3.53c1.41,0,3.53-0.91,3.53-4.41V45.63h6.46V65.35z"/>
	<path class="st0" d="M135.85,45.63h6.27v3.46h0.08c0.95-2.51,3.15-3.84,5.93-3.84c0.49,0,1.03,0.04,1.52,0.15v5.89
		c-0.84-0.23-1.6-0.38-2.47-0.38c-3.19,0-4.86,2.2-4.86,4.67v9.76h-6.46V45.63z"/>
</g>
<g>
	<path class="st0" d="M28.27,76.22h6.46v27.13h-6.46V76.22z"/>
	<path class="st0" d="M44.8,81.16h-6.46v-4.94h6.46V81.16z M38.34,83.63h6.46v19.72h-6.46V83.63z"/>
	<path class="st0" d="M49.9,87.81h-3.12v-4.18h3.12c0-5.66,1.98-7.41,7.48-7.41c1.03,0,2.09,0.08,3.12,0.11v4.56
		c-0.61-0.08-1.18-0.11-1.75-0.11c-1.48,0-2.39,0.19-2.39,1.98v0.87h3.88v4.18h-3.88v15.54H49.9V87.81z"/>
	<path class="st0" d="M67.18,95.07c0.11,2.7,1.67,4.48,4.41,4.48c1.56,0,3.08-0.72,3.69-2.17h6.04c-1.18,4.56-5.4,6.54-9.8,6.54
		c-6.42,0-10.79-3.88-10.79-10.49c0-6.04,4.83-10.37,10.64-10.37c7.07,0,10.6,5.32,10.3,12.01H67.18z M75.2,91.46
		c-0.11-2.2-1.67-4.03-3.84-4.03c-2.28,0-3.8,1.63-4.18,4.03H75.2z"/>
	<path class="st0" d="M102.87,81.16h-6.46v-4.94h6.46V81.16z M96.41,83.63h6.46v19.72h-6.46V83.63z"/>
	<path class="st0" d="M106.32,83.63h6.27v2.7h0.08c1.18-2.01,3.84-3.27,6.19-3.27c6.57,0,7.1,4.79,7.1,7.64v12.65h-6.46v-9.54
		c0-2.7,0.3-5.43-3.23-5.43c-2.43,0-3.5,2.05-3.5,4.22v10.75h-6.46V83.63z"/>
	<path class="st0" d="M134.06,96.85c0,0.99,0.42,1.71,1.06,2.2c0.61,0.46,1.48,0.68,2.39,0.68c1.25,0,3.04-0.53,3.04-2.09
		c0-1.52-2.01-1.82-3.15-2.09c-4.07-1.03-9.16-1.14-9.16-6.46c0-4.75,5.13-6.04,9-6.04c4.33,0,8.85,1.25,9.08,6.38h-5.97
		c0-0.84-0.3-1.37-0.84-1.71c-0.53-0.34-1.25-0.49-2.05-0.49c-1.06,0-2.77,0.11-2.77,1.48c0,1.86,4.33,2.2,7.29,2.85
		c3.99,0.8,5.02,3.69,5.02,5.32c0,5.28-5.02,7.03-9.46,7.03c-4.67,0-9.46-1.56-9.65-7.07H134.06z"/>
	<path class="st0" d="M168.53,103.35h-6.27v-2.7h-0.08c-1.22,2.01-3.72,3.27-6,3.27c-5.66,0-7.29-3.27-7.29-8.43V83.63h6.46v11.44
		c0,2.62,1.14,3.53,3.19,3.53c1.41,0,3.53-0.91,3.53-4.41V83.63h6.46V103.35z"/>
	<path class="st0" d="M172.03,83.63h6.27v3.46h0.08c0.95-2.51,3.15-3.84,5.93-3.84c0.49,0,1.03,0.04,1.52,0.15v5.89
		c-0.84-0.23-1.6-0.38-2.47-0.38c-3.19,0-4.86,2.2-4.86,4.67v9.76h-6.46V83.63z"/>
	<path class="st0" d="M186.88,89.71c0.11-2.58,1.33-4.26,3.08-5.28c1.75-0.99,4.03-1.37,6.27-1.37c4.67,0,9.2,1.03,9.2,6.61v8.62
		c0,1.67,0,3.5,0.76,5.05h-6.5c-0.23-0.61-0.3-1.22-0.38-1.86c-1.67,1.75-4.14,2.43-6.5,2.43c-3.76,0-6.73-1.9-6.73-5.96
		c0-6.42,6.99-5.93,11.47-6.84c1.1-0.23,1.71-0.61,1.71-1.82c0-1.48-1.79-2.05-3.12-2.05c-1.79,0-2.92,0.8-3.23,2.47H186.88z
		 M195.24,99.93c3.08,0,4.1-1.75,3.95-5.81c-0.91,0.57-2.58,0.68-3.99,1.06c-1.44,0.34-2.66,0.95-2.66,2.51
		C192.54,99.28,193.8,99.93,195.24,99.93z"/>
	<path class="st0" d="M208.62,83.63h6.27v2.7h0.08c1.18-2.01,3.84-3.27,6.19-3.27c6.57,0,7.1,4.79,7.1,7.64v12.65h-6.46v-9.54
		c0-2.7,0.3-5.43-3.23-5.43c-2.43,0-3.5,2.05-3.5,4.22v10.75h-6.46V83.63z"/>
	<path class="st0" d="M244.53,90.85c-0.04-1.67-1.52-2.85-3.15-2.85c-3.61,0-4.18,3.08-4.18,5.81c0,2.55,1.1,5.17,3.84,5.17
		c2.24,0,3.38-1.29,3.69-3.38h6.27c-0.57,5.28-4.67,8.32-9.92,8.32c-5.93,0-10.33-4.07-10.33-10.11c0-6.27,3.99-10.75,10.33-10.75
		c4.9,0,9.27,2.58,9.73,7.79H244.53z"/>
	<path class="st0" d="M258.32,95.07c0.11,2.7,1.67,4.48,4.41,4.48c1.56,0,3.08-0.72,3.69-2.17h6.04c-1.18,4.56-5.39,6.54-9.8,6.54
		c-6.42,0-10.79-3.88-10.79-10.49c0-6.04,4.83-10.37,10.64-10.37c7.07,0,10.6,5.32,10.3,12.01H258.32z M266.34,91.46
		c-0.11-2.2-1.67-4.03-3.84-4.03c-2.28,0-3.8,1.63-4.18,4.03H266.34z"/>
</g>
<g>
	<path class="st0" d="M28.05,114.22h6.46v13.98l5.89-6.57h7.48l-7.22,7.45l8.13,12.27H41l-4.83-7.94l-1.67,1.63v6.31h-6.46V114.22z"
		/>
	<path class="st0" d="M54.65,133.07c0.11,2.7,1.67,4.48,4.41,4.48c1.56,0,3.08-0.72,3.69-2.17h6.04c-1.18,4.56-5.4,6.54-9.8,6.54
		c-6.42,0-10.79-3.88-10.79-10.49c0-6.04,4.83-10.37,10.64-10.37c7.07,0,10.6,5.32,10.3,12.01H54.65z M62.66,129.46
		c-0.11-2.2-1.67-4.03-3.84-4.03c-2.28,0-3.8,1.63-4.18,4.03H62.66z"/>
	<path class="st0" d="M77.25,133.07c0.11,2.7,1.67,4.48,4.41,4.48c1.56,0,3.08-0.72,3.69-2.17h6.04c-1.18,4.56-5.4,6.54-9.8,6.54
		c-6.42,0-10.79-3.88-10.79-10.49c0-6.04,4.83-10.37,10.64-10.37c7.07,0,10.6,5.32,10.3,12.01H77.25z M85.27,129.46
		c-0.11-2.2-1.67-4.03-3.84-4.03c-2.28,0-3.8,1.63-4.18,4.03H85.27z"/>
	<path class="st0" d="M94.09,121.63h6.16v2.28h0.08c1.25-1.86,3.15-2.85,5.43-2.85c6.19,0,8.81,5.32,8.81,10.87
		c0,5.13-2.74,9.99-8.32,9.99c-2.43,0-4.29-0.91-5.62-2.7h-0.08v8.74h-6.46V121.63z M100.32,131.28c0,3.46,0.99,5.7,3.91,5.7
		c2.89,0,3.88-3,3.88-5.7c0-2.51-0.99-5.28-3.84-5.28C102.52,126,100.32,127.22,100.32,131.28z"/>
	<path class="st0" d="M123.84,119.16h-6.46v-4.94h6.46V119.16z M117.38,121.63h6.46v19.72h-6.46V121.63z"/>
	<path class="st0" d="M127.3,121.63h6.27v2.7h0.08c1.18-2.01,3.84-3.27,6.19-3.27c6.57,0,7.1,4.79,7.1,7.64v12.65h-6.46v-9.54
		c0-2.7,0.3-5.43-3.23-5.43c-2.43,0-3.5,2.05-3.5,4.22v10.75h-6.46V121.63z"/>
	<path class="st0" d="M169.44,138.96c0,3.23-0.61,9.31-9.84,9.31c-4.6,0-8.93-1.03-9.69-6.31h6.46c0.15,0.87,0.49,1.41,1.1,1.71
		c0.57,0.3,1.37,0.42,2.36,0.42c3.08,0,3.38-2.17,3.38-4.6v-1.86h-0.08c-1.18,1.82-3.15,2.89-5.24,2.89c-5.97,0-8.66-4.25-8.66-9.8
		c0-5.24,3.08-9.65,8.66-9.65c2.36,0,4.14,1.03,5.28,3.04h0.08v-2.47h6.19V138.96z M159.45,126c-2.85,0-3.76,2.51-3.76,4.94
		c0,2.32,1.06,4.63,3.72,4.63c2.74,0,3.91-2.13,3.91-4.6C163.32,128.47,162.33,126,159.45,126z"/>
	<path class="st0" d="M204.47,141.35h-6.27v-2.7h-0.08c-1.22,2.01-3.72,3.27-6,3.27c-5.66,0-7.29-3.27-7.29-8.44v-11.85h6.46v11.44
		c0,2.62,1.14,3.53,3.19,3.53c1.41,0,3.53-0.91,3.53-4.41v-10.56h6.46V141.35z"/>
	<path class="st0" d="M207.78,121.63h6.15v2.28h0.08c1.25-1.86,3.15-2.85,5.43-2.85c6.19,0,8.81,5.32,8.81,10.87
		c0,5.13-2.74,9.99-8.32,9.99c-2.43,0-4.29-0.91-5.62-2.7h-0.08v8.74h-6.46V121.63z M214.01,131.28c0,3.46,0.99,5.7,3.91,5.7
		c2.89,0,3.88-3,3.88-5.7c0-2.51-0.99-5.28-3.84-5.28C216.22,126,214.01,127.22,214.01,131.28z"/>
	<path class="st0" d="M228.23,123.11c0.08-6,4.03-9.46,9.96-9.46c4.75,0,9.5,2.51,9.5,7.75c0,3.69-1.79,5.02-4.67,6.84
		c-1.98,1.29-2.47,1.86-2.51,4.14h-6v-1.9c0-2.96,1.67-4.26,3.08-5.28c1.56-1.06,3.04-1.86,3.04-3.76c0-1.44-1.1-2.32-2.47-2.32
		c-2.09,0-3.15,1.25-3.27,3.27v0.72H228.23z M233.96,134.28h7.07v7.07h-7.07V134.28z"/>
</g>
</svg>
