<svg id="Layer_1" xmlns="http://www.w3.org/2000/svg" viewBox="0 0 728 90"><style>.st0{fill:#006098}</style><path class="st0" d="M53 36.37h-3.36l-.31-2.18c-1.37 1.93-3.72 2.6-5.57 2.6-6.05 0-9.97-4.62-9.97-10.42s3.92-10.42 9.97-10.42c4.14 0 8.57 2.21 9.04 7.22h-5.21c-.17-1.71-1.85-2.74-3.95-2.74-3.36 0-4.65 2.97-4.65 5.94s1.29 5.94 4.65 5.94c2.58 0 4.31-1.2 4.59-3.02H44.6v-3.86H53v10.94zM60.08 30.26c.08 1.99 1.23 3.3 3.25 3.3 1.15 0 2.27-.53 2.72-1.6h4.45c-.87 3.36-3.98 4.82-7.22 4.82-4.73 0-7.95-2.86-7.95-7.73 0-4.45 3.56-7.64 7.84-7.64 5.21 0 7.81 3.92 7.59 8.85H60.08zm5.91-2.66c-.08-1.62-1.23-2.97-2.83-2.97-1.68 0-2.8 1.2-3.08 2.97h5.91zM81.39 24.92h-2.94v6.61c0 1.15.67 1.4 1.71 1.4.39 0 .81-.06 1.23-.06v3.5c-.87.03-1.74.14-2.6.14-4.06 0-5.1-1.18-5.1-5.12v-6.47h-2.41v-3.08h2.41v-4.4h4.76v4.4h2.94v3.08zM95.53 31.58c0 .73.31 1.26.78 1.62.45.34 1.09.5 1.76.5.92 0 2.24-.39 2.24-1.54 0-1.12-1.48-1.34-2.32-1.54-3-.76-6.75-.84-6.75-4.76 0-3.5 3.78-4.45 6.64-4.45 3.19 0 6.52.92 6.69 4.7h-4.4c0-.62-.22-1.01-.62-1.26-.39-.25-.92-.36-1.51-.36-.78 0-2.04.08-2.04 1.09 0 1.37 3.19 1.62 5.38 2.1 2.94.59 3.7 2.72 3.7 3.92 0 3.89-3.7 5.18-6.97 5.18-3.44 0-6.97-1.15-7.11-5.21h4.53zM107.18 21.84h4.54v1.68h.06c.92-1.37 2.32-2.1 4-2.1 4.56 0 6.5 3.92 6.5 8.01 0 3.78-2.02 7.36-6.13 7.36-1.79 0-3.16-.67-4.14-1.99h-.06v6.44h-4.76v-19.4zm4.59 7.11c0 2.55.73 4.2 2.88 4.2 2.13 0 2.86-2.21 2.86-4.2 0-1.85-.73-3.89-2.83-3.89-1.29 0-2.91.89-2.91 3.89zM128.54 30.26c.08 1.99 1.23 3.3 3.25 3.3 1.15 0 2.27-.53 2.72-1.6h4.45c-.87 3.36-3.98 4.82-7.22 4.82-4.73 0-7.95-2.86-7.95-7.73 0-4.45 3.56-7.64 7.84-7.64 5.21 0 7.81 3.92 7.59 8.85h-10.68zm5.91-2.66c-.08-1.62-1.23-2.97-2.83-2.97-1.68 0-2.8 1.2-3.08 2.97h5.91zM150.72 27.16c-.03-1.23-1.12-2.1-2.32-2.1-2.66 0-3.08 2.27-3.08 4.28 0 1.88.81 3.81 2.83 3.81 1.65 0 2.49-.95 2.72-2.49h4.62c-.42 3.89-3.44 6.13-7.31 6.13-4.37 0-7.62-3-7.62-7.45 0-4.62 2.94-7.92 7.62-7.92 3.61 0 6.83 1.9 7.17 5.74h-4.63zM162.39 20.02h-4.76v-3.64h4.76v3.64zm-4.76 1.82h4.76v14.53h-4.76V21.84zM165.22 26.32c.08-1.9.98-3.14 2.27-3.89 1.29-.73 2.97-1.01 4.62-1.01 3.44 0 6.78.76 6.78 4.87v6.36c0 1.23 0 2.58.56 3.72h-4.79c-.17-.45-.22-.9-.28-1.37-1.23 1.29-3.05 1.79-4.79 1.79-2.77 0-4.96-1.4-4.96-4.4 0-4.73 5.15-4.37 8.46-5.04.81-.17 1.26-.45 1.26-1.34 0-1.09-1.32-1.51-2.3-1.51-1.32 0-2.16.59-2.38 1.82h-4.45zm6.16 7.53c2.27 0 3.02-1.29 2.91-4.28-.67.42-1.9.5-2.94.78-1.06.25-1.96.7-1.96 1.85 0 1.17.93 1.65 1.99 1.65zM181.82 16.38h4.76v19.99h-4.76V16.38zM212.32 34.6c0 2.38-.45 6.86-7.25 6.86-3.39 0-6.58-.76-7.14-4.65h4.76c.11.64.36 1.04.81 1.26.42.22 1.01.31 1.74.31 2.27 0 2.49-1.6 2.49-3.39v-1.37h-.06c-.87 1.34-2.32 2.13-3.86 2.13-4.4 0-6.38-3.14-6.38-7.22 0-3.86 2.27-7.11 6.38-7.11 1.74 0 3.05.76 3.89 2.24h.06v-1.82h4.56V34.6zm-7.37-9.54c-2.1 0-2.77 1.85-2.77 3.64 0 1.71.78 3.42 2.74 3.42 2.02 0 2.88-1.57 2.88-3.39.01-1.85-.72-3.67-2.85-3.67zM215.23 21.84h4.62v2.55h.06c.7-1.85 2.32-2.83 4.37-2.83.36 0 .76.03 1.12.11v4.34c-.62-.17-1.18-.28-1.82-.28-2.35 0-3.58 1.62-3.58 3.44v7.2h-4.76V21.84zM233.76 21.42c4.51 0 7.67 3.33 7.67 7.7s-3.16 7.67-7.67 7.67-7.64-3.3-7.64-7.67 3.14-7.7 7.64-7.7zm0 11.73c2.21 0 2.91-2.18 2.91-4.03s-.7-4.06-2.91-4.06-2.88 2.21-2.88 4.06.67 4.03 2.88 4.03zM257.96 36.37h-4.62v-1.99h-.06c-.9 1.48-2.74 2.41-4.42 2.41-4.17 0-5.38-2.41-5.38-6.22v-8.74h4.76v8.43c0 1.93.84 2.6 2.35 2.6 1.04 0 2.6-.67 2.6-3.25v-7.78h4.76v14.54zM260.87 21.84h4.54v1.68h.06c.92-1.37 2.32-2.1 4-2.1 4.56 0 6.5 3.92 6.5 8.01 0 3.78-2.02 7.36-6.13 7.36-1.79 0-3.16-.67-4.14-1.99h-.06v6.44h-4.76v-19.4zm4.59 7.11c0 2.55.73 4.2 2.88 4.2 2.13 0 2.86-2.21 2.86-4.2 0-1.85-.73-3.89-2.83-3.89-1.29 0-2.91.89-2.91 3.89zM286.96 21.84h4.62v2.55h.06c.7-1.85 2.32-2.83 4.37-2.83.36 0 .76.03 1.12.11v4.34c-.62-.17-1.18-.28-1.82-.28-2.35 0-3.58 1.62-3.58 3.44v7.2h-4.76V21.84zM298.33 26.32c.08-1.9.98-3.14 2.27-3.89 1.29-.73 2.97-1.01 4.62-1.01 3.44 0 6.78.76 6.78 4.87v6.36c0 1.23 0 2.58.56 3.72h-4.79c-.17-.45-.22-.9-.28-1.37-1.23 1.29-3.05 1.79-4.79 1.79-2.77 0-4.96-1.4-4.96-4.4 0-4.73 5.15-4.37 8.46-5.04.81-.17 1.26-.45 1.26-1.34 0-1.09-1.32-1.51-2.3-1.51-1.32 0-2.16.59-2.38 1.82h-4.45zm6.16 7.53c2.27 0 3.02-1.29 2.91-4.28-.67.42-1.9.5-2.94.78-1.06.25-1.96.7-1.96 1.85 0 1.17.93 1.65 1.99 1.65zM323.45 24.92h-2.94v6.61c0 1.15.67 1.4 1.71 1.4.39 0 .81-.06 1.23-.06v3.5c-.87.03-1.74.14-2.6.14-4.06 0-5.1-1.18-5.1-5.12v-6.47h-2.41v-3.08h2.41v-4.4h4.76v4.4h2.94v3.08zM329.1 30.26c.08 1.99 1.23 3.3 3.25 3.3 1.15 0 2.27-.53 2.72-1.6h4.45c-.87 3.36-3.98 4.82-7.22 4.82-4.73 0-7.95-2.86-7.95-7.73 0-4.45 3.56-7.64 7.84-7.64 5.21 0 7.81 3.92 7.59 8.85H329.1zm5.91-2.66c-.08-1.62-1.23-2.97-2.83-2.97-1.68 0-2.8 1.2-3.08 2.97h5.91zM345.57 31.58c0 .73.31 1.26.78 1.62.45.34 1.09.5 1.76.5.92 0 2.24-.39 2.24-1.54 0-1.12-1.48-1.34-2.32-1.54-3-.76-6.75-.84-6.75-4.76 0-3.5 3.78-4.45 6.64-4.45 3.19 0 6.52.92 6.69 4.7h-4.4c0-.62-.22-1.01-.62-1.26-.39-.25-.92-.36-1.51-.36-.78 0-2.04.08-2.04 1.09 0 1.37 3.19 1.62 5.38 2.1 2.94.59 3.7 2.72 3.7 3.92 0 3.89-3.7 5.18-6.97 5.18-3.44 0-6.97-1.15-7.11-5.21h4.53zM372.67 21.42c4.51 0 7.67 3.33 7.67 7.7s-3.16 7.67-7.67 7.67-7.64-3.3-7.64-7.67 3.13-7.7 7.64-7.7zm0 11.73c2.21 0 2.91-2.18 2.91-4.03s-.7-4.06-2.91-4.06-2.88 2.21-2.88 4.06.67 4.03 2.88 4.03zM382.5 21.84h4.62v1.99h.06c.87-1.48 2.83-2.41 4.56-2.41 4.84 0 5.24 3.53 5.24 5.63v9.32h-4.76v-7.03c0-1.99.22-4-2.38-4-1.79 0-2.58 1.51-2.58 3.11v7.92h-4.76V21.84z"/><g><path class="st0" d="M34.55 44.38h5.21v15.51h9.32v4.48H34.55V44.38zM55.13 58.26c.08 1.99 1.23 3.3 3.25 3.3 1.15 0 2.27-.53 2.72-1.6h4.45c-.87 3.36-3.98 4.82-7.22 4.82-4.73 0-7.95-2.86-7.95-7.73 0-4.45 3.56-7.64 7.84-7.64 5.21 0 7.81 3.92 7.59 8.85H55.13zm5.9-2.66c-.08-1.62-1.23-2.97-2.83-2.97-1.68 0-2.8 1.2-3.08 2.97h5.91zM76.18 64.37h-5.49l-4.84-14.53h4.96l2.66 9.6h.06l2.69-9.6h4.84l-4.88 14.53zM85.9 58.26c.08 1.99 1.23 3.3 3.25 3.3 1.15 0 2.27-.53 2.72-1.6h4.45c-.87 3.36-3.98 4.82-7.22 4.82-4.73 0-7.95-2.86-7.95-7.73 0-4.45 3.56-7.64 7.84-7.64 5.21 0 7.81 3.92 7.59 8.85H85.9zm5.91-2.66c-.08-1.62-1.23-2.97-2.83-2.97-1.68 0-2.8 1.2-3.08 2.97h5.91zM98.75 44.38h4.76v19.99h-4.76V44.38zM131.23 48.86h-5.96v15.51h-5.21V48.86h-5.96v-4.48h17.14v4.48zM134.59 58.26c.08 1.99 1.23 3.3 3.25 3.3 1.15 0 2.27-.53 2.72-1.6H145c-.87 3.36-3.98 4.82-7.22 4.82-4.73 0-7.95-2.86-7.95-7.73 0-4.45 3.56-7.64 7.84-7.64 5.21 0 7.81 3.92 7.59 8.85h-10.67zm5.91-2.66c-.08-1.62-1.23-2.97-2.83-2.97-1.68 0-2.8 1.2-3.08 2.97h5.91zM147.39 49.84H152v2.55h.06c.7-1.85 2.32-2.83 4.37-2.83.36 0 .76.03 1.12.11v4.34c-.62-.17-1.18-.28-1.82-.28-2.35 0-3.58 1.62-3.58 3.44v7.2h-4.76V49.84zM158.84 49.84h4.62v1.99h.06c.87-1.46 2.41-2.41 4.17-2.41 1.82 0 3.44.59 4.23 2.35 1.15-1.54 2.58-2.35 4.54-2.35 4.62 0 5.12 3.5 5.12 6.27v8.68h-4.76v-8.54c0-1.57-.76-2.49-1.99-2.49-2.04 0-2.24 1.57-2.24 3.92v7.11h-4.76v-8.26c0-1.71-.5-2.77-1.79-2.77-1.71 0-2.44.98-2.44 3.95v7.08h-4.76V49.84zM193.25 44.38h5.21v15.51h9.32v4.48h-14.53V44.38zM214.47 48.02h-4.76v-3.64h4.76v3.64zm-4.76 1.82h4.76v14.53h-4.76V49.84zM218.45 52.92h-2.3v-3.08h2.3c0-4.17 1.46-5.46 5.52-5.46.76 0 1.54.06 2.3.08v3.36c-.45-.06-.87-.08-1.29-.08-1.09 0-1.76.14-1.76 1.46v.64h2.86v3.08h-2.86v11.45h-4.76V52.92zM231.3 58.26c.08 1.99 1.23 3.3 3.25 3.3 1.15 0 2.27-.53 2.72-1.6h4.45c-.87 3.36-3.98 4.82-7.22 4.82-4.73 0-7.95-2.86-7.95-7.73 0-4.45 3.56-7.64 7.84-7.64 5.21 0 7.81 3.92 7.59 8.85H231.3zm5.91-2.66c-.08-1.62-1.23-2.97-2.83-2.97-1.68 0-2.8 1.2-3.08 2.97h5.91zM252.83 44.38h5.21v19.99h-5.21V44.38zM261.2 49.84h4.62v1.99h.06c.87-1.48 2.83-2.41 4.56-2.41 4.84 0 5.24 3.53 5.24 5.63v9.32h-4.76v-7.03c0-1.99.22-4-2.38-4-1.79 0-2.58 1.51-2.58 3.11v7.92h-4.76V49.84zM282.29 59.58c0 .73.31 1.26.78 1.62.45.34 1.09.5 1.76.5.92 0 2.24-.39 2.24-1.54 0-1.12-1.48-1.34-2.32-1.54-3-.76-6.75-.84-6.75-4.76 0-3.5 3.78-4.45 6.64-4.45 3.19 0 6.52.92 6.69 4.7h-4.4c0-.62-.22-1.01-.62-1.26-.39-.25-.92-.36-1.51-.36-.78 0-2.04.08-2.04 1.09 0 1.37 3.19 1.62 5.38 2.1 2.94.59 3.7 2.72 3.7 3.92 0 3.89-3.7 5.18-6.97 5.18-3.44 0-6.97-1.15-7.11-5.21h4.53zM308.3 64.37h-4.62v-1.99h-.06c-.9 1.48-2.74 2.41-4.42 2.41-4.17 0-5.38-2.41-5.38-6.22v-8.74h4.76v8.43c0 1.93.84 2.6 2.35 2.6 1.04 0 2.6-.67 2.6-3.25v-7.78h4.76v14.54zM311.29 49.84h4.62v2.55h.06c.7-1.85 2.32-2.83 4.37-2.83.36 0 .76.03 1.12.11v4.34c-.62-.17-1.18-.28-1.82-.28-2.35 0-3.58 1.62-3.58 3.44v7.2h-4.76V49.84zM322.66 54.32c.08-1.9.98-3.14 2.27-3.89 1.29-.73 2.97-1.01 4.62-1.01 3.44 0 6.78.76 6.78 4.87v6.36c0 1.23 0 2.58.56 3.72h-4.79c-.17-.45-.22-.9-.28-1.37-1.23 1.29-3.05 1.79-4.79 1.79-2.77 0-4.96-1.4-4.96-4.4 0-4.73 5.15-4.37 8.46-5.04.81-.17 1.26-.45 1.26-1.34 0-1.09-1.32-1.51-2.3-1.51-1.32 0-2.16.59-2.38 1.82h-4.45zm6.16 7.53c2.27 0 3.02-1.29 2.91-4.28-.67.42-1.9.5-2.94.78-1.06.25-1.96.7-1.96 1.85 0 1.17.93 1.65 1.99 1.65zM339.21 49.84h4.62v1.99h.06c.87-1.48 2.83-2.41 4.56-2.41 4.84 0 5.24 3.53 5.24 5.63v9.32h-4.76v-7.03c0-1.99.22-4-2.38-4-1.79 0-2.58 1.51-2.58 3.11v7.92h-4.76V49.84zM365.98 55.16c-.03-1.23-1.12-2.1-2.32-2.1-2.66 0-3.08 2.27-3.08 4.28 0 1.88.81 3.81 2.83 3.81 1.65 0 2.49-.95 2.72-2.49h4.62c-.42 3.89-3.44 6.13-7.31 6.13-4.37 0-7.62-3-7.62-7.45 0-4.62 2.94-7.92 7.62-7.92 3.61 0 6.83 1.9 7.17 5.74h-4.63zM376.81 58.26c.08 1.99 1.23 3.3 3.25 3.3 1.15 0 2.27-.53 2.72-1.6h4.45c-.87 3.36-3.98 4.82-7.22 4.82-4.73 0-7.95-2.86-7.95-7.73 0-4.45 3.56-7.64 7.84-7.64 5.21 0 7.81 3.92 7.59 8.85h-10.68zm5.91-2.66c-.08-1.62-1.23-2.97-2.83-2.97-1.68 0-2.8 1.2-3.08 2.97h5.91zM389.58 59.16h5.21v5.21h-5.21v-5.21z"/></g></svg>