<svg id="Layer_1" xmlns="http://www.w3.org/2000/svg" viewBox="0 0 728 90"><style>.st0{fill:#006098}</style><path class="st0" d="M35.06 27.3h6.7V53h-6.7V27.3zM50.61 46.84c0 .94.4 1.62 1.01 2.09.58.43 1.4.65 2.27.65 1.19 0 2.88-.5 2.88-1.98 0-1.44-1.91-1.73-2.99-1.98-3.85-.97-8.67-1.08-8.67-6.12 0-4.5 4.86-5.72 8.53-5.72 4.1 0 8.39 1.19 8.6 6.05h-5.65c0-.79-.29-1.3-.79-1.62-.5-.32-1.19-.47-1.94-.47-1.01 0-2.63.11-2.63 1.4 0 1.76 4.1 2.09 6.91 2.7 3.78.76 4.75 3.49 4.75 5.04 0 5-4.75 6.66-8.96 6.66-4.43 0-8.96-1.48-9.14-6.7h5.82zM86.72 54.65c-1.48 4.1-3.67 4.61-7.81 4.61h-2.88v-4.97h2.12c1.4 0 2.45-.79 2.45-2.09 0-1.01-1.19-3.89-1.55-4.9l-4.82-12.99h6.48l3.53 12.17h.07l3.53-12.17h6.26l-7.38 20.34zM103.71 33.77c5.8 0 9.86 4.28 9.86 9.9 0 5.61-4.07 9.86-9.86 9.86-5.79 0-9.83-4.25-9.83-9.86 0-5.61 4.03-9.9 9.83-9.9zm0 15.09c2.84 0 3.74-2.81 3.74-5.18 0-2.38-.9-5.22-3.74-5.22S100 41.3 100 43.67c0 2.38.86 5.19 3.71 5.19zM134.7 53h-5.94v-2.56h-.07c-1.15 1.91-3.53 3.1-5.69 3.1-5.36 0-6.91-3.1-6.91-7.99V34.31h6.12v10.83c0 2.48 1.08 3.35 3.02 3.35 1.33 0 3.35-.86 3.35-4.18v-10h6.12V53zM138.48 34.31h5.94v3.28h.07c.9-2.38 2.99-3.64 5.62-3.64.47 0 .97.04 1.44.14v5.58c-.79-.22-1.51-.36-2.34-.36-3.02 0-4.61 2.09-4.61 4.43V53h-6.12V34.31zM164.48 27.3h6.12V53h-6.12V27.3zM180.53 31.97h-6.12V27.3h6.12v4.67zm-6.12 2.34h6.12V53h-6.12V34.31zM185.57 38.27h-2.95v-3.96h2.95c0-5.36 1.87-7.02 7.09-7.02.97 0 1.98.07 2.95.11v4.32c-.58-.07-1.12-.11-1.66-.11-1.4 0-2.27.18-2.27 1.87v.83h3.67v3.96h-3.67V53h-6.12V38.27zM202.02 45.15c.11 2.56 1.58 4.25 4.18 4.25 1.48 0 2.92-.68 3.49-2.05h5.72c-1.12 4.32-5.11 6.19-9.29 6.19-6.08 0-10.22-3.67-10.22-9.94 0-5.72 4.57-9.83 10.08-9.83 6.7 0 10.04 5.04 9.75 11.37h-13.71zm7.6-3.42c-.11-2.09-1.58-3.82-3.64-3.82-2.16 0-3.6 1.55-3.96 3.82h7.6zM235.79 31.97h-6.12V27.3h6.12v4.67zm-6.12 2.34h6.12V53h-6.12V34.31zM239.5 34.31h5.94v2.56h.07c1.12-1.91 3.64-3.1 5.87-3.1 6.23 0 6.73 4.54 6.73 7.24V53h-6.12v-9.03c0-2.56.29-5.15-3.06-5.15-2.3 0-3.31 1.94-3.31 4V53h-6.12V34.31zM266.53 46.84c0 .94.4 1.62 1.01 2.09.58.43 1.4.65 2.27.65 1.19 0 2.88-.5 2.88-1.98 0-1.44-1.91-1.73-2.99-1.98-3.85-.97-8.67-1.08-8.67-6.12 0-4.5 4.86-5.72 8.53-5.72 4.1 0 8.39 1.19 8.6 6.05h-5.65c0-.79-.29-1.3-.79-1.62-.5-.32-1.19-.47-1.94-.47-1.01 0-2.63.11-2.63 1.4 0 1.76 4.1 2.09 6.91 2.7 3.78.76 4.75 3.49 4.75 5.04 0 5-4.75 6.66-8.96 6.66-4.43 0-8.96-1.48-9.14-6.7h5.82zM299.9 53h-5.94v-2.56h-.07c-1.15 1.91-3.53 3.1-5.69 3.1-5.36 0-6.91-3.1-6.91-7.99V34.31h6.12v10.83c0 2.48 1.08 3.35 3.02 3.35 1.33 0 3.35-.86 3.35-4.18v-10h6.12V53zM303.69 34.31h5.94v3.28h.07c.9-2.38 2.99-3.64 5.62-3.64.47 0 .97.04 1.44.14v5.58c-.79-.22-1.51-.36-2.34-.36-3.02 0-4.61 2.09-4.61 4.43V53h-6.12V34.31zM318.23 40.07c.11-2.45 1.26-4.03 2.92-5 1.66-.94 3.82-1.3 5.94-1.3 4.43 0 8.71.97 8.71 6.26v8.17c0 1.58 0 3.31.72 4.79h-6.16c-.22-.58-.29-1.15-.36-1.76-1.58 1.66-3.92 2.3-6.16 2.3-3.56 0-6.37-1.8-6.37-5.65 0-6.08 6.62-5.62 10.87-6.48 1.04-.22 1.62-.58 1.62-1.73 0-1.4-1.69-1.94-2.95-1.94-1.69 0-2.77.76-3.06 2.34h-5.72zm7.92 9.69c2.92 0 3.89-1.66 3.74-5.51-.86.54-2.45.65-3.78 1.01-1.37.32-2.52.9-2.52 2.38 0 1.5 1.19 2.12 2.56 2.12zM339.43 34.31h5.94v2.56h.07c1.12-1.91 3.64-3.1 5.87-3.1 6.23 0 6.73 4.54 6.73 7.24V53h-6.12v-9.03c0-2.56.29-5.15-3.06-5.15-2.3 0-3.31 1.94-3.31 4V53h-6.12V34.31zM373.77 41.15c-.04-1.58-1.44-2.7-2.99-2.7-3.42 0-3.96 2.92-3.96 5.51 0 2.41 1.04 4.9 3.63 4.9 2.12 0 3.2-1.22 3.49-3.2h5.94c-.54 5-4.43 7.88-9.4 7.88-5.62 0-9.79-3.85-9.79-9.57 0-5.94 3.78-10.19 9.79-10.19 4.64 0 8.78 2.45 9.21 7.38h-5.92zM387.64 45.15c.11 2.56 1.58 4.25 4.17 4.25 1.48 0 2.92-.68 3.49-2.05h5.72c-1.12 4.32-5.11 6.19-9.29 6.19-6.08 0-10.22-3.67-10.22-9.94 0-5.72 4.57-9.83 10.08-9.83 6.7 0 10.04 5.04 9.75 11.37h-13.7zm7.59-3.42c-.11-2.09-1.58-3.82-3.64-3.82-2.16 0-3.6 1.55-3.96 3.82h7.6zM415.07 27.3h6.12v13.25l5.58-6.23h7.09l-6.84 7.06 7.7 11.63h-7.38l-4.57-7.52-1.58 1.55V53h-6.12V27.3z"/><path class="st0" d="M440.19 45.15c.11 2.56 1.58 4.25 4.17 4.25 1.48 0 2.92-.68 3.49-2.05h5.72c-1.12 4.32-5.11 6.19-9.29 6.19-6.08 0-10.22-3.67-10.22-9.94 0-5.72 4.57-9.83 10.08-9.83 6.7 0 10.04 5.04 9.75 11.37h-13.7zm7.6-3.42c-.11-2.09-1.58-3.82-3.64-3.82-2.16 0-3.6 1.55-3.96 3.82h7.6zM461.69 45.15c.11 2.56 1.58 4.25 4.17 4.25 1.48 0 2.92-.68 3.49-2.05h5.72c-1.12 4.32-5.11 6.19-9.29 6.19-6.08 0-10.22-3.67-10.22-9.94 0-5.72 4.57-9.83 10.08-9.83 6.7 0 10.04 5.04 9.75 11.37h-13.7zm7.59-3.42c-.11-2.09-1.58-3.82-3.64-3.82-2.16 0-3.6 1.55-3.96 3.82h7.6zM477.96 34.31h5.83v2.16h.07c1.19-1.76 2.99-2.7 5.15-2.7 5.87 0 8.35 5.04 8.35 10.29 0 4.86-2.59 9.47-7.88 9.47-2.3 0-4.07-.86-5.33-2.56h-.07v8.28h-6.12V34.31zm5.9 9.15c0 3.27.94 5.4 3.71 5.4 2.74 0 3.67-2.84 3.67-5.4 0-2.38-.94-5-3.64-5-1.65-.01-3.74 1.15-3.74 5zM506.47 31.97h-6.12V27.3h6.12v4.67zm-6.12 2.34h6.12V53h-6.12V34.31zM510.18 34.31h5.94v2.56h.07c1.12-1.91 3.64-3.1 5.87-3.1 6.23 0 6.73 4.54 6.73 7.24V53h-6.12v-9.03c0-2.56.29-5.15-3.06-5.15-2.3 0-3.31 1.94-3.31 4V53h-6.12V34.31zM550.53 50.73c0 3.06-.58 8.82-9.32 8.82-4.36 0-8.46-.97-9.18-5.97h6.12c.14.83.47 1.33 1.04 1.62.54.29 1.3.4 2.23.4 2.92 0 3.2-2.05 3.2-4.36v-1.76h-.07c-1.12 1.73-2.99 2.74-4.97 2.74-5.65 0-8.21-4.03-8.21-9.29 0-4.97 2.92-9.14 8.21-9.14 2.23 0 3.92.97 5 2.88h.07v-2.34h5.87v16.4zm-9.47-12.28c-2.7 0-3.56 2.38-3.56 4.68 0 2.2 1.01 4.39 3.53 4.39 2.59 0 3.71-2.02 3.71-4.35 0-2.38-.94-4.72-3.68-4.72zM583.72 53h-5.94v-2.56h-.07c-1.15 1.91-3.53 3.1-5.69 3.1-5.36 0-6.91-3.1-6.91-7.99V34.31h6.12v10.83c0 2.48 1.08 3.35 3.02 3.35 1.33 0 3.35-.86 3.35-4.18v-10h6.12V53zM587.4 34.31h5.83v2.16h.07c1.19-1.76 2.99-2.7 5.15-2.7 5.87 0 8.35 5.04 8.35 10.29 0 4.86-2.59 9.47-7.88 9.47-2.3 0-4.07-.86-5.33-2.56h-.07v8.28h-6.12V34.31zm5.9 9.15c0 3.27.94 5.4 3.71 5.4 2.74 0 3.67-2.84 3.67-5.4 0-2.38-.94-5-3.64-5-1.65-.01-3.74 1.15-3.74 5zM609 35.72c.07-5.69 3.82-8.96 9.43-8.96 4.5 0 9 2.38 9 7.34 0 3.49-1.69 4.75-4.43 6.48-1.87 1.22-2.34 1.76-2.38 3.92h-5.69v-1.8c0-2.81 1.58-4.03 2.92-5 1.48-1.01 2.88-1.76 2.88-3.56 0-1.37-1.04-2.2-2.34-2.2-1.98 0-2.99 1.19-3.1 3.1v.68H609zm5.43 10.58h6.7V53h-6.7v-6.7z"/></svg>