<svg id="Layer_1" xmlns="http://www.w3.org/2000/svg" viewBox="0 0 728 90"><style>.st0{fill:#ff7f30}.st1{fill:#fff}</style><path class="st0" d="M593.73 37.5h122.36v29.96H593.73z"/><path class="st1" d="M611.84 47.06l4.55 12.16h-2.78l-.92-2.71h-4.55l-.95 2.71h-2.69l4.6-12.16h2.74zm.16 7.46l-1.53-4.46h-.03l-1.58 4.46H612zM622.93 47.06c.76 0 1.41.11 1.94.33.53.22.97.51 1.3.88.33.36.58.78.73 1.24.15.47.23.95.23 1.45 0 .49-.08.97-.23 1.44s-.4.89-.73 1.25c-.33.36-.77.66-1.3.88-.53.22-1.18.33-1.94.33h-2.81v4.36h-2.67V47.06h5.48zm-.74 5.73c.31 0 .6-.02.88-.07.28-.04.53-.13.75-.26.22-.13.39-.31.52-.55s.2-.55.2-.94-.07-.7-.2-.94-.3-.42-.52-.55c-.22-.13-.46-.22-.75-.26-.28-.04-.58-.07-.88-.07h-2.08v3.64h2.08zM634.28 47.06c.76 0 1.41.11 1.94.33.53.22.97.51 1.3.88.33.36.58.78.73 1.24.15.47.23.95.23 1.45 0 .49-.08.97-.23 1.44s-.4.89-.73 1.25c-.33.36-.77.66-1.3.88-.53.22-1.18.33-1.94.33h-2.81v4.36h-2.67V47.06h5.48zm-.73 5.73c.31 0 .6-.02.88-.07.28-.04.53-.13.75-.26.22-.13.39-.31.52-.55s.2-.55.2-.94-.07-.7-.2-.94-.3-.42-.52-.55c-.22-.13-.46-.22-.75-.26-.28-.04-.58-.07-.88-.07h-2.08v3.64h2.08zM642.83 47.06v9.91h5.92v2.25h-8.6V47.06h2.68zM647.07 47.06h3l2.84 4.8 2.83-4.8h2.98l-4.51 7.49v4.67h-2.67v-4.73l-4.47-7.43zM667.12 47.06l5.07 8.16h.03v-8.16h2.5v12.16h-2.67L667 51.08h-.03v8.14h-2.5V47.06h2.65zM676.96 50.67c.27-.78.66-1.46 1.17-2.04.51-.58 1.14-1.03 1.88-1.36s1.58-.49 2.51-.49c.94 0 1.78.17 2.52.49.74.33 1.36.78 1.87 1.36.51.58.9 1.26 1.17 2.04s.41 1.62.41 2.53c0 .88-.14 1.71-.41 2.48-.27.77-.66 1.43-1.17 2s-1.13 1.01-1.87 1.34c-.74.32-1.58.49-2.52.49-.93 0-1.77-.16-2.51-.49s-1.37-.77-1.88-1.34-.9-1.23-1.17-2c-.27-.77-.41-1.59-.41-2.48 0-.91.14-1.76.41-2.53zm2.45 4.01c.12.48.31.92.57 1.3.26.39.6.7 1.02.93.42.23.93.35 1.53.35s1.11-.12 1.53-.35c.42-.23.76-.54 1.02-.93s.45-.82.57-1.3.18-.98.18-1.49c0-.53-.06-1.05-.18-1.55s-.31-.94-.57-1.34c-.26-.39-.6-.7-1.02-.94-.42-.23-.93-.35-1.53-.35s-1.11.12-1.53.35c-.42.23-.76.54-1.02.94-.26.39-.45.84-.57 1.34-.12.5-.18 1.02-.18 1.55 0 .52.06 1.01.18 1.49zM699.25 59.22l-2.06-8.27h-.03l-2.03 8.27h-2.71l-3.22-12.16h2.67l1.92 8.27h.03l2.11-8.27h2.5l2.08 8.38h.03l1.99-8.38h2.62l-3.27 12.16h-2.63z"/></svg>