<?xml version="1.0" encoding="utf-8"?>
<!-- Generator: Adobe Illustrator 24.2.3, SVG Export Plug-In . SVG Version: 6.00 Build 0)  -->
<svg version="1.1" id="Layer_1" xmlns="http://www.w3.org/2000/svg" xmlns:xlink="http://www.w3.org/1999/xlink" x="0px" y="0px"
	 viewBox="0 0 728 90" style="enable-background:new 0 0 728 90;" xml:space="preserve">
<style type="text/css">
	.st0{fill:#231F20;}
</style>
<g>
	<path class="st0" d="M574.86,81.58v-4.29h0.57v3.79h2.12v0.51H574.86z"/>
	<path class="st0" d="M578.03,79.46c0-0.51,0.05-0.92,0.16-1.23c0.1-0.31,0.26-0.55,0.46-0.72s0.47-0.25,0.78-0.25
		c0.23,0,0.43,0.05,0.61,0.14c0.17,0.09,0.32,0.23,0.43,0.4s0.2,0.39,0.27,0.64s0.1,0.59,0.1,1.01c0,0.5-0.05,0.91-0.16,1.22
		c-0.1,0.31-0.26,0.55-0.46,0.72s-0.47,0.25-0.78,0.25c-0.41,0-0.74-0.15-0.98-0.45C578.17,80.85,578.03,80.27,578.03,79.46z
		 M578.57,79.46c0,0.71,0.08,1.17,0.25,1.41c0.16,0.23,0.37,0.35,0.61,0.35s0.45-0.12,0.61-0.35s0.25-0.7,0.25-1.41
		c0-0.71-0.08-1.18-0.25-1.41s-0.37-0.35-0.62-0.35c-0.24,0-0.44,0.1-0.58,0.31C578.66,78.27,578.57,78.76,578.57,79.46z"/>
	<path class="st0" d="M582.33,79.25c-0.22-0.08-0.38-0.19-0.49-0.34s-0.16-0.33-0.16-0.53c0-0.31,0.11-0.58,0.34-0.79
		s0.52-0.32,0.9-0.32c0.38,0,0.68,0.11,0.91,0.33c0.23,0.22,0.34,0.48,0.34,0.8c0,0.2-0.05,0.37-0.16,0.52s-0.26,0.26-0.48,0.34
		c0.26,0.09,0.46,0.22,0.6,0.42c0.14,0.19,0.21,0.42,0.21,0.69c0,0.37-0.13,0.68-0.39,0.93s-0.6,0.38-1.03,0.38
		s-0.77-0.12-1.03-0.38s-0.39-0.56-0.39-0.94c0-0.28,0.07-0.51,0.21-0.7S582.07,79.32,582.33,79.25z M582.05,80.34
		c0,0.15,0.04,0.3,0.11,0.44c0.07,0.14,0.18,0.25,0.32,0.33c0.14,0.08,0.29,0.12,0.45,0.12c0.25,0,0.46-0.08,0.62-0.24
		s0.25-0.37,0.25-0.62c0-0.25-0.08-0.46-0.25-0.63c-0.17-0.17-0.38-0.25-0.63-0.25c-0.25,0-0.45,0.08-0.62,0.25
		S582.05,80.09,582.05,80.34z M582.22,78.36c0,0.2,0.07,0.37,0.2,0.5s0.3,0.19,0.51,0.19c0.2,0,0.37-0.06,0.5-0.19
		s0.2-0.29,0.2-0.47c0-0.19-0.07-0.36-0.2-0.49c-0.13-0.13-0.3-0.2-0.5-0.2c-0.2,0-0.37,0.06-0.5,0.19S582.22,78.18,582.22,78.36z"
		/>
	<path class="st0" d="M587.68,81.07v0.51h-2.84c0-0.13,0.02-0.25,0.06-0.37c0.07-0.19,0.19-0.38,0.35-0.57s0.39-0.4,0.69-0.65
		c0.47-0.38,0.78-0.69,0.95-0.91c0.16-0.22,0.25-0.43,0.25-0.63c0-0.21-0.07-0.39-0.22-0.53c-0.15-0.14-0.34-0.22-0.58-0.22
		c-0.25,0-0.46,0.08-0.61,0.23s-0.23,0.36-0.23,0.63l-0.54-0.06c0.04-0.4,0.18-0.71,0.42-0.92s0.57-0.32,0.98-0.32
		c0.41,0,0.74,0.11,0.98,0.34s0.36,0.51,0.36,0.85c0,0.17-0.04,0.34-0.11,0.51s-0.19,0.34-0.35,0.52s-0.43,0.44-0.81,0.76
		c-0.32,0.27-0.52,0.45-0.61,0.54c-0.09,0.1-0.16,0.19-0.22,0.29H587.68z"/>
	<path class="st0" d="M588.33,79.46c0-0.51,0.05-0.92,0.16-1.23c0.1-0.31,0.26-0.55,0.46-0.72s0.47-0.25,0.78-0.25
		c0.23,0,0.43,0.05,0.61,0.14c0.17,0.09,0.32,0.23,0.43,0.4s0.2,0.39,0.27,0.64s0.1,0.59,0.1,1.01c0,0.5-0.05,0.91-0.16,1.22
		c-0.1,0.31-0.26,0.55-0.46,0.72s-0.47,0.25-0.78,0.25c-0.41,0-0.74-0.15-0.98-0.45C588.47,80.85,588.33,80.27,588.33,79.46z
		 M588.87,79.46c0,0.71,0.08,1.17,0.25,1.41c0.16,0.23,0.37,0.35,0.61,0.35s0.45-0.12,0.61-0.35s0.25-0.7,0.25-1.41
		c0-0.71-0.08-1.18-0.25-1.41s-0.37-0.35-0.62-0.35c-0.24,0-0.44,0.1-0.58,0.31C588.96,78.27,588.87,78.76,588.87,79.46z"/>
	<path class="st0" d="M591.86,79.46c0-0.51,0.05-0.92,0.16-1.23c0.1-0.31,0.26-0.55,0.46-0.72s0.47-0.25,0.78-0.25
		c0.23,0,0.43,0.05,0.61,0.14c0.17,0.09,0.32,0.23,0.43,0.4s0.2,0.39,0.27,0.64s0.1,0.59,0.1,1.01c0,0.5-0.05,0.91-0.16,1.22
		c-0.1,0.31-0.26,0.55-0.46,0.72s-0.47,0.25-0.78,0.25c-0.41,0-0.74-0.15-0.98-0.45C592,80.85,591.86,80.27,591.86,79.46z
		 M592.4,79.46c0,0.71,0.08,1.17,0.25,1.41c0.16,0.23,0.37,0.35,0.61,0.35s0.45-0.12,0.61-0.35s0.25-0.7,0.25-1.41
		c0-0.71-0.08-1.18-0.25-1.41s-0.37-0.35-0.62-0.35c-0.24,0-0.44,0.1-0.58,0.31C592.49,78.27,592.4,78.76,592.4,79.46z"/>
	<path class="st0" d="M595.39,79.46c0-0.51,0.05-0.92,0.16-1.23c0.1-0.31,0.26-0.55,0.46-0.72s0.47-0.25,0.78-0.25
		c0.23,0,0.43,0.05,0.61,0.14c0.17,0.09,0.32,0.23,0.43,0.4s0.2,0.39,0.27,0.64s0.1,0.59,0.1,1.01c0,0.5-0.05,0.91-0.16,1.22
		c-0.1,0.31-0.26,0.55-0.46,0.72s-0.47,0.25-0.78,0.25c-0.41,0-0.74-0.15-0.98-0.45C595.53,80.85,595.39,80.27,595.39,79.46z
		 M595.93,79.46c0,0.71,0.08,1.17,0.25,1.41c0.16,0.23,0.37,0.35,0.61,0.35s0.45-0.12,0.61-0.35s0.25-0.7,0.25-1.41
		c0-0.71-0.08-1.18-0.25-1.41s-0.37-0.35-0.62-0.35c-0.24,0-0.44,0.1-0.58,0.31C596.02,78.27,595.93,78.76,595.93,79.46z"/>
	<path class="st0" d="M598.73,77.85v-0.51h2.78v0.41c-0.27,0.29-0.54,0.68-0.81,1.16c-0.27,0.48-0.48,0.98-0.62,1.49
		c-0.11,0.36-0.17,0.75-0.2,1.18h-0.54c0.01-0.34,0.07-0.75,0.2-1.22s0.31-0.94,0.55-1.38c0.24-0.44,0.49-0.82,0.76-1.12H598.73z"/>
	<path class="st0" d="M603.79,81.58h-0.53v-3.36c-0.13,0.12-0.29,0.24-0.5,0.36c-0.21,0.12-0.39,0.21-0.56,0.27v-0.51
		c0.29-0.14,0.55-0.31,0.77-0.5s0.38-0.39,0.47-0.57h0.34V81.58z"/>
	<path class="st0" d="M604.99,80.45l0.55-0.05c0.04,0.27,0.14,0.47,0.29,0.61c0.15,0.14,0.33,0.2,0.54,0.2
		c0.25,0,0.47-0.1,0.64-0.29s0.26-0.45,0.26-0.76c0-0.3-0.08-0.54-0.25-0.71s-0.39-0.26-0.66-0.26c-0.17,0-0.32,0.04-0.46,0.12
		s-0.24,0.18-0.32,0.3l-0.5-0.06l0.42-2.21h2.14v0.5h-1.71L605.69,79c0.26-0.18,0.53-0.27,0.81-0.27c0.38,0,0.69,0.13,0.95,0.39
		s0.39,0.59,0.39,1c0,0.39-0.11,0.72-0.34,1.01c-0.28,0.35-0.65,0.52-1.13,0.52c-0.39,0-0.71-0.11-0.96-0.33
		S605.02,80.82,604.99,80.45z"/>
	<path class="st0" d="M608.39,77.85v-0.51h2.78v0.41c-0.27,0.29-0.54,0.68-0.81,1.16c-0.27,0.48-0.48,0.98-0.62,1.49
		c-0.11,0.36-0.17,0.75-0.2,1.18h-0.54c0.01-0.34,0.07-0.75,0.2-1.22s0.31-0.94,0.55-1.38c0.24-0.44,0.49-0.82,0.76-1.12H608.39z"/>
	<path class="st0" d="M611.9,82.77v-5.49h1.16v0.44h-0.64v4.61h0.64v0.44H611.9z"/>
	<path class="st0" d="M615.63,80.58l0.54,0.07c-0.09,0.32-0.25,0.57-0.48,0.74s-0.53,0.26-0.89,0.26c-0.46,0-0.82-0.14-1.08-0.42
		c-0.27-0.28-0.4-0.67-0.4-1.18c0-0.52,0.13-0.93,0.4-1.22s0.62-0.43,1.05-0.43c0.42,0,0.76,0.14,1.02,0.42s0.4,0.68,0.4,1.2
		c0,0.03,0,0.08,0,0.14h-2.32c0.02,0.34,0.12,0.6,0.29,0.79s0.39,0.27,0.65,0.27c0.19,0,0.36-0.05,0.5-0.15
		S615.55,80.8,615.63,80.58z M613.9,79.72h1.74c-0.02-0.26-0.09-0.46-0.2-0.59c-0.17-0.2-0.39-0.3-0.65-0.3
		c-0.24,0-0.45,0.08-0.61,0.24C614.01,79.24,613.92,79.45,613.9,79.72z"/>
	<path class="st0" d="M616.44,81.58l1.14-1.62l-1.05-1.49h0.66l0.48,0.73c0.09,0.14,0.16,0.25,0.22,0.35
		c0.09-0.13,0.17-0.24,0.24-0.34l0.52-0.74h0.63l-1.08,1.46l1.16,1.65h-0.65l-0.64-0.97l-0.17-0.26l-0.82,1.23H616.44z"/>
	<path class="st0" d="M619.87,82.77v-4.3h0.48v0.4c0.11-0.16,0.24-0.28,0.38-0.36c0.14-0.08,0.32-0.12,0.52-0.12
		c0.27,0,0.5,0.07,0.7,0.21s0.36,0.33,0.46,0.58c0.1,0.25,0.16,0.52,0.16,0.82c0,0.32-0.06,0.6-0.17,0.86
		c-0.12,0.25-0.28,0.45-0.5,0.59c-0.22,0.13-0.45,0.2-0.69,0.2c-0.18,0-0.33-0.04-0.47-0.11c-0.14-0.07-0.25-0.17-0.34-0.28v1.51
		H619.87z M620.35,80.04c0,0.4,0.08,0.7,0.24,0.89s0.36,0.29,0.59,0.29c0.23,0,0.44-0.1,0.6-0.3c0.17-0.2,0.25-0.51,0.25-0.92
		c0-0.4-0.08-0.69-0.25-0.89s-0.36-0.3-0.58-0.3c-0.22,0-0.42,0.11-0.6,0.32C620.44,79.34,620.35,79.64,620.35,80.04z"/>
	<path class="st0" d="M623.21,79.46c0-0.51,0.05-0.92,0.16-1.23c0.1-0.31,0.26-0.55,0.46-0.72s0.47-0.25,0.78-0.25
		c0.23,0,0.43,0.05,0.61,0.14c0.17,0.09,0.32,0.23,0.43,0.4s0.2,0.39,0.27,0.64s0.1,0.59,0.1,1.01c0,0.5-0.05,0.91-0.16,1.22
		c-0.1,0.31-0.26,0.55-0.46,0.72s-0.47,0.25-0.78,0.25c-0.41,0-0.74-0.15-0.98-0.45C623.35,80.85,623.21,80.27,623.21,79.46z
		 M623.75,79.46c0,0.71,0.08,1.17,0.25,1.41c0.16,0.23,0.37,0.35,0.61,0.35s0.45-0.12,0.61-0.35s0.25-0.7,0.25-1.41
		c0-0.71-0.08-1.18-0.25-1.41s-0.37-0.35-0.62-0.35c-0.24,0-0.44,0.1-0.58,0.31C623.84,78.27,623.75,78.76,623.75,79.46z"/>
	<path class="st0" d="M627.5,79.25c-0.22-0.08-0.38-0.19-0.49-0.34s-0.16-0.33-0.16-0.53c0-0.31,0.11-0.58,0.34-0.79
		s0.52-0.32,0.9-0.32c0.38,0,0.68,0.11,0.91,0.33c0.23,0.22,0.34,0.48,0.34,0.8c0,0.2-0.05,0.37-0.16,0.52s-0.26,0.26-0.48,0.34
		c0.26,0.09,0.46,0.22,0.6,0.42c0.14,0.19,0.21,0.42,0.21,0.69c0,0.37-0.13,0.68-0.39,0.93s-0.6,0.38-1.03,0.38
		s-0.77-0.12-1.03-0.38s-0.39-0.56-0.39-0.94c0-0.28,0.07-0.51,0.21-0.7S627.24,79.32,627.5,79.25z M627.23,80.34
		c0,0.15,0.04,0.3,0.11,0.44c0.07,0.14,0.18,0.25,0.32,0.33c0.14,0.08,0.29,0.12,0.45,0.12c0.25,0,0.46-0.08,0.62-0.24
		s0.25-0.37,0.25-0.62c0-0.25-0.08-0.46-0.25-0.63c-0.17-0.17-0.38-0.25-0.63-0.25c-0.25,0-0.45,0.08-0.62,0.25
		S627.23,80.09,627.23,80.34z M627.4,78.36c0,0.2,0.07,0.37,0.2,0.5s0.3,0.19,0.51,0.19c0.2,0,0.37-0.06,0.5-0.19s0.2-0.29,0.2-0.47
		c0-0.19-0.07-0.36-0.2-0.49c-0.13-0.13-0.3-0.2-0.5-0.2c-0.2,0-0.37,0.06-0.5,0.19S627.4,78.18,627.4,78.36z"/>
	<path class="st0" d="M632.86,81.07v0.51h-2.84c0-0.13,0.02-0.25,0.06-0.37c0.07-0.19,0.19-0.38,0.35-0.57s0.39-0.4,0.69-0.65
		c0.47-0.38,0.78-0.69,0.95-0.91c0.16-0.22,0.25-0.43,0.25-0.63c0-0.21-0.07-0.39-0.22-0.53c-0.15-0.14-0.34-0.22-0.58-0.22
		c-0.25,0-0.46,0.08-0.61,0.23s-0.23,0.36-0.23,0.63l-0.54-0.06c0.04-0.4,0.18-0.71,0.42-0.92s0.57-0.32,0.98-0.32
		c0.41,0,0.74,0.11,0.98,0.34s0.36,0.51,0.36,0.85c0,0.17-0.04,0.34-0.11,0.51s-0.19,0.34-0.35,0.52s-0.43,0.44-0.81,0.76
		c-0.32,0.27-0.52,0.45-0.61,0.54c-0.09,0.1-0.16,0.19-0.22,0.29H632.86z"/>
	<path class="st0" d="M635.34,81.58h-0.53v-3.36c-0.13,0.12-0.29,0.24-0.5,0.36c-0.21,0.12-0.39,0.21-0.56,0.27v-0.51
		c0.29-0.14,0.55-0.31,0.77-0.5s0.38-0.39,0.47-0.57h0.34V81.58z"/>
	<path class="st0" d="M637.54,82.77h-1.16v-0.44h0.64v-4.61h-0.64v-0.44h1.16V82.77z"/>
	<path class="st0" d="M638.46,82.77v-5.49h1.16v0.44h-0.64v4.61h0.64v0.44H638.46z"/>
	<path class="st0" d="M639.75,81.58l1.65-4.29h0.61l1.76,4.29h-0.65l-0.5-1.3h-1.8l-0.47,1.3H639.75z M640.98,79.82h1.46l-0.45-1.19
		c-0.14-0.36-0.24-0.66-0.3-0.89c-0.05,0.28-0.13,0.55-0.23,0.82L640.98,79.82z"/>
	<path class="st0" d="M644.29,81.58v-4.29h0.53v4.29H644.29z"/>
	<path class="st0" d="M645.67,81.58v-4.29h0.53v4.29H645.67z"/>
	<path class="st0" d="M648.45,80.2l0.54-0.05c0.03,0.21,0.08,0.39,0.18,0.53c0.09,0.14,0.24,0.25,0.43,0.33
		c0.2,0.09,0.42,0.13,0.66,0.13c0.22,0,0.41-0.03,0.57-0.1s0.29-0.15,0.37-0.27c0.08-0.11,0.12-0.23,0.12-0.37
		c0-0.13-0.04-0.25-0.12-0.35c-0.08-0.1-0.21-0.18-0.39-0.25c-0.12-0.04-0.37-0.11-0.76-0.21c-0.39-0.09-0.67-0.18-0.83-0.27
		c-0.21-0.11-0.36-0.24-0.46-0.4c-0.1-0.16-0.15-0.34-0.15-0.53c0-0.22,0.06-0.42,0.18-0.61c0.12-0.19,0.3-0.33,0.54-0.43
		s0.5-0.15,0.79-0.15c0.32,0,0.6,0.05,0.84,0.15c0.24,0.1,0.43,0.25,0.56,0.45s0.2,0.42,0.21,0.68l-0.54,0.04
		c-0.03-0.27-0.13-0.48-0.3-0.62s-0.42-0.21-0.75-0.21c-0.34,0-0.59,0.06-0.75,0.19c-0.16,0.12-0.24,0.28-0.24,0.46
		c0,0.15,0.06,0.28,0.17,0.38c0.11,0.1,0.39,0.2,0.86,0.31c0.46,0.1,0.78,0.2,0.95,0.27c0.25,0.12,0.43,0.26,0.55,0.44
		c0.12,0.18,0.18,0.38,0.18,0.61c0,0.23-0.07,0.44-0.2,0.65c-0.13,0.2-0.32,0.36-0.56,0.47c-0.25,0.11-0.52,0.17-0.83,0.17
		c-0.39,0-0.71-0.06-0.98-0.17s-0.47-0.28-0.62-0.51C648.53,80.74,648.46,80.49,648.45,80.2z"/>
	<path class="st0" d="M653.8,81.11l0.08,0.47c-0.15,0.03-0.28,0.05-0.4,0.05c-0.19,0-0.34-0.03-0.45-0.09s-0.18-0.14-0.22-0.24
		c-0.04-0.1-0.06-0.31-0.06-0.62v-1.79h-0.39v-0.41h0.39V77.7l0.52-0.32v1.09h0.53v0.41h-0.53v1.82c0,0.15,0.01,0.25,0.03,0.29
		c0.02,0.04,0.05,0.08,0.09,0.1s0.1,0.04,0.18,0.04C653.63,81.13,653.7,81.12,653.8,81.11z"/>
	<path class="st0" d="M656.46,81.2c-0.2,0.17-0.38,0.28-0.56,0.35s-0.37,0.1-0.58,0.1c-0.34,0-0.6-0.08-0.79-0.25
		c-0.18-0.17-0.28-0.38-0.28-0.64c0-0.15,0.03-0.29,0.1-0.42c0.07-0.12,0.16-0.23,0.27-0.3c0.11-0.08,0.24-0.13,0.38-0.17
		c0.1-0.03,0.26-0.05,0.47-0.08c0.43-0.05,0.74-0.11,0.94-0.18c0-0.07,0-0.12,0-0.14c0-0.21-0.05-0.37-0.15-0.45
		c-0.13-0.12-0.33-0.18-0.6-0.18c-0.25,0-0.43,0.04-0.55,0.13c-0.12,0.09-0.21,0.24-0.26,0.46l-0.52-0.07
		c0.05-0.22,0.12-0.4,0.23-0.53s0.26-0.24,0.47-0.31c0.2-0.07,0.44-0.11,0.71-0.11c0.27,0,0.48,0.03,0.65,0.09s0.29,0.14,0.37,0.24
		s0.13,0.21,0.16,0.36c0.02,0.09,0.03,0.25,0.03,0.49v0.7c0,0.49,0.01,0.8,0.03,0.93c0.02,0.13,0.07,0.25,0.13,0.37h-0.55
		C656.51,81.47,656.47,81.34,656.46,81.2z M656.42,80.02c-0.19,0.08-0.48,0.14-0.86,0.2c-0.22,0.03-0.37,0.07-0.46,0.11
		s-0.16,0.1-0.21,0.17c-0.05,0.08-0.07,0.16-0.07,0.25c0,0.14,0.05,0.26,0.16,0.35c0.11,0.09,0.26,0.14,0.47,0.14
		c0.2,0,0.38-0.04,0.54-0.13c0.16-0.09,0.27-0.21,0.35-0.36c0.06-0.12,0.08-0.29,0.08-0.53V80.02z"/>
	<path class="st0" d="M658.94,81.11l0.08,0.47c-0.15,0.03-0.28,0.05-0.4,0.05c-0.19,0-0.34-0.03-0.45-0.09s-0.18-0.14-0.22-0.24
		c-0.04-0.1-0.06-0.31-0.06-0.62v-1.79h-0.39v-0.41h0.39V77.7l0.52-0.32v1.09h0.53v0.41h-0.53v1.82c0,0.15,0.01,0.25,0.03,0.29
		c0.02,0.04,0.05,0.08,0.09,0.1s0.1,0.04,0.18,0.04C658.77,81.13,658.85,81.12,658.94,81.11z"/>
	<path class="st0" d="M661.6,80.58l0.54,0.07c-0.09,0.32-0.25,0.57-0.48,0.74s-0.53,0.26-0.89,0.26c-0.46,0-0.82-0.14-1.08-0.42
		c-0.27-0.28-0.4-0.67-0.4-1.18c0-0.52,0.13-0.93,0.4-1.22s0.62-0.43,1.05-0.43c0.42,0,0.76,0.14,1.02,0.42s0.4,0.68,0.4,1.2
		c0,0.03,0,0.08,0,0.14h-2.32c0.02,0.34,0.12,0.6,0.29,0.79s0.39,0.27,0.65,0.27c0.19,0,0.36-0.05,0.5-0.15S661.52,80.8,661.6,80.58
		z M659.87,79.72h1.74c-0.02-0.26-0.09-0.46-0.2-0.59c-0.17-0.2-0.39-0.3-0.65-0.3c-0.24,0-0.45,0.08-0.61,0.24
		C659.98,79.24,659.89,79.45,659.87,79.72z"/>
	<path class="st0" d="M662.68,80.65l0.52-0.08c0.03,0.21,0.11,0.37,0.25,0.48c0.13,0.11,0.32,0.17,0.56,0.17
		c0.24,0,0.42-0.05,0.54-0.15c0.12-0.1,0.18-0.21,0.18-0.35c0-0.12-0.05-0.21-0.16-0.28c-0.07-0.05-0.25-0.11-0.54-0.18
		c-0.39-0.1-0.66-0.18-0.8-0.25c-0.15-0.07-0.26-0.17-0.34-0.29c-0.08-0.13-0.12-0.27-0.12-0.42c0-0.14,0.03-0.27,0.09-0.38
		s0.15-0.22,0.26-0.29c0.08-0.06,0.19-0.11,0.34-0.15c0.14-0.04,0.29-0.06,0.46-0.06c0.24,0,0.46,0.04,0.64,0.11
		c0.19,0.07,0.32,0.17,0.41,0.29c0.09,0.12,0.15,0.28,0.18,0.48l-0.52,0.07c-0.02-0.16-0.09-0.29-0.2-0.38s-0.27-0.13-0.48-0.13
		c-0.24,0-0.42,0.04-0.52,0.12s-0.16,0.17-0.16,0.28c0,0.07,0.02,0.13,0.06,0.18c0.04,0.06,0.11,0.1,0.2,0.14
		c0.05,0.02,0.21,0.06,0.47,0.13c0.37,0.1,0.63,0.18,0.78,0.24c0.15,0.06,0.26,0.16,0.35,0.28s0.13,0.27,0.13,0.45
		c0,0.18-0.05,0.34-0.15,0.5c-0.1,0.16-0.25,0.28-0.44,0.36c-0.19,0.08-0.41,0.13-0.66,0.13c-0.4,0-0.71-0.08-0.92-0.25
		S662.74,80.98,662.68,80.65z"/>
	<path class="st0" d="M666.7,82.77h-1.16v-0.44h0.64v-4.61h-0.64v-0.44h1.16V82.77z"/>
	<path class="st0" d="M667.63,82.77v-5.49h1.16v0.44h-0.64v4.61h0.64v0.44H667.63z"/>
	<path class="st0" d="M669.45,81.58v-4.29h1.48c0.33,0,0.59,0.02,0.76,0.06c0.25,0.06,0.46,0.16,0.63,0.31
		c0.23,0.19,0.4,0.44,0.51,0.73c0.11,0.3,0.17,0.64,0.17,1.02c0,0.33-0.04,0.62-0.11,0.87s-0.17,0.46-0.29,0.63
		s-0.25,0.29-0.39,0.39c-0.14,0.1-0.31,0.17-0.51,0.22c-0.2,0.05-0.43,0.07-0.69,0.07H669.45z M670.02,81.07h0.92
		c0.28,0,0.5-0.03,0.67-0.08c0.16-0.05,0.29-0.13,0.38-0.22c0.13-0.13,0.24-0.32,0.31-0.54s0.11-0.5,0.11-0.83
		c0-0.45-0.07-0.79-0.22-1.04c-0.15-0.24-0.33-0.4-0.54-0.49c-0.15-0.06-0.4-0.09-0.74-0.09h-0.9V81.07z"/>
	<path class="st0" d="M676.95,80.07l0.57,0.14c-0.12,0.47-0.33,0.82-0.64,1.07c-0.31,0.25-0.69,0.37-1.14,0.37
		c-0.46,0-0.84-0.09-1.13-0.28c-0.29-0.19-0.51-0.46-0.66-0.82s-0.23-0.74-0.23-1.15c0-0.45,0.08-0.84,0.26-1.17
		s0.41-0.59,0.73-0.76c0.31-0.17,0.66-0.26,1.04-0.26c0.43,0,0.79,0.11,1.08,0.33s0.5,0.53,0.61,0.92l-0.56,0.13
		c-0.1-0.31-0.24-0.54-0.43-0.68s-0.43-0.21-0.71-0.21c-0.33,0-0.61,0.08-0.83,0.24s-0.38,0.37-0.47,0.64
		c-0.09,0.27-0.13,0.54-0.13,0.83c0,0.37,0.05,0.68,0.16,0.96c0.11,0.27,0.27,0.48,0.5,0.61s0.47,0.2,0.73,0.2
		c0.32,0,0.59-0.09,0.81-0.28S676.87,80.43,676.95,80.07z"/>
	<path class="st0" d="M678.3,81.58v-0.6h0.6v0.6c0,0.22-0.04,0.4-0.12,0.54c-0.08,0.13-0.2,0.24-0.37,0.31l-0.15-0.23
		c0.11-0.05,0.19-0.12,0.25-0.22s0.08-0.23,0.09-0.41H678.3z"/>
	<path class="st0" d="M681.8,79.89v-0.5l1.82,0v1.59c-0.28,0.22-0.57,0.39-0.86,0.5c-0.3,0.11-0.6,0.17-0.91,0.17
		c-0.42,0-0.81-0.09-1.15-0.27s-0.6-0.44-0.78-0.78s-0.26-0.72-0.26-1.15c0-0.42,0.09-0.81,0.26-1.17c0.17-0.36,0.43-0.63,0.75-0.81
		s0.71-0.26,1.13-0.26c0.31,0,0.59,0.05,0.84,0.15c0.25,0.1,0.45,0.24,0.59,0.42s0.25,0.41,0.33,0.7l-0.51,0.14
		c-0.06-0.22-0.14-0.39-0.24-0.52s-0.23-0.22-0.41-0.3c-0.18-0.07-0.38-0.11-0.59-0.11c-0.26,0-0.48,0.04-0.67,0.12
		c-0.19,0.08-0.34,0.18-0.46,0.31s-0.21,0.27-0.27,0.42c-0.11,0.27-0.16,0.55-0.16,0.86c0,0.38,0.07,0.7,0.2,0.96
		c0.13,0.26,0.32,0.45,0.58,0.57s0.52,0.19,0.8,0.19c0.25,0,0.49-0.05,0.72-0.14c0.23-0.09,0.41-0.2,0.53-0.3v-0.8H681.8z"/>
	<path class="st0" d="M687.37,77.28h0.57v2.48c0,0.43-0.05,0.77-0.15,1.03s-0.27,0.46-0.53,0.62c-0.25,0.16-0.59,0.24-1,0.24
		c-0.4,0-0.73-0.07-0.99-0.21s-0.44-0.34-0.55-0.6s-0.16-0.62-0.16-1.08v-2.48h0.57v2.48c0,0.37,0.03,0.65,0.1,0.82
		c0.07,0.18,0.19,0.31,0.36,0.41c0.17,0.1,0.38,0.14,0.62,0.14c0.42,0,0.72-0.09,0.89-0.28s0.27-0.55,0.27-1.09V77.28z"/>
	<path class="st0" d="M688.91,81.58v-0.6h0.6v0.6c0,0.22-0.04,0.4-0.12,0.54c-0.08,0.13-0.2,0.24-0.37,0.31l-0.15-0.23
		c0.11-0.05,0.19-0.12,0.25-0.22s0.08-0.23,0.09-0.41H688.91z"/>
	<path class="st0" d="M690.6,81.58v-4.29h0.86l1.02,3.04c0.09,0.28,0.16,0.5,0.21,0.64c0.05-0.16,0.12-0.39,0.23-0.69l1.03-2.99
		h0.76v4.29h-0.55v-3.59l-1.25,3.59h-0.51l-1.24-3.66v3.66H690.6z"/>
	<path class="st0" d="M695.76,81.58v-4.29h1.62c0.29,0,0.5,0.01,0.65,0.04c0.21,0.04,0.39,0.1,0.53,0.2s0.26,0.24,0.34,0.41
		c0.09,0.18,0.13,0.37,0.13,0.59c0,0.37-0.12,0.67-0.35,0.93s-0.65,0.38-1.26,0.38h-1.1v1.75H695.76z M696.33,79.33h1.11
		c0.37,0,0.63-0.07,0.78-0.21s0.23-0.33,0.23-0.58c0-0.18-0.05-0.33-0.14-0.46c-0.09-0.13-0.21-0.21-0.36-0.25
		c-0.1-0.03-0.27-0.04-0.53-0.04h-1.1V79.33z"/>
	<path class="st0" d="M699.23,81.58v-0.6h0.6v0.6c0,0.22-0.04,0.4-0.12,0.54c-0.08,0.13-0.2,0.24-0.37,0.31l-0.15-0.23
		c0.11-0.05,0.19-0.12,0.25-0.22s0.08-0.23,0.09-0.41H699.23z"/>
	<path class="st0" d="M700.93,81.58v-4.29h1.62c0.29,0,0.5,0.01,0.65,0.04c0.21,0.04,0.39,0.1,0.53,0.2s0.26,0.24,0.34,0.41
		c0.09,0.18,0.13,0.37,0.13,0.59c0,0.37-0.12,0.67-0.35,0.93s-0.65,0.38-1.26,0.38h-1.1v1.75H700.93z M701.5,79.33h1.11
		c0.37,0,0.63-0.07,0.78-0.21s0.23-0.33,0.23-0.58c0-0.18-0.05-0.33-0.14-0.46c-0.09-0.13-0.21-0.21-0.36-0.25
		c-0.1-0.03-0.27-0.04-0.53-0.04h-1.1V79.33z"/>
	<path class="st0" d="M704.97,81.58v-4.29h1.9c0.38,0,0.67,0.04,0.87,0.12c0.2,0.08,0.36,0.21,0.48,0.41s0.18,0.41,0.18,0.65
		c0,0.3-0.1,0.56-0.3,0.77s-0.5,0.34-0.91,0.4c0.15,0.07,0.26,0.14,0.34,0.21c0.17,0.15,0.32,0.34,0.47,0.57l0.75,1.17h-0.71
		l-0.57-0.89c-0.17-0.26-0.3-0.46-0.41-0.59s-0.2-0.23-0.29-0.29c-0.09-0.05-0.17-0.09-0.26-0.11c-0.06-0.01-0.17-0.02-0.32-0.02
		h-0.66v1.91H704.97z M705.54,79.18h1.22c0.26,0,0.46-0.03,0.61-0.08c0.15-0.05,0.26-0.14,0.33-0.26c0.08-0.12,0.11-0.25,0.11-0.38
		c0-0.2-0.07-0.37-0.22-0.5s-0.38-0.2-0.7-0.2h-1.36V79.18z"/>
	<path class="st0" d="M709.51,81.58v-0.6h0.6v0.6c0,0.22-0.04,0.4-0.12,0.54c-0.08,0.13-0.2,0.24-0.37,0.31l-0.15-0.23
		c0.11-0.05,0.19-0.12,0.25-0.22s0.08-0.23,0.09-0.41H709.51z"/>
	<path class="st0" d="M712,81.58l-1.66-4.29h0.62l1.12,3.12c0.09,0.25,0.17,0.48,0.23,0.7c0.07-0.23,0.14-0.47,0.23-0.7l1.16-3.12
		h0.58l-1.68,4.29H712z"/>
	<path class="st0" d="M714.95,81.58v-4.29h0.57v4.29H714.95z"/>
	<path class="st0" d="M717.4,82.77h-1.16v-0.44h0.64v-4.61h-0.64v-0.44h1.16V82.77z"/>
</g>
</svg>
