<svg id="Layer_1" xmlns="http://www.w3.org/2000/svg" viewBox="0 0 300 250"><style>.st0{fill:#006098}</style><path class="st0" d="M28.31 38.22h7.07v27.13h-7.07V38.22zM43.93 58.85c0 .99.42 1.71 1.06 2.2.61.46 1.48.68 2.39.68 1.25 0 3.04-.53 3.04-2.09 0-1.52-2.01-1.82-3.15-2.09-4.07-1.03-9.16-1.14-9.16-6.46 0-4.75 5.13-6.04 9-6.04 4.33 0 8.85 1.25 9.08 6.38h-5.97c0-.84-.3-1.37-.84-1.71-.53-.34-1.25-.49-2.05-.49-1.06 0-2.77.11-2.77 1.48 0 1.86 4.33 2.2 7.29 2.85 3.99.8 5.02 3.69 5.02 5.32 0 5.28-5.02 7.03-9.46 7.03-4.67 0-9.46-1.56-9.65-7.07h6.17zM82.08 67.1c-1.56 4.33-3.88 4.86-8.24 4.86H70.8v-5.24h2.24c1.48 0 2.58-.84 2.58-2.2 0-1.06-1.25-4.1-1.63-5.17L68.9 45.63h6.84l3.72 12.84h.08l3.72-12.84h6.61L82.08 67.1zM99.83 45.06c6.12 0 10.41 4.52 10.41 10.45s-4.29 10.41-10.41 10.41-10.37-4.48-10.37-10.41c-.01-5.93 4.25-10.45 10.37-10.45zm0 15.92c3 0 3.95-2.96 3.95-5.47S102.83 50 99.83 50s-3.91 3-3.91 5.51c-.01 2.51.9 5.47 3.91 5.47zM132.31 65.35h-6.27v-2.7h-.08c-1.22 2.01-3.72 3.27-6 3.27-5.66 0-7.29-3.27-7.29-8.43V45.63h6.46v11.44c0 2.62 1.14 3.53 3.19 3.53 1.41 0 3.53-.91 3.53-4.41V45.63h6.46v19.72zM135.85 45.63h6.27v3.46h.08c.95-2.51 3.15-3.84 5.93-3.84.49 0 1.03.04 1.52.15v5.89c-.84-.23-1.6-.38-2.47-.38-3.19 0-4.86 2.2-4.86 4.67v9.76h-6.46V45.63z"/><g><path class="st0" d="M28.27 76.22h6.46v27.13h-6.46V76.22zM44.8 81.16h-6.46v-4.94h6.46v4.94zm-6.46 2.47h6.46v19.72h-6.46V83.63zM49.9 87.81h-3.12v-4.18h3.12c0-5.66 1.98-7.41 7.48-7.41 1.03 0 2.09.08 3.12.11v4.56c-.61-.08-1.18-.11-1.75-.11-1.48 0-2.39.19-2.39 1.98v.87h3.88v4.18h-3.88v15.54H49.9V87.81zM67.18 95.07c.11 2.7 1.67 4.48 4.41 4.48 1.56 0 3.08-.72 3.69-2.17h6.04c-1.18 4.56-5.4 6.54-9.8 6.54-6.42 0-10.79-3.88-10.79-10.49 0-6.04 4.83-10.37 10.64-10.37 7.07 0 10.6 5.32 10.3 12.01H67.18zm8.02-3.61c-.11-2.2-1.67-4.03-3.84-4.03-2.28 0-3.8 1.63-4.18 4.03h8.02zM102.87 81.16h-6.46v-4.94h6.46v4.94zm-6.46 2.47h6.46v19.72h-6.46V83.63zM106.32 83.63h6.27v2.7h.08c1.18-2.01 3.84-3.27 6.19-3.27 6.57 0 7.1 4.79 7.1 7.64v12.65h-6.46v-9.54c0-2.7.3-5.43-3.23-5.43-2.43 0-3.5 2.05-3.5 4.22v10.75h-6.46V83.63zM134.06 96.85c0 .99.42 1.71 1.06 2.2.61.46 1.48.68 2.39.68 1.25 0 3.04-.53 3.04-2.09 0-1.52-2.01-1.82-3.15-2.09-4.07-1.03-9.16-1.14-9.16-6.46 0-4.75 5.13-6.04 9-6.04 4.33 0 8.85 1.25 9.08 6.38h-5.97c0-.84-.3-1.37-.84-1.71-.53-.34-1.25-.49-2.05-.49-1.06 0-2.77.11-2.77 1.48 0 1.86 4.33 2.2 7.29 2.85 3.99.8 5.02 3.69 5.02 5.32 0 5.28-5.02 7.03-9.46 7.03-4.67 0-9.46-1.56-9.65-7.07h6.17zM168.53 103.35h-6.27v-2.7h-.08c-1.22 2.01-3.72 3.27-6 3.27-5.66 0-7.29-3.27-7.29-8.43V83.63h6.46v11.44c0 2.62 1.14 3.53 3.19 3.53 1.41 0 3.53-.91 3.53-4.41V83.63h6.46v19.72zM172.03 83.63h6.27v3.46h.08c.95-2.51 3.15-3.84 5.93-3.84.49 0 1.03.04 1.52.15v5.89c-.84-.23-1.6-.38-2.47-.38-3.19 0-4.86 2.2-4.86 4.67v9.76h-6.46V83.63zM186.88 89.71c.11-2.58 1.33-4.26 3.08-5.28 1.75-.99 4.03-1.37 6.27-1.37 4.67 0 9.2 1.03 9.2 6.61v8.62c0 1.67 0 3.5.76 5.05h-6.5c-.23-.61-.3-1.22-.38-1.86-1.67 1.75-4.14 2.43-6.5 2.43-3.76 0-6.73-1.9-6.73-5.96 0-6.42 6.99-5.93 11.47-6.84 1.1-.23 1.71-.61 1.71-1.82 0-1.48-1.79-2.05-3.12-2.05-1.79 0-2.92.8-3.23 2.47h-6.03zm8.36 10.22c3.08 0 4.1-1.75 3.95-5.81-.91.57-2.58.68-3.99 1.06-1.44.34-2.66.95-2.66 2.51 0 1.59 1.26 2.24 2.7 2.24zM208.62 83.63h6.27v2.7h.08c1.18-2.01 3.84-3.27 6.19-3.27 6.57 0 7.1 4.79 7.1 7.64v12.65h-6.46v-9.54c0-2.7.3-5.43-3.23-5.43-2.43 0-3.5 2.05-3.5 4.22v10.75h-6.46V83.63zM244.53 90.85c-.04-1.67-1.52-2.85-3.15-2.85-3.61 0-4.18 3.08-4.18 5.81 0 2.55 1.1 5.17 3.84 5.17 2.24 0 3.38-1.29 3.69-3.38H251c-.57 5.28-4.67 8.32-9.92 8.32-5.93 0-10.33-4.07-10.33-10.11 0-6.27 3.99-10.75 10.33-10.75 4.9 0 9.27 2.58 9.73 7.79h-6.28zM258.32 95.07c.11 2.7 1.67 4.48 4.41 4.48 1.56 0 3.08-.72 3.69-2.17h6.04c-1.18 4.56-5.39 6.54-9.8 6.54-6.42 0-10.79-3.88-10.79-10.49 0-6.04 4.83-10.37 10.64-10.37 7.07 0 10.6 5.32 10.3 12.01h-14.49zm8.02-3.61c-.11-2.2-1.67-4.03-3.84-4.03-2.28 0-3.8 1.63-4.18 4.03h8.02z"/></g><g><path class="st0" d="M28.05 114.22h6.46v13.98l5.89-6.57h7.48l-7.22 7.45 8.13 12.27H41l-4.83-7.94-1.67 1.63v6.31h-6.46v-27.13z"/><path class="st0" d="M54.65 133.07c.11 2.7 1.67 4.48 4.41 4.48 1.56 0 3.08-.72 3.69-2.17h6.04c-1.18 4.56-5.4 6.54-9.8 6.54-6.42 0-10.79-3.88-10.79-10.49 0-6.04 4.83-10.37 10.64-10.37 7.07 0 10.6 5.32 10.3 12.01H54.65zm8.01-3.61c-.11-2.2-1.67-4.03-3.84-4.03-2.28 0-3.8 1.63-4.18 4.03h8.02zM77.25 133.07c.11 2.7 1.67 4.48 4.41 4.48 1.56 0 3.08-.72 3.69-2.17h6.04c-1.18 4.56-5.4 6.54-9.8 6.54-6.42 0-10.79-3.88-10.79-10.49 0-6.04 4.83-10.37 10.64-10.37 7.07 0 10.6 5.32 10.3 12.01H77.25zm8.02-3.61c-.11-2.2-1.67-4.03-3.84-4.03-2.28 0-3.8 1.63-4.18 4.03h8.02zM94.09 121.63h6.16v2.28h.08c1.25-1.86 3.15-2.85 5.43-2.85 6.19 0 8.81 5.32 8.81 10.87 0 5.13-2.74 9.99-8.32 9.99-2.43 0-4.29-.91-5.62-2.7h-.08v8.74h-6.46v-26.33zm6.23 9.65c0 3.46.99 5.7 3.91 5.7 2.89 0 3.88-3 3.88-5.7 0-2.51-.99-5.28-3.84-5.28-1.75 0-3.95 1.22-3.95 5.28zM123.84 119.16h-6.46v-4.94h6.46v4.94zm-6.46 2.47h6.46v19.72h-6.46v-19.72zM127.3 121.63h6.27v2.7h.08c1.18-2.01 3.84-3.27 6.19-3.27 6.57 0 7.1 4.79 7.1 7.64v12.65h-6.46v-9.54c0-2.7.3-5.43-3.23-5.43-2.43 0-3.5 2.05-3.5 4.22v10.75h-6.46v-19.72zM169.44 138.96c0 3.23-.61 9.31-9.84 9.31-4.6 0-8.93-1.03-9.69-6.31h6.46c.15.87.49 1.41 1.1 1.71.57.3 1.37.42 2.36.42 3.08 0 3.38-2.17 3.38-4.6v-1.86h-.08c-1.18 1.82-3.15 2.89-5.24 2.89-5.97 0-8.66-4.25-8.66-9.8 0-5.24 3.08-9.65 8.66-9.65 2.36 0 4.14 1.03 5.28 3.04h.08v-2.47h6.19v17.32zM159.45 126c-2.85 0-3.76 2.51-3.76 4.94 0 2.32 1.06 4.63 3.72 4.63 2.74 0 3.91-2.13 3.91-4.6 0-2.5-.99-4.97-3.87-4.97zM204.47 141.35h-6.27v-2.7h-.08c-1.22 2.01-3.72 3.27-6 3.27-5.66 0-7.29-3.27-7.29-8.44v-11.85h6.46v11.44c0 2.62 1.14 3.53 3.19 3.53 1.41 0 3.53-.91 3.53-4.41v-10.56h6.46v19.72zM207.78 121.63h6.15v2.28h.08c1.25-1.86 3.15-2.85 5.43-2.85 6.19 0 8.81 5.32 8.81 10.87 0 5.13-2.74 9.99-8.32 9.99-2.43 0-4.29-.91-5.62-2.7h-.08v8.74h-6.46v-26.33zm6.23 9.65c0 3.46.99 5.7 3.91 5.7 2.89 0 3.88-3 3.88-5.7 0-2.51-.99-5.28-3.84-5.28-1.74 0-3.95 1.22-3.95 5.28zM228.23 123.11c.08-6 4.03-9.46 9.96-9.46 4.75 0 9.5 2.51 9.5 7.75 0 3.69-1.79 5.02-4.67 6.84-1.98 1.29-2.47 1.86-2.51 4.14h-6v-1.9c0-2.96 1.67-4.26 3.08-5.28 1.56-1.06 3.04-1.86 3.04-3.76 0-1.44-1.1-2.32-2.47-2.32-2.09 0-3.15 1.25-3.27 3.27v.72h-6.66zm5.73 11.17h7.07v7.07h-7.07v-7.07z"/></g></svg>