<svg id="Layer_1" xmlns="http://www.w3.org/2000/svg" viewBox="0 0 300 250"><style>.st0{fill:#231f20}</style><path class="st0" d="M21.29 241.62v-4.29h.57v3.79h2.12v.51h-2.69zM24.46 239.5c0-.51.05-.92.16-1.23s.26-.55.47-.72.47-.25.78-.25c.23 0 .43.05.61.14.17.09.32.23.43.4s.2.39.27.64.1.59.1 1.01c0 .5-.05.91-.16 1.22-.1.31-.26.55-.46.72s-.47.25-.78.25c-.41 0-.74-.15-.98-.45-.3-.34-.44-.92-.44-1.73zm.54 0c0 .71.08 1.17.25 1.41.17.23.37.35.61.35s.45-.12.61-.35.25-.7.25-1.41-.08-1.18-.25-1.41-.37-.35-.62-.35c-.24 0-.44.1-.58.31-.18.26-.27.75-.27 1.45zM28.76 239.29c-.22-.08-.38-.19-.49-.34s-.16-.33-.16-.53c0-.31.11-.58.34-.79s.52-.32.9-.32.68.11.91.33c.23.22.34.48.34.8 0 .2-.05.37-.16.52s-.26.26-.48.34c.26.09.46.22.6.42s.21.42.21.69c0 .37-.13.68-.39.93s-.6.38-1.03.38-.77-.12-1.03-.38-.39-.56-.39-.94c0-.28.07-.51.21-.7s.36-.34.62-.41zm-.28 1.09c0 .15.04.3.11.44s.18.25.32.33c.14.08.29.12.45.12.25 0 .46-.08.62-.24s.25-.37.25-.62a.852.852 0 0 0-.88-.88c-.25 0-.45.08-.62.25s-.25.35-.25.6zm.17-1.98c0 .2.07.37.2.5s.3.19.51.19c.2 0 .37-.06.5-.19s.19-.29.19-.47a.68.68 0 0 0-.7-.69c-.2 0-.37.06-.5.19s-.2.29-.2.47zM34.12 241.11v.51h-2.84c0-.13.02-.25.06-.37.07-.19.19-.38.35-.57s.39-.4.69-.65c.47-.38.78-.69.95-.91.16-.22.25-.43.25-.63 0-.21-.07-.39-.22-.53a.817.817 0 0 0-.58-.22c-.25 0-.46.08-.61.23s-.23.36-.23.63l-.54-.06c.04-.4.18-.71.42-.92s.57-.32.98-.32c.41 0 .74.11.98.34s.36.51.36.85c0 .17-.04.34-.11.51s-.19.34-.35.52-.43.44-.81.76c-.32.27-.52.45-.61.54-.09.1-.16.19-.22.29h2.08zM34.76 239.5c0-.51.05-.92.16-1.23s.26-.55.47-.72.47-.25.78-.25c.23 0 .43.05.61.14.17.09.32.23.43.4s.2.39.27.64.1.59.1 1.01c0 .5-.05.91-.16 1.22-.1.31-.26.55-.46.72s-.47.25-.78.25c-.41 0-.74-.15-.98-.45-.3-.34-.44-.92-.44-1.73zm.54 0c0 .71.08 1.17.25 1.41.17.23.37.35.61.35s.45-.12.61-.35.25-.7.25-1.41-.08-1.18-.25-1.41-.37-.35-.62-.35c-.24 0-.44.1-.58.31-.18.26-.27.75-.27 1.45zM38.29 239.5c0-.51.05-.92.16-1.23s.26-.55.47-.72.47-.25.78-.25c.23 0 .43.05.61.14.17.09.32.23.43.4s.2.39.27.64.1.59.1 1.01c0 .5-.05.91-.16 1.22-.1.31-.26.55-.46.72s-.47.25-.78.25c-.41 0-.74-.15-.98-.45-.3-.34-.44-.92-.44-1.73zm.54 0c0 .71.08 1.17.25 1.41.17.23.37.35.61.35s.45-.12.61-.35.25-.7.25-1.41-.08-1.18-.25-1.41-.37-.35-.62-.35c-.24 0-.44.1-.58.31-.18.26-.27.75-.27 1.45zM41.82 239.5c0-.51.05-.92.16-1.23s.26-.55.47-.72.47-.25.78-.25c.23 0 .43.05.61.14.17.09.32.23.43.4s.2.39.27.64.1.59.1 1.01c0 .5-.05.91-.16 1.22-.1.31-.26.55-.46.72s-.47.25-.78.25c-.41 0-.74-.15-.98-.45-.29-.34-.44-.92-.44-1.73zm.55 0c0 .71.08 1.17.25 1.41.17.23.37.35.61.35s.45-.12.61-.35.25-.7.25-1.41-.08-1.18-.25-1.41-.37-.35-.62-.35c-.24 0-.44.1-.58.31-.18.26-.27.75-.27 1.45zM45.17 237.89v-.51h2.78v.41c-.27.29-.54.68-.81 1.16s-.48.98-.62 1.49c-.11.36-.17.75-.2 1.18h-.54c.01-.34.07-.75.2-1.22s.31-.94.55-1.38c.24-.44.49-.82.76-1.12h-2.12zM50.23 241.62h-.53v-3.36c-.13.12-.29.24-.5.36s-.39.21-.56.27v-.51c.29-.14.55-.31.77-.5s.38-.39.47-.57h.34v4.31zM51.42 240.5l.55-.05c.04.27.14.47.29.61.15.14.33.2.54.2.25 0 .47-.1.64-.29s.26-.45.26-.76c0-.3-.08-.54-.25-.71s-.39-.26-.66-.26a.926.926 0 0 0-.78.42l-.5-.06.42-2.21h2.14v.5h-1.71l-.23 1.15c.26-.18.53-.27.81-.27.38 0 .69.13.95.39s.39.59.39 1c0 .39-.11.72-.34 1.01-.28.35-.65.52-1.13.52-.39 0-.71-.11-.96-.33s-.39-.5-.43-.86zM54.82 237.89v-.51h2.78v.41c-.27.29-.54.68-.81 1.16s-.48.98-.62 1.49c-.11.36-.17.75-.2 1.18h-.54c.01-.34.07-.75.2-1.22s.31-.94.55-1.38c.24-.44.49-.82.76-1.12h-2.12zM58.34 242.81v-5.49h1.16v.44h-.64v4.61h.64v.44h-1.16zM62.06 240.62l.54.07c-.09.32-.25.57-.48.74s-.53.26-.89.26c-.46 0-.82-.14-1.08-.42s-.4-.67-.4-1.18c0-.52.13-.93.4-1.22s.62-.43 1.05-.43c.42 0 .76.14 1.02.42s.4.68.4 1.2v.14H60.3c.02.34.12.6.29.79s.39.27.65.27c.19 0 .36-.05.5-.15s.24-.27.32-.49zm-1.73-.85h1.74c-.02-.26-.09-.46-.2-.59a.82.82 0 0 0-.65-.3c-.24 0-.45.08-.61.24s-.26.37-.28.65zM62.87 241.62l1.14-1.62-1.05-1.49h.66l.48.73c.09.14.16.25.22.35.09-.13.17-.24.24-.34l.52-.74h.63l-1.08 1.46 1.16 1.65h-.65l-.64-.97-.17-.26-.82 1.23h-.64zM66.31 242.81v-4.3h.48v.4c.11-.16.24-.28.38-.36.14-.08.32-.12.52-.12.27 0 .5.07.7.21s.36.33.46.58c.1.25.16.52.16.82 0 .32-.06.6-.17.86-.11.25-.28.45-.5.59-.22.13-.45.2-.69.2a1.018 1.018 0 0 1-.81-.39v1.51h-.53zm.47-2.73c0 .4.08.7.24.89s.36.29.59.29c.23 0 .44-.1.6-.3s.25-.51.25-.92c0-.4-.08-.69-.24-.89s-.36-.3-.58-.3c-.22 0-.42.11-.6.32s-.26.51-.26.91zM69.64 239.5c0-.51.05-.92.16-1.23s.26-.55.47-.72.47-.25.78-.25c.23 0 .43.05.61.14.17.09.32.23.43.4s.2.39.27.64.1.59.1 1.01c0 .5-.05.91-.16 1.22-.1.31-.26.55-.46.72s-.47.25-.78.25c-.41 0-.74-.15-.98-.45-.3-.34-.44-.92-.44-1.73zm.54 0c0 .71.08 1.17.25 1.41.17.23.37.35.61.35s.45-.12.61-.35.25-.7.25-1.41-.08-1.18-.25-1.41-.37-.35-.62-.35c-.24 0-.44.1-.58.31-.18.26-.27.75-.27 1.45zM73.94 239.29c-.22-.08-.38-.19-.49-.34s-.16-.33-.16-.53c0-.31.11-.58.34-.79s.52-.32.9-.32.68.11.91.33c.23.22.34.48.34.8 0 .2-.05.37-.16.52s-.26.26-.48.34c.26.09.46.22.6.42s.21.42.21.69c0 .37-.13.68-.39.93s-.6.38-1.03.38-.77-.12-1.03-.38-.39-.56-.39-.94c0-.28.07-.51.21-.7s.36-.34.62-.41zm-.28 1.09c0 .15.04.3.11.44s.18.25.32.33c.14.08.29.12.45.12.25 0 .46-.08.62-.24s.25-.37.25-.62a.852.852 0 0 0-.88-.88c-.25 0-.45.08-.62.25s-.25.35-.25.6zm.17-1.98c0 .2.07.37.2.5s.3.19.51.19c.2 0 .37-.06.5-.19s.19-.29.19-.47a.68.68 0 0 0-.7-.69c-.2 0-.37.06-.5.19s-.2.29-.2.47zM79.29 241.11v.51h-2.84c0-.13.02-.25.06-.37.07-.19.19-.38.35-.57s.39-.4.69-.65c.47-.38.78-.69.95-.91.16-.22.25-.43.25-.63 0-.21-.07-.39-.22-.53a.817.817 0 0 0-.58-.22c-.25 0-.46.08-.61.23s-.23.36-.23.63l-.54-.06c.04-.4.18-.71.42-.92s.57-.32.98-.32c.41 0 .74.11.98.34s.36.51.36.85c0 .17-.04.34-.11.51s-.19.34-.35.52-.43.44-.81.76c-.32.27-.52.45-.61.54-.09.1-.16.19-.22.29h2.08zM81.77 241.62h-.53v-3.36c-.13.12-.29.24-.5.36s-.39.21-.56.27v-.51c.29-.14.55-.31.77-.5s.38-.39.47-.57h.34v4.31zM83.97 242.81H82.8v-.44h.64v-4.61h-.64v-.44h1.16v5.49zM84.9 242.81v-5.49h1.16v.44h-.64v4.61h.64v.44H84.9zM86.18 241.62l1.65-4.29h.61l1.76 4.29h-.65l-.5-1.3h-1.8l-.47 1.3h-.6zm1.24-1.76h1.46l-.45-1.19c-.14-.36-.24-.66-.3-.89-.05.28-.13.55-.23.82l-.48 1.26zM90.72 241.62v-4.29h.53v4.29h-.53zM92.1 241.62v-4.29h.53v4.29h-.53zM94.88 240.24l.54-.05c.03.21.08.39.18.53.09.14.24.25.43.33.2.09.42.13.66.13.22 0 .41-.03.57-.1s.29-.15.37-.27c.08-.11.12-.23.12-.37a.55.55 0 0 0-.12-.35c-.08-.1-.21-.18-.39-.25-.12-.04-.37-.11-.76-.21-.39-.09-.67-.18-.83-.27-.21-.11-.36-.24-.46-.4a.988.988 0 0 1-.15-.53c0-.22.06-.42.18-.61s.3-.33.54-.43.5-.15.79-.15c.32 0 .6.05.84.15.24.1.43.25.56.45s.2.42.21.68l-.54.04c-.03-.27-.13-.48-.3-.62s-.42-.21-.75-.21c-.34 0-.59.06-.75.19a.56.56 0 0 0-.24.46c0 .15.06.28.17.38.11.1.4.2.86.31s.78.2.95.27c.25.12.43.26.55.44.12.18.18.38.18.61 0 .23-.07.44-.2.65-.13.2-.32.36-.56.47-.25.11-.52.17-.83.17-.39 0-.71-.06-.98-.17s-.47-.28-.62-.51-.21-.47-.22-.76zM100.23 241.15l.08.47c-.15.03-.28.05-.4.05-.19 0-.34-.03-.45-.09s-.18-.14-.22-.24c-.04-.1-.06-.31-.06-.62v-1.79h-.39v-.41h.39v-.77l.52-.32v1.09h.53v.41h-.53v1.82c0 .15.01.25.03.29s.05.08.09.1.1.04.18.04c.06-.01.14-.02.23-.03zM102.89 241.24c-.2.17-.38.28-.56.35s-.37.1-.58.1c-.34 0-.6-.08-.79-.25a.847.847 0 0 1-.28-.64c0-.15.03-.29.1-.42.07-.12.16-.23.27-.3s.24-.13.38-.17c.1-.03.26-.05.47-.08.43-.05.74-.11.94-.18v-.14c0-.21-.05-.37-.15-.45-.13-.12-.33-.18-.6-.18-.25 0-.43.04-.55.13-.12.09-.21.24-.26.46l-.52-.07c.05-.22.12-.4.23-.53s.26-.24.47-.31c.2-.07.44-.11.71-.11.27 0 .48.03.65.09s.29.14.37.24.13.21.16.36c.02.09.03.25.03.49v.7c0 .49.01.8.03.93s.07.25.13.37H103c-.06-.12-.09-.25-.11-.39zm-.04-1.18c-.19.08-.48.14-.86.2-.22.03-.37.07-.46.11s-.16.1-.21.17c-.05.08-.07.16-.07.25 0 .14.05.26.16.35s.26.14.47.14c.2 0 .38-.04.54-.13.16-.09.27-.21.35-.36.06-.12.08-.29.08-.53v-.2zM105.37 241.15l.08.47c-.15.03-.28.05-.4.05-.19 0-.34-.03-.45-.09s-.18-.14-.22-.24c-.04-.1-.06-.31-.06-.62v-1.79h-.39v-.41h.39v-.77l.52-.32v1.09h.53v.41h-.53v1.82c0 .15.01.25.03.29s.05.08.09.1.1.04.18.04c.06-.01.14-.02.23-.03zM108.04 240.62l.54.07c-.09.32-.25.57-.48.74s-.53.26-.89.26c-.46 0-.82-.14-1.08-.42s-.4-.67-.4-1.18c0-.52.13-.93.4-1.22s.62-.43 1.05-.43c.42 0 .76.14 1.02.42s.4.68.4 1.2v.14h-2.32c.02.34.12.6.29.79s.39.27.65.27c.19 0 .36-.05.5-.15s.24-.27.32-.49zm-1.73-.85h1.74c-.02-.26-.09-.46-.2-.59a.82.82 0 0 0-.65-.3c-.24 0-.45.08-.61.24s-.27.37-.28.65zM109.11 240.69l.52-.08c.03.21.11.37.24.48s.32.17.56.17c.24 0 .42-.05.54-.15.12-.1.18-.21.18-.35a.31.31 0 0 0-.16-.28c-.07-.05-.25-.11-.54-.18-.39-.1-.65-.18-.8-.25a.812.812 0 0 1-.34-.29.787.787 0 0 1-.12-.42c0-.14.03-.27.1-.38s.15-.22.26-.29c.08-.06.19-.11.34-.15.14-.04.29-.06.46-.06.24 0 .46.04.64.11s.32.17.41.29c.09.12.15.28.18.48l-.52.07c-.02-.16-.09-.29-.2-.38s-.27-.13-.48-.13c-.24 0-.42.04-.52.12s-.16.17-.16.28c0 .07.02.13.06.18.04.06.11.1.2.14.05.02.21.06.47.13.37.1.63.18.78.24.15.06.26.16.35.28s.13.27.13.45-.05.34-.15.5c-.1.16-.25.28-.44.36-.19.08-.41.13-.66.13-.4 0-.71-.08-.92-.25s-.35-.44-.41-.77zM113.13 242.81h-1.16v-.44h.64v-4.61h-.64v-.44h1.16v5.49zM114.06 242.81v-5.49h1.16v.44h-.64v4.61h.64v.44h-1.16zM115.89 241.62v-4.29h1.48c.33 0 .59.02.76.06.25.06.46.16.63.31.23.19.4.44.51.73s.17.64.17 1.02c0 .33-.04.62-.11.87s-.17.46-.29.63-.25.29-.39.39c-.14.1-.31.17-.51.22s-.43.07-.69.07h-1.56zm.56-.51h.92c.28 0 .51-.03.67-.08s.29-.13.39-.22c.13-.13.24-.32.31-.54s.11-.5.11-.83c0-.45-.07-.79-.22-1.04s-.33-.4-.54-.49c-.15-.06-.4-.09-.74-.09h-.9v3.29zM123.38 240.11l.57.14c-.12.47-.33.82-.64 1.07-.31.25-.69.37-1.14.37-.46 0-.84-.09-1.13-.28s-.51-.46-.66-.82-.23-.74-.23-1.15c0-.45.09-.84.26-1.17s.41-.59.73-.76c.32-.17.66-.26 1.04-.26.43 0 .79.11 1.08.33s.5.53.61.92l-.56.13c-.1-.31-.24-.54-.43-.68s-.43-.21-.71-.21c-.33 0-.61.08-.83.24s-.38.37-.47.64c-.09.27-.13.54-.13.83 0 .37.05.68.16.96.11.27.27.48.5.61s.47.2.73.2c.32 0 .59-.09.81-.28s.36-.46.44-.83zM124.73 241.62v-.6h.6v.6c0 .22-.04.4-.12.54-.08.13-.2.24-.37.31l-.15-.23c.11-.05.19-.12.25-.22s.08-.23.09-.41h-.3zM128.23 239.94v-.5h1.82v1.59c-.28.22-.57.39-.86.5-.3.11-.6.17-.91.17-.42 0-.81-.09-1.15-.27s-.6-.44-.78-.78-.26-.72-.26-1.15c0-.42.09-.81.26-1.17s.43-.63.75-.81.71-.26 1.13-.26c.31 0 .59.05.84.15s.45.24.59.42.25.41.33.7l-.51.14c-.06-.22-.14-.39-.24-.52s-.23-.22-.41-.3c-.18-.07-.38-.11-.59-.11-.26 0-.48.04-.67.12-.19.08-.34.18-.46.31s-.21.27-.27.42c-.11.27-.16.55-.16.86 0 .38.07.7.2.96s.32.45.58.57.52.19.8.19c.25 0 .49-.05.72-.14.23-.09.41-.2.53-.3v-.8h-1.28zM133.81 237.33h.57v2.48c0 .43-.05.77-.15 1.03s-.27.46-.53.62c-.25.16-.59.24-1 .24-.4 0-.73-.07-.99-.21s-.44-.34-.55-.6-.16-.62-.16-1.08v-2.48h.57v2.48c0 .37.03.65.1.82.07.18.19.31.36.41s.38.14.62.14c.42 0 .72-.09.89-.28s.27-.55.27-1.09v-2.48zM135.34 241.62v-.6h.6v.6c0 .22-.04.4-.12.54-.08.13-.2.24-.37.31l-.15-.23c.11-.05.19-.12.25-.22s.08-.23.09-.41h-.3zM137.03 241.62v-4.29h.86l1.02 3.04c.09.28.16.5.21.64.05-.16.12-.39.23-.69l1.03-2.99h.76v4.29h-.55v-3.59l-1.25 3.59h-.51l-1.24-3.66v3.66h-.56zM142.19 241.62v-4.29h1.62c.29 0 .5.01.65.04.21.04.39.1.53.2s.26.24.34.41c.09.18.13.37.13.59 0 .37-.12.67-.35.93s-.65.38-1.26.38h-1.1v1.75h-.56zm.57-2.25h1.11c.37 0 .63-.07.78-.21s.23-.33.23-.58c0-.18-.05-.33-.14-.46a.612.612 0 0 0-.36-.25c-.1-.03-.27-.04-.53-.04h-1.1v1.54zM145.66 241.62v-.6h.6v.6c0 .22-.04.4-.12.54-.08.13-.2.24-.37.31l-.15-.23c.11-.05.19-.12.25-.22s.08-.23.09-.41h-.3zM147.36 241.62v-4.29h1.62c.29 0 .5.01.65.04.21.04.39.1.53.2s.26.24.34.41c.09.18.13.37.13.59 0 .37-.12.67-.35.93s-.65.38-1.26.38h-1.1v1.75h-.56zm.57-2.25h1.11c.37 0 .63-.07.78-.21s.23-.33.23-.58c0-.18-.05-.33-.14-.46a.612.612 0 0 0-.36-.25c-.1-.03-.27-.04-.53-.04h-1.1v1.54zM151.4 241.62v-4.29h1.9c.38 0 .67.04.87.12.2.08.36.21.48.41s.18.41.18.65c0 .3-.1.56-.3.77s-.5.34-.91.4c.15.07.26.14.34.21.17.15.32.34.47.57l.75 1.17h-.71l-.57-.89c-.17-.26-.3-.46-.41-.59s-.2-.23-.29-.29a.966.966 0 0 0-.26-.11c-.06-.01-.17-.02-.32-.02h-.66v1.91h-.56zm.57-2.4h1.22c.26 0 .46-.03.61-.08.15-.05.26-.14.33-.26a.67.67 0 0 0 .11-.38c0-.2-.07-.37-.22-.5s-.38-.2-.7-.2h-1.36v1.42zM155.95 241.62v-.6h.6v.6c0 .22-.04.4-.12.54-.08.13-.2.24-.37.31l-.15-.23c.11-.05.19-.12.25-.22s.08-.23.09-.41h-.3zM158.43 241.62l-1.66-4.29h.62l1.12 3.12c.09.25.17.48.23.7.07-.23.14-.47.23-.7l1.16-3.12h.58l-1.68 4.29h-.6zM161.38 241.62v-4.29h.57v4.29h-.57zM163.83 242.81h-1.16v-.44h.64v-4.61h-.64v-.44h1.16v5.49z"/></svg>