<svg id="Layer_1" xmlns="http://www.w3.org/2000/svg" viewBox="0 0 300 250"><style>.st0{fill:#ff7f30}.st1{fill:#fff}</style><path class="st0" d="M172.87 190.65h115.26v28.23H172.87z"/><path class="st1" d="M189.93 199.66l4.28 11.45h-2.61l-.87-2.55h-4.28l-.9 2.55h-2.53l4.33-11.45h2.58zm.15 7.02l-1.44-4.2h-.03l-1.49 4.2h2.96zM200.37 199.66c.72 0 1.33.1 1.83.31s.91.48 1.23.83c.32.34.54.73.69 1.17s.22.89.22 1.36c0 .46-.07.91-.22 1.36-.14.44-.37.84-.69 1.18-.32.34-.72.62-1.23.83-.5.21-1.11.31-1.83.31h-2.65v4.11h-2.52v-11.45h5.17zm-.69 5.38c.29 0 .57-.02.83-.06.27-.04.5-.12.71-.25s.37-.3.49-.52c.12-.22.18-.52.18-.88s-.06-.66-.18-.88c-.12-.22-.29-.4-.49-.52s-.44-.21-.71-.25a5.59 5.59 0 0 0-.83-.06h-1.96v3.43h1.96zM211.07 199.66c.72 0 1.33.1 1.83.31s.91.48 1.23.83c.32.34.54.73.69 1.17s.22.89.22 1.36c0 .46-.07.91-.22 1.36-.14.44-.37.84-.69 1.18-.32.34-.72.62-1.23.83-.5.21-1.11.31-1.83.31h-2.65v4.11h-2.52v-11.45h5.17zm-.69 5.38c.29 0 .57-.02.83-.06.27-.04.5-.12.71-.25s.37-.3.49-.52c.12-.22.18-.52.18-.88s-.06-.66-.18-.88c-.12-.22-.29-.4-.49-.52s-.44-.21-.71-.25a5.59 5.59 0 0 0-.83-.06h-1.96v3.43h1.96zM219.12 199.66v9.33h5.58v2.12h-8.1v-11.45h2.52zM223.12 199.66h2.82l2.68 4.52 2.66-4.52h2.81l-4.25 7.06v4.39h-2.52v-4.46l-4.2-6.99zM242.01 199.66l4.78 7.68h.03v-7.68h2.36v11.45h-2.52l-4.76-7.67h-.03v7.67h-2.36v-11.45h2.5zM251.28 203.05c.26-.73.63-1.37 1.11-1.92.48-.54 1.07-.97 1.77-1.28.7-.31 1.49-.46 2.37-.46.89 0 1.68.16 2.37.46.7.31 1.28.74 1.76 1.28s.85 1.18 1.11 1.92c.26.73.38 1.53.38 2.38 0 .83-.13 1.61-.38 2.33s-.63 1.35-1.11 1.88c-.48.53-1.07.95-1.76 1.26s-1.49.46-2.37.46c-.88 0-1.67-.15-2.37-.46s-1.29-.72-1.77-1.26-.85-1.16-1.11-1.88-.38-1.5-.38-2.33c-.01-.86.12-1.65.38-2.38zm2.3 3.78c.11.46.29.86.54 1.23s.57.65.96.87c.4.22.88.33 1.44.33.57 0 1.05-.11 1.44-.33.4-.22.72-.51.96-.87s.42-.77.54-1.23c.11-.45.17-.92.17-1.4 0-.5-.06-.99-.17-1.46s-.29-.89-.54-1.26c-.25-.37-.57-.66-.96-.88-.4-.22-.88-.33-1.44-.33-.57 0-1.05.11-1.44.33-.4.22-.72.51-.96.88-.25.37-.42.79-.54 1.26s-.17.96-.17 1.46c0 .48.06.95.17 1.4zM272.27 211.11l-1.94-7.79h-.03l-1.91 7.79h-2.55l-3.03-11.45h2.52l1.81 7.79h.03l1.99-7.79h2.36l1.96 7.89h.03l1.88-7.89h2.47l-3.08 11.45h-2.51z"/></svg>