<?xml version="1.0" encoding="utf-8"?>
<!-- Generator: Adobe Illustrator 24.2.3, SVG Export Plug-In . SVG Version: 6.00 Build 0)  -->
<svg version="1.1" id="Layer_1" xmlns="http://www.w3.org/2000/svg" xmlns:xlink="http://www.w3.org/1999/xlink" x="0px" y="0px"
	 viewBox="0 0 728 90" style="enable-background:new 0 0 728 90;" xml:space="preserve">
<style type="text/css">
	.st0{fill:#006098;}
</style>
<g>
	<path class="st0" d="M53,36.37h-3.36l-0.31-2.18c-1.37,1.93-3.72,2.6-5.57,2.6c-6.05,0-9.97-4.62-9.97-10.42s3.92-10.42,9.97-10.42
		c4.14,0,8.57,2.21,9.04,7.22h-5.21c-0.17-1.71-1.85-2.74-3.95-2.74c-3.36,0-4.65,2.97-4.65,5.94c0,2.97,1.29,5.94,4.65,5.94
		c2.58,0,4.31-1.2,4.59-3.02H44.6v-3.86H53V36.37z"/>
	<path class="st0" d="M60.08,30.26c0.08,1.99,1.23,3.3,3.25,3.3c1.15,0,2.27-0.53,2.72-1.6h4.45c-0.87,3.36-3.98,4.82-7.22,4.82
		c-4.73,0-7.95-2.86-7.95-7.73c0-4.45,3.56-7.64,7.84-7.64c5.21,0,7.81,3.92,7.59,8.85H60.08z M65.99,27.6
		c-0.08-1.62-1.23-2.97-2.83-2.97c-1.68,0-2.8,1.2-3.08,2.97H65.99z"/>
	<path class="st0" d="M81.39,24.92h-2.94v6.61c0,1.15,0.67,1.4,1.71,1.4c0.39,0,0.81-0.06,1.23-0.06v3.5
		c-0.87,0.03-1.74,0.14-2.6,0.14c-4.06,0-5.1-1.18-5.1-5.12v-6.47h-2.41v-3.08h2.41v-4.4h4.76v4.4h2.94V24.92z"/>
	<path class="st0" d="M95.53,31.58c0,0.73,0.31,1.26,0.78,1.62c0.45,0.34,1.09,0.5,1.76,0.5c0.92,0,2.24-0.39,2.24-1.54
		c0-1.12-1.48-1.34-2.32-1.54c-3-0.76-6.75-0.84-6.75-4.76c0-3.5,3.78-4.45,6.64-4.45c3.19,0,6.52,0.92,6.69,4.7h-4.4
		c0-0.62-0.22-1.01-0.62-1.26c-0.39-0.25-0.92-0.36-1.51-0.36c-0.78,0-2.04,0.08-2.04,1.09c0,1.37,3.19,1.62,5.38,2.1
		c2.94,0.59,3.7,2.72,3.7,3.92c0,3.89-3.7,5.18-6.97,5.18c-3.44,0-6.97-1.15-7.11-5.21H95.53z"/>
	<path class="st0" d="M107.18,21.84h4.54v1.68h0.06c0.92-1.37,2.32-2.1,4-2.1c4.56,0,6.5,3.92,6.5,8.01c0,3.78-2.02,7.36-6.13,7.36
		c-1.79,0-3.16-0.67-4.14-1.99h-0.06v6.44h-4.76V21.84z M111.77,28.95c0,2.55,0.73,4.2,2.88,4.2c2.13,0,2.86-2.21,2.86-4.2
		c0-1.85-0.73-3.89-2.83-3.89C113.39,25.06,111.77,25.95,111.77,28.95z"/>
	<path class="st0" d="M128.54,30.26c0.08,1.99,1.23,3.3,3.25,3.3c1.15,0,2.27-0.53,2.72-1.6h4.45c-0.87,3.36-3.98,4.82-7.22,4.82
		c-4.73,0-7.95-2.86-7.95-7.73c0-4.45,3.56-7.64,7.84-7.64c5.21,0,7.81,3.92,7.59,8.85H128.54z M134.45,27.6
		c-0.08-1.62-1.23-2.97-2.83-2.97c-1.68,0-2.8,1.2-3.08,2.97H134.45z"/>
	<path class="st0" d="M150.72,27.16c-0.03-1.23-1.12-2.1-2.32-2.1c-2.66,0-3.08,2.27-3.08,4.28c0,1.88,0.81,3.81,2.83,3.81
		c1.65,0,2.49-0.95,2.72-2.49h4.62c-0.42,3.89-3.44,6.13-7.31,6.13c-4.37,0-7.62-3-7.62-7.45c0-4.62,2.94-7.92,7.62-7.92
		c3.61,0,6.83,1.9,7.17,5.74H150.72z"/>
	<path class="st0" d="M162.39,20.02h-4.76v-3.64h4.76V20.02z M157.63,21.84h4.76v14.53h-4.76V21.84z"/>
	<path class="st0" d="M165.22,26.32c0.08-1.9,0.98-3.14,2.27-3.89c1.29-0.73,2.97-1.01,4.62-1.01c3.44,0,6.78,0.76,6.78,4.87v6.36
		c0,1.23,0,2.58,0.56,3.72h-4.79c-0.17-0.45-0.22-0.9-0.28-1.37c-1.23,1.29-3.05,1.79-4.79,1.79c-2.77,0-4.96-1.4-4.96-4.4
		c0-4.73,5.15-4.37,8.46-5.04c0.81-0.17,1.26-0.45,1.26-1.34c0-1.09-1.32-1.51-2.3-1.51c-1.32,0-2.16,0.59-2.38,1.82H165.22z
		 M171.38,33.85c2.27,0,3.02-1.29,2.91-4.28c-0.67,0.42-1.9,0.5-2.94,0.78c-1.06,0.25-1.96,0.7-1.96,1.85
		C169.39,33.37,170.32,33.85,171.38,33.85z"/>
	<path class="st0" d="M181.82,16.38h4.76v19.99h-4.76V16.38z"/>
	<path class="st0" d="M212.32,34.6c0,2.38-0.45,6.86-7.25,6.86c-3.39,0-6.58-0.76-7.14-4.65h4.76c0.11,0.64,0.36,1.04,0.81,1.26
		c0.42,0.22,1.01,0.31,1.74,0.31c2.27,0,2.49-1.6,2.49-3.39v-1.37h-0.06c-0.87,1.34-2.32,2.13-3.86,2.13c-4.4,0-6.38-3.14-6.38-7.22
		c0-3.86,2.27-7.11,6.38-7.11c1.74,0,3.05,0.76,3.89,2.24h0.06v-1.82h4.56V34.6z M204.95,25.06c-2.1,0-2.77,1.85-2.77,3.64
		c0,1.71,0.78,3.42,2.74,3.42c2.02,0,2.88-1.57,2.88-3.39C207.81,26.88,207.08,25.06,204.95,25.06z"/>
	<path class="st0" d="M215.23,21.84h4.62v2.55h0.06c0.7-1.85,2.32-2.83,4.37-2.83c0.36,0,0.76,0.03,1.12,0.11v4.34
		c-0.62-0.17-1.18-0.28-1.82-0.28c-2.35,0-3.58,1.62-3.58,3.44v7.2h-4.76V21.84z"/>
	<path class="st0" d="M233.76,21.42c4.51,0,7.67,3.33,7.67,7.7s-3.16,7.67-7.67,7.67s-7.64-3.3-7.64-7.67S229.26,21.42,233.76,21.42
		z M233.76,33.15c2.21,0,2.91-2.18,2.91-4.03s-0.7-4.06-2.91-4.06s-2.88,2.21-2.88,4.06S231.55,33.15,233.76,33.15z"/>
	<path class="st0" d="M257.96,36.37h-4.62v-1.99h-0.06c-0.9,1.48-2.74,2.41-4.42,2.41c-4.17,0-5.38-2.41-5.38-6.22v-8.74h4.76v8.43
		c0,1.93,0.84,2.6,2.35,2.6c1.04,0,2.6-0.67,2.6-3.25v-7.78h4.76V36.37z"/>
	<path class="st0" d="M260.87,21.84h4.54v1.68h0.06c0.92-1.37,2.32-2.1,4-2.1c4.56,0,6.5,3.92,6.5,8.01c0,3.78-2.02,7.36-6.13,7.36
		c-1.79,0-3.16-0.67-4.14-1.99h-0.06v6.44h-4.76V21.84z M265.46,28.95c0,2.55,0.73,4.2,2.88,4.2c2.13,0,2.86-2.21,2.86-4.2
		c0-1.85-0.73-3.89-2.83-3.89C267.08,25.06,265.46,25.95,265.46,28.95z"/>
	<path class="st0" d="M286.96,21.84h4.62v2.55h0.06c0.7-1.85,2.32-2.83,4.37-2.83c0.36,0,0.76,0.03,1.12,0.11v4.34
		c-0.62-0.17-1.18-0.28-1.82-0.28c-2.35,0-3.58,1.62-3.58,3.44v7.2h-4.76V21.84z"/>
	<path class="st0" d="M298.33,26.32c0.08-1.9,0.98-3.14,2.27-3.89c1.29-0.73,2.97-1.01,4.62-1.01c3.44,0,6.78,0.76,6.78,4.87v6.36
		c0,1.23,0,2.58,0.56,3.72h-4.79c-0.17-0.45-0.22-0.9-0.28-1.37c-1.23,1.29-3.05,1.79-4.79,1.79c-2.77,0-4.96-1.4-4.96-4.4
		c0-4.73,5.15-4.37,8.46-5.04c0.81-0.17,1.26-0.45,1.26-1.34c0-1.09-1.32-1.51-2.3-1.51c-1.32,0-2.16,0.59-2.38,1.82H298.33z
		 M304.49,33.85c2.27,0,3.02-1.29,2.91-4.28c-0.67,0.42-1.9,0.5-2.94,0.78c-1.06,0.25-1.96,0.7-1.96,1.85
		C302.5,33.37,303.43,33.85,304.49,33.85z"/>
	<path class="st0" d="M323.45,24.92h-2.94v6.61c0,1.15,0.67,1.4,1.71,1.4c0.39,0,0.81-0.06,1.23-0.06v3.5
		c-0.87,0.03-1.74,0.14-2.6,0.14c-4.06,0-5.1-1.18-5.1-5.12v-6.47h-2.41v-3.08h2.41v-4.4h4.76v4.4h2.94V24.92z"/>
	<path class="st0" d="M329.1,30.26c0.08,1.99,1.23,3.3,3.25,3.3c1.15,0,2.27-0.53,2.72-1.6h4.45c-0.87,3.36-3.98,4.82-7.22,4.82
		c-4.73,0-7.95-2.86-7.95-7.73c0-4.45,3.56-7.64,7.84-7.64c5.21,0,7.81,3.92,7.59,8.85H329.1z M335.01,27.6
		c-0.08-1.62-1.23-2.97-2.83-2.97c-1.68,0-2.8,1.2-3.08,2.97H335.01z"/>
	<path class="st0" d="M345.57,31.58c0,0.73,0.31,1.26,0.78,1.62c0.45,0.34,1.09,0.5,1.76,0.5c0.92,0,2.24-0.39,2.24-1.54
		c0-1.12-1.48-1.34-2.32-1.54c-3-0.76-6.75-0.84-6.75-4.76c0-3.5,3.78-4.45,6.64-4.45c3.19,0,6.52,0.92,6.69,4.7h-4.4
		c0-0.62-0.22-1.01-0.62-1.26c-0.39-0.25-0.92-0.36-1.51-0.36c-0.78,0-2.04,0.08-2.04,1.09c0,1.37,3.19,1.62,5.38,2.1
		c2.94,0.59,3.7,2.72,3.7,3.92c0,3.89-3.7,5.18-6.97,5.18c-3.44,0-6.97-1.15-7.11-5.21H345.57z"/>
	<path class="st0" d="M372.67,21.42c4.51,0,7.67,3.33,7.67,7.7s-3.16,7.67-7.67,7.67s-7.64-3.3-7.64-7.67S368.16,21.42,372.67,21.42
		z M372.67,33.15c2.21,0,2.91-2.18,2.91-4.03s-0.7-4.06-2.91-4.06s-2.88,2.21-2.88,4.06S370.46,33.15,372.67,33.15z"/>
	<path class="st0" d="M382.5,21.84h4.62v1.99h0.06c0.87-1.48,2.83-2.41,4.56-2.41c4.84,0,5.24,3.53,5.24,5.63v9.32h-4.76v-7.03
		c0-1.99,0.22-4-2.38-4c-1.79,0-2.58,1.51-2.58,3.11v7.92h-4.76V21.84z"/>
</g>
<g>
	<path class="st0" d="M34.55,44.38h5.21v15.51h9.32v4.48H34.55V44.38z"/>
	<path class="st0" d="M55.13,58.26c0.08,1.99,1.23,3.3,3.25,3.3c1.15,0,2.27-0.53,2.72-1.6h4.45c-0.87,3.36-3.98,4.82-7.22,4.82
		c-4.73,0-7.95-2.86-7.95-7.73c0-4.45,3.56-7.64,7.84-7.64c5.21,0,7.81,3.92,7.59,8.85H55.13z M61.03,55.6
		c-0.08-1.62-1.23-2.97-2.83-2.97c-1.68,0-2.8,1.2-3.08,2.97H61.03z"/>
	<path class="st0" d="M76.18,64.37h-5.49l-4.84-14.53h4.96l2.66,9.6h0.06l2.69-9.6h4.84L76.18,64.37z"/>
	<path class="st0" d="M85.9,58.26c0.08,1.99,1.23,3.3,3.25,3.3c1.15,0,2.27-0.53,2.72-1.6h4.45c-0.87,3.36-3.98,4.82-7.22,4.82
		c-4.73,0-7.95-2.86-7.95-7.73c0-4.45,3.56-7.64,7.84-7.64c5.21,0,7.81,3.92,7.59,8.85H85.9z M91.81,55.6
		c-0.08-1.62-1.23-2.97-2.83-2.97c-1.68,0-2.8,1.2-3.08,2.97H91.81z"/>
	<path class="st0" d="M98.75,44.38h4.76v19.99h-4.76V44.38z"/>
	<path class="st0" d="M131.23,48.86h-5.96v15.51h-5.21V48.86h-5.96v-4.48h17.14V48.86z"/>
	<path class="st0" d="M134.59,58.26c0.08,1.99,1.23,3.3,3.25,3.3c1.15,0,2.27-0.53,2.72-1.6H145c-0.87,3.36-3.98,4.82-7.22,4.82
		c-4.73,0-7.95-2.86-7.95-7.73c0-4.45,3.56-7.64,7.84-7.64c5.21,0,7.81,3.92,7.59,8.85H134.59z M140.5,55.6
		c-0.08-1.62-1.23-2.97-2.83-2.97c-1.68,0-2.8,1.2-3.08,2.97H140.5z"/>
	<path class="st0" d="M147.39,49.84H152v2.55h0.06c0.7-1.85,2.32-2.83,4.37-2.83c0.36,0,0.76,0.03,1.12,0.11v4.34
		c-0.62-0.17-1.18-0.28-1.82-0.28c-2.35,0-3.58,1.62-3.58,3.44v7.2h-4.76V49.84z"/>
	<path class="st0" d="M158.84,49.84h4.62v1.99h0.06c0.87-1.46,2.41-2.41,4.17-2.41c1.82,0,3.44,0.59,4.23,2.35
		c1.15-1.54,2.58-2.35,4.54-2.35c4.62,0,5.12,3.5,5.12,6.27v8.68h-4.76v-8.54c0-1.57-0.76-2.49-1.99-2.49
		c-2.04,0-2.24,1.57-2.24,3.92v7.11h-4.76v-8.26c0-1.71-0.5-2.77-1.79-2.77c-1.71,0-2.44,0.98-2.44,3.95v7.08h-4.76V49.84z"/>
	<path class="st0" d="M193.25,44.38h5.21v15.51h9.32v4.48h-14.53V44.38z"/>
	<path class="st0" d="M214.47,48.02h-4.76v-3.64h4.76V48.02z M209.71,49.84h4.76v14.53h-4.76V49.84z"/>
	<path class="st0" d="M218.45,52.92h-2.3v-3.08h2.3c0-4.17,1.46-5.46,5.52-5.46c0.76,0,1.54,0.06,2.3,0.08v3.36
		c-0.45-0.06-0.87-0.08-1.29-0.08c-1.09,0-1.76,0.14-1.76,1.46v0.64h2.86v3.08h-2.86v11.45h-4.76V52.92z"/>
	<path class="st0" d="M231.3,58.26c0.08,1.99,1.23,3.3,3.25,3.3c1.15,0,2.27-0.53,2.72-1.6h4.45c-0.87,3.36-3.98,4.82-7.22,4.82
		c-4.73,0-7.95-2.86-7.95-7.73c0-4.45,3.56-7.64,7.84-7.64c5.21,0,7.81,3.92,7.59,8.85H231.3z M237.21,55.6
		c-0.08-1.62-1.23-2.97-2.83-2.97c-1.68,0-2.8,1.2-3.08,2.97H237.21z"/>
	<path class="st0" d="M252.83,44.38h5.21v19.99h-5.21V44.38z"/>
	<path class="st0" d="M261.2,49.84h4.62v1.99h0.06c0.87-1.48,2.83-2.41,4.56-2.41c4.84,0,5.24,3.53,5.24,5.63v9.32h-4.76v-7.03
		c0-1.99,0.22-4-2.38-4c-1.79,0-2.58,1.51-2.58,3.11v7.92h-4.76V49.84z"/>
	<path class="st0" d="M282.29,59.58c0,0.73,0.31,1.26,0.78,1.62c0.45,0.34,1.09,0.5,1.76,0.5c0.92,0,2.24-0.39,2.24-1.54
		c0-1.12-1.48-1.34-2.32-1.54c-3-0.76-6.75-0.84-6.75-4.76c0-3.5,3.78-4.45,6.64-4.45c3.19,0,6.52,0.92,6.69,4.7h-4.4
		c0-0.62-0.22-1.01-0.62-1.26c-0.39-0.25-0.92-0.36-1.51-0.36c-0.78,0-2.04,0.08-2.04,1.09c0,1.37,3.19,1.62,5.38,2.1
		c2.94,0.59,3.7,2.72,3.7,3.92c0,3.89-3.7,5.18-6.97,5.18c-3.44,0-6.97-1.15-7.11-5.21H282.29z"/>
	<path class="st0" d="M308.3,64.37h-4.62v-1.99h-0.06c-0.9,1.48-2.74,2.41-4.42,2.41c-4.17,0-5.38-2.41-5.38-6.22v-8.74h4.76v8.43
		c0,1.93,0.84,2.6,2.35,2.6c1.04,0,2.6-0.67,2.6-3.25v-7.78h4.76V64.37z"/>
	<path class="st0" d="M311.29,49.84h4.62v2.55h0.06c0.7-1.85,2.32-2.83,4.37-2.83c0.36,0,0.76,0.03,1.12,0.11v4.34
		c-0.62-0.17-1.18-0.28-1.82-0.28c-2.35,0-3.58,1.62-3.58,3.44v7.2h-4.76V49.84z"/>
	<path class="st0" d="M322.66,54.32c0.08-1.9,0.98-3.14,2.27-3.89c1.29-0.73,2.97-1.01,4.62-1.01c3.44,0,6.78,0.76,6.78,4.87v6.36
		c0,1.23,0,2.58,0.56,3.72h-4.79c-0.17-0.45-0.22-0.9-0.28-1.37c-1.23,1.29-3.05,1.79-4.79,1.79c-2.77,0-4.96-1.4-4.96-4.4
		c0-4.73,5.15-4.37,8.46-5.04c0.81-0.17,1.26-0.45,1.26-1.34c0-1.09-1.32-1.51-2.3-1.51c-1.32,0-2.16,0.59-2.38,1.82H322.66z
		 M328.82,61.85c2.27,0,3.02-1.29,2.91-4.28c-0.67,0.42-1.9,0.5-2.94,0.78c-1.06,0.25-1.96,0.7-1.96,1.85
		C326.83,61.37,327.76,61.85,328.82,61.85z"/>
	<path class="st0" d="M339.21,49.84h4.62v1.99h0.06c0.87-1.48,2.83-2.41,4.56-2.41c4.84,0,5.24,3.53,5.24,5.63v9.32h-4.76v-7.03
		c0-1.99,0.22-4-2.38-4c-1.79,0-2.58,1.51-2.58,3.11v7.92h-4.76V49.84z"/>
	<path class="st0" d="M365.98,55.16c-0.03-1.23-1.12-2.1-2.32-2.1c-2.66,0-3.08,2.27-3.08,4.28c0,1.88,0.81,3.81,2.83,3.81
		c1.65,0,2.49-0.95,2.72-2.49h4.62c-0.42,3.89-3.44,6.13-7.31,6.13c-4.37,0-7.62-3-7.62-7.45c0-4.62,2.94-7.92,7.62-7.92
		c3.61,0,6.83,1.9,7.17,5.74H365.98z"/>
	<path class="st0" d="M376.81,58.26c0.08,1.99,1.23,3.3,3.25,3.3c1.15,0,2.27-0.53,2.72-1.6h4.45c-0.87,3.36-3.98,4.82-7.22,4.82
		c-4.73,0-7.95-2.86-7.95-7.73c0-4.45,3.56-7.64,7.84-7.64c5.21,0,7.81,3.92,7.59,8.85H376.81z M382.72,55.6
		c-0.08-1.62-1.23-2.97-2.83-2.97c-1.68,0-2.8,1.2-3.08,2.97H382.72z"/>
	<path class="st0" d="M389.58,59.16h5.21v5.21h-5.21V59.16z"/>
</g>
</svg>
