<?xml version="1.0" encoding="utf-8"?>
<!-- Generator: Adobe Illustrator 24.2.3, SVG Export Plug-In . SVG Version: 6.00 Build 0)  -->
<svg version="1.1" id="Layer_1" xmlns="http://www.w3.org/2000/svg" xmlns:xlink="http://www.w3.org/1999/xlink" x="0px" y="0px"
	 viewBox="0 0 728 90" style="enable-background:new 0 0 728 90;" xml:space="preserve">
<style type="text/css">
	.st0{fill:#FF7F30;}
	.st1{fill:#FFFFFF;}
</style>
<rect x="593.73" y="37.5" class="st0" width="122.36" height="29.96"/>
<g>
	<path class="st1" d="M611.84,47.06l4.55,12.16h-2.78l-0.92-2.71h-4.55l-0.95,2.71h-2.69l4.6-12.16H611.84z M612,54.52l-1.53-4.46
		h-0.03l-1.58,4.46H612z"/>
	<path class="st1" d="M622.93,47.06c0.76,0,1.41,0.11,1.94,0.33c0.53,0.22,0.97,0.51,1.3,0.88c0.33,0.36,0.58,0.78,0.73,1.24
		c0.15,0.47,0.23,0.95,0.23,1.45c0,0.49-0.08,0.97-0.23,1.44s-0.4,0.89-0.73,1.25c-0.33,0.36-0.77,0.66-1.3,0.88
		c-0.53,0.22-1.18,0.33-1.94,0.33h-2.81v4.36h-2.67V47.06H622.93z M622.19,52.79c0.31,0,0.6-0.02,0.88-0.07
		c0.28-0.04,0.53-0.13,0.75-0.26c0.22-0.13,0.39-0.31,0.52-0.55s0.2-0.55,0.2-0.94s-0.07-0.7-0.2-0.94s-0.3-0.42-0.52-0.55
		c-0.22-0.13-0.46-0.22-0.75-0.26c-0.28-0.04-0.58-0.07-0.88-0.07h-2.08v3.64H622.19z"/>
	<path class="st1" d="M634.28,47.06c0.76,0,1.41,0.11,1.94,0.33c0.53,0.22,0.97,0.51,1.3,0.88c0.33,0.36,0.58,0.78,0.73,1.24
		c0.15,0.47,0.23,0.95,0.23,1.45c0,0.49-0.08,0.97-0.23,1.44s-0.4,0.89-0.73,1.25c-0.33,0.36-0.77,0.66-1.3,0.88
		c-0.53,0.22-1.18,0.33-1.94,0.33h-2.81v4.36h-2.67V47.06H634.28z M633.55,52.79c0.31,0,0.6-0.02,0.88-0.07
		c0.28-0.04,0.53-0.13,0.75-0.26c0.22-0.13,0.39-0.31,0.52-0.55s0.2-0.55,0.2-0.94s-0.07-0.7-0.2-0.94s-0.3-0.42-0.52-0.55
		c-0.22-0.13-0.46-0.22-0.75-0.26c-0.28-0.04-0.58-0.07-0.88-0.07h-2.08v3.64H633.55z"/>
	<path class="st1" d="M642.83,47.06v9.91h5.92v2.25h-8.6V47.06H642.83z"/>
	<path class="st1" d="M647.07,47.06h3l2.84,4.8l2.83-4.8h2.98l-4.51,7.49v4.67h-2.67v-4.73L647.07,47.06z"/>
	<path class="st1" d="M667.12,47.06l5.07,8.16h0.03v-8.16h2.5v12.16h-2.67L667,51.08h-0.03v8.14h-2.5V47.06H667.12z"/>
	<path class="st1" d="M676.96,50.67c0.27-0.78,0.66-1.46,1.17-2.04c0.51-0.58,1.14-1.03,1.88-1.36s1.58-0.49,2.51-0.49
		c0.94,0,1.78,0.17,2.52,0.49c0.74,0.33,1.36,0.78,1.87,1.36c0.51,0.58,0.9,1.26,1.17,2.04s0.41,1.62,0.41,2.53
		c0,0.88-0.14,1.71-0.41,2.48c-0.27,0.77-0.66,1.43-1.17,2s-1.13,1.01-1.87,1.34c-0.74,0.32-1.58,0.49-2.52,0.49
		c-0.93,0-1.77-0.16-2.51-0.49s-1.37-0.77-1.88-1.34s-0.9-1.23-1.17-2c-0.27-0.77-0.41-1.59-0.41-2.48
		C676.55,52.29,676.69,51.44,676.96,50.67z M679.41,54.68c0.12,0.48,0.31,0.92,0.57,1.3c0.26,0.39,0.6,0.7,1.02,0.93
		c0.42,0.23,0.93,0.35,1.53,0.35c0.6,0,1.11-0.12,1.53-0.35c0.42-0.23,0.76-0.54,1.02-0.93c0.26-0.39,0.45-0.82,0.57-1.3
		s0.18-0.98,0.18-1.49c0-0.53-0.06-1.05-0.18-1.55c-0.12-0.5-0.31-0.94-0.57-1.34c-0.26-0.39-0.6-0.7-1.02-0.94
		c-0.42-0.23-0.93-0.35-1.53-0.35c-0.6,0-1.11,0.12-1.53,0.35c-0.42,0.23-0.76,0.54-1.02,0.94c-0.26,0.39-0.45,0.84-0.57,1.34
		c-0.12,0.5-0.18,1.02-0.18,1.55C679.23,53.71,679.29,54.2,679.41,54.68z"/>
	<path class="st1" d="M699.25,59.22l-2.06-8.27h-0.03l-2.03,8.27h-2.71l-3.22-12.16h2.67l1.92,8.27h0.03l2.11-8.27h2.5l2.08,8.38
		h0.03l1.99-8.38h2.62l-3.27,12.16H699.25z"/>
</g>
</svg>
