<?xml version="1.0" encoding="utf-8"?>
<!-- Generator: Adobe Illustrator 24.2.3, SVG Export Plug-In . SVG Version: 6.00 Build 0)  -->
<svg version="1.1" id="Layer_1" xmlns="http://www.w3.org/2000/svg" xmlns:xlink="http://www.w3.org/1999/xlink" x="0px" y="0px"
	 viewBox="0 0 728 90" style="enable-background:new 0 0 728 90;" xml:space="preserve">
<style type="text/css">
	.st0{clip-path:url(#SVGID_2_);}
	.st1{clip-path:url(#SVGID_2_);fill:#A4CE4E;}
	.st2{clip-path:url(#SVGID_2_);fill:#0090DA;}
	.st3{clip-path:url(#SVGID_2_);fill:#0061A0;}
</style>
<g>
	<defs>
		<rect id="SVGID_1_" x="637.2" y="14.12" width="87.12" height="20.75"/>
	</defs>
	<clipPath id="SVGID_2_">
		<use xlink:href="#SVGID_1_"  style="overflow:visible;"/>
	</clipPath>
	<path class="st0" d="M700.6,20.23c-0.64,0-1.17-0.53-1.17-1.17s0.53-1.17,1.17-1.17c0.66,0,1.17,0.51,1.17,1.17
		C701.77,19.7,701.24,20.23,700.6,20.23 M667.55,27.77h2.08l0.25-6.25l2.11,3.71h1.13l1.99-3.75l0.27,6.29h2.18l-0.45-9.62h-2.08
		l-2.45,4.52l-2.51-4.52H668L667.55,27.77z M684.27,25.72c-0.15,0.11-0.4,0.25-0.73,0.41c-0.34,0.16-0.78,0.24-1.31,0.24
		c-0.55,0-0.98-0.14-1.29-0.41c-0.31-0.27-0.47-0.59-0.48-0.96h4.82v-0.35c0-0.57-0.07-1.09-0.22-1.57
		c-0.15-0.48-0.36-0.88-0.64-1.23c-0.28-0.34-0.63-0.61-1.05-0.8c-0.41-0.19-0.89-0.29-1.44-0.29c-0.55,0-1.04,0.1-1.47,0.3
		s-0.8,0.46-1.1,0.79c-0.3,0.33-0.53,0.71-0.68,1.15c-0.16,0.44-0.24,0.89-0.24,1.36c0,0.54,0.08,1.03,0.25,1.48
		c0.17,0.45,0.41,0.83,0.74,1.15c0.32,0.32,0.71,0.57,1.18,0.74c0.46,0.18,0.98,0.27,1.56,0.27c0.43,0,0.82-0.04,1.15-0.12
		c0.34-0.08,0.63-0.17,0.87-0.28c0.25-0.11,0.44-0.21,0.6-0.32c0.15-0.11,0.27-0.19,0.35-0.24L684.27,25.72z M680.45,23.67
		c0-0.14,0.03-0.29,0.09-0.44c0.06-0.15,0.15-0.29,0.27-0.41c0.12-0.12,0.27-0.23,0.45-0.31c0.18-0.08,0.39-0.12,0.64-0.12
		c0.24,0,0.45,0.04,0.62,0.12c0.17,0.08,0.32,0.19,0.43,0.31c0.12,0.12,0.2,0.26,0.26,0.41s0.09,0.3,0.09,0.44H680.45z
		 M692.32,27.77h6.33v-1.78h-4.15v-7.84h-2.18V27.77z M699.56,27.77h2.08V21h-1.04h-1.04V27.77z M708.69,18.59
		c-0.31-0.26-0.65-0.44-1.02-0.55c-0.38-0.11-0.75-0.16-1.11-0.16c-0.35,0-0.69,0.06-1.02,0.17c-0.33,0.11-0.63,0.28-0.89,0.5
		s-0.47,0.51-0.63,0.86c-0.16,0.35-0.24,0.76-0.24,1.24V21h-1.1v1.63h1.1v5.14h2.06v-5.14h1.6V21h-1.6v-0.38
		c0-0.34,0.09-0.6,0.26-0.78c0.17-0.18,0.4-0.27,0.69-0.27c0.18,0,0.36,0.03,0.53,0.09c0.17,0.06,0.33,0.14,0.48,0.24L708.69,18.59z
		 M690.7,25.96c-0.14,0.1-0.28,0.18-0.43,0.25c-0.15,0.07-0.34,0.11-0.55,0.11c-0.28,0-0.48-0.09-0.61-0.27
		c-0.13-0.18-0.2-0.43-0.2-0.76v-2.67h1.75V21h-1.75v-1.81h-2.08V21h-1.07v1.63h1.07v2.55c0,0.42,0.04,0.81,0.13,1.15
		c0.09,0.35,0.23,0.64,0.43,0.89c0.2,0.24,0.47,0.44,0.79,0.58c0.33,0.14,0.73,0.21,1.21,0.21c0.77,0,1.48-0.26,2.14-0.78
		L690.7,25.96z M713.7,25.72c-0.15,0.11-0.4,0.25-0.74,0.41c-0.34,0.16-0.77,0.24-1.31,0.24c-0.55,0-0.98-0.14-1.29-0.41
		c-0.31-0.27-0.47-0.59-0.48-0.96h4.82v-0.35c0-0.57-0.07-1.09-0.22-1.57c-0.14-0.48-0.36-0.88-0.64-1.23
		c-0.28-0.34-0.63-0.61-1.05-0.8c-0.41-0.19-0.9-0.29-1.44-0.29c-0.55,0-1.04,0.1-1.47,0.3c-0.43,0.2-0.8,0.46-1.1,0.79
		c-0.3,0.33-0.53,0.71-0.68,1.15c-0.16,0.44-0.24,0.89-0.24,1.36c0,0.54,0.08,1.03,0.25,1.48c0.17,0.45,0.41,0.83,0.74,1.15
		c0.32,0.32,0.72,0.57,1.18,0.74c0.46,0.18,0.98,0.27,1.56,0.27c0.43,0,0.82-0.04,1.15-0.12c0.34-0.08,0.63-0.17,0.87-0.28
		s0.45-0.21,0.6-0.32c0.15-0.11,0.27-0.19,0.35-0.24L713.7,25.72z M709.88,23.67c0-0.14,0.03-0.29,0.09-0.44
		c0.06-0.15,0.15-0.29,0.27-0.41s0.27-0.23,0.45-0.31c0.18-0.08,0.4-0.12,0.64-0.12c0.24,0,0.45,0.04,0.62,0.12
		c0.17,0.08,0.32,0.19,0.43,0.31c0.11,0.12,0.2,0.26,0.26,0.41c0.06,0.15,0.09,0.3,0.09,0.44H709.88z"/>
	<path class="st1" d="M654.74,20.26c1.63,2.16,2.6,4.86,2.6,7.78c0,0.71-0.06,1.4-0.17,2.07h4.73c0.41,0,0.74-0.33,0.74-0.75V16.29
		c0-0.49-0.46-0.85-0.93-0.72C658.9,16.31,656.45,17.99,654.74,20.26"/>
	<path class="st2" d="M652.3,30.12c-0.11-0.67-0.17-1.37-0.17-2.07c0-2.92,0.97-5.62,2.6-7.78c-1.71-2.27-4.16-3.95-6.99-4.7
		c-0.47-0.12-0.93,0.24-0.93,0.72v13.08c0,0.41,0.33,0.75,0.74,0.75H652.3z"/>
	<path class="st3" d="M654.74,20.26c-1.63,2.16-2.6,4.86-2.6,7.78c0,0.71,0.06,1.4,0.17,2.07h4.88c0.11-0.67,0.17-1.37,0.17-2.07
		C657.34,25.12,656.37,22.43,654.74,20.26"/>
</g>
</svg>
