<svg id="Layer_1" xmlns="http://www.w3.org/2000/svg" viewBox="0 0 300 250"><style>.st0{fill:#fff}</style><path class="st0" d="M132.32 169.15h32.88v12.76h-32.88z"/><path d="M172.52 156.31h-46.98a5.36 5.36 0 0 0-5.36 5.36v66.41c0 2.96 2.4 5.36 5.36 5.36h46.98c2.96 0 5.36-2.4 5.36-5.36v-66.41c.01-2.95-2.4-5.36-5.36-5.36m.24 71.77c0 .13-.12.24-.24.24h-46.98c-.13 0-.24-.11-.24-.24v-66.41c0-.13.11-.24.24-.24h46.98c.12 0 .24.12.24.24v66.41z"/><path d="M161.3 165.16h-24.55c-3.82 0-6.93 3.11-6.93 6.94l.01 6.06c0 3.82 3.11 6.93 6.93 6.93h24.55c3.75 0 6.82-3 6.93-6.73v-.25l-.01-6.01c0-3.83-3.1-6.94-6.93-6.94m.01 14.8h-24.55c-1 0-1.81-.81-1.81-1.82l-.01-6.06c0-.98.83-1.81 1.81-1.81h24.55c.98 0 1.81.83 1.81 1.82l.01 6.09a1.81 1.81 0 0 1-1.81 1.78M135.3 190.13a3.91 3.91 0 1 0 0 7.82 3.91 3.91 0 1 0 0-7.82M149.44 190.13c-2.16 0-3.92 1.75-3.92 3.91s1.76 3.91 3.92 3.91a3.91 3.91 0 1 0 0-7.82M162.57 190.13c-2.16 0-3.92 1.75-3.92 3.91s1.76 3.91 3.92 3.91a3.91 3.91 0 1 0 0-7.82M135.3 202.75a3.91 3.91 0 0 0-3.91 3.91c0 2.17 1.75 3.91 3.91 3.91a3.91 3.91 0 1 0 0-7.82M149.44 202.75c-2.16 0-3.92 1.75-3.92 3.91 0 2.17 1.76 3.91 3.92 3.91a3.91 3.91 0 1 0 0-7.82M162.57 202.75c-2.16 0-3.92 1.75-3.92 3.91 0 2.17 1.76 3.91 3.92 3.91a3.91 3.91 0 1 0 0-7.82M135.3 215.38a3.91 3.91 0 1 0 0 7.82 3.91 3.91 0 0 0 3.91-3.91c0-2.17-1.75-3.91-3.91-3.91M149.44 215.38c-2.16 0-3.92 1.75-3.92 3.91s1.76 3.91 3.92 3.91a3.91 3.91 0 0 0 3.91-3.91c0-2.17-1.75-3.91-3.91-3.91M162.57 215.38c-2.16 0-3.92 1.75-3.92 3.91s1.76 3.91 3.92 3.91a3.91 3.91 0 0 0 3.91-3.91c0-2.17-1.75-3.91-3.91-3.91"/></svg>