<svg id="Layer_1" xmlns="http://www.w3.org/2000/svg" viewBox="0 0 300 250"><style>.st0{fill:#373535}</style><path class="st0" d="M20.42 239.68l1.92-5.01h.71l2.05 5.01h-.76l-.58-1.52h-2.1l-.55 1.52h-.69zm1.44-2.06h1.7l-.52-1.39c-.16-.42-.28-.77-.36-1.04-.06.32-.15.64-.27.96l-.55 1.47zM25.63 239.68v-5.01h1.73c.39 0 .69.02.89.07.29.07.53.19.73.36.26.22.46.51.59.86.13.35.2.74.2 1.19 0 .38-.04.72-.13 1.01-.09.29-.2.54-.34.73s-.29.34-.46.45c-.17.11-.36.19-.6.25-.23.06-.5.09-.81.09h-1.8zm.67-.59h1.07c.33 0 .59-.03.78-.09.19-.06.34-.15.45-.26.16-.16.28-.37.37-.63.09-.27.13-.59.13-.97 0-.52-.09-.93-.26-1.21-.17-.28-.38-.47-.63-.57-.18-.07-.46-.1-.86-.1H26.3v3.83zM30.72 239.68v-5.01h3.38v.59h-2.72v1.55h2.35v.59h-2.35v2.28h-.66zM34.78 239.76l.3-1.46h-.58v-.51h.68l.25-1.24h-.93v-.51h1.04l.3-1.47h.51l-.3 1.47h1.08l.3-1.47h.52l-.3 1.47h.59v.51h-.69l-.26 1.24h.95v.51h-1.05l-.3 1.46h-.51l.29-1.46H35.6l-.3 1.46h-.52zm.91-1.96h1.07l.26-1.24h-1.08l-.25 1.24zM40.29 239.68l1.94-2.61-1.71-2.4h.79l.91 1.29c.19.27.32.47.4.62.11-.18.24-.37.4-.57l1.01-1.33h.72l-1.76 2.36 1.9 2.65h-.82l-1.26-1.79c-.07-.1-.14-.21-.22-.34-.11.18-.19.31-.24.38l-1.26 1.75h-.8zM44.96 239.68l1.94-2.61-1.71-2.4h.79l.91 1.29c.19.27.32.47.4.62.11-.18.24-.37.4-.57l1.01-1.33h.72l-1.76 2.36 1.9 2.65h-.82l-1.26-1.79c-.07-.1-.14-.21-.22-.34-.11.18-.19.31-.24.38l-1.26 1.75h-.8zM49.63 239.68l1.94-2.61-1.71-2.4h.79l.91 1.29c.19.27.32.47.4.62.11-.18.24-.37.4-.57l1.01-1.33h.72l-1.76 2.36 1.9 2.65h-.82l-1.26-1.79c-.07-.1-.14-.21-.22-.34-.11.18-.19.31-.24.38l-1.26 1.75h-.8zM54.3 239.68l1.94-2.61-1.71-2.4h.79l.91 1.29c.19.27.32.47.4.62.11-.18.24-.37.4-.57l1.01-1.33h.72L57 237.03l1.9 2.65h-.82l-1.26-1.79c-.07-.1-.14-.21-.22-.34-.11.18-.19.31-.24.38l-1.26 1.75h-.8zM58.97 239.68l1.94-2.61-1.71-2.4h.79l.91 1.29c.19.27.32.47.4.62.11-.18.24-.37.4-.57l1.01-1.33h.72l-1.76 2.36 1.9 2.65h-.82l-1.26-1.79c-.07-.1-.14-.21-.22-.34-.11.18-.19.31-.24.38l-1.26 1.75h-.8zM63.64 239.68l1.94-2.61-1.71-2.4h.79l.91 1.29c.19.27.32.47.4.62.11-.18.24-.37.4-.57l1.01-1.33h.72l-1.76 2.36 1.9 2.65h-.82l-1.26-1.79c-.07-.1-.14-.21-.22-.34-.11.18-.19.31-.24.38l-1.26 1.75h-.8zM68.31 239.68l1.94-2.61-1.71-2.4h.79l.91 1.29c.19.27.32.47.4.62.11-.18.24-.37.4-.57l1.01-1.33h.72L71 237.03l1.9 2.65h-.82l-1.26-1.79c-.07-.1-.14-.21-.22-.34-.11.18-.19.31-.24.38l-1.26 1.75h-.79zM72.98 239.68l1.94-2.61-1.71-2.4H74l.91 1.29c.19.27.32.47.4.62.11-.18.24-.37.4-.57l1.01-1.33h.72l-1.76 2.36 1.9 2.65h-.82l-1.26-1.79c-.07-.1-.14-.21-.22-.34-.11.18-.19.31-.24.38l-1.26 1.75h-.8z"/></svg>