<svg id="Layer_1" xmlns="http://www.w3.org/2000/svg" viewBox="0 0 300 250"><style>.st0{fill:#0d4c87}</style><path class="st0" d="M66.5 64.1v12.77h-3.87V64.1h-4.57v-3.17h13.02v3.17H66.5zM79.57 76.88v-6.95c0-.82-.58-1.55-1.7-1.55-1.1 0-1.77.7-1.77 1.6v6.9h-3.67v-17.8h3.62v7.52h.02c.58-.88 1.62-1.4 3.2-1.4 2.5 0 3.97 1.4 3.97 3.8v7.87h-3.67zM87.47 64c-.65 0-1.97-1.32-1.97-1.97s1.32-1.95 1.97-1.95 1.97 1.3 1.97 1.95S88.12 64 87.47 64zm-1.85 12.88V65.55h3.7v11.32h-3.7zM95.35 77.12c-1.55 0-2.67-.33-3.6-.8l-.32-3.25c1 .7 2.3 1.22 3.55 1.22.67 0 1.1-.35 1.1-.77 0-.48-.37-.67-1.02-.88-2.17-.62-3.47-1.72-3.47-3.7 0-2.22 1.8-3.65 4.25-3.65 1.4 0 2.77.38 3.35.67l-.62 2.7c-.55-.3-1.45-.62-2.35-.62-.6 0-1 .27-1 .72 0 .42.3.65 1 .82 2.55.67 3.6 1.95 3.6 3.85-.02 1.95-1.42 3.69-4.47 3.69zM109.17 64c-.65 0-1.97-1.32-1.97-1.97s1.32-1.95 1.97-1.95 1.97 1.3 1.97 1.95-1.32 1.97-1.97 1.97zm-1.85 12.88V65.55h3.7v11.32h-3.7zM117.05 77.12c-1.55 0-2.67-.33-3.6-.8l-.32-3.25c1 .7 2.3 1.22 3.55 1.22.67 0 1.1-.35 1.1-.77 0-.48-.37-.67-1.02-.88-2.17-.62-3.47-1.72-3.47-3.7 0-2.22 1.8-3.65 4.25-3.65 1.4 0 2.77.38 3.35.67l-.62 2.7c-.55-.3-1.45-.62-2.35-.62-.6 0-1 .27-1 .72 0 .42.3.65 1 .82 2.55.67 3.6 1.95 3.6 3.85-.02 1.95-1.42 3.69-4.47 3.69zM134.65 77.23c-3.42 0-6.17-2.42-6.17-6.02s2.75-6.02 6.17-6.02c3.4 0 6.17 2.42 6.17 6.02s-2.77 6.02-6.17 6.02zm0-8.85c-1.37 0-2.55 1.2-2.55 2.87 0 1.67 1.17 2.87 2.55 2.87 1.35 0 2.55-1.2 2.55-2.87 0-1.67-1.2-2.87-2.55-2.87zM149.77 76.88v-6.95c0-.82-.55-1.55-1.67-1.55-1.1 0-1.8.7-1.8 1.6v6.9h-3.67V65.55H146v1.52h.03c.45-1.2 1.62-1.87 3.45-1.87 2.47 0 3.97 1.4 3.97 3.8v7.87h-3.68zM166.12 70.58l-1.62 1.65h-5.55c.17.92 1.42 1.97 3.35 1.97 1.17 0 2.37-.35 3.12-.85l-.35 3.15c-.85.45-2.15.75-3.6.75-3.45 0-6.22-2.4-6.22-6.1 0-3.65 2.65-5.97 5.9-5.97 3.15 0 5.07 2.17 5.07 4.52 0 .28-.05.65-.1.88zm-4.97-2.65c-1.08 0-1.97.82-2.2 1.85h3.82c0-.08.03-.15.03-.25 0-.78-.68-1.6-1.65-1.6zM186.09 76.98h-2.52l-1.52-4.5c-.23-.7-.45-1.5-.67-2.35h-.05c-.18.85-.4 1.67-.62 2.32l-1.52 4.52h-2.4l-3.95-11.42h3.35l1.4 4.3c.2.65.42 1.45.55 2.17h.05c.12-.7.32-1.52.55-2.17l1.42-4.3h2.77l1.42 4.27c.23.7.38 1.47.53 2.2h.05c.15-.73.35-1.52.58-2.2l1.42-4.27h3.12l-3.96 11.43zM199.3 77.38c-.67-.15-1.45-.67-1.75-1.5-.5.92-1.57 1.38-2.95 1.38-2 0-3.77-1.4-3.77-3.75 0-2.07 1.62-3.47 3.87-3.7l2.25-.23v-.38c0-.67-.55-1.12-1.77-1.12-1.1 0-2.32.35-3.15.88l-.65-2.77c.92-.6 2.47-1 3.97-1 3 0 5.12 1.38 5.12 4.1v3.7c0 1.32.5 2.02 1.37 2.35l-2.54 2.04zm-2.35-5.45l-1.38.12c-.95.07-1.37.75-1.37 1.42 0 .6.45 1.1 1.15 1.1.88 0 1.6-.67 1.6-1.65v-.99z"/><path class="st0" d="M209.45 75.75c-1.72 4.55-3.52 6.2-5.65 7.02l-2.25-2.25c1.83-.7 3.22-2.02 4.15-4.42l-4.07-10.55h3.55l1.65 4.4c.25.65.5 1.42.67 2.22h.05c.22-.77.47-1.57.72-2.22l1.65-4.4h3.37l-3.84 10.2zM227.9 68.55h-2.95v4.2c0 .97.52 1.37 1.5 1.37.42 0 .67-.02.95-.15l-.33 2.77c-.35.17-.97.3-1.7.3-2.55 0-4.07-1.35-4.07-3.6v-4.9h-1.9v-3h1.9v-2.42l3.65-1.32v3.75h3.65l-.7 3zM235.3 77.23c-3.42 0-6.17-2.42-6.17-6.02s2.75-6.02 6.17-6.02c3.4 0 6.17 2.42 6.17 6.02s-2.78 6.02-6.17 6.02zm0-8.85c-1.38 0-2.55 1.2-2.55 2.87 0 1.67 1.17 2.87 2.55 2.87 1.35 0 2.55-1.2 2.55-2.87-.01-1.67-1.2-2.87-2.55-2.87zM49.3 104.32c-2.32-.1-3.87-1.3-3.87-4.02V86.08h3.62v13.77c0 .92.52 1.42 1.52 1.5l-1.27 2.97zM57.57 104.23c-3.42 0-6.17-2.42-6.17-6.02s2.75-6.02 6.17-6.02c3.4 0 6.17 2.42 6.17 6.02s-2.77 6.02-6.17 6.02zm0-8.85c-1.37 0-2.55 1.2-2.55 2.87 0 1.67 1.17 2.87 2.55 2.87 1.35 0 2.55-1.2 2.55-2.87 0-1.67-1.2-2.87-2.55-2.87zM71.2 104.23c-3.42 0-6.17-2.42-6.17-6.02s2.75-6.02 6.17-6.02c3.4 0 6.17 2.42 6.17 6.02s-2.77 6.02-6.17 6.02zm0-8.85c-1.37 0-2.55 1.2-2.55 2.87 0 1.67 1.17 2.87 2.55 2.87 1.35 0 2.55-1.2 2.55-2.87 0-1.67-1.2-2.87-2.55-2.87zM86.25 103.88L82.9 99.3h-.02v4.57h-3.62v-17.8h3.62v11.07h.02l3.4-4.6h4l-3.97 5.5 4.2 5.82h-4.28zM99.27 91c-.65 0-1.97-1.32-1.97-1.97s1.32-1.95 1.97-1.95 1.97 1.3 1.97 1.95S99.92 91 99.27 91zm-1.85 12.88V92.55h3.7v11.32h-3.7zM110.65 103.88v-6.95c0-.82-.55-1.55-1.67-1.55-1.1 0-1.8.7-1.8 1.6v6.9h-3.67V92.55h3.37v1.52h.02c.45-1.2 1.62-1.87 3.45-1.87 2.47 0 3.97 1.4 3.97 3.8v7.87h-3.67zM124.07 95.55h-2.95v4.2c0 .97.52 1.37 1.5 1.37.43 0 .67-.02.95-.15l-.33 2.77c-.35.17-.97.3-1.7.3-2.55 0-4.07-1.35-4.07-3.6v-4.9h-1.9v-3h1.9v-2.42l3.65-1.32v3.75h3.65l-.7 3zM131.47 104.23c-3.42 0-6.17-2.42-6.17-6.02s2.75-6.02 6.17-6.02c3.4 0 6.17 2.42 6.17 6.02s-2.77 6.02-6.17 6.02zm0-8.85c-1.37 0-2.55 1.2-2.55 2.87 0 1.67 1.17 2.87 2.55 2.87 1.35 0 2.55-1.2 2.55-2.87 0-1.67-1.2-2.87-2.55-2.87zM152.67 95.55h-2.95v4.2c0 .97.52 1.37 1.5 1.37.42 0 .67-.02.95-.15l-.33 2.77c-.35.17-.97.3-1.7.3-2.55 0-4.07-1.35-4.07-3.6v-4.9h-1.9v-3h1.9v-2.42l3.65-1.32v3.75h3.65l-.7 3zM161.85 103.88v-6.95c0-.82-.57-1.55-1.7-1.55-1.1 0-1.77.7-1.77 1.6v6.9h-3.67v-17.8h3.62v7.52h.02c.58-.88 1.62-1.4 3.2-1.4 2.5 0 3.97 1.4 3.97 3.8v7.87h-3.67zM178.2 97.58l-1.62 1.65h-5.55c.17.92 1.42 1.97 3.35 1.97 1.17 0 2.37-.35 3.12-.85l-.35 3.15c-.85.45-2.15.75-3.6.75-3.45 0-6.22-2.4-6.22-6.1 0-3.65 2.65-5.97 5.9-5.97 3.15 0 5.07 2.17 5.07 4.52 0 .28-.05.65-.1.88zm-4.98-2.65c-1.08 0-1.97.82-2.2 1.85h3.82c0-.08.03-.15.03-.25 0-.78-.67-1.6-1.65-1.6zM193.57 89.35c-.42-.17-1.03-.3-1.47-.3-1.35 0-2.05.8-2.05 2.42v1.07h3.25l-.72 3h-2.52v8.32h-3.55v-8.32h-1.72v-3h1.72v-1.32c0-3.45 2.22-5.15 5.07-5.15 1.05 0 2.1.12 2.67.38l-.68 2.9zM202.02 103.88v-1.55H202c-.45 1.2-1.65 1.87-3.47 1.87-2.47 0-3.97-1.37-3.97-3.77v-7.87h3.67v6.95c0 .82.58 1.55 1.7 1.55 1.1 0 1.77-.73 1.77-1.62v-6.87h3.67v11.32h-3.35zM215.32 95.55h-2.95v4.2c0 .97.52 1.37 1.5 1.37.42 0 .67-.02.95-.15l-.33 2.77c-.35.17-.97.3-1.7.3-2.55 0-4.07-1.35-4.07-3.6v-4.9h-1.9v-3h1.9v-2.42l3.65-1.32v3.75h3.65l-.7 3zM224.7 103.88v-1.55h-.03c-.45 1.2-1.65 1.87-3.47 1.87-2.47 0-3.97-1.37-3.97-3.77v-7.87h3.67v6.95c0 .82.58 1.55 1.7 1.55 1.1 0 1.77-.73 1.77-1.62v-6.87h3.67v11.32h-3.34zM237.42 96.45c-.22-.12-.72-.27-1.1-.27-1.17 0-2.25.62-2.25 2.42v5.27h-3.67V92.55h3.62v2.52h.03c.38-1.77 1.7-2.72 3.22-2.72.35 0 .78.05 1.05.15l-.9 3.95zM249.7 97.58l-1.62 1.65h-5.55c.17.92 1.42 1.97 3.35 1.97 1.17 0 2.37-.35 3.12-.85l-.35 3.15c-.85.45-2.15.75-3.6.75-3.45 0-6.22-2.4-6.22-6.1 0-3.65 2.65-5.97 5.9-5.97 3.15 0 5.07 2.17 5.07 4.52-.01.28-.05.65-.1.88zm-4.98-2.65c-1.08 0-1.97.82-2.2 1.85h3.82c0-.08.03-.15.03-.25 0-.78-.67-1.6-1.65-1.6zM253.07 104.23c-.67 0-2.07-1.4-2.07-2.07 0-.65 1.4-2.05 2.07-2.05s2.07 1.4 2.07 2.05c.01.67-1.39 2.07-2.07 2.07z"/></svg>