<svg id="Layer_1" xmlns="http://www.w3.org/2000/svg" viewBox="0 0 300 250"><style>.st0{fill:#fff}</style><path class="st0" d="M25.54 47.91h2.95v30.96h-2.95V47.91zM37.59 56.5h4.55v2.3h-4.55v15.09c0 1.78.26 2.82 2.21 2.95.78 0 1.56-.04 2.34-.13v2.34c-.82 0-1.6.09-2.43.09-3.64 0-4.9-1.21-4.86-5.03V58.8h-3.9v-2.3h3.9v-6.72h2.73v6.72zM50.43 47.91v4.64c-.04 2.52-1.21 5.16-3.86 5.9v-1.86c1.47-.52 2.12-2.65 2.04-4.08h-1.82v-4.6h3.64zM66.91 63.05c-.13-3.38-2.73-4.9-5.85-4.9-2.43 0-5.29.95-5.29 3.86 0 2.43 2.78 3.3 4.64 3.77l3.64.82c3.12.48 6.38 2.3 6.38 6.2 0 4.86-4.81 6.72-8.98 6.72-5.2 0-8.76-2.43-9.19-7.89h2.73c.22 3.69 2.95 5.59 6.59 5.59 2.56 0 6.11-1.13 6.11-4.25 0-2.6-2.43-3.47-4.9-4.08l-3.51-.78c-3.56-.95-6.24-2.17-6.24-5.98 0-4.55 4.47-6.29 8.41-6.29 4.47 0 8.02 2.34 8.2 7.2h-2.74zM89.97 56.5h4.55v2.3h-4.55v15.09c0 1.78.26 2.82 2.21 2.95.78 0 1.56-.04 2.34-.13v2.34c-.82 0-1.6.09-2.43.09-3.64 0-4.9-1.21-4.86-5.03V58.8h-3.9v-2.3h3.9v-6.72h2.73v6.72zM97.17 47.91h2.73v4.38h-2.73v-4.38zm0 8.59h2.73v22.38h-2.73V56.5zM104.24 56.5h2.52v3.77h.13c1.43-2.69 3.77-4.42 7.33-4.42 2.95 0 5.59 1.43 6.42 4.38 1.34-2.95 4.16-4.38 7.11-4.38 4.9 0 7.42 2.56 7.42 7.85v15.18h-2.73V63.83c0-3.69-1.39-5.68-5.29-5.68-4.73 0-6.07 3.9-6.07 8.07v12.66h-2.73V63.7c.04-3.04-1.21-5.55-4.68-5.55-4.73 0-6.63 3.56-6.68 8.24v12.49h-2.73V56.5zM141.18 68.42c.04 3.99 2.12 8.8 7.37 8.8 3.99 0 6.16-2.34 7.03-5.72h2.73c-1.17 5.07-4.12 8.02-9.76 8.02-7.11 0-10.1-5.46-10.1-11.84 0-5.9 2.99-11.84 10.1-11.84 7.2 0 10.06 6.29 9.84 12.58h-17.21zm14.48-2.29c-.13-4.12-2.69-7.98-7.11-7.98-4.47 0-6.94 3.9-7.37 7.98h14.48zM181.98 58.8h-4.42v20.08h-2.73V58.8h-3.82v-2.3h3.82v-2.04c-.04-3.86 1.04-6.55 5.42-6.55.78 0 1.43.04 2.3.17v2.34c-.74-.13-1.34-.22-1.99-.22-3.04 0-2.95 1.91-2.99 4.34v1.95h4.42v2.31zM203.19 67.69c0 6.42-3.73 11.84-10.58 11.84s-10.58-5.42-10.58-11.84 3.73-11.84 10.58-11.84 10.58 5.42 10.58 11.84zm-18.44 0c0 4.77 2.6 9.54 7.85 9.54s7.85-4.77 7.85-9.54-2.6-9.54-7.85-9.54-7.85 4.77-7.85 9.54zM206.43 56.5h2.52v5.25h.09c1.39-3.6 4.42-5.72 8.46-5.55v2.73c-4.94-.26-8.33 3.38-8.33 8.02v11.93h-2.73V56.5zM231.06 63.35c.26-5.25 3.95-7.5 9.06-7.5 3.95 0 8.24 1.21 8.24 7.2v11.88c0 1.04.52 1.65 1.6 1.65.3 0 .65-.09.87-.17v2.3c-.61.13-1.04.17-1.78.17-2.78 0-3.21-1.56-3.21-3.9h-.09c-1.91 2.91-3.86 4.55-8.15 4.55-4.12 0-7.5-2.04-7.5-6.55 0-6.29 6.11-6.5 12.01-7.2 2.25-.26 3.51-.56 3.51-3.04 0-3.69-2.64-4.6-5.85-4.6-3.38 0-5.9 1.56-5.98 5.2h-2.73zm14.57 3.3h-.09c-.35.65-1.56.87-2.3 1-4.64.82-10.41.78-10.41 5.16 0 2.73 2.43 4.42 4.99 4.42 4.16 0 7.85-2.65 7.81-7.02v-3.56z"/><g><path class="st0" d="M24.85 92.62h2.73v30.96h-2.73V92.62zM33.65 113.13c.04 3.99 2.12 8.8 7.37 8.8 3.99 0 6.16-2.34 7.03-5.72h2.73c-1.17 5.07-4.12 8.02-9.76 8.02-7.11 0-10.1-5.46-10.1-11.84 0-5.9 2.99-11.84 10.1-11.84 7.2 0 10.06 6.29 9.84 12.58H33.65zm14.48-2.3c-.13-4.12-2.69-7.98-7.11-7.98-4.47 0-6.94 3.9-7.37 7.98h14.48zM50.73 101.2h3.04l7.03 19.64h.09l6.94-19.64h2.82l-8.37 22.38h-2.91l-8.64-22.38zM73.41 113.13c.04 3.99 2.12 8.8 7.37 8.8 3.99 0 6.16-2.34 7.03-5.72h2.73c-1.17 5.07-4.12 8.02-9.76 8.02-7.11 0-10.1-5.46-10.1-11.84 0-5.9 2.99-11.84 10.1-11.84 7.2 0 10.06 6.29 9.84 12.58H73.41zm14.48-2.3c-.13-4.12-2.69-7.98-7.11-7.98-4.47 0-6.94 3.9-7.37 7.98h14.48zM93.75 92.62h2.73v30.96h-2.73V92.62zM126.35 107.75c-.13-3.38-2.73-4.9-5.85-4.9-2.43 0-5.29.95-5.29 3.86 0 2.43 2.78 3.3 4.64 3.77l3.64.82c3.12.48 6.38 2.3 6.38 6.2 0 4.86-4.81 6.72-8.98 6.72-5.2 0-8.76-2.43-9.19-7.89h2.73c.22 3.69 2.95 5.59 6.59 5.59 2.56 0 6.11-1.13 6.11-4.25 0-2.6-2.43-3.47-4.9-4.08l-3.51-.78c-3.56-.95-6.24-2.17-6.24-5.98 0-4.55 4.47-6.29 8.41-6.29 4.47 0 8.02 2.34 8.2 7.2h-2.74zM134.5 113.13c.04 3.99 2.12 8.8 7.37 8.8 3.99 0 6.16-2.34 7.03-5.72h2.73c-1.17 5.07-4.12 8.02-9.76 8.02-7.11 0-10.1-5.46-10.1-11.84 0-5.9 2.99-11.84 10.1-11.84 7.2 0 10.06 6.29 9.84 12.58H134.5zm14.49-2.3c-.13-4.12-2.69-7.98-7.11-7.98-4.47 0-6.94 3.9-7.37 7.98h14.48zM158.48 101.2h4.55v2.3h-4.55v15.09c0 1.78.26 2.82 2.21 2.95.78 0 1.56-.04 2.34-.13v2.34c-.82 0-1.6.09-2.43.09-3.64 0-4.9-1.21-4.86-5.03V103.5h-3.9v-2.3h3.9v-6.72h2.73v6.72zM166.63 123.58v-4.6h3.64v4.6h-3.64z"/></g></svg>