<svg id="Layer_1" xmlns="http://www.w3.org/2000/svg" viewBox="0 0 300 250"><style>.st0{fill:#fff}</style><path class="st0" d="M13.22 85.01h2.18v22.85h-2.18V85.01zM29.06 96.18c-.1-2.5-2.02-3.62-4.32-3.62-1.79 0-3.9.7-3.9 2.85 0 1.79 2.05 2.43 3.42 2.78l2.69.61c2.3.35 4.7 1.7 4.7 4.58 0 3.58-3.55 4.96-6.62 4.96-3.84 0-6.46-1.79-6.78-5.82h2.02c.16 2.72 2.18 4.13 4.86 4.13 1.89 0 4.51-.83 4.51-3.14 0-1.92-1.79-2.56-3.62-3.01l-2.59-.58c-2.62-.7-4.61-1.6-4.61-4.42 0-3.36 3.3-4.64 6.21-4.64 3.3 0 5.92 1.73 6.05 5.31h-2.02zM41.03 91.34h2.14l5.44 14.08 5.09-14.08h2.02l-7.17 19.04c-1.15 2.78-1.82 3.58-4.35 3.58-.8-.03-1.22-.03-1.54-.16v-1.7c.48.1.93.16 1.38.16 1.79 0 2.21-1.06 2.88-2.59l.7-1.89-6.59-16.44zM71.46 99.6c0 4.74-2.75 8.74-7.81 8.74s-7.81-4-7.81-8.74 2.75-8.74 7.81-8.74 7.81 4 7.81 8.74zm-13.6 0c0 3.52 1.92 7.04 5.79 7.04s5.79-3.52 5.79-7.04-1.92-7.04-5.79-7.04-5.79 3.52-5.79 7.04zM87.33 107.86h-1.86v-2.98h-.06c-1.06 2.21-3.23 3.46-5.7 3.46-4.16 0-5.79-2.43-5.79-6.27V91.34h2.02v10.75c.1 2.98 1.22 4.54 4.42 4.54 3.46 0 4.96-3.26 4.96-6.62v-8.67h2.02v16.52zM90.63 91.34h1.86v3.87h.06c1.02-2.66 3.26-4.22 6.24-4.1v2.02c-3.65-.19-6.14 2.5-6.14 5.92v8.8h-2.02V91.34zM109.03 85.01h2.02v22.85h-2.02V85.01zM114.37 85.01h2.02v3.23h-2.02v-3.23zm0 6.33h2.02v16.51h-2.02V91.34zM126.18 93.04h-3.26v14.81h-2.02V93.04h-2.82v-1.7h2.82v-1.5c-.03-2.85.77-4.83 4-4.83.58 0 1.06.03 1.7.13v1.73c-.54-.1-.99-.16-1.47-.16-2.24 0-2.18 1.41-2.21 3.2v1.44h3.26v1.69zM128.39 100.14c.03 2.94 1.57 6.5 5.44 6.5 2.94 0 4.54-1.73 5.18-4.22h2.02c-.86 3.74-3.04 5.92-7.2 5.92-5.25 0-7.46-4.03-7.46-8.74 0-4.35 2.21-8.74 7.46-8.74 5.31 0 7.42 4.64 7.26 9.28h-12.7zm10.69-1.69c-.1-3.04-1.98-5.89-5.25-5.89-3.3 0-5.12 2.88-5.44 5.89h10.69zM152.1 85.01h2.02v3.23h-2.02v-3.23zm0 6.33h2.02v16.51h-2.02V91.34zM157.41 91.34h2.02v2.85h.06c.74-1.98 2.94-3.33 5.28-3.33 4.64 0 6.05 2.43 6.05 6.37v10.62h-2.02v-10.3c0-2.85-.93-4.99-4.19-4.99-3.2 0-5.12 2.43-5.18 5.66v9.63h-2.02V91.34zM183.94 96.18c-.1-2.5-2.02-3.62-4.32-3.62-1.79 0-3.9.7-3.9 2.85 0 1.79 2.05 2.43 3.42 2.78l2.69.61c2.3.35 4.7 1.7 4.7 4.58 0 3.58-3.55 4.96-6.62 4.96-3.84 0-6.46-1.79-6.78-5.82h2.02c.16 2.72 2.18 4.13 4.86 4.13 1.89 0 4.51-.83 4.51-3.14 0-1.92-1.79-2.56-3.62-3.01l-2.59-.58c-2.62-.7-4.61-1.6-4.61-4.42 0-3.36 3.29-4.64 6.21-4.64 3.3 0 5.92 1.73 6.05 5.31h-2.02zM202.24 107.86h-1.86v-2.98h-.06c-1.06 2.21-3.23 3.46-5.7 3.46-4.16 0-5.79-2.43-5.79-6.27V91.34h2.02v10.75c.1 2.98 1.22 4.54 4.42 4.54 3.46 0 4.96-3.26 4.96-6.62v-8.67h2.02v16.52zM205.54 91.34h1.86v3.87h.06c1.02-2.66 3.26-4.22 6.24-4.1v2.02c-3.65-.19-6.14 2.5-6.14 5.92v8.8h-2.02V91.34zM214.75 96.4c.19-3.87 2.91-5.54 6.69-5.54 2.91 0 6.08.9 6.08 5.31v8.77c0 .77.38 1.22 1.18 1.22.22 0 .48-.06.64-.13v1.7c-.45.1-.77.13-1.31.13-2.05 0-2.37-1.15-2.37-2.88h-.06c-1.41 2.14-2.85 3.36-6.02 3.36-3.04 0-5.54-1.5-5.54-4.83 0-4.64 4.51-4.8 8.86-5.31 1.66-.19 2.59-.42 2.59-2.24 0-2.72-1.95-3.39-4.32-3.39-2.5 0-4.35 1.15-4.42 3.84h-2zm10.76 2.43h-.06c-.26.48-1.15.64-1.7.74-3.42.61-7.68.58-7.68 3.81 0 2.02 1.79 3.26 3.68 3.26 3.07 0 5.79-1.95 5.76-5.18v-2.63zM231.11 91.34h2.02v2.85h.06c.74-1.98 2.94-3.33 5.28-3.33 4.64 0 6.05 2.43 6.05 6.37v10.62h-2.02v-10.3c0-2.85-.93-4.99-4.19-4.99-3.2 0-5.12 2.43-5.18 5.66v9.63h-2.02V91.34zM259.46 96.53c-.54-2.46-2.05-3.97-4.67-3.97-3.87 0-5.79 3.52-5.79 7.04s1.92 7.04 5.79 7.04c2.5 0 4.54-1.95 4.8-4.7h2.02c-.54 3.97-3.14 6.4-6.82 6.4-5.06 0-7.81-4-7.81-8.74s2.75-8.74 7.81-8.74c3.52 0 6.24 1.89 6.69 5.66h-2.02zM265.19 100.14c.03 2.94 1.57 6.5 5.44 6.5 2.94 0 4.54-1.73 5.18-4.22h2.02c-.86 3.74-3.04 5.92-7.2 5.92-5.25 0-7.46-4.03-7.46-8.74 0-4.35 2.21-8.74 7.46-8.74 5.31 0 7.42 4.64 7.26 9.28h-12.7zm10.68-1.69c-.1-3.04-1.98-5.89-5.25-5.89-3.29 0-5.12 2.88-5.44 5.89h10.69z"/><g><path class="st0" d="M24.33 130.51c-.54-2.46-2.05-3.97-4.67-3.97-3.87 0-5.79 3.52-5.79 7.04s1.92 7.04 5.79 7.04c2.5 0 4.54-1.95 4.8-4.7h2.02c-.54 3.97-3.14 6.4-6.82 6.4-5.06 0-7.81-4-7.81-8.74s2.75-8.73 7.81-8.73c3.52 0 6.24 1.89 6.69 5.66h-2.02zM28.78 118.99h2.02v9.18h.06c.74-1.98 2.94-3.33 5.28-3.33 4.64 0 6.05 2.43 6.05 6.37v10.62h-2.02v-10.3c0-2.85-.93-4.99-4.19-4.99-3.2 0-5.12 2.43-5.18 5.66v9.63h-2.02v-22.84zM45.26 130.38c.19-3.87 2.91-5.54 6.69-5.54 2.91 0 6.08.9 6.08 5.31v8.77c0 .77.38 1.22 1.18 1.22.22 0 .48-.06.64-.13v1.7c-.45.1-.77.13-1.31.13-2.05 0-2.37-1.15-2.37-2.88h-.07c-1.41 2.14-2.85 3.36-6.02 3.36-3.04 0-5.54-1.5-5.54-4.83 0-4.64 4.51-4.8 8.86-5.31 1.66-.19 2.59-.42 2.59-2.24 0-2.72-1.95-3.39-4.32-3.39-2.5 0-4.35 1.15-4.42 3.84h-1.99zm10.75 2.44h-.06c-.26.48-1.15.64-1.7.74-3.42.61-7.68.58-7.68 3.81 0 2.02 1.79 3.26 3.68 3.26 3.07 0 5.79-1.95 5.76-5.18v-2.63zM61.61 125.33h2.02v2.85h.06c.74-1.98 2.94-3.33 5.28-3.33 4.64 0 6.05 2.43 6.05 6.37v10.62H73v-10.3c0-2.85-.93-4.99-4.19-4.99-3.2 0-5.12 2.43-5.18 5.66v9.63h-2.02v-16.51zM92.26 140.5c-.03 4.93-1.92 7.94-7.33 7.94-3.3 0-6.56-1.47-6.85-4.99h2.02c.45 2.43 2.59 3.3 4.83 3.3 3.71 0 5.31-2.21 5.31-6.24v-2.24h-.06c-.93 2.02-2.88 3.39-5.25 3.39-5.28 0-7.46-3.78-7.46-8.48 0-4.54 2.69-8.32 7.46-8.32 2.4 0 4.45 1.5 5.25 3.33h.06v-2.85h2.02v15.16zm-2.01-7.11c0-3.23-1.5-6.85-5.31-6.85-3.84 0-5.44 3.42-5.44 6.85 0 3.33 1.73 6.56 5.44 6.56 3.48 0 5.31-3.2 5.31-6.56zM95.59 118.99h2.02v3.23h-2.02v-3.23zm0 6.34h2.02v16.51h-2.02v-16.51zM100.93 125.33h2.02v2.85h.06c.74-1.98 2.94-3.33 5.28-3.33 4.64 0 6.05 2.43 6.05 6.37v10.62h-2.02v-10.3c0-2.85-.93-4.99-4.19-4.99-3.2 0-5.12 2.43-5.18 5.66v9.63h-2.02v-16.51zM131.59 140.5c-.03 4.93-1.92 7.94-7.33 7.94-3.3 0-6.56-1.47-6.85-4.99h2.02c.45 2.43 2.59 3.3 4.83 3.3 3.71 0 5.31-2.21 5.31-6.24v-2.24h-.06c-.93 2.02-2.88 3.39-5.25 3.39-5.28 0-7.46-3.78-7.46-8.48 0-4.54 2.69-8.32 7.46-8.32 2.4 0 4.45 1.5 5.25 3.33h.06v-2.85h2.02v15.16zm-2.02-7.11c0-3.23-1.5-6.85-5.31-6.85-3.84 0-5.44 3.42-5.44 6.85 0 3.33 1.73 6.56 5.44 6.56 3.49 0 5.31-3.2 5.31-6.56zM138.15 138.45v3.42c-.03 1.86-.9 3.81-2.82 4.35v-1.38c1.06-.38 1.54-1.95 1.47-3.01h-1.34v-3.39h2.69zM154.66 125.33h3.36v1.7h-3.36v11.13c0 1.31.19 2.08 1.63 2.18.58 0 1.15-.03 1.73-.1v1.73c-.61 0-1.18.06-1.79.06-2.69 0-3.62-.9-3.58-3.71v-11.29h-2.88v-1.7h2.88v-4.96h2.02v4.96zM174.31 133.58c0 4.74-2.75 8.74-7.81 8.74s-7.81-4-7.81-8.74 2.75-8.73 7.81-8.73 7.81 4 7.81 8.73zm-13.6 0c0 3.52 1.92 7.04 5.79 7.04s5.79-3.52 5.79-7.04-1.92-7.04-5.79-7.04-5.79 3.52-5.79 7.04zM191.62 133.58c0 4.74-2.75 8.74-7.81 8.74s-7.81-4-7.81-8.74 2.75-8.73 7.81-8.73 7.81 4 7.81 8.73zm-13.6 0c0 3.52 1.92 7.04 5.79 7.04s5.79-3.52 5.79-7.04-1.92-7.04-5.79-7.04-5.79 3.52-5.79 7.04zM192.13 126.03c.03-4.54 2.62-7.52 7.26-7.52 3.55 0 6.5 2.21 6.5 5.92 0 2.37-1.15 3.9-2.78 5.44-2.72 2.72-2.88 2.34-2.98 6.24h-2.02c-.1-3.94.99-4.96 3.68-7.46 1.18-1.12 2.08-2.46 2.08-4.13 0-2.56-2.08-4.32-4.58-4.32-3.49 0-5.22 2.53-5.15 5.82h-2.01zm5.67 12.42h2.69v3.39h-2.69v-3.39z"/></g></svg>