<svg id="Layer_1" xmlns="http://www.w3.org/2000/svg" xmlns:xlink="http://www.w3.org/1999/xlink" viewBox="0 0 300 250"><style>.st0{clip-path:url(#SVGID_2_);fill:url(#SVGID_3_)}.st1{clip-path:url(#SVGID_5_);fill:url(#SVGID_6_)}.st2{clip-path:url(#SVGID_8_);fill:url(#SVGID_9_)}.st3{clip-path:url(#SVGID_11_);fill:#fff}.st4{clip-path:url(#SVGID_13_);fill:url(#SVGID_14_)}.st5,.st6{clip-path:url(#SVGID_16_);fill:#fff}.st6{fill:#e0f2f8}.st7{fill:none}.st8{clip-path:url(#SVGID_18_);fill:#006c9f}.st9{clip-path:url(#SVGID_20_);fill:url(#SVGID_21_)}.st10{clip-path:url(#SVGID_23_);fill:#066e93}.st11{clip-path:url(#SVGID_25_);fill:url(#SVGID_26_)}</style><defs><path id="SVGID_1_" d="M151.86 126.51c-3.01 0-6.07.34-9.12 1.06-21.36 5.02-34.61 26.41-29.59 47.77 5.02 21.36 26.41 34.61 47.77 29.59 21.36-5.02 34.61-26.41 29.59-47.77-4.3-18.3-20.62-30.65-38.65-30.65"/></defs><clipPath id="SVGID_2_"><use xlink:href="#SVGID_1_" overflow="visible"/></clipPath><radialGradient id="SVGID_3_" cx=".851" cy="251.051" r="1" gradientTransform="scale(63.9087 -63.9087) rotate(13.226 1094.333 129.605)" gradientUnits="userSpaceOnUse"><stop offset="0" stop-color="#fff"/><stop offset=".124" stop-color="#fff"/><stop offset=".141" stop-color="#f7fcfe"/><stop offset=".247" stop-color="#ddf1f9"/><stop offset=".343" stop-color="#ceebf6"/><stop offset=".421" stop-color="#c9e9f5"/><stop offset=".77" stop-color="#d6eaf2"/><stop offset="1" stop-color="#b5def3"/></radialGradient><path class="st0" d="M89.54 130.88l101.41-23.83 23.16 98.54-101.41 23.83z"/><defs><path id="SVGID_4_" d="M132.52 198.15s42.25 23.5 57.64-27.42c0 0-13.99 45.61-57.64 27.42"/></defs><clipPath id="SVGID_5_"><use xlink:href="#SVGID_4_" overflow="visible"/></clipPath><linearGradient id="SVGID_6_" gradientUnits="userSpaceOnUse" x1="1.108" y1="250.948" x2="2.108" y2="250.948" gradientTransform="scale(-60.721 60.721) rotate(43.404 310.754 121.564)"><stop offset="0" stop-color="#b5def3"/><stop offset=".122" stop-color="#c1e2f2"/><stop offset=".365" stop-color="#d1e8f2"/><stop offset=".562" stop-color="#d6eaf2"/><stop offset="1" stop-color="#b5def3"/></linearGradient><path class="st1" d="M215.58 197.61l-55.84 52.83-52.64-55.66 55.84-52.82z"/><defs><path id="SVGID_7_" d="M125.8 147.65c0 11.05 11.71 20.01 26.16 20.01s26.16-8.96 26.16-20.01-11.71-20.01-26.16-20.01c-14.44 0-26.16 8.96-26.16 20.01"/></defs><clipPath id="SVGID_8_"><use xlink:href="#SVGID_7_" overflow="visible"/></clipPath><linearGradient id="SVGID_9_" gradientUnits="userSpaceOnUse" x1=".85" y1="250.98" x2="1.85" y2="250.98" gradientTransform="scale(66.3794 -66.3794) rotate(-13.158 -1096.022 119.557)"><stop offset="0" stop-color="#fff"/><stop offset=".01" stop-color="#fefeff"/><stop offset=".396" stop-color="#dff2f9"/><stop offset=".739" stop-color="#ceebf6"/><stop offset="1" stop-color="#c9e9f5"/></linearGradient><path class="st2" d="M128.51 116.04L187 129.71l-11.58 49.54-58.49-13.67z"/><g><defs><path id="SVGID_10_" d="M101.25 125h97.49v106.04h-97.49z"/></defs><clipPath id="SVGID_11_"><use xlink:href="#SVGID_10_" overflow="visible"/></clipPath><path class="st3" d="M155.15 130.93c.45 1.62-3.61 4.16-9.07 5.67-5.46 1.51-10.24 1.41-10.69-.21-.45-1.62 3.61-4.16 9.07-5.67 5.46-1.5 10.24-1.41 10.69.21M133.56 137.72c.55.81-1.22 2.97-3.95 4.81-2.73 1.85-5.39 2.68-5.94 1.87-.55-.81 1.22-2.97 3.95-4.81 2.73-1.85 5.39-2.69 5.94-1.87M122.16 145.36c.83.51.46 2.64-.84 4.76-1.3 2.12-3.03 3.42-3.87 2.9-.83-.51-.46-2.64.84-4.76 1.31-2.12 3.04-3.41 3.87-2.9"/></g><g><defs><path id="SVGID_12_" d="M165.26 135.2s19.59 10.91 20.15 23.78c0 0 1.12-13.15-15.39-26.02l-4.76 2.24z"/></defs><clipPath id="SVGID_13_"><use xlink:href="#SVGID_12_" overflow="visible"/></clipPath><linearGradient id="SVGID_14_" gradientUnits="userSpaceOnUse" x1=".851" y1="250.766" x2="1.851" y2="250.766" gradientTransform="scale(37.43 -37.43) rotate(-61.902 -209.374 120.523)"><stop offset="0" stop-color="#fff"/><stop offset=".281" stop-color="#ecf5f8"/><stop offset=".685" stop-color="#dcedf3"/><stop offset="1" stop-color="#d6eaf2"/></linearGradient><path class="st4" d="M181.81 124.12l15.52 29.09-27.36 14.61-15.52-29.09z"/></g><g><defs><path id="SVGID_15_" d="M101.25 125h97.49v106.04h-97.49z"/></defs><clipPath id="SVGID_16_"><use xlink:href="#SVGID_15_" overflow="visible"/></clipPath><path class="st5" d="M163.3 134.36l5.32-2.52s-6.72-3.08-8.95-2.52c-2.25.56-.29 2.8 3.63 5.04"/><path class="st6" d="M183.66 157.4c.55 1.93.28 3.7-.62 3.96-.89.25-2.06-1.1-2.61-3.04-.55-1.93-.28-3.71.61-3.96.9-.25 2.07 1.11 2.62 3.04"/></g><path class="st7" d="M108.43 125h83.14v97.53h-83.14z"/><g><defs><path id="SVGID_17_" d="M101.25 125h97.49v106.04h-97.49z"/></defs><clipPath id="SVGID_18_"><use xlink:href="#SVGID_17_" overflow="visible"/></clipPath><path class="st8" d="M151.96 222.45c19.42-.15 29.67-10.54 29.67-10.54l-4.81-14.66c-8.31 7.15-23.93 8.1-24.87 8.11-.93-.01-16.32-.96-24.63-8.11L123 213.11s9.41 9.19 28.83 9.34h.13z"/></g><g><defs><path id="SVGID_19_" d="M151.96 204.8c-15.74 0-24.55-7.87-24.55-7.87l-.72 2.72s9.69 7.66 25.27 7.66 25.59-7.82 25.59-7.82l-.88-2.56c-.01 0-8.98 7.87-24.71 7.87"/></defs><clipPath id="SVGID_20_"><use xlink:href="#SVGID_19_" overflow="visible"/></clipPath><linearGradient id="SVGID_21_" gradientUnits="userSpaceOnUse" x1=".803" y1="251.02" x2="1.803" y2="251.02" gradientTransform="matrix(50.8539 0 0 -50.8539 85.837 12967.455)"><stop offset="0" stop-color="#dcdbdb"/><stop offset=".084" stop-color="#b6b5b5"/><stop offset=".157" stop-color="#969696"/><stop offset=".461" stop-color="#fff"/><stop offset="1" stop-color="#777676"/></linearGradient><path class="st9" d="M126.69 196.93h50.85v10.38h-50.85z"/></g><g><defs><path id="SVGID_22_" d="M101.25 125h97.49v106.04h-97.49z"/></defs><clipPath id="SVGID_23_"><use xlink:href="#SVGID_22_" overflow="visible"/></clipPath><path class="st10" d="M126.4 201.06c.02.02 2.04 1.86 6.18 3.68 3.82 1.68 10.28 3.67 19.37 3.67 4.01 0 7.87-.41 11.47-1.21 2.88-.64 5.59-1.54 8.07-2.66 4.22-1.92 6.32-3.86 6.34-3.88l-.09-.1c-.08.08-8.43 7.72-25.78 7.72s-25.38-7.25-25.46-7.32l-.1.1z"/><path class="st10" d="M126.4 201.95c.02.02 2.04 1.86 6.18 3.68 3.82 1.68 10.28 3.67 19.37 3.67 4.01 0 7.87-.41 11.47-1.21 2.88-.64 5.59-1.54 8.07-2.66 4.22-1.92 6.32-3.86 6.34-3.88l-.09-.1c-.08.08-8.43 7.72-25.78 7.72s-25.38-7.24-25.46-7.32l-.1.1z"/><path class="st10" d="M126.08 202.83c.02.02 2.12 1.86 6.34 3.68 3.89 1.68 10.44 3.67 19.53 3.67 4.01 0 7.89-.41 11.51-1.21 2.9-.64 5.65-1.54 8.17-2.66 4.29-1.92 6.47-3.86 6.49-3.88l-.09-.1c-.09.08-8.73 7.72-26.08 7.72-17.35 0-25.7-7.25-25.78-7.32l-.09.1z"/><path class="st10" d="M125.96 203.71c.02.02 2.15 1.86 6.4 3.68 3.92 1.68 10.5 3.67 19.59 3.67 4.01 0 7.9-.41 11.54-1.21a43.8 43.8 0 0 0 8.23-2.66c4.34-1.92 6.56-3.86 6.58-3.88l-.09-.1c-.09.08-8.91 7.72-26.26 7.72s-25.82-7.25-25.9-7.32l-.09.1z"/><path class="st10" d="M125.73 204.59c.02.02 2.21 1.86 6.52 3.68 3.97 1.68 10.62 3.67 19.71 3.67 9.09 0 15.89-2.11 19.98-3.87 4.44-1.92 6.77-3.86 6.79-3.88l-.09-.1c-.09.08-9.34 7.72-26.68 7.72-17.35 0-26.06-7.25-26.14-7.32l-.09.1z"/><path class="st10" d="M125.61 205.47c.02.02 2.24 1.86 6.58 3.68 4 1.68 10.68 3.67 19.77 3.67s15.97-2.11 20.13-3.87c4.52-1.92 6.91-3.86 6.94-3.88l-.09-.11c-.09.08-9.63 7.72-26.99 7.72-17.35 0-26.18-7.25-26.26-7.32l-.08.11z"/><path class="st10" d="M125.19 206.35c.02.02 2.35 1.86 6.79 3.68 4.1 1.68 10.89 3.67 19.98 3.67s16.05-2.11 20.28-3.87c4.59-1.92 7.06-3.86 7.09-3.88l-.08-.11c-.1.08-9.94 7.72-27.29 7.72s-26.59-7.25-26.68-7.32l-.09.11z"/><path class="st10" d="M124.95 207.23c.02.02 2.41 1.86 6.91 3.68 4.15 1.68 11.01 3.67 20.1 3.67 9.09 0 16.08-2.11 20.34-3.87 4.64-1.92 7.13-3.86 7.15-3.88l-.09-.11c-.1.08-10.06 7.72-27.41 7.72s-26.83-7.25-26.93-7.32l-.07.11z"/><path class="st10" d="M124.83 208.11c.02.02 2.44 1.86 6.97 3.68 4.18 1.68 11.07 3.67 20.16 3.67s16.13-2.11 20.43-3.87c4.66-1.91 7.21-3.86 7.24-3.88l-.08-.11c-.1.08-10.24 7.72-27.59 7.72s-26.95-7.25-27.05-7.32l-.08.11z"/><path class="st10" d="M124.71 209c.02.02 2.47 1.86 7.03 3.68 4.21 1.68 11.13 3.67 20.22 3.67 9.09 0 16.21-2.11 20.58-3.87 4.74-1.92 7.36-3.86 7.39-3.88l-.08-.11c-.1.08-10.54 7.72-27.89 7.72s-27.07-7.25-27.17-7.32l-.08.11z"/><path class="st10" d="M124.29 209.88c.02.02 2.57 1.86 7.24 3.68 4.3 1.68 11.34 3.67 20.43 3.67s16.28-2.11 20.7-3.87c4.8-1.91 7.48-3.86 7.51-3.88l-.08-.11c-.11.08-10.78 7.72-28.13 7.72s-27.49-7.25-27.59-7.32l-.08.11z"/><path class="st10" d="M124.17 210.76c.03.02 2.6 1.86 7.3 3.68 4.33 1.68 11.4 3.67 20.49 3.67 4.02 0 7.87-.41 11.47-1.21 2.88-.64 5.59-1.54 8.07-2.66 4.22-1.92 6.32-3.86 6.34-3.88l-.09-.1c-.08.08-8.43 7.72-25.78 7.72s-27.61-7.25-27.71-7.32l-.09.1z"/><path class="st10" d="M124.17 211.6c.03.02 2.6 1.86 7.3 3.68 4.33 1.68 11.4 3.67 20.49 3.67 4.02 0 7.87-.41 11.47-1.21 2.88-.64 5.59-1.54 8.07-2.66 4.22-1.92 6.32-3.86 6.34-3.88l-.09-.1c-.08.08-8.43 7.72-25.78 7.72s-27.61-7.25-27.71-7.32l-.09.1z"/><path class="st10" d="M124.17 212.44c.03.02 2.6 1.86 7.3 3.68 4.33 1.68 11.4 3.67 20.49 3.67 4.02 0 7.87-.41 11.47-1.21 2.88-.64 5.59-1.54 8.07-2.66 4.22-1.92 6.32-3.86 6.34-3.88l-.09-.1c-.08.08-8.43 7.72-25.78 7.72s-27.61-7.25-27.71-7.32l-.09.1z"/></g><g><defs><path id="SVGID_24_" d="M151.96 220.01c-15.74 0-28.31-9.39-28.31-9.39l-.56 2.48s9.61 9.42 28.87 9.42c19.02 0 29.67-10.62 29.67-10.62l-.88-2.56s-13.06 10.67-28.79 10.67"/></defs><clipPath id="SVGID_25_"><use xlink:href="#SVGID_24_" overflow="visible"/></clipPath><linearGradient id="SVGID_26_" gradientUnits="userSpaceOnUse" x1=".829" y1="251.017" x2="1.829" y2="251.017" gradientTransform="matrix(58.5419 0 0 -58.5419 74.545 14910.96)"><stop offset="0" stop-color="#dcdbdb"/><stop offset=".084" stop-color="#b6b5b5"/><stop offset=".157" stop-color="#969696"/><stop offset=".461" stop-color="#fff"/><stop offset="1" stop-color="#777676"/></linearGradient><path class="st11" d="M123.09 209.34h58.54v13.18h-58.54z"/></g></svg>