<svg id="Layer_1" xmlns="http://www.w3.org/2000/svg" viewBox="0 0 300 250"><style>.st0{fill:#3abfef}</style><path class="st0" d="M92.78 206.83s-8.78 0-8.78 8.78v8.62s0 8.77 8.78 8.77h114.33s8.78 0 8.78-8.77v-8.62s0-8.78-8.78-8.78H92.78z"/><path d="M103.86 220.4v-1.38h3.05v3.96h-.79l-.25-.85c-.55.67-1.16.96-2.02.96-2.17 0-3.07-1.8-3.07-3.75 0-2.01.98-3.88 3.22-3.88 1.6 0 2.68.97 2.91 2.54l-1.64.23c-.08-.75-.48-1.37-1.31-1.37-1.22 0-1.4 1.59-1.4 2.51 0 .96.27 2.32 1.48 2.32.76 0 1.27-.53 1.23-1.29h-1.41zM108.72 221.93c-.54-.77-.78-1.73-.78-2.66 0-1.97.98-3.8 3.18-3.8.98 0 1.76.32 2.35 1.13.53.72.8 1.77.8 2.67 0 .84-.23 1.87-.7 2.57-.57.84-1.45 1.25-2.45 1.25s-1.82-.34-2.4-1.16zm1.27-4.21c-.17.44-.24 1.08-.24 1.54 0 .93.14 2.41 1.36 2.41.59 0 .92-.29 1.11-.84.17-.45.23-1.07.23-1.56 0-.54-.05-1.18-.27-1.67-.22-.5-.53-.72-1.07-.72-.59 0-.91.3-1.12.84zM123.56 217.04h-1.86v5.94h-1.73v-5.94h-1.88v-1.47h5.47v1.47zM124.92 221.93c-.54-.77-.78-1.73-.78-2.66 0-1.97.98-3.8 3.18-3.8.98 0 1.76.32 2.35 1.13.53.72.8 1.77.8 2.67 0 .84-.23 1.87-.7 2.57-.57.84-1.45 1.25-2.45 1.25-1.01 0-1.82-.34-2.4-1.16zm1.27-4.21c-.17.44-.24 1.08-.24 1.54 0 .93.14 2.41 1.36 2.41.59 0 .92-.29 1.11-.84.17-.45.23-1.07.23-1.56 0-.54-.05-1.18-.27-1.67-.22-.5-.53-.72-1.07-.72-.59 0-.91.3-1.12.84zM139 218.45c-.01-.82-.29-1.59-1.24-1.59-1.22 0-1.34 1.6-1.34 2.5 0 1.02.12 2.32 1.43 2.32.81 0 1.19-.68 1.29-1.39l1.69.11c-.18 1.7-1.35 2.7-3.06 2.7-2.2 0-3.27-1.79-3.27-3.81 0-2.05 1.1-3.81 3.33-3.81 1.86 0 2.81 1.08 3 2.86l-1.83.11zM148.05 222.98h-1.87l-.45-1.52h-2.4l-.46 1.52h-1.52l2.38-7.41h2.01l2.31 7.41zm-2.72-2.88l-.79-2.6-.79 2.6h1.58zM153.53 221.52v1.47h-4.71v-7.41h1.73v5.94h2.98zM158.44 218.45c-.01-.82-.29-1.59-1.24-1.59-1.22 0-1.34 1.6-1.34 2.5 0 1.02.12 2.32 1.43 2.32.81 0 1.19-.68 1.29-1.39l1.69.11c-.18 1.7-1.35 2.7-3.06 2.7-2.2 0-3.27-1.79-3.27-3.81 0-2.05 1.1-3.81 3.33-3.81 1.86 0 2.81 1.08 3 2.86l-1.83.11zM167.2 220.06c0 .81.01 1.65-.61 2.26-.59.59-1.47.78-2.28.78-.78 0-1.67-.12-2.27-.64-.74-.64-.77-1.49-.77-2.4v-4.48h1.88v4.48c0 .35-.01.84.16 1.15.23.39.69.5 1.11.5.35 0 .85-.11 1.07-.4.24-.33.21-.85.21-1.24v-4.48h1.49v4.47zM173.18 221.52v1.47h-4.71v-7.41h1.73v5.94h2.98zM180.02 222.98h-1.87l-.45-1.52h-2.4l-.46 1.52h-1.52l2.38-7.41h2.01l2.31 7.41zm-2.72-2.88l-.79-2.6-.79 2.6h1.58zM185.06 217.04h-1.86v5.94h-1.73v-5.94h-1.88v-1.47h5.47v1.47zM186.42 221.93c-.54-.77-.78-1.73-.78-2.66 0-1.97.98-3.8 3.18-3.8.98 0 1.76.32 2.36 1.13.53.72.8 1.77.8 2.67 0 .84-.23 1.87-.7 2.57-.57.84-1.45 1.25-2.45 1.25-1.01 0-1.82-.34-2.41-1.16zm1.28-4.21c-.17.44-.24 1.08-.24 1.54 0 .93.14 2.41 1.36 2.41.59 0 .92-.29 1.11-.84.17-.45.23-1.07.23-1.56 0-.54-.05-1.18-.27-1.67-.22-.5-.53-.72-1.07-.72-.59 0-.92.3-1.12.84zM194.85 222.98h-1.73v-7.41h3.12c.66 0 1.33.01 1.9.38.61.4.94 1.12.94 1.85 0 .84-.49 1.62-1.29 1.91l1.37 3.27h-1.92l-1.13-2.93h-1.26v2.93zm0-4.2h.95c.36 0 .75.03 1.06-.15.28-.17.43-.52.43-.84a.93.93 0 0 0-.42-.76c-.29-.18-.79-.14-1.11-.14h-.91v1.89z"/></svg>