<?xml version="1.0" encoding="utf-8"?>
<!-- Generator: Adobe Illustrator 24.2.3, SVG Export Plug-In . SVG Version: 6.00 Build 0)  -->
<svg version="1.1" id="Layer_1" xmlns="http://www.w3.org/2000/svg" xmlns:xlink="http://www.w3.org/1999/xlink" x="0px" y="0px"
	 viewBox="0 0 728 90" style="enable-background:new 0 0 728 90;" xml:space="preserve">
<style type="text/css">
	.st0{fill:#006098;}
</style>
<g>
	<path class="st0" d="M35.06,27.3h6.7V53h-6.7V27.3z"/>
	<path class="st0" d="M50.61,46.84c0,0.94,0.4,1.62,1.01,2.09c0.58,0.43,1.4,0.65,2.27,0.65c1.19,0,2.88-0.5,2.88-1.98
		c0-1.44-1.91-1.73-2.99-1.98c-3.85-0.97-8.67-1.08-8.67-6.12c0-4.5,4.86-5.72,8.53-5.72c4.1,0,8.39,1.19,8.6,6.05h-5.65
		c0-0.79-0.29-1.3-0.79-1.62c-0.5-0.32-1.19-0.47-1.94-0.47c-1.01,0-2.63,0.11-2.63,1.4c0,1.76,4.1,2.09,6.91,2.7
		c3.78,0.76,4.75,3.49,4.75,5.04c0,5-4.75,6.66-8.96,6.66c-4.43,0-8.96-1.48-9.14-6.7H50.61z"/>
	<path class="st0" d="M86.72,54.65c-1.48,4.1-3.67,4.61-7.81,4.61h-2.88v-4.97h2.12c1.4,0,2.45-0.79,2.45-2.09
		c0-1.01-1.19-3.89-1.55-4.9l-4.82-12.99h6.48l3.53,12.17h0.07l3.53-12.17h6.26L86.72,54.65z"/>
	<path class="st0" d="M103.71,33.77c5.8,0,9.86,4.28,9.86,9.9c0,5.61-4.07,9.86-9.86,9.86c-5.79,0-9.83-4.25-9.83-9.86
		C93.88,38.06,97.91,33.77,103.71,33.77z M103.71,48.86c2.84,0,3.74-2.81,3.74-5.18c0-2.38-0.9-5.22-3.74-5.22S100,41.3,100,43.67
		C100,46.05,100.86,48.86,103.71,48.86z"/>
	<path class="st0" d="M134.7,53h-5.94v-2.56h-0.07c-1.15,1.91-3.53,3.1-5.69,3.1c-5.36,0-6.91-3.1-6.91-7.99V34.31h6.12v10.83
		c0,2.48,1.08,3.35,3.02,3.35c1.33,0,3.35-0.86,3.35-4.18V34.31h6.12V53z"/>
	<path class="st0" d="M138.48,34.31h5.94v3.28h0.07c0.9-2.38,2.99-3.64,5.62-3.64c0.47,0,0.97,0.04,1.44,0.14v5.58
		c-0.79-0.22-1.51-0.36-2.34-0.36c-3.02,0-4.61,2.09-4.61,4.43V53h-6.12V34.31z"/>
	<path class="st0" d="M164.48,27.3h6.12V53h-6.12V27.3z"/>
	<path class="st0" d="M180.53,31.97h-6.12V27.3h6.12V31.97z M174.41,34.31h6.12V53h-6.12V34.31z"/>
	<path class="st0" d="M185.57,38.27h-2.95v-3.96h2.95c0-5.36,1.87-7.02,7.09-7.02c0.97,0,1.98,0.07,2.95,0.11v4.32
		c-0.58-0.07-1.12-0.11-1.66-0.11c-1.4,0-2.27,0.18-2.27,1.87v0.83h3.67v3.96h-3.67V53h-6.12V38.27z"/>
	<path class="st0" d="M202.02,45.15c0.11,2.56,1.58,4.25,4.18,4.25c1.48,0,2.92-0.68,3.49-2.05h5.72c-1.12,4.32-5.11,6.19-9.29,6.19
		c-6.08,0-10.22-3.67-10.22-9.94c0-5.72,4.57-9.83,10.08-9.83c6.7,0,10.04,5.04,9.75,11.37H202.02z M209.62,41.73
		c-0.11-2.09-1.58-3.82-3.64-3.82c-2.16,0-3.6,1.55-3.96,3.82H209.62z"/>
	<path class="st0" d="M235.79,31.97h-6.12V27.3h6.12V31.97z M229.67,34.31h6.12V53h-6.12V34.31z"/>
	<path class="st0" d="M239.5,34.31h5.94v2.56h0.07c1.12-1.91,3.64-3.1,5.87-3.1c6.23,0,6.73,4.54,6.73,7.24V53h-6.12v-9.03
		c0-2.56,0.29-5.15-3.06-5.15c-2.3,0-3.31,1.94-3.31,4V53h-6.12V34.31z"/>
	<path class="st0" d="M266.53,46.84c0,0.94,0.4,1.62,1.01,2.09c0.58,0.43,1.4,0.65,2.27,0.65c1.19,0,2.88-0.5,2.88-1.98
		c0-1.44-1.91-1.73-2.99-1.98c-3.85-0.97-8.67-1.08-8.67-6.12c0-4.5,4.86-5.72,8.53-5.72c4.1,0,8.39,1.19,8.6,6.05h-5.65
		c0-0.79-0.29-1.3-0.79-1.62c-0.5-0.32-1.19-0.47-1.94-0.47c-1.01,0-2.63,0.11-2.63,1.4c0,1.76,4.1,2.09,6.91,2.7
		c3.78,0.76,4.75,3.49,4.75,5.04c0,5-4.75,6.66-8.96,6.66c-4.43,0-8.96-1.48-9.14-6.7H266.53z"/>
	<path class="st0" d="M299.9,53h-5.94v-2.56h-0.07c-1.15,1.91-3.53,3.1-5.69,3.1c-5.36,0-6.91-3.1-6.91-7.99V34.31h6.12v10.83
		c0,2.48,1.08,3.35,3.02,3.35c1.33,0,3.35-0.86,3.35-4.18V34.31h6.12V53z"/>
	<path class="st0" d="M303.69,34.31h5.94v3.28h0.07c0.9-2.38,2.99-3.64,5.62-3.64c0.47,0,0.97,0.04,1.44,0.14v5.58
		c-0.79-0.22-1.51-0.36-2.34-0.36c-3.02,0-4.61,2.09-4.61,4.43V53h-6.12V34.31z"/>
	<path class="st0" d="M318.23,40.07c0.11-2.45,1.26-4.03,2.92-5c1.66-0.94,3.82-1.3,5.94-1.3c4.43,0,8.71,0.97,8.71,6.26v8.17
		c0,1.58,0,3.31,0.72,4.79h-6.16c-0.22-0.58-0.29-1.15-0.36-1.76c-1.58,1.66-3.92,2.3-6.16,2.3c-3.56,0-6.37-1.8-6.37-5.65
		c0-6.08,6.62-5.62,10.87-6.48c1.04-0.22,1.62-0.58,1.62-1.73c0-1.4-1.69-1.94-2.95-1.94c-1.69,0-2.77,0.76-3.06,2.34H318.23z
		 M326.15,49.76c2.92,0,3.89-1.66,3.74-5.51c-0.86,0.54-2.45,0.65-3.78,1.01c-1.37,0.32-2.52,0.9-2.52,2.38
		C323.59,49.14,324.78,49.76,326.15,49.76z"/>
	<path class="st0" d="M339.43,34.31h5.94v2.56h0.07c1.12-1.91,3.64-3.1,5.87-3.1c6.23,0,6.73,4.54,6.73,7.24V53h-6.12v-9.03
		c0-2.56,0.29-5.15-3.06-5.15c-2.3,0-3.31,1.94-3.31,4V53h-6.12V34.31z"/>
	<path class="st0" d="M373.77,41.15c-0.04-1.58-1.44-2.7-2.99-2.7c-3.42,0-3.96,2.92-3.96,5.51c0,2.41,1.04,4.9,3.63,4.9
		c2.12,0,3.2-1.22,3.49-3.2h5.94c-0.54,5-4.43,7.88-9.4,7.88c-5.62,0-9.79-3.85-9.79-9.57c0-5.94,3.78-10.19,9.79-10.19
		c4.64,0,8.78,2.45,9.21,7.38H373.77z"/>
	<path class="st0" d="M387.64,45.15c0.11,2.56,1.58,4.25,4.17,4.25c1.48,0,2.92-0.68,3.49-2.05h5.72c-1.12,4.32-5.11,6.19-9.29,6.19
		c-6.08,0-10.22-3.67-10.22-9.94c0-5.72,4.57-9.83,10.08-9.83c6.7,0,10.04,5.04,9.75,11.37H387.64z M395.23,41.73
		c-0.11-2.09-1.58-3.82-3.64-3.82c-2.16,0-3.6,1.55-3.96,3.82H395.23z"/>
	<path class="st0" d="M415.07,27.3h6.12v13.25l5.58-6.23h7.09l-6.84,7.06l7.7,11.63h-7.38l-4.57-7.52l-1.58,1.55V53h-6.12V27.3z"/>
	<path class="st0" d="M440.19,45.15c0.11,2.56,1.58,4.25,4.17,4.25c1.48,0,2.92-0.68,3.49-2.05h5.72c-1.12,4.32-5.11,6.19-9.29,6.19
		c-6.08,0-10.22-3.67-10.22-9.94c0-5.72,4.57-9.83,10.08-9.83c6.7,0,10.04,5.04,9.75,11.37H440.19z M447.79,41.73
		c-0.11-2.09-1.58-3.82-3.64-3.82c-2.16,0-3.6,1.55-3.96,3.82H447.79z"/>
	<path class="st0" d="M461.69,45.15c0.11,2.56,1.58,4.25,4.17,4.25c1.48,0,2.92-0.68,3.49-2.05h5.72c-1.12,4.32-5.11,6.19-9.29,6.19
		c-6.08,0-10.22-3.67-10.22-9.94c0-5.72,4.57-9.83,10.08-9.83c6.7,0,10.04,5.04,9.75,11.37H461.69z M469.28,41.73
		c-0.11-2.09-1.58-3.82-3.64-3.82c-2.16,0-3.6,1.55-3.96,3.82H469.28z"/>
	<path class="st0" d="M477.96,34.31h5.83v2.16h0.07c1.19-1.76,2.99-2.7,5.15-2.7c5.87,0,8.35,5.04,8.35,10.29
		c0,4.86-2.59,9.47-7.88,9.47c-2.3,0-4.07-0.86-5.33-2.56h-0.07v8.28h-6.12V34.31z M483.86,43.46c0,3.27,0.94,5.4,3.71,5.4
		c2.74,0,3.67-2.84,3.67-5.4c0-2.38-0.94-5-3.64-5C485.95,38.45,483.86,39.61,483.86,43.46z"/>
	<path class="st0" d="M506.47,31.97h-6.12V27.3h6.12V31.97z M500.35,34.31h6.12V53h-6.12V34.31z"/>
	<path class="st0" d="M510.18,34.31h5.94v2.56h0.07c1.12-1.91,3.64-3.1,5.87-3.1c6.23,0,6.73,4.54,6.73,7.24V53h-6.12v-9.03
		c0-2.56,0.29-5.15-3.06-5.15c-2.3,0-3.31,1.94-3.31,4V53h-6.12V34.31z"/>
	<path class="st0" d="M550.53,50.73c0,3.06-0.58,8.82-9.32,8.82c-4.36,0-8.46-0.97-9.18-5.97h6.12c0.14,0.83,0.47,1.33,1.04,1.62
		c0.54,0.29,1.3,0.4,2.23,0.4c2.92,0,3.2-2.05,3.2-4.36v-1.76h-0.07c-1.12,1.73-2.99,2.74-4.97,2.74c-5.65,0-8.21-4.03-8.21-9.29
		c0-4.97,2.92-9.14,8.21-9.14c2.23,0,3.92,0.97,5,2.88h0.07v-2.34h5.87V50.73z M541.06,38.45c-2.7,0-3.56,2.38-3.56,4.68
		c0,2.2,1.01,4.39,3.53,4.39c2.59,0,3.71-2.02,3.71-4.35C544.74,40.79,543.8,38.45,541.06,38.45z"/>
	<path class="st0" d="M583.72,53h-5.94v-2.56h-0.07c-1.15,1.91-3.53,3.1-5.69,3.1c-5.36,0-6.91-3.1-6.91-7.99V34.31h6.12v10.83
		c0,2.48,1.08,3.35,3.02,3.35c1.33,0,3.35-0.86,3.35-4.18V34.31h6.12V53z"/>
	<path class="st0" d="M587.4,34.31h5.83v2.16h0.07c1.19-1.76,2.99-2.7,5.15-2.7c5.87,0,8.35,5.04,8.35,10.29
		c0,4.86-2.59,9.47-7.88,9.47c-2.3,0-4.07-0.86-5.33-2.56h-0.07v8.28h-6.12V34.31z M593.3,43.46c0,3.27,0.94,5.4,3.71,5.4
		c2.74,0,3.67-2.84,3.67-5.4c0-2.38-0.94-5-3.64-5C595.39,38.45,593.3,39.61,593.3,43.46z"/>
	<path class="st0" d="M609,35.72c0.07-5.69,3.82-8.96,9.43-8.96c4.5,0,9,2.38,9,7.34c0,3.49-1.69,4.75-4.43,6.48
		c-1.87,1.22-2.34,1.76-2.38,3.92h-5.69v-1.8c0-2.81,1.58-4.03,2.92-5c1.48-1.01,2.88-1.76,2.88-3.56c0-1.37-1.04-2.2-2.34-2.2
		c-1.98,0-2.99,1.19-3.1,3.1v0.68H609z M614.43,46.3h6.7V53h-6.7V46.3z"/>
</g>
</svg>
