<?xml version="1.0" encoding="utf-8"?>
<!-- Generator: Adobe Illustrator 24.2.3, SVG Export Plug-In . SVG Version: 6.00 Build 0)  -->
<svg version="1.1" id="Layer_1" xmlns="http://www.w3.org/2000/svg" xmlns:xlink="http://www.w3.org/1999/xlink" x="0px" y="0px"
	 viewBox="0 0 728 90" style="enable-background:new 0 0 728 90;" xml:space="preserve">
<style type="text/css">
	.st0{fill:#FFFFFF;}
</style>
<g>
	<path class="st0" d="M37.03,21.94h9.3v27.7h16.65v8H37.03V21.94z"/>
	<path class="st0" d="M74.58,28.44h-8.5v-6.5h8.5V28.44z M66.08,31.69h8.5v25.95h-8.5V31.69z"/>
	<path class="st0" d="M81.38,37.19h-4.1v-5.5h4.1c0-7.45,2.6-9.75,9.85-9.75c1.35,0,2.75,0.1,4.1,0.15v6
		c-0.8-0.1-1.55-0.15-2.3-0.15c-1.95,0-3.15,0.25-3.15,2.6v1.15h5.1v5.5h-5.1v20.45h-8.5V37.19z"/>
	<path class="st0" d="M104.03,46.74c0.15,3.55,2.2,5.9,5.8,5.9c2.05,0,4.05-0.95,4.85-2.85h7.95c-1.55,6-7.1,8.6-12.9,8.6
		c-8.45,0-14.2-5.1-14.2-13.8c0-7.95,6.35-13.65,14-13.65c9.3,0,13.95,7,13.55,15.8H104.03z M114.58,41.99
		c-0.15-2.9-2.2-5.3-5.05-5.3c-3,0-5,2.15-5.5,5.3H114.58z"/>
	<path class="st0" d="M158.88,41.19c-0.05-2.2-2-3.75-4.15-3.75c-4.75,0-5.5,4.05-5.5,7.65c0,3.35,1.45,6.8,5.05,6.8
		c2.95,0,4.45-1.7,4.85-4.45h8.25c-0.75,6.95-6.15,10.95-13.05,10.95c-7.8,0-13.6-5.35-13.6-13.3c0-8.25,5.25-14.15,13.6-14.15
		c6.45,0,12.2,3.4,12.8,10.25H158.88z"/>
	<path class="st0" d="M183.08,30.94c8.05,0,13.7,5.95,13.7,13.75s-5.65,13.7-13.7,13.7s-13.65-5.9-13.65-13.7
		S175.03,30.94,183.08,30.94z M183.08,51.89c3.95,0,5.2-3.9,5.2-7.2c0-3.3-1.25-7.25-5.2-7.25s-5.15,3.95-5.15,7.25
		C177.93,47.99,179.13,51.89,183.08,51.89z"/>
	<path class="st0" d="M200.33,31.69h8.25v3.55h0.1c1.55-2.6,4.3-4.3,7.45-4.3c3.25,0,6.15,1.05,7.55,4.2c2.05-2.75,4.6-4.2,8.1-4.2
		c8.25,0,9.15,6.25,9.15,11.2v15.5h-8.5V42.39c0-2.8-1.35-4.45-3.55-4.45c-3.65,0-4,2.8-4,7v12.7h-8.5V42.89
		c0-3.05-0.9-4.95-3.2-4.95c-3.05,0-4.35,1.75-4.35,7.05v12.65h-8.5V31.69z"/>
	<path class="st0" d="M252.93,46.74c0.15,3.55,2.2,5.9,5.8,5.9c2.05,0,4.05-0.95,4.85-2.85h7.95c-1.55,6-7.1,8.6-12.9,8.6
		c-8.45,0-14.2-5.1-14.2-13.8c0-7.95,6.35-13.65,14-13.65c9.3,0,13.95,7,13.55,15.8H252.93z M263.48,41.99
		c-0.15-2.9-2.2-5.3-5.05-5.3c-3,0-5,2.15-5.5,5.3H263.48z"/>
	<path class="st0" d="M282.03,49.09c0,1.3,0.55,2.25,1.4,2.9c0.8,0.6,1.95,0.9,3.15,0.9c1.65,0,4-0.7,4-2.75c0-2-2.65-2.4-4.15-2.75
		c-5.35-1.35-12.05-1.5-12.05-8.5c0-6.25,6.75-7.95,11.85-7.95c5.7,0,11.65,1.65,11.95,8.4h-7.85c0-1.1-0.4-1.8-1.1-2.25
		c-0.7-0.45-1.65-0.65-2.7-0.65c-1.4,0-3.65,0.15-3.65,1.95c0,2.45,5.7,2.9,9.6,3.75c5.25,1.05,6.6,4.85,6.6,7
		c0,6.95-6.6,9.25-12.45,9.25c-6.15,0-12.45-2.05-12.7-9.3H282.03z"/>
	<path class="st0" d="M317.53,39.69c0.15-3.4,1.75-5.6,4.05-6.95c2.3-1.3,5.3-1.8,8.25-1.8c6.15,0,12.1,1.35,12.1,8.7v11.35
		c0,2.2,0,4.6,1,6.65h-8.55c-0.3-0.8-0.4-1.6-0.5-2.45c-2.2,2.3-5.45,3.2-8.55,3.2c-4.95,0-8.85-2.5-8.85-7.85
		c0-8.45,9.2-7.8,15.1-9c1.45-0.3,2.25-0.8,2.25-2.4c0-1.95-2.35-2.7-4.1-2.7c-2.35,0-3.85,1.05-4.25,3.25H317.53z M328.53,53.14
		c4.05,0,5.4-2.3,5.2-7.65c-1.2,0.75-3.4,0.9-5.25,1.4c-1.9,0.45-3.5,1.25-3.5,3.3C324.98,52.29,326.63,53.14,328.53,53.14z"/>
	<path class="st0" d="M362.08,37.19h-5.25v11.8c0,2.05,1.2,2.5,3.05,2.5c0.7,0,1.45-0.1,2.2-0.1v6.25c-1.55,0.05-3.1,0.25-4.65,0.25
		c-7.25,0-9.1-2.1-9.1-9.15V37.19h-4.3v-5.5h4.3v-7.85h8.5v7.85h5.25V37.19z"/>
	<path class="st0" d="M394.73,59.94c-2.05,5.7-5.1,6.4-10.85,6.4h-4v-6.9h2.95c1.95,0,3.4-1.1,3.4-2.9c0-1.4-1.65-5.4-2.15-6.8
		l-6.7-18.05h9l4.9,16.9h0.1l4.9-16.9h8.7L394.73,59.94z"/>
	<path class="st0" d="M418.13,30.94c8.05,0,13.7,5.95,13.7,13.75s-5.65,13.7-13.7,13.7s-13.65-5.9-13.65-13.7
		S410.08,30.94,418.13,30.94z M418.13,51.89c3.95,0,5.2-3.9,5.2-7.2c0-3.3-1.25-7.25-5.2-7.25s-5.15,3.95-5.15,7.25
		C412.98,47.99,414.18,51.89,418.13,51.89z"/>
	<path class="st0" d="M461.03,57.64h-8.25v-3.55h-0.1c-1.6,2.65-4.9,4.3-7.9,4.3c-7.45,0-9.6-4.3-9.6-11.1v-15.6h8.5v15.05
		c0,3.45,1.5,4.65,4.2,4.65c1.85,0,4.65-1.2,4.65-5.8v-13.9h8.5V57.64z"/>
	<path class="st0" d="M483.27,37.19h-4.1v-5.5h4.1c0-7.45,2.6-9.75,9.85-9.75c1.35,0,2.75,0.1,4.1,0.15v6
		c-0.8-0.1-1.55-0.15-2.3-0.15c-1.95,0-3.15,0.25-3.15,2.6v1.15h5.1v5.5h-5.1v20.45h-8.5V37.19z"/>
	<path class="st0" d="M498.67,39.69c0.15-3.4,1.75-5.6,4.05-6.95c2.3-1.3,5.3-1.8,8.25-1.8c6.15,0,12.1,1.35,12.1,8.7v11.35
		c0,2.2,0,4.6,1,6.65h-8.55c-0.3-0.8-0.4-1.6-0.5-2.45c-2.2,2.3-5.45,3.2-8.55,3.2c-4.95,0-8.85-2.5-8.85-7.85
		c0-8.45,9.2-7.8,15.1-9c1.45-0.3,2.25-0.8,2.25-2.4c0-1.95-2.35-2.7-4.1-2.7c-2.35,0-3.85,1.05-4.25,3.25H498.67z M509.67,53.14
		c4.05,0,5.4-2.3,5.2-7.65c-1.2,0.75-3.4,0.9-5.25,1.4c-1.9,0.45-3.5,1.25-3.5,3.3C506.12,52.29,507.77,53.14,509.67,53.14z"/>
	<path class="st0" d="M534.57,49.09c0,1.3,0.55,2.25,1.4,2.9c0.8,0.6,1.95,0.9,3.15,0.9c1.65,0,4-0.7,4-2.75c0-2-2.65-2.4-4.15-2.75
		c-5.35-1.35-12.05-1.5-12.05-8.5c0-6.25,6.75-7.95,11.85-7.95c5.7,0,11.65,1.65,11.95,8.4h-7.85c0-1.1-0.4-1.8-1.1-2.25
		c-0.7-0.45-1.65-0.65-2.7-0.65c-1.4,0-3.65,0.15-3.65,1.95c0,2.45,5.7,2.9,9.6,3.75c5.25,1.05,6.6,4.85,6.6,7
		c0,6.95-6.6,9.25-12.45,9.25c-6.15,0-12.45-2.05-12.7-9.3H534.57z"/>
	<path class="st0" d="M570.57,37.19h-5.25v11.8c0,2.05,1.2,2.5,3.05,2.5c0.7,0,1.45-0.1,2.2-0.1v6.25c-1.55,0.05-3.1,0.25-4.65,0.25
		c-7.25,0-9.1-2.1-9.1-9.15V37.19h-4.3v-5.5h4.3v-7.85h8.5v7.85h5.25V37.19z"/>
	<path class="st0" d="M574.77,48.34h9.3v9.3h-9.3V48.34z"/>
</g>
</svg>
