<?xml version="1.0" encoding="utf-8"?>
<!-- Generator: Adobe Illustrator 24.2.3, SVG Export Plug-In . SVG Version: 6.00 Build 0)  -->
<svg version="1.1" id="Layer_1" xmlns="http://www.w3.org/2000/svg" xmlns:xlink="http://www.w3.org/1999/xlink" x="0px" y="0px"
	 viewBox="0 0 728 90" style="enable-background:new 0 0 728 90;" xml:space="preserve">
<g>
	<path d="M576.99,83.58v-4.29h0.57v3.79h2.12v0.51H576.99z"/>
	<path d="M580.13,81.46c0-0.51,0.05-0.92,0.16-1.23c0.1-0.31,0.26-0.55,0.46-0.72s0.47-0.25,0.78-0.25c0.23,0,0.43,0.05,0.61,0.14
		c0.17,0.09,0.32,0.23,0.43,0.4s0.2,0.39,0.27,0.64s0.1,0.59,0.1,1.01c0,0.5-0.05,0.91-0.16,1.22c-0.1,0.31-0.26,0.55-0.46,0.72
		s-0.47,0.25-0.78,0.25c-0.41,0-0.74-0.15-0.98-0.45C580.27,82.85,580.13,82.27,580.13,81.46z M580.67,81.46
		c0,0.71,0.08,1.17,0.25,1.41c0.16,0.23,0.37,0.35,0.61,0.35s0.45-0.12,0.61-0.35s0.25-0.7,0.25-1.41c0-0.71-0.08-1.18-0.25-1.41
		s-0.37-0.35-0.62-0.35c-0.24,0-0.44,0.1-0.58,0.31C580.76,80.28,580.67,80.76,580.67,81.46z"/>
	<path d="M584.28,81.25c-0.22-0.08-0.38-0.19-0.49-0.34s-0.16-0.33-0.16-0.53c0-0.31,0.11-0.58,0.34-0.79s0.52-0.32,0.9-0.32
		c0.38,0,0.68,0.11,0.91,0.33c0.23,0.22,0.34,0.48,0.34,0.8c0,0.2-0.05,0.37-0.16,0.52s-0.26,0.26-0.48,0.34
		c0.26,0.09,0.46,0.22,0.6,0.42c0.14,0.19,0.21,0.42,0.21,0.69c0,0.37-0.13,0.68-0.39,0.93s-0.6,0.38-1.03,0.38
		s-0.77-0.12-1.03-0.38s-0.39-0.56-0.39-0.94c0-0.28,0.07-0.51,0.21-0.7S584.02,81.32,584.28,81.25z M584,82.34
		c0,0.15,0.04,0.3,0.11,0.44c0.07,0.14,0.18,0.25,0.32,0.33c0.14,0.08,0.29,0.12,0.45,0.12c0.25,0,0.46-0.08,0.62-0.24
		s0.25-0.37,0.25-0.62c0-0.25-0.08-0.46-0.25-0.63c-0.17-0.17-0.38-0.25-0.63-0.25c-0.25,0-0.45,0.08-0.62,0.25S584,82.1,584,82.34z
		 M584.17,80.36c0,0.2,0.07,0.37,0.2,0.5s0.3,0.19,0.51,0.19c0.2,0,0.37-0.06,0.5-0.19s0.2-0.29,0.2-0.47c0-0.19-0.07-0.36-0.2-0.49
		c-0.13-0.13-0.3-0.2-0.5-0.2c-0.2,0-0.37,0.06-0.5,0.19S584.17,80.18,584.17,80.36z"/>
	<path d="M589.58,83.08v0.51h-2.84c0-0.13,0.02-0.25,0.06-0.37c0.07-0.19,0.19-0.38,0.35-0.57s0.39-0.4,0.69-0.65
		c0.47-0.38,0.78-0.69,0.95-0.91c0.16-0.22,0.25-0.43,0.25-0.63c0-0.21-0.07-0.39-0.22-0.53c-0.15-0.14-0.34-0.22-0.58-0.22
		c-0.25,0-0.46,0.08-0.61,0.23s-0.23,0.36-0.23,0.63l-0.54-0.06c0.04-0.4,0.18-0.71,0.42-0.92s0.57-0.32,0.98-0.32
		c0.41,0,0.74,0.11,0.98,0.34s0.36,0.51,0.36,0.85c0,0.17-0.04,0.34-0.11,0.51s-0.19,0.34-0.35,0.52s-0.43,0.44-0.81,0.76
		c-0.32,0.27-0.52,0.45-0.61,0.54c-0.09,0.1-0.16,0.19-0.22,0.29H589.58z"/>
	<path d="M590.14,81.46c0-0.51,0.05-0.92,0.16-1.23c0.1-0.31,0.26-0.55,0.46-0.72s0.47-0.25,0.78-0.25c0.23,0,0.43,0.05,0.61,0.14
		c0.17,0.09,0.32,0.23,0.43,0.4s0.2,0.39,0.27,0.64s0.1,0.59,0.1,1.01c0,0.5-0.05,0.91-0.16,1.22c-0.1,0.31-0.26,0.55-0.46,0.72
		s-0.47,0.25-0.78,0.25c-0.41,0-0.74-0.15-0.98-0.45C590.28,82.85,590.14,82.27,590.14,81.46z M590.68,81.46
		c0,0.71,0.08,1.17,0.25,1.41c0.16,0.23,0.37,0.35,0.61,0.35s0.45-0.12,0.61-0.35s0.25-0.7,0.25-1.41c0-0.71-0.08-1.18-0.25-1.41
		s-0.37-0.35-0.62-0.35c-0.24,0-0.44,0.1-0.58,0.31C590.78,80.28,590.68,80.76,590.68,81.46z"/>
	<path d="M593.48,81.46c0-0.51,0.05-0.92,0.16-1.23c0.1-0.31,0.26-0.55,0.46-0.72s0.47-0.25,0.78-0.25c0.23,0,0.43,0.05,0.61,0.14
		c0.17,0.09,0.32,0.23,0.43,0.4s0.2,0.39,0.27,0.64s0.1,0.59,0.1,1.01c0,0.5-0.05,0.91-0.16,1.22c-0.1,0.31-0.26,0.55-0.46,0.72
		s-0.47,0.25-0.78,0.25c-0.41,0-0.74-0.15-0.98-0.45C593.62,82.85,593.48,82.27,593.48,81.46z M594.02,81.46
		c0,0.71,0.08,1.17,0.25,1.41c0.16,0.23,0.37,0.35,0.61,0.35s0.45-0.12,0.61-0.35s0.25-0.7,0.25-1.41c0-0.71-0.08-1.18-0.25-1.41
		s-0.37-0.35-0.62-0.35c-0.24,0-0.44,0.1-0.58,0.31C594.11,80.28,594.02,80.76,594.02,81.46z"/>
	<path d="M596.82,81.46c0-0.51,0.05-0.92,0.16-1.23c0.1-0.31,0.26-0.55,0.46-0.72s0.47-0.25,0.78-0.25c0.23,0,0.43,0.05,0.61,0.14
		c0.17,0.09,0.32,0.23,0.43,0.4s0.2,0.39,0.27,0.64s0.1,0.59,0.1,1.01c0,0.5-0.05,0.91-0.16,1.22c-0.1,0.31-0.26,0.55-0.46,0.72
		s-0.47,0.25-0.78,0.25c-0.41,0-0.74-0.15-0.98-0.45C596.96,82.85,596.82,82.27,596.82,81.46z M597.36,81.46
		c0,0.71,0.08,1.17,0.25,1.41c0.16,0.23,0.37,0.35,0.61,0.35s0.45-0.12,0.61-0.35s0.25-0.7,0.25-1.41c0-0.71-0.08-1.18-0.25-1.41
		s-0.37-0.35-0.62-0.35c-0.24,0-0.44,0.1-0.58,0.31C597.45,80.28,597.36,80.76,597.36,81.46z"/>
	<path d="M600.19,79.85v-0.51h2.78v0.41c-0.27,0.29-0.54,0.68-0.81,1.16c-0.27,0.48-0.48,0.98-0.62,1.49
		c-0.11,0.36-0.17,0.75-0.2,1.18h-0.54c0.01-0.34,0.07-0.75,0.2-1.22s0.31-0.94,0.55-1.38c0.24-0.44,0.49-0.82,0.76-1.12H600.19z"/>
	<path d="M605.48,83.58h-0.53v-3.36c-0.13,0.12-0.29,0.24-0.5,0.36c-0.21,0.12-0.39,0.21-0.56,0.27v-0.51
		c0.29-0.14,0.55-0.31,0.77-0.5s0.38-0.39,0.47-0.57h0.34V83.58z"/>
	<path d="M606.83,82.46l0.55-0.05c0.04,0.27,0.14,0.47,0.29,0.61c0.15,0.14,0.33,0.2,0.54,0.2c0.25,0,0.47-0.1,0.64-0.29
		s0.26-0.45,0.26-0.76c0-0.3-0.08-0.54-0.25-0.71s-0.39-0.26-0.66-0.26c-0.17,0-0.32,0.04-0.46,0.12s-0.24,0.18-0.32,0.3l-0.5-0.06
		l0.42-2.21h2.14v0.5h-1.71L607.53,81c0.26-0.18,0.53-0.27,0.81-0.27c0.38,0,0.69,0.13,0.95,0.39s0.39,0.59,0.39,1
		c0,0.39-0.11,0.72-0.34,1.01c-0.28,0.35-0.65,0.52-1.13,0.52c-0.39,0-0.71-0.11-0.96-0.33S606.86,82.82,606.83,82.46z"/>
	<path d="M610.2,79.85v-0.51h2.78v0.41c-0.27,0.29-0.54,0.68-0.81,1.16c-0.27,0.48-0.48,0.98-0.62,1.49
		c-0.11,0.36-0.17,0.75-0.2,1.18h-0.54c0.01-0.34,0.07-0.75,0.2-1.22s0.31-0.94,0.55-1.38c0.24-0.44,0.49-0.82,0.76-1.12H610.2z"/>
	<path d="M613.66,84.77v-5.49h1.16v0.44h-0.64v4.61h0.64v0.44H613.66z"/>
	<path d="M617.44,82.58l0.54,0.07c-0.09,0.32-0.25,0.57-0.48,0.74s-0.53,0.26-0.89,0.26c-0.46,0-0.82-0.14-1.08-0.42
		c-0.27-0.28-0.4-0.67-0.4-1.18c0-0.52,0.13-0.93,0.4-1.22s0.62-0.43,1.05-0.43c0.42,0,0.76,0.14,1.02,0.42s0.4,0.68,0.4,1.2
		c0,0.03,0,0.08,0,0.14h-2.32c0.02,0.34,0.12,0.6,0.29,0.79s0.39,0.27,0.65,0.27c0.19,0,0.36-0.05,0.5-0.15
		S617.36,82.8,617.44,82.58z M615.71,81.73h1.74c-0.02-0.26-0.09-0.46-0.2-0.59c-0.17-0.2-0.39-0.3-0.65-0.3
		c-0.24,0-0.45,0.08-0.61,0.24C615.82,81.24,615.73,81.46,615.71,81.73z"/>
	<path d="M618.3,83.58l1.14-1.62l-1.05-1.49h0.66l0.48,0.73c0.09,0.14,0.16,0.25,0.22,0.35c0.09-0.13,0.17-0.24,0.24-0.34l0.52-0.74
		h0.63l-1.08,1.46l1.16,1.65h-0.65l-0.64-0.97l-0.17-0.26l-0.82,1.23H618.3z"/>
	<path d="M621.65,84.77v-4.3h0.48v0.4c0.11-0.16,0.24-0.28,0.38-0.36c0.14-0.08,0.32-0.12,0.52-0.12c0.27,0,0.5,0.07,0.7,0.21
		s0.36,0.33,0.46,0.58c0.1,0.25,0.16,0.52,0.16,0.82c0,0.32-0.06,0.6-0.17,0.86c-0.12,0.25-0.28,0.45-0.5,0.59
		c-0.22,0.13-0.45,0.2-0.69,0.2c-0.18,0-0.33-0.04-0.47-0.11c-0.14-0.07-0.25-0.17-0.34-0.28v1.51H621.65z M622.13,82.04
		c0,0.4,0.08,0.7,0.24,0.89s0.36,0.29,0.59,0.29c0.23,0,0.44-0.1,0.6-0.3c0.17-0.2,0.25-0.51,0.25-0.92c0-0.4-0.08-0.69-0.25-0.89
		s-0.36-0.3-0.58-0.3c-0.22,0-0.42,0.11-0.6,0.32C622.21,81.34,622.13,81.64,622.13,82.04z"/>
	<path d="M624.84,81.46c0-0.51,0.05-0.92,0.16-1.23c0.1-0.31,0.26-0.55,0.46-0.72s0.47-0.25,0.78-0.25c0.23,0,0.43,0.05,0.61,0.14
		c0.17,0.09,0.32,0.23,0.43,0.4s0.2,0.39,0.27,0.64s0.1,0.59,0.1,1.01c0,0.5-0.05,0.91-0.16,1.22c-0.1,0.31-0.26,0.55-0.46,0.72
		s-0.47,0.25-0.78,0.25c-0.41,0-0.74-0.15-0.98-0.45C624.98,82.85,624.84,82.27,624.84,81.46z M625.38,81.46
		c0,0.71,0.08,1.17,0.25,1.41c0.16,0.23,0.37,0.35,0.61,0.35s0.45-0.12,0.61-0.35s0.25-0.7,0.25-1.41c0-0.71-0.08-1.18-0.25-1.41
		s-0.37-0.35-0.62-0.35c-0.24,0-0.44,0.1-0.58,0.31C625.47,80.28,625.38,80.76,625.38,81.46z"/>
	<path d="M628.99,81.25c-0.22-0.08-0.38-0.19-0.49-0.34s-0.16-0.33-0.16-0.53c0-0.31,0.11-0.58,0.34-0.79s0.52-0.32,0.9-0.32
		c0.38,0,0.68,0.11,0.91,0.33c0.23,0.22,0.34,0.48,0.34,0.8c0,0.2-0.05,0.37-0.16,0.52s-0.26,0.26-0.48,0.34
		c0.26,0.09,0.46,0.22,0.6,0.42c0.14,0.19,0.21,0.42,0.21,0.69c0,0.37-0.13,0.68-0.39,0.93s-0.6,0.38-1.03,0.38
		s-0.77-0.12-1.03-0.38s-0.39-0.56-0.39-0.94c0-0.28,0.07-0.51,0.21-0.7S628.73,81.32,628.99,81.25z M628.71,82.34
		c0,0.15,0.04,0.3,0.11,0.44c0.07,0.14,0.18,0.25,0.32,0.33c0.14,0.08,0.29,0.12,0.45,0.12c0.25,0,0.46-0.08,0.62-0.24
		s0.25-0.37,0.25-0.62c0-0.25-0.08-0.46-0.25-0.63c-0.17-0.17-0.38-0.25-0.63-0.25c-0.25,0-0.45,0.08-0.62,0.25
		S628.71,82.1,628.71,82.34z M628.88,80.36c0,0.2,0.07,0.37,0.2,0.5s0.3,0.19,0.51,0.19c0.2,0,0.37-0.06,0.5-0.19s0.2-0.29,0.2-0.47
		c0-0.19-0.07-0.36-0.2-0.49c-0.13-0.13-0.3-0.2-0.5-0.2c-0.2,0-0.37,0.06-0.5,0.19S628.88,80.18,628.88,80.36z"/>
	<path d="M634.29,83.08v0.51h-2.84c0-0.13,0.02-0.25,0.06-0.37c0.07-0.19,0.19-0.38,0.35-0.57s0.39-0.4,0.69-0.65
		c0.47-0.38,0.78-0.69,0.95-0.91c0.16-0.22,0.25-0.43,0.25-0.63c0-0.21-0.07-0.39-0.22-0.53c-0.15-0.14-0.34-0.22-0.58-0.22
		c-0.25,0-0.46,0.08-0.61,0.23s-0.23,0.36-0.23,0.63l-0.54-0.06c0.04-0.4,0.18-0.71,0.42-0.92s0.57-0.32,0.98-0.32
		c0.41,0,0.74,0.11,0.98,0.34s0.36,0.51,0.36,0.85c0,0.17-0.04,0.34-0.11,0.51s-0.19,0.34-0.35,0.52s-0.43,0.44-0.81,0.76
		c-0.32,0.27-0.52,0.45-0.61,0.54c-0.09,0.1-0.16,0.19-0.22,0.29H634.29z"/>
	<path d="M636.84,83.58h-0.53v-3.36c-0.13,0.12-0.29,0.24-0.5,0.36c-0.21,0.12-0.39,0.21-0.56,0.27v-0.51
		c0.29-0.14,0.55-0.31,0.77-0.5s0.38-0.39,0.47-0.57h0.34V83.58z"/>
	<path d="M639.22,84.77h-1.16v-0.44h0.64v-4.61h-0.64v-0.44h1.16V84.77z"/>
	<path d="M640.01,84.77v-5.49h1.16v0.44h-0.64v4.61h0.64v0.44H640.01z"/>
	<path d="M641.27,83.58l1.65-4.29h0.61l1.76,4.29h-0.65l-0.5-1.3h-1.8l-0.47,1.3H641.27z M642.5,81.82h1.46l-0.45-1.19
		c-0.14-0.36-0.24-0.66-0.3-0.89c-0.05,0.28-0.13,0.55-0.23,0.82L642.5,81.82z"/>
	<path d="M645.66,83.58v-4.29h0.53v4.29H645.66z"/>
	<path d="M646.99,83.58v-4.29h0.53v4.29H646.99z"/>
	<path d="M649.88,82.2l0.54-0.05c0.03,0.21,0.08,0.39,0.18,0.53c0.09,0.14,0.24,0.25,0.43,0.33c0.2,0.09,0.42,0.13,0.66,0.13
		c0.22,0,0.41-0.03,0.57-0.1s0.29-0.15,0.37-0.27c0.08-0.11,0.12-0.23,0.12-0.37c0-0.13-0.04-0.25-0.12-0.35
		c-0.08-0.1-0.21-0.18-0.39-0.25c-0.12-0.04-0.37-0.11-0.76-0.21c-0.39-0.09-0.67-0.18-0.83-0.27c-0.21-0.11-0.36-0.24-0.46-0.4
		c-0.1-0.16-0.15-0.34-0.15-0.53c0-0.22,0.06-0.42,0.18-0.61c0.12-0.19,0.3-0.33,0.54-0.43s0.5-0.15,0.79-0.15
		c0.32,0,0.6,0.05,0.84,0.15c0.24,0.1,0.43,0.25,0.56,0.45s0.2,0.42,0.21,0.68l-0.54,0.04c-0.03-0.27-0.13-0.48-0.3-0.62
		s-0.42-0.21-0.75-0.21c-0.34,0-0.59,0.06-0.75,0.19c-0.16,0.12-0.24,0.28-0.24,0.46c0,0.15,0.06,0.28,0.17,0.38
		c0.11,0.1,0.39,0.2,0.86,0.31c0.46,0.1,0.78,0.2,0.95,0.27c0.25,0.12,0.43,0.26,0.55,0.44c0.12,0.18,0.18,0.38,0.18,0.61
		c0,0.23-0.07,0.44-0.2,0.65c-0.13,0.2-0.32,0.36-0.56,0.47c-0.25,0.11-0.52,0.17-0.83,0.17c-0.39,0-0.71-0.06-0.98-0.17
		s-0.47-0.28-0.62-0.51C649.96,82.75,649.89,82.49,649.88,82.2z"/>
	<path d="M655.16,83.11l0.08,0.47c-0.15,0.03-0.28,0.05-0.4,0.05c-0.19,0-0.34-0.03-0.45-0.09s-0.18-0.14-0.22-0.24
		c-0.04-0.1-0.06-0.31-0.06-0.62v-1.79h-0.39v-0.41h0.39V79.7l0.52-0.32v1.09h0.53v0.41h-0.53v1.82c0,0.15,0.01,0.25,0.03,0.29
		c0.02,0.04,0.05,0.08,0.09,0.1s0.1,0.04,0.18,0.04C654.99,83.13,655.06,83.12,655.16,83.11z"/>
	<path d="M657.7,83.2c-0.2,0.17-0.38,0.28-0.56,0.35s-0.37,0.1-0.58,0.1c-0.34,0-0.6-0.08-0.79-0.25c-0.18-0.17-0.28-0.38-0.28-0.64
		c0-0.15,0.03-0.29,0.1-0.42c0.07-0.12,0.16-0.23,0.27-0.3c0.11-0.08,0.24-0.13,0.38-0.17c0.1-0.03,0.26-0.05,0.47-0.08
		c0.43-0.05,0.74-0.11,0.94-0.18c0-0.07,0-0.12,0-0.14c0-0.21-0.05-0.37-0.15-0.45c-0.13-0.12-0.33-0.18-0.6-0.18
		c-0.25,0-0.43,0.04-0.55,0.13c-0.12,0.09-0.21,0.24-0.26,0.46l-0.52-0.07c0.05-0.22,0.12-0.4,0.23-0.53s0.26-0.24,0.47-0.31
		c0.2-0.07,0.44-0.11,0.71-0.11c0.27,0,0.48,0.03,0.65,0.09s0.29,0.14,0.37,0.24s0.13,0.21,0.16,0.36c0.02,0.09,0.03,0.25,0.03,0.49
		v0.7c0,0.49,0.01,0.8,0.03,0.93c0.02,0.13,0.07,0.25,0.13,0.37h-0.55C657.75,83.47,657.72,83.34,657.7,83.2z M657.66,82.02
		c-0.19,0.08-0.48,0.14-0.86,0.2c-0.22,0.03-0.37,0.07-0.46,0.11s-0.16,0.1-0.21,0.17c-0.05,0.08-0.07,0.16-0.07,0.25
		c0,0.14,0.05,0.26,0.16,0.35c0.11,0.09,0.26,0.14,0.47,0.14c0.2,0,0.38-0.04,0.54-0.13c0.16-0.09,0.27-0.21,0.35-0.36
		c0.06-0.12,0.08-0.29,0.08-0.53V82.02z"/>
	<path d="M660.16,83.11l0.08,0.47c-0.15,0.03-0.28,0.05-0.4,0.05c-0.19,0-0.34-0.03-0.45-0.09s-0.18-0.14-0.22-0.24
		c-0.04-0.1-0.06-0.31-0.06-0.62v-1.79h-0.39v-0.41h0.39V79.7l0.52-0.32v1.09h0.53v0.41h-0.53v1.82c0,0.15,0.01,0.25,0.03,0.29
		c0.02,0.04,0.05,0.08,0.09,0.1s0.1,0.04,0.18,0.04C659.99,83.13,660.07,83.12,660.16,83.11z"/>
	<path d="M662.81,82.58l0.54,0.07c-0.09,0.32-0.25,0.57-0.48,0.74s-0.53,0.26-0.89,0.26c-0.46,0-0.82-0.14-1.08-0.42
		c-0.27-0.28-0.4-0.67-0.4-1.18c0-0.52,0.13-0.93,0.4-1.22s0.62-0.43,1.05-0.43c0.42,0,0.76,0.14,1.02,0.42s0.4,0.68,0.4,1.2
		c0,0.03,0,0.08,0,0.14h-2.32c0.02,0.34,0.12,0.6,0.29,0.79s0.39,0.27,0.65,0.27c0.19,0,0.36-0.05,0.5-0.15
		S662.73,82.8,662.81,82.58z M661.08,81.73h1.74c-0.02-0.26-0.09-0.46-0.2-0.59c-0.17-0.2-0.39-0.3-0.65-0.3
		c-0.24,0-0.45,0.08-0.61,0.24C661.18,81.24,661.09,81.46,661.08,81.73z"/>
	<path d="M663.8,82.65l0.52-0.08c0.03,0.21,0.11,0.37,0.25,0.48c0.13,0.11,0.32,0.17,0.56,0.17c0.24,0,0.42-0.05,0.54-0.15
		c0.12-0.1,0.18-0.21,0.18-0.35c0-0.12-0.05-0.21-0.16-0.28c-0.07-0.05-0.25-0.11-0.54-0.18c-0.39-0.1-0.66-0.18-0.8-0.25
		c-0.15-0.07-0.26-0.17-0.34-0.29c-0.08-0.13-0.12-0.27-0.12-0.42c0-0.14,0.03-0.27,0.09-0.38s0.15-0.22,0.26-0.29
		c0.08-0.06,0.19-0.11,0.34-0.15c0.14-0.04,0.29-0.06,0.46-0.06c0.24,0,0.46,0.04,0.64,0.11c0.19,0.07,0.32,0.17,0.41,0.29
		c0.09,0.12,0.15,0.28,0.18,0.48l-0.52,0.07c-0.02-0.16-0.09-0.29-0.2-0.38s-0.27-0.13-0.48-0.13c-0.24,0-0.42,0.04-0.52,0.12
		s-0.16,0.17-0.16,0.28c0,0.07,0.02,0.13,0.06,0.18c0.04,0.06,0.11,0.1,0.2,0.14c0.05,0.02,0.21,0.06,0.47,0.13
		c0.37,0.1,0.63,0.18,0.78,0.24c0.15,0.06,0.26,0.16,0.35,0.28s0.13,0.27,0.13,0.45c0,0.18-0.05,0.34-0.15,0.5
		c-0.1,0.16-0.25,0.28-0.44,0.36c-0.19,0.08-0.41,0.13-0.66,0.13c-0.4,0-0.71-0.08-0.92-0.25S663.86,82.98,663.8,82.65z"/>
	<path d="M667.9,84.77h-1.16v-0.44h0.64v-4.61h-0.64v-0.44h1.16V84.77z"/>
	<path d="M668.69,84.77v-5.49h1.16v0.44h-0.64v4.61h0.64v0.44H668.69z"/>
	<path d="M670.42,83.58v-4.29h1.48c0.33,0,0.59,0.02,0.76,0.06c0.25,0.06,0.46,0.16,0.63,0.31c0.23,0.19,0.4,0.44,0.51,0.73
		c0.11,0.3,0.17,0.64,0.17,1.02c0,0.33-0.04,0.62-0.11,0.87s-0.17,0.46-0.29,0.63s-0.25,0.29-0.39,0.39
		c-0.14,0.1-0.31,0.17-0.51,0.22c-0.2,0.05-0.43,0.07-0.69,0.07H670.42z M670.98,83.08h0.92c0.28,0,0.5-0.03,0.67-0.08
		c0.16-0.05,0.29-0.13,0.38-0.22c0.13-0.13,0.24-0.32,0.31-0.54s0.11-0.5,0.11-0.83c0-0.45-0.07-0.79-0.22-1.04
		c-0.15-0.24-0.33-0.4-0.54-0.49c-0.15-0.06-0.4-0.09-0.74-0.09h-0.9V83.08z"/>
	<path d="M677.81,82.08l0.57,0.14c-0.12,0.47-0.33,0.82-0.64,1.07c-0.31,0.25-0.69,0.37-1.14,0.37c-0.46,0-0.84-0.09-1.13-0.28
		c-0.29-0.19-0.51-0.46-0.66-0.82s-0.23-0.74-0.23-1.15c0-0.45,0.08-0.84,0.26-1.17s0.41-0.59,0.73-0.76
		c0.31-0.17,0.66-0.26,1.04-0.26c0.43,0,0.79,0.11,1.08,0.33s0.5,0.53,0.61,0.92l-0.56,0.13c-0.1-0.31-0.24-0.54-0.43-0.68
		s-0.43-0.21-0.71-0.21c-0.33,0-0.61,0.08-0.83,0.24s-0.38,0.37-0.47,0.64c-0.09,0.27-0.13,0.54-0.13,0.83
		c0,0.37,0.05,0.68,0.16,0.96c0.11,0.27,0.27,0.48,0.5,0.61s0.47,0.2,0.73,0.2c0.32,0,0.59-0.09,0.81-0.28
		S677.74,82.44,677.81,82.08z"/>
	<path d="M679.15,83.58v-0.6h0.6v0.6c0,0.22-0.04,0.4-0.12,0.54c-0.08,0.13-0.2,0.24-0.37,0.31l-0.15-0.23
		c0.11-0.05,0.19-0.12,0.25-0.22s0.08-0.23,0.09-0.41H679.15z"/>
	<path d="M682.76,81.9v-0.5l1.82,0v1.59c-0.28,0.22-0.57,0.39-0.86,0.5c-0.3,0.11-0.6,0.17-0.91,0.17c-0.42,0-0.81-0.09-1.15-0.27
		s-0.6-0.44-0.78-0.78s-0.26-0.72-0.26-1.15c0-0.42,0.09-0.81,0.26-1.17c0.17-0.36,0.43-0.63,0.75-0.81s0.71-0.26,1.13-0.26
		c0.31,0,0.59,0.05,0.84,0.15c0.25,0.1,0.45,0.24,0.59,0.42s0.25,0.41,0.33,0.7L684,80.63c-0.06-0.22-0.14-0.39-0.24-0.52
		s-0.23-0.22-0.41-0.3c-0.18-0.07-0.38-0.11-0.59-0.11c-0.26,0-0.48,0.04-0.67,0.12c-0.19,0.08-0.34,0.18-0.46,0.31
		s-0.21,0.27-0.27,0.42c-0.11,0.27-0.16,0.55-0.16,0.86c0,0.38,0.07,0.7,0.2,0.96c0.13,0.26,0.32,0.45,0.58,0.57s0.52,0.19,0.8,0.19
		c0.25,0,0.49-0.05,0.72-0.14c0.23-0.09,0.41-0.2,0.53-0.3v-0.8H682.76z"/>
	<path d="M688.23,79.29h0.57v2.48c0,0.43-0.05,0.77-0.15,1.03s-0.27,0.46-0.53,0.62c-0.25,0.16-0.59,0.24-1,0.24
		c-0.4,0-0.73-0.07-0.99-0.21s-0.44-0.34-0.55-0.6s-0.16-0.62-0.16-1.08v-2.48h0.57v2.48c0,0.37,0.03,0.65,0.1,0.82
		c0.07,0.18,0.19,0.31,0.36,0.41c0.17,0.1,0.38,0.14,0.62,0.14c0.42,0,0.72-0.09,0.89-0.28s0.27-0.55,0.27-1.09V79.29z"/>
	<path d="M689.82,83.58v-0.6h0.6v0.6c0,0.22-0.04,0.4-0.12,0.54c-0.08,0.13-0.2,0.24-0.37,0.31l-0.15-0.23
		c0.11-0.05,0.19-0.12,0.25-0.22s0.08-0.23,0.09-0.41H689.82z"/>
	<path d="M691.4,83.58v-4.29h0.86l1.02,3.04c0.09,0.28,0.16,0.5,0.21,0.64c0.05-0.16,0.12-0.39,0.23-0.69l1.03-2.99h0.76v4.29h-0.55
		v-3.59l-1.25,3.59h-0.51l-1.24-3.66v3.66H691.4z"/>
	<path d="M696.41,83.58v-4.29h1.62c0.29,0,0.5,0.01,0.65,0.04c0.21,0.04,0.39,0.1,0.53,0.2s0.26,0.24,0.34,0.41
		c0.09,0.18,0.13,0.37,0.13,0.59c0,0.37-0.12,0.67-0.35,0.93s-0.65,0.38-1.26,0.38h-1.1v1.75H696.41z M696.98,81.33h1.11
		c0.37,0,0.63-0.07,0.78-0.21s0.23-0.33,0.23-0.58c0-0.18-0.05-0.33-0.14-0.46c-0.09-0.13-0.21-0.21-0.36-0.25
		c-0.1-0.03-0.27-0.04-0.53-0.04h-1.1V81.33z"/>
	<path d="M699.71,83.58v-0.6h0.6v0.6c0,0.22-0.04,0.4-0.12,0.54c-0.08,0.13-0.2,0.24-0.37,0.31l-0.15-0.23
		c0.11-0.05,0.19-0.12,0.25-0.22s0.08-0.23,0.09-0.41H699.71z"/>
	<path d="M701.31,83.58v-4.29h1.62c0.29,0,0.5,0.01,0.65,0.04c0.21,0.04,0.39,0.1,0.53,0.2s0.26,0.24,0.34,0.41
		c0.09,0.18,0.13,0.37,0.13,0.59c0,0.37-0.12,0.67-0.35,0.93s-0.65,0.38-1.26,0.38h-1.1v1.75H701.31z M701.88,81.33h1.11
		c0.37,0,0.63-0.07,0.78-0.21s0.23-0.33,0.23-0.58c0-0.18-0.05-0.33-0.14-0.46c-0.09-0.13-0.21-0.21-0.36-0.25
		c-0.1-0.03-0.27-0.04-0.53-0.04h-1.1V81.33z"/>
	<path d="M705.32,83.58v-4.29h1.9c0.38,0,0.67,0.04,0.87,0.12c0.2,0.08,0.36,0.21,0.48,0.41s0.18,0.41,0.18,0.65
		c0,0.3-0.1,0.56-0.3,0.77s-0.5,0.34-0.91,0.4c0.15,0.07,0.26,0.14,0.34,0.21c0.17,0.15,0.32,0.34,0.47,0.57l0.75,1.17h-0.71
		l-0.57-0.89c-0.17-0.26-0.3-0.46-0.41-0.59s-0.2-0.23-0.29-0.29c-0.09-0.05-0.17-0.09-0.26-0.11c-0.06-0.01-0.17-0.02-0.32-0.02
		h-0.66v1.91H705.32z M705.89,81.18h1.22c0.26,0,0.46-0.03,0.61-0.08c0.15-0.05,0.26-0.14,0.33-0.26c0.08-0.12,0.11-0.25,0.11-0.38
		c0-0.2-0.07-0.37-0.22-0.5s-0.38-0.2-0.7-0.2h-1.36V81.18z"/>
	<path d="M709.71,83.58v-0.6h0.6v0.6c0,0.22-0.04,0.4-0.12,0.54c-0.08,0.13-0.2,0.24-0.37,0.31l-0.15-0.23
		c0.11-0.05,0.19-0.12,0.25-0.22s0.08-0.23,0.09-0.41H709.71z"/>
	<path d="M712.54,83.58l-1.66-4.29h0.62l1.12,3.12c0.09,0.25,0.17,0.48,0.23,0.7c0.07-0.23,0.14-0.47,0.23-0.7l1.16-3.12h0.58
		l-1.68,4.29H712.54z"/>
	<path d="M715.41,83.58v-4.29h0.57v4.29H715.41z"/>
	<path d="M717.79,84.77h-1.16v-0.44h0.64v-4.61h-0.64v-0.44h1.16V84.77z"/>
</g>
</svg>
