<?xml version="1.0" encoding="utf-8"?>
<!-- Generator: Adobe Illustrator 24.2.3, SVG Export Plug-In . SVG Version: 6.00 Build 0)  -->
<svg version="1.1" id="Layer_1" xmlns="http://www.w3.org/2000/svg" xmlns:xlink="http://www.w3.org/1999/xlink" x="0px" y="0px"
	 viewBox="0 0 728 90" style="enable-background:new 0 0 728 90;" xml:space="preserve">
<style type="text/css">
	.st0{fill:#FF7F30;}
	.st1{fill:#FFFFFF;}
</style>
<rect x="594.98" y="38.34" class="st0" width="122.36" height="29.96"/>
<g>
	<path class="st1" d="M610.36,48.19h2.74l4.55,12.16h-2.78l-0.92-2.71h-4.55l-0.95,2.71h-2.71L610.36,48.19z M610.1,55.65h3.15
		l-1.53-4.46h-0.03L610.1,55.65z"/>
	<path class="st1" d="M618.7,48.19h5.48c3.03,0,4.21,1.92,4.21,3.9s-1.17,3.9-4.21,3.9h-2.81v4.36h-2.67V48.19z M621.37,53.91h2.08
		c1.24,0,2.35-0.27,2.35-1.82s-1.11-1.82-2.35-1.82h-2.08V53.91z"/>
	<path class="st1" d="M630.05,48.19h5.48c3.03,0,4.21,1.92,4.21,3.9s-1.17,3.9-4.21,3.9h-2.81v4.36h-2.67V48.19z M632.73,53.91h2.08
		c1.24,0,2.35-0.27,2.35-1.82s-1.11-1.82-2.35-1.82h-2.08V53.91z"/>
	<path class="st1" d="M641.41,48.19h2.67v9.91h5.93v2.25h-8.6V48.19z"/>
	<path class="st1" d="M652.78,55.61l-4.48-7.42h3.01l2.84,4.8l2.83-4.8h2.98l-4.51,7.49v4.67h-2.67V55.61z"/>
	<path class="st1" d="M665.72,48.19h2.66l5.08,8.16h0.03v-8.16h2.5v12.16h-2.67l-5.06-8.14h-0.03v8.14h-2.5V48.19z"/>
	<path class="st1" d="M683.78,47.9c3.76,0,5.98,2.81,5.98,6.42c0,3.51-2.21,6.32-5.98,6.32c-3.76,0-5.98-2.81-5.98-6.32
		C677.81,50.71,680.02,47.9,683.78,47.9z M683.78,58.39c2.4,0,3.3-2.04,3.3-4.07c0-2.13-0.9-4.17-3.3-4.17s-3.3,2.04-3.3,4.17
		C680.48,56.34,681.38,58.39,683.78,58.39z"/>
	<path class="st1" d="M703.16,60.35h-2.66l-2.06-8.28h-0.03l-2.03,8.28h-2.71l-3.22-12.16h2.67l1.92,8.28h0.03l2.11-8.28h2.5
		l2.08,8.38h0.03l1.99-8.38h2.62L703.16,60.35z"/>
</g>
</svg>
