<?xml version="1.0" encoding="utf-8"?>
<!-- Generator: Adobe Illustrator 24.2.3, SVG Export Plug-In . SVG Version: 6.00 Build 0)  -->
<svg version="1.1" id="Layer_1" xmlns="http://www.w3.org/2000/svg" xmlns:xlink="http://www.w3.org/1999/xlink" x="0px" y="0px"
	 viewBox="0 0 300 600" style="enable-background:new 0 0 300 600;" xml:space="preserve">
<style type="text/css">
	.st0{fill:#FFFFFF;}
</style>
<g>
	<path class="st0" d="M54.96,122.66H53.1l-0.34-4.94h-0.08c-1.82,3.88-5.47,5.51-9.38,5.51c-8.55,0-12.8-6.73-12.8-14.13
		s4.26-14.13,12.8-14.13c5.7,0,10.33,3.08,11.32,9h-2.58c-0.34-3.12-3.57-6.8-8.74-6.8c-7.18,0-10.22,6-10.22,11.93
		s3.04,11.93,10.22,11.93c6,0,9.5-4.22,9.38-9.95h-9.23v-2.2h11.51V122.66z"/>
	<path class="st0" d="M60.4,113.5c0.04,3.5,1.86,7.71,6.46,7.71c3.5,0,5.4-2.05,6.16-5.02h2.39c-1.03,4.45-3.61,7.03-8.55,7.03
		c-6.23,0-8.85-4.79-8.85-10.37c0-5.17,2.62-10.37,8.85-10.37c6.31,0,8.81,5.51,8.62,11.02H60.4z M73.09,111.48
		c-0.11-3.61-2.36-6.99-6.23-6.99c-3.91,0-6.08,3.42-6.46,6.99H73.09z"/>
	<path class="st0" d="M81.45,103.05h3.99v2.01h-3.99v13.22c0,1.56,0.23,2.47,1.94,2.58c0.68,0,1.37-0.04,2.05-0.11v2.05
		c-0.72,0-1.41,0.08-2.13,0.08c-3.19,0-4.29-1.06-4.26-4.41v-13.41h-3.42v-2.01h3.42v-5.89h2.39V103.05z"/>
	<path class="st0" d="M110.48,108.79c-0.11-2.96-2.39-4.29-5.13-4.29c-2.13,0-4.64,0.84-4.64,3.38c0,2.13,2.43,2.89,4.07,3.31
		l3.19,0.72c2.74,0.42,5.59,2.01,5.59,5.43c0,4.26-4.22,5.89-7.87,5.89c-4.56,0-7.67-2.13-8.05-6.92h2.39
		c0.19,3.23,2.58,4.9,5.78,4.9c2.24,0,5.36-0.99,5.36-3.72c0-2.28-2.13-3.04-4.29-3.57l-3.08-0.68c-3.12-0.84-5.47-1.9-5.47-5.24
		c0-3.99,3.91-5.51,7.37-5.51c3.91,0,7.03,2.05,7.18,6.31H110.48z"/>
	<path class="st0" d="M116.37,103.05h2.2v3.72h0.08c1.1-2.66,3.84-4.29,6.99-4.29c5.97,0,8.81,4.83,8.81,10.37
		c0,5.55-2.85,10.37-8.81,10.37c-2.93,0-5.77-1.48-6.8-4.29h-0.08v10.98h-2.39V103.05z M125.64,104.49c-5.28,0-6.88,3.91-6.88,8.36
		c0,4.07,1.79,8.36,6.88,8.36c4.56,0,6.42-4.29,6.42-8.36S130.2,104.49,125.64,104.49z"/>
	<path class="st0" d="M138.94,113.5c0.04,3.5,1.86,7.71,6.46,7.71c3.5,0,5.4-2.05,6.16-5.02h2.39c-1.03,4.45-3.61,7.03-8.55,7.03
		c-6.23,0-8.85-4.79-8.85-10.37c0-5.17,2.62-10.37,8.85-10.37c6.31,0,8.82,5.51,8.62,11.02H138.94z M151.63,111.48
		c-0.11-3.61-2.36-6.99-6.23-6.99c-3.91,0-6.08,3.42-6.46,6.99H151.63z"/>
	<path class="st0" d="M170.63,109.21c-0.65-2.93-2.43-4.71-5.55-4.71c-4.6,0-6.88,4.18-6.88,8.36c0,4.18,2.28,8.36,6.88,8.36
		c2.96,0,5.4-2.32,5.7-5.58h2.39c-0.65,4.71-3.72,7.6-8.09,7.6c-6,0-9.27-4.75-9.27-10.37c0-5.62,3.27-10.37,9.27-10.37
		c4.18,0,7.41,2.24,7.94,6.72H170.63z"/>
	<path class="st0" d="M175.88,95.53h2.39v3.84h-2.39V95.53z M175.88,103.05h2.39v19.6h-2.39V103.05z"/>
	<path class="st0" d="M182,109.05c0.23-4.6,3.46-6.57,7.94-6.57c3.46,0,7.22,1.06,7.22,6.31v10.41c0,0.91,0.46,1.44,1.41,1.44
		c0.27,0,0.57-0.08,0.76-0.15v2.01c-0.53,0.11-0.91,0.15-1.56,0.15c-2.43,0-2.81-1.37-2.81-3.42h-0.08
		c-1.67,2.55-3.38,3.99-7.14,3.99c-3.61,0-6.57-1.79-6.57-5.74c0-5.51,5.36-5.7,10.52-6.31c1.98-0.23,3.08-0.49,3.08-2.66
		c0-3.23-2.32-4.03-5.13-4.03c-2.96,0-5.17,1.37-5.24,4.56H182z M194.76,111.94h-0.08c-0.3,0.57-1.37,0.76-2.01,0.87
		c-4.07,0.72-9.12,0.68-9.12,4.52c0,2.39,2.13,3.88,4.37,3.88c3.65,0,6.88-2.32,6.84-6.15V111.94z"/>
	<path class="st0" d="M201.38,95.53h2.39v27.13h-2.39V95.53z"/>
</g>
<g>
	<path class="st0" d="M47.9,159.06c-0.04,5.85-2.28,9.42-8.7,9.42c-3.91,0-7.79-1.75-8.13-5.93h2.39c0.53,2.89,3.08,3.91,5.74,3.91
		c4.41,0,6.31-2.62,6.31-7.41v-2.66h-0.08c-1.1,2.39-3.42,4.03-6.23,4.03c-6.27,0-8.85-4.48-8.85-10.07c0-5.4,3.19-9.88,8.85-9.88
		c2.85,0,5.28,1.79,6.23,3.95h0.08v-3.38h2.39V159.06z M45.5,150.62c0-3.84-1.79-8.13-6.31-8.13c-4.56,0-6.46,4.07-6.46,8.13
		c0,3.95,2.05,7.79,6.46,7.79C43.34,158.41,45.5,154.61,45.5,150.62z"/>
	<path class="st0" d="M51.74,141.05h2.2v4.6h0.08c1.22-3.15,3.88-5.02,7.41-4.86v2.39c-4.33-0.23-7.29,2.96-7.29,7.03v10.45h-2.39
		V141.05z"/>
	<path class="st0" d="M80.08,150.85c0,5.62-3.27,10.37-9.27,10.37s-9.27-4.75-9.27-10.37c0-5.62,3.27-10.37,9.27-10.37
		S80.08,145.23,80.08,150.85z M63.93,150.85c0,4.18,2.28,8.36,6.88,8.36s6.88-4.18,6.88-8.36c0-4.18-2.28-8.36-6.88-8.36
		S63.93,146.67,63.93,150.85z"/>
	<path class="st0" d="M98.81,160.66h-2.2v-3.53h-0.08c-1.25,2.62-3.84,4.1-6.76,4.1c-4.94,0-6.88-2.89-6.88-7.45v-12.73h2.39v12.77
		c0.11,3.53,1.44,5.4,5.24,5.4c4.1,0,5.89-3.88,5.89-7.86v-10.3h2.39V160.66z"/>
	<path class="st0" d="M102.65,141.05h2.2v3.72h0.08c1.1-2.66,3.84-4.29,6.99-4.29c5.97,0,8.81,4.83,8.81,10.37
		c0,5.55-2.85,10.37-8.81,10.37c-2.93,0-5.77-1.48-6.8-4.29h-0.08v10.98h-2.39V141.05z M111.93,142.49c-5.28,0-6.88,3.91-6.88,8.36
		c0,4.07,1.79,8.36,6.88,8.36c4.56,0,6.42-4.29,6.42-8.36S116.48,142.49,111.93,142.49z"/>
	<path class="st0" d="M134.35,141.05h2.2v4.6h0.08c1.22-3.15,3.88-5.02,7.41-4.86v2.39c-4.33-0.23-7.29,2.96-7.29,7.03v10.45h-2.39
		V141.05z"/>
	<path class="st0" d="M145.21,147.05c0.23-4.6,3.46-6.57,7.94-6.57c3.46,0,7.22,1.06,7.22,6.31v10.41c0,0.91,0.46,1.44,1.41,1.44
		c0.27,0,0.57-0.08,0.76-0.15v2.01c-0.53,0.11-0.91,0.15-1.56,0.15c-2.43,0-2.81-1.37-2.81-3.42h-0.08
		c-1.67,2.55-3.38,3.99-7.14,3.99c-3.61,0-6.57-1.79-6.57-5.74c0-5.51,5.36-5.7,10.52-6.31c1.98-0.23,3.08-0.49,3.08-2.66
		c0-3.23-2.32-4.03-5.13-4.03c-2.96,0-5.17,1.37-5.24,4.56H145.21z M157.98,149.94h-0.08c-0.3,0.57-1.37,0.76-2.01,0.87
		c-4.07,0.72-9.12,0.68-9.12,4.52c0,2.39,2.13,3.88,4.37,3.88c3.65,0,6.88-2.32,6.84-6.15V149.94z"/>
	<path class="st0" d="M167.86,141.05h3.99v2.01h-3.99v13.22c0,1.56,0.23,2.47,1.94,2.58c0.68,0,1.37-0.04,2.05-0.11v2.05
		c-0.72,0-1.41,0.08-2.13,0.08c-3.19,0-4.29-1.06-4.25-4.41v-13.41h-3.42v-2.01h3.42v-5.89h2.39V141.05z"/>
	<path class="st0" d="M175.12,151.5c0.04,3.5,1.86,7.71,6.46,7.71c3.5,0,5.4-2.05,6.16-5.02h2.39c-1.03,4.45-3.61,7.03-8.55,7.03
		c-6.23,0-8.85-4.79-8.85-10.37c0-5.17,2.62-10.37,8.85-10.37c6.31,0,8.81,5.51,8.62,11.02H175.12z M187.81,149.48
		c-0.11-3.61-2.36-6.99-6.23-6.99c-3.91,0-6.08,3.42-6.46,6.99H187.81z"/>
	<path class="st0" d="M204.72,146.79c-0.11-2.96-2.39-4.29-5.13-4.29c-2.13,0-4.63,0.84-4.63,3.38c0,2.13,2.43,2.89,4.06,3.31
		l3.19,0.72c2.74,0.42,5.58,2.01,5.58,5.43c0,4.26-4.22,5.89-7.87,5.89c-4.56,0-7.67-2.13-8.05-6.92h2.39
		c0.19,3.23,2.58,4.9,5.78,4.9c2.24,0,5.36-0.99,5.36-3.72c0-2.28-2.13-3.04-4.29-3.57l-3.08-0.68c-3.12-0.84-5.47-1.9-5.47-5.24
		c0-3.99,3.91-5.51,7.37-5.51c3.91,0,7.03,2.05,7.18,6.31H204.72z"/>
	<path class="st0" d="M238.65,150.85c0,5.62-3.27,10.37-9.27,10.37s-9.27-4.75-9.27-10.37c0-5.62,3.27-10.37,9.27-10.37
		S238.65,145.23,238.65,150.85z M222.5,150.85c0,4.18,2.28,8.36,6.88,8.36s6.88-4.18,6.88-8.36c0-4.18-2.28-8.36-6.88-8.36
		S222.5,146.67,222.5,150.85z"/>
	<path class="st0" d="M241.54,141.05h2.39v3.38h0.08c0.87-2.36,3.5-3.95,6.27-3.95c5.51,0,7.18,2.89,7.18,7.56v12.61h-2.39v-12.23
		c0-3.38-1.1-5.93-4.98-5.93c-3.8,0-6.08,2.89-6.15,6.72v11.44h-2.39V141.05z"/>
</g>
<g>
	<path class="st0" d="M31.79,171.53h2.58v24.92h15.2v2.2H31.79V171.53z"/>
	<path class="st0" d="M52.19,189.5c0.04,3.5,1.86,7.71,6.46,7.71c3.5,0,5.4-2.05,6.16-5.02h2.39c-1.03,4.45-3.61,7.03-8.55,7.03
		c-6.23,0-8.85-4.79-8.85-10.37c0-5.17,2.62-10.37,8.85-10.37c6.31,0,8.81,5.51,8.62,11.02H52.19z M64.88,187.48
		c-0.11-3.61-2.36-6.99-6.23-6.99c-3.91,0-6.08,3.42-6.46,6.99H64.88z"/>
	<path class="st0" d="M67.2,179.05h2.66l6.16,17.21h0.08l6.08-17.21h2.47l-7.33,19.6h-2.55L67.2,179.05z"/>
	<path class="st0" d="M87.15,189.5c0.04,3.5,1.86,7.71,6.46,7.71c3.5,0,5.4-2.05,6.16-5.02h2.39c-1.03,4.45-3.61,7.03-8.55,7.03
		c-6.23,0-8.85-4.79-8.85-10.37c0-5.17,2.62-10.37,8.85-10.37c6.31,0,8.81,5.51,8.62,11.02H87.15z M99.84,187.48
		c-0.11-3.61-2.36-6.99-6.23-6.99c-3.91,0-6.08,3.42-6.46,6.99H99.84z"/>
	<path class="st0" d="M105.01,171.53h2.39v27.13h-2.39V171.53z"/>
	<path class="st0" d="M119.38,171.53h21.5v2.2h-9.46v24.92h-2.58v-24.92h-9.46V171.53z"/>
	<path class="st0" d="M140.08,189.5c0.04,3.5,1.86,7.71,6.46,7.71c3.5,0,5.4-2.05,6.16-5.02h2.39c-1.03,4.45-3.61,7.03-8.55,7.03
		c-6.23,0-8.85-4.79-8.85-10.37c0-5.17,2.62-10.37,8.85-10.37c6.31,0,8.82,5.51,8.62,11.02H140.08z M152.77,187.48
		c-0.11-3.61-2.36-6.99-6.23-6.99c-3.91,0-6.08,3.42-6.46,6.99H152.77z"/>
	<path class="st0" d="M157.91,179.05h2.2v4.6h0.08c1.22-3.15,3.88-5.02,7.41-4.86v2.39c-4.33-0.23-7.29,2.96-7.29,7.03v10.45h-2.39
		V179.05z"/>
	<path class="st0" d="M169.42,179.05h2.2v3.31h0.11c1.25-2.36,3.3-3.88,6.42-3.88c2.58,0,4.9,1.25,5.62,3.84
		c1.18-2.58,3.65-3.84,6.23-3.84c4.29,0,6.5,2.24,6.5,6.88v13.3h-2.39v-13.18c0-3.23-1.22-4.98-4.63-4.98
		c-4.14,0-5.32,3.42-5.32,7.07v11.09h-2.39v-13.3c0.04-2.66-1.06-4.86-4.1-4.86c-4.14,0-5.81,3.12-5.85,7.22v10.94h-2.39V179.05z"/>
</g>
<g>
	<path class="st0" d="M31.79,209.53h2.58v24.92h15.2v2.2H31.79V209.53z"/>
	<path class="st0" d="M51.32,209.53h2.39v3.84h-2.39V209.53z M51.32,217.05h2.39v19.6h-2.39V217.05z"/>
	<path class="st0" d="M65.26,219.06h-3.88v17.59h-2.39v-17.59h-3.34v-2.01h3.34v-1.79c-0.04-3.38,0.91-5.74,4.75-5.74
		c0.68,0,1.25,0.04,2.01,0.15v2.05c-0.65-0.11-1.18-0.19-1.75-0.19c-2.66,0-2.58,1.67-2.62,3.8v1.71h3.88V219.06z"/>
	<path class="st0" d="M67.81,227.5c0.04,3.5,1.86,7.71,6.46,7.71c3.5,0,5.4-2.05,6.16-5.02h2.39c-1.03,4.45-3.61,7.03-8.55,7.03
		c-6.23,0-8.85-4.79-8.85-10.37c0-5.17,2.62-10.37,8.85-10.37c6.31,0,8.81,5.51,8.62,11.02H67.81z M80.5,225.48
		c-0.11-3.61-2.36-6.99-6.23-6.99c-3.91,0-6.08,3.42-6.46,6.99H80.5z"/>
	<path class="st0" d="M96.61,209.53h2.58v27.13h-2.58V209.53z"/>
	<path class="st0" d="M103.53,217.05h2.39v3.38H106c0.87-2.36,3.5-3.95,6.27-3.95c5.51,0,7.18,2.89,7.18,7.56v12.61h-2.39v-12.23
		c0-3.38-1.1-5.93-4.98-5.93c-3.8,0-6.08,2.89-6.16,6.72v11.44h-2.39V217.05z"/>
	<path class="st0" d="M134.95,222.79c-0.11-2.96-2.39-4.29-5.13-4.29c-2.13,0-4.64,0.84-4.64,3.38c0,2.13,2.43,2.89,4.07,3.31
		l3.19,0.72c2.74,0.42,5.59,2.01,5.59,5.43c0,4.26-4.22,5.89-7.87,5.89c-4.56,0-7.67-2.13-8.05-6.92h2.39
		c0.19,3.23,2.58,4.9,5.78,4.9c2.24,0,5.36-0.99,5.36-3.72c0-2.28-2.13-3.04-4.29-3.57l-3.08-0.68c-3.12-0.84-5.47-1.9-5.47-5.24
		c0-3.99,3.91-5.51,7.37-5.51c3.91,0,7.03,2.05,7.18,6.31H134.95z"/>
	<path class="st0" d="M156.61,236.66h-2.2v-3.53h-0.08c-1.25,2.62-3.84,4.1-6.76,4.1c-4.94,0-6.88-2.89-6.88-7.45v-12.73h2.39v12.77
		c0.11,3.53,1.44,5.4,5.24,5.4c4.1,0,5.89-3.88,5.89-7.86v-10.3h2.39V236.66z"/>
	<path class="st0" d="M160.41,217.05h2.2v4.6h0.08c1.22-3.15,3.88-5.02,7.41-4.86v2.39c-4.33-0.23-7.29,2.96-7.29,7.03v10.45h-2.39
		V217.05z"/>
	<path class="st0" d="M171.32,223.05c0.23-4.6,3.46-6.57,7.94-6.57c3.46,0,7.22,1.06,7.22,6.31v10.41c0,0.91,0.46,1.44,1.41,1.44
		c0.27,0,0.57-0.08,0.76-0.15v2.01c-0.53,0.11-0.91,0.15-1.56,0.15c-2.43,0-2.81-1.37-2.81-3.42h-0.08
		c-1.67,2.55-3.38,3.99-7.14,3.99c-3.61,0-6.57-1.79-6.57-5.74c0-5.51,5.36-5.7,10.52-6.31c1.98-0.23,3.08-0.49,3.08-2.66
		c0-3.23-2.32-4.03-5.13-4.03c-2.96,0-5.17,1.37-5.24,4.56H171.32z M184.08,225.94h-0.08c-0.3,0.57-1.37,0.76-2.01,0.87
		c-4.07,0.72-9.12,0.68-9.12,4.52c0,2.39,2.13,3.88,4.37,3.88c3.65,0,6.88-2.32,6.84-6.15V225.94z"/>
	<path class="st0" d="M190.66,217.05h2.39v3.38h0.08c0.87-2.36,3.5-3.95,6.27-3.95c5.51,0,7.18,2.89,7.18,7.56v12.61h-2.39v-12.23
		c0-3.38-1.1-5.93-4.98-5.93c-3.8,0-6.08,2.89-6.15,6.72v11.44h-2.39V217.05z"/>
	<path class="st0" d="M224.25,223.21c-0.65-2.93-2.43-4.71-5.55-4.71c-4.6,0-6.88,4.18-6.88,8.36c0,4.18,2.28,8.36,6.88,8.36
		c2.96,0,5.4-2.32,5.7-5.58h2.39c-0.65,4.71-3.72,7.6-8.09,7.6c-6,0-9.27-4.75-9.27-10.37c0-5.62,3.27-10.37,9.27-10.37
		c4.18,0,7.41,2.24,7.94,6.72H224.25z"/>
	<path class="st0" d="M230.98,227.5c0.04,3.5,1.86,7.71,6.46,7.71c3.5,0,5.4-2.05,6.16-5.02h2.39c-1.03,4.45-3.61,7.03-8.55,7.03
		c-6.23,0-8.85-4.79-8.85-10.37c0-5.17,2.62-10.37,8.85-10.37c6.31,0,8.81,5.51,8.62,11.02H230.98z M243.67,225.48
		c-0.11-3.61-2.36-6.99-6.23-6.99c-3.91,0-6.08,3.42-6.46,6.99H243.67z"/>
	<path class="st0" d="M249.25,236.66v-4.03h3.19v4.03H249.25z"/>
</g>
</svg>
