<?xml version="1.0" encoding="utf-8"?>
<!-- Generator: Adobe Illustrator 24.2.3, SVG Export Plug-In . SVG Version: 6.00 Build 0)  -->
<svg version="1.1" id="Layer_1" xmlns="http://www.w3.org/2000/svg" xmlns:xlink="http://www.w3.org/1999/xlink" x="0px" y="0px"
	 viewBox="0 0 300 600" style="enable-background:new 0 0 300 600;" xml:space="preserve">
<style type="text/css">
	.st0{fill:#006098;}
</style>
<g>
	<path class="st0" d="M30.42,87.38h6.88v26.42h-6.88V87.38z"/>
	<path class="st0" d="M46.36,107.47c0,0.96,0.41,1.67,1.04,2.15c0.59,0.44,1.44,0.67,2.33,0.67c1.22,0,2.96-0.52,2.96-2.04
		c0-1.48-1.96-1.78-3.07-2.04c-3.96-1-8.92-1.11-8.92-6.29c0-4.63,5-5.88,8.77-5.88c4.22,0,8.62,1.22,8.84,6.22h-5.81
		c0-0.81-0.3-1.33-0.81-1.67s-1.22-0.48-2-0.48c-1.04,0-2.7,0.11-2.7,1.44c0,1.81,4.22,2.15,7.1,2.78c3.89,0.78,4.88,3.59,4.88,5.18
		c0,5.14-4.88,6.85-9.21,6.85c-4.55,0-9.21-1.52-9.4-6.88H46.36z"/>
	<path class="st0" d="M83.48,115.5c-1.52,4.22-3.77,4.74-8.03,4.74h-2.96v-5.11h2.18c1.44,0,2.52-0.81,2.52-2.15
		c0-1.04-1.22-4-1.59-5.03L70.64,94.6h6.66l3.63,12.51H81l3.63-12.51h6.44L83.48,115.5z"/>
	<path class="st0" d="M100.94,94.04c5.96,0,10.14,4.4,10.14,10.18s-4.18,10.14-10.14,10.14s-10.1-4.37-10.1-10.14
		S94.98,94.04,100.94,94.04z M100.94,109.55c2.92,0,3.85-2.89,3.85-5.33c0-2.44-0.93-5.37-3.85-5.37c-2.92,0-3.81,2.92-3.81,5.37
		C97.13,106.66,98.02,109.55,100.94,109.55z"/>
	<path class="st0" d="M132.8,113.8h-6.11v-2.63h-0.07c-1.18,1.96-3.63,3.18-5.85,3.18c-5.51,0-7.1-3.18-7.1-8.21V94.6h6.29v11.14
		c0,2.55,1.11,3.44,3.11,3.44c1.37,0,3.44-0.89,3.44-4.29V94.6h6.29V113.8z"/>
	<path class="st0" d="M136.64,94.6h6.11v3.37h0.07c0.92-2.44,3.07-3.74,5.77-3.74c0.48,0,1,0.04,1.48,0.15v5.74
		c-0.81-0.22-1.55-0.37-2.4-0.37c-3.11,0-4.74,2.15-4.74,4.55v9.51h-6.29V94.6z"/>
</g>
<g>
	<path class="st0" d="M30.38,124.38h6.29v26.42h-6.29V124.38z"/>
	<path class="st0" d="M46.85,129.19h-6.29v-4.81h6.29V129.19z M40.56,131.6h6.29v19.2h-6.29V131.6z"/>
	<path class="st0" d="M52.02,135.67h-3.03v-4.07h3.03c0-5.51,1.92-7.22,7.29-7.22c1,0,2.04,0.07,3.03,0.11v4.44
		c-0.59-0.07-1.15-0.11-1.7-0.11c-1.44,0-2.33,0.19-2.33,1.92v0.85h3.77v4.07h-3.77v15.13h-6.29V135.67z"/>
	<path class="st0" d="M68.93,142.74c0.11,2.63,1.63,4.37,4.29,4.37c1.52,0,3-0.7,3.59-2.11h5.88c-1.15,4.44-5.25,6.36-9.55,6.36
		c-6.25,0-10.51-3.77-10.51-10.21c0-5.88,4.7-10.1,10.36-10.1c6.88,0,10.32,5.18,10.03,11.69H68.93z M76.74,139.22
		c-0.11-2.15-1.63-3.92-3.74-3.92c-2.22,0-3.7,1.59-4.07,3.92H76.74z"/>
	<path class="st0" d="M103.68,129.19h-6.29v-4.81h6.29V129.19z M97.39,131.6h6.29v19.2h-6.29V131.6z"/>
	<path class="st0" d="M107.49,131.6h6.1v2.63h0.07c1.15-1.96,3.74-3.18,6.03-3.18c6.4,0,6.92,4.66,6.92,7.44v12.32h-6.29v-9.29
		c0-2.63,0.3-5.29-3.15-5.29c-2.37,0-3.4,2-3.4,4.11v10.47h-6.29V131.6z"/>
	<path class="st0" d="M135.24,144.47c0,0.96,0.41,1.67,1.04,2.15c0.59,0.44,1.44,0.67,2.33,0.67c1.22,0,2.96-0.52,2.96-2.04
		c0-1.48-1.96-1.78-3.07-2.04c-3.96-1-8.92-1.11-8.92-6.29c0-4.63,5-5.88,8.77-5.88c4.22,0,8.62,1.22,8.84,6.22h-5.81
		c0-0.81-0.3-1.33-0.81-1.67c-0.52-0.33-1.22-0.48-2-0.48c-1.04,0-2.7,0.11-2.7,1.44c0,1.81,4.22,2.15,7.1,2.78
		c3.89,0.78,4.88,3.59,4.88,5.18c0,5.14-4.88,6.85-9.21,6.85c-4.55,0-9.21-1.52-9.4-6.88H135.24z"/>
	<path class="st0" d="M169.54,150.8h-6.11v-2.63h-0.07c-1.18,1.96-3.63,3.18-5.85,3.18c-5.51,0-7.1-3.18-7.1-8.21V131.6h6.29v11.14
		c0,2.55,1.11,3.44,3.11,3.44c1.37,0,3.44-0.89,3.44-4.29V131.6h6.29V150.8z"/>
	<path class="st0" d="M173.38,131.6h6.11v3.37h0.07c0.92-2.44,3.07-3.74,5.77-3.74c0.48,0,1,0.04,1.48,0.15v5.74
		c-0.81-0.22-1.55-0.37-2.4-0.37c-3.11,0-4.74,2.15-4.74,4.55v9.51h-6.29V131.6z"/>
	<path class="st0" d="M188.29,137.52c0.11-2.52,1.29-4.14,3-5.14c1.7-0.96,3.92-1.33,6.11-1.33c4.55,0,8.95,1,8.95,6.44v8.4
		c0,1.63,0,3.4,0.74,4.92h-6.33c-0.22-0.59-0.3-1.18-0.37-1.81c-1.63,1.7-4.03,2.37-6.33,2.37c-3.66,0-6.55-1.85-6.55-5.81
		c0-6.25,6.81-5.77,11.17-6.66c1.07-0.22,1.67-0.59,1.67-1.78c0-1.44-1.74-2-3.03-2c-1.74,0-2.85,0.78-3.15,2.41H188.29z
		 M196.43,147.47c3,0,4-1.7,3.85-5.66c-0.89,0.56-2.52,0.67-3.88,1.04c-1.41,0.33-2.59,0.93-2.59,2.44
		C193.81,146.84,195.03,147.47,196.43,147.47z"/>
	<path class="st0" d="M210.05,131.6h6.11v2.63h0.07c1.15-1.96,3.74-3.18,6.03-3.18c6.4,0,6.92,4.66,6.92,7.44v12.32h-6.29v-9.29
		c0-2.63,0.3-5.29-3.15-5.29c-2.37,0-3.4,2-3.4,4.11v10.47h-6.29V131.6z"/>
	<path class="st0" d="M245.35,138.63c-0.04-1.63-1.48-2.78-3.07-2.78c-3.52,0-4.07,3-4.07,5.66c0,2.48,1.07,5.03,3.74,5.03
		c2.18,0,3.29-1.26,3.59-3.29h6.11c-0.55,5.14-4.55,8.1-9.66,8.1c-5.77,0-10.07-3.96-10.07-9.84c0-6.11,3.89-10.47,10.07-10.47
		c4.77,0,9.03,2.52,9.47,7.59H245.35z"/>
	<path class="st0" d="M259.55,142.74c0.11,2.63,1.63,4.37,4.29,4.37c1.52,0,3-0.7,3.59-2.11h5.88c-1.15,4.44-5.25,6.36-9.55,6.36
		c-6.25,0-10.51-3.77-10.51-10.21c0-5.88,4.7-10.1,10.36-10.1c6.88,0,10.32,5.18,10.03,11.69H259.55z M267.36,139.22
		c-0.11-2.15-1.63-3.92-3.74-3.92c-2.22,0-3.7,1.59-4.07,3.92H267.36z"/>
</g>
<g>
	<path class="st0" d="M30.16,167.04h6.29v13.62l5.74-6.4h7.29l-7.03,7.25l7.92,11.95h-7.59l-4.7-7.73l-1.63,1.59v6.14h-6.29V167.04z
		"/>
	<path class="st0" d="M55.98,185.4c0.11,2.63,1.63,4.37,4.29,4.37c1.52,0,3-0.7,3.59-2.11h5.88c-1.15,4.44-5.25,6.36-9.55,6.36
		c-6.25,0-10.51-3.77-10.51-10.21c0-5.88,4.7-10.1,10.36-10.1c6.88,0,10.32,5.18,10.03,11.69H55.98z M63.79,181.88
		c-0.11-2.15-1.63-3.92-3.74-3.92c-2.22,0-3.7,1.59-4.07,3.92H63.79z"/>
	<path class="st0" d="M78.04,185.4c0.11,2.63,1.63,4.37,4.29,4.37c1.52,0,3-0.7,3.59-2.11h5.88c-1.15,4.44-5.25,6.36-9.55,6.36
		c-6.25,0-10.51-3.77-10.51-10.21c0-5.88,4.7-10.1,10.36-10.1c6.88,0,10.32,5.18,10.03,11.69H78.04z M85.84,181.88
		c-0.11-2.15-1.63-3.92-3.74-3.92c-2.22,0-3.7,1.59-4.07,3.92H85.84z"/>
	<path class="st0" d="M94.76,174.26h5.99v2.22h0.07c1.22-1.81,3.07-2.77,5.29-2.77c6.03,0,8.58,5.18,8.58,10.58
		c0,5-2.66,9.73-8.1,9.73c-2.37,0-4.18-0.89-5.48-2.63h-0.07v8.51h-6.29V174.26z M100.83,183.66c0,3.37,0.96,5.55,3.81,5.55
		c2.81,0,3.77-2.92,3.77-5.55c0-2.44-0.96-5.14-3.74-5.14C102.97,178.51,100.83,179.7,100.83,183.66z"/>
	<path class="st0" d="M124.06,171.85h-6.29v-4.81h6.29V171.85z M117.77,174.26h6.29v19.2h-6.29V174.26z"/>
	<path class="st0" d="M127.87,174.26h6.1v2.63h0.07c1.15-1.96,3.74-3.18,6.03-3.18c6.4,0,6.92,4.66,6.92,7.44v12.32h-6.29v-9.29
		c0-2.63,0.3-5.29-3.15-5.29c-2.37,0-3.4,2-3.4,4.11v10.47h-6.29V174.26z"/>
	<path class="st0" d="M169.32,191.13c0,3.15-0.59,9.07-9.58,9.07c-4.48,0-8.7-1-9.44-6.14h6.29c0.15,0.85,0.48,1.37,1.07,1.67
		c0.56,0.3,1.33,0.41,2.29,0.41c3,0,3.29-2.11,3.29-4.48v-1.81h-0.07c-1.15,1.78-3.07,2.81-5.11,2.81c-5.81,0-8.44-4.14-8.44-9.55
		c0-5.11,3-9.4,8.44-9.4c2.29,0,4.03,1,5.14,2.96h0.07v-2.4h6.03V191.13z M159.58,178.51c-2.78,0-3.66,2.44-3.66,4.81
		c0,2.26,1.04,4.51,3.63,4.51c2.66,0,3.81-2.07,3.81-4.48C163.36,180.92,162.4,178.51,159.58,178.51z"/>
	<path class="st0" d="M203.43,193.46h-6.11v-2.63h-0.07c-1.18,1.96-3.63,3.18-5.85,3.18c-5.51,0-7.1-3.18-7.1-8.21v-11.54h6.29
		v11.14c0,2.55,1.11,3.44,3.11,3.44c1.37,0,3.44-0.89,3.44-4.29v-10.29h6.29V193.46z"/>
	<path class="st0" d="M207.16,174.26h5.99v2.22h0.07c1.22-1.81,3.07-2.77,5.29-2.77c6.03,0,8.58,5.18,8.58,10.58
		c0,5-2.66,9.73-8.1,9.73c-2.37,0-4.18-0.89-5.48-2.63h-0.07v8.51h-6.29V174.26z M213.23,183.66c0,3.37,0.96,5.55,3.81,5.55
		c2.81,0,3.77-2.92,3.77-5.55c0-2.44-0.96-5.14-3.74-5.14C215.38,178.51,213.23,179.7,213.23,183.66z"/>
	<path class="st0" d="M229.36,175.7c0.07-5.85,3.92-9.21,9.69-9.21c4.62,0,9.25,2.44,9.25,7.55c0,3.59-1.74,4.88-4.55,6.66
		c-1.92,1.26-2.41,1.81-2.44,4.03h-5.85v-1.85c0-2.89,1.63-4.14,3-5.14c1.52-1.04,2.96-1.81,2.96-3.66c0-1.41-1.07-2.26-2.41-2.26
		c-2.04,0-3.07,1.22-3.18,3.18v0.7H229.36z M234.95,186.58h6.88v6.88h-6.88V186.58z"/>
</g>
</svg>
