<?xml version="1.0" encoding="utf-8"?>
<!-- Generator: Adobe Illustrator 24.2.3, SVG Export Plug-In . SVG Version: 6.00 Build 0)  -->
<svg version="1.1" id="Layer_1" xmlns="http://www.w3.org/2000/svg" xmlns:xlink="http://www.w3.org/1999/xlink" x="0px" y="0px"
	 viewBox="0 0 300 600" style="enable-background:new 0 0 300 600;" xml:space="preserve">
<style type="text/css">
	.st0{fill:#373535;}
</style>
<g>
	<path class="st0" d="M28.56,585.58v-5.01h0.66v4.42h2.47v0.59H28.56z"/>
	<path class="st0" d="M32.23,583.11c0-0.59,0.06-1.07,0.18-1.43c0.12-0.36,0.3-0.64,0.54-0.84c0.24-0.2,0.54-0.29,0.91-0.29
		c0.27,0,0.5,0.05,0.71,0.16s0.37,0.26,0.5,0.47s0.24,0.45,0.31,0.75s0.11,0.69,0.11,1.18c0,0.59-0.06,1.06-0.18,1.42
		s-0.3,0.64-0.54,0.84c-0.24,0.2-0.54,0.3-0.91,0.3c-0.48,0-0.86-0.17-1.14-0.52C32.4,584.72,32.23,584.05,32.23,583.11z
		 M32.87,583.11c0,0.82,0.1,1.37,0.29,1.64c0.19,0.27,0.43,0.41,0.71,0.41s0.52-0.14,0.71-0.41c0.19-0.27,0.29-0.82,0.29-1.64
		c0-0.83-0.1-1.37-0.29-1.64c-0.19-0.27-0.43-0.41-0.72-0.41c-0.28,0-0.51,0.12-0.68,0.36C32.97,581.72,32.87,582.28,32.87,583.11z"
		/>
	<path class="st0" d="M37.07,582.86c-0.26-0.09-0.44-0.23-0.57-0.4s-0.18-0.38-0.18-0.62c0-0.36,0.13-0.67,0.39-0.92
		c0.26-0.25,0.61-0.37,1.05-0.37c0.44,0,0.79,0.13,1.06,0.38s0.4,0.56,0.4,0.93c0,0.23-0.06,0.44-0.18,0.61
		c-0.12,0.17-0.31,0.3-0.56,0.4c0.31,0.1,0.54,0.26,0.7,0.48c0.16,0.22,0.24,0.49,0.24,0.8c0,0.43-0.15,0.79-0.45,1.08
		c-0.3,0.29-0.7,0.44-1.2,0.44s-0.89-0.15-1.2-0.44s-0.45-0.66-0.45-1.1c0-0.33,0.08-0.6,0.25-0.82
		C36.53,583.09,36.77,582.94,37.07,582.86z M36.75,584.13c0,0.17,0.04,0.34,0.12,0.51c0.08,0.16,0.21,0.29,0.37,0.38
		s0.34,0.14,0.53,0.14c0.29,0,0.54-0.09,0.73-0.28s0.29-0.43,0.29-0.72c0-0.3-0.1-0.54-0.3-0.73c-0.2-0.19-0.44-0.29-0.74-0.29
		c-0.29,0-0.53,0.1-0.72,0.29C36.85,583.6,36.75,583.84,36.75,584.13z M36.95,581.82c0,0.24,0.08,0.43,0.23,0.58
		s0.35,0.23,0.59,0.23c0.24,0,0.43-0.07,0.58-0.22c0.15-0.15,0.23-0.33,0.23-0.55c0-0.23-0.08-0.42-0.23-0.57
		c-0.16-0.15-0.35-0.23-0.58-0.23c-0.23,0-0.43,0.08-0.58,0.23S36.95,581.61,36.95,581.82z"/>
	<path class="st0" d="M43.25,584.98v0.59h-3.31c0-0.15,0.02-0.29,0.07-0.43c0.08-0.22,0.22-0.45,0.4-0.67
		c0.19-0.22,0.45-0.47,0.81-0.76c0.54-0.45,0.91-0.8,1.1-1.06s0.29-0.51,0.29-0.74c0-0.24-0.09-0.45-0.26-0.62
		c-0.17-0.17-0.4-0.25-0.68-0.25c-0.3,0-0.53,0.09-0.71,0.27s-0.27,0.42-0.27,0.74l-0.63-0.06c0.04-0.47,0.21-0.83,0.49-1.08
		s0.66-0.37,1.14-0.37c0.48,0,0.86,0.13,1.14,0.4c0.28,0.27,0.42,0.6,0.42,0.99c0,0.2-0.04,0.4-0.12,0.59s-0.22,0.4-0.41,0.61
		c-0.19,0.21-0.51,0.51-0.95,0.88c-0.37,0.31-0.61,0.52-0.71,0.63s-0.19,0.22-0.26,0.33H43.25z"/>
	<path class="st0" d="M43.91,583.11c0-0.59,0.06-1.07,0.18-1.43c0.12-0.36,0.3-0.64,0.54-0.84c0.24-0.2,0.54-0.29,0.91-0.29
		c0.27,0,0.5,0.05,0.71,0.16s0.37,0.26,0.5,0.47s0.24,0.45,0.31,0.75s0.11,0.69,0.11,1.18c0,0.59-0.06,1.06-0.18,1.42
		s-0.3,0.64-0.54,0.84c-0.24,0.2-0.54,0.3-0.91,0.3c-0.48,0-0.86-0.17-1.14-0.52C44.08,584.72,43.91,584.05,43.91,583.11z
		 M44.54,583.11c0,0.82,0.1,1.37,0.29,1.64c0.19,0.27,0.43,0.41,0.71,0.41s0.52-0.14,0.71-0.41c0.19-0.27,0.29-0.82,0.29-1.64
		c0-0.83-0.1-1.37-0.29-1.64c-0.19-0.27-0.43-0.41-0.72-0.41c-0.28,0-0.51,0.12-0.68,0.36C44.65,581.72,44.54,582.28,44.54,583.11z"
		/>
	<path class="st0" d="M47.81,583.11c0-0.59,0.06-1.07,0.18-1.43c0.12-0.36,0.3-0.64,0.54-0.84c0.24-0.2,0.54-0.29,0.91-0.29
		c0.27,0,0.5,0.05,0.71,0.16s0.37,0.26,0.5,0.47s0.24,0.45,0.31,0.75s0.11,0.69,0.11,1.18c0,0.59-0.06,1.06-0.18,1.42
		s-0.3,0.64-0.54,0.84c-0.24,0.2-0.54,0.3-0.91,0.3c-0.48,0-0.86-0.17-1.14-0.52C47.97,584.72,47.81,584.05,47.81,583.11z
		 M48.44,583.11c0,0.82,0.1,1.37,0.29,1.64c0.19,0.27,0.43,0.41,0.71,0.41s0.52-0.14,0.71-0.41c0.19-0.27,0.29-0.82,0.29-1.64
		c0-0.83-0.1-1.37-0.29-1.64c-0.19-0.27-0.43-0.41-0.72-0.41c-0.28,0-0.51,0.12-0.68,0.36C48.54,581.72,48.44,582.28,48.44,583.11z"
		/>
	<path class="st0" d="M51.7,583.11c0-0.59,0.06-1.07,0.18-1.43c0.12-0.36,0.3-0.64,0.54-0.84c0.24-0.2,0.54-0.29,0.91-0.29
		c0.27,0,0.5,0.05,0.71,0.16s0.37,0.26,0.5,0.47s0.24,0.45,0.31,0.75s0.11,0.69,0.11,1.18c0,0.59-0.06,1.06-0.18,1.42
		s-0.3,0.64-0.54,0.84c-0.24,0.2-0.54,0.3-0.91,0.3c-0.48,0-0.86-0.17-1.14-0.52C51.86,584.72,51.7,584.05,51.7,583.11z
		 M52.33,583.11c0,0.82,0.1,1.37,0.29,1.64c0.19,0.27,0.43,0.41,0.71,0.41s0.52-0.14,0.71-0.41c0.19-0.27,0.29-0.82,0.29-1.64
		c0-0.83-0.1-1.37-0.29-1.64c-0.19-0.27-0.43-0.41-0.72-0.41c-0.28,0-0.51,0.12-0.68,0.36C52.44,581.72,52.33,582.28,52.33,583.11z"
		/>
	<path class="st0" d="M55.63,581.22v-0.59h3.24v0.48c-0.32,0.34-0.64,0.79-0.95,1.35c-0.31,0.56-0.56,1.14-0.73,1.74
		c-0.12,0.42-0.2,0.88-0.24,1.38h-0.63c0.01-0.39,0.08-0.87,0.23-1.43s0.36-1.1,0.64-1.62c0.28-0.52,0.57-0.96,0.88-1.31H55.63z"/>
	<path class="st0" d="M61.8,585.58h-0.62v-3.92c-0.15,0.14-0.34,0.28-0.58,0.42c-0.24,0.14-0.46,0.25-0.65,0.32v-0.59
		c0.34-0.16,0.65-0.36,0.9-0.59s0.44-0.45,0.55-0.67h0.4V585.58z"/>
	<path class="st0" d="M63.38,584.26l0.65-0.05c0.05,0.31,0.16,0.55,0.33,0.71c0.17,0.16,0.38,0.24,0.63,0.24
		c0.3,0,0.55-0.11,0.75-0.34c0.21-0.22,0.31-0.52,0.31-0.89c0-0.35-0.1-0.63-0.3-0.83c-0.2-0.2-0.46-0.3-0.77-0.3
		c-0.2,0-0.38,0.05-0.54,0.14s-0.28,0.21-0.38,0.35l-0.58-0.08l0.49-2.57h2.49v0.59h-2l-0.27,1.35c0.3-0.21,0.62-0.31,0.95-0.31
		c0.44,0,0.81,0.15,1.11,0.46c0.3,0.3,0.45,0.69,0.45,1.17c0,0.45-0.13,0.85-0.4,1.18c-0.32,0.41-0.76,0.61-1.32,0.61
		c-0.46,0-0.83-0.13-1.12-0.38C63.58,585.02,63.42,584.69,63.38,584.26z"/>
	<path class="st0" d="M67.31,581.22v-0.59h3.24v0.48c-0.32,0.34-0.64,0.79-0.95,1.35c-0.31,0.56-0.56,1.14-0.73,1.74
		c-0.12,0.42-0.2,0.88-0.24,1.38h-0.63c0.01-0.39,0.08-0.87,0.23-1.43s0.36-1.1,0.64-1.62c0.28-0.52,0.57-0.96,0.88-1.31H67.31z"/>
	<path class="st0" d="M71.35,586.97v-6.4h1.36v0.51h-0.74v5.38h0.74v0.51H71.35z"/>
	<path class="st0" d="M75.76,584.41l0.64,0.08c-0.1,0.37-0.29,0.66-0.56,0.86s-0.62,0.31-1.04,0.31c-0.53,0-0.95-0.16-1.26-0.49
		c-0.31-0.33-0.47-0.79-0.47-1.38c0-0.61,0.16-1.08,0.47-1.42s0.72-0.51,1.22-0.51c0.49,0,0.88,0.17,1.19,0.5
		c0.31,0.33,0.46,0.8,0.46,1.39c0,0.04,0,0.09,0,0.16h-2.71c0.02,0.4,0.14,0.71,0.34,0.92c0.2,0.21,0.46,0.32,0.76,0.32
		c0.23,0,0.42-0.06,0.58-0.18S75.67,584.67,75.76,584.41z M73.74,583.41h2.03c-0.03-0.3-0.1-0.53-0.23-0.69
		c-0.2-0.24-0.45-0.36-0.76-0.36c-0.28,0-0.52,0.09-0.71,0.28C73.87,582.84,73.77,583.1,73.74,583.41z"/>
	<path class="st0" d="M76.76,585.58l1.33-1.89l-1.23-1.74h0.77l0.56,0.85c0.1,0.16,0.19,0.3,0.25,0.41c0.1-0.15,0.19-0.28,0.28-0.4
		l0.61-0.86h0.73l-1.25,1.71l1.35,1.92H79.4l-0.75-1.13l-0.2-0.3l-0.95,1.43H76.76z"/>
	<path class="st0" d="M80.67,586.97v-5.02h0.56v0.47c0.13-0.18,0.28-0.32,0.45-0.42c0.17-0.09,0.37-0.14,0.6-0.14
		c0.31,0,0.58,0.08,0.82,0.24s0.42,0.38,0.54,0.67c0.12,0.29,0.18,0.61,0.18,0.96c0,0.37-0.07,0.71-0.2,1
		c-0.13,0.3-0.33,0.53-0.58,0.68c-0.25,0.16-0.52,0.24-0.8,0.24c-0.21,0-0.39-0.04-0.55-0.13c-0.16-0.09-0.3-0.2-0.4-0.33v1.77
		H80.67z M81.23,583.78c0,0.47,0.09,0.81,0.28,1.04s0.42,0.33,0.69,0.33c0.27,0,0.51-0.12,0.7-0.35c0.2-0.23,0.29-0.59,0.29-1.08
		c0-0.46-0.1-0.81-0.29-1.04c-0.19-0.23-0.42-0.35-0.68-0.35c-0.26,0-0.49,0.12-0.7,0.37C81.33,582.96,81.23,583.31,81.23,583.78z"
		/>
	<path class="st0" d="M84.4,583.11c0-0.59,0.06-1.07,0.18-1.43c0.12-0.36,0.3-0.64,0.54-0.84c0.24-0.2,0.54-0.29,0.91-0.29
		c0.27,0,0.5,0.05,0.71,0.16s0.37,0.26,0.5,0.47s0.24,0.45,0.31,0.75s0.11,0.69,0.11,1.18c0,0.59-0.06,1.06-0.18,1.42
		s-0.3,0.64-0.54,0.84c-0.24,0.2-0.54,0.3-0.91,0.3c-0.48,0-0.86-0.17-1.14-0.52C84.56,584.72,84.4,584.05,84.4,583.11z
		 M85.03,583.11c0,0.82,0.1,1.37,0.29,1.64c0.19,0.27,0.43,0.41,0.71,0.41s0.52-0.14,0.71-0.41c0.19-0.27,0.29-0.82,0.29-1.64
		c0-0.83-0.1-1.37-0.29-1.64c-0.19-0.27-0.43-0.41-0.72-0.41c-0.28,0-0.51,0.12-0.68,0.36C85.13,581.72,85.03,582.28,85.03,583.11z"
		/>
	<path class="st0" d="M89.23,582.86c-0.26-0.09-0.44-0.23-0.57-0.4s-0.18-0.38-0.18-0.62c0-0.36,0.13-0.67,0.39-0.92
		c0.26-0.25,0.61-0.37,1.05-0.37c0.44,0,0.79,0.13,1.06,0.38s0.4,0.56,0.4,0.93c0,0.23-0.06,0.44-0.18,0.61
		c-0.12,0.17-0.31,0.3-0.56,0.4c0.31,0.1,0.54,0.26,0.7,0.48c0.16,0.22,0.24,0.49,0.24,0.8c0,0.43-0.15,0.79-0.45,1.08
		c-0.3,0.29-0.7,0.44-1.2,0.44s-0.89-0.15-1.2-0.44s-0.45-0.66-0.45-1.1c0-0.33,0.08-0.6,0.25-0.82
		C88.69,583.09,88.93,582.94,89.23,582.86z M88.91,584.13c0,0.17,0.04,0.34,0.12,0.51c0.08,0.16,0.21,0.29,0.37,0.38
		s0.34,0.14,0.53,0.14c0.29,0,0.54-0.09,0.73-0.28s0.29-0.43,0.29-0.72c0-0.3-0.1-0.54-0.3-0.73c-0.2-0.19-0.44-0.29-0.74-0.29
		c-0.29,0-0.53,0.1-0.72,0.29C89.01,583.6,88.91,583.84,88.91,584.13z M89.11,581.82c0,0.24,0.08,0.43,0.23,0.58
		s0.35,0.23,0.59,0.23c0.24,0,0.43-0.07,0.58-0.22c0.15-0.15,0.23-0.33,0.23-0.55c0-0.23-0.08-0.42-0.23-0.57
		c-0.16-0.15-0.35-0.23-0.58-0.23c-0.23,0-0.43,0.08-0.58,0.23S89.11,581.61,89.11,581.82z"/>
	<path class="st0" d="M95.41,584.98v0.59H92.1c0-0.15,0.02-0.29,0.07-0.43c0.08-0.22,0.22-0.45,0.4-0.67
		c0.19-0.22,0.45-0.47,0.81-0.76c0.54-0.45,0.91-0.8,1.1-1.06s0.29-0.51,0.29-0.74c0-0.24-0.09-0.45-0.26-0.62
		c-0.17-0.17-0.4-0.25-0.68-0.25c-0.3,0-0.53,0.09-0.71,0.27s-0.27,0.42-0.27,0.74l-0.63-0.06c0.04-0.47,0.21-0.83,0.49-1.08
		s0.66-0.37,1.14-0.37c0.48,0,0.86,0.13,1.14,0.4c0.28,0.27,0.42,0.6,0.42,0.99c0,0.2-0.04,0.4-0.12,0.59s-0.22,0.4-0.41,0.61
		c-0.19,0.21-0.51,0.51-0.95,0.88c-0.37,0.31-0.61,0.52-0.71,0.63s-0.19,0.22-0.26,0.33H95.41z"/>
	<path class="st0" d="M98.39,585.58h-0.62v-3.92c-0.15,0.14-0.34,0.28-0.58,0.42c-0.24,0.14-0.46,0.25-0.65,0.32v-0.59
		c0.34-0.16,0.65-0.36,0.9-0.59s0.44-0.45,0.55-0.67h0.4V585.58z"/>
	<path class="st0" d="M101.17,586.97h-1.36v-0.51h0.74v-5.38h-0.74v-0.51h1.36V586.97z"/>
	<path class="st0" d="M102.1,586.97v-6.4h1.36v0.51h-0.74v5.38h0.74v0.51H102.1z"/>
	<path class="st0" d="M103.56,585.58l1.92-5.01h0.71l2.05,5.01h-0.76l-0.58-1.52h-2.1l-0.55,1.52H103.56z M105,583.52h1.7
		l-0.52-1.39c-0.16-0.42-0.28-0.77-0.36-1.04c-0.06,0.32-0.15,0.64-0.27,0.96L105,583.52z"/>
	<path class="st0" d="M108.68,585.58v-5.01h0.62v5.01H108.68z"/>
	<path class="st0" d="M110.24,585.58v-5.01h0.62v5.01H110.24z"/>
	<path class="st0" d="M113.6,583.97l0.63-0.05c0.03,0.25,0.1,0.46,0.21,0.62c0.11,0.16,0.28,0.29,0.5,0.39
		c0.23,0.1,0.48,0.15,0.77,0.15c0.25,0,0.48-0.04,0.67-0.11s0.34-0.18,0.43-0.31c0.09-0.13,0.14-0.27,0.14-0.43
		c0-0.16-0.05-0.29-0.14-0.41s-0.24-0.22-0.45-0.3c-0.13-0.05-0.43-0.13-0.89-0.24s-0.78-0.21-0.97-0.31
		c-0.24-0.12-0.42-0.28-0.54-0.47c-0.12-0.19-0.18-0.39-0.18-0.62c0-0.25,0.07-0.49,0.22-0.71s0.35-0.39,0.63-0.5
		c0.28-0.11,0.58-0.17,0.92-0.17c0.37,0,0.7,0.06,0.98,0.18c0.28,0.12,0.5,0.3,0.65,0.53s0.23,0.5,0.25,0.79l-0.64,0.05
		c-0.03-0.32-0.15-0.56-0.35-0.72c-0.2-0.16-0.49-0.24-0.87-0.24c-0.4,0-0.69,0.07-0.88,0.22c-0.18,0.15-0.27,0.32-0.27,0.53
		c0,0.18,0.06,0.33,0.19,0.44c0.13,0.12,0.46,0.24,1,0.36c0.54,0.12,0.91,0.23,1.11,0.32c0.29,0.13,0.51,0.3,0.65,0.51
		s0.21,0.44,0.21,0.71c0,0.27-0.08,0.52-0.23,0.75c-0.15,0.24-0.37,0.42-0.66,0.55c-0.29,0.13-0.61,0.2-0.97,0.2
		c-0.45,0-0.83-0.07-1.14-0.2c-0.31-0.13-0.55-0.33-0.72-0.6C113.71,584.6,113.61,584.3,113.6,583.97z"/>
	<path class="st0" d="M119.76,585.03l0.09,0.54c-0.17,0.04-0.33,0.05-0.46,0.05c-0.22,0-0.4-0.04-0.52-0.11
		c-0.12-0.07-0.21-0.16-0.26-0.28s-0.08-0.36-0.08-0.73v-2.09h-0.45v-0.48h0.45v-0.9l0.61-0.37v1.27h0.62v0.48h-0.62v2.12
		c0,0.18,0.01,0.29,0.03,0.34c0.02,0.05,0.06,0.09,0.11,0.12c0.05,0.03,0.12,0.04,0.21,0.04
		C119.56,585.05,119.65,585.04,119.76,585.03z"/>
	<path class="st0" d="M122.73,585.13c-0.23,0.19-0.45,0.33-0.66,0.41c-0.21,0.08-0.44,0.12-0.68,0.12c-0.4,0-0.71-0.1-0.92-0.29
		c-0.21-0.2-0.32-0.44-0.32-0.75c0-0.18,0.04-0.34,0.12-0.49c0.08-0.15,0.19-0.26,0.32-0.35c0.13-0.09,0.28-0.16,0.44-0.2
		c0.12-0.03,0.3-0.06,0.55-0.09c0.5-0.06,0.86-0.13,1.1-0.21c0-0.08,0-0.14,0-0.16c0-0.25-0.06-0.43-0.17-0.53
		c-0.16-0.14-0.39-0.21-0.7-0.21c-0.29,0-0.5,0.05-0.64,0.15c-0.14,0.1-0.24,0.28-0.31,0.54l-0.6-0.08
		c0.05-0.26,0.14-0.47,0.27-0.62s0.31-0.28,0.54-0.37c0.24-0.08,0.51-0.13,0.82-0.13c0.31,0,0.56,0.04,0.76,0.11
		s0.34,0.17,0.43,0.28s0.15,0.25,0.19,0.42c0.02,0.1,0.03,0.29,0.03,0.57v0.82c0,0.57,0.01,0.93,0.04,1.09
		c0.03,0.15,0.08,0.3,0.16,0.44h-0.64C122.79,585.45,122.75,585.3,122.73,585.13z M122.68,583.75c-0.22,0.09-0.56,0.17-1,0.23
		c-0.25,0.04-0.43,0.08-0.54,0.12c-0.1,0.05-0.19,0.11-0.24,0.2s-0.09,0.19-0.09,0.29c0,0.16,0.06,0.3,0.19,0.41
		c0.12,0.11,0.31,0.16,0.54,0.16c0.24,0,0.45-0.05,0.63-0.16s0.32-0.25,0.41-0.42c0.07-0.14,0.1-0.34,0.1-0.62V583.75z"/>
	<path class="st0" d="M125.6,585.03l0.09,0.54c-0.17,0.04-0.33,0.05-0.46,0.05c-0.22,0-0.4-0.04-0.52-0.11
		c-0.12-0.07-0.21-0.16-0.26-0.28s-0.08-0.36-0.08-0.73v-2.09h-0.45v-0.48h0.45v-0.9l0.61-0.37v1.27h0.62v0.48h-0.62v2.12
		c0,0.18,0.01,0.29,0.03,0.34c0.02,0.05,0.06,0.09,0.11,0.12c0.05,0.03,0.12,0.04,0.21,0.04
		C125.4,585.05,125.49,585.04,125.6,585.03z"/>
	<path class="st0" d="M128.69,584.41l0.64,0.08c-0.1,0.37-0.29,0.66-0.56,0.86s-0.62,0.31-1.04,0.31c-0.53,0-0.95-0.16-1.26-0.49
		c-0.31-0.33-0.47-0.79-0.47-1.38c0-0.61,0.16-1.08,0.47-1.42s0.72-0.51,1.22-0.51c0.49,0,0.88,0.17,1.19,0.5
		c0.31,0.33,0.46,0.8,0.46,1.39c0,0.04,0,0.09,0,0.16h-2.71c0.02,0.4,0.14,0.71,0.34,0.92c0.2,0.21,0.46,0.32,0.76,0.32
		c0.23,0,0.42-0.06,0.58-0.18S128.6,584.67,128.69,584.41z M126.67,583.41h2.03c-0.03-0.3-0.1-0.53-0.23-0.69
		c-0.2-0.24-0.45-0.36-0.76-0.36c-0.28,0-0.52,0.09-0.71,0.28C126.8,582.84,126.69,583.1,126.67,583.41z"/>
	<path class="st0" d="M129.85,584.49l0.61-0.1c0.03,0.24,0.13,0.43,0.29,0.56c0.16,0.13,0.37,0.2,0.65,0.2
		c0.28,0,0.49-0.06,0.63-0.17s0.21-0.25,0.21-0.41c0-0.14-0.06-0.25-0.18-0.33c-0.08-0.05-0.29-0.12-0.63-0.21
		c-0.45-0.11-0.76-0.21-0.94-0.3c-0.17-0.08-0.31-0.2-0.4-0.34c-0.09-0.15-0.14-0.31-0.14-0.49c0-0.16,0.04-0.31,0.11-0.45
		c0.07-0.14,0.18-0.25,0.3-0.34c0.1-0.07,0.23-0.13,0.39-0.18c0.17-0.05,0.34-0.07,0.53-0.07c0.28,0,0.54,0.04,0.75,0.12
		c0.22,0.08,0.37,0.19,0.48,0.33c0.1,0.14,0.17,0.33,0.21,0.56l-0.6,0.08c-0.03-0.19-0.11-0.33-0.24-0.44
		c-0.13-0.1-0.32-0.16-0.56-0.16c-0.28,0-0.48,0.05-0.6,0.14c-0.12,0.09-0.18,0.2-0.18,0.33c0,0.08,0.02,0.15,0.08,0.22
		c0.05,0.07,0.13,0.12,0.24,0.16c0.06,0.02,0.24,0.08,0.54,0.16c0.44,0.12,0.74,0.21,0.91,0.29c0.17,0.07,0.31,0.18,0.41,0.32
		s0.15,0.32,0.15,0.53c0,0.21-0.06,0.4-0.18,0.58c-0.12,0.18-0.29,0.32-0.52,0.42c-0.23,0.1-0.48,0.15-0.77,0.15
		c-0.47,0-0.83-0.1-1.08-0.29C130.08,585.17,129.92,584.88,129.85,584.49z"/>
	<path class="st0" d="M134.63,586.97h-1.36v-0.51h0.74v-5.38h-0.74v-0.51h1.36V586.97z"/>
	<path class="st0" d="M135.56,586.97v-6.4h1.36v0.51h-0.74v5.38h0.74v0.51H135.56z"/>
	<path class="st0" d="M137.56,585.58v-5.01h1.73c0.39,0,0.69,0.02,0.89,0.07c0.29,0.07,0.53,0.19,0.73,0.36
		c0.26,0.22,0.46,0.51,0.59,0.86s0.2,0.74,0.2,1.19c0,0.38-0.04,0.72-0.13,1.01c-0.09,0.29-0.2,0.54-0.34,0.73s-0.29,0.34-0.46,0.45
		c-0.16,0.11-0.36,0.19-0.6,0.25c-0.23,0.06-0.5,0.09-0.8,0.09H137.56z M138.23,584.98h1.07c0.33,0,0.59-0.03,0.78-0.09
		c0.19-0.06,0.34-0.15,0.45-0.26c0.16-0.16,0.28-0.37,0.37-0.63s0.13-0.59,0.13-0.97c0-0.52-0.09-0.93-0.26-1.21
		s-0.38-0.47-0.63-0.57c-0.18-0.07-0.46-0.1-0.86-0.1h-1.05V584.98z"/>
	<path class="st0" d="M146.2,583.82l0.66,0.17c-0.14,0.54-0.39,0.96-0.75,1.25s-0.8,0.43-1.33,0.43c-0.54,0-0.98-0.11-1.32-0.33
		c-0.34-0.22-0.6-0.54-0.77-0.96c-0.18-0.42-0.26-0.87-0.26-1.34c0-0.52,0.1-0.98,0.3-1.37s0.48-0.68,0.85-0.89
		c0.37-0.2,0.77-0.3,1.21-0.3c0.5,0,0.92,0.13,1.26,0.38c0.34,0.25,0.58,0.61,0.71,1.08l-0.65,0.15c-0.12-0.37-0.29-0.63-0.51-0.8
		s-0.5-0.25-0.83-0.25c-0.38,0-0.71,0.09-0.97,0.28s-0.44,0.43-0.54,0.74c-0.1,0.31-0.16,0.63-0.16,0.96c0,0.43,0.06,0.8,0.19,1.12
		c0.12,0.32,0.32,0.56,0.58,0.71s0.55,0.24,0.85,0.24c0.37,0,0.69-0.11,0.94-0.32C145.93,584.56,146.1,584.24,146.2,583.82z"/>
	<path class="st0" d="M147.76,585.58v-0.7h0.7v0.7c0,0.26-0.04,0.47-0.14,0.62c-0.09,0.16-0.24,0.28-0.43,0.37l-0.17-0.26
		c0.13-0.06,0.23-0.14,0.29-0.25s0.1-0.27,0.1-0.48H147.76z"/>
	<path class="st0" d="M151.96,583.61v-0.59l2.12,0v1.86c-0.33,0.26-0.66,0.46-1.01,0.59s-0.7,0.2-1.07,0.2
		c-0.49,0-0.94-0.11-1.34-0.32s-0.71-0.52-0.91-0.91c-0.21-0.4-0.31-0.84-0.31-1.34c0-0.49,0.1-0.94,0.31-1.37s0.5-0.74,0.88-0.94
		s0.82-0.31,1.32-0.31c0.36,0,0.69,0.06,0.98,0.18s0.52,0.28,0.69,0.49s0.29,0.48,0.38,0.82l-0.6,0.16
		c-0.08-0.25-0.17-0.46-0.28-0.6s-0.27-0.26-0.48-0.35s-0.44-0.13-0.69-0.13c-0.3,0-0.57,0.05-0.79,0.14
		c-0.22,0.09-0.4,0.21-0.54,0.36s-0.24,0.32-0.32,0.5c-0.13,0.31-0.19,0.65-0.19,1.01c0,0.45,0.08,0.82,0.23,1.12
		c0.15,0.3,0.38,0.52,0.67,0.67c0.29,0.15,0.61,0.22,0.94,0.22c0.29,0,0.57-0.06,0.84-0.17s0.48-0.23,0.62-0.35v-0.93H151.96z"/>
	<path class="st0" d="M158.35,580.57h0.66v2.9c0,0.5-0.06,0.9-0.17,1.2s-0.32,0.54-0.62,0.72c-0.3,0.19-0.69,0.28-1.17,0.28
		c-0.47,0-0.85-0.08-1.15-0.24s-0.51-0.4-0.64-0.7c-0.13-0.31-0.19-0.73-0.19-1.26v-2.9h0.66v2.89c0,0.44,0.04,0.76,0.12,0.96
		s0.22,0.37,0.42,0.48c0.2,0.11,0.44,0.17,0.72,0.17c0.49,0,0.83-0.11,1.04-0.33c0.21-0.22,0.31-0.65,0.31-1.28V580.57z"/>
	<path class="st0" d="M160.2,585.58v-0.7h0.7v0.7c0,0.26-0.04,0.47-0.14,0.62c-0.09,0.16-0.24,0.28-0.43,0.37l-0.17-0.26
		c0.13-0.06,0.23-0.14,0.29-0.25s0.1-0.27,0.1-0.48H160.2z"/>
	<path class="st0" d="M162.04,585.58v-5.01h1l1.19,3.55c0.11,0.33,0.19,0.58,0.24,0.74c0.06-0.18,0.15-0.45,0.27-0.8l1.2-3.49h0.89
		v5.01h-0.64v-4.19l-1.46,4.19h-0.6l-1.45-4.27v4.27H162.04z"/>
	<path class="st0" d="M167.9,585.58v-5.01h1.89c0.33,0,0.59,0.02,0.76,0.05c0.25,0.04,0.45,0.12,0.62,0.23
		c0.17,0.12,0.3,0.28,0.4,0.48s0.15,0.44,0.15,0.68c0,0.43-0.14,0.79-0.41,1.08s-0.76,0.44-1.47,0.44h-1.29v2.04H167.9z
		 M168.56,582.95h1.29c0.43,0,0.73-0.08,0.91-0.24c0.18-0.16,0.27-0.38,0.27-0.67c0-0.21-0.05-0.39-0.16-0.54
		c-0.11-0.15-0.25-0.25-0.42-0.3c-0.11-0.03-0.32-0.04-0.62-0.04h-1.28V582.95z"/>
	<path class="st0" d="M172.65,585.58v-0.7h0.7v0.7c0,0.26-0.04,0.47-0.14,0.62c-0.09,0.16-0.24,0.28-0.43,0.37l-0.17-0.26
		c0.13-0.06,0.23-0.14,0.29-0.25s0.1-0.27,0.1-0.48H172.65z"/>
	<path class="st0" d="M174.51,585.58v-5.01h1.89c0.33,0,0.59,0.02,0.76,0.05c0.25,0.04,0.45,0.12,0.62,0.23
		c0.17,0.12,0.3,0.28,0.4,0.48s0.15,0.44,0.15,0.68c0,0.43-0.14,0.79-0.41,1.08s-0.76,0.44-1.47,0.44h-1.29v2.04H174.51z
		 M175.17,582.95h1.29c0.43,0,0.73-0.08,0.91-0.24c0.18-0.16,0.27-0.38,0.27-0.67c0-0.21-0.05-0.39-0.16-0.54
		c-0.11-0.15-0.25-0.25-0.42-0.3c-0.11-0.03-0.32-0.04-0.62-0.04h-1.28V582.95z"/>
	<path class="st0" d="M179.19,585.58v-5.01h2.22c0.45,0,0.79,0.04,1.02,0.13s0.42,0.25,0.56,0.48c0.14,0.23,0.21,0.48,0.21,0.75
		c0,0.36-0.12,0.66-0.35,0.9c-0.23,0.24-0.59,0.4-1.07,0.46c0.18,0.08,0.31,0.17,0.4,0.25c0.19,0.18,0.38,0.4,0.55,0.67l0.87,1.36
		h-0.83l-0.66-1.04c-0.19-0.3-0.35-0.53-0.48-0.69c-0.12-0.16-0.24-0.27-0.34-0.34c-0.1-0.06-0.2-0.11-0.3-0.13
		c-0.08-0.02-0.2-0.02-0.37-0.02h-0.77v2.22H179.19z M179.85,582.78h1.43c0.3,0,0.54-0.03,0.71-0.09s0.3-0.16,0.39-0.3
		s0.13-0.29,0.13-0.45c0-0.24-0.09-0.43-0.26-0.58c-0.17-0.15-0.44-0.23-0.82-0.23h-1.59V582.78z"/>
	<path class="st0" d="M184.32,585.58v-0.7h0.7v0.7c0,0.26-0.04,0.47-0.14,0.62c-0.09,0.16-0.24,0.28-0.43,0.37l-0.17-0.26
		c0.13-0.06,0.23-0.14,0.29-0.25s0.1-0.27,0.1-0.48H184.32z"/>
	<path class="st0" d="M187.61,585.58l-1.94-5.01h0.72l1.3,3.64c0.1,0.29,0.19,0.57,0.26,0.82c0.08-0.27,0.17-0.55,0.27-0.82
		l1.35-3.64h0.68l-1.96,5.01H187.61z"/>
	<path class="st0" d="M190.96,585.58v-5.01h0.66v5.01H190.96z"/>
	<path class="st0" d="M193.74,586.97h-1.36v-0.51h0.74v-5.38h-0.74v-0.51h1.36V586.97z"/>
</g>
</svg>
