<?xml version="1.0" encoding="utf-8"?>
<!-- Generator: Adobe Illustrator 24.2.3, SVG Export Plug-In . SVG Version: 6.00 Build 0)  -->
<svg version="1.1" id="Layer_1" xmlns="http://www.w3.org/2000/svg" xmlns:xlink="http://www.w3.org/1999/xlink" x="0px" y="0px"
	 viewBox="0 0 300 600" style="enable-background:new 0 0 300 600;" xml:space="preserve">
<style type="text/css">
	.st0{fill:#006098;}
</style>
<g>
	<path class="st0" d="M49.74,310.36h-3.6l-0.33-2.34c-1.47,2.07-3.99,2.79-5.97,2.79c-6.48,0-10.68-4.95-10.68-11.16
		c0-6.21,4.2-11.16,10.68-11.16c4.44,0,9.18,2.37,9.69,7.74h-5.58c-0.18-1.83-1.98-2.94-4.23-2.94c-3.6,0-4.98,3.18-4.98,6.36
		s1.38,6.36,4.98,6.36c2.76,0,4.62-1.29,4.92-3.24h-3.9v-4.14h9V310.36z"/>
	<path class="st0" d="M57.3,303.82c0.09,2.13,1.32,3.54,3.48,3.54c1.23,0,2.43-0.57,2.91-1.71h4.77c-0.93,3.6-4.26,5.16-7.74,5.16
		c-5.07,0-8.52-3.06-8.52-8.28c0-4.77,3.81-8.19,8.4-8.19c5.58,0,8.37,4.2,8.13,9.48H57.3z M63.63,300.97
		c-0.09-1.74-1.32-3.18-3.03-3.18c-1.8,0-3,1.29-3.3,3.18H63.63z"/>
	<path class="st0" d="M80.1,298.09h-3.15v7.08c0,1.23,0.72,1.5,1.83,1.5c0.42,0,0.87-0.06,1.32-0.06v3.75
		c-0.93,0.03-1.86,0.15-2.79,0.15c-4.35,0-5.46-1.26-5.46-5.49v-6.93h-2.58v-3.3h2.58v-4.71h5.1v4.71h3.15V298.09z"/>
	<path class="st0" d="M95.25,305.23c0,0.78,0.33,1.35,0.84,1.74c0.48,0.36,1.17,0.54,1.89,0.54c0.99,0,2.4-0.42,2.4-1.65
		c0-1.2-1.59-1.44-2.49-1.65c-3.21-0.81-7.23-0.9-7.23-5.1c0-3.75,4.05-4.77,7.11-4.77c3.42,0,6.99,0.99,7.17,5.04h-4.71
		c0-0.66-0.24-1.08-0.66-1.35s-0.99-0.39-1.62-0.39c-0.84,0-2.19,0.09-2.19,1.17c0,1.47,3.42,1.74,5.76,2.25
		c3.15,0.63,3.96,2.91,3.96,4.2c0,4.17-3.96,5.55-7.47,5.55c-3.69,0-7.47-1.23-7.62-5.58H95.25z"/>
	<path class="st0" d="M107.73,294.79h4.86v1.8h0.06c0.99-1.47,2.49-2.25,4.29-2.25c4.89,0,6.96,4.2,6.96,8.58
		c0,4.05-2.16,7.89-6.57,7.89c-1.92,0-3.39-0.72-4.44-2.13h-0.06v6.9h-5.1V294.79z M112.65,302.41c0,2.73,0.78,4.5,3.09,4.5
		c2.28,0,3.06-2.37,3.06-4.5c0-1.98-0.78-4.17-3.03-4.17C114.39,298.24,112.65,299.2,112.65,302.41z"/>
	<path class="st0" d="M130.59,303.82c0.09,2.13,1.32,3.54,3.48,3.54c1.23,0,2.43-0.57,2.91-1.71h4.77c-0.93,3.6-4.26,5.16-7.74,5.16
		c-5.07,0-8.52-3.06-8.52-8.28c0-4.77,3.81-8.19,8.4-8.19c5.58,0,8.37,4.2,8.13,9.48H130.59z M136.92,300.97
		c-0.09-1.74-1.32-3.18-3.03-3.18c-1.8,0-3,1.29-3.3,3.18H136.92z"/>
	<path class="st0" d="M154.35,300.49c-0.03-1.32-1.2-2.25-2.49-2.25c-2.85,0-3.3,2.43-3.3,4.59c0,2.01,0.87,4.08,3.03,4.08
		c1.77,0,2.67-1.02,2.91-2.67h4.95c-0.45,4.17-3.69,6.57-7.83,6.57c-4.68,0-8.16-3.21-8.16-7.98c0-4.95,3.15-8.49,8.16-8.49
		c3.87,0,7.32,2.04,7.68,6.15H154.35z"/>
	<path class="st0" d="M166.86,292.84h-5.1v-3.9h5.1V292.84z M161.76,294.79h5.1v15.57h-5.1V294.79z"/>
	<path class="st0" d="M169.86,299.59c0.09-2.04,1.05-3.36,2.43-4.17c1.38-0.78,3.18-1.08,4.95-1.08c3.69,0,7.26,0.81,7.26,5.22v6.81
		c0,1.32,0,2.76,0.6,3.99h-5.13c-0.18-0.48-0.24-0.96-0.3-1.47c-1.32,1.38-3.27,1.92-5.13,1.92c-2.97,0-5.31-1.5-5.31-4.71
		c0-5.07,5.52-4.68,9.06-5.4c0.87-0.18,1.35-0.48,1.35-1.44c0-1.17-1.41-1.62-2.46-1.62c-1.41,0-2.31,0.63-2.55,1.95H169.86z
		 M176.46,307.66c2.43,0,3.24-1.38,3.12-4.59c-0.72,0.45-2.04,0.54-3.15,0.84c-1.14,0.27-2.1,0.75-2.1,1.98
		C174.33,307.15,175.32,307.66,176.46,307.66z"/>
	<path class="st0" d="M187.65,288.94h5.1v21.42h-5.1V288.94z"/>
</g>
<g>
	<path class="st0" d="M44.82,338.47c0,2.55-0.48,7.35-7.77,7.35c-3.63,0-7.05-0.81-7.65-4.98h5.1c0.12,0.69,0.39,1.11,0.87,1.35
		c0.45,0.24,1.08,0.33,1.86,0.33c2.43,0,2.67-1.71,2.67-3.63v-1.47h-0.06c-0.93,1.44-2.49,2.28-4.14,2.28
		c-4.71,0-6.84-3.36-6.84-7.74c0-4.14,2.43-7.62,6.84-7.62c1.86,0,3.27,0.81,4.17,2.4h0.06v-1.95h4.89V338.47z M36.93,328.24
		c-2.25,0-2.97,1.98-2.97,3.9c0,1.83,0.84,3.66,2.94,3.66c2.16,0,3.09-1.68,3.09-3.63C39.99,330.19,39.21,328.24,36.93,328.24z"/>
	<path class="st0" d="M47.91,324.79h4.95v2.73h0.06c0.75-1.98,2.49-3.03,4.68-3.03c0.39,0,0.81,0.03,1.2,0.12v4.65
		c-0.66-0.18-1.26-0.3-1.95-0.3c-2.52,0-3.84,1.74-3.84,3.69v7.71h-5.1V324.79z"/>
	<path class="st0" d="M67.74,324.34c4.83,0,8.22,3.57,8.22,8.25s-3.39,8.22-8.22,8.22c-4.83,0-8.19-3.54-8.19-8.22
		S62.91,324.34,67.74,324.34z M67.74,336.91c2.37,0,3.12-2.34,3.12-4.32c0-1.98-0.75-4.35-3.12-4.35c-2.37,0-3.09,2.37-3.09,4.35
		C64.65,334.57,65.37,336.91,67.74,336.91z"/>
	<path class="st0" d="M93.63,340.36h-4.95v-2.13h-0.06c-0.96,1.59-2.94,2.58-4.74,2.58c-4.47,0-5.76-2.58-5.76-6.66v-9.36h5.1v9.03
		c0,2.07,0.9,2.79,2.52,2.79c1.11,0,2.79-0.72,2.79-3.48v-8.34h5.1V340.36z"/>
	<path class="st0" d="M96.75,324.79h4.86v1.8h0.06c0.99-1.47,2.49-2.25,4.29-2.25c4.89,0,6.96,4.2,6.96,8.58
		c0,4.05-2.16,7.89-6.57,7.89c-1.92,0-3.39-0.72-4.44-2.13h-0.06v6.9h-5.1V324.79z M101.67,332.41c0,2.73,0.78,4.5,3.09,4.5
		c2.28,0,3.06-2.37,3.06-4.5c0-1.98-0.78-4.17-3.03-4.17C103.41,328.24,101.67,329.2,101.67,332.41z"/>
	<path class="st0" d="M124.74,324.79h4.95v2.73h0.06c0.75-1.98,2.49-3.03,4.68-3.03c0.39,0,0.81,0.03,1.2,0.12v4.65
		c-0.66-0.18-1.26-0.3-1.95-0.3c-2.52,0-3.84,1.74-3.84,3.69v7.71h-5.1V324.79z"/>
	<path class="st0" d="M136.89,329.59c0.09-2.04,1.05-3.36,2.43-4.17c1.38-0.78,3.18-1.08,4.95-1.08c3.69,0,7.26,0.81,7.26,5.22v6.81
		c0,1.32,0,2.76,0.6,3.99H147c-0.18-0.48-0.24-0.96-0.3-1.47c-1.32,1.38-3.27,1.92-5.13,1.92c-2.97,0-5.31-1.5-5.31-4.71
		c0-5.07,5.52-4.68,9.06-5.4c0.87-0.18,1.35-0.48,1.35-1.44c0-1.17-1.41-1.62-2.46-1.62c-1.41,0-2.31,0.63-2.55,1.95H136.89z
		 M143.49,337.66c2.43,0,3.24-1.38,3.12-4.59c-0.72,0.45-2.04,0.54-3.15,0.84c-1.14,0.27-2.1,0.75-2.1,1.98
		C141.36,337.15,142.35,337.66,143.49,337.66z"/>
	<path class="st0" d="M163.8,328.09h-3.15v7.08c0,1.23,0.72,1.5,1.83,1.5c0.42,0,0.87-0.06,1.32-0.06v3.75
		c-0.93,0.03-1.86,0.15-2.79,0.15c-4.35,0-5.46-1.26-5.46-5.49v-6.93h-2.58v-3.3h2.58v-4.71h5.1v4.71h3.15V328.09z"/>
	<path class="st0" d="M169.83,333.82c0.09,2.13,1.32,3.54,3.48,3.54c1.23,0,2.43-0.57,2.91-1.71h4.77c-0.93,3.6-4.26,5.16-7.74,5.16
		c-5.07,0-8.52-3.06-8.52-8.28c0-4.77,3.81-8.19,8.4-8.19c5.58,0,8.37,4.2,8.13,9.48H169.83z M176.16,330.97
		c-0.09-1.74-1.32-3.18-3.03-3.18c-1.8,0-3,1.29-3.3,3.18H176.16z"/>
	<path class="st0" d="M187.44,335.23c0,0.78,0.33,1.35,0.84,1.74c0.48,0.36,1.17,0.54,1.89,0.54c0.99,0,2.4-0.42,2.4-1.65
		c0-1.2-1.59-1.44-2.49-1.65c-3.21-0.81-7.23-0.9-7.23-5.1c0-3.75,4.05-4.77,7.11-4.77c3.42,0,6.99,0.99,7.17,5.04h-4.71
		c0-0.66-0.24-1.08-0.66-1.35c-0.42-0.27-0.99-0.39-1.62-0.39c-0.84,0-2.19,0.09-2.19,1.17c0,1.47,3.42,1.74,5.76,2.25
		c3.15,0.63,3.96,2.91,3.96,4.2c0,4.17-3.96,5.55-7.47,5.55c-3.69,0-7.47-1.23-7.62-5.58H187.44z"/>
</g>
<g>
	<path class="st0" d="M37.2,354.34c4.83,0,8.22,3.57,8.22,8.25s-3.39,8.22-8.22,8.22c-4.83,0-8.19-3.54-8.19-8.22
		S32.37,354.34,37.2,354.34z M37.2,366.91c2.37,0,3.12-2.34,3.12-4.32c0-1.98-0.75-4.35-3.12-4.35c-2.37,0-3.09,2.37-3.09,4.35
		C34.11,364.57,34.83,366.91,37.2,366.91z"/>
	<path class="st0" d="M47.7,354.79h4.95v2.13h0.06c0.93-1.59,3.03-2.58,4.89-2.58c5.19,0,5.61,3.78,5.61,6.03v9.99h-5.1v-7.53
		c0-2.13,0.24-4.29-2.55-4.29c-1.92,0-2.76,1.62-2.76,3.33v8.49h-5.1V354.79z"/>
	<path class="st0" d="M75.72,348.94h5.58v16.62h9.99v4.8H75.72V348.94z"/>
	<path class="st0" d="M97.74,363.82c0.09,2.13,1.32,3.54,3.48,3.54c1.23,0,2.43-0.57,2.91-1.71h4.77c-0.93,3.6-4.26,5.16-7.74,5.16
		c-5.07,0-8.52-3.06-8.52-8.28c0-4.77,3.81-8.19,8.4-8.19c5.58,0,8.37,4.2,8.13,9.48H97.74z M104.07,360.97
		c-0.09-1.74-1.32-3.18-3.03-3.18c-1.8,0-3,1.29-3.3,3.18H104.07z"/>
	<path class="st0" d="M120.3,370.36h-5.88l-5.19-15.57h5.31l2.85,10.29h0.06l2.88-10.29h5.19L120.3,370.36z"/>
	<path class="st0" d="M130.68,363.82c0.09,2.13,1.32,3.54,3.48,3.54c1.23,0,2.43-0.57,2.91-1.71h4.77c-0.93,3.6-4.26,5.16-7.74,5.16
		c-5.07,0-8.52-3.06-8.52-8.28c0-4.77,3.81-8.19,8.4-8.19c5.58,0,8.37,4.2,8.13,9.48H130.68z M137.01,360.97
		c-0.09-1.74-1.32-3.18-3.03-3.18c-1.8,0-3,1.29-3.3,3.18H137.01z"/>
	<path class="st0" d="M144.42,348.94h5.1v21.42h-5.1V348.94z"/>
	<path class="st0" d="M179.22,353.74h-6.39v16.62h-5.58v-16.62h-6.39v-4.8h18.36V353.74z"/>
	<path class="st0" d="M182.82,363.82c0.09,2.13,1.32,3.54,3.48,3.54c1.23,0,2.43-0.57,2.91-1.71h4.77c-0.93,3.6-4.26,5.16-7.74,5.16
		c-5.07,0-8.52-3.06-8.52-8.28c0-4.77,3.81-8.19,8.4-8.19c5.58,0,8.37,4.2,8.13,9.48H182.82z M189.15,360.97
		c-0.09-1.74-1.32-3.18-3.03-3.18c-1.8,0-3,1.29-3.3,3.18H189.15z"/>
	<path class="st0" d="M196.53,354.79h4.95v2.73h0.06c0.75-1.98,2.49-3.03,4.68-3.03c0.39,0,0.81,0.03,1.2,0.12v4.65
		c-0.66-0.18-1.26-0.3-1.95-0.3c-2.52,0-3.84,1.74-3.84,3.69v7.71h-5.1V354.79z"/>
	<path class="st0" d="M208.8,354.79h4.95v2.13h0.06c0.93-1.56,2.58-2.58,4.47-2.58c1.95,0,3.69,0.63,4.53,2.52
		c1.23-1.65,2.76-2.52,4.86-2.52c4.95,0,5.49,3.75,5.49,6.72v9.3h-5.1v-9.15c0-1.68-0.81-2.67-2.13-2.67c-2.19,0-2.4,1.68-2.4,4.2
		v7.62h-5.1v-8.85c0-1.83-0.54-2.97-1.92-2.97c-1.83,0-2.61,1.05-2.61,4.23v7.59h-5.1V354.79z"/>
</g>
<g>
	<path class="st0" d="M29.97,378.94h5.58v16.62h9.99v4.8H29.97V378.94z"/>
	<path class="st0" d="M52.68,382.84h-5.1v-3.9h5.1V382.84z M47.58,384.79h5.1v15.57h-5.1V384.79z"/>
	<path class="st0" d="M56.94,388.09h-2.46v-3.3h2.46c0-4.47,1.56-5.85,5.91-5.85c0.81,0,1.65,0.06,2.46,0.09v3.6
		c-0.48-0.06-0.93-0.09-1.38-0.09c-1.17,0-1.89,0.15-1.89,1.56v0.69h3.06v3.3h-3.06v12.27h-5.1V388.09z"/>
	<path class="st0" d="M70.71,393.82c0.09,2.13,1.32,3.54,3.48,3.54c1.23,0,2.43-0.57,2.91-1.71h4.77c-0.93,3.6-4.26,5.16-7.74,5.16
		c-5.07,0-8.52-3.06-8.52-8.28c0-4.77,3.81-8.19,8.4-8.19c5.58,0,8.37,4.2,8.13,9.48H70.71z M77.04,390.97
		c-0.09-1.74-1.32-3.18-3.03-3.18c-1.8,0-3,1.29-3.3,3.18H77.04z"/>
	<path class="st0" d="M93.78,378.94h5.58v21.42h-5.58V378.94z"/>
	<path class="st0" d="M102.72,384.79h4.95v2.13h0.06c0.93-1.59,3.03-2.58,4.89-2.58c5.19,0,5.61,3.78,5.61,6.03v9.99h-5.1v-7.53
		c0-2.13,0.24-4.29-2.55-4.29c-1.92,0-2.76,1.62-2.76,3.33v8.49h-5.1V384.79z"/>
	<path class="st0" d="M125.31,395.23c0,0.78,0.33,1.35,0.84,1.74c0.48,0.36,1.17,0.54,1.89,0.54c0.99,0,2.4-0.42,2.4-1.65
		c0-1.2-1.59-1.44-2.49-1.65c-3.21-0.81-7.23-0.9-7.23-5.1c0-3.75,4.05-4.77,7.11-4.77c3.42,0,6.99,0.99,7.17,5.04h-4.71
		c0-0.66-0.24-1.08-0.66-1.35c-0.42-0.27-0.99-0.39-1.62-0.39c-0.84,0-2.19,0.09-2.19,1.17c0,1.47,3.42,1.74,5.76,2.25
		c3.15,0.63,3.96,2.91,3.96,4.2c0,4.17-3.96,5.55-7.47,5.55c-3.69,0-7.47-1.23-7.62-5.58H125.31z"/>
	<path class="st0" d="M153.18,400.36h-4.95v-2.13h-0.06c-0.96,1.59-2.94,2.58-4.74,2.58c-4.47,0-5.76-2.58-5.76-6.66v-9.36h5.1v9.03
		c0,2.07,0.9,2.79,2.52,2.79c1.11,0,2.79-0.72,2.79-3.48v-8.34h5.1V400.36z"/>
	<path class="st0" d="M156.36,384.79h4.95v2.73h0.06c0.75-1.98,2.49-3.03,4.68-3.03c0.39,0,0.81,0.03,1.2,0.12v4.65
		c-0.66-0.18-1.26-0.3-1.95-0.3c-2.52,0-3.84,1.74-3.84,3.69v7.71h-5.1V384.79z"/>
	<path class="st0" d="M168.51,389.59c0.09-2.04,1.05-3.36,2.43-4.17c1.38-0.78,3.18-1.08,4.95-1.08c3.69,0,7.26,0.81,7.26,5.22v6.81
		c0,1.32,0,2.76,0.6,3.99h-5.13c-0.18-0.48-0.24-0.96-0.3-1.47c-1.32,1.38-3.27,1.92-5.13,1.92c-2.97,0-5.31-1.5-5.31-4.71
		c0-5.07,5.52-4.68,9.06-5.4c0.87-0.18,1.35-0.48,1.35-1.44c0-1.17-1.41-1.62-2.46-1.62c-1.41,0-2.31,0.63-2.55,1.95H168.51z
		 M175.11,397.66c2.43,0,3.24-1.38,3.12-4.59c-0.72,0.45-2.04,0.54-3.15,0.84c-1.14,0.27-2.1,0.75-2.1,1.98
		C172.98,397.15,173.97,397.66,175.11,397.66z"/>
	<path class="st0" d="M186.24,384.79h4.95v2.13h0.06c0.93-1.59,3.03-2.58,4.89-2.58c5.19,0,5.61,3.78,5.61,6.03v9.99h-5.1v-7.53
		c0-2.13,0.24-4.29-2.55-4.29c-1.92,0-2.76,1.62-2.76,3.33v8.49h-5.1V384.79z"/>
	<path class="st0" d="M214.92,390.49c-0.03-1.32-1.2-2.25-2.49-2.25c-2.85,0-3.3,2.43-3.3,4.59c0,2.01,0.87,4.08,3.03,4.08
		c1.77,0,2.67-1.02,2.91-2.67h4.95c-0.45,4.17-3.69,6.57-7.83,6.57c-4.68,0-8.16-3.21-8.16-7.98c0-4.95,3.15-8.49,8.16-8.49
		c3.87,0,7.32,2.04,7.68,6.15H214.92z"/>
	<path class="st0" d="M226.53,393.82c0.09,2.13,1.32,3.54,3.48,3.54c1.23,0,2.43-0.57,2.91-1.71h4.77c-0.93,3.6-4.26,5.16-7.74,5.16
		c-5.07,0-8.52-3.06-8.52-8.28c0-4.77,3.81-8.19,8.4-8.19c5.58,0,8.37,4.2,8.13,9.48H226.53z M232.86,390.97
		c-0.09-1.74-1.32-3.18-3.03-3.18c-1.8,0-3,1.29-3.3,3.18H232.86z"/>
	<path class="st0" d="M240.18,394.78h5.58v5.58h-5.58V394.78z"/>
</g>
</svg>
