<?xml version="1.0" encoding="utf-8"?>
<!-- Generator: Adobe Illustrator 24.2.3, SVG Export Plug-In . SVG Version: 6.00 Build 0)  -->
<svg version="1.1" id="Layer_1" xmlns="http://www.w3.org/2000/svg" xmlns:xlink="http://www.w3.org/1999/xlink" x="0px" y="0px"
	 viewBox="0 0 300 600" style="enable-background:new 0 0 300 600;" xml:space="preserve">
<style type="text/css">
	.st0{fill:#FF7F30;}
	.st1{fill:#FFFFFF;}
</style>
<rect x="131.65" y="530.43" class="st0" width="144.08" height="35.28"/>
<g>
	<path class="st1" d="M149.75,541.56h3.23l5.35,14.32h-3.27l-1.08-3.19h-5.35l-1.12,3.19h-3.19L149.75,541.56z M149.45,550.34h3.71
		l-1.8-5.25h-0.04L149.45,550.34z"/>
	<path class="st1" d="M159.58,541.56h6.46c3.57,0,4.95,2.27,4.95,4.59c0,2.33-1.38,4.59-4.95,4.59h-3.31v5.13h-3.15V541.56z
		 M162.72,548.3h2.45c1.46,0,2.77-0.32,2.77-2.15c0-1.82-1.3-2.15-2.77-2.15h-2.45V548.3z"/>
	<path class="st1" d="M172.95,541.56h6.46c3.57,0,4.95,2.27,4.95,4.59c0,2.33-1.38,4.59-4.95,4.59h-3.31v5.13h-3.15V541.56z
		 M176.1,548.3h2.45c1.46,0,2.77-0.32,2.77-2.15c0-1.82-1.3-2.15-2.77-2.15h-2.45V548.3z"/>
	<path class="st1" d="M186.32,541.56h3.15v11.67h6.98v2.65h-10.12V541.56z"/>
	<path class="st1" d="M199.71,550.3l-5.27-8.74h3.55l3.35,5.65l3.33-5.65h3.51l-5.31,8.82v5.49h-3.15V550.3z"/>
	<path class="st1" d="M214.95,541.56h3.13l5.97,9.6h0.04v-9.6h2.95v14.32h-3.15l-5.96-9.58h-0.04v9.58h-2.95V541.56z"/>
	<path class="st1" d="M236.22,541.22c4.43,0,7.04,3.31,7.04,7.56c0,4.13-2.61,7.44-7.04,7.44c-4.43,0-7.04-3.31-7.04-7.44
		C229.18,544.53,231.79,541.22,236.22,541.22z M236.22,553.57c2.83,0,3.89-2.41,3.89-4.79c0-2.51-1.06-4.91-3.89-4.91
		s-3.89,2.41-3.89,4.91C232.33,551.17,233.39,553.57,236.22,553.57z"/>
	<path class="st1" d="M259.03,555.88h-3.13l-2.43-9.74h-0.04l-2.39,9.74h-3.19l-3.79-14.32h3.15l2.27,9.74h0.04l2.49-9.74h2.95
		l2.45,9.86h0.04l2.35-9.86h3.09L259.03,555.88z"/>
</g>
</svg>
