<svg id="Layer_1" xmlns="http://www.w3.org/2000/svg" viewBox="0 0 300 600"><style>.st0{fill:#fff}</style><path class="st0" d="M38.62 97.23h3.81v39.98h-3.81V97.23zM54.02 108.32h5.88v2.97h-5.88v19.49c0 2.3.34 3.64 2.86 3.81 1.01 0 2.02-.06 3.02-.17v3.02c-1.06 0-2.07.11-3.14.11-4.7 0-6.33-1.57-6.27-6.5v-19.77h-5.04v-2.97h5.04v-8.68h3.53v8.69zM70.37 97.23v5.99c-.06 3.25-1.57 6.66-4.98 7.62v-2.41c1.9-.67 2.74-3.42 2.63-5.26h-2.35v-5.94h4.7zM91.37 116.78c-.17-4.37-3.53-6.33-7.56-6.33-3.14 0-6.83 1.23-6.83 4.98 0 3.14 3.58 4.26 5.99 4.87l4.7 1.06c4.03.62 8.23 2.97 8.23 8.01 0 6.27-6.22 8.68-11.59 8.68-6.72 0-11.31-3.14-11.87-10.19h3.53c.28 4.76 3.81 7.22 8.51 7.22 3.3 0 7.9-1.46 7.9-5.49 0-3.36-3.14-4.48-6.33-5.26l-4.54-1.01c-4.59-1.23-8.06-2.8-8.06-7.73 0-5.88 5.77-8.12 10.86-8.12 5.77 0 10.36 3.02 10.58 9.3h-3.52zM121.17 108.32h5.88v2.97h-5.88v19.49c0 2.3.34 3.64 2.86 3.81 1.01 0 2.02-.06 3.02-.17v3.02c-1.06 0-2.07.11-3.14.11-4.7 0-6.33-1.57-6.27-6.5v-19.77h-5.04v-2.97h5.04v-8.68h3.53v8.69zM130.29 97.23h3.53v5.66h-3.53v-5.66zm0 11.09h3.53v28.9h-3.53v-28.9zM139.25 108.32h3.25v4.87h.17c1.85-3.47 4.87-5.71 9.46-5.71 3.81 0 7.22 1.85 8.29 5.66 1.74-3.81 5.38-5.66 9.18-5.66 6.33 0 9.58 3.3 9.58 10.14v19.6h-3.53v-19.43c0-4.76-1.79-7.34-6.83-7.34-6.1 0-7.84 5.04-7.84 10.42v16.35h-3.53v-19.6c.06-3.92-1.57-7.17-6.05-7.17-6.1 0-8.57 4.59-8.62 10.64v16.13h-3.53v-28.9zM186.8 123.72c.06 5.15 2.74 11.37 9.52 11.37 5.15 0 7.95-3.02 9.07-7.39h3.53c-1.51 6.55-5.32 10.36-12.6 10.36-9.18 0-13.05-7.06-13.05-15.29 0-7.62 3.86-15.29 13.05-15.29 9.3 0 12.99 8.12 12.71 16.24H186.8zm18.7-2.97c-.17-5.32-3.47-10.3-9.18-10.3-5.77 0-8.96 5.04-9.52 10.3h18.7z"/><g><path class="st0" d="M48.81 167.29H43.1v25.93h-3.53v-25.93h-4.93v-2.97h4.93v-2.63c-.06-4.98 1.34-8.46 7-8.46 1.01 0 1.85.06 2.97.22v3.02c-.95-.17-1.74-.28-2.58-.28-3.92 0-3.81 2.46-3.86 5.6v2.52h5.71v2.98zM75.97 178.77c0 8.29-4.82 15.29-13.66 15.29s-13.66-7-13.66-15.29 4.82-15.29 13.66-15.29 13.66 7 13.66 15.29zm-23.8 0c0 6.16 3.36 12.32 10.14 12.32s10.14-6.16 10.14-12.32-3.36-12.32-10.14-12.32-10.14 6.16-10.14 12.32zM80.01 164.32h3.25v6.78h.11c1.79-4.65 5.71-7.39 10.92-7.17v3.53c-6.38-.34-10.75 4.37-10.75 10.36v15.4h-3.53v-28.9zM111.87 173.17c.34-6.78 5.1-9.69 11.7-9.69 5.1 0 10.64 1.57 10.64 9.3v15.34c0 1.34.67 2.13 2.07 2.13.39 0 .84-.11 1.12-.22V193c-.78.17-1.34.22-2.3.22-3.58 0-4.14-2.02-4.14-5.04h-.11c-2.46 3.75-4.98 5.88-10.53 5.88-5.32 0-9.69-2.63-9.69-8.46 0-8.12 7.9-8.4 15.51-9.3 2.91-.34 4.54-.73 4.54-3.92 0-4.76-3.42-5.94-7.56-5.94-4.37 0-7.62 2.02-7.73 6.72h-3.52zm18.82 4.26h-.11c-.45.84-2.02 1.12-2.97 1.29-5.99 1.06-13.44 1.01-13.44 6.66 0 3.53 3.14 5.71 6.44 5.71 5.38 0 10.14-3.42 10.08-9.07v-4.59z"/></g><g><path class="st0" d="M37.73 209.23h3.53v39.98h-3.53v-39.98zM48.93 235.72c.06 5.15 2.74 11.37 9.52 11.37 5.15 0 7.95-3.02 9.07-7.39h3.53c-1.51 6.55-5.32 10.36-12.6 10.36-9.18 0-13.05-7.06-13.05-15.29 0-7.62 3.86-15.29 13.05-15.29 9.3 0 12.99 8.12 12.71 16.24H48.93zm18.7-2.97c-.17-5.32-3.47-10.3-9.18-10.3-5.77 0-8.96 5.04-9.52 10.3h18.7zM70.77 220.32h3.92l9.07 25.37h.11l8.96-25.37h3.64l-10.81 28.9h-3.75l-11.14-28.9zM99.83 235.72c.06 5.15 2.74 11.37 9.52 11.37 5.15 0 7.95-3.02 9.07-7.39h3.53c-1.51 6.55-5.32 10.36-12.6 10.36-9.18 0-13.05-7.06-13.05-15.29 0-7.62 3.86-15.29 13.05-15.29 9.3 0 12.99 8.12 12.71 16.24H99.83zm18.7-2.97c-.17-5.32-3.47-10.3-9.18-10.3-5.77 0-8.96 5.04-9.52 10.3h18.7zM125.93 209.23h3.53v39.98h-3.53v-39.98zM168.04 228.78c-.17-4.37-3.53-6.33-7.56-6.33-3.14 0-6.83 1.23-6.83 4.98 0 3.14 3.58 4.26 5.99 4.87l4.7 1.06c4.03.62 8.23 2.97 8.23 8.01 0 6.27-6.22 8.68-11.59 8.68-6.72 0-11.31-3.14-11.87-10.19h3.53c.28 4.76 3.81 7.22 8.51 7.22 3.3 0 7.9-1.46 7.9-5.49 0-3.36-3.14-4.48-6.33-5.26l-4.54-1.01c-4.59-1.23-8.06-2.8-8.06-7.73 0-5.88 5.77-8.12 10.86-8.12 5.77 0 10.36 3.02 10.58 9.3h-3.52zM178.4 235.72c.06 5.15 2.74 11.37 9.52 11.37 5.15 0 7.95-3.02 9.07-7.39h3.53c-1.51 6.55-5.32 10.36-12.6 10.36-9.18 0-13.05-7.06-13.05-15.29 0-7.62 3.86-15.29 13.05-15.29 9.3 0 12.99 8.12 12.71 16.24H178.4zm18.7-2.97c-.17-5.32-3.47-10.3-9.18-10.3-5.77 0-8.96 5.04-9.52 10.3h18.7zM209.14 220.32h5.88v2.97h-5.88v19.49c0 2.3.34 3.64 2.86 3.81 1.01 0 2.02-.06 3.02-.17v3.02c-1.06 0-2.07.11-3.14.11-4.7 0-6.33-1.57-6.27-6.5v-19.77h-5.04v-2.97h5.04v-8.68h3.53v8.69zM219.44 249.22v-5.94h4.7v5.94h-4.7z"/></g></svg>