<svg id="Layer_1" xmlns="http://www.w3.org/2000/svg" viewBox="0 0 728 90"><style>.st0{fill:#ff7f30}.st1{fill:#fff}</style><path class="st0" d="M594.98 38.34h122.36V68.3H594.98z"/><path class="st1" d="M610.36 48.19h2.74l4.55 12.16h-2.78l-.92-2.71h-4.55l-.95 2.71h-2.71l4.62-12.16zm-.26 7.46h3.15l-1.53-4.46h-.03l-1.59 4.46zM618.7 48.19h5.48c3.03 0 4.21 1.92 4.21 3.9s-1.17 3.9-4.21 3.9h-2.81v4.36h-2.67V48.19zm2.67 5.72h2.08c1.24 0 2.35-.27 2.35-1.82s-1.11-1.82-2.35-1.82h-2.08v3.64zM630.05 48.19h5.48c3.03 0 4.21 1.92 4.21 3.9s-1.17 3.9-4.21 3.9h-2.81v4.36h-2.67V48.19zm2.68 5.72h2.08c1.24 0 2.35-.27 2.35-1.82s-1.11-1.82-2.35-1.82h-2.08v3.64zM641.41 48.19h2.67v9.91h5.93v2.25h-8.6V48.19zM652.78 55.61l-4.48-7.42h3.01l2.84 4.8 2.83-4.8h2.98l-4.51 7.49v4.67h-2.67v-4.74zM665.72 48.19h2.66l5.08 8.16h.03v-8.16h2.5v12.16h-2.67l-5.06-8.14h-.03v8.14h-2.5V48.19zM683.78 47.9c3.76 0 5.98 2.81 5.98 6.42 0 3.51-2.21 6.32-5.98 6.32-3.76 0-5.98-2.81-5.98-6.32.01-3.61 2.22-6.42 5.98-6.42zm0 10.49c2.4 0 3.3-2.04 3.3-4.07 0-2.13-.9-4.17-3.3-4.17s-3.3 2.04-3.3 4.17c0 2.02.9 4.07 3.3 4.07zM703.16 60.35h-2.66l-2.06-8.28h-.03l-2.03 8.28h-2.71l-3.22-12.16h2.67l1.92 8.28h.03l2.11-8.28h2.5l2.08 8.38h.03l1.99-8.38h2.62l-3.24 12.16z"/></svg>