<svg id="Layer_1" xmlns="http://www.w3.org/2000/svg" viewBox="0 0 300 600"><style>.st0{fill:#fff}</style><path class="st0" d="M22.73 88.96h14.3v42.58h25.59v12.3H22.73V88.96zM79.99 98.95H66.93v-9.99H80v9.99zm-13.06 5H80v39.89H66.93v-39.89zM90.06 112.4h-6.3v-8.45h6.3c0-11.45 4-14.99 15.14-14.99 2.08 0 4.23.15 6.3.23v9.22a28.92 28.92 0 0 0-3.54-.23c-3 0-4.84.38-4.84 4v1.77h7.84v8.45h-7.84v31.44H90.06V112.4zM124.42 127.08c.23 5.46 3.38 9.07 8.92 9.07 3.15 0 6.23-1.46 7.46-4.38h12.22c-2.38 9.22-10.91 13.22-19.83 13.22-12.99 0-21.83-7.84-21.83-21.21 0-12.22 9.76-20.98 21.52-20.98 14.3 0 21.44 10.76 20.83 24.29h-29.29zm16.22-7.3c-.23-4.46-3.38-8.15-7.76-8.15-4.61 0-7.69 3.3-8.45 8.15h16.21z"/><g><path class="st0" d="M48.17 195.41c-.08-3.38-3.07-5.76-6.38-5.76-7.3 0-8.45 6.23-8.45 11.76 0 5.15 2.23 10.45 7.76 10.45 4.53 0 6.84-2.61 7.46-6.84h12.68c-1.15 10.68-9.45 16.83-20.06 16.83-11.99 0-20.91-8.22-20.91-20.44 0-12.68 8.07-21.75 20.91-21.75 9.92 0 18.75 5.23 19.68 15.76H48.17zM84.99 179.65c12.37 0 21.06 9.15 21.06 21.14s-8.69 21.06-21.06 21.06-20.98-9.07-20.98-21.06c0-11.99 8.61-21.14 20.98-21.14zm0 32.21c6.07 0 7.99-5.99 7.99-11.07s-1.92-11.14-7.99-11.14-7.92 6.07-7.92 11.14 1.85 11.07 7.92 11.07zM111.04 180.81h12.68v5.46h.15c2.38-4 6.61-6.61 11.45-6.61 5 0 9.45 1.61 11.61 6.46 3.15-4.23 7.07-6.46 12.45-6.46 12.68 0 14.07 9.61 14.07 17.22v23.83h-13.07v-23.44c0-4.3-2.08-6.84-5.46-6.84-5.61 0-6.15 4.3-6.15 10.76v19.52H135.7v-22.67c0-4.69-1.38-7.61-4.92-7.61-4.69 0-6.69 2.69-6.69 10.84v19.45h-13.07v-39.91zM191.52 203.94c.23 5.46 3.38 9.07 8.92 9.07 3.15 0 6.23-1.46 7.46-4.38h12.22c-2.38 9.22-10.91 13.22-19.83 13.22-12.99 0-21.83-7.84-21.83-21.21 0-12.22 9.76-20.98 21.52-20.98 14.3 0 21.44 10.76 20.83 24.29h-29.29zm16.21-7.3c-.23-4.46-3.38-8.15-7.76-8.15-4.61 0-7.69 3.3-8.45 8.15h16.21zM235.79 207.55c0 2 .85 3.46 2.15 4.46 1.23.92 3 1.38 4.84 1.38 2.54 0 6.15-1.08 6.15-4.23 0-3.07-4.07-3.69-6.38-4.23-8.22-2.08-18.52-2.31-18.52-13.07 0-9.61 10.38-12.22 18.22-12.22 8.76 0 17.91 2.54 18.37 12.91h-12.07c0-1.69-.62-2.77-1.69-3.46s-2.54-1-4.15-1c-2.15 0-5.61.23-5.61 3 0 3.77 8.76 4.46 14.76 5.76 8.07 1.61 10.15 7.46 10.15 10.76 0 10.68-10.15 14.22-19.14 14.22-9.45 0-19.14-3.15-19.52-14.3h12.44z"/></g><g><path class="st0" d="M21.66 269.96c.23-5.23 2.69-8.61 6.23-10.68 3.54-2 8.15-2.77 12.68-2.77 9.45 0 18.6 2.08 18.6 13.37v17.45c0 3.38 0 7.07 1.54 10.22H47.56c-.46-1.23-.61-2.46-.77-3.77-3.38 3.54-8.38 4.92-13.14 4.92-7.61 0-13.6-3.84-13.6-12.07 0-12.99 14.14-11.99 23.21-13.83 2.23-.46 3.46-1.23 3.46-3.69 0-3-3.61-4.15-6.3-4.15-3.61 0-5.92 1.61-6.53 5H21.66zm16.91 20.68c6.23 0 8.3-3.54 7.99-11.76-1.84 1.15-5.23 1.38-8.07 2.15-2.92.69-5.38 1.92-5.38 5.07 0 3.23 2.54 4.54 5.46 4.54zM89.68 266.12h-8.07v18.14c0 3.15 1.84 3.84 4.69 3.84 1.08 0 2.23-.15 3.38-.15v9.61c-2.38.08-4.77.38-7.15.38-11.14 0-13.99-3.23-13.99-14.06v-17.75h-6.61v-8.45h6.61V245.6h13.07v12.07h8.07v8.45zM140.1 301.09c-3.15 8.76-7.84 9.84-16.68 9.84h-6.15v-10.61h4.53c3 0 5.23-1.69 5.23-4.46 0-2.15-2.54-8.3-3.3-10.45l-10.3-27.75h13.83l7.53 25.98h.15l7.53-25.98h13.37l-15.74 43.43zM175.68 256.51c12.38 0 21.06 9.15 21.06 21.14s-8.68 21.06-21.06 21.06c-12.37 0-20.98-9.07-20.98-21.06 0-11.99 8.61-21.14 20.98-21.14zm0 32.21c6.07 0 7.99-5.99 7.99-11.07s-1.92-11.14-7.99-11.14-7.92 6.07-7.92 11.14 1.85 11.07 7.92 11.07zM241.17 297.56h-12.68v-5.46h-.15c-2.46 4.07-7.53 6.61-12.14 6.61-11.45 0-14.76-6.61-14.76-17.06v-23.98h13.07v23.13c0 5.3 2.31 7.15 6.46 7.15 2.84 0 7.15-1.84 7.15-8.92v-21.37h13.07v39.9z"/></g><g><path class="st0" d="M25.04 342.98h-6.3v-8.45h6.3c0-11.45 4-14.99 15.14-14.99 2.08 0 4.23.15 6.3.23v9.22a28.92 28.92 0 0 0-3.54-.23c-3 0-4.84.38-4.84 4v1.77h7.84v8.45H38.1v31.44H25.04v-31.44zM48.33 346.82c.23-5.23 2.69-8.61 6.23-10.68 3.54-2 8.15-2.77 12.68-2.77 9.45 0 18.6 2.08 18.6 13.37v17.45c0 3.38 0 7.07 1.54 10.22H74.23c-.46-1.23-.61-2.46-.77-3.77-3.38 3.54-8.38 4.92-13.14 4.92-7.61 0-13.6-3.84-13.6-12.07 0-12.99 14.14-11.99 23.21-13.83 2.23-.46 3.46-1.23 3.46-3.69 0-3-3.61-4.15-6.3-4.15-3.61 0-5.92 1.61-6.53 5H48.33zm16.91 20.68c6.23 0 8.3-3.54 7.99-11.76-1.84 1.15-5.23 1.38-8.07 2.15-2.92.69-5.38 1.92-5.38 5.07 0 3.23 2.54 4.54 5.46 4.54zM103.05 361.27c0 2 .85 3.46 2.15 4.46 1.23.92 3 1.38 4.84 1.38 2.54 0 6.15-1.08 6.15-4.23 0-3.08-4.07-3.69-6.38-4.23-8.22-2.08-18.52-2.31-18.52-13.07 0-9.61 10.38-12.22 18.22-12.22 8.76 0 17.91 2.54 18.37 12.91h-12.07c0-1.69-.61-2.77-1.69-3.46s-2.54-1-4.15-1c-2.15 0-5.61.23-5.61 3 0 3.77 8.76 4.46 14.76 5.76 8.07 1.61 10.15 7.46 10.15 10.76 0 10.68-10.15 14.22-19.14 14.22-9.45 0-19.14-3.15-19.52-14.3h12.44zM158.01 342.98h-8.07v18.14c0 3.15 1.85 3.84 4.69 3.84 1.08 0 2.23-.15 3.38-.15v9.61c-2.38.08-4.77.38-7.15.38-11.14 0-13.99-3.23-13.99-14.07v-17.75h-6.61v-8.45h6.61v-12.07h13.07v12.07h8.07v8.45zM164.08 360.12h14.29v14.3h-14.29v-14.3z"/></g></svg>