<?xml version="1.0" encoding="utf-8"?>
<!-- Generator: Adobe Illustrator 24.2.3, SVG Export Plug-In . SVG Version: 6.00 Build 0)  -->
<svg version="1.1" id="Layer_1" xmlns="http://www.w3.org/2000/svg" xmlns:xlink="http://www.w3.org/1999/xlink" x="0px" y="0px"
	 viewBox="0 0 300 250" style="enable-background:new 0 0 300 250;" xml:space="preserve">
<style type="text/css">
	.st0{fill:#FFFFFF;}
</style>
<g>
	<path class="st0" d="M13.22,85.01h2.18v22.85h-2.18V85.01z"/>
	<path class="st0" d="M29.06,96.18c-0.1-2.5-2.02-3.62-4.32-3.62c-1.79,0-3.9,0.7-3.9,2.85c0,1.79,2.05,2.43,3.42,2.78l2.69,0.61
		c2.3,0.35,4.7,1.7,4.7,4.58c0,3.58-3.55,4.96-6.62,4.96c-3.84,0-6.46-1.79-6.78-5.82h2.02c0.16,2.72,2.18,4.13,4.86,4.13
		c1.89,0,4.51-0.83,4.51-3.14c0-1.92-1.79-2.56-3.62-3.01l-2.59-0.58c-2.62-0.7-4.61-1.6-4.61-4.42c0-3.36,3.3-4.64,6.21-4.64
		c3.3,0,5.92,1.73,6.05,5.31H29.06z"/>
	<path class="st0" d="M41.03,91.34h2.14l5.44,14.08l5.09-14.08h2.02l-7.17,19.04c-1.15,2.78-1.82,3.58-4.35,3.58
		c-0.8-0.03-1.22-0.03-1.54-0.16v-1.7c0.48,0.1,0.93,0.16,1.38,0.16c1.79,0,2.21-1.06,2.88-2.59l0.7-1.89L41.03,91.34z"/>
	<path class="st0" d="M71.46,99.6c0,4.74-2.75,8.74-7.81,8.74s-7.81-4-7.81-8.74s2.75-8.74,7.81-8.74S71.46,94.86,71.46,99.6z
		 M57.86,99.6c0,3.52,1.92,7.04,5.79,7.04c3.87,0,5.79-3.52,5.79-7.04c0-3.52-1.92-7.04-5.79-7.04
		C59.78,92.56,57.86,96.08,57.86,99.6z"/>
	<path class="st0" d="M87.33,107.86h-1.86v-2.98h-0.06c-1.06,2.21-3.23,3.46-5.7,3.46c-4.16,0-5.79-2.43-5.79-6.27V91.34h2.02v10.75
		c0.1,2.98,1.22,4.54,4.42,4.54c3.46,0,4.96-3.26,4.96-6.62v-8.67h2.02V107.86z"/>
	<path class="st0" d="M90.63,91.34h1.86v3.87h0.06c1.02-2.66,3.26-4.22,6.24-4.1v2.02c-3.65-0.19-6.14,2.5-6.14,5.92v8.8h-2.02
		V91.34z"/>
	<path class="st0" d="M109.03,85.01h2.02v22.85h-2.02V85.01z"/>
	<path class="st0" d="M114.37,85.01h2.02v3.23h-2.02V85.01z M114.37,91.34h2.02v16.51h-2.02V91.34z"/>
	<path class="st0" d="M126.18,93.04h-3.26v14.81h-2.02V93.04h-2.82v-1.7h2.82v-1.5c-0.03-2.85,0.77-4.83,4-4.83
		c0.58,0,1.06,0.03,1.7,0.13v1.73c-0.54-0.1-0.99-0.16-1.47-0.16c-2.24,0-2.18,1.41-2.21,3.2v1.44h3.26V93.04z"/>
	<path class="st0" d="M128.39,100.14c0.03,2.94,1.57,6.5,5.44,6.5c2.94,0,4.54-1.73,5.18-4.22h2.02c-0.86,3.74-3.04,5.92-7.2,5.92
		c-5.25,0-7.46-4.03-7.46-8.74c0-4.35,2.21-8.74,7.46-8.74c5.31,0,7.42,4.64,7.26,9.28H128.39z M139.08,98.45
		c-0.1-3.04-1.98-5.89-5.25-5.89c-3.3,0-5.12,2.88-5.44,5.89H139.08z"/>
	<path class="st0" d="M152.1,85.01h2.02v3.23h-2.02V85.01z M152.1,91.34h2.02v16.51h-2.02V91.34z"/>
	<path class="st0" d="M157.41,91.34h2.02v2.85h0.06c0.74-1.98,2.94-3.33,5.28-3.33c4.64,0,6.05,2.43,6.05,6.37v10.62h-2.02v-10.3
		c0-2.85-0.93-4.99-4.19-4.99c-3.2,0-5.12,2.43-5.18,5.66v9.63h-2.02V91.34z"/>
	<path class="st0" d="M183.94,96.18c-0.1-2.5-2.02-3.62-4.32-3.62c-1.79,0-3.9,0.7-3.9,2.85c0,1.79,2.05,2.43,3.42,2.78l2.69,0.61
		c2.3,0.35,4.7,1.7,4.7,4.58c0,3.58-3.55,4.96-6.62,4.96c-3.84,0-6.46-1.79-6.78-5.82h2.02c0.16,2.72,2.18,4.13,4.86,4.13
		c1.89,0,4.51-0.83,4.51-3.14c0-1.92-1.79-2.56-3.62-3.01l-2.59-0.58c-2.62-0.7-4.61-1.6-4.61-4.42c0-3.36,3.29-4.64,6.21-4.64
		c3.3,0,5.92,1.73,6.05,5.31H183.94z"/>
	<path class="st0" d="M202.24,107.86h-1.86v-2.98h-0.06c-1.06,2.21-3.23,3.46-5.7,3.46c-4.16,0-5.79-2.43-5.79-6.27V91.34h2.02
		v10.75c0.1,2.98,1.22,4.54,4.42,4.54c3.46,0,4.96-3.26,4.96-6.62v-8.67h2.02V107.86z"/>
	<path class="st0" d="M205.54,91.34h1.86v3.87h0.06c1.02-2.66,3.26-4.22,6.24-4.1v2.02c-3.65-0.19-6.14,2.5-6.14,5.92v8.8h-2.02
		V91.34z"/>
	<path class="st0" d="M214.75,96.4c0.19-3.87,2.91-5.54,6.69-5.54c2.91,0,6.08,0.9,6.08,5.31v8.77c0,0.77,0.38,1.22,1.18,1.22
		c0.22,0,0.48-0.06,0.64-0.13v1.7c-0.45,0.1-0.77,0.13-1.31,0.13c-2.05,0-2.37-1.15-2.37-2.88h-0.06c-1.41,2.14-2.85,3.36-6.02,3.36
		c-3.04,0-5.54-1.5-5.54-4.83c0-4.64,4.51-4.8,8.86-5.31c1.66-0.19,2.59-0.42,2.59-2.24c0-2.72-1.95-3.39-4.32-3.39
		c-2.5,0-4.35,1.15-4.42,3.84H214.75z M225.51,98.83h-0.06c-0.26,0.48-1.15,0.64-1.7,0.74c-3.42,0.61-7.68,0.58-7.68,3.81
		c0,2.02,1.79,3.26,3.68,3.26c3.07,0,5.79-1.95,5.76-5.18V98.83z"/>
	<path class="st0" d="M231.11,91.34h2.02v2.85h0.06c0.74-1.98,2.94-3.33,5.28-3.33c4.64,0,6.05,2.43,6.05,6.37v10.62h-2.02v-10.3
		c0-2.85-0.93-4.99-4.19-4.99c-3.2,0-5.12,2.43-5.18,5.66v9.63h-2.02V91.34z"/>
	<path class="st0" d="M259.46,96.53c-0.54-2.46-2.05-3.97-4.67-3.97c-3.87,0-5.79,3.52-5.79,7.04c0,3.52,1.92,7.04,5.79,7.04
		c2.5,0,4.54-1.95,4.8-4.7h2.02c-0.54,3.97-3.14,6.4-6.82,6.4c-5.06,0-7.81-4-7.81-8.74s2.75-8.74,7.81-8.74
		c3.52,0,6.24,1.89,6.69,5.66H259.46z"/>
	<path class="st0" d="M265.19,100.14c0.03,2.94,1.57,6.5,5.44,6.5c2.94,0,4.54-1.73,5.18-4.22h2.02c-0.86,3.74-3.04,5.92-7.2,5.92
		c-5.25,0-7.46-4.03-7.46-8.74c0-4.35,2.21-8.74,7.46-8.74c5.31,0,7.42,4.64,7.26,9.28H265.19z M275.87,98.45
		c-0.1-3.04-1.98-5.89-5.25-5.89c-3.29,0-5.12,2.88-5.44,5.89H275.87z"/>
</g>
<g>
	<path class="st0" d="M24.33,130.51c-0.54-2.46-2.05-3.97-4.67-3.97c-3.87,0-5.79,3.52-5.79,7.04c0,3.52,1.92,7.04,5.79,7.04
		c2.5,0,4.54-1.95,4.8-4.7h2.02c-0.54,3.97-3.14,6.4-6.82,6.4c-5.06,0-7.81-4-7.81-8.74c0-4.74,2.75-8.73,7.81-8.73
		c3.52,0,6.24,1.89,6.69,5.66H24.33z"/>
	<path class="st0" d="M28.78,118.99h2.02v9.18h0.06c0.74-1.98,2.94-3.33,5.28-3.33c4.64,0,6.05,2.43,6.05,6.37v10.62h-2.02v-10.3
		c0-2.85-0.93-4.99-4.19-4.99c-3.2,0-5.12,2.43-5.18,5.66v9.63h-2.02V118.99z"/>
	<path class="st0" d="M45.26,130.38c0.19-3.87,2.91-5.54,6.69-5.54c2.91,0,6.08,0.9,6.08,5.31v8.77c0,0.77,0.38,1.22,1.18,1.22
		c0.22,0,0.48-0.06,0.64-0.13v1.7c-0.45,0.1-0.77,0.13-1.31,0.13c-2.05,0-2.37-1.15-2.37-2.88H56.1c-1.41,2.14-2.85,3.36-6.02,3.36
		c-3.04,0-5.54-1.5-5.54-4.83c0-4.64,4.51-4.8,8.86-5.31c1.66-0.19,2.59-0.42,2.59-2.24c0-2.72-1.95-3.39-4.32-3.39
		c-2.5,0-4.35,1.15-4.42,3.84H45.26z M56.01,132.82h-0.06c-0.26,0.48-1.15,0.64-1.7,0.74c-3.42,0.61-7.68,0.58-7.68,3.81
		c0,2.02,1.79,3.26,3.68,3.26c3.07,0,5.79-1.95,5.76-5.18V132.82z"/>
	<path class="st0" d="M61.61,125.33h2.02v2.85h0.06c0.74-1.98,2.94-3.33,5.28-3.33c4.64,0,6.05,2.43,6.05,6.37v10.62H73v-10.3
		c0-2.85-0.93-4.99-4.19-4.99c-3.2,0-5.12,2.43-5.18,5.66v9.63h-2.02V125.33z"/>
	<path class="st0" d="M92.26,140.5c-0.03,4.93-1.92,7.94-7.33,7.94c-3.3,0-6.56-1.47-6.85-4.99h2.02c0.45,2.43,2.59,3.3,4.83,3.3
		c3.71,0,5.31-2.21,5.31-6.24v-2.24h-0.06c-0.93,2.02-2.88,3.39-5.25,3.39c-5.28,0-7.46-3.78-7.46-8.48c0-4.54,2.69-8.32,7.46-8.32
		c2.4,0,4.45,1.5,5.25,3.33h0.06v-2.85h2.02V140.5z M90.25,133.39c0-3.23-1.5-6.85-5.31-6.85c-3.84,0-5.44,3.42-5.44,6.85
		c0,3.33,1.73,6.56,5.44,6.56C88.42,139.95,90.25,136.75,90.25,133.39z"/>
	<path class="st0" d="M95.59,118.99h2.02v3.23h-2.02V118.99z M95.59,125.33h2.02v16.51h-2.02V125.33z"/>
	<path class="st0" d="M100.93,125.33h2.02v2.85h0.06c0.74-1.98,2.94-3.33,5.28-3.33c4.64,0,6.05,2.43,6.05,6.37v10.62h-2.02v-10.3
		c0-2.85-0.93-4.99-4.19-4.99c-3.2,0-5.12,2.43-5.18,5.66v9.63h-2.02V125.33z"/>
	<path class="st0" d="M131.59,140.5c-0.03,4.93-1.92,7.94-7.33,7.94c-3.3,0-6.56-1.47-6.85-4.99h2.02c0.45,2.43,2.59,3.3,4.83,3.3
		c3.71,0,5.31-2.21,5.31-6.24v-2.24h-0.06c-0.93,2.02-2.88,3.39-5.25,3.39c-5.28,0-7.46-3.78-7.46-8.48c0-4.54,2.69-8.32,7.46-8.32
		c2.4,0,4.45,1.5,5.25,3.33h0.06v-2.85h2.02V140.5z M129.57,133.39c0-3.23-1.5-6.85-5.31-6.85c-3.84,0-5.44,3.42-5.44,6.85
		c0,3.33,1.73,6.56,5.44,6.56C127.75,139.95,129.57,136.75,129.57,133.39z"/>
	<path class="st0" d="M138.15,138.45v3.42c-0.03,1.86-0.9,3.81-2.82,4.35v-1.38c1.06-0.38,1.54-1.95,1.47-3.01h-1.34v-3.39H138.15z"
		/>
	<path class="st0" d="M154.66,125.33h3.36v1.7h-3.36v11.13c0,1.31,0.19,2.08,1.63,2.18c0.58,0,1.15-0.03,1.73-0.1v1.73
		c-0.61,0-1.18,0.06-1.79,0.06c-2.69,0-3.62-0.9-3.58-3.71v-11.29h-2.88v-1.7h2.88v-4.96h2.02V125.33z"/>
	<path class="st0" d="M174.31,133.58c0,4.74-2.75,8.74-7.81,8.74s-7.81-4-7.81-8.74c0-4.74,2.75-8.73,7.81-8.73
		S174.31,128.85,174.31,133.58z M160.71,133.58c0,3.52,1.92,7.04,5.79,7.04c3.87,0,5.79-3.52,5.79-7.04c0-3.52-1.92-7.04-5.79-7.04
		C162.63,126.54,160.71,130.06,160.71,133.58z"/>
	<path class="st0" d="M191.62,133.58c0,4.74-2.75,8.74-7.81,8.74s-7.81-4-7.81-8.74c0-4.74,2.75-8.73,7.81-8.73
		S191.62,128.85,191.62,133.58z M178.02,133.58c0,3.52,1.92,7.04,5.79,7.04c3.87,0,5.79-3.52,5.79-7.04c0-3.52-1.92-7.04-5.79-7.04
		C179.94,126.54,178.02,130.06,178.02,133.58z"/>
	<path class="st0" d="M192.13,126.03c0.03-4.54,2.62-7.52,7.26-7.52c3.55,0,6.5,2.21,6.5,5.92c0,2.37-1.15,3.9-2.78,5.44
		c-2.72,2.72-2.88,2.34-2.98,6.24h-2.02c-0.1-3.94,0.99-4.96,3.68-7.46c1.18-1.12,2.08-2.46,2.08-4.13c0-2.56-2.08-4.32-4.58-4.32
		c-3.49,0-5.22,2.53-5.15,5.82H192.13z M197.8,138.45h2.69v3.39h-2.69V138.45z"/>
</g>
</svg>
