<?xml version="1.0" encoding="utf-8"?>
<!-- Generator: Adobe Illustrator 24.2.3, SVG Export Plug-In . SVG Version: 6.00 Build 0)  -->
<svg version="1.1" id="Layer_1" xmlns="http://www.w3.org/2000/svg" xmlns:xlink="http://www.w3.org/1999/xlink" x="0px" y="0px"
	 viewBox="0 0 160 600" style="enable-background:new 0 0 160 600;" xml:space="preserve">
<style type="text/css">
	.st0{fill:#FFFFFF;}
</style>
<g>
	<path class="st0" d="M14.86,116.84h2.45v25.7h-2.45V116.84z"/>
	<path class="st0" d="M24.98,123.97h3.78v1.91h-3.78v12.53c0,1.48,0.22,2.34,1.84,2.45c0.65,0,1.3-0.04,1.94-0.11v1.94
		c-0.68,0-1.33,0.07-2.02,0.07c-3.02,0-4.07-1.01-4.03-4.18v-12.71h-3.24v-1.91h3.24v-5.58h2.27V123.97z"/>
	<path class="st0" d="M35.71,116.84v3.85c-0.04,2.09-1.01,4.28-3.2,4.9v-1.55c1.22-0.43,1.76-2.2,1.69-3.38h-1.51v-3.82H35.71z"/>
	<path class="st0" d="M49.49,129.4c-0.11-2.81-2.27-4.07-4.86-4.07c-2.02,0-4.39,0.79-4.39,3.2c0,2.02,2.3,2.74,3.85,3.13l3.02,0.68
		c2.59,0.4,5.29,1.91,5.29,5.15c0,4.03-4,5.58-7.45,5.58c-4.32,0-7.27-2.02-7.63-6.55h2.27c0.18,3.06,2.45,4.64,5.47,4.64
		c2.12,0,5.08-0.94,5.08-3.53c0-2.16-2.02-2.88-4.07-3.38l-2.92-0.65c-2.95-0.79-5.18-1.8-5.18-4.97c0-3.78,3.71-5.22,6.98-5.22
		c3.71,0,6.66,1.94,6.8,5.98H49.49z"/>
	<path class="st0" d="M68.61,123.97h3.78v1.91h-3.78v12.53c0,1.48,0.22,2.34,1.84,2.45c0.65,0,1.3-0.04,1.94-0.11v1.94
		c-0.68,0-1.33,0.07-2.02,0.07c-3.02,0-4.07-1.01-4.03-4.18v-12.71H63.1v-1.91h3.24v-5.58h2.27V123.97z"/>
	<path class="st0" d="M74.69,116.84h2.27v3.64h-2.27V116.84z M74.69,123.97h2.27v18.57h-2.27V123.97z"/>
	<path class="st0" d="M80.63,123.97h2.09v3.13h0.11c1.19-2.23,3.13-3.67,6.08-3.67c2.45,0,4.64,1.19,5.33,3.64
		c1.12-2.45,3.46-3.64,5.9-3.64c4.07,0,6.16,2.12,6.16,6.52v12.6h-2.27v-12.49c0-3.06-1.15-4.72-4.39-4.72
		c-3.92,0-5.04,3.24-5.04,6.7v10.51h-2.27v-12.6c0.04-2.52-1.01-4.61-3.89-4.61c-3.92,0-5.51,2.95-5.54,6.84v10.37h-2.27V123.97z"/>
	<path class="st0" d="M111.38,133.87c0.04,3.31,1.76,7.31,6.12,7.31c3.31,0,5.11-1.94,5.83-4.75h2.27c-0.97,4.21-3.42,6.66-8.1,6.66
		c-5.9,0-8.39-4.54-8.39-9.83c0-4.9,2.48-9.83,8.39-9.83c5.98,0,8.35,5.22,8.17,10.44H111.38z M123.4,131.96
		c-0.11-3.42-2.23-6.62-5.9-6.62c-3.71,0-5.76,3.24-6.12,6.62H123.4z"/>
</g>
<g>
	<path class="st0" d="M21.41,161.88h-3.67v16.67h-2.27v-16.67h-3.17v-1.91h3.17v-1.69c-0.04-3.2,0.86-5.44,4.5-5.44
		c0.65,0,1.19,0.04,1.91,0.14v1.94c-0.61-0.11-1.12-0.18-1.66-0.18c-2.52,0-2.45,1.58-2.48,3.6v1.62h3.67V161.88z"/>
	<path class="st0" d="M39.09,169.26c0,5.33-3.1,9.83-8.78,9.83c-5.69,0-8.78-4.5-8.78-9.83c0-5.33,3.1-9.83,8.78-9.83
		C35.99,159.43,39.09,163.93,39.09,169.26z M23.79,169.26c0,3.96,2.16,7.92,6.52,7.92s6.52-3.96,6.52-7.92s-2.16-7.92-6.52-7.92
		S23.79,165.3,23.79,169.26z"/>
	<path class="st0" d="M41.9,159.97h2.09v4.36h0.07c1.15-2.99,3.67-4.75,7.02-4.61v2.27c-4.1-0.22-6.91,2.81-6.91,6.66v9.9H41.9
		V159.97z"/>
	<path class="st0" d="M62.35,165.66c0.22-4.36,3.28-6.23,7.52-6.23c3.28,0,6.84,1.01,6.84,5.98v9.86c0,0.86,0.43,1.37,1.33,1.37
		c0.25,0,0.54-0.07,0.72-0.14v1.91c-0.5,0.11-0.86,0.14-1.48,0.14c-2.3,0-2.66-1.3-2.66-3.24h-0.07c-1.58,2.41-3.2,3.78-6.77,3.78
		c-3.42,0-6.23-1.69-6.23-5.44c0-5.22,5.08-5.4,9.97-5.98c1.87-0.22,2.92-0.47,2.92-2.52c0-3.06-2.2-3.82-4.86-3.82
		c-2.81,0-4.9,1.3-4.97,4.32H62.35z M74.44,168.39h-0.07c-0.29,0.54-1.3,0.72-1.91,0.83c-3.85,0.68-8.64,0.65-8.64,4.28
		c0,2.27,2.02,3.67,4.14,3.67c3.46,0,6.52-2.2,6.48-5.83V168.39z"/>
</g>
<g>
	<path class="st0" d="M14.29,188.84h2.27v25.7h-2.27V188.84z"/>
	<path class="st0" d="M21.67,205.87c0.04,3.31,1.76,7.31,6.12,7.31c3.31,0,5.11-1.94,5.83-4.75h2.27c-0.97,4.21-3.42,6.66-8.1,6.66
		c-5.9,0-8.39-4.54-8.39-9.83c0-4.9,2.48-9.83,8.39-9.83c5.98,0,8.35,5.22,8.17,10.44H21.67z M33.69,203.96
		c-0.11-3.42-2.23-6.62-5.9-6.62c-3.71,0-5.76,3.24-6.12,6.62H33.69z"/>
	<path class="st0" d="M35.92,195.97h2.52l5.83,16.31h0.07l5.76-16.31h2.34l-6.95,18.57h-2.41L35.92,195.97z"/>
	<path class="st0" d="M54.82,205.87c0.04,3.31,1.76,7.31,6.12,7.31c3.31,0,5.11-1.94,5.83-4.75h2.27c-0.97,4.21-3.42,6.66-8.1,6.66
		c-5.9,0-8.39-4.54-8.39-9.83c0-4.9,2.48-9.83,8.39-9.83c5.98,0,8.35,5.22,8.17,10.44H54.82z M66.84,203.96
		c-0.11-3.42-2.23-6.62-5.9-6.62c-3.71,0-5.76,3.24-6.12,6.62H66.84z"/>
	<path class="st0" d="M71.78,188.84h2.27v25.7h-2.27V188.84z"/>
	<path class="st0" d="M98.81,201.4c-0.11-2.81-2.27-4.07-4.86-4.07c-2.02,0-4.39,0.79-4.39,3.2c0,2.02,2.3,2.74,3.85,3.13l3.02,0.68
		c2.59,0.4,5.29,1.91,5.29,5.15c0,4.03-4,5.58-7.45,5.58c-4.32,0-7.27-2.02-7.63-6.55h2.27c0.18,3.06,2.45,4.64,5.47,4.64
		c2.12,0,5.08-0.94,5.08-3.53c0-2.16-2.02-2.88-4.07-3.38l-2.92-0.65c-2.95-0.79-5.18-1.8-5.18-4.97c0-3.78,3.71-5.22,6.98-5.22
		c3.71,0,6.66,1.94,6.8,5.98H98.81z"/>
	<path class="st0" d="M105.65,205.87c0.04,3.31,1.76,7.31,6.12,7.31c3.31,0,5.11-1.94,5.83-4.75h2.27c-0.97,4.21-3.42,6.66-8.1,6.66
		c-5.9,0-8.39-4.54-8.39-9.83c0-4.9,2.48-9.83,8.39-9.83c5.98,0,8.35,5.22,8.17,10.44H105.65z M117.68,203.96
		c-0.11-3.42-2.23-6.62-5.9-6.62c-3.71,0-5.76,3.24-6.12,6.62H117.68z"/>
	<path class="st0" d="M125.63,195.97h3.78v1.91h-3.78v12.53c0,1.48,0.22,2.34,1.84,2.45c0.65,0,1.3-0.04,1.94-0.11v1.94
		c-0.68,0-1.33,0.07-2.02,0.07c-3.02,0-4.07-1.01-4.03-4.18v-12.71h-3.24v-1.91h3.24v-5.58h2.27V195.97z"/>
	<path class="st0" d="M132.47,214.54v-3.82h3.02v3.82H132.47z"/>
</g>
</svg>
