<svg xmlns="http://www.w3.org/2000/svg" viewBox="0 0 728 90"><path d="M575.74 83.07v-4.29h.57v3.79h2.12v.51h-2.69zM578.89 80.95c0-.51.05-.92.16-1.23.1-.31.26-.55.46-.72s.47-.25.78-.25c.23 0 .43.05.61.14s.32.23.43.4.2.39.27.64.1.59.1 1.02c0 .5-.05.91-.16 1.22s-.26.55-.46.72-.47.25-.78.25c-.41 0-.74-.15-.98-.45-.29-.35-.43-.93-.43-1.74zm.54 0c0 .71.08 1.17.25 1.41.16.23.37.35.61.35s.45-.12.61-.35.25-.7.25-1.41-.08-1.18-.25-1.41-.37-.35-.62-.35c-.24 0-.44.1-.58.31-.18.26-.27.75-.27 1.45zM583.04 80.74c-.22-.08-.38-.2-.49-.34s-.16-.33-.16-.53c0-.31.11-.57.34-.79s.52-.32.9-.32.68.11.91.33.34.48.34.8c0 .2-.05.37-.16.52s-.26.26-.48.34c.26.09.46.22.6.42.14.19.21.42.21.69 0 .37-.13.68-.39.93s-.6.38-1.03.38-.77-.13-1.03-.38-.39-.56-.39-.94c0-.28.07-.51.21-.7s.35-.34.62-.41zm-.28 1.09c0 .15.04.29.11.44.07.14.18.25.32.33s.29.12.45.12c.25 0 .46-.08.62-.24s.25-.37.25-.62a.852.852 0 0 0-.88-.88c-.25 0-.45.08-.62.25s-.25.35-.25.6zm.17-1.98c0 .2.07.37.2.5s.3.19.51.19c.2 0 .37-.06.5-.19s.2-.29.2-.47a.68.68 0 0 0-.7-.69c-.2 0-.37.06-.5.19s-.21.29-.21.47zM588.33 82.56v.51h-2.84c0-.13.02-.25.06-.37.07-.19.19-.38.35-.57s.39-.4.69-.65c.47-.38.78-.69.95-.91s.25-.43.25-.63c0-.21-.07-.39-.22-.53a.81.81 0 0 0-.58-.21c-.25 0-.46.08-.61.23s-.23.36-.23.63l-.56-.06c.04-.4.18-.71.42-.92s.57-.32.98-.32c.41 0 .74.12.98.34s.36.51.36.85c0 .17-.04.34-.11.51s-.19.34-.35.53-.43.44-.81.76c-.32.27-.52.45-.61.54s-.16.19-.22.29h2.1zM588.9 80.95c0-.51.05-.92.16-1.23.1-.31.26-.55.46-.72s.47-.25.78-.25c.23 0 .43.05.61.14s.32.23.43.4.2.39.27.64.1.59.1 1.02c0 .5-.05.91-.16 1.22s-.26.55-.46.72-.47.25-.78.25c-.41 0-.74-.15-.98-.45-.29-.35-.43-.93-.43-1.74zm.54 0c0 .71.08 1.17.25 1.41.16.23.37.35.61.35s.45-.12.61-.35.25-.7.25-1.41-.08-1.18-.25-1.41-.37-.35-.62-.35c-.24 0-.44.1-.58.31-.18.26-.27.75-.27 1.45zM592.24 80.95c0-.51.05-.92.16-1.23.1-.31.26-.55.46-.72s.47-.25.78-.25c.23 0 .43.05.61.14s.32.23.43.4.2.39.27.64.1.59.1 1.02c0 .5-.05.91-.16 1.22s-.26.55-.46.72-.47.25-.78.25c-.41 0-.74-.15-.98-.45-.29-.35-.43-.93-.43-1.74zm.54 0c0 .71.08 1.17.25 1.41.16.23.37.35.61.35s.45-.12.61-.35.25-.7.25-1.41-.08-1.18-.25-1.41-.37-.35-.62-.35c-.24 0-.44.1-.58.31-.18.26-.27.75-.27 1.45zM595.57 80.95c0-.51.05-.92.16-1.23.1-.31.26-.55.46-.72s.47-.25.78-.25c.23 0 .43.05.61.14s.32.23.43.4.2.39.27.64.1.59.1 1.02c0 .5-.05.91-.16 1.22s-.26.55-.46.72-.47.25-.78.25c-.41 0-.74-.15-.98-.45-.29-.35-.43-.93-.43-1.74zm.54 0c0 .71.08 1.17.25 1.41.16.23.37.35.61.35s.45-.12.61-.35.25-.7.25-1.41-.08-1.18-.25-1.41-.37-.35-.62-.35c-.24 0-.44.1-.58.31-.17.26-.27.75-.27 1.45zM598.94 79.34v-.51h2.78v.41c-.27.29-.54.68-.81 1.16-.27.48-.48.98-.62 1.49-.11.36-.17.75-.2 1.18h-.54c.01-.34.07-.75.2-1.22s.31-.94.55-1.38c.24-.44.49-.82.76-1.12h-2.12zM604.23 83.07h-.53v-3.36c-.13.12-.29.24-.5.36a3.5 3.5 0 0 1-.56.27v-.51c.29-.14.55-.31.77-.5s.38-.39.47-.57h.34v4.31zM605.58 81.94l.55-.05c.04.27.14.47.29.61.15.14.33.2.54.2.25 0 .47-.1.64-.29s.26-.45.26-.76c0-.3-.08-.54-.25-.71s-.39-.26-.66-.26a.926.926 0 0 0-.78.42l-.5-.06.42-2.21h2.14v.5h-1.71l-.23 1.15c.26-.18.53-.27.81-.27.38 0 .69.13.95.39s.39.59.39 1c0 .39-.11.72-.34 1.01-.28.35-.65.52-1.13.52-.39 0-.71-.11-.96-.33s-.39-.5-.43-.86zM608.96 79.34v-.51h2.78v.41c-.27.29-.54.68-.81 1.16-.27.48-.48.98-.62 1.49-.11.36-.17.75-.2 1.18h-.54c.01-.34.07-.75.2-1.22s.31-.94.55-1.38c.24-.44.49-.82.76-1.12h-2.12zM612.42 84.26v-5.49h1.16v.44h-.64v4.61h.64v.44h-1.16zM616.2 82.07l.54.07c-.09.32-.25.56-.48.74s-.53.26-.89.26c-.46 0-.82-.14-1.08-.42-.27-.28-.4-.67-.4-1.18 0-.52.13-.93.4-1.22s.62-.43 1.05-.43c.42 0 .76.14 1.02.43s.4.68.4 1.2v.14h-2.32c.02.34.12.6.29.79s.39.27.65.27c.19 0 .36-.05.5-.15s.24-.28.32-.5zm-1.73-.86h1.74c-.02-.26-.09-.46-.2-.59a.82.82 0 0 0-.65-.3c-.24 0-.45.08-.61.24-.17.17-.26.38-.28.65zM617.06 83.07l1.14-1.62-1.05-1.49h.66l.48.73c.09.14.16.25.22.35.09-.13.17-.24.24-.34l.52-.74h.63l-1.08 1.46 1.16 1.65h-.65l-.64-.97-.17-.26-.82 1.23h-.64zM620.41 84.26v-4.3h.48v.4c.11-.16.24-.28.38-.36s.32-.12.52-.12c.27 0 .5.07.7.21s.36.33.46.58.16.52.16.82c0 .32-.06.6-.17.86-.12.25-.28.45-.5.59-.22.14-.45.2-.69.2a1.018 1.018 0 0 1-.81-.39v1.52h-.53zm.47-2.73c0 .4.08.7.24.89s.36.29.59.29c.23 0 .44-.1.6-.3.17-.2.25-.51.25-.92 0-.4-.08-.69-.25-.89s-.36-.29-.58-.29c-.22 0-.42.1-.6.31-.16.21-.25.51-.25.91zM623.6 80.95c0-.51.05-.92.16-1.23.1-.31.26-.55.46-.72s.47-.25.78-.25c.23 0 .43.05.61.14s.32.23.43.4.2.39.27.64.1.59.1 1.02c0 .5-.05.91-.16 1.22s-.26.55-.46.72-.47.25-.78.25c-.41 0-.74-.15-.98-.45-.29-.35-.43-.93-.43-1.74zm.54 0c0 .71.08 1.17.25 1.41.16.23.37.35.61.35s.45-.12.61-.35.25-.7.25-1.41-.08-1.18-.25-1.41-.37-.35-.62-.35c-.24 0-.44.1-.58.31-.18.26-.27.75-.27 1.45zM627.75 80.74c-.22-.08-.38-.2-.49-.34s-.16-.33-.16-.53c0-.31.11-.57.34-.79s.52-.32.9-.32.68.11.91.33.34.48.34.8c0 .2-.05.37-.16.52s-.26.26-.48.34c.26.09.46.22.6.42.14.19.21.42.21.69 0 .37-.13.68-.39.93s-.6.38-1.03.38-.77-.13-1.03-.38-.39-.56-.39-.94c0-.28.07-.51.21-.7s.35-.34.62-.41zm-.28 1.09c0 .15.04.29.11.44.07.14.18.25.32.33s.29.12.45.12c.25 0 .46-.08.62-.24s.25-.37.25-.62a.852.852 0 0 0-.88-.88c-.25 0-.45.08-.62.25s-.25.35-.25.6zm.17-1.98c0 .2.07.37.2.5s.3.19.51.19c.2 0 .37-.06.5-.19s.2-.29.2-.47a.68.68 0 0 0-.7-.69c-.2 0-.37.06-.5.19s-.21.29-.21.47zM633.04 82.56v.51h-2.84c0-.13.02-.25.06-.37.07-.19.19-.38.35-.57s.39-.4.69-.65c.47-.38.78-.69.95-.91s.25-.43.25-.63c0-.21-.07-.39-.22-.53a.81.81 0 0 0-.58-.21c-.25 0-.46.08-.61.23s-.23.36-.23.63l-.56-.06c.04-.4.18-.71.42-.92s.57-.32.98-.32c.41 0 .74.12.98.34s.36.51.36.85c0 .17-.04.34-.11.51s-.19.34-.35.53-.43.44-.81.76c-.32.27-.52.45-.61.54s-.16.19-.22.29h2.1zM635.59 83.07h-.53v-3.36c-.13.12-.29.24-.5.36a3.5 3.5 0 0 1-.56.27v-.51c.29-.14.55-.31.77-.5s.38-.39.47-.57h.34v4.31zM637.97 84.26h-1.16v-.44h.64v-4.61h-.64v-.44h1.16v5.49zM638.77 84.26v-5.49h1.16v.44h-.64v4.61h.64v.44h-1.16zM640.02 83.07l1.65-4.29h.61l1.76 4.29h-.65l-.5-1.3h-1.8l-.47 1.3h-.6zm1.24-1.77h1.46l-.45-1.19c-.14-.36-.24-.66-.3-.89-.05.28-.13.55-.23.82l-.48 1.26zM644.42 83.07v-4.29h.53v4.29h-.53zM645.75 83.07v-4.29h.53v4.29h-.53zM648.63 81.69l.54-.05c.03.21.08.39.18.53s.24.25.43.33.42.13.66.13c.22 0 .41-.03.57-.1s.29-.15.37-.26c.08-.11.12-.24.12-.37s-.04-.25-.12-.35-.21-.18-.39-.25c-.12-.04-.37-.12-.76-.21s-.67-.18-.83-.27c-.21-.11-.36-.24-.46-.4s-.15-.34-.15-.53c0-.22.06-.42.18-.61s.3-.33.54-.43.5-.15.79-.15c.32 0 .6.05.84.15.24.1.43.25.56.45s.2.43.21.68l-.54.04c-.03-.27-.13-.48-.3-.62s-.42-.21-.75-.21c-.34 0-.59.06-.75.19s-.24.28-.24.46c0 .15.06.28.17.38.11.1.39.2.86.31.46.1.78.2.95.27.25.12.43.26.55.44s.18.38.18.61c0 .23-.07.44-.2.65s-.32.36-.56.47-.52.17-.83.17c-.39 0-.71-.06-.98-.17s-.47-.28-.62-.51c-.13-.23-.21-.48-.22-.77zM653.91 82.6l.08.46c-.15.03-.28.05-.4.05-.19 0-.34-.03-.45-.09s-.18-.14-.22-.24-.06-.31-.06-.62v-1.79h-.39v-.41h.39v-.77l.52-.32v1.09h.53v.41h-.53v1.82c0 .15.01.25.03.29.02.04.05.08.09.1s.1.04.18.04c.06 0 .14-.01.23-.02zM656.46 82.69c-.2.17-.38.28-.56.35s-.37.1-.58.1c-.34 0-.6-.08-.79-.25s-.28-.38-.28-.64c0-.15.03-.29.1-.42s.16-.23.27-.3c.11-.08.24-.13.38-.17.1-.03.26-.05.47-.08.43-.05.74-.11.94-.18v-.14c0-.21-.05-.37-.15-.46-.13-.12-.33-.18-.6-.18-.25 0-.43.04-.55.13-.12.09-.21.24-.26.46l-.52-.07c.05-.22.12-.4.23-.54s.26-.24.47-.31.44-.11.71-.11c.27 0 .48.03.65.09s.29.14.37.24.13.21.16.36c.02.09.03.25.03.49v.7c0 .49.01.8.03.93.02.13.07.25.13.37h-.55c-.05-.1-.08-.23-.1-.37zm-.04-1.18c-.19.08-.48.14-.86.2-.22.03-.37.07-.46.11s-.16.1-.21.17-.07.16-.07.25c0 .14.05.26.16.35.11.09.26.14.47.14.2 0 .38-.04.54-.13s.27-.21.35-.36c.06-.12.08-.29.08-.53v-.2zM658.92 82.6l.08.46c-.15.03-.28.05-.4.05-.19 0-.34-.03-.45-.09s-.18-.14-.22-.24-.06-.31-.06-.62v-1.79h-.39v-.41h.39v-.77l.52-.32v1.09h.53v.41h-.53v1.82c0 .15.01.25.03.29.02.04.05.08.09.1s.1.04.18.04c.06 0 .13-.01.23-.02zM661.56 82.07l.54.07c-.09.32-.25.56-.48.74s-.53.26-.89.26c-.46 0-.82-.14-1.08-.42-.27-.28-.4-.67-.4-1.18 0-.52.13-.93.4-1.22s.62-.43 1.05-.43c.42 0 .76.14 1.02.43s.4.68.4 1.2v.14h-2.32c.02.34.12.6.29.79s.39.27.65.27c.19 0 .36-.05.5-.15s.24-.28.32-.5zm-1.73-.86h1.74c-.02-.26-.09-.46-.2-.59a.82.82 0 0 0-.65-.3c-.24 0-.45.08-.61.24-.17.17-.26.38-.28.65zM662.56 82.14l.52-.08c.03.21.11.37.25.48.13.11.32.17.56.17.24 0 .42-.05.54-.15s.18-.21.18-.35a.31.31 0 0 0-.16-.28c-.07-.05-.25-.11-.54-.18-.39-.1-.66-.18-.8-.25a.787.787 0 0 1-.46-.72.79.79 0 0 1 .35-.67c.08-.06.19-.11.34-.15.14-.04.29-.06.46-.06.24 0 .46.04.64.11.19.07.32.17.41.29s.15.28.18.48l-.52.07c-.02-.16-.09-.29-.2-.38s-.27-.13-.48-.13c-.24 0-.42.04-.52.12s-.16.17-.16.28c0 .07.02.13.06.18.04.06.11.1.2.14.05.02.21.06.47.13.37.1.63.18.78.25s.26.16.35.28.13.27.13.45-.05.34-.15.5c-.1.16-.25.28-.44.36s-.41.13-.66.13c-.4 0-.71-.08-.92-.25s-.35-.44-.41-.77zM666.65 84.26h-1.16v-.44h.64v-4.61h-.64v-.44h1.16v5.49zM667.45 84.26v-5.49h1.16v.44h-.64v4.61h.64v.44h-1.16zM669.17 83.07v-4.29h1.48c.33 0 .59.02.76.06.25.06.46.16.63.31.23.19.4.44.51.73.11.3.17.64.17 1.02 0 .33-.04.62-.11.87s-.17.46-.29.62-.25.29-.39.39-.31.17-.51.22c-.2.05-.43.07-.69.07h-1.56zm.57-.51h.92c.28 0 .5-.03.67-.08.16-.05.29-.13.38-.22.13-.13.24-.32.31-.54s.11-.5.11-.83c0-.45-.07-.79-.22-1.04-.15-.24-.33-.4-.54-.48-.15-.06-.4-.09-.74-.09h-.9v3.28zM676.57 81.56l.57.14c-.12.47-.33.82-.64 1.07-.31.25-.69.37-1.14.37-.46 0-.84-.09-1.13-.28-.29-.19-.51-.46-.66-.82s-.23-.74-.23-1.15c0-.45.08-.84.26-1.17s.41-.59.73-.76c.31-.17.66-.26 1.04-.26.43 0 .79.11 1.08.33s.5.53.61.92l-.56.13c-.1-.31-.24-.54-.43-.68s-.43-.21-.71-.21c-.33 0-.61.08-.83.24s-.38.37-.47.64-.13.54-.13.83c0 .37.05.68.16.96.11.27.27.48.5.61s.47.2.73.2c.32 0 .59-.09.81-.28s.36-.47.44-.83zM677.91 83.07v-.6h.6v.6c0 .22-.04.4-.12.54s-.2.24-.37.31l-.15-.22c.11-.05.19-.12.25-.22s.08-.23.09-.41h-.3zM681.51 81.38v-.5h1.82v1.59c-.28.22-.57.39-.86.5s-.6.17-.91.17c-.42 0-.81-.09-1.15-.27s-.6-.44-.78-.78-.26-.72-.26-1.15c0-.42.09-.81.26-1.17.17-.36.43-.63.75-.81s.71-.26 1.13-.26c.31 0 .59.05.84.15.25.1.45.24.59.42s.25.41.33.7l-.51.14c-.06-.22-.14-.39-.24-.52s-.23-.22-.41-.3-.38-.11-.59-.11c-.26 0-.48.04-.67.12s-.34.18-.46.31-.21.27-.27.43c-.11.27-.16.55-.16.86 0 .38.07.7.2.96s.32.45.58.57.52.19.8.19c.25 0 .49-.05.72-.14s.41-.2.53-.3v-.8h-1.28zM686.99 78.77h.57v2.48c0 .43-.05.77-.15 1.03s-.27.46-.53.62c-.25.16-.59.24-1 .24-.4 0-.73-.07-.99-.21s-.44-.34-.55-.6-.16-.62-.16-1.08v-2.48h.57v2.48c0 .37.03.65.1.83a.8.8 0 0 0 .36.41c.17.1.38.14.62.14.42 0 .72-.09.89-.28s.27-.55.27-1.09v-2.49zM688.58 83.07v-.6h.6v.6c0 .22-.04.4-.12.54s-.2.24-.37.31l-.15-.22c.11-.05.19-.12.25-.22s.08-.23.09-.41h-.3zM690.15 83.07v-4.29h.86l1.02 3.04c.09.28.16.5.21.64.05-.16.12-.39.23-.69l1.03-2.99h.76v4.29h-.55v-3.59l-1.25 3.59h-.51l-1.24-3.66v3.66h-.56zM695.17 83.07v-4.29h1.62c.29 0 .5.01.65.04.21.04.39.1.53.2s.26.24.34.41c.09.18.13.37.13.59 0 .37-.12.67-.35.93s-.65.38-1.26.38h-1.1v1.75h-.56zm.57-2.25h1.11c.37 0 .63-.07.78-.21s.23-.33.23-.58c0-.18-.05-.33-.14-.46a.612.612 0 0 0-.36-.25c-.1-.03-.27-.04-.53-.04h-1.1v1.54zM698.47 83.07v-.6h.6v.6c0 .22-.04.4-.12.54s-.2.24-.37.31l-.15-.22c.11-.05.19-.12.25-.22s.08-.23.09-.41h-.3zM700.07 83.07v-4.29h1.62c.29 0 .5.01.65.04.21.04.39.1.53.2s.26.24.34.41c.09.18.13.37.13.59 0 .37-.12.67-.35.93s-.65.38-1.26.38h-1.1v1.75h-.56zm.56-2.25h1.11c.37 0 .63-.07.78-.21s.23-.33.23-.58c0-.18-.05-.33-.14-.46a.612.612 0 0 0-.36-.25c-.1-.03-.27-.04-.53-.04h-1.1v1.54zM704.08 83.07v-4.29h1.9c.38 0 .67.04.87.12s.36.21.48.41.18.41.18.65c0 .3-.1.56-.3.77s-.5.34-.91.4c.15.07.26.14.34.21.17.15.32.34.47.57l.75 1.17h-.71l-.57-.89c-.17-.26-.3-.46-.41-.59s-.2-.23-.29-.29c-.09-.05-.17-.09-.26-.12-.06-.01-.17-.02-.32-.02h-.66v1.91h-.56zm.56-2.4h1.22c.26 0 .46-.03.61-.08s.26-.14.33-.26.11-.25.11-.39c0-.2-.07-.37-.22-.5s-.38-.2-.7-.2h-1.36v1.43zM708.47 83.07v-.6h.6v.6c0 .22-.04.4-.12.54s-.2.24-.37.31l-.15-.22c.11-.05.19-.12.25-.22s.08-.23.09-.41h-.3zM711.29 83.07l-1.66-4.29h.62l1.12 3.12c.09.25.17.48.23.7.07-.23.14-.47.23-.7l1.16-3.12h.58l-1.68 4.29h-.6zM714.17 83.07v-4.29h.57v4.29h-.57zM716.55 84.26h-1.16v-.44h.64v-4.61h-.64v-.44h1.16v5.49z"/></svg>