<svg id="Layer_1" xmlns="http://www.w3.org/2000/svg" viewBox="0 0 728 90"><style>.st0{fill:#fff}</style><path class="st0" d="M35.08 32.53h3.26V66.8h-3.26V32.53zM48.38 42.04h5.04v2.54h-5.04v16.71c0 1.97.29 3.12 2.45 3.26.86 0 1.73-.05 2.59-.14V67c-.91 0-1.78.1-2.69.1-4.03 0-5.42-1.34-5.38-5.57V44.58h-4.32v-2.54h4.32V34.6h3.02v7.44zM62.53 32.53v5.14c-.05 2.78-1.34 5.71-4.27 6.53v-2.06c1.63-.58 2.35-2.93 2.26-4.51H58.5v-5.09h4.03zM80.68 49.29c-.14-3.74-3.02-5.42-6.48-5.42-2.69 0-5.86 1.06-5.86 4.27 0 2.69 3.07 3.65 5.14 4.18l4.03.91c3.46.53 7.06 2.54 7.06 6.86 0 5.38-5.33 7.44-9.94 7.44-5.76 0-9.7-2.69-10.18-8.74h3.02c.24 4.08 3.26 6.19 7.3 6.19 2.83 0 6.77-1.25 6.77-4.7 0-2.88-2.69-3.84-5.42-4.51l-3.89-.86c-3.94-1.06-6.91-2.4-6.91-6.62 0-5.04 4.94-6.96 9.31-6.96 4.94 0 8.88 2.59 9.07 7.97h-3.02zM106.21 42.04h5.04v2.54h-5.04v16.71c0 1.97.29 3.12 2.45 3.26.86 0 1.73-.05 2.59-.14V67c-.91 0-1.78.1-2.69.1-4.03 0-5.42-1.34-5.38-5.57V44.58h-4.32v-2.54h4.32V34.6h3.02v7.44zM114.13 32.53h3.02v4.85h-3.02v-4.85zm0 9.51h3.02v24.77h-3.02V42.04zM121.91 42.04h2.78v4.18h.14c1.58-2.98 4.18-4.9 8.11-4.9 3.26 0 6.19 1.58 7.1 4.85 1.49-3.26 4.61-4.85 7.87-4.85 5.42 0 8.21 2.83 8.21 8.69v16.8h-3.02V50.15c0-4.08-1.54-6.29-5.86-6.29-5.23 0-6.72 4.32-6.72 8.93v14.02h-3.02V50c.05-3.36-1.34-6.14-5.18-6.14-5.23 0-7.34 3.94-7.39 9.12v13.83h-3.02V42.04zM162.76 55.24c.05 4.42 2.35 9.75 8.16 9.75 4.42 0 6.82-2.59 7.78-6.34h3.02c-1.3 5.62-4.56 8.88-10.8 8.88-7.87 0-11.18-6.05-11.18-13.1 0-6.53 3.31-13.11 11.18-13.11 7.97 0 11.14 6.96 10.9 13.92h-19.06zm16.03-2.55c-.14-4.56-2.98-8.83-7.87-8.83-4.94 0-7.68 4.32-8.16 8.83h16.03zM207.93 44.58h-4.9v22.23H200V44.58h-4.22v-2.54H200v-2.26c-.05-4.27 1.15-7.25 6-7.25.86 0 1.58.05 2.54.19v2.59c-.82-.14-1.49-.24-2.21-.24-3.36 0-3.26 2.11-3.31 4.8v2.16h4.9v2.55zM231.3 54.42c0 7.1-4.13 13.1-11.71 13.1-7.58 0-11.71-6-11.71-13.1s4.13-13.11 11.71-13.11c7.58.01 11.71 6.01 11.71 13.11zm-20.4 0c0 5.28 2.88 10.56 8.69 10.56s8.69-5.28 8.69-10.56-2.88-10.56-8.69-10.56-8.69 5.28-8.69 10.56zM234.85 42.04h2.78v5.81h.1c1.54-3.98 4.9-6.34 9.36-6.14v3.02c-5.47-.29-9.22 3.74-9.22 8.88v13.2h-3.02V42.04zM262.12 49.62c.29-5.81 4.37-8.3 10.03-8.3 4.37 0 9.12 1.34 9.12 7.97v13.15c0 1.15.58 1.82 1.78 1.82.34 0 .72-.1.96-.19v2.54c-.67.14-1.15.19-1.97.19-3.07 0-3.55-1.73-3.55-4.32h-.1c-2.11 3.22-4.27 5.04-9.02 5.04-4.56 0-8.3-2.26-8.3-7.25 0-6.96 6.77-7.2 13.3-7.97 2.5-.29 3.89-.62 3.89-3.36 0-4.08-2.93-5.09-6.48-5.09-3.74 0-6.53 1.73-6.62 5.76h-3.04zm16.12 3.65h-.1c-.38.72-1.73.96-2.54 1.1-5.14.91-11.52.86-11.52 5.71 0 3.02 2.69 4.9 5.52 4.9 4.61 0 8.69-2.93 8.64-7.78v-3.93zM299.8 32.53h3.02V66.8h-3.02V32.53zM309.49 55.24c.05 4.42 2.35 9.75 8.16 9.75 4.42 0 6.82-2.59 7.78-6.34h3.02c-1.3 5.62-4.56 8.88-10.8 8.88-7.87 0-11.18-6.05-11.18-13.1 0-6.53 3.31-13.11 11.18-13.11 7.97 0 11.14 6.96 10.9 13.92h-19.06zm16.03-2.55c-.14-4.56-2.98-8.83-7.87-8.83-4.94 0-7.68 4.32-8.16 8.83h16.03zM328.31 42.04h3.36l7.78 21.75h.1l7.68-21.75h3.12l-9.26 24.77h-3.22l-9.56-24.77zM353.36 55.24c.05 4.42 2.35 9.75 8.16 9.75 4.42 0 6.82-2.59 7.78-6.34h3.02c-1.3 5.62-4.56 8.88-10.8 8.88-7.87 0-11.18-6.05-11.18-13.1 0-6.53 3.31-13.11 11.18-13.11 7.97 0 11.14 6.96 10.9 13.92h-19.06zm16.04-2.55c-.14-4.56-2.98-8.83-7.87-8.83-4.94 0-7.68 4.32-8.16 8.83h16.03zM375.83 32.53h3.02V66.8h-3.02V32.53zM411.92 49.29c-.14-3.74-3.02-5.42-6.48-5.42-2.69 0-5.86 1.06-5.86 4.27 0 2.69 3.07 3.65 5.14 4.18l4.03.91c3.46.53 7.06 2.54 7.06 6.86 0 5.38-5.33 7.44-9.94 7.44-5.76 0-9.7-2.69-10.18-8.74h3.02c.24 4.08 3.26 6.19 7.3 6.19 2.83 0 6.77-1.25 6.77-4.7 0-2.88-2.69-3.84-5.42-4.51l-3.89-.86c-3.94-1.06-6.91-2.4-6.91-6.62 0-5.04 4.94-6.96 9.31-6.96 4.94 0 8.88 2.59 9.07 7.97h-3.02zM420.9 55.24c.05 4.42 2.35 9.75 8.16 9.75 4.42 0 6.82-2.59 7.78-6.34h3.02c-1.3 5.62-4.56 8.88-10.8 8.88-7.87 0-11.19-6.05-11.19-13.1 0-6.53 3.31-13.11 11.19-13.11 7.97 0 11.14 6.96 10.9 13.92H420.9zm16.03-2.55c-.14-4.56-2.98-8.83-7.87-8.83-4.94 0-7.68 4.32-8.16 8.83h16.03zM447.39 42.04h5.04v2.54h-5.04v16.71c0 1.97.29 3.12 2.45 3.26.86 0 1.73-.05 2.59-.14V67c-.91 0-1.78.1-2.69.1-4.03 0-5.42-1.34-5.38-5.57V44.58h-4.32v-2.54h4.32V34.6h3.02v7.44zM456.32 66.81v-5.09h4.03v5.09h-4.03z"/></svg>