<svg id="Layer_1" xmlns="http://www.w3.org/2000/svg" viewBox="0 0 728 90"><style>.st0{fill:#fff}</style><path class="st0" d="M335.11 56.55h1.7V74.4h-1.7V56.55zM347.53 65.27c-.07-1.95-1.57-2.82-3.37-2.82-1.4 0-3.05.55-3.05 2.22 0 1.4 1.6 1.9 2.67 2.17l2.1.47c1.8.27 3.67 1.32 3.67 3.57 0 2.8-2.77 3.87-5.17 3.87-3 0-5.05-1.4-5.3-4.55h1.57c.12 2.12 1.7 3.22 3.8 3.22 1.47 0 3.52-.65 3.52-2.45 0-1.5-1.4-2-2.82-2.35l-2.02-.45c-2.05-.55-3.6-1.25-3.6-3.45 0-2.62 2.57-3.62 4.85-3.62 2.57 0 4.62 1.35 4.72 4.15h-1.57zM356.88 61.5h1.67l4.25 11 3.97-11h1.58l-5.6 14.87c-.9 2.17-1.42 2.8-3.4 2.8-.62-.02-.95-.02-1.2-.12v-1.32c.38.08.73.12 1.08.12 1.4 0 1.72-.83 2.25-2.02l.55-1.47-5.15-12.86zM380.71 67.95c0 3.7-2.15 6.82-6.1 6.82s-6.1-3.12-6.1-6.82 2.15-6.82 6.1-6.82 6.1 3.12 6.1 6.82zm-10.63 0c0 2.75 1.5 5.5 4.52 5.5s4.52-2.75 4.52-5.5-1.5-5.5-4.52-5.5-4.52 2.75-4.52 5.5zM393.13 74.39h-1.45v-2.32h-.05c-.82 1.72-2.52 2.7-4.45 2.7-3.25 0-4.52-1.9-4.52-4.9V61.5h1.57v8.4c.08 2.32.95 3.55 3.45 3.55 2.7 0 3.87-2.55 3.87-5.17V61.5h1.58v12.89zM395.76 61.5h1.45v3.02h.05c.8-2.07 2.55-3.3 4.87-3.2v1.58c-2.85-.15-4.8 1.95-4.8 4.62v6.87h-1.57V61.5zM410.13 56.55h1.58V74.4h-1.58V56.55zM414.36 56.55h1.58v2.52h-1.58v-2.52zm0 4.95h1.58v12.9h-1.58V61.5zM423.63 62.82h-2.55v11.57h-1.57V62.82h-2.2V61.5h2.2v-1.17c-.03-2.22.6-3.77 3.12-3.77.45 0 .83.03 1.32.1V58c-.42-.07-.77-.12-1.15-.12-1.75 0-1.7 1.1-1.72 2.5v1.12h2.55v1.32zM425.41 68.37c.02 2.3 1.22 5.07 4.25 5.07 2.3 0 3.55-1.35 4.05-3.3h1.57c-.67 2.92-2.37 4.62-5.62 4.62-4.1 0-5.82-3.15-5.82-6.82 0-3.4 1.72-6.82 5.82-6.82 4.15 0 5.8 3.62 5.67 7.25h-9.92zm8.34-1.32c-.08-2.37-1.55-4.6-4.1-4.6-2.58 0-4 2.25-4.25 4.6h8.35zM443.96 56.55h1.58v2.52h-1.58v-2.52zm0 4.95h1.58v12.9h-1.58V61.5zM448.18 61.5h1.57v2.22h.05c.57-1.55 2.3-2.6 4.12-2.6 3.62 0 4.72 1.9 4.72 4.97v8.3h-1.58v-8.05c0-2.22-.72-3.9-3.27-3.9-2.5 0-4 1.9-4.05 4.42v7.52h-1.57V61.5zM468.95 65.27c-.08-1.95-1.57-2.82-3.37-2.82-1.4 0-3.05.55-3.05 2.22 0 1.4 1.6 1.9 2.67 2.17l2.1.47c1.8.27 3.67 1.32 3.67 3.57 0 2.8-2.77 3.87-5.17 3.87-3 0-5.05-1.4-5.3-4.55h1.58c.12 2.12 1.7 3.22 3.8 3.22 1.47 0 3.52-.65 3.52-2.45 0-1.5-1.4-2-2.82-2.35l-2.02-.45c-2.05-.55-3.6-1.25-3.6-3.45 0-2.62 2.57-3.62 4.85-3.62 2.57 0 4.62 1.35 4.72 4.15h-1.58zM483.3 74.39h-1.45v-2.32h-.05c-.82 1.72-2.52 2.7-4.45 2.7-3.25 0-4.52-1.9-4.52-4.9V61.5h1.57v8.4c.08 2.32.95 3.55 3.45 3.55 2.7 0 3.87-2.55 3.87-5.17V61.5h1.58v12.89zM485.93 61.5h1.45v3.02h.05c.8-2.07 2.55-3.3 4.87-3.2v1.58c-2.85-.15-4.8 1.95-4.8 4.62v6.87h-1.57V61.5zM493.18 65.45c.15-3.02 2.27-4.32 5.22-4.32 2.27 0 4.75.7 4.75 4.15v6.85c0 .6.3.95.92.95.17 0 .38-.05.5-.1v1.33c-.35.07-.6.1-1.03.1-1.6 0-1.85-.9-1.85-2.25h-.05c-1.1 1.67-2.22 2.62-4.7 2.62-2.38 0-4.32-1.17-4.32-3.77 0-3.62 3.52-3.75 6.92-4.15 1.3-.15 2.03-.33 2.03-1.75 0-2.12-1.53-2.65-3.38-2.65-1.95 0-3.4.9-3.45 3h-1.56zm8.4 1.9h-.05c-.2.37-.9.5-1.32.57-2.67.48-6 .45-6 2.97 0 1.57 1.4 2.55 2.88 2.55 2.4 0 4.52-1.52 4.5-4.05v-2.04zM506 61.5h1.57v2.22h.05c.57-1.55 2.3-2.6 4.12-2.6 3.62 0 4.72 1.9 4.72 4.97v8.3h-1.58v-8.05c0-2.22-.72-3.9-3.27-3.9-2.5 0-4 1.9-4.05 4.42v7.52H506V61.5zM528.2 65.55c-.42-1.92-1.6-3.1-3.65-3.1-3.02 0-4.52 2.75-4.52 5.5s1.5 5.5 4.52 5.5c1.95 0 3.55-1.52 3.75-3.67h1.58c-.43 3.1-2.45 5-5.32 5-3.95 0-6.1-3.12-6.1-6.82s2.15-6.82 6.1-6.82c2.75 0 4.87 1.47 5.22 4.42h-1.58zM532.73 68.37c.02 2.3 1.22 5.07 4.25 5.07 2.3 0 3.55-1.35 4.05-3.3h1.57c-.67 2.92-2.37 4.62-5.62 4.62-4.1 0-5.82-3.15-5.82-6.82 0-3.4 1.72-6.82 5.82-6.82 4.15 0 5.8 3.62 5.67 7.25h-9.92zm8.35-1.32c-.08-2.37-1.55-4.6-4.1-4.6-2.58 0-4 2.25-4.25 4.6h8.35zM560.35 65.55c-.42-1.92-1.6-3.1-3.65-3.1-3.02 0-4.52 2.75-4.52 5.5s1.5 5.5 4.52 5.5c1.95 0 3.55-1.52 3.75-3.67h1.58c-.43 3.1-2.45 5-5.32 5-3.95 0-6.1-3.12-6.1-6.82s2.15-6.82 6.1-6.82c2.75 0 4.87 1.47 5.22 4.42h-1.58zM563.88 56.55h1.57v7.17h.05c.57-1.55 2.3-2.6 4.12-2.6 3.62 0 4.72 1.9 4.72 4.97v8.3h-1.58v-8.05c0-2.22-.72-3.9-3.27-3.9-2.5 0-4 1.9-4.05 4.42v7.52h-1.57V56.55zM576.8 65.45c.15-3.02 2.27-4.32 5.22-4.32 2.27 0 4.75.7 4.75 4.15v6.85c0 .6.3.95.92.95.17 0 .38-.05.5-.1v1.33c-.35.07-.6.1-1.03.1-1.6 0-1.85-.9-1.85-2.25h-.05c-1.1 1.67-2.22 2.62-4.7 2.62-2.38 0-4.32-1.17-4.32-3.77 0-3.62 3.52-3.75 6.92-4.15 1.3-.15 2.03-.33 2.03-1.75 0-2.12-1.53-2.65-3.38-2.65-1.95 0-3.4.9-3.45 3h-1.56zm8.4 1.9h-.05c-.2.37-.9.5-1.32.57-2.67.48-6 .45-6 2.97 0 1.57 1.4 2.55 2.88 2.55 2.4 0 4.52-1.52 4.5-4.05v-2.04zM589.63 61.5h1.57v2.22h.05c.57-1.55 2.3-2.6 4.12-2.6 3.62 0 4.72 1.9 4.72 4.97v8.3h-1.58v-8.05c0-2.22-.72-3.9-3.27-3.9-2.5 0-4 1.9-4.05 4.42v7.52h-1.57V61.5zM613.63 73.34c-.03 3.85-1.5 6.2-5.72 6.2-2.58 0-5.12-1.15-5.35-3.9h1.58c.35 1.9 2.02 2.57 3.77 2.57 2.9 0 4.15-1.72 4.15-4.87V71.6H612c-.72 1.57-2.25 2.65-4.1 2.65-4.12 0-5.82-2.95-5.82-6.62 0-3.55 2.1-6.5 5.82-6.5 1.87 0 3.47 1.17 4.1 2.6h.05V61.5h1.58v11.84zm-1.58-5.54c0-2.52-1.17-5.35-4.15-5.35-3 0-4.25 2.67-4.25 5.35 0 2.6 1.35 5.12 4.25 5.12 2.73 0 4.15-2.5 4.15-5.12zM616.28 56.55h1.58v2.52h-1.58v-2.52zm0 4.95h1.58v12.9h-1.58V61.5zM620.48 61.5h1.57v2.22h.05c.57-1.55 2.3-2.6 4.12-2.6 3.62 0 4.72 1.9 4.72 4.97v8.3h-1.58v-8.05c0-2.22-.72-3.9-3.27-3.9-2.5 0-4 1.9-4.05 4.42v7.52h-1.57V61.5zM644.48 73.34c-.03 3.85-1.5 6.2-5.72 6.2-2.58 0-5.12-1.15-5.35-3.9h1.58c.35 1.9 2.02 2.57 3.77 2.57 2.9 0 4.15-1.72 4.15-4.87V71.6h-.05c-.72 1.57-2.25 2.65-4.1 2.65-4.12 0-5.82-2.95-5.82-6.62 0-3.55 2.1-6.5 5.82-6.5 1.87 0 3.47 1.17 4.1 2.6h.05V61.5h1.58v11.84zm-1.58-5.54c0-2.52-1.17-5.35-4.15-5.35-3 0-4.25 2.67-4.25 5.35 0 2.6 1.35 5.12 4.25 5.12 2.73 0 4.15-2.5 4.15-5.12zM649.65 71.75v2.67c-.02 1.45-.7 2.97-2.2 3.4v-1.07c.83-.3 1.2-1.52 1.15-2.35h-1.05v-2.65h2.1zM662.58 61.5h2.62v1.32h-2.62v8.7c0 1.02.15 1.62 1.27 1.7.45 0 .9-.02 1.35-.08v1.35c-.47 0-.92.05-1.4.05-2.1 0-2.82-.7-2.8-2.9v-8.82h-2.25V61.5H661v-3.87h1.57v3.87zM678 67.95c0 3.7-2.15 6.82-6.1 6.82s-6.1-3.12-6.1-6.82 2.15-6.82 6.1-6.82 6.1 3.12 6.1 6.82zm-10.62 0c0 2.75 1.5 5.5 4.52 5.5s4.52-2.75 4.52-5.5-1.5-5.5-4.52-5.5-4.52 2.75-4.52 5.5zM691.58 67.95c0 3.7-2.15 6.82-6.1 6.82s-6.1-3.12-6.1-6.82 2.15-6.82 6.1-6.82 6.1 3.12 6.1 6.82zm-10.63 0c0 2.75 1.5 5.5 4.52 5.5s4.52-2.75 4.52-5.5-1.5-5.5-4.52-5.5-4.52 2.75-4.52 5.5zM692.05 62.05c.03-3.55 2.05-5.87 5.67-5.87 2.77 0 5.07 1.72 5.07 4.62 0 1.85-.9 3.05-2.17 4.25-2.12 2.12-2.25 1.82-2.33 4.87h-1.57c-.08-3.07.78-3.87 2.87-5.82.92-.87 1.62-1.92 1.62-3.22 0-2-1.62-3.37-3.57-3.37-2.72 0-4.07 1.97-4.02 4.55h-1.57zm4.43 9.7h2.1v2.65h-2.1v-2.65z"/></svg>