<?xml version="1.0" encoding="utf-8"?>
<!-- Generator: Adobe Illustrator 24.2.3, SVG Export Plug-In . SVG Version: 6.00 Build 0)  -->
<svg version="1.1" id="Layer_1" xmlns="http://www.w3.org/2000/svg" xmlns:xlink="http://www.w3.org/1999/xlink" x="0px" y="0px"
	 viewBox="0 0 160 600" style="enable-background:new 0 0 160 600;" xml:space="preserve">
<style type="text/css">
	.st0{fill:#FFFFFF;}
</style>
<g>
	<path class="st0" d="M18.26,390.39h1.97v20.71h-1.97V390.39z"/>
	<path class="st0" d="M32.64,400.52c-0.09-2.26-1.83-3.28-3.92-3.28c-1.62,0-3.54,0.64-3.54,2.58c0,1.62,1.86,2.21,3.1,2.52
		l2.44,0.55c2.09,0.32,4.26,1.54,4.26,4.15c0,3.25-3.22,4.5-6,4.5c-3.48,0-5.86-1.62-6.15-5.28h1.83c0.15,2.46,1.97,3.74,4.41,3.74
		c1.71,0,4.09-0.75,4.09-2.84c0-1.74-1.62-2.32-3.28-2.73l-2.35-0.52c-2.38-0.64-4.18-1.45-4.18-4c0-3.05,2.99-4.21,5.63-4.21
		c2.99,0,5.37,1.57,5.48,4.81H32.64z"/>
	<path class="st0" d="M43.46,396.14h1.94l4.93,12.76l4.61-12.76h1.83l-6.5,17.26c-1.04,2.52-1.65,3.25-3.94,3.25
		c-0.73-0.03-1.1-0.03-1.39-0.14v-1.54c0.44,0.09,0.84,0.14,1.25,0.14c1.62,0,2-0.96,2.61-2.35l0.64-1.71L43.46,396.14z"/>
	<path class="st0" d="M71.07,403.62c0,4.29-2.5,7.92-7.08,7.92s-7.08-3.63-7.08-7.92s2.49-7.92,7.08-7.92S71.07,399.33,71.07,403.62
		z M58.74,403.62c0,3.19,1.74,6.38,5.25,6.38s5.25-3.19,5.25-6.38c0-3.19-1.74-6.38-5.25-6.38S58.74,400.43,58.74,403.62z"/>
	<path class="st0" d="M85.48,411.1H83.8v-2.7h-0.06c-0.96,2-2.93,3.13-5.16,3.13c-3.77,0-5.25-2.21-5.25-5.69v-9.72h1.83v9.75
		c0.09,2.7,1.1,4.12,4,4.12c3.13,0,4.5-2.96,4.5-6v-7.86h1.83V411.1z"/>
	<path class="st0" d="M88.49,396.14h1.68v3.51h0.06c0.93-2.41,2.96-3.83,5.66-3.71v1.83c-3.31-0.17-5.57,2.26-5.57,5.37v7.98h-1.83
		V396.14z"/>
</g>
<g>
	<path class="st0" d="M17.79,427.92h1.83v20.71h-1.83V427.92z"/>
	<path class="st0" d="M22.67,427.92h1.83v2.93h-1.83V427.92z M22.67,433.66h1.83v14.97h-1.83V433.66z"/>
	<path class="st0" d="M33.37,435.2h-2.96v13.43h-1.83V435.2h-2.55v-1.54h2.55v-1.36c-0.03-2.58,0.7-4.38,3.63-4.38
		c0.52,0,0.96,0.03,1.54,0.12v1.57c-0.49-0.09-0.9-0.15-1.33-0.15c-2.03,0-1.97,1.28-2,2.9v1.3h2.96V435.2z"/>
	<path class="st0" d="M35.42,441.64c0.03,2.67,1.42,5.89,4.93,5.89c2.67,0,4.12-1.57,4.7-3.83h1.83c-0.78,3.39-2.76,5.37-6.53,5.37
		c-4.76,0-6.76-3.66-6.76-7.92c0-3.95,2-7.92,6.76-7.92c4.82,0,6.73,4.21,6.58,8.41H35.42z M45.11,440.1
		c-0.09-2.76-1.8-5.34-4.76-5.34c-2.99,0-4.64,2.61-4.93,5.34H45.11z"/>
</g>
<g>
	<path class="st0" d="M17.79,457.91h1.83v2.93h-1.83V457.91z M17.79,463.65h1.83v14.97h-1.83V463.65z"/>
	<path class="st0" d="M22.64,463.65h1.83v2.58h0.06c0.67-1.8,2.67-3.02,4.79-3.02c4.21,0,5.48,2.2,5.48,5.77v9.63h-1.83v-9.34
		c0-2.58-0.84-4.53-3.8-4.53c-2.9,0-4.64,2.2-4.7,5.13v8.73h-1.83V463.65z"/>
	<path class="st0" d="M46.71,468.03c-0.09-2.26-1.83-3.28-3.92-3.28c-1.62,0-3.54,0.64-3.54,2.58c0,1.62,1.86,2.21,3.1,2.52
		l2.44,0.55c2.09,0.32,4.26,1.54,4.26,4.15c0,3.25-3.22,4.5-6,4.5c-3.48,0-5.86-1.62-6.15-5.28h1.83c0.15,2.46,1.97,3.74,4.41,3.74
		c1.71,0,4.09-0.75,4.09-2.84c0-1.74-1.62-2.32-3.28-2.73l-2.35-0.52c-2.38-0.64-4.18-1.45-4.18-4c0-3.05,2.99-4.21,5.63-4.21
		c2.99,0,5.37,1.57,5.48,4.81H46.71z"/>
	<path class="st0" d="M63.33,478.62h-1.68v-2.7h-0.06c-0.96,2-2.93,3.13-5.16,3.13c-3.77,0-5.25-2.21-5.25-5.69v-9.72H53v9.75
		c0.09,2.7,1.1,4.12,4,4.12c3.13,0,4.5-2.96,4.5-6v-7.86h1.83V478.62z"/>
	<path class="st0" d="M66.31,463.65h1.68v3.51h0.06c0.93-2.41,2.96-3.83,5.66-3.71v1.83c-3.31-0.17-5.57,2.26-5.57,5.37v7.98h-1.83
		V463.65z"/>
	<path class="st0" d="M74.69,468.23c0.17-3.51,2.64-5.02,6.06-5.02c2.64,0,5.51,0.81,5.51,4.81v7.95c0,0.7,0.35,1.1,1.07,1.1
		c0.2,0,0.43-0.06,0.58-0.12v1.54c-0.41,0.09-0.7,0.12-1.19,0.12c-1.86,0-2.15-1.04-2.15-2.61h-0.06c-1.28,1.94-2.58,3.05-5.45,3.05
		c-2.76,0-5.02-1.36-5.02-4.38c0-4.21,4.09-4.35,8.04-4.81c1.51-0.17,2.35-0.38,2.35-2.03c0-2.46-1.77-3.07-3.92-3.07
		c-2.26,0-3.94,1.04-4,3.48H74.69z M84.44,470.44h-0.06c-0.23,0.43-1.04,0.58-1.54,0.67c-3.1,0.55-6.96,0.52-6.96,3.45
		c0,1.83,1.62,2.96,3.34,2.96c2.78,0,5.25-1.77,5.22-4.7V470.44z"/>
	<path class="st0" d="M89.54,463.65h1.83v2.58h0.06c0.67-1.8,2.67-3.02,4.79-3.02c4.21,0,5.48,2.2,5.48,5.77v9.63h-1.83v-9.34
		c0-2.58-0.84-4.53-3.8-4.53c-2.9,0-4.64,2.2-4.7,5.13v8.73h-1.83V463.65z"/>
	<path class="st0" d="M115.23,468.35c-0.49-2.23-1.86-3.6-4.24-3.6c-3.51,0-5.25,3.19-5.25,6.38c0,3.19,1.74,6.38,5.25,6.38
		c2.26,0,4.12-1.77,4.35-4.26h1.83c-0.49,3.6-2.84,5.8-6.18,5.8c-4.58,0-7.08-3.63-7.08-7.92s2.49-7.92,7.08-7.92
		c3.19,0,5.66,1.71,6.06,5.13H115.23z"/>
	<path class="st0" d="M120.45,471.63c0.03,2.67,1.42,5.89,4.93,5.89c2.67,0,4.12-1.57,4.7-3.83h1.83c-0.78,3.39-2.76,5.37-6.53,5.37
		c-4.76,0-6.76-3.66-6.76-7.92c0-3.95,2-7.92,6.76-7.92c4.81,0,6.73,4.21,6.58,8.41H120.45z M130.14,470.09
		c-0.09-2.76-1.8-5.34-4.76-5.34c-2.99,0-4.64,2.61-4.93,5.34H130.14z"/>
</g>
<g>
	<path class="st0" d="M28.32,498.33c-0.49-2.23-1.86-3.6-4.23-3.6c-3.51,0-5.25,3.19-5.25,6.38c0,3.19,1.74,6.38,5.25,6.38
		c2.26,0,4.12-1.77,4.35-4.26h1.83c-0.49,3.6-2.84,5.8-6.18,5.8c-4.58,0-7.08-3.63-7.08-7.92s2.49-7.92,7.08-7.92
		c3.19,0,5.66,1.71,6.06,5.13H28.32z"/>
	<path class="st0" d="M32.38,487.89h1.83v8.33h0.06c0.67-1.8,2.67-3.02,4.79-3.02c4.21,0,5.48,2.2,5.48,5.77v9.63h-1.83v-9.34
		c0-2.58-0.84-4.53-3.8-4.53c-2.9,0-4.64,2.2-4.7,5.13v8.73h-1.83V487.89z"/>
	<path class="st0" d="M47.34,498.22c0.17-3.51,2.64-5.02,6.06-5.02c2.64,0,5.51,0.81,5.51,4.81v7.95c0,0.7,0.35,1.1,1.07,1.1
		c0.2,0,0.44-0.06,0.58-0.12v1.54c-0.41,0.09-0.7,0.12-1.19,0.12c-1.86,0-2.15-1.04-2.15-2.61h-0.06c-1.28,1.94-2.58,3.05-5.45,3.05
		c-2.76,0-5.02-1.36-5.02-4.38c0-4.21,4.09-4.35,8.04-4.81c1.51-0.17,2.35-0.38,2.35-2.03c0-2.46-1.77-3.07-3.92-3.07
		c-2.26,0-3.95,1.04-4,3.48H47.34z M57.09,500.42h-0.06c-0.23,0.43-1.04,0.58-1.54,0.67c-3.1,0.55-6.96,0.52-6.96,3.45
		c0,1.83,1.62,2.96,3.34,2.96c2.78,0,5.25-1.77,5.22-4.7V500.42z"/>
	<path class="st0" d="M62.19,493.63h1.83v2.58h0.06c0.67-1.8,2.67-3.02,4.79-3.02c4.21,0,5.48,2.2,5.48,5.77v9.63h-1.83v-9.34
		c0-2.58-0.84-4.53-3.8-4.53c-2.9,0-4.64,2.2-4.7,5.13v8.73h-1.83V493.63z"/>
	<path class="st0" d="M89.98,507.38c-0.03,4.47-1.74,7.19-6.64,7.19c-2.99,0-5.95-1.33-6.21-4.53h1.83
		c0.41,2.21,2.35,2.99,4.38,2.99c3.36,0,4.81-2,4.81-5.66v-2.03h-0.06c-0.84,1.83-2.61,3.08-4.76,3.08c-4.79,0-6.76-3.42-6.76-7.69
		c0-4.12,2.44-7.54,6.76-7.54c2.17,0,4.03,1.36,4.76,3.02h0.06v-2.58h1.83V507.38z M88.15,500.94c0-2.93-1.36-6.21-4.81-6.21
		c-3.48,0-4.93,3.1-4.93,6.21c0,3.02,1.57,5.95,4.93,5.95C86.5,506.89,88.15,503.99,88.15,500.94z"/>
	<path class="st0" d="M92.99,487.89h1.83v2.93h-1.83V487.89z M92.99,493.63h1.83v14.97h-1.83V493.63z"/>
	<path class="st0" d="M97.83,493.63h1.83v2.58h0.06c0.67-1.8,2.67-3.02,4.79-3.02c4.21,0,5.48,2.2,5.48,5.77v9.63h-1.83v-9.34
		c0-2.58-0.84-4.53-3.8-4.53c-2.9,0-4.64,2.2-4.7,5.13v8.73h-1.83V493.63z"/>
	<path class="st0" d="M125.62,507.38c-0.03,4.47-1.74,7.19-6.64,7.19c-2.99,0-5.95-1.33-6.21-4.53h1.83
		c0.41,2.21,2.35,2.99,4.38,2.99c3.36,0,4.81-2,4.81-5.66v-2.03h-0.06c-0.84,1.83-2.61,3.08-4.76,3.08c-4.79,0-6.76-3.42-6.76-7.69
		c0-4.12,2.44-7.54,6.76-7.54c2.17,0,4.03,1.36,4.76,3.02h0.06v-2.58h1.83V507.38z M123.79,500.94c0-2.93-1.36-6.21-4.81-6.21
		c-3.48,0-4.93,3.1-4.93,6.21c0,3.02,1.57,5.95,4.93,5.95C122.14,506.89,123.79,503.99,123.79,500.94z"/>
	<path class="st0" d="M131.59,505.53v3.1c-0.03,1.68-0.81,3.45-2.55,3.94v-1.25c0.96-0.35,1.39-1.77,1.33-2.73h-1.22v-3.08H131.59z"
		/>
</g>
<g>
	<path class="st0" d="M20.67,523.62h3.05v1.54h-3.05v10.09c0,1.19,0.17,1.89,1.48,1.97c0.52,0,1.04-0.03,1.57-0.09v1.57
		c-0.55,0-1.07,0.06-1.62,0.06c-2.44,0-3.28-0.81-3.25-3.36v-10.24h-2.61v-1.54h2.61v-4.5h1.83V523.62z"/>
	<path class="st0" d="M38.5,531.11c0,4.29-2.49,7.92-7.08,7.92s-7.08-3.63-7.08-7.92s2.49-7.92,7.08-7.92S38.5,526.81,38.5,531.11z
		 M26.17,531.11c0,3.19,1.74,6.38,5.25,6.38s5.25-3.19,5.25-6.38c0-3.19-1.74-6.38-5.25-6.38S26.17,527.91,26.17,531.11z"/>
	<path class="st0" d="M54.19,531.11c0,4.29-2.49,7.92-7.08,7.92s-7.08-3.63-7.08-7.92s2.49-7.92,7.08-7.92
		S54.19,526.81,54.19,531.11z M41.86,531.11c0,3.19,1.74,6.38,5.25,6.38s5.25-3.19,5.25-6.38c0-3.19-1.74-6.38-5.25-6.38
		S41.86,527.91,41.86,531.11z"/>
	<path class="st0" d="M54.71,524.26c0.03-4.12,2.38-6.82,6.58-6.82c3.22,0,5.89,2,5.89,5.37c0,2.15-1.04,3.54-2.52,4.93
		c-2.47,2.47-2.61,2.12-2.7,5.66h-1.83c-0.09-3.57,0.9-4.5,3.34-6.76c1.07-1.01,1.89-2.23,1.89-3.74c0-2.32-1.89-3.92-4.15-3.92
		c-3.16,0-4.73,2.29-4.67,5.28H54.71z M59.84,535.51h2.44v3.08h-2.44V535.51z"/>
</g>
</svg>
