<?xml version="1.0" encoding="utf-8"?>
<!-- Generator: Adobe Illustrator 24.2.3, SVG Export Plug-In . SVG Version: 6.00 Build 0)  -->
<svg version="1.1" id="Layer_1" xmlns="http://www.w3.org/2000/svg" xmlns:xlink="http://www.w3.org/1999/xlink" x="0px" y="0px"
	 viewBox="0 0 160 600" style="enable-background:new 0 0 160 600;" xml:space="preserve">
<style type="text/css">
	.st0{fill:#FFFFFF;}
</style>
<g>
	<path class="st0" d="M34.31,135.06h-1.37l-0.25-3.64h-0.06c-1.34,2.86-4.03,4.06-6.92,4.06c-6.3,0-9.44-4.96-9.44-10.42
		s3.14-10.42,9.44-10.42c4.2,0,7.62,2.27,8.34,6.64h-1.9c-0.25-2.3-2.63-5.01-6.44-5.01c-5.29,0-7.53,4.42-7.53,8.79
		c0,4.37,2.24,8.79,7.53,8.79c4.42,0,7-3.11,6.92-7.34h-6.8v-1.62h8.48V135.06z"/>
	<path class="st0" d="M38.4,128.31c0.03,2.58,1.37,5.68,4.76,5.68c2.58,0,3.98-1.51,4.54-3.7h1.76c-0.76,3.28-2.66,5.18-6.3,5.18
		c-4.59,0-6.52-3.53-6.52-7.64c0-3.81,1.93-7.64,6.52-7.64c4.65,0,6.5,4.06,6.36,8.12H38.4z M47.75,126.82
		c-0.08-2.66-1.74-5.15-4.59-5.15c-2.88,0-4.48,2.52-4.76,5.15H47.75z"/>
	<path class="st0" d="M54.02,120.61h2.94v1.48h-2.94v9.74c0,1.15,0.17,1.82,1.43,1.9c0.5,0,1.01-0.03,1.51-0.08v1.51
		c-0.53,0-1.04,0.06-1.57,0.06c-2.35,0-3.16-0.78-3.14-3.25v-9.88h-2.52v-1.48h2.52v-4.34h1.76V120.61z"/>
</g>
<g>
	<path class="st0" d="M25.55,152.84c-0.08-2.18-1.76-3.16-3.78-3.16c-1.57,0-3.42,0.62-3.42,2.49c0,1.57,1.79,2.13,3,2.44l2.35,0.53
		c2.02,0.31,4.12,1.48,4.12,4c0,3.14-3.11,4.34-5.8,4.34c-3.36,0-5.66-1.57-5.94-5.1h1.76c0.14,2.38,1.9,3.61,4.26,3.61
		c1.65,0,3.95-0.73,3.95-2.74c0-1.68-1.57-2.24-3.16-2.63l-2.27-0.5c-2.3-0.62-4.03-1.4-4.03-3.86c0-2.94,2.88-4.06,5.43-4.06
		c2.88,0,5.18,1.51,5.29,4.65H25.55z"/>
	<path class="st0" d="M30,148.61h1.62v2.74h0.06c0.81-1.96,2.83-3.16,5.15-3.16c4.4,0,6.5,3.56,6.5,7.64c0,4.09-2.1,7.64-6.5,7.64
		c-2.16,0-4.26-1.09-5.01-3.16h-0.06v8.09H30V148.61z M36.83,149.67c-3.89,0-5.07,2.88-5.07,6.16c0,3,1.32,6.16,5.07,6.16
		c3.36,0,4.73-3.16,4.73-6.16C41.56,152.84,40.19,149.67,36.83,149.67z"/>
	<path class="st0" d="M46.72,156.31c0.03,2.58,1.37,5.68,4.76,5.68c2.58,0,3.98-1.51,4.54-3.7h1.76c-0.76,3.28-2.66,5.18-6.3,5.18
		c-4.59,0-6.52-3.53-6.52-7.64c0-3.81,1.93-7.64,6.52-7.64c4.65,0,6.5,4.06,6.36,8.12H46.72z M56.07,154.82
		c-0.08-2.66-1.74-5.15-4.59-5.15c-2.88,0-4.48,2.52-4.76,5.15H56.07z"/>
	<path class="st0" d="M70.15,153.14c-0.48-2.16-1.79-3.47-4.09-3.47c-3.39,0-5.07,3.08-5.07,6.16c0,3.08,1.68,6.16,5.07,6.16
		c2.18,0,3.98-1.71,4.2-4.12h1.76c-0.48,3.47-2.74,5.6-5.96,5.6c-4.42,0-6.83-3.5-6.83-7.64s2.41-7.64,6.83-7.64
		c3.08,0,5.46,1.65,5.85,4.96H70.15z"/>
	<path class="st0" d="M74.1,143.06h1.76v2.83H74.1V143.06z M74.1,148.61h1.76v14.45H74.1V148.61z"/>
	<path class="st0" d="M78.72,153.03c0.17-3.39,2.55-4.84,5.85-4.84c2.55,0,5.32,0.78,5.32,4.65v7.67c0,0.67,0.34,1.06,1.04,1.06
		c0.2,0,0.42-0.06,0.56-0.11v1.48c-0.39,0.08-0.67,0.11-1.15,0.11c-1.79,0-2.07-1.01-2.07-2.52h-0.06
		c-1.23,1.88-2.49,2.94-5.26,2.94c-2.66,0-4.84-1.32-4.84-4.23c0-4.06,3.95-4.2,7.76-4.65c1.46-0.17,2.27-0.36,2.27-1.96
		c0-2.38-1.71-2.97-3.78-2.97c-2.18,0-3.81,1.01-3.86,3.36H78.72z M88.13,155.16h-0.06c-0.22,0.42-1.01,0.56-1.48,0.64
		c-3,0.53-6.72,0.5-6.72,3.33c0,1.76,1.57,2.86,3.22,2.86c2.69,0,5.07-1.71,5.04-4.54V155.16z"/>
	<path class="st0" d="M93.08,143.06h1.76v19.99h-1.76V143.06z"/>
</g>
<g>
	<path class="st0" d="M29.1,189.88c-0.03,4.31-1.68,6.94-6.41,6.94c-2.88,0-5.74-1.29-5.99-4.37h1.76c0.39,2.13,2.27,2.88,4.23,2.88
		c3.25,0,4.65-1.93,4.65-5.46v-1.96h-0.06c-0.81,1.76-2.52,2.97-4.59,2.97c-4.62,0-6.52-3.3-6.52-7.42c0-3.98,2.35-7.28,6.52-7.28
		c2.1,0,3.89,1.32,4.59,2.91h0.06v-2.49h1.76V189.88z M27.34,183.66c0-2.83-1.32-5.99-4.65-5.99c-3.36,0-4.76,3-4.76,5.99
		c0,2.91,1.51,5.74,4.76,5.74C25.74,189.4,27.34,186.6,27.34,183.66z"/>
	<path class="st0" d="M32.04,176.61h1.62V180h0.06c0.9-2.32,2.86-3.7,5.46-3.58v1.76c-3.19-0.17-5.38,2.18-5.38,5.18v7.7h-1.76
		V176.61z"/>
	<path class="st0" d="M53.02,183.83c0,4.14-2.41,7.64-6.83,7.64c-4.42,0-6.83-3.5-6.83-7.64s2.41-7.64,6.83-7.64
		C50.61,176.19,53.02,179.69,53.02,183.83z M41.12,183.83c0,3.08,1.68,6.16,5.07,6.16c3.39,0,5.07-3.08,5.07-6.16
		c0-3.08-1.68-6.16-5.07-6.16C42.8,177.67,41.12,180.75,41.12,183.83z"/>
	<path class="st0" d="M66.9,191.06h-1.62v-2.6h-0.06c-0.92,1.93-2.83,3.02-4.98,3.02c-3.64,0-5.07-2.13-5.07-5.49v-9.38h1.76v9.41
		c0.08,2.6,1.06,3.98,3.86,3.98c3.02,0,4.34-2.86,4.34-5.8v-7.59h1.76V191.06z"/>
	<path class="st0" d="M69.82,176.61h1.62v2.74h0.06c0.81-1.96,2.83-3.16,5.15-3.16c4.4,0,6.5,3.56,6.5,7.64
		c0,4.09-2.1,7.64-6.5,7.64c-2.16,0-4.26-1.09-5.01-3.16h-0.06v8.09h-1.76V176.61z M76.65,177.67c-3.89,0-5.07,2.88-5.07,6.16
		c0,3,1.32,6.16,5.07,6.16c3.36,0,4.73-3.16,4.73-6.16C81.38,180.84,80.01,177.67,76.65,177.67z"/>
</g>
<g>
	<path class="st0" d="M16.9,204.61h1.62V208h0.06c0.9-2.32,2.86-3.7,5.46-3.58v1.76c-3.19-0.17-5.38,2.18-5.38,5.18v7.7H16.9V204.61
		z"/>
	<path class="st0" d="M24.99,209.03c0.17-3.39,2.55-4.84,5.85-4.84c2.55,0,5.32,0.78,5.32,4.65v7.67c0,0.67,0.34,1.06,1.04,1.06
		c0.2,0,0.42-0.06,0.56-0.11v1.48c-0.39,0.08-0.67,0.11-1.15,0.11c-1.79,0-2.07-1.01-2.07-2.52h-0.06
		c-1.23,1.88-2.49,2.94-5.26,2.94c-2.66,0-4.84-1.32-4.84-4.23c0-4.06,3.95-4.2,7.76-4.65c1.46-0.17,2.27-0.36,2.27-1.96
		c0-2.38-1.71-2.97-3.78-2.97c-2.18,0-3.81,1.01-3.86,3.36H24.99z M34.4,211.16h-0.06c-0.22,0.42-1.01,0.56-1.48,0.64
		c-3,0.53-6.72,0.5-6.72,3.33c0,1.76,1.57,2.86,3.22,2.86c2.69,0,5.07-1.71,5.04-4.54V211.16z"/>
	<path class="st0" d="M41.76,204.61h2.94v1.48h-2.94v9.74c0,1.15,0.17,1.82,1.43,1.9c0.5,0,1.01-0.03,1.51-0.08v1.51
		c-0.53,0-1.04,0.06-1.57,0.06c-2.35,0-3.16-0.78-3.14-3.25v-9.88h-2.52v-1.48H40v-4.34h1.76V204.61z"/>
	<path class="st0" d="M47.19,212.31c0.03,2.58,1.37,5.68,4.76,5.68c2.58,0,3.98-1.51,4.54-3.7h1.76c-0.76,3.28-2.66,5.18-6.3,5.18
		c-4.59,0-6.52-3.53-6.52-7.64c0-3.81,1.93-7.64,6.52-7.64c4.65,0,6.5,4.06,6.36,8.12H47.19z M56.54,210.82
		c-0.08-2.66-1.74-5.15-4.59-5.15c-2.88,0-4.48,2.52-4.76,5.15H56.54z"/>
	<path class="st0" d="M69.09,208.84c-0.08-2.18-1.76-3.16-3.78-3.16c-1.57,0-3.42,0.62-3.42,2.49c0,1.57,1.79,2.13,3,2.44l2.35,0.53
		c2.02,0.31,4.12,1.48,4.12,4c0,3.14-3.11,4.34-5.8,4.34c-3.36,0-5.66-1.57-5.94-5.1h1.76c0.14,2.38,1.9,3.61,4.26,3.61
		c1.65,0,3.95-0.73,3.95-2.74c0-1.68-1.57-2.24-3.16-2.63l-2.27-0.5c-2.3-0.62-4.03-1.4-4.03-3.86c0-2.94,2.88-4.06,5.43-4.06
		c2.88,0,5.18,1.51,5.29,4.65H69.09z"/>
	<path class="st0" d="M94.12,211.83c0,4.14-2.41,7.64-6.83,7.64s-6.83-3.5-6.83-7.64s2.41-7.64,6.83-7.64S94.12,207.69,94.12,211.83
		z M82.22,211.83c0,3.08,1.68,6.16,5.07,6.16c3.39,0,5.07-3.08,5.07-6.16c0-3.08-1.68-6.16-5.07-6.16
		C83.9,205.67,82.22,208.75,82.22,211.83z"/>
	<path class="st0" d="M96.33,204.61h1.76v2.49h0.06c0.64-1.74,2.58-2.91,4.62-2.91c4.06,0,5.29,2.13,5.29,5.57v9.3h-1.76v-9.02
		c0-2.49-0.81-4.37-3.67-4.37c-2.8,0-4.48,2.13-4.54,4.96v8.43h-1.76V204.61z"/>
</g>
<g>
	<path class="st0" d="M17.23,227.06h1.9v18.37h11.2v1.62h-13.1V227.06z"/>
	<path class="st0" d="M32.35,240.31c0.03,2.58,1.37,5.68,4.76,5.68c2.58,0,3.98-1.51,4.54-3.7h1.76c-0.76,3.28-2.66,5.18-6.3,5.18
		c-4.59,0-6.52-3.53-6.52-7.64c0-3.81,1.93-7.64,6.52-7.64c4.65,0,6.5,4.06,6.36,8.12H32.35z M41.7,238.82
		c-0.08-2.66-1.74-5.15-4.59-5.15c-2.88,0-4.48,2.52-4.76,5.15H41.7z"/>
	<path class="st0" d="M43.5,232.61h1.96l4.54,12.68h0.06l4.48-12.68h1.82l-5.4,14.45h-1.88L43.5,232.61z"/>
	<path class="st0" d="M58.28,240.31c0.03,2.58,1.37,5.68,4.76,5.68c2.58,0,3.98-1.51,4.54-3.7h1.76c-0.76,3.28-2.66,5.18-6.3,5.18
		c-4.59,0-6.52-3.53-6.52-7.64c0-3.81,1.93-7.64,6.52-7.64c4.65,0,6.5,4.06,6.36,8.12H58.28z M67.63,238.82
		c-0.08-2.66-1.74-5.15-4.59-5.15c-2.88,0-4.48,2.52-4.76,5.15H67.63z"/>
	<path class="st0" d="M71.52,227.06h1.76v19.99h-1.76V227.06z"/>
</g>
<g>
	<path class="st0" d="M15.08,255.06h15.85v1.62h-6.97v18.37h-1.9v-18.37h-6.97V255.06z"/>
	<path class="st0" d="M30.48,268.31c0.03,2.58,1.37,5.68,4.76,5.68c2.58,0,3.98-1.51,4.54-3.7h1.76c-0.76,3.28-2.66,5.18-6.3,5.18
		c-4.59,0-6.52-3.53-6.52-7.64c0-3.81,1.93-7.64,6.52-7.64c4.65,0,6.5,4.06,6.36,8.12H30.48z M39.83,266.82
		c-0.08-2.66-1.74-5.15-4.59-5.15c-2.88,0-4.48,2.52-4.76,5.15H39.83z"/>
	<path class="st0" d="M43.69,260.61h1.62V264h0.06c0.9-2.32,2.86-3.7,5.46-3.58v1.76c-3.19-0.17-5.38,2.18-5.38,5.18v7.7h-1.76
		V260.61z"/>
	<path class="st0" d="M52.26,260.61h1.62v2.44h0.08c0.92-1.74,2.44-2.86,4.73-2.86c1.9,0,3.61,0.92,4.14,2.83
		c0.87-1.9,2.69-2.83,4.59-2.83c3.16,0,4.79,1.65,4.79,5.07v9.8h-1.76v-9.72c0-2.38-0.9-3.67-3.42-3.67c-3.05,0-3.92,2.52-3.92,5.21
		v8.18h-1.76v-9.8c0.03-1.96-0.78-3.58-3.02-3.58c-3.05,0-4.28,2.3-4.31,5.32v8.06h-1.76V260.61z"/>
	<path class="st0" d="M83.2,255.06h1.9v18.37h11.2v1.62H83.2V255.06z"/>
	<path class="st0" d="M97.68,255.06h1.76v2.83h-1.76V255.06z M97.68,260.61h1.76v14.45h-1.76V260.61z"/>
	<path class="st0" d="M108.04,262.09h-2.86v12.96h-1.76v-12.96h-2.46v-1.48h2.46v-1.32c-0.03-2.49,0.67-4.23,3.5-4.23
		c0.5,0,0.92,0.03,1.48,0.11v1.51c-0.48-0.08-0.87-0.14-1.29-0.14c-1.96,0-1.9,1.23-1.93,2.8v1.26h2.86V262.09z"/>
	<path class="st0" d="M110.02,268.31c0.03,2.58,1.37,5.68,4.76,5.68c2.58,0,3.98-1.51,4.54-3.7h1.76c-0.76,3.28-2.66,5.18-6.3,5.18
		c-4.59,0-6.52-3.53-6.52-7.64c0-3.81,1.93-7.64,6.52-7.64c4.65,0,6.5,4.06,6.36,8.12H110.02z M119.38,266.82
		c-0.08-2.66-1.74-5.15-4.59-5.15c-2.88,0-4.48,2.52-4.76,5.15H119.38z"/>
</g>
<g>
	<path class="st0" d="M17.37,283.06h1.9v19.99h-1.9V283.06z"/>
	<path class="st0" d="M22.55,288.61h1.76v2.49h0.06c0.64-1.74,2.58-2.91,4.62-2.91c4.06,0,5.29,2.13,5.29,5.57v9.3h-1.76v-9.02
		c0-2.49-0.81-4.37-3.67-4.37c-2.8,0-4.48,2.13-4.54,4.96v8.43h-1.76V288.61z"/>
	<path class="st0" d="M45.79,292.84c-0.08-2.18-1.76-3.16-3.78-3.16c-1.57,0-3.42,0.62-3.42,2.49c0,1.57,1.79,2.13,3,2.44l2.35,0.53
		c2.02,0.31,4.12,1.48,4.12,4c0,3.14-3.11,4.34-5.8,4.34c-3.36,0-5.66-1.57-5.94-5.1h1.76c0.14,2.38,1.9,3.61,4.26,3.61
		c1.65,0,3.95-0.73,3.95-2.74c0-1.68-1.57-2.24-3.16-2.63l-2.27-0.5c-2.3-0.62-4.03-1.4-4.03-3.86c0-2.94,2.88-4.06,5.43-4.06
		c2.88,0,5.18,1.51,5.29,4.65H45.79z"/>
	<path class="st0" d="M61.84,303.06h-1.62v-2.6h-0.06c-0.92,1.93-2.83,3.02-4.98,3.02c-3.64,0-5.07-2.13-5.07-5.49v-9.38h1.76v9.41
		c0.08,2.6,1.06,3.98,3.86,3.98c3.02,0,4.34-2.86,4.34-5.8v-7.59h1.76V303.06z"/>
	<path class="st0" d="M64.72,288.61h1.62V292h0.06c0.9-2.32,2.86-3.7,5.46-3.58v1.76c-3.19-0.17-5.38,2.18-5.38,5.18v7.7h-1.76
		V288.61z"/>
	<path class="st0" d="M72.84,293.03c0.17-3.39,2.55-4.84,5.85-4.84c2.55,0,5.32,0.78,5.32,4.65v7.67c0,0.67,0.34,1.06,1.04,1.06
		c0.2,0,0.42-0.06,0.56-0.11v1.48c-0.39,0.08-0.67,0.11-1.15,0.11c-1.79,0-2.07-1.01-2.07-2.52h-0.06
		c-1.23,1.88-2.49,2.94-5.26,2.94c-2.66,0-4.84-1.32-4.84-4.23c0-4.06,3.95-4.2,7.76-4.65c1.46-0.17,2.27-0.36,2.27-1.96
		c0-2.38-1.71-2.97-3.78-2.97c-2.18,0-3.81,1.01-3.86,3.36H72.84z M82.25,295.16h-0.06c-0.22,0.42-1.01,0.56-1.48,0.64
		c-3,0.53-6.72,0.5-6.72,3.33c0,1.76,1.57,2.86,3.22,2.86c2.69,0,5.07-1.71,5.04-4.54V295.16z"/>
	<path class="st0" d="M87.2,288.61h1.76v2.49h0.06c0.64-1.74,2.58-2.91,4.62-2.91c4.06,0,5.29,2.13,5.29,5.57v9.3h-1.76v-9.02
		c0-2.49-0.81-4.37-3.67-4.37c-2.8,0-4.48,2.13-4.54,4.96v8.43H87.2V288.61z"/>
	<path class="st0" d="M112.04,293.14c-0.48-2.16-1.79-3.47-4.09-3.47c-3.39,0-5.07,3.08-5.07,6.16c0,3.08,1.68,6.16,5.07,6.16
		c2.18,0,3.98-1.71,4.2-4.12h1.76c-0.48,3.47-2.74,5.6-5.96,5.6c-4.42,0-6.83-3.5-6.83-7.64s2.41-7.64,6.83-7.64
		c3.08,0,5.46,1.65,5.85,4.96H112.04z"/>
	<path class="st0" d="M117.08,296.31c0.03,2.58,1.37,5.68,4.76,5.68c2.58,0,3.98-1.51,4.54-3.7h1.76c-0.76,3.28-2.66,5.18-6.3,5.18
		c-4.59,0-6.52-3.53-6.52-7.64c0-3.81,1.93-7.64,6.52-7.64c4.65,0,6.5,4.06,6.36,8.12H117.08z M126.43,294.82
		c-0.08-2.66-1.74-5.15-4.59-5.15c-2.88,0-4.48,2.52-4.76,5.15H126.43z"/>
	<path class="st0" d="M130.63,303.06v-2.97h2.35v2.97H130.63z"/>
</g>
</svg>
