<?xml version="1.0" encoding="utf-8"?>
<!-- Generator: Adobe Illustrator 24.2.3, SVG Export Plug-In . SVG Version: 6.00 Build 0)  -->
<svg version="1.1" id="Layer_1" xmlns="http://www.w3.org/2000/svg" xmlns:xlink="http://www.w3.org/1999/xlink" x="0px" y="0px"
	 viewBox="0 0 160 600" style="enable-background:new 0 0 160 600;" xml:space="preserve">
<style type="text/css">
	.st0{fill:#FF7F30;}
	.st1{fill:#FFFFFF;}
</style>
<rect x="12.62" y="506.68" class="st0" width="133.82" height="32.77"/>
<g>
	<path class="st1" d="M36.52,517.03l4.54,12.14h-2.77l-0.92-2.7h-4.54l-0.95,2.7H29.2l4.59-12.14H36.52z M36.68,524.48l-1.53-4.45
		h-0.03l-1.58,4.45H36.68z"/>
	<path class="st1" d="M47.59,517.03c0.76,0,1.41,0.11,1.94,0.33s0.97,0.51,1.3,0.88c0.33,0.36,0.58,0.78,0.73,1.24
		c0.15,0.46,0.23,0.95,0.23,1.45c0,0.49-0.08,0.97-0.23,1.44c-0.15,0.47-0.4,0.89-0.73,1.25c-0.33,0.36-0.77,0.65-1.3,0.88
		s-1.18,0.33-1.94,0.33h-2.81v4.35h-2.67v-12.14H47.59z M46.86,522.74c0.31,0,0.6-0.02,0.88-0.07c0.28-0.04,0.53-0.13,0.75-0.26
		c0.22-0.13,0.39-0.31,0.52-0.55c0.13-0.24,0.2-0.55,0.2-0.94c0-0.38-0.07-0.7-0.2-0.93c-0.13-0.24-0.3-0.42-0.52-0.55
		s-0.46-0.22-0.75-0.26c-0.28-0.04-0.58-0.07-0.88-0.07h-2.07v3.64H46.86z"/>
	<path class="st1" d="M58.93,517.03c0.76,0,1.41,0.11,1.94,0.33s0.97,0.51,1.3,0.88c0.33,0.36,0.58,0.78,0.73,1.24
		c0.15,0.46,0.23,0.95,0.23,1.45c0,0.49-0.08,0.97-0.23,1.44c-0.15,0.47-0.4,0.89-0.73,1.25c-0.33,0.36-0.77,0.65-1.3,0.88
		s-1.18,0.33-1.94,0.33h-2.81v4.35h-2.67v-12.14H58.93z M58.2,522.74c0.31,0,0.6-0.02,0.88-0.07c0.28-0.04,0.53-0.13,0.75-0.26
		c0.22-0.13,0.39-0.31,0.52-0.55c0.13-0.24,0.2-0.55,0.2-0.94c0-0.38-0.07-0.7-0.2-0.93c-0.13-0.24-0.3-0.42-0.52-0.55
		s-0.46-0.22-0.75-0.26c-0.28-0.04-0.58-0.07-0.88-0.07h-2.07v3.64H58.2z"/>
	<path class="st1" d="M67.46,517.03v9.89h5.92v2.24h-8.58v-12.14H67.46z"/>
	<path class="st1" d="M71.7,517.03h2.99l2.84,4.79l2.82-4.79h2.98l-4.5,7.48v4.66h-2.67v-4.73L71.7,517.03z"/>
	<path class="st1" d="M91.72,517.03l5.07,8.14h0.03v-8.14h2.5v12.14h-2.67l-5.05-8.13h-0.03v8.13h-2.5v-12.14H91.72z"/>
	<path class="st1" d="M101.55,520.62c0.27-0.78,0.66-1.45,1.17-2.03c0.51-0.58,1.14-1.03,1.88-1.36c0.74-0.33,1.58-0.49,2.51-0.49
		c0.94,0,1.78,0.16,2.52,0.49c0.74,0.33,1.36,0.78,1.87,1.36s0.9,1.26,1.17,2.03c0.27,0.78,0.41,1.62,0.41,2.53
		c0,0.88-0.14,1.71-0.41,2.47c-0.27,0.77-0.66,1.43-1.17,2s-1.13,1.01-1.87,1.33c-0.74,0.32-1.58,0.49-2.52,0.49
		c-0.93,0-1.77-0.16-2.51-0.49c-0.74-0.32-1.37-0.77-1.88-1.33c-0.51-0.57-0.9-1.23-1.17-2c-0.27-0.76-0.41-1.59-0.41-2.47
		C101.14,522.24,101.28,521.4,101.55,520.62z M103.99,524.64c0.12,0.48,0.31,0.92,0.57,1.3c0.26,0.39,0.6,0.69,1.02,0.93
		s0.93,0.35,1.53,0.35c0.6,0,1.11-0.12,1.53-0.35c0.42-0.23,0.76-0.54,1.02-0.93c0.26-0.38,0.45-0.82,0.57-1.3s0.18-0.98,0.18-1.49
		c0-0.53-0.06-1.05-0.18-1.55c-0.12-0.5-0.31-0.94-0.57-1.33s-0.6-0.7-1.02-0.94c-0.42-0.23-0.93-0.35-1.53-0.35
		c-0.6,0-1.11,0.12-1.53,0.35c-0.42,0.23-0.76,0.54-1.02,0.94c-0.26,0.39-0.45,0.84-0.57,1.33c-0.12,0.5-0.18,1.01-0.18,1.55
		C103.81,523.66,103.87,524.16,103.99,524.64z"/>
	<path class="st1" d="M123.8,529.17l-2.06-8.26h-0.03l-2.02,8.26h-2.7l-3.21-12.14h2.67l1.92,8.26h0.03l2.11-8.26h2.5l2.07,8.36
		h0.03l1.99-8.36h2.62l-3.26,12.14H123.8z"/>
</g>
</svg>
