<svg id="Layer_1" xmlns="http://www.w3.org/2000/svg" viewBox="0 0 160 600"><style>.st0{fill:#fff}</style><path class="st0" d="M23.88 290.11l-8.15-12.18h2.35l6.82 10.5 6.79-10.5h2.35l-8.18 12.18v8.53h-1.97v-8.53zM45.81 291.16c0 4.29-2.49 7.92-7.08 7.92s-7.08-3.63-7.08-7.92 2.49-7.92 7.08-7.92 7.08 3.63 7.08 7.92zm-12.33 0c0 3.19 1.74 6.38 5.25 6.38s5.25-3.19 5.25-6.38-1.74-6.38-5.25-6.38-5.25 3.19-5.25 6.38zM60.19 298.64h-1.68v-2.7h-.06c-.96 2-2.93 3.13-5.16 3.13-3.77 0-5.25-2.2-5.25-5.69v-9.72h1.83v9.75c.09 2.7 1.1 4.12 4 4.12 3.13 0 4.5-2.96 4.5-6v-7.86h1.83v14.97zM63.21 283.67h1.68v3.51h.06c.93-2.41 2.96-3.83 5.66-3.71v1.83c-3.31-.17-5.57 2.26-5.57 5.37v7.98h-1.83v-14.98z"/><g><path class="st0" d="M17.79 307.92h1.83v20.71h-1.83v-20.71zM22.67 307.92h1.83v2.93h-1.83v-2.93zm0 5.74h1.83v14.97h-1.83v-14.97zM33.37 315.2h-2.96v13.43h-1.83V315.2h-2.55v-1.54h2.55v-1.36c-.03-2.58.7-4.38 3.63-4.38.52 0 .96.03 1.54.12v1.57c-.49-.09-.9-.15-1.33-.15-2.03 0-1.97 1.28-2 2.9v1.3h2.96v1.54zM35.42 321.64c.03 2.67 1.42 5.89 4.93 5.89 2.67 0 4.12-1.57 4.7-3.83h1.83c-.78 3.39-2.76 5.37-6.53 5.37-4.76 0-6.76-3.66-6.76-7.92 0-3.95 2-7.92 6.76-7.92 4.82 0 6.73 4.21 6.58 8.41H35.42zm9.69-1.54c-.09-2.76-1.8-5.34-4.76-5.34-2.99 0-4.64 2.61-4.93 5.34h9.69zM56.94 307.92h1.83v2.93h-1.83v-2.93zm0 5.74h1.83v14.97h-1.83v-14.97zM70.81 318.04c-.09-2.26-1.83-3.28-3.92-3.28-1.62 0-3.54.64-3.54 2.58 0 1.62 1.86 2.21 3.1 2.52l2.44.55c2.09.32 4.26 1.54 4.26 4.15 0 3.25-3.22 4.5-6 4.5-3.48 0-5.86-1.62-6.15-5.28h1.83c.15 2.46 1.97 3.74 4.41 3.74 1.71 0 4.09-.75 4.09-2.84 0-1.74-1.62-2.32-3.28-2.73l-2.35-.52c-2.38-.64-4.18-1.45-4.18-4 0-3.05 2.99-4.21 5.63-4.21 2.99 0 5.37 1.57 5.48 4.81h-1.82z"/></g><g><path class="st0" d="M28.32 348.35c-.49-2.23-1.86-3.6-4.23-3.6-3.51 0-5.25 3.19-5.25 6.38s1.74 6.38 5.25 6.38c2.26 0 4.12-1.77 4.35-4.26h1.83c-.49 3.6-2.84 5.8-6.18 5.8-4.58 0-7.08-3.63-7.08-7.92s2.49-7.92 7.08-7.92c3.19 0 5.66 1.71 6.06 5.13h-1.83zM32.38 337.9h1.83v8.33h.06c.67-1.8 2.67-3.02 4.79-3.02 4.21 0 5.48 2.2 5.48 5.77v9.63h-1.83v-9.34c0-2.58-.84-4.53-3.8-4.53-2.9 0-4.64 2.2-4.7 5.13v8.73h-1.83v-20.7zM47.34 348.23c.17-3.51 2.64-5.02 6.06-5.02 2.64 0 5.51.81 5.51 4.81v7.95c0 .7.35 1.1 1.07 1.1.2 0 .44-.06.58-.12v1.54c-.41.09-.7.12-1.19.12-1.86 0-2.15-1.04-2.15-2.61h-.06c-1.28 1.94-2.58 3.05-5.45 3.05-2.76 0-5.02-1.36-5.02-4.38 0-4.21 4.09-4.35 8.04-4.81 1.51-.17 2.35-.38 2.35-2.03 0-2.46-1.77-3.07-3.92-3.07-2.26 0-3.95 1.04-4 3.48h-1.82zm9.75 2.21h-.06c-.23.43-1.04.58-1.54.67-3.1.55-6.96.52-6.96 3.45 0 1.83 1.62 2.96 3.34 2.96 2.78 0 5.25-1.77 5.22-4.7v-2.38zM62.19 343.65h1.83v2.58h.06c.67-1.8 2.67-3.02 4.79-3.02 4.21 0 5.48 2.2 5.48 5.77v9.63h-1.83v-9.34c0-2.58-.84-4.53-3.8-4.53-2.9 0-4.64 2.2-4.7 5.13v8.73h-1.83v-14.95zM89.98 357.4c-.03 4.47-1.74 7.19-6.64 7.19-2.99 0-5.95-1.33-6.21-4.53h1.83c.41 2.21 2.35 2.99 4.38 2.99 3.36 0 4.81-2 4.81-5.66v-2.03h-.06c-.84 1.83-2.61 3.08-4.76 3.08-4.79 0-6.76-3.42-6.76-7.69 0-4.12 2.44-7.54 6.76-7.54 2.17 0 4.03 1.36 4.76 3.02h.06v-2.58h1.83v13.75zm-1.83-6.44c0-2.93-1.36-6.21-4.81-6.21-3.48 0-4.93 3.1-4.93 6.21 0 3.02 1.57 5.95 4.93 5.95 3.16-.01 4.81-2.91 4.81-5.95zM92.99 337.9h1.83v2.93h-1.83v-2.93zm0 5.75h1.83v14.97h-1.83v-14.97zM97.83 343.65h1.83v2.58h.06c.67-1.8 2.67-3.02 4.79-3.02 4.21 0 5.48 2.2 5.48 5.77v9.63h-1.83v-9.34c0-2.58-.84-4.53-3.8-4.53-2.9 0-4.64 2.2-4.7 5.13v8.73h-1.83v-14.95zM125.62 357.4c-.03 4.47-1.74 7.19-6.64 7.19-2.99 0-5.95-1.33-6.21-4.53h1.83c.41 2.21 2.35 2.99 4.38 2.99 3.36 0 4.81-2 4.81-5.66v-2.03h-.06c-.84 1.83-2.61 3.08-4.76 3.08-4.79 0-6.76-3.42-6.76-7.69 0-4.12 2.44-7.54 6.76-7.54 2.17 0 4.03 1.36 4.76 3.02h.06v-2.58h1.83v13.75zm-1.83-6.44c0-2.93-1.36-6.21-4.81-6.21-3.48 0-4.93 3.1-4.93 6.21 0 3.02 1.57 5.95 4.93 5.95 3.16-.01 4.81-2.91 4.81-5.95zM129.12 358.62v-3.08h2.44v3.08h-2.44z"/></g></svg>