<svg id="Layer_1" xmlns="http://www.w3.org/2000/svg" viewBox="0 0 160 600"><style>.st0{fill:#fff}</style><path class="st0" d="M34.31 135.06h-1.37l-.25-3.64h-.06c-1.34 2.86-4.03 4.06-6.92 4.06-6.3 0-9.44-4.96-9.44-10.42s3.14-10.42 9.44-10.42c4.2 0 7.62 2.27 8.34 6.64h-1.9c-.25-2.3-2.63-5.01-6.44-5.01-5.29 0-7.53 4.42-7.53 8.79 0 4.37 2.24 8.79 7.53 8.79 4.42 0 7-3.11 6.92-7.34h-6.8v-1.62h8.48v10.17zM38.4 128.31c.03 2.58 1.37 5.68 4.76 5.68 2.58 0 3.98-1.51 4.54-3.7h1.76c-.76 3.28-2.66 5.18-6.3 5.18-4.59 0-6.52-3.53-6.52-7.64 0-3.81 1.93-7.64 6.52-7.64 4.65 0 6.5 4.06 6.36 8.12H38.4zm9.35-1.49c-.08-2.66-1.74-5.15-4.59-5.15-2.88 0-4.48 2.52-4.76 5.15h9.35zM54.02 120.61h2.94v1.48h-2.94v9.74c0 1.15.17 1.82 1.43 1.9.5 0 1.01-.03 1.51-.08v1.51c-.53 0-1.04.06-1.57.06-2.35 0-3.16-.78-3.14-3.25v-9.88h-2.52v-1.48h2.52v-4.34h1.76v4.34zM25.55 152.84c-.08-2.18-1.76-3.16-3.78-3.16-1.57 0-3.42.62-3.42 2.49 0 1.57 1.79 2.13 3 2.44l2.35.53c2.02.31 4.12 1.48 4.12 4 0 3.14-3.11 4.34-5.8 4.34-3.36 0-5.66-1.57-5.94-5.1h1.76c.14 2.38 1.9 3.61 4.26 3.61 1.65 0 3.95-.73 3.95-2.74 0-1.68-1.57-2.24-3.16-2.63l-2.27-.5c-2.3-.62-4.03-1.4-4.03-3.86 0-2.94 2.88-4.06 5.43-4.06 2.88 0 5.18 1.51 5.29 4.65h-1.76zM30 148.61h1.62v2.74h.06c.81-1.96 2.83-3.16 5.15-3.16 4.4 0 6.5 3.56 6.5 7.64 0 4.09-2.1 7.64-6.5 7.64-2.16 0-4.26-1.09-5.01-3.16h-.06v8.09H30v-19.79zm6.83 1.06c-3.89 0-5.07 2.88-5.07 6.16 0 3 1.32 6.16 5.07 6.16 3.36 0 4.73-3.16 4.73-6.16 0-2.99-1.37-6.16-4.73-6.16zM46.72 156.31c.03 2.58 1.37 5.68 4.76 5.68 2.58 0 3.98-1.51 4.54-3.7h1.76c-.76 3.28-2.66 5.18-6.3 5.18-4.59 0-6.52-3.53-6.52-7.64 0-3.81 1.93-7.64 6.52-7.64 4.65 0 6.5 4.06 6.36 8.12H46.72zm9.35-1.49c-.08-2.66-1.74-5.15-4.59-5.15-2.88 0-4.48 2.52-4.76 5.15h9.35zM70.15 153.14c-.48-2.16-1.79-3.47-4.09-3.47-3.39 0-5.07 3.08-5.07 6.16s1.68 6.16 5.07 6.16c2.18 0 3.98-1.71 4.2-4.12h1.76c-.48 3.47-2.74 5.6-5.96 5.6-4.42 0-6.83-3.5-6.83-7.64s2.41-7.64 6.83-7.64c3.08 0 5.46 1.65 5.85 4.96h-1.76zM74.1 143.06h1.76v2.83H74.1v-2.83zm0 5.55h1.76v14.45H74.1v-14.45zM78.72 153.03c.17-3.39 2.55-4.84 5.85-4.84 2.55 0 5.32.78 5.32 4.65v7.67c0 .67.34 1.06 1.04 1.06.2 0 .42-.06.56-.11v1.48c-.39.08-.67.11-1.15.11-1.79 0-2.07-1.01-2.07-2.52h-.06c-1.23 1.88-2.49 2.94-5.26 2.94-2.66 0-4.84-1.32-4.84-4.23 0-4.06 3.95-4.2 7.76-4.65 1.46-.17 2.27-.36 2.27-1.96 0-2.38-1.71-2.97-3.78-2.97-2.18 0-3.81 1.01-3.86 3.36h-1.78zm9.41 2.13h-.06c-.22.42-1.01.56-1.48.64-3 .53-6.72.5-6.72 3.33 0 1.76 1.57 2.86 3.22 2.86 2.69 0 5.07-1.71 5.04-4.54v-2.29zM93.08 143.06h1.76v19.99h-1.76v-19.99z"/><g><path class="st0" d="M29.1 189.88c-.03 4.31-1.68 6.94-6.41 6.94-2.88 0-5.74-1.29-5.99-4.37h1.76c.39 2.13 2.27 2.88 4.23 2.88 3.25 0 4.65-1.93 4.65-5.46v-1.96h-.06c-.81 1.76-2.52 2.97-4.59 2.97-4.62 0-6.52-3.3-6.52-7.42 0-3.98 2.35-7.28 6.52-7.28 2.1 0 3.89 1.32 4.59 2.91h.06v-2.49h1.76v13.28zm-1.76-6.22c0-2.83-1.32-5.99-4.65-5.99-3.36 0-4.76 3-4.76 5.99 0 2.91 1.51 5.74 4.76 5.74 3.05 0 4.65-2.8 4.65-5.74zM32.04 176.61h1.62V180h.06c.9-2.32 2.86-3.7 5.46-3.58v1.76c-3.19-.17-5.38 2.18-5.38 5.18v7.7h-1.76v-14.45zM53.02 183.83c0 4.14-2.41 7.64-6.83 7.64s-6.83-3.5-6.83-7.64 2.41-7.64 6.83-7.64 6.83 3.5 6.83 7.64zm-11.9 0c0 3.08 1.68 6.16 5.07 6.16 3.39 0 5.07-3.08 5.07-6.16s-1.68-6.16-5.07-6.16c-3.39 0-5.07 3.08-5.07 6.16zM66.9 191.06h-1.62v-2.6h-.06c-.92 1.93-2.83 3.02-4.98 3.02-3.64 0-5.07-2.13-5.07-5.49v-9.38h1.76v9.41c.08 2.6 1.06 3.98 3.86 3.98 3.02 0 4.34-2.86 4.34-5.8v-7.59h1.76v14.45zM69.82 176.61h1.62v2.74h.06c.81-1.96 2.83-3.16 5.15-3.16 4.4 0 6.5 3.56 6.5 7.64 0 4.09-2.1 7.64-6.5 7.64-2.16 0-4.26-1.09-5.01-3.16h-.06v8.09h-1.76v-19.79zm6.83 1.06c-3.89 0-5.07 2.88-5.07 6.16 0 3 1.32 6.16 5.07 6.16 3.36 0 4.73-3.16 4.73-6.16 0-2.99-1.37-6.16-4.73-6.16z"/></g><g><path class="st0" d="M16.9 204.61h1.62V208h.06c.9-2.32 2.86-3.7 5.46-3.58v1.76c-3.19-.17-5.38 2.18-5.38 5.18v7.7H16.9v-14.45zM24.99 209.03c.17-3.39 2.55-4.84 5.85-4.84 2.55 0 5.32.78 5.32 4.65v7.67c0 .67.34 1.06 1.04 1.06.2 0 .42-.06.56-.11v1.48c-.39.08-.67.11-1.15.11-1.79 0-2.07-1.01-2.07-2.52h-.06c-1.23 1.88-2.49 2.94-5.26 2.94-2.66 0-4.84-1.32-4.84-4.23 0-4.06 3.95-4.2 7.76-4.65 1.46-.17 2.27-.36 2.27-1.96 0-2.38-1.71-2.97-3.78-2.97-2.18 0-3.81 1.01-3.86 3.36h-1.78zm9.41 2.13h-.06c-.22.42-1.01.56-1.48.64-3 .53-6.72.5-6.72 3.33 0 1.76 1.57 2.86 3.22 2.86 2.69 0 5.07-1.71 5.04-4.54v-2.29zM41.76 204.61h2.94v1.48h-2.94v9.74c0 1.15.17 1.82 1.43 1.9.5 0 1.01-.03 1.51-.08v1.51c-.53 0-1.04.06-1.57.06-2.35 0-3.16-.78-3.14-3.25v-9.88h-2.52v-1.48H40v-4.34h1.76v4.34zM47.19 212.31c.03 2.58 1.37 5.68 4.76 5.68 2.58 0 3.98-1.51 4.54-3.7h1.76c-.76 3.28-2.66 5.18-6.3 5.18-4.59 0-6.52-3.53-6.52-7.64 0-3.81 1.93-7.64 6.52-7.64 4.65 0 6.5 4.06 6.36 8.12H47.19zm9.35-1.49c-.08-2.66-1.74-5.15-4.59-5.15-2.88 0-4.48 2.52-4.76 5.15h9.35zM69.09 208.84c-.08-2.18-1.76-3.16-3.78-3.16-1.57 0-3.42.62-3.42 2.49 0 1.57 1.79 2.13 3 2.44l2.35.53c2.02.31 4.12 1.48 4.12 4 0 3.14-3.11 4.34-5.8 4.34-3.36 0-5.66-1.57-5.94-5.1h1.76c.14 2.38 1.9 3.61 4.26 3.61 1.65 0 3.95-.73 3.95-2.74 0-1.68-1.57-2.24-3.16-2.63l-2.27-.5c-2.3-.62-4.03-1.4-4.03-3.86 0-2.94 2.88-4.06 5.43-4.06 2.88 0 5.18 1.51 5.29 4.65h-1.76zM94.12 211.83c0 4.14-2.41 7.64-6.83 7.64s-6.83-3.5-6.83-7.64 2.41-7.64 6.83-7.64 6.83 3.5 6.83 7.64zm-11.9 0c0 3.08 1.68 6.16 5.07 6.16 3.39 0 5.07-3.08 5.07-6.16s-1.68-6.16-5.07-6.16c-3.39 0-5.07 3.08-5.07 6.16zM96.33 204.61h1.76v2.49h.06c.64-1.74 2.58-2.91 4.62-2.91 4.06 0 5.29 2.13 5.29 5.57v9.3h-1.76v-9.02c0-2.49-.81-4.37-3.67-4.37-2.8 0-4.48 2.13-4.54 4.96v8.43h-1.76v-14.45z"/></g><g><path class="st0" d="M17.23 227.06h1.9v18.37h11.2v1.62h-13.1v-19.99zM32.35 240.31c.03 2.58 1.37 5.68 4.76 5.68 2.58 0 3.98-1.51 4.54-3.7h1.76c-.76 3.28-2.66 5.18-6.3 5.18-4.59 0-6.52-3.53-6.52-7.64 0-3.81 1.93-7.64 6.52-7.64 4.65 0 6.5 4.06 6.36 8.12H32.35zm9.35-1.49c-.08-2.66-1.74-5.15-4.59-5.15-2.88 0-4.48 2.52-4.76 5.15h9.35zM43.5 232.61h1.96L50 245.29h.06l4.48-12.68h1.82l-5.4 14.45h-1.88l-5.58-14.45zM58.28 240.31c.03 2.58 1.37 5.68 4.76 5.68 2.58 0 3.98-1.51 4.54-3.7h1.76c-.76 3.28-2.66 5.18-6.3 5.18-4.59 0-6.52-3.53-6.52-7.64 0-3.81 1.93-7.64 6.52-7.64 4.65 0 6.5 4.06 6.36 8.12H58.28zm9.35-1.49c-.08-2.66-1.74-5.15-4.59-5.15-2.88 0-4.48 2.52-4.76 5.15h9.35zM71.52 227.06h1.76v19.99h-1.76v-19.99z"/></g><g><path class="st0" d="M15.08 255.06h15.85v1.62h-6.97v18.37h-1.9v-18.37h-6.97v-1.62zM30.48 268.31c.03 2.58 1.37 5.68 4.76 5.68 2.58 0 3.98-1.51 4.54-3.7h1.76c-.76 3.28-2.66 5.18-6.3 5.18-4.59 0-6.52-3.53-6.52-7.64 0-3.81 1.93-7.64 6.52-7.64 4.65 0 6.5 4.06 6.36 8.12H30.48zm9.35-1.49c-.08-2.66-1.74-5.15-4.59-5.15-2.88 0-4.48 2.52-4.76 5.15h9.35zM43.69 260.61h1.62V264h.06c.9-2.32 2.86-3.7 5.46-3.58v1.76c-3.19-.17-5.38 2.18-5.38 5.18v7.7h-1.76v-14.45zM52.26 260.61h1.62v2.44h.08c.92-1.74 2.44-2.86 4.73-2.86 1.9 0 3.61.92 4.14 2.83.87-1.9 2.69-2.83 4.59-2.83 3.16 0 4.79 1.65 4.79 5.07v9.8h-1.76v-9.72c0-2.38-.9-3.67-3.42-3.67-3.05 0-3.92 2.52-3.92 5.21v8.18h-1.76v-9.8c.03-1.96-.78-3.58-3.02-3.58-3.05 0-4.28 2.3-4.31 5.32v8.06h-1.76v-14.45zM83.2 255.06h1.9v18.37h11.2v1.62H83.2v-19.99zM97.68 255.06h1.76v2.83h-1.76v-2.83zm0 5.55h1.76v14.45h-1.76v-14.45zM108.04 262.09h-2.86v12.96h-1.76v-12.96h-2.46v-1.48h2.46v-1.32c-.03-2.49.67-4.23 3.5-4.23.5 0 .92.03 1.48.11v1.51c-.48-.08-.87-.14-1.29-.14-1.96 0-1.9 1.23-1.93 2.8v1.26h2.86v1.49zM110.02 268.31c.03 2.58 1.37 5.68 4.76 5.68 2.58 0 3.98-1.51 4.54-3.7h1.76c-.76 3.28-2.66 5.18-6.3 5.18-4.59 0-6.52-3.53-6.52-7.64 0-3.81 1.93-7.64 6.52-7.64 4.65 0 6.5 4.06 6.36 8.12h-11.12zm9.36-1.49c-.08-2.66-1.74-5.15-4.59-5.15-2.88 0-4.48 2.52-4.76 5.15h9.35z"/></g><g><path class="st0" d="M17.37 283.06h1.9v19.99h-1.9v-19.99zM22.55 288.61h1.76v2.49h.06c.64-1.74 2.58-2.91 4.62-2.91 4.06 0 5.29 2.13 5.29 5.57v9.3h-1.76v-9.02c0-2.49-.81-4.37-3.67-4.37-2.8 0-4.48 2.13-4.54 4.96v8.43h-1.76v-14.45zM45.79 292.84c-.08-2.18-1.76-3.16-3.78-3.16-1.57 0-3.42.62-3.42 2.49 0 1.57 1.79 2.13 3 2.44l2.35.53c2.02.31 4.12 1.48 4.12 4 0 3.14-3.11 4.34-5.8 4.34-3.36 0-5.66-1.57-5.94-5.1h1.76c.14 2.38 1.9 3.61 4.26 3.61 1.65 0 3.95-.73 3.95-2.74 0-1.68-1.57-2.24-3.16-2.63l-2.27-.5c-2.3-.62-4.03-1.4-4.03-3.86 0-2.94 2.88-4.06 5.43-4.06 2.88 0 5.18 1.51 5.29 4.65h-1.76zM61.84 303.06h-1.62v-2.6h-.06c-.92 1.93-2.83 3.02-4.98 3.02-3.64 0-5.07-2.13-5.07-5.49v-9.38h1.76v9.41c.08 2.6 1.06 3.98 3.86 3.98 3.02 0 4.34-2.86 4.34-5.8v-7.59h1.76v14.45zM64.72 288.61h1.62V292h.06c.9-2.32 2.86-3.7 5.46-3.58v1.76c-3.19-.17-5.38 2.18-5.38 5.18v7.7h-1.76v-14.45zM72.84 293.03c.17-3.39 2.55-4.84 5.85-4.84 2.55 0 5.32.78 5.32 4.65v7.67c0 .67.34 1.06 1.04 1.06.2 0 .42-.06.56-.11v1.48c-.39.08-.67.11-1.15.11-1.79 0-2.07-1.01-2.07-2.52h-.06c-1.23 1.88-2.49 2.94-5.26 2.94-2.66 0-4.84-1.32-4.84-4.23 0-4.06 3.95-4.2 7.76-4.65 1.46-.17 2.27-.36 2.27-1.96 0-2.38-1.71-2.97-3.78-2.97-2.18 0-3.81 1.01-3.86 3.36h-1.78zm9.41 2.13h-.06c-.22.42-1.01.56-1.48.64-3 .53-6.72.5-6.72 3.33 0 1.76 1.57 2.86 3.22 2.86 2.69 0 5.07-1.71 5.04-4.54v-2.29zM87.2 288.61h1.76v2.49h.06c.64-1.74 2.58-2.91 4.62-2.91 4.06 0 5.29 2.13 5.29 5.57v9.3h-1.76v-9.02c0-2.49-.81-4.37-3.67-4.37-2.8 0-4.48 2.13-4.54 4.96v8.43H87.2v-14.45zM112.04 293.14c-.48-2.16-1.79-3.47-4.09-3.47-3.39 0-5.07 3.08-5.07 6.16s1.68 6.16 5.07 6.16c2.18 0 3.98-1.71 4.2-4.12h1.76c-.48 3.47-2.74 5.6-5.96 5.6-4.42 0-6.83-3.5-6.83-7.64s2.41-7.64 6.83-7.64c3.08 0 5.46 1.65 5.85 4.96h-1.76zM117.08 296.31c.03 2.58 1.37 5.68 4.76 5.68 2.58 0 3.98-1.51 4.54-3.7h1.76c-.76 3.28-2.66 5.18-6.3 5.18-4.59 0-6.52-3.53-6.52-7.64 0-3.81 1.93-7.64 6.52-7.64 4.65 0 6.5 4.06 6.36 8.12h-11.12zm9.35-1.49c-.08-2.66-1.74-5.15-4.59-5.15-2.88 0-4.48 2.52-4.76 5.15h9.35zM130.63 303.06v-2.97h2.35v2.97h-2.35z"/></g></svg>