<svg id="Layer_1" xmlns="http://www.w3.org/2000/svg" viewBox="0 0 160 600"><style>.st0{fill:#ff7f30}.st1{fill:#fff}</style><path class="st0" d="M12.62 506.68h133.82v32.77H12.62z"/><path class="st1" d="M36.52 517.03l4.54 12.14h-2.77l-.92-2.7h-4.54l-.95 2.7H29.2l4.59-12.14h2.73zm.16 7.45l-1.53-4.45h-.03l-1.58 4.45h3.14zM47.59 517.03c.76 0 1.41.11 1.94.33s.97.51 1.3.88c.33.36.58.78.73 1.24.15.46.23.95.23 1.45 0 .49-.08.97-.23 1.44-.15.47-.4.89-.73 1.25-.33.36-.77.65-1.3.88s-1.18.33-1.94.33h-2.81v4.35h-2.67v-12.14h5.48zm-.73 5.71c.31 0 .6-.02.88-.07.28-.04.53-.13.75-.26.22-.13.39-.31.52-.55.13-.24.2-.55.2-.94 0-.38-.07-.7-.2-.93-.13-.24-.3-.42-.52-.55s-.46-.22-.75-.26c-.28-.04-.58-.07-.88-.07h-2.07v3.64h2.07zM58.93 517.03c.76 0 1.41.11 1.94.33s.97.51 1.3.88c.33.36.58.78.73 1.24.15.46.23.95.23 1.45 0 .49-.08.97-.23 1.44-.15.47-.4.89-.73 1.25-.33.36-.77.65-1.3.88s-1.18.33-1.94.33h-2.81v4.35h-2.67v-12.14h5.48zm-.73 5.71c.31 0 .6-.02.88-.07.28-.04.53-.13.75-.26.22-.13.39-.31.52-.55.13-.24.2-.55.2-.94 0-.38-.07-.7-.2-.93-.13-.24-.3-.42-.52-.55s-.46-.22-.75-.26c-.28-.04-.58-.07-.88-.07h-2.07v3.64h2.07zM67.46 517.03v9.89h5.92v2.24H64.8v-12.14h2.66zM71.7 517.03h2.99l2.84 4.79 2.82-4.79h2.98l-4.5 7.48v4.66h-2.67v-4.73l-4.46-7.41zM91.72 517.03l5.07 8.14h.03v-8.14h2.5v12.14h-2.67l-5.05-8.13h-.03v8.13h-2.5v-12.14h2.65zM101.55 520.62c.27-.78.66-1.45 1.17-2.03.51-.58 1.14-1.03 1.88-1.36.74-.33 1.58-.49 2.51-.49.94 0 1.78.16 2.52.49.74.33 1.36.78 1.87 1.36s.9 1.26 1.17 2.03c.27.78.41 1.62.41 2.53 0 .88-.14 1.71-.41 2.47-.27.77-.66 1.43-1.17 2s-1.13 1.01-1.87 1.33c-.74.32-1.58.49-2.52.49-.93 0-1.77-.16-2.51-.49-.74-.32-1.37-.77-1.88-1.33-.51-.57-.9-1.23-1.17-2-.27-.76-.41-1.59-.41-2.47 0-.91.14-1.75.41-2.53zm2.44 4.02c.12.48.31.92.57 1.3.26.39.6.69 1.02.93s.93.35 1.53.35 1.11-.12 1.53-.35c.42-.23.76-.54 1.02-.93.26-.38.45-.82.57-1.3s.18-.98.18-1.49c0-.53-.06-1.05-.18-1.55s-.31-.94-.57-1.33-.6-.7-1.02-.94c-.42-.23-.93-.35-1.53-.35s-1.11.12-1.53.35c-.42.23-.76.54-1.02.94-.26.39-.45.84-.57 1.33-.12.5-.18 1.01-.18 1.55 0 .51.06 1.01.18 1.49zM123.8 529.17l-2.06-8.26h-.03l-2.02 8.26h-2.7l-3.21-12.14h2.67l1.92 8.26h.03l2.11-8.26h2.5l2.07 8.36h.03l1.99-8.36h2.62l-3.26 12.14h-2.66z"/></svg>