<svg id="Layer_1" xmlns="http://www.w3.org/2000/svg" xmlns:xlink="http://www.w3.org/1999/xlink" viewBox="0 0 160 600"><style>.st0,.st1,.st2,.st3{clip-path:url(#SVGID_2_)}.st1,.st2,.st3{fill:#a4ce4e}.st2,.st3{fill:#0090da}.st3{fill:#0061a0}</style><defs><path id="SVGID_1_" d="M68.63 551.92h87.12v20.75H68.63z"/></defs><clipPath id="SVGID_2_"><use xlink:href="#SVGID_1_" overflow="visible"/></clipPath><path class="st0" d="M132.03 558.03c-.64 0-1.17-.53-1.17-1.17 0-.64.53-1.17 1.17-1.17.66 0 1.17.51 1.17 1.17 0 .64-.53 1.17-1.17 1.17m-33.05 7.54h2.08l.25-6.25 2.11 3.71h1.13l1.99-3.75.27 6.29h2.18l-.45-9.62h-2.08l-2.45 4.52-2.51-4.52h-2.06l-.46 9.62zm16.72-2.05c-.15.11-.4.25-.74.41-.34.16-.78.24-1.31.24-.55 0-.98-.14-1.29-.41-.31-.27-.47-.59-.48-.96h4.82v-.35c0-.57-.07-1.09-.22-1.57-.14-.48-.36-.89-.64-1.23-.28-.34-.63-.61-1.05-.8-.41-.19-.89-.29-1.44-.29a3.403 3.403 0 0 0-2.57 1.09c-.3.33-.53.71-.68 1.15-.16.44-.24.89-.24 1.36 0 .54.08 1.03.25 1.48.17.45.41.83.74 1.15.32.32.71.57 1.18.74.46.18.98.27 1.56.27.43 0 .82-.04 1.16-.12.34-.08.63-.18.87-.28.25-.11.44-.21.6-.33.15-.11.27-.19.35-.24l-.87-1.31zm-3.82-2.05c0-.14.03-.29.09-.44.06-.15.15-.29.27-.41.12-.12.27-.23.45-.31.18-.08.39-.12.64-.12.24 0 .45.04.62.12.17.08.32.19.43.31.12.12.2.26.26.41.06.15.09.3.09.44h-2.85zm11.87 4.1h6.33v-1.78h-4.15v-7.84h-2.18v9.62zm7.24 0h2.08v-6.77h-2.08v6.77zm9.13-9.18c-.31-.26-.65-.44-1.02-.55-.38-.11-.75-.16-1.11-.16-.35 0-.69.05-1.02.17a2.526 2.526 0 0 0-1.52 1.37c-.16.35-.24.76-.24 1.24v.35h-1.1v1.63h1.1v5.14h2.06v-5.14h1.6v-1.63h-1.6v-.38c0-.34.09-.6.26-.78.17-.18.4-.27.69-.27.18 0 .36.03.53.09.17.06.33.14.48.24l.89-1.32zm-17.99 7.37c-.13.1-.28.18-.43.25-.15.07-.34.11-.55.11-.28 0-.48-.09-.61-.27-.13-.18-.2-.43-.2-.76v-2.67h1.75v-1.63h-1.75v-1.81h-2.08v1.81h-1.07v1.63h1.07v2.55c0 .42.04.81.13 1.15.09.35.23.64.43.89.2.24.47.44.79.58.33.14.73.21 1.21.21.77 0 1.48-.26 2.13-.78l-.82-1.26zm23-.24c-.15.11-.4.25-.74.41-.34.16-.78.24-1.31.24-.55 0-.98-.14-1.29-.41-.31-.27-.47-.59-.48-.96h4.82v-.35c0-.57-.07-1.09-.22-1.57-.14-.48-.36-.89-.64-1.23-.28-.34-.63-.61-1.05-.8-.41-.19-.9-.29-1.44-.29a3.403 3.403 0 0 0-2.57 1.09c-.3.33-.53.71-.69 1.15-.16.44-.24.89-.24 1.36 0 .54.08 1.03.25 1.48.17.45.41.83.74 1.15.32.32.72.57 1.18.74.46.18.98.27 1.56.27a4.954 4.954 0 0 0 2.02-.4c.24-.11.44-.21.6-.33.15-.11.27-.19.35-.24l-.85-1.31zm-3.82-2.05c0-.14.03-.29.09-.44.06-.15.15-.29.27-.41.12-.12.27-.23.45-.31.18-.08.4-.12.63-.12.24 0 .45.04.62.12.17.08.32.19.43.31.12.12.2.26.26.41.06.15.09.3.09.44h-2.84z"/><path class="st1" d="M86.17 558.06a12.883 12.883 0 0 1 2.43 9.85h4.73c.41 0 .74-.33.74-.75v-13.08c0-.49-.46-.85-.93-.72-2.81.75-5.26 2.43-6.97 4.7"/><path class="st2" d="M83.73 567.92a12.883 12.883 0 0 1 2.43-9.85 12.89 12.89 0 0 0-6.99-4.7.748.748 0 0 0-.93.72v13.08c0 .41.33.75.75.75h4.74z"/><path class="st3" d="M86.17 558.06a12.883 12.883 0 0 0-2.43 9.85h4.88c.11-.67.17-1.37.17-2.07-.02-2.92-.99-5.61-2.62-7.78"/></svg>