<svg id="Layer_1" xmlns="http://www.w3.org/2000/svg" viewBox="0 0 300 250"><style>.st0{fill:#0d4c87}</style><path class="st0" d="M39.54 167.2c-1.51 0-2.96-.44-3.76-.92l-.31-3.04c1.09.76 2.52 1.28 3.86 1.28 1.15 0 1.89-.52 1.89-1.34 0-.78-.48-1.22-1.72-1.55-2.62-.71-3.84-2.16-3.84-4.2 0-2.23 1.66-4.01 4.56-4.01 1.53 0 2.81.44 3.36.76l-.59 2.62c-.55-.31-1.62-.69-2.54-.69-1.13 0-1.66.5-1.66 1.16 0 .67.57 1.03 1.6 1.32 2.56.71 4.09 2.04 4.09 4.41-.01 2.57-1.69 4.2-4.94 4.2zM54.85 161.72l-1.36 1.39h-4.66c.15.78 1.2 1.66 2.81 1.66.99 0 1.99-.29 2.62-.71l-.29 2.64c-.71.38-1.81.63-3.02.63-2.9 0-5.23-2.02-5.23-5.12 0-3.07 2.23-5.02 4.96-5.02 2.65 0 4.26 1.83 4.26 3.8-.01.23-.05.55-.09.73zm-4.18-2.22c-.9 0-1.66.69-1.85 1.55h3.21c0-.06.02-.13.02-.21 0-.65-.56-1.34-1.38-1.34zM65.12 161.72l-1.36 1.39H59.1c.15.78 1.2 1.66 2.81 1.66.99 0 1.99-.29 2.62-.71l-.29 2.64c-.71.38-1.81.63-3.02.63-2.9 0-5.23-2.02-5.23-5.12 0-3.07 2.23-5.02 4.96-5.02 2.65 0 4.26 1.83 4.26 3.8-.01.23-.05.55-.09.73zm-4.18-2.22c-.9 0-1.66.69-1.85 1.55h3.21c0-.06.02-.13.02-.21 0-.65-.56-1.34-1.38-1.34zM77.48 167.01v-5.84c0-.69-.48-1.3-1.43-1.3-.92 0-1.49.59-1.49 1.34V167h-3.09v-14.95h3.04v6.32h.02c.48-.73 1.36-1.18 2.69-1.18 2.1 0 3.34 1.18 3.34 3.19v6.61h-3.08zM87.27 167.31c-2.88 0-5.19-2.04-5.19-5.06s2.31-5.06 5.19-5.06c2.86 0 5.19 2.04 5.19 5.06s-2.33 5.06-5.19 5.06zm0-7.43c-1.15 0-2.14 1.01-2.14 2.42s.99 2.41 2.14 2.41c1.13 0 2.14-1.01 2.14-2.41 0-1.42-1.01-2.42-2.14-2.42zM103.96 167.1h-2.12l-1.28-3.78c-.19-.59-.38-1.26-.57-1.97h-.04c-.15.71-.34 1.41-.52 1.95l-1.28 3.8h-2.02l-3.32-9.59h2.81l1.18 3.61c.17.54.36 1.22.46 1.83h.04c.1-.59.27-1.28.46-1.83l1.2-3.61h2.33l1.2 3.59c.19.59.31 1.24.44 1.85h.04c.13-.61.29-1.28.48-1.85l1.2-3.59h2.62l-3.31 9.59zM124.88 167.01v-5.84c0-.69-.34-1.3-1.34-1.3-.99 0-1.43.59-1.43 1.34V167h-3.09v-5.84c0-.69-.34-1.3-1.34-1.3-.99 0-1.43.59-1.43 1.34v5.79h-3.09v-9.51h2.86v1.28h.02c.38-1.01 1.32-1.58 2.81-1.58 1.36 0 2.39.55 2.81 1.55.4-.92 1.51-1.55 2.94-1.55 2.16 0 3.36 1.18 3.36 3.19v6.61h-3.08zM136.2 167.01v-1.3h-.02c-.38 1.01-1.39 1.57-2.92 1.57-2.08 0-3.34-1.15-3.34-3.17v-6.61h3.09v5.84c0 .69.48 1.3 1.43 1.3.92 0 1.49-.61 1.49-1.37v-5.77h3.09v9.51h-2.82zM148.21 160.57c-.63-.4-1.28-.61-2.04-.61-1.34 0-2.42.97-2.42 2.35 0 1.36 1.07 2.35 2.48 2.35.8 0 1.41-.17 2.08-.52l-.27 2.62c-.63.29-1.45.46-2.33.46-2.67 0-5.14-1.89-5.14-4.96 0-3.11 2.5-4.98 5.08-4.98 1.26 0 2.29.25 3.13.71l-.57 2.58zM156.34 167.01v-5.84c0-.69-.48-1.3-1.43-1.3-.92 0-1.49.59-1.49 1.34V167h-3.09v-14.95h3.04v6.32h.02c.48-.73 1.36-1.18 2.69-1.18 2.1 0 3.34 1.18 3.34 3.19v6.61h-3.08zM171.88 166.07c-1.45 3.82-2.96 5.21-4.75 5.9l-1.89-1.89c1.53-.59 2.71-1.7 3.48-3.72l-3.42-8.86h2.98l1.39 3.7c.21.54.42 1.2.57 1.87h.04c.19-.65.4-1.32.61-1.87l1.39-3.7h2.83l-3.23 8.57zM180.59 167.31c-2.88 0-5.19-2.04-5.19-5.06s2.31-5.06 5.19-5.06c2.86 0 5.19 2.04 5.19 5.06s-2.33 5.06-5.19 5.06zm0-7.43c-1.15 0-2.14 1.01-2.14 2.42s.99 2.41 2.14 2.41c1.13 0 2.14-1.01 2.14-2.41.01-1.42-1-2.42-2.14-2.42zM193.57 167.01v-1.3h-.02c-.38 1.01-1.39 1.57-2.92 1.57-2.08 0-3.34-1.15-3.34-3.17v-6.61h3.09v5.84c0 .69.48 1.3 1.43 1.3.92 0 1.49-.61 1.49-1.37v-5.77h3.09v9.51h-2.82zM210.27 160.57c-.63-.4-1.28-.61-2.04-.61-1.34 0-2.42.97-2.42 2.35 0 1.36 1.07 2.35 2.48 2.35.8 0 1.41-.17 2.08-.52l-.27 2.62c-.63.29-1.45.46-2.33.46-2.67 0-5.14-1.89-5.14-4.96 0-3.11 2.5-4.98 5.08-4.98 1.26 0 2.29.25 3.13.71l-.57 2.58zM218.98 167.43c-.57-.13-1.22-.57-1.47-1.26-.42.78-1.32 1.16-2.48 1.16-1.68 0-3.17-1.18-3.17-3.15 0-1.74 1.37-2.92 3.25-3.11l1.89-.19v-.32c0-.57-.46-.94-1.49-.94-.92 0-1.95.29-2.65.74l-.55-2.33c.78-.5 2.08-.84 3.34-.84 2.52 0 4.3 1.16 4.3 3.44v3.11c0 1.11.42 1.7 1.16 1.97l-2.13 1.72zm-1.97-4.57l-1.16.11c-.8.06-1.16.63-1.16 1.2 0 .5.38.92.97.92.73 0 1.34-.57 1.34-1.39v-.84zM228.2 167.01v-5.84c0-.69-.46-1.3-1.41-1.3-.92 0-1.51.59-1.51 1.34V167h-3.09v-9.51h2.83v1.28h.02c.38-1.01 1.37-1.58 2.9-1.58 2.08 0 3.34 1.18 3.34 3.19v6.61h-3.08zM242.12 171.87c-2.77 0-4.62-1.58-4.62-3.57 0-1.45.97-2.31 1.95-2.56l-1.22-1.22c.08-.61.61-1.13 1.16-1.36a2.997 2.997 0 0 1-1.39-2.54c0-2.02 1.45-3.42 3.93-3.42.57 0 1.01.08 1.41.19.42.11.88.17 1.36.17.53 0 1.07-.12 1.49-.31l.57 2.35c-.29.17-.76.31-1.18.29.1.19.23.63.23.97 0 1.6-1.26 2.94-3.11 3.07-.38.02-.63.1-.63.36 0 .11.08.23.25.29l1.47.52c1.87.67 2.88 1.62 2.88 3.36.01 1.93-1.78 3.41-4.55 3.41zm.65-4.48l-1.13-.31c-.74.02-1.28.54-1.28 1.24 0 .65.57 1.2 1.68 1.2 1.09 0 1.68-.5 1.68-1.05 0-.45-.34-.91-.95-1.08zm-.84-7.95c-.69 0-1.22.52-1.22 1.13 0 .63.52 1.13 1.22 1.13.67 0 1.22-.5 1.22-1.13 0-.61-.5-1.13-1.22-1.13zM256.61 161.72l-1.36 1.39h-4.66c.15.78 1.2 1.66 2.81 1.66.99 0 2-.29 2.62-.71l-.29 2.64c-.71.38-1.81.63-3.02.63-2.9 0-5.23-2.02-5.23-5.12 0-3.07 2.23-5.02 4.96-5.02 2.65 0 4.26 1.83 4.26 3.8 0 .23-.05.55-.09.73zm-4.18-2.22c-.9 0-1.66.69-1.85 1.55h3.21c0-.06.02-.13.02-.21.01-.65-.56-1.34-1.38-1.34zM264.66 160.02h-2.48v3.53c0 .82.44 1.15 1.26 1.15.36 0 .57-.02.8-.13l-.27 2.33c-.29.15-.82.25-1.43.25-2.14 0-3.42-1.13-3.42-3.02v-4.12h-1.6v-2.52h1.6v-2.04l3.07-1.11v3.15h3.07l-.6 2.53z"/><g><path class="st0" d="M73.31 178.21c-.55 0-1.66-1.11-1.66-1.66s1.11-1.64 1.66-1.64 1.66 1.09 1.66 1.64-1.12 1.66-1.66 1.66zm-1.56 10.81v-9.51h3.11v9.51h-3.11zM82.88 189.02v-5.84c0-.69-.46-1.3-1.41-1.3-.92 0-1.51.59-1.51 1.34v5.79h-3.09v-9.51h2.83v1.28h.02c.38-1.01 1.36-1.58 2.9-1.58 2.08 0 3.34 1.18 3.34 3.19V189h-3.08zM92.56 193.94l-1.83-1.83c1.15-.38 1.93-1.16 1.93-2.79v-9.8h3.11v9.97c.01 2.39-1.53 3.92-3.21 4.45zm1.66-15.73c-.55 0-1.66-1.11-1.66-1.66s1.11-1.64 1.66-1.64 1.66 1.09 1.66 1.64-1.11 1.66-1.66 1.66zM104.05 189.02v-1.3h-.02c-.38 1.01-1.39 1.57-2.92 1.57-2.08 0-3.34-1.15-3.34-3.17v-6.61h3.09v5.84c0 .69.48 1.3 1.43 1.3.92 0 1.49-.61 1.49-1.37v-5.77h3.09v9.51h-2.82zM111.9 189.23c-1.3 0-2.25-.27-3.02-.67l-.27-2.73c.84.59 1.93 1.03 2.98 1.03.57 0 .92-.29.92-.65 0-.4-.31-.57-.86-.73-1.83-.53-2.92-1.45-2.92-3.11 0-1.87 1.51-3.07 3.57-3.07 1.18 0 2.33.32 2.81.57l-.52 2.27c-.46-.25-1.22-.52-1.97-.52-.5 0-.84.23-.84.61 0 .36.25.55.84.69 2.14.57 3.02 1.64 3.02 3.23 0 1.61-1.17 3.08-3.74 3.08zM123.39 182.03h-2.48v3.53c0 .82.44 1.15 1.26 1.15.36 0 .57-.02.8-.13l-.27 2.33c-.29.15-.82.25-1.43.25-2.14 0-3.42-1.13-3.42-3.02v-4.12h-1.6v-2.52h1.6v-2.04l3.07-1.11v3.15h3.07l-.6 2.53zM132.53 189.27c-.78 0-1.85-.17-2.54-.46l-.27-2.69c.65.36 1.43.59 2.25.59 1.24 0 2.33-.61 2.33-1.91 0-1.03-.94-1.81-2.08-1.81-.13 0-.21.02-.4.04l-.5-2.25c1.15-.23 2.1-.84 2.1-1.62 0-.67-.55-1.11-1.32-1.11-.73 0-1.32.21-1.91.55l-.59-2.58c.71-.38 1.78-.67 2.92-.67 2.5 0 4.09 1.28 4.09 3.21 0 1.41-1.01 2.31-1.91 2.56 1.43.32 2.96 1.62 2.96 3.74-.01 2.8-2.07 4.41-5.13 4.41zM143.84 189.34c-2.65 0-4.83-2.23-4.83-7.03 0-4.79 2.18-7.01 4.83-7.01 2.62 0 4.81 2.23 4.81 7.01 0 4.8-2.18 7.03-4.81 7.03zm0-11.4c-.94 0-1.76 1.47-1.76 4.37 0 2.94.82 4.37 1.76 4.37s1.76-1.41 1.76-4.37c.01-2.93-.81-4.37-1.76-4.37zM158.1 189.23c-1.3 0-2.25-.27-3.02-.67l-.27-2.73c.84.59 1.93 1.03 2.98 1.03.57 0 .92-.29.92-.65 0-.4-.32-.57-.86-.73-1.83-.53-2.92-1.45-2.92-3.11 0-1.87 1.51-3.07 3.57-3.07 1.18 0 2.33.32 2.81.57l-.53 2.27c-.46-.25-1.22-.52-1.97-.52-.5 0-.84.23-.84.61 0 .36.25.55.84.69 2.14.57 3.02 1.64 3.02 3.23.01 1.61-1.16 3.08-3.73 3.08zM171.98 183.73l-1.37 1.39h-4.66c.15.78 1.2 1.66 2.81 1.66.99 0 1.99-.29 2.62-.71l-.29 2.64c-.71.38-1.8.63-3.02.63-2.9 0-5.23-2.02-5.23-5.12 0-3.07 2.23-5.02 4.96-5.02 2.65 0 4.26 1.83 4.26 3.8.01.23-.03.54-.08.73zm-4.17-2.22c-.9 0-1.66.69-1.85 1.55h3.21c0-.06.02-.13.02-.21 0-.65-.57-1.34-1.38-1.34zM180.76 182.58c-.63-.4-1.28-.61-2.04-.61-1.34 0-2.41.97-2.41 2.35 0 1.36 1.07 2.35 2.48 2.35.8 0 1.41-.17 2.08-.52l-.27 2.62c-.63.29-1.45.46-2.33.46-2.67 0-5.14-1.89-5.14-4.96 0-3.11 2.5-4.98 5.08-4.98 1.26 0 2.29.25 3.13.71l-.58 2.58zM187.44 189.32c-2.88 0-5.19-2.04-5.19-5.06s2.31-5.06 5.19-5.06c2.86 0 5.19 2.04 5.19 5.06s-2.34 5.06-5.19 5.06zm0-7.44c-1.15 0-2.14 1.01-2.14 2.42s.99 2.41 2.14 2.41c1.13 0 2.14-1.01 2.14-2.41 0-1.41-1.01-2.42-2.14-2.42zM200.19 189.02v-5.84c0-.69-.46-1.3-1.41-1.3-.92 0-1.51.59-1.51 1.34v5.79h-3.09v-9.51h2.83v1.28h.02c.38-1.01 1.37-1.58 2.9-1.58 2.08 0 3.34 1.18 3.34 3.19V189h-3.08zM212.37 189.02v-1.18h-.02c-.53.97-1.62 1.45-2.94 1.45-2.33 0-4.58-1.76-4.58-5.02 0-3.07 2.18-5.06 4.83-5.06 1.01 0 2.04.34 2.41.65v-5.79h3v14.95h-2.7zm-.3-6.23c-.29-.4-.92-.86-1.87-.86-1.34 0-2.29 1.05-2.29 2.41 0 1.37.94 2.42 2.29 2.42.9 0 1.53-.48 1.87-.99v-2.98zM220.16 189.23c-1.3 0-2.25-.27-3.02-.67l-.27-2.73c.84.59 1.93 1.03 2.98 1.03.57 0 .92-.29.92-.65 0-.4-.32-.57-.86-.73-1.83-.53-2.92-1.45-2.92-3.11 0-1.87 1.51-3.07 3.57-3.07 1.18 0 2.33.32 2.81.57l-.53 2.27c-.46-.25-1.22-.52-1.97-.52-.5 0-.84.23-.84.61 0 .36.25.55.84.69 2.14.57 3.02 1.64 3.02 3.23.01 1.61-1.17 3.08-3.73 3.08zM226.92 189.32c-.57 0-1.74-1.18-1.74-1.74 0-.55 1.18-1.72 1.74-1.72.57 0 1.74 1.18 1.74 1.72 0 .56-1.17 1.74-1.74 1.74z"/></g></svg>