<?xml version="1.0" encoding="utf-8"?>
<!-- Generator: Adobe Illustrator 24.2.3, SVG Export Plug-In . SVG Version: 6.00 Build 0)  -->
<svg version="1.1" id="Layer_1" xmlns="http://www.w3.org/2000/svg" xmlns:xlink="http://www.w3.org/1999/xlink" x="0px" y="0px"
	 viewBox="0 0 728 90" style="enable-background:new 0 0 728 90;" xml:space="preserve">
<style type="text/css">
	.st0{fill:#FFFFFF;}
</style>
<g>
	<path class="st0" d="M335.11,56.55h1.7v17.85h-1.7V56.55z"/>
	<path class="st0" d="M347.53,65.27c-0.07-1.95-1.57-2.82-3.37-2.82c-1.4,0-3.05,0.55-3.05,2.22c0,1.4,1.6,1.9,2.67,2.17l2.1,0.47
		c1.8,0.27,3.67,1.32,3.67,3.57c0,2.8-2.77,3.87-5.17,3.87c-3,0-5.05-1.4-5.3-4.55h1.57c0.12,2.12,1.7,3.22,3.8,3.22
		c1.47,0,3.52-0.65,3.52-2.45c0-1.5-1.4-2-2.82-2.35l-2.02-0.45c-2.05-0.55-3.6-1.25-3.6-3.45c0-2.62,2.57-3.62,4.85-3.62
		c2.57,0,4.62,1.35,4.72,4.15H347.53z"/>
	<path class="st0" d="M356.88,61.5h1.67l4.25,11l3.97-11h1.58l-5.6,14.87c-0.9,2.17-1.42,2.8-3.4,2.8c-0.62-0.02-0.95-0.02-1.2-0.12
		v-1.32c0.38,0.08,0.73,0.12,1.08,0.12c1.4,0,1.72-0.83,2.25-2.02l0.55-1.47L356.88,61.5z"/>
	<path class="st0" d="M380.71,67.95c0,3.7-2.15,6.82-6.1,6.82s-6.1-3.12-6.1-6.82s2.15-6.82,6.1-6.82S380.71,64.25,380.71,67.95z
		 M370.08,67.95c0,2.75,1.5,5.5,4.52,5.5s4.52-2.75,4.52-5.5s-1.5-5.5-4.52-5.5S370.08,65.2,370.08,67.95z"/>
	<path class="st0" d="M393.13,74.39h-1.45v-2.32h-0.05c-0.82,1.72-2.52,2.7-4.45,2.7c-3.25,0-4.52-1.9-4.52-4.9V61.5h1.57v8.4
		c0.08,2.32,0.95,3.55,3.45,3.55c2.7,0,3.87-2.55,3.87-5.17V61.5h1.58V74.39z"/>
	<path class="st0" d="M395.76,61.5h1.45v3.02h0.05c0.8-2.07,2.55-3.3,4.87-3.2v1.58c-2.85-0.15-4.8,1.95-4.8,4.62v6.87h-1.57V61.5z"
		/>
	<path class="st0" d="M410.13,56.55h1.58v17.85h-1.58V56.55z"/>
	<path class="st0" d="M414.36,56.55h1.58v2.52h-1.58V56.55z M414.36,61.5h1.58v12.9h-1.58V61.5z"/>
	<path class="st0" d="M423.63,62.82h-2.55v11.57h-1.57V62.82h-2.2V61.5h2.2v-1.17c-0.03-2.22,0.6-3.77,3.12-3.77
		c0.45,0,0.83,0.03,1.32,0.1V58c-0.42-0.07-0.77-0.12-1.15-0.12c-1.75,0-1.7,1.1-1.72,2.5v1.12h2.55V62.82z"/>
	<path class="st0" d="M425.41,68.37c0.02,2.3,1.22,5.07,4.25,5.07c2.3,0,3.55-1.35,4.05-3.3h1.57c-0.67,2.92-2.37,4.62-5.62,4.62
		c-4.1,0-5.82-3.15-5.82-6.82c0-3.4,1.72-6.82,5.82-6.82c4.15,0,5.8,3.62,5.67,7.25H425.41z M433.75,67.05
		c-0.08-2.37-1.55-4.6-4.1-4.6c-2.58,0-4,2.25-4.25,4.6H433.75z"/>
	<path class="st0" d="M443.96,56.55h1.58v2.52h-1.58V56.55z M443.96,61.5h1.58v12.9h-1.58V61.5z"/>
	<path class="st0" d="M448.18,61.5h1.57v2.22h0.05c0.57-1.55,2.3-2.6,4.12-2.6c3.62,0,4.72,1.9,4.72,4.97v8.3h-1.58v-8.05
		c0-2.22-0.72-3.9-3.27-3.9c-2.5,0-4,1.9-4.05,4.42v7.52h-1.57V61.5z"/>
	<path class="st0" d="M468.95,65.27c-0.08-1.95-1.57-2.82-3.37-2.82c-1.4,0-3.05,0.55-3.05,2.22c0,1.4,1.6,1.9,2.67,2.17l2.1,0.47
		c1.8,0.27,3.67,1.32,3.67,3.57c0,2.8-2.77,3.87-5.17,3.87c-3,0-5.05-1.4-5.3-4.55h1.58c0.12,2.12,1.7,3.22,3.8,3.22
		c1.47,0,3.52-0.65,3.52-2.45c0-1.5-1.4-2-2.82-2.35l-2.02-0.45c-2.05-0.55-3.6-1.25-3.6-3.45c0-2.62,2.57-3.62,4.85-3.62
		c2.57,0,4.62,1.35,4.72,4.15H468.95z"/>
	<path class="st0" d="M483.3,74.39h-1.45v-2.32h-0.05c-0.82,1.72-2.52,2.7-4.45,2.7c-3.25,0-4.52-1.9-4.52-4.9V61.5h1.57v8.4
		c0.08,2.32,0.95,3.55,3.45,3.55c2.7,0,3.87-2.55,3.87-5.17V61.5h1.58V74.39z"/>
	<path class="st0" d="M485.93,61.5h1.45v3.02h0.05c0.8-2.07,2.55-3.3,4.87-3.2v1.58c-2.85-0.15-4.8,1.95-4.8,4.62v6.87h-1.57V61.5z"
		/>
	<path class="st0" d="M493.18,65.45c0.15-3.02,2.27-4.32,5.22-4.32c2.27,0,4.75,0.7,4.75,4.15v6.85c0,0.6,0.3,0.95,0.92,0.95
		c0.17,0,0.38-0.05,0.5-0.1v1.33c-0.35,0.07-0.6,0.1-1.03,0.1c-1.6,0-1.85-0.9-1.85-2.25h-0.05c-1.1,1.67-2.22,2.62-4.7,2.62
		c-2.38,0-4.32-1.17-4.32-3.77c0-3.62,3.52-3.75,6.92-4.15c1.3-0.15,2.03-0.33,2.03-1.75c0-2.12-1.53-2.65-3.38-2.65
		c-1.95,0-3.4,0.9-3.45,3H493.18z M501.58,67.35h-0.05c-0.2,0.37-0.9,0.5-1.32,0.57c-2.67,0.48-6,0.45-6,2.97
		c0,1.57,1.4,2.55,2.88,2.55c2.4,0,4.52-1.52,4.5-4.05V67.35z"/>
	<path class="st0" d="M506,61.5h1.57v2.22h0.05c0.57-1.55,2.3-2.6,4.12-2.6c3.62,0,4.72,1.9,4.72,4.97v8.3h-1.58v-8.05
		c0-2.22-0.72-3.9-3.27-3.9c-2.5,0-4,1.9-4.05,4.42v7.52H506V61.5z"/>
	<path class="st0" d="M528.2,65.55c-0.42-1.92-1.6-3.1-3.65-3.1c-3.02,0-4.52,2.75-4.52,5.5s1.5,5.5,4.52,5.5
		c1.95,0,3.55-1.52,3.75-3.67h1.58c-0.43,3.1-2.45,5-5.32,5c-3.95,0-6.1-3.12-6.1-6.82s2.15-6.82,6.1-6.82
		c2.75,0,4.87,1.47,5.22,4.42H528.2z"/>
	<path class="st0" d="M532.73,68.37c0.02,2.3,1.22,5.07,4.25,5.07c2.3,0,3.55-1.35,4.05-3.3h1.57c-0.67,2.92-2.37,4.62-5.62,4.62
		c-4.1,0-5.82-3.15-5.82-6.82c0-3.4,1.72-6.82,5.82-6.82c4.15,0,5.8,3.62,5.67,7.25H532.73z M541.08,67.05
		c-0.08-2.37-1.55-4.6-4.1-4.6c-2.58,0-4,2.25-4.25,4.6H541.08z"/>
	<path class="st0" d="M560.35,65.55c-0.42-1.92-1.6-3.1-3.65-3.1c-3.02,0-4.52,2.75-4.52,5.5s1.5,5.5,4.52,5.5
		c1.95,0,3.55-1.52,3.75-3.67h1.58c-0.43,3.1-2.45,5-5.32,5c-3.95,0-6.1-3.12-6.1-6.82s2.15-6.82,6.1-6.82
		c2.75,0,4.87,1.47,5.22,4.42H560.35z"/>
	<path class="st0" d="M563.88,56.55h1.57v7.17h0.05c0.57-1.55,2.3-2.6,4.12-2.6c3.62,0,4.72,1.9,4.72,4.97v8.3h-1.58v-8.05
		c0-2.22-0.72-3.9-3.27-3.9c-2.5,0-4,1.9-4.05,4.42v7.52h-1.57V56.55z"/>
	<path class="st0" d="M576.8,65.45c0.15-3.02,2.27-4.32,5.22-4.32c2.27,0,4.75,0.7,4.75,4.15v6.85c0,0.6,0.3,0.95,0.92,0.95
		c0.17,0,0.38-0.05,0.5-0.1v1.33c-0.35,0.07-0.6,0.1-1.03,0.1c-1.6,0-1.85-0.9-1.85-2.25h-0.05c-1.1,1.67-2.22,2.62-4.7,2.62
		c-2.38,0-4.32-1.17-4.32-3.77c0-3.62,3.52-3.75,6.92-4.15c1.3-0.15,2.03-0.33,2.03-1.75c0-2.12-1.53-2.65-3.38-2.65
		c-1.95,0-3.4,0.9-3.45,3H576.8z M585.2,67.35h-0.05c-0.2,0.37-0.9,0.5-1.32,0.57c-2.67,0.48-6,0.45-6,2.97
		c0,1.57,1.4,2.55,2.88,2.55c2.4,0,4.52-1.52,4.5-4.05V67.35z"/>
	<path class="st0" d="M589.63,61.5h1.57v2.22h0.05c0.57-1.55,2.3-2.6,4.12-2.6c3.62,0,4.72,1.9,4.72,4.97v8.3h-1.58v-8.05
		c0-2.22-0.72-3.9-3.27-3.9c-2.5,0-4,1.9-4.05,4.42v7.52h-1.57V61.5z"/>
	<path class="st0" d="M613.63,73.34c-0.03,3.85-1.5,6.2-5.72,6.2c-2.58,0-5.12-1.15-5.35-3.9h1.58c0.35,1.9,2.02,2.57,3.77,2.57
		c2.9,0,4.15-1.72,4.15-4.87V71.6H612c-0.72,1.57-2.25,2.65-4.1,2.65c-4.12,0-5.82-2.95-5.82-6.62c0-3.55,2.1-6.5,5.82-6.5
		c1.87,0,3.47,1.17,4.1,2.6h0.05V61.5h1.58V73.34z M612.05,67.8c0-2.52-1.17-5.35-4.15-5.35c-3,0-4.25,2.67-4.25,5.35
		c0,2.6,1.35,5.12,4.25,5.12C610.63,72.92,612.05,70.42,612.05,67.8z"/>
	<path class="st0" d="M616.28,56.55h1.58v2.52h-1.58V56.55z M616.28,61.5h1.58v12.9h-1.58V61.5z"/>
	<path class="st0" d="M620.48,61.5h1.57v2.22h0.05c0.57-1.55,2.3-2.6,4.12-2.6c3.62,0,4.72,1.9,4.72,4.97v8.3h-1.58v-8.05
		c0-2.22-0.72-3.9-3.27-3.9c-2.5,0-4,1.9-4.05,4.42v7.52h-1.57V61.5z"/>
	<path class="st0" d="M644.48,73.34c-0.03,3.85-1.5,6.2-5.72,6.2c-2.58,0-5.12-1.15-5.35-3.9h1.58c0.35,1.9,2.02,2.57,3.77,2.57
		c2.9,0,4.15-1.72,4.15-4.87V71.6h-0.05c-0.72,1.57-2.25,2.65-4.1,2.65c-4.12,0-5.82-2.95-5.82-6.62c0-3.55,2.1-6.5,5.82-6.5
		c1.87,0,3.47,1.17,4.1,2.6h0.05V61.5h1.58V73.34z M642.9,67.8c0-2.52-1.17-5.35-4.15-5.35c-3,0-4.25,2.67-4.25,5.35
		c0,2.6,1.35,5.12,4.25,5.12C641.48,72.92,642.9,70.42,642.9,67.8z"/>
	<path class="st0" d="M649.65,71.75v2.67c-0.02,1.45-0.7,2.97-2.2,3.4v-1.07c0.83-0.3,1.2-1.52,1.15-2.35h-1.05v-2.65H649.65z"/>
	<path class="st0" d="M662.58,61.5h2.62v1.32h-2.62v8.7c0,1.02,0.15,1.62,1.27,1.7c0.45,0,0.9-0.02,1.35-0.08v1.35
		c-0.47,0-0.92,0.05-1.4,0.05c-2.1,0-2.82-0.7-2.8-2.9v-8.82h-2.25V61.5H661v-3.87h1.57V61.5z"/>
	<path class="st0" d="M678,67.95c0,3.7-2.15,6.82-6.1,6.82s-6.1-3.12-6.1-6.82s2.15-6.82,6.1-6.82S678,64.25,678,67.95z
		 M667.38,67.95c0,2.75,1.5,5.5,4.52,5.5s4.52-2.75,4.52-5.5s-1.5-5.5-4.52-5.5S667.38,65.2,667.38,67.95z"/>
	<path class="st0" d="M691.58,67.95c0,3.7-2.15,6.82-6.1,6.82s-6.1-3.12-6.1-6.82s2.15-6.82,6.1-6.82S691.58,64.25,691.58,67.95z
		 M680.95,67.95c0,2.75,1.5,5.5,4.52,5.5s4.52-2.75,4.52-5.5s-1.5-5.5-4.52-5.5S680.95,65.2,680.95,67.95z"/>
	<path class="st0" d="M692.05,62.05c0.03-3.55,2.05-5.87,5.67-5.87c2.77,0,5.07,1.72,5.07,4.62c0,1.85-0.9,3.05-2.17,4.25
		c-2.12,2.12-2.25,1.82-2.33,4.87h-1.57c-0.08-3.07,0.78-3.87,2.87-5.82c0.92-0.87,1.62-1.92,1.62-3.22c0-2-1.62-3.37-3.57-3.37
		c-2.72,0-4.07,1.97-4.02,4.55H692.05z M696.48,71.75h2.1v2.65h-2.1V71.75z"/>
</g>
</svg>
