<?xml version="1.0" encoding="utf-8"?>
<!-- Generator: Adobe Illustrator 24.2.3, SVG Export Plug-In . SVG Version: 6.00 Build 0)  -->
<svg version="1.1" id="Layer_1" xmlns="http://www.w3.org/2000/svg" xmlns:xlink="http://www.w3.org/1999/xlink" x="0px" y="0px"
	 viewBox="0 0 728 90" style="enable-background:new 0 0 728 90;" xml:space="preserve">
<style type="text/css">
	.st0{fill:#FFFFFF;}
</style>
<g>
	<path class="st0" d="M55.52,42.46h-1.47l-0.27-3.9h-0.06c-1.44,3.06-4.32,4.35-7.41,4.35c-6.75,0-10.11-5.31-10.11-11.16
		c0-5.85,3.36-11.16,10.11-11.16c4.5,0,8.16,2.43,8.94,7.11h-2.04c-0.27-2.46-2.82-5.37-6.9-5.37c-5.67,0-8.07,4.74-8.07,9.42
		s2.4,9.42,8.07,9.42c4.74,0,7.5-3.33,7.41-7.86h-7.29v-1.74h9.09V42.46z"/>
	<path class="st0" d="M59.87,35.23c0.03,2.76,1.47,6.09,5.1,6.09c2.76,0,4.26-1.62,4.86-3.96h1.89c-0.81,3.51-2.85,5.55-6.75,5.55
		c-4.92,0-6.99-3.78-6.99-8.19c0-4.08,2.07-8.19,6.99-8.19c4.98,0,6.96,4.35,6.81,8.7H59.87z M69.89,33.64
		c-0.09-2.85-1.86-5.52-4.92-5.52c-3.09,0-4.8,2.7-5.1,5.52H69.89z"/>
	<path class="st0" d="M76.58,26.98h3.15v1.59h-3.15v10.44c0,1.23,0.18,1.95,1.53,2.04c0.54,0,1.08-0.03,1.62-0.09v1.62
		c-0.57,0-1.11,0.06-1.68,0.06c-2.52,0-3.39-0.84-3.36-3.48V28.57h-2.7v-1.59h2.7v-4.65h1.89V26.98z"/>
	<path class="st0" d="M99.53,31.51c-0.09-2.34-1.89-3.39-4.05-3.39c-1.68,0-3.66,0.66-3.66,2.67c0,1.68,1.92,2.28,3.21,2.61
		l2.52,0.57c2.16,0.33,4.41,1.59,4.41,4.29c0,3.36-3.33,4.65-6.21,4.65c-3.6,0-6.06-1.68-6.36-5.46h1.89
		c0.15,2.55,2.04,3.87,4.56,3.87c1.77,0,4.23-0.78,4.23-2.94c0-1.8-1.68-2.4-3.39-2.82l-2.43-0.54c-2.46-0.66-4.32-1.5-4.32-4.14
		c0-3.15,3.09-4.35,5.82-4.35c3.09,0,5.55,1.62,5.67,4.98H99.53z"/>
	<path class="st0" d="M104.24,26.98h1.74v2.94h0.06c0.87-2.1,3.03-3.39,5.52-3.39c4.71,0,6.96,3.81,6.96,8.19s-2.25,8.19-6.96,8.19
		c-2.31,0-4.56-1.17-5.37-3.39h-0.06v8.67h-1.89V26.98z M111.56,28.12c-4.17,0-5.43,3.09-5.43,6.6c0,3.21,1.41,6.6,5.43,6.6
		c3.6,0,5.07-3.39,5.07-6.6S115.16,28.12,111.56,28.12z"/>
	<path class="st0" d="M122.12,35.23c0.03,2.76,1.47,6.09,5.1,6.09c2.76,0,4.26-1.62,4.86-3.96h1.89c-0.81,3.51-2.85,5.55-6.75,5.55
		c-4.92,0-6.99-3.78-6.99-8.19c0-4.08,2.07-8.19,6.99-8.19c4.98,0,6.96,4.35,6.81,8.7H122.12z M132.14,33.64
		c-0.09-2.85-1.86-5.52-4.92-5.52c-3.09,0-4.8,2.7-5.1,5.52H132.14z"/>
	<path class="st0" d="M147.23,31.84c-0.51-2.31-1.92-3.72-4.38-3.72c-3.63,0-5.43,3.3-5.43,6.6s1.8,6.6,5.43,6.6
		c2.34,0,4.26-1.83,4.5-4.41h1.89c-0.51,3.72-2.94,6-6.39,6c-4.74,0-7.32-3.75-7.32-8.19s2.58-8.19,7.32-8.19
		c3.3,0,5.85,1.77,6.27,5.31H147.23z"/>
	<path class="st0" d="M151.43,21.04h1.89v3.03h-1.89V21.04z M151.43,26.98h1.89v15.48h-1.89V26.98z"/>
	<path class="st0" d="M156.32,31.72c0.18-3.63,2.73-5.19,6.27-5.19c2.73,0,5.7,0.84,5.7,4.98v8.22c0,0.72,0.36,1.14,1.11,1.14
		c0.21,0,0.45-0.06,0.6-0.12v1.59c-0.42,0.09-0.72,0.12-1.23,0.12c-1.92,0-2.22-1.08-2.22-2.7h-0.06c-1.32,2.01-2.67,3.15-5.64,3.15
		c-2.85,0-5.19-1.41-5.19-4.53c0-4.35,4.23-4.5,8.31-4.98c1.56-0.18,2.43-0.39,2.43-2.1c0-2.55-1.83-3.18-4.05-3.18
		c-2.34,0-4.08,1.08-4.14,3.6H156.32z M166.4,34h-0.06c-0.24,0.45-1.08,0.6-1.59,0.69c-3.21,0.57-7.2,0.54-7.2,3.57
		c0,1.89,1.68,3.06,3.45,3.06c2.88,0,5.43-1.83,5.4-4.86V34z"/>
	<path class="st0" d="M171.68,21.04h1.89v21.42h-1.89V21.04z"/>
	<path class="st0" d="M198.05,41.2c-0.03,4.62-1.8,7.44-6.87,7.44c-3.09,0-6.15-1.38-6.42-4.68h1.89c0.42,2.28,2.43,3.09,4.53,3.09
		c3.48,0,4.98-2.07,4.98-5.85v-2.1h-0.06c-0.87,1.89-2.7,3.18-4.92,3.18c-4.95,0-6.99-3.54-6.99-7.95c0-4.26,2.52-7.8,6.99-7.8
		c2.25,0,4.17,1.41,4.92,3.12h0.06v-2.67h1.89V41.2z M196.16,34.54c0-3.03-1.41-6.42-4.98-6.42c-3.6,0-5.1,3.21-5.1,6.42
		c0,3.12,1.62,6.15,5.1,6.15C194.45,40.69,196.16,37.69,196.16,34.54z"/>
	<path class="st0" d="M201.17,26.98h1.74v3.63h0.06c0.96-2.49,3.06-3.96,5.85-3.84v1.89c-3.42-0.18-5.76,2.34-5.76,5.55v8.25h-1.89
		V26.98z"/>
	<path class="st0" d="M223.61,34.72c0,4.44-2.58,8.19-7.32,8.19c-4.74,0-7.32-3.75-7.32-8.19s2.58-8.19,7.32-8.19
		C221.03,26.53,223.61,30.28,223.61,34.72z M210.86,34.72c0,3.3,1.8,6.6,5.43,6.6s5.43-3.3,5.43-6.6s-1.8-6.6-5.43-6.6
		S210.86,31.42,210.86,34.72z"/>
	<path class="st0" d="M238.49,42.46h-1.74v-2.79h-0.06c-0.99,2.07-3.03,3.24-5.34,3.24c-3.9,0-5.43-2.28-5.43-5.88V26.98h1.89v10.08
		c0.09,2.79,1.14,4.26,4.14,4.26c3.24,0,4.65-3.06,4.65-6.21v-8.13h1.89V42.46z"/>
	<path class="st0" d="M241.58,26.98h1.74v2.94h0.06c0.87-2.1,3.03-3.39,5.52-3.39c4.71,0,6.96,3.81,6.96,8.19s-2.25,8.19-6.96,8.19
		c-2.31,0-4.56-1.17-5.37-3.39h-0.06v8.67h-1.89V26.98z M248.9,28.12c-4.17,0-5.43,3.09-5.43,6.6c0,3.21,1.41,6.6,5.43,6.6
		c3.6,0,5.07-3.39,5.07-6.6S252.5,28.12,248.9,28.12z"/>
	<path class="st0" d="M266.6,26.98h1.74v3.63h0.06c0.96-2.49,3.06-3.96,5.85-3.84v1.89c-3.42-0.18-5.76,2.34-5.76,5.55v8.25h-1.89
		V26.98z"/>
	<path class="st0" d="M275.24,31.72c0.18-3.63,2.73-5.19,6.27-5.19c2.73,0,5.7,0.84,5.7,4.98v8.22c0,0.72,0.36,1.14,1.11,1.14
		c0.21,0,0.45-0.06,0.6-0.12v1.59c-0.42,0.09-0.72,0.12-1.23,0.12c-1.92,0-2.22-1.08-2.22-2.7h-0.06c-1.32,2.01-2.67,3.15-5.64,3.15
		c-2.85,0-5.19-1.41-5.19-4.53c0-4.35,4.23-4.5,8.31-4.98c1.56-0.18,2.43-0.39,2.43-2.1c0-2.55-1.83-3.18-4.05-3.18
		c-2.34,0-4.08,1.08-4.14,3.6H275.24z M285.31,34h-0.06c-0.24,0.45-1.08,0.6-1.59,0.69c-3.21,0.57-7.2,0.54-7.2,3.57
		c0,1.89,1.68,3.06,3.45,3.06c2.88,0,5.43-1.83,5.4-4.86V34z"/>
	<path class="st0" d="M293.2,26.98h3.15v1.59h-3.15v10.44c0,1.23,0.18,1.95,1.53,2.04c0.54,0,1.08-0.03,1.62-0.09v1.62
		c-0.57,0-1.11,0.06-1.68,0.06c-2.52,0-3.39-0.84-3.36-3.48V28.57h-2.7v-1.59h2.7v-4.65h1.89V26.98z"/>
	<path class="st0" d="M298.99,35.23c0.03,2.76,1.47,6.09,5.1,6.09c2.76,0,4.26-1.62,4.86-3.96h1.89c-0.81,3.51-2.85,5.55-6.75,5.55
		c-4.92,0-6.99-3.78-6.99-8.19c0-4.08,2.07-8.19,6.99-8.19c4.98,0,6.96,4.35,6.81,8.7H298.99z M309.01,33.64
		c-0.09-2.85-1.86-5.52-4.92-5.52c-3.09,0-4.8,2.7-5.1,5.52H309.01z"/>
	<path class="st0" d="M322.42,31.51c-0.09-2.34-1.89-3.39-4.05-3.39c-1.68,0-3.66,0.66-3.66,2.67c0,1.68,1.92,2.28,3.21,2.61
		l2.52,0.57c2.16,0.33,4.41,1.59,4.41,4.29c0,3.36-3.33,4.65-6.21,4.65c-3.6,0-6.06-1.68-6.36-5.46h1.89
		c0.15,2.55,2.04,3.87,4.56,3.87c1.77,0,4.23-0.78,4.23-2.94c0-1.8-1.68-2.4-3.39-2.82l-2.43-0.54c-2.46-0.66-4.32-1.5-4.32-4.14
		c0-3.15,3.09-4.35,5.82-4.35c3.09,0,5.55,1.62,5.67,4.98H322.42z"/>
	<path class="st0" d="M349.24,34.72c0,4.44-2.58,8.19-7.32,8.19c-4.74,0-7.32-3.75-7.32-8.19s2.58-8.19,7.32-8.19
		C346.66,26.53,349.24,30.28,349.24,34.72z M336.49,34.72c0,3.3,1.8,6.6,5.43,6.6s5.43-3.3,5.43-6.6s-1.8-6.6-5.43-6.6
		S336.49,31.42,336.49,34.72z"/>
	<path class="st0" d="M351.58,26.98h1.89v2.67h0.06c0.69-1.86,2.76-3.12,4.95-3.12c4.35,0,5.67,2.28,5.67,5.97v9.96h-1.89V32.8
		c0-2.67-0.87-4.68-3.93-4.68c-3,0-4.8,2.28-4.86,5.31v9.03h-1.89V26.98z"/>
</g>
<g>
	<path class="st0" d="M37.22,51.04h2.04v19.68h12v1.74H37.22V51.04z"/>
	<path class="st0" d="M53.39,65.23c0.03,2.76,1.47,6.09,5.1,6.09c2.76,0,4.26-1.62,4.86-3.96h1.89c-0.81,3.51-2.85,5.55-6.75,5.55
		c-4.92,0-6.99-3.78-6.99-8.19c0-4.08,2.07-8.19,6.99-8.19c4.98,0,6.96,4.35,6.81,8.7H53.39z M63.41,63.64
		c-0.09-2.85-1.86-5.52-4.92-5.52c-3.09,0-4.8,2.7-5.1,5.52H63.41z"/>
	<path class="st0" d="M65.33,56.98h2.1l4.86,13.59h0.06l4.8-13.59h1.95l-5.79,15.48H71.3L65.33,56.98z"/>
	<path class="st0" d="M81.14,65.23c0.03,2.76,1.47,6.09,5.1,6.09c2.76,0,4.26-1.62,4.86-3.96h1.89c-0.81,3.51-2.85,5.55-6.75,5.55
		c-4.92,0-6.99-3.78-6.99-8.19c0-4.08,2.07-8.19,6.99-8.19c4.98,0,6.96,4.35,6.81,8.7H81.14z M91.16,63.64
		c-0.09-2.85-1.86-5.52-4.92-5.52c-3.09,0-4.8,2.7-5.1,5.52H91.16z"/>
	<path class="st0" d="M95.33,51.04h1.89v21.42h-1.89V51.04z"/>
	<path class="st0" d="M106.7,51.04h16.98v1.74h-7.47v19.68h-2.04V52.78h-7.47V51.04z"/>
	<path class="st0" d="M123.17,65.23c0.03,2.76,1.47,6.09,5.1,6.09c2.76,0,4.26-1.62,4.86-3.96h1.89c-0.81,3.51-2.85,5.55-6.75,5.55
		c-4.92,0-6.99-3.78-6.99-8.19c0-4.08,2.07-8.19,6.99-8.19c4.98,0,6.96,4.35,6.81,8.7H123.17z M133.19,63.64
		c-0.09-2.85-1.86-5.52-4.92-5.52c-3.09,0-4.8,2.7-5.1,5.52H133.19z"/>
	<path class="st0" d="M137.3,56.98h1.74v3.63h0.06c0.96-2.49,3.06-3.96,5.85-3.84v1.89c-3.42-0.18-5.76,2.34-5.76,5.55v8.25h-1.89
		V56.98z"/>
	<path class="st0" d="M146.45,56.98h1.74v2.61h0.09c0.99-1.86,2.61-3.06,5.07-3.06c2.04,0,3.87,0.99,4.44,3.03
		c0.93-2.04,2.88-3.03,4.92-3.03c3.39,0,5.13,1.77,5.13,5.43v10.5h-1.89V62.05c0-2.55-0.96-3.93-3.66-3.93c-3.27,0-4.2,2.7-4.2,5.58
		v8.76h-1.89v-10.5c0.03-2.1-0.84-3.84-3.24-3.84c-3.27,0-4.59,2.46-4.62,5.7v8.64h-1.89V56.98z"/>
	<path class="st0" d="M179.57,51.04h2.04v19.68h12v1.74h-14.04V51.04z"/>
	<path class="st0" d="M195.08,51.04h1.89v3.03h-1.89V51.04z M195.08,56.98h1.89v15.48h-1.89V56.98z"/>
	<path class="st0" d="M206.15,58.57h-3.06v13.89h-1.89V58.57h-2.64v-1.59h2.64v-1.41c-0.03-2.67,0.72-4.53,3.75-4.53
		c0.54,0,0.99,0.03,1.59,0.12v1.62c-0.51-0.09-0.93-0.15-1.38-0.15c-2.1,0-2.04,1.32-2.07,3v1.35h3.06V58.57z"/>
	<path class="st0" d="M208.25,65.23c0.03,2.76,1.47,6.09,5.1,6.09c2.76,0,4.26-1.62,4.86-3.96h1.89c-0.81,3.51-2.85,5.55-6.75,5.55
		c-4.92,0-6.99-3.78-6.99-8.19c0-4.08,2.07-8.19,6.99-8.19c4.98,0,6.96,4.35,6.81,8.7H208.25z M218.27,63.64
		c-0.09-2.85-1.86-5.52-4.92-5.52c-3.09,0-4.8,2.7-5.1,5.52H218.27z"/>
	<path class="st0" d="M230.96,51.04H233v21.42h-2.04V51.04z"/>
	<path class="st0" d="M236.48,56.98h1.89v2.67h0.06c0.69-1.86,2.76-3.12,4.95-3.12c4.35,0,5.67,2.28,5.67,5.97v9.96h-1.89V62.8
		c0-2.67-0.87-4.68-3.93-4.68c-3,0-4.8,2.28-4.86,5.31v9.03h-1.89V56.98z"/>
	<path class="st0" d="M261.34,61.51c-0.09-2.34-1.89-3.39-4.05-3.39c-1.68,0-3.66,0.66-3.66,2.67c0,1.68,1.92,2.28,3.21,2.61
		l2.52,0.57c2.16,0.33,4.41,1.59,4.41,4.29c0,3.36-3.33,4.65-6.21,4.65c-3.6,0-6.06-1.68-6.36-5.46h1.89
		c0.15,2.55,2.04,3.87,4.56,3.87c1.77,0,4.23-0.78,4.23-2.94c0-1.8-1.68-2.4-3.39-2.82l-2.43-0.54c-2.46-0.66-4.32-1.5-4.32-4.14
		c0-3.15,3.09-4.35,5.82-4.35c3.09,0,5.55,1.62,5.67,4.98H261.34z"/>
	<path class="st0" d="M278.5,72.46h-1.74v-2.79h-0.06c-0.99,2.07-3.03,3.24-5.34,3.24c-3.9,0-5.43-2.28-5.43-5.88V56.98h1.89v10.08
		c0.09,2.79,1.14,4.26,4.14,4.26c3.24,0,4.65-3.06,4.65-6.21v-8.13h1.89V72.46z"/>
	<path class="st0" d="M281.59,56.98h1.74v3.63h0.06c0.96-2.49,3.06-3.96,5.85-3.84v1.89c-3.42-0.18-5.76,2.34-5.76,5.55v8.25h-1.89
		V56.98z"/>
	<path class="st0" d="M290.23,61.72c0.18-3.63,2.73-5.19,6.27-5.19c2.73,0,5.7,0.84,5.7,4.98v8.22c0,0.72,0.36,1.14,1.11,1.14
		c0.21,0,0.45-0.06,0.6-0.12v1.59c-0.42,0.09-0.72,0.12-1.23,0.12c-1.92,0-2.22-1.08-2.22-2.7h-0.06c-1.32,2.01-2.67,3.15-5.64,3.15
		c-2.85,0-5.19-1.41-5.19-4.53c0-4.35,4.23-4.5,8.31-4.98c1.56-0.18,2.43-0.39,2.43-2.1c0-2.55-1.83-3.18-4.05-3.18
		c-2.34,0-4.08,1.08-4.14,3.6H290.23z M300.31,64h-0.06c-0.24,0.45-1.08,0.6-1.59,0.69c-3.21,0.57-7.2,0.54-7.2,3.57
		c0,1.89,1.68,3.06,3.45,3.06c2.88,0,5.43-1.83,5.4-4.86V64z"/>
	<path class="st0" d="M305.59,56.98h1.89v2.67h0.06c0.69-1.86,2.76-3.12,4.95-3.12c4.35,0,5.67,2.28,5.67,5.97v9.96h-1.89V62.8
		c0-2.67-0.87-4.68-3.93-4.68c-3,0-4.8,2.28-4.86,5.31v9.03h-1.89V56.98z"/>
	<path class="st0" d="M332.17,61.84c-0.51-2.31-1.92-3.72-4.38-3.72c-3.63,0-5.43,3.3-5.43,6.6s1.8,6.6,5.43,6.6
		c2.34,0,4.26-1.83,4.5-4.41h1.89c-0.51,3.72-2.94,6-6.39,6c-4.74,0-7.32-3.75-7.32-8.19c0-4.44,2.58-8.19,7.32-8.19
		c3.3,0,5.85,1.77,6.27,5.31H332.17z"/>
	<path class="st0" d="M337.54,65.23c0.03,2.76,1.47,6.09,5.1,6.09c2.76,0,4.26-1.62,4.86-3.96h1.89c-0.81,3.51-2.85,5.55-6.75,5.55
		c-4.92,0-6.99-3.78-6.99-8.19c0-4.08,2.07-8.19,6.99-8.19c4.98,0,6.96,4.35,6.81,8.7H337.54z M347.56,63.64
		c-0.09-2.85-1.86-5.52-4.92-5.52c-3.09,0-4.8,2.7-5.1,5.52H347.56z"/>
	<path class="st0" d="M352.03,72.46v-3.18h2.52v3.18H352.03z"/>
</g>
</svg>
