<?xml version="1.0" encoding="utf-8"?>
<!-- Generator: Adobe Illustrator 24.2.3, SVG Export Plug-In . SVG Version: 6.00 Build 0)  -->
<svg version="1.1" id="Layer_1" xmlns="http://www.w3.org/2000/svg" xmlns:xlink="http://www.w3.org/1999/xlink" x="0px" y="0px"
	 viewBox="0 0 728 90" style="enable-background:new 0 0 728 90;" xml:space="preserve">
<style type="text/css">
	.st0{fill:#FFFFFF;}
</style>
<g>
	<path class="st0" d="M339.96,32.55l-7.02-10.5h2.02l5.87,9.05l5.85-9.05h2.02l-7.05,10.5v7.35h-1.7V32.55z"/>
	<path class="st0" d="M358.91,33.45c0,3.7-2.15,6.82-6.1,6.82s-6.1-3.12-6.1-6.82c0-3.7,2.15-6.82,6.1-6.82
		S358.91,29.75,358.91,33.45z M348.28,33.45c0,2.75,1.5,5.5,4.52,5.5s4.52-2.75,4.52-5.5c0-2.75-1.5-5.5-4.52-5.5
		S348.28,30.7,348.28,33.45z"/>
	<path class="st0" d="M371.33,39.9h-1.45v-2.32h-0.05c-0.82,1.72-2.52,2.7-4.45,2.7c-3.25,0-4.52-1.9-4.52-4.9V27h1.57v8.4
		c0.08,2.32,0.95,3.55,3.45,3.55c2.7,0,3.87-2.55,3.87-5.17V27h1.58V39.9z"/>
	<path class="st0" d="M373.96,27h1.45v3.02h0.05c0.8-2.07,2.55-3.3,4.87-3.2v1.57c-2.85-0.15-4.8,1.95-4.8,4.62v6.87h-1.57V27z"/>
	<path class="st0" d="M388.36,22.05h1.58V39.9h-1.58V22.05z"/>
	<path class="st0" d="M392.58,22.05h1.58v2.52h-1.58V22.05z M392.58,27h1.58v12.9h-1.58V27z"/>
	<path class="st0" d="M401.86,28.32h-2.55V39.9h-1.57V28.32h-2.2V27h2.2v-1.17c-0.03-2.22,0.6-3.77,3.12-3.77
		c0.45,0,0.83,0.02,1.33,0.1v1.35c-0.43-0.08-0.78-0.12-1.15-0.12c-1.75,0-1.7,1.1-1.72,2.5V27h2.55V28.32z"/>
	<path class="st0" d="M403.63,33.87c0.02,2.3,1.22,5.07,4.25,5.07c2.3,0,3.55-1.35,4.05-3.3h1.57c-0.67,2.92-2.37,4.62-5.62,4.62
		c-4.1,0-5.82-3.15-5.82-6.82c0-3.4,1.72-6.82,5.82-6.82c4.15,0,5.8,3.62,5.67,7.25H403.63z M411.98,32.55
		c-0.08-2.37-1.55-4.6-4.1-4.6c-2.58,0-4,2.25-4.25,4.6H411.98z"/>
	<path class="st0" d="M422.18,22.05h1.58v2.52h-1.58V22.05z M422.18,27h1.58v12.9h-1.58V27z"/>
	<path class="st0" d="M434.16,30.77c-0.08-1.95-1.57-2.82-3.37-2.82c-1.4,0-3.05,0.55-3.05,2.22c0,1.4,1.6,1.9,2.67,2.17l2.1,0.48
		c1.8,0.27,3.67,1.32,3.67,3.57c0,2.8-2.77,3.87-5.17,3.87c-3,0-5.05-1.4-5.3-4.55h1.58c0.12,2.12,1.7,3.22,3.8,3.22
		c1.47,0,3.52-0.65,3.52-2.45c0-1.5-1.4-2-2.82-2.35l-2.02-0.45c-2.05-0.55-3.6-1.25-3.6-3.45c0-2.62,2.57-3.62,4.85-3.62
		c2.57,0,4.62,1.35,4.72,4.15H434.16z"/>
	<path class="st0" d="M454.05,31.05c-0.42-1.92-1.6-3.1-3.65-3.1c-3.02,0-4.52,2.75-4.52,5.5c0,2.75,1.5,5.5,4.52,5.5
		c1.95,0,3.55-1.52,3.75-3.67h1.58c-0.43,3.1-2.45,5-5.32,5c-3.95,0-6.1-3.12-6.1-6.82c0-3.7,2.15-6.82,6.1-6.82
		c2.75,0,4.87,1.47,5.22,4.42H454.05z"/>
	<path class="st0" d="M457.61,22.05h1.57v7.17h0.05c0.57-1.55,2.3-2.6,4.12-2.6c3.62,0,4.72,1.9,4.72,4.97v8.3h-1.58v-8.05
		c0-2.22-0.72-3.9-3.27-3.9c-2.5,0-4,1.9-4.05,4.42v7.52h-1.57V22.05z"/>
	<path class="st0" d="M470.53,30.95c0.15-3.02,2.27-4.32,5.22-4.32c2.27,0,4.75,0.7,4.75,4.15v6.85c0,0.6,0.3,0.95,0.92,0.95
		c0.17,0,0.38-0.05,0.5-0.1v1.32c-0.35,0.08-0.6,0.1-1.03,0.1c-1.6,0-1.85-0.9-1.85-2.25H479c-1.1,1.67-2.22,2.62-4.7,2.62
		c-2.38,0-4.32-1.17-4.32-3.77c0-3.62,3.52-3.75,6.92-4.15c1.3-0.15,2.03-0.32,2.03-1.75c0-2.12-1.53-2.65-3.38-2.65
		c-1.95,0-3.4,0.9-3.45,3H470.53z M478.93,32.85h-0.05c-0.2,0.38-0.9,0.5-1.32,0.57c-2.67,0.48-6,0.45-6,2.97
		c0,1.57,1.4,2.55,2.88,2.55c2.4,0,4.52-1.52,4.5-4.05V32.85z"/>
	<path class="st0" d="M483.36,27h1.57v2.22h0.05c0.57-1.55,2.3-2.6,4.12-2.6c3.62,0,4.72,1.9,4.72,4.97v8.3h-1.58v-8.05
		c0-2.22-0.72-3.9-3.27-3.9c-2.5,0-4,1.9-4.05,4.42v7.52h-1.57V27z"/>
	<path class="st0" d="M507.35,38.85c-0.03,3.85-1.5,6.2-5.72,6.2c-2.58,0-5.12-1.15-5.35-3.9h1.58c0.35,1.9,2.02,2.57,3.77,2.57
		c2.9,0,4.15-1.72,4.15-4.87V37.1h-0.05c-0.72,1.57-2.25,2.65-4.1,2.65c-4.12,0-5.82-2.95-5.82-6.62c0-3.55,2.1-6.5,5.82-6.5
		c1.87,0,3.47,1.17,4.1,2.6h0.05V27h1.58V38.85z M505.78,33.3c0-2.52-1.17-5.35-4.15-5.35c-3,0-4.25,2.67-4.25,5.35
		c0,2.6,1.35,5.12,4.25,5.12C504.35,38.42,505.78,35.92,505.78,33.3z"/>
	<path class="st0" d="M510.01,22.05h1.58v2.52h-1.58V22.05z M510.01,27h1.58v12.9h-1.58V27z"/>
	<path class="st0" d="M514.21,27h1.57v2.22h0.05c0.57-1.55,2.3-2.6,4.12-2.6c3.62,0,4.72,1.9,4.72,4.97v8.3h-1.58v-8.05
		c0-2.22-0.72-3.9-3.27-3.9c-2.5,0-4,1.9-4.05,4.42v7.52h-1.57V27z"/>
	<path class="st0" d="M538.2,38.85c-0.03,3.85-1.5,6.2-5.72,6.2c-2.58,0-5.12-1.15-5.35-3.9h1.58c0.35,1.9,2.02,2.57,3.77,2.57
		c2.9,0,4.15-1.72,4.15-4.87V37.1h-0.05c-0.72,1.57-2.25,2.65-4.1,2.65c-4.12,0-5.82-2.95-5.82-6.62c0-3.55,2.1-6.5,5.82-6.5
		c1.87,0,3.47,1.17,4.1,2.6h0.05V27h1.58V38.85z M536.63,33.3c0-2.52-1.17-5.35-4.15-5.35c-3,0-4.25,2.67-4.25,5.35
		c0,2.6,1.35,5.12,4.25,5.12C535.2,38.42,536.63,35.92,536.63,33.3z"/>
	<path class="st0" d="M541.28,39.9v-2.65h2.1v2.65H541.28z"/>
</g>
</svg>
