<svg id="Layer_1" xmlns="http://www.w3.org/2000/svg" viewBox="0 0 300 250"><style>.st0{fill:#fff}</style><path class="st0" d="M21.06 39.87h8.91V66.4h15.94v7.66H21.06V39.87zm35.91 6.22h-8.14v-6.23h8.14v6.23zm-8.14 3.12h8.14v24.85h-8.14V49.21zm14.41 5.26h-3.93V49.2h3.93c0-7.13 2.49-9.34 9.43-9.34 1.29 0 2.63.1 3.93.14v5.75c-.77-.1-1.48-.14-2.2-.14-1.87 0-3.02.24-3.02 2.49v1.1h4.88v5.27h-4.88v19.58h-8.14V54.47zm21.65 9.15c.14 3.4 2.11 5.65 5.55 5.65 1.96 0 3.88-.91 4.64-2.73h7.61c-1.48 5.75-6.8 8.24-12.35 8.24-8.09 0-13.6-4.88-13.6-13.22 0-7.61 6.08-13.07 13.41-13.07 8.91 0 13.36 6.7 12.98 15.13H84.89zm10.1-4.55c-.14-2.78-2.11-5.07-4.84-5.07-2.87 0-4.79 2.06-5.27 5.08h10.11zm42.61-.77c-.05-2.11-1.92-3.59-3.97-3.59-4.55 0-5.27 3.88-5.27 7.33 0 3.21 1.39 6.51 4.84 6.51 2.83 0 4.26-1.63 4.64-4.26h7.9c-.72 6.66-5.89 10.49-12.5 10.49-7.47 0-13.02-5.12-13.02-12.74 0-7.9 5.03-13.55 13.02-13.55 6.18 0 11.68 3.26 12.26 9.82h-7.9zm22.07-9.81c7.71 0 13.12 5.7 13.12 13.17s-5.41 13.12-13.12 13.12-13.07-5.65-13.07-13.12 5.36-13.17 13.07-13.17zm0 20.06c3.78 0 4.98-3.73 4.98-6.9s-1.2-6.94-4.98-6.94c-3.78 0-4.93 3.78-4.93 6.94s1.15 6.9 4.93 6.9zm16.09-19.34h7.9v3.4h.1c1.48-2.49 4.12-4.12 7.13-4.12 3.11 0 5.89 1.01 7.23 4.02 1.96-2.63 4.41-4.02 7.76-4.02 7.9 0 8.76 5.98 8.76 10.73v14.84h-8.14v-14.6c0-2.68-1.29-4.26-3.4-4.26-3.5 0-3.83 2.68-3.83 6.7v12.16h-8.14V59.93c0-2.92-.86-4.74-3.06-4.74-2.92 0-4.17 1.68-4.17 6.75v12.11h-8.14V49.21zm50.12 14.41c.14 3.4 2.11 5.65 5.55 5.65 1.96 0 3.88-.91 4.64-2.73h7.61c-1.48 5.75-6.8 8.24-12.35 8.24-8.09 0-13.6-4.88-13.6-13.22 0-7.61 6.08-13.07 13.41-13.07 8.91 0 13.36 6.7 12.98 15.13h-18.24zm10.11-4.55c-.14-2.78-2.11-5.08-4.84-5.08-2.87 0-4.79 2.06-5.27 5.08h10.11zm17.09 6.8c0 1.25.53 2.15 1.34 2.78.77.57 1.87.86 3.02.86 1.58 0 3.83-.67 3.83-2.63 0-1.92-2.54-2.3-3.97-2.63-5.12-1.29-11.54-1.44-11.54-8.14 0-5.99 6.46-7.61 11.35-7.61 5.46 0 11.16 1.58 11.44 8.04h-7.52c0-1.05-.38-1.72-1.05-2.15-.67-.43-1.58-.62-2.58-.62-1.34 0-3.5.14-3.5 1.87 0 2.35 5.46 2.78 9.19 3.59 5.03 1.01 6.32 4.64 6.32 6.7 0 6.66-6.32 8.86-11.92 8.86-5.89 0-11.92-1.96-12.16-8.91h7.75zM20.39 100.49c.14-3.26 1.68-5.36 3.88-6.66 2.2-1.25 5.08-1.72 7.9-1.72 5.89 0 11.59 1.29 11.59 8.33v10.87c0 2.11 0 4.4.96 6.37h-8.19c-.29-.77-.38-1.53-.48-2.35-2.11 2.2-5.22 3.06-8.19 3.06-4.74 0-8.48-2.39-8.48-7.52 0-8.09 8.81-7.47 14.46-8.62 1.39-.29 2.15-.77 2.15-2.3 0-1.87-2.25-2.59-3.93-2.59-2.25 0-3.69 1.01-4.07 3.11h-7.6zm10.54 12.88c3.88 0 5.17-2.2 4.98-7.33-1.15.72-3.26.86-5.03 1.34-1.82.43-3.35 1.2-3.35 3.16 0 2.01 1.58 2.83 3.4 2.83zm31.5-15.28H57.4v11.3c0 1.96 1.15 2.39 2.92 2.39.67 0 1.39-.1 2.11-.1v5.99c-1.48.05-2.97.24-4.45.24-6.94 0-8.71-2.01-8.71-8.76V98.09h-4.12v-5.27h4.12V85.3h8.14v7.52h5.03v5.27zm31.41 21.79c-1.96 5.46-4.88 6.13-10.39 6.13h-3.83v-6.61h2.82c1.87 0 3.26-1.05 3.26-2.78 0-1.34-1.58-5.17-2.06-6.51l-6.42-17.29h8.62L90.53 109h.1l4.69-16.18h8.33l-9.81 27.06zm22.26-27.77c7.71 0 13.12 5.7 13.12 13.17s-5.41 13.12-13.12 13.12-13.07-5.65-13.07-13.12 5.36-13.17 13.07-13.17zm0 20.06c3.78 0 4.98-3.73 4.98-6.9s-1.2-6.94-4.98-6.94-4.93 3.78-4.93 6.94 1.15 6.9 4.93 6.9zm40.79 5.5h-7.9v-3.4h-.1c-1.53 2.54-4.69 4.12-7.56 4.12-7.13 0-9.19-4.12-9.19-10.63V92.82h8.14v14.41c0 3.3 1.44 4.45 4.02 4.45 1.77 0 4.45-1.15 4.45-5.55V92.82h8.14v24.85zm21.4-19.58h-3.93v-5.27h3.93c0-7.13 2.49-9.34 9.43-9.34 1.29 0 2.63.1 3.93.14v5.75c-.77-.1-1.48-.14-2.2-.14-1.87 0-3.02.24-3.02 2.49v1.1h4.88v5.27h-4.88v19.58h-8.14V98.09zm14.65 2.4c.14-3.26 1.68-5.36 3.88-6.66 2.2-1.25 5.08-1.72 7.9-1.72 5.89 0 11.59 1.29 11.59 8.33v10.87c0 2.11 0 4.4.96 6.37h-8.19c-.29-.77-.38-1.53-.48-2.35-2.11 2.2-5.22 3.06-8.19 3.06-4.74 0-8.47-2.39-8.47-7.52 0-8.09 8.81-7.47 14.46-8.62 1.39-.29 2.16-.77 2.16-2.3 0-1.87-2.25-2.59-3.93-2.59-2.25 0-3.69 1.01-4.07 3.11h-7.62zm10.54 12.88c3.88 0 5.17-2.2 4.98-7.33-1.15.72-3.26.86-5.03 1.34-1.82.43-3.35 1.2-3.35 3.16 0 2.01 1.58 2.83 3.4 2.83zm22.88-3.88c0 1.25.53 2.15 1.34 2.78.77.57 1.87.86 3.02.86 1.58 0 3.83-.67 3.83-2.63 0-1.92-2.54-2.3-3.97-2.63-5.12-1.29-11.54-1.44-11.54-8.14 0-5.99 6.46-7.61 11.35-7.61 5.46 0 11.16 1.58 11.44 8.04h-7.52c0-1.05-.38-1.72-1.05-2.15-.67-.43-1.58-.62-2.58-.62-1.34 0-3.5.14-3.5 1.87 0 2.35 5.46 2.78 9.19 3.59 5.03 1.01 6.32 4.64 6.32 6.7 0 6.66-6.32 8.86-11.92 8.86-5.89 0-11.92-1.96-12.16-8.91h7.75zm34.33-11.4h-5.03v11.3c0 1.96 1.15 2.39 2.92 2.39.67 0 1.39-.1 2.11-.1v5.99c-1.48.05-2.97.24-4.45.24-6.94 0-8.71-2.01-8.71-8.76V98.09h-4.12v-5.27h4.12V85.3h8.14v7.52h5.03v5.27zm2.97 10.68h8.91v8.91h-8.91v-8.91z"/></svg>