<svg id="Layer_1" xmlns="http://www.w3.org/2000/svg" viewBox="0 0 300 600"><style>.st0{fill:#fff}</style><path class="st0" d="M54.96 122.66H53.1l-.34-4.94h-.08c-1.82 3.88-5.47 5.51-9.38 5.51-8.55 0-12.8-6.73-12.8-14.13s4.26-14.13 12.8-14.13c5.7 0 10.33 3.08 11.32 9h-2.58c-.34-3.12-3.57-6.8-8.74-6.8-7.18 0-10.22 6-10.22 11.93s3.04 11.93 10.22 11.93c6 0 9.5-4.22 9.38-9.95h-9.23v-2.2h11.51v13.78zM60.4 113.5c.04 3.5 1.86 7.71 6.46 7.71 3.5 0 5.4-2.05 6.16-5.02h2.39c-1.03 4.45-3.61 7.03-8.55 7.03-6.23 0-8.85-4.79-8.85-10.37 0-5.17 2.62-10.37 8.85-10.37 6.31 0 8.81 5.51 8.62 11.02H60.4zm12.69-2.02c-.11-3.61-2.36-6.99-6.23-6.99-3.91 0-6.08 3.42-6.46 6.99h12.69zM81.45 103.05h3.99v2.01h-3.99v13.22c0 1.56.23 2.47 1.94 2.58.68 0 1.37-.04 2.05-.11v2.05c-.72 0-1.41.08-2.13.08-3.19 0-4.29-1.06-4.26-4.41v-13.41h-3.42v-2.01h3.42v-5.89h2.39v5.89zM110.48 108.79c-.11-2.96-2.39-4.29-5.13-4.29-2.13 0-4.64.84-4.64 3.38 0 2.13 2.43 2.89 4.07 3.31l3.19.72c2.74.42 5.59 2.01 5.59 5.43 0 4.26-4.22 5.89-7.87 5.89-4.56 0-7.67-2.13-8.05-6.92h2.39c.19 3.23 2.58 4.9 5.78 4.9 2.24 0 5.36-.99 5.36-3.72 0-2.28-2.13-3.04-4.29-3.57l-3.08-.68c-3.12-.84-5.47-1.9-5.47-5.24 0-3.99 3.91-5.51 7.37-5.51 3.91 0 7.03 2.05 7.18 6.31h-2.4zM116.37 103.05h2.2v3.72h.08c1.1-2.66 3.84-4.29 6.99-4.29 5.97 0 8.81 4.83 8.81 10.37 0 5.55-2.85 10.37-8.81 10.37-2.93 0-5.77-1.48-6.8-4.29h-.08v10.98h-2.39v-26.86zm9.27 1.44c-5.28 0-6.88 3.91-6.88 8.36 0 4.07 1.79 8.36 6.88 8.36 4.56 0 6.42-4.29 6.42-8.36s-1.86-8.36-6.42-8.36zM138.94 113.5c.04 3.5 1.86 7.71 6.46 7.71 3.5 0 5.4-2.05 6.16-5.02h2.39c-1.03 4.45-3.61 7.03-8.55 7.03-6.23 0-8.85-4.79-8.85-10.37 0-5.17 2.62-10.37 8.85-10.37 6.31 0 8.82 5.51 8.62 11.02h-15.08zm12.69-2.02c-.11-3.61-2.36-6.99-6.23-6.99-3.91 0-6.08 3.42-6.46 6.99h12.69zM170.63 109.21c-.65-2.93-2.43-4.71-5.55-4.71-4.6 0-6.88 4.18-6.88 8.36s2.28 8.36 6.88 8.36c2.96 0 5.4-2.32 5.7-5.58h2.39c-.65 4.71-3.72 7.6-8.09 7.6-6 0-9.27-4.75-9.27-10.37 0-5.62 3.27-10.37 9.27-10.37 4.18 0 7.41 2.24 7.94 6.72h-2.39zM175.88 95.53h2.39v3.84h-2.39v-3.84zm0 7.52h2.39v19.6h-2.39v-19.6zM182 109.05c.23-4.6 3.46-6.57 7.94-6.57 3.46 0 7.22 1.06 7.22 6.31v10.41c0 .91.46 1.44 1.41 1.44.27 0 .57-.08.76-.15v2.01c-.53.11-.91.15-1.56.15-2.43 0-2.81-1.37-2.81-3.42h-.08c-1.67 2.55-3.38 3.99-7.14 3.99-3.61 0-6.57-1.79-6.57-5.74 0-5.51 5.36-5.7 10.52-6.31 1.98-.23 3.08-.49 3.08-2.66 0-3.23-2.32-4.03-5.13-4.03-2.96 0-5.17 1.37-5.24 4.56H182zm12.76 2.89h-.08c-.3.57-1.37.76-2.01.87-4.07.72-9.12.68-9.12 4.52 0 2.39 2.13 3.88 4.37 3.88 3.65 0 6.88-2.32 6.84-6.15v-3.12zM201.38 95.53h2.39v27.13h-2.39V95.53z"/><g><path class="st0" d="M47.9 159.06c-.04 5.85-2.28 9.42-8.7 9.42-3.91 0-7.79-1.75-8.13-5.93h2.39c.53 2.89 3.08 3.91 5.74 3.91 4.41 0 6.31-2.62 6.31-7.41v-2.66h-.08c-1.1 2.39-3.42 4.03-6.23 4.03-6.27 0-8.85-4.48-8.85-10.07 0-5.4 3.19-9.88 8.85-9.88 2.85 0 5.28 1.79 6.23 3.95h.08v-3.38h2.39v18.02zm-2.4-8.44c0-3.84-1.79-8.13-6.31-8.13-4.56 0-6.46 4.07-6.46 8.13 0 3.95 2.05 7.79 6.46 7.79 4.15 0 6.31-3.8 6.31-7.79zM51.74 141.05h2.2v4.6h.08c1.22-3.15 3.88-5.02 7.41-4.86v2.39c-4.33-.23-7.29 2.96-7.29 7.03v10.45h-2.39v-19.61zM80.08 150.85c0 5.62-3.27 10.37-9.27 10.37s-9.27-4.75-9.27-10.37c0-5.62 3.27-10.37 9.27-10.37s9.27 4.75 9.27 10.37zm-16.15 0c0 4.18 2.28 8.36 6.88 8.36s6.88-4.18 6.88-8.36-2.28-8.36-6.88-8.36-6.88 4.18-6.88 8.36zM98.81 160.66h-2.2v-3.53h-.08c-1.25 2.62-3.84 4.1-6.76 4.1-4.94 0-6.88-2.89-6.88-7.45v-12.73h2.39v12.77c.11 3.53 1.44 5.4 5.24 5.4 4.1 0 5.89-3.88 5.89-7.86v-10.3h2.39v19.6zM102.65 141.05h2.2v3.72h.08c1.1-2.66 3.84-4.29 6.99-4.29 5.97 0 8.81 4.83 8.81 10.37 0 5.55-2.85 10.37-8.81 10.37-2.93 0-5.77-1.48-6.8-4.29h-.08v10.98h-2.39v-26.86zm9.28 1.44c-5.28 0-6.88 3.91-6.88 8.36 0 4.07 1.79 8.36 6.88 8.36 4.56 0 6.42-4.29 6.42-8.36s-1.87-8.36-6.42-8.36zM134.35 141.05h2.2v4.6h.08c1.22-3.15 3.88-5.02 7.41-4.86v2.39c-4.33-.23-7.29 2.96-7.29 7.03v10.45h-2.39v-19.61zM145.21 147.05c.23-4.6 3.46-6.57 7.94-6.57 3.46 0 7.22 1.06 7.22 6.31v10.41c0 .91.46 1.44 1.41 1.44.27 0 .57-.08.76-.15v2.01c-.53.11-.91.15-1.56.15-2.43 0-2.81-1.37-2.81-3.42h-.08c-1.67 2.55-3.38 3.99-7.14 3.99-3.61 0-6.57-1.79-6.57-5.74 0-5.51 5.36-5.7 10.52-6.31 1.98-.23 3.08-.49 3.08-2.66 0-3.23-2.32-4.03-5.13-4.03-2.96 0-5.17 1.37-5.24 4.56h-2.4zm12.77 2.89h-.08c-.3.57-1.37.76-2.01.87-4.07.72-9.12.68-9.12 4.52 0 2.39 2.13 3.88 4.37 3.88 3.65 0 6.88-2.32 6.84-6.15v-3.12zM167.86 141.05h3.99v2.01h-3.99v13.22c0 1.56.23 2.47 1.94 2.58.68 0 1.37-.04 2.05-.11v2.05c-.72 0-1.41.08-2.13.08-3.19 0-4.29-1.06-4.25-4.41v-13.41h-3.42v-2.01h3.42v-5.89h2.39v5.89zM175.12 151.5c.04 3.5 1.86 7.71 6.46 7.71 3.5 0 5.4-2.05 6.16-5.02h2.39c-1.03 4.45-3.61 7.03-8.55 7.03-6.23 0-8.85-4.79-8.85-10.37 0-5.17 2.62-10.37 8.85-10.37 6.31 0 8.81 5.51 8.62 11.02h-15.08zm12.69-2.02c-.11-3.61-2.36-6.99-6.23-6.99-3.91 0-6.08 3.42-6.46 6.99h12.69zM204.72 146.79c-.11-2.96-2.39-4.29-5.13-4.29-2.13 0-4.63.84-4.63 3.38 0 2.13 2.43 2.89 4.06 3.31l3.19.72c2.74.42 5.58 2.01 5.58 5.43 0 4.26-4.22 5.89-7.87 5.89-4.56 0-7.67-2.13-8.05-6.92h2.39c.19 3.23 2.58 4.9 5.78 4.9 2.24 0 5.36-.99 5.36-3.72 0-2.28-2.13-3.04-4.29-3.57l-3.08-.68c-3.12-.84-5.47-1.9-5.47-5.24 0-3.99 3.91-5.51 7.37-5.51 3.91 0 7.03 2.05 7.18 6.31h-2.39zM238.65 150.85c0 5.62-3.27 10.37-9.27 10.37s-9.27-4.75-9.27-10.37c0-5.62 3.27-10.37 9.27-10.37s9.27 4.75 9.27 10.37zm-16.15 0c0 4.18 2.28 8.36 6.88 8.36s6.88-4.18 6.88-8.36-2.28-8.36-6.88-8.36-6.88 4.18-6.88 8.36zM241.54 141.05h2.39v3.38h.08c.87-2.36 3.5-3.95 6.27-3.95 5.51 0 7.18 2.89 7.18 7.56v12.61h-2.39v-12.23c0-3.38-1.1-5.93-4.98-5.93-3.8 0-6.08 2.89-6.15 6.72v11.44h-2.39v-19.6z"/></g><g><path class="st0" d="M31.79 171.53h2.58v24.92h15.2v2.2H31.79v-27.12zM52.19 189.5c.04 3.5 1.86 7.71 6.46 7.71 3.5 0 5.4-2.05 6.16-5.02h2.39c-1.03 4.45-3.61 7.03-8.55 7.03-6.23 0-8.85-4.79-8.85-10.37 0-5.17 2.62-10.37 8.85-10.37 6.31 0 8.81 5.51 8.62 11.02H52.19zm12.69-2.02c-.11-3.61-2.36-6.99-6.23-6.99-3.91 0-6.08 3.42-6.46 6.99h12.69zM67.2 179.05h2.66l6.16 17.21h.08l6.08-17.21h2.47l-7.33 19.6h-2.55l-7.57-19.6zM87.15 189.5c.04 3.5 1.86 7.71 6.46 7.71 3.5 0 5.4-2.05 6.16-5.02h2.39c-1.03 4.45-3.61 7.03-8.55 7.03-6.23 0-8.85-4.79-8.85-10.37 0-5.17 2.62-10.37 8.85-10.37 6.31 0 8.81 5.51 8.62 11.02H87.15zm12.69-2.02c-.11-3.61-2.36-6.99-6.23-6.99-3.91 0-6.08 3.42-6.46 6.99h12.69zM105.01 171.53h2.39v27.13h-2.39v-27.13zM119.38 171.53h21.5v2.2h-9.46v24.92h-2.58v-24.92h-9.46v-2.2zM140.08 189.5c.04 3.5 1.86 7.71 6.46 7.71 3.5 0 5.4-2.05 6.16-5.02h2.39c-1.03 4.45-3.61 7.03-8.55 7.03-6.23 0-8.85-4.79-8.85-10.37 0-5.17 2.62-10.37 8.85-10.37 6.31 0 8.82 5.51 8.62 11.02h-15.08zm12.69-2.02c-.11-3.61-2.36-6.99-6.23-6.99-3.91 0-6.08 3.42-6.46 6.99h12.69zM157.91 179.05h2.2v4.6h.08c1.22-3.15 3.88-5.02 7.41-4.86v2.39c-4.33-.23-7.29 2.96-7.29 7.03v10.45h-2.39v-19.61zM169.42 179.05h2.2v3.31h.11c1.25-2.36 3.3-3.88 6.42-3.88 2.58 0 4.9 1.25 5.62 3.84 1.18-2.58 3.65-3.84 6.23-3.84 4.29 0 6.5 2.24 6.5 6.88v13.3h-2.39v-13.18c0-3.23-1.22-4.98-4.63-4.98-4.14 0-5.32 3.42-5.32 7.07v11.09h-2.39v-13.3c.04-2.66-1.06-4.86-4.1-4.86-4.14 0-5.81 3.12-5.85 7.22v10.94h-2.39v-19.61z"/></g><g><path class="st0" d="M31.79 209.53h2.58v24.92h15.2v2.2H31.79v-27.12zM51.32 209.53h2.39v3.84h-2.39v-3.84zm0 7.52h2.39v19.6h-2.39v-19.6zM65.26 219.06h-3.88v17.59h-2.39v-17.59h-3.34v-2.01h3.34v-1.79c-.04-3.38.91-5.74 4.75-5.74.68 0 1.25.04 2.01.15v2.05c-.65-.11-1.18-.19-1.75-.19-2.66 0-2.58 1.67-2.62 3.8v1.71h3.88v2.02zM67.81 227.5c.04 3.5 1.86 7.71 6.46 7.71 3.5 0 5.4-2.05 6.16-5.02h2.39c-1.03 4.45-3.61 7.03-8.55 7.03-6.23 0-8.85-4.79-8.85-10.37 0-5.17 2.62-10.37 8.85-10.37 6.31 0 8.81 5.51 8.62 11.02H67.81zm12.69-2.02c-.11-3.61-2.36-6.99-6.23-6.99-3.91 0-6.08 3.42-6.46 6.99H80.5zM96.61 209.53h2.58v27.13h-2.58v-27.13zM103.53 217.05h2.39v3.38h.08c.87-2.36 3.5-3.95 6.27-3.95 5.51 0 7.18 2.89 7.18 7.56v12.61h-2.39v-12.23c0-3.38-1.1-5.93-4.98-5.93-3.8 0-6.08 2.89-6.16 6.72v11.44h-2.39v-19.6zM134.95 222.79c-.11-2.96-2.39-4.29-5.13-4.29-2.13 0-4.64.84-4.64 3.38 0 2.13 2.43 2.89 4.07 3.31l3.19.72c2.74.42 5.59 2.01 5.59 5.43 0 4.26-4.22 5.89-7.87 5.89-4.56 0-7.67-2.13-8.05-6.92h2.39c.19 3.23 2.58 4.9 5.78 4.9 2.24 0 5.36-.99 5.36-3.72 0-2.28-2.13-3.04-4.29-3.57l-3.08-.68c-3.12-.84-5.47-1.9-5.47-5.24 0-3.99 3.91-5.51 7.37-5.51 3.91 0 7.03 2.05 7.18 6.31h-2.4zM156.61 236.66h-2.2v-3.53h-.08c-1.25 2.62-3.84 4.1-6.76 4.1-4.94 0-6.88-2.89-6.88-7.45v-12.73h2.39v12.77c.11 3.53 1.44 5.4 5.24 5.4 4.1 0 5.89-3.88 5.89-7.86v-10.3h2.39v19.6zM160.41 217.05h2.2v4.6h.08c1.22-3.15 3.88-5.02 7.41-4.86v2.39c-4.33-.23-7.29 2.96-7.29 7.03v10.45h-2.39v-19.61zM171.32 223.05c.23-4.6 3.46-6.57 7.94-6.57 3.46 0 7.22 1.06 7.22 6.31v10.41c0 .91.46 1.44 1.41 1.44.27 0 .57-.08.76-.15v2.01c-.53.11-.91.15-1.56.15-2.43 0-2.81-1.37-2.81-3.42h-.08c-1.67 2.55-3.38 3.99-7.14 3.99-3.61 0-6.57-1.79-6.57-5.74 0-5.51 5.36-5.7 10.52-6.31 1.98-.23 3.08-.49 3.08-2.66 0-3.23-2.32-4.03-5.13-4.03-2.96 0-5.17 1.37-5.24 4.56h-2.4zm12.76 2.89H184c-.3.57-1.37.76-2.01.87-4.07.72-9.12.68-9.12 4.52 0 2.39 2.13 3.88 4.37 3.88 3.65 0 6.88-2.32 6.84-6.15v-3.12zM190.66 217.05h2.39v3.38h.08c.87-2.36 3.5-3.95 6.27-3.95 5.51 0 7.18 2.89 7.18 7.56v12.61h-2.39v-12.23c0-3.38-1.1-5.93-4.98-5.93-3.8 0-6.08 2.89-6.15 6.72v11.44h-2.39v-19.6zM224.25 223.21c-.65-2.93-2.43-4.71-5.55-4.71-4.6 0-6.88 4.18-6.88 8.36s2.28 8.36 6.88 8.36c2.96 0 5.4-2.32 5.7-5.58h2.39c-.65 4.71-3.72 7.6-8.09 7.6-6 0-9.27-4.75-9.27-10.37 0-5.62 3.27-10.37 9.27-10.37 4.18 0 7.41 2.24 7.94 6.72h-2.39zM230.98 227.5c.04 3.5 1.86 7.71 6.46 7.71 3.5 0 5.4-2.05 6.16-5.02h2.39c-1.03 4.45-3.61 7.03-8.55 7.03-6.23 0-8.85-4.79-8.85-10.37 0-5.17 2.62-10.37 8.85-10.37 6.31 0 8.81 5.51 8.62 11.02h-15.08zm12.69-2.02c-.11-3.61-2.36-6.99-6.23-6.99-3.91 0-6.08 3.42-6.46 6.99h12.69zM249.25 236.66v-4.03h3.19v4.03h-3.19z"/></g></svg>