<svg id="Layer_1" xmlns="http://www.w3.org/2000/svg" viewBox="0 0 300 600"><style>.st0{fill:#ff7f30}.st1{fill:#fff}</style><path class="st0" d="M132.65 516.43h144.08v35.28H132.65z"/><path class="st1" d="M153.98 527.7l5.35 14.31h-3.27l-1.08-3.19h-5.35l-1.12 3.19h-3.17l5.41-14.31h3.23zm.18 8.78l-1.8-5.25h-.04l-1.86 5.25h3.7zM167.03 527.7c.89 0 1.66.13 2.29.39s1.14.6 1.53 1.03c.39.43.68.92.86 1.46s.27 1.12.27 1.7c0 .57-.09 1.14-.27 1.69-.18.55-.47 1.05-.86 1.47-.39.43-.91.77-1.53 1.03s-1.39.39-2.29.39h-3.31v5.13h-3.15V527.7h6.46zm-.86 6.73c.36 0 .71-.03 1.04-.08.33-.05.63-.16.88-.31s.46-.37.61-.65c.15-.28.23-.65.23-1.1s-.08-.82-.23-1.1c-.15-.28-.36-.5-.61-.65a2.42 2.42 0 0 0-.88-.31c-.33-.05-.68-.08-1.04-.08h-2.45v4.29h2.45zM180.4 527.7c.89 0 1.66.13 2.29.39s1.14.6 1.53 1.03c.39.43.68.92.86 1.46s.27 1.12.27 1.7c0 .57-.09 1.14-.27 1.69-.18.55-.47 1.05-.86 1.47-.39.43-.91.77-1.53 1.03s-1.39.39-2.29.39h-3.31v5.13h-3.15V527.7h6.46zm-.86 6.73c.36 0 .71-.03 1.04-.08.33-.05.63-.16.88-.31s.46-.37.61-.65c.15-.28.23-.65.23-1.1s-.08-.82-.23-1.1c-.15-.28-.36-.5-.61-.65a2.42 2.42 0 0 0-.88-.31c-.33-.05-.68-.08-1.04-.08h-2.45v4.29h2.45zM190.46 527.7v11.67h6.98v2.65h-10.12V527.7h3.14zM195.46 527.7h3.53l3.35 5.65 3.33-5.65h3.51l-5.31 8.82v5.49h-3.15v-5.57l-5.26-8.74zM219.07 527.7l5.97 9.6h.04v-9.6h2.95v14.31h-3.15l-5.95-9.58h-.04v9.58h-2.95V527.7h3.13zM230.66 531.94c.32-.92.78-1.71 1.38-2.4s1.34-1.22 2.22-1.6c.88-.39 1.86-.58 2.96-.58 1.11 0 2.1.19 2.97.58.87.39 1.6.92 2.21 1.6s1.06 1.48 1.38 2.4c.32.92.48 1.91.48 2.98 0 1.04-.16 2.01-.48 2.92-.32.9-.78 1.69-1.38 2.36s-1.34 1.19-2.21 1.57c-.87.38-1.86.57-2.97.57-1.1 0-2.08-.19-2.96-.57-.88-.38-1.61-.91-2.22-1.57s-1.06-1.45-1.38-2.36c-.32-.9-.48-1.88-.48-2.92 0-1.08.16-2.07.48-2.98zm2.88 4.73c.14.57.36 1.08.67 1.53.31.45.71.82 1.2 1.09.49.27 1.1.41 1.8.41.71 0 1.31-.14 1.8-.41.49-.27.9-.64 1.2-1.09.31-.46.53-.97.67-1.53.14-.57.21-1.15.21-1.75 0-.63-.07-1.24-.21-1.82-.14-.59-.36-1.11-.67-1.57s-.71-.83-1.2-1.1c-.49-.27-1.1-.41-1.8-.41-.71 0-1.31.14-1.8.41-.49.27-.9.64-1.2 1.1s-.53.99-.67 1.57c-.14.59-.21 1.2-.21 1.82 0 .59.07 1.18.21 1.75zM256.9 542.01l-2.42-9.74h-.04l-2.38 9.74h-3.19l-3.79-14.31h3.15l2.26 9.74h.04l2.49-9.74h2.95l2.45 9.86h.04l2.35-9.86h3.09l-3.85 14.31h-3.15z"/></svg>