<?xml version="1.0" encoding="utf-8"?>
<!-- Generator: Adobe Illustrator 24.2.3, SVG Export Plug-In . SVG Version: 6.00 Build 0)  -->
<svg version="1.1" id="Layer_1" xmlns="http://www.w3.org/2000/svg" xmlns:xlink="http://www.w3.org/1999/xlink" x="0px" y="0px"
	 viewBox="0 0 300 600" style="enable-background:new 0 0 300 600;" xml:space="preserve">
<style type="text/css">
	.st0{fill:#FF7F30;}
	.st1{fill:#FFFFFF;}
</style>
<rect x="132.65" y="519.43" class="st0" width="144.08" height="35.28"/>
<g>
	<path class="st1" d="M153.98,530.7l5.35,14.31h-3.27l-1.08-3.19h-5.35l-1.12,3.19h-3.17l5.41-14.31H153.98z M154.16,539.48
		l-1.8-5.25h-0.04l-1.86,5.25H154.16z"/>
	<path class="st1" d="M167.03,530.7c0.89,0,1.66,0.13,2.29,0.39s1.14,0.6,1.53,1.03c0.39,0.43,0.68,0.92,0.86,1.46
		s0.27,1.12,0.27,1.7c0,0.57-0.09,1.14-0.27,1.69c-0.18,0.55-0.47,1.05-0.86,1.47c-0.39,0.43-0.91,0.77-1.53,1.03
		s-1.39,0.39-2.29,0.39h-3.31v5.13h-3.15V530.7H167.03z M166.17,537.43c0.36,0,0.71-0.03,1.04-0.08c0.33-0.05,0.63-0.16,0.88-0.31
		s0.46-0.37,0.61-0.65c0.15-0.28,0.23-0.65,0.23-1.1s-0.08-0.82-0.23-1.1c-0.15-0.28-0.36-0.5-0.61-0.65
		c-0.25-0.15-0.55-0.26-0.88-0.31c-0.33-0.05-0.68-0.08-1.04-0.08h-2.45v4.29H166.17z"/>
	<path class="st1" d="M180.4,530.7c0.89,0,1.66,0.13,2.29,0.39s1.14,0.6,1.53,1.03c0.39,0.43,0.68,0.92,0.86,1.46
		s0.27,1.12,0.27,1.7c0,0.57-0.09,1.14-0.27,1.69c-0.18,0.55-0.47,1.05-0.86,1.47c-0.39,0.43-0.91,0.77-1.53,1.03
		s-1.39,0.39-2.29,0.39h-3.31v5.13h-3.15V530.7H180.4z M179.54,537.43c0.36,0,0.71-0.03,1.04-0.08c0.33-0.05,0.63-0.16,0.88-0.31
		s0.46-0.37,0.61-0.65c0.15-0.28,0.23-0.65,0.23-1.1s-0.08-0.82-0.23-1.1c-0.15-0.28-0.36-0.5-0.61-0.65
		c-0.25-0.15-0.55-0.26-0.88-0.31c-0.33-0.05-0.68-0.08-1.04-0.08h-2.45v4.29H179.54z"/>
	<path class="st1" d="M190.46,530.7v11.67h6.98v2.65h-10.12V530.7H190.46z"/>
	<path class="st1" d="M195.46,530.7h3.53l3.35,5.65l3.33-5.65h3.51l-5.31,8.82v5.49h-3.15v-5.57L195.46,530.7z"/>
	<path class="st1" d="M219.07,530.7l5.97,9.6h0.04v-9.6h2.95v14.31h-3.15l-5.95-9.58h-0.04v9.58h-2.95V530.7H219.07z"/>
	<path class="st1" d="M230.66,534.94c0.32-0.92,0.78-1.71,1.38-2.4s1.34-1.22,2.22-1.6c0.88-0.39,1.86-0.58,2.96-0.58
		c1.11,0,2.1,0.19,2.97,0.58c0.87,0.39,1.6,0.92,2.21,1.6s1.06,1.48,1.38,2.4c0.32,0.92,0.48,1.91,0.48,2.98
		c0,1.04-0.16,2.01-0.48,2.92c-0.32,0.9-0.78,1.69-1.38,2.36s-1.34,1.19-2.21,1.57c-0.87,0.38-1.86,0.57-2.97,0.57
		c-1.1,0-2.08-0.19-2.96-0.57c-0.88-0.38-1.61-0.91-2.22-1.57s-1.06-1.45-1.38-2.36c-0.32-0.9-0.48-1.88-0.48-2.92
		C230.18,536.84,230.34,535.85,230.66,534.94z M233.54,539.67c0.14,0.57,0.36,1.08,0.67,1.53c0.31,0.45,0.71,0.82,1.2,1.09
		c0.49,0.27,1.1,0.41,1.8,0.41c0.71,0,1.31-0.14,1.8-0.41c0.49-0.27,0.9-0.64,1.2-1.09c0.31-0.46,0.53-0.97,0.67-1.53
		c0.14-0.57,0.21-1.15,0.21-1.75c0-0.63-0.07-1.24-0.21-1.82c-0.14-0.59-0.36-1.11-0.67-1.57s-0.71-0.83-1.2-1.1
		c-0.49-0.27-1.1-0.41-1.8-0.41c-0.71,0-1.31,0.14-1.8,0.41c-0.49,0.27-0.9,0.64-1.2,1.1s-0.53,0.99-0.67,1.57
		c-0.14,0.59-0.21,1.2-0.21,1.82C233.33,538.51,233.4,539.1,233.54,539.67z"/>
	<path class="st1" d="M256.9,545.01l-2.42-9.74h-0.04l-2.38,9.74h-3.19l-3.79-14.31h3.15l2.26,9.74h0.04l2.49-9.74h2.95l2.45,9.86
		h0.04l2.35-9.86h3.09l-3.85,14.31H256.9z"/>
</g>
</svg>
