<?xml version="1.0" encoding="utf-8"?>
<!-- Generator: Adobe Illustrator 24.2.3, SVG Export Plug-In . SVG Version: 6.00 Build 0)  -->
<svg version="1.1" id="Layer_1" xmlns="http://www.w3.org/2000/svg" xmlns:xlink="http://www.w3.org/1999/xlink" x="0px" y="0px"
	 viewBox="0 0 300 600" style="enable-background:new 0 0 300 600;" xml:space="preserve">
<style type="text/css">
	.st0{fill:#FFFFFF;}
</style>
<g>
	<path class="st0" d="M24.12,381.6h2.04v21.42h-2.04V381.6z"/>
	<path class="st0" d="M38.97,392.07c-0.09-2.34-1.89-3.39-4.05-3.39c-1.68,0-3.66,0.66-3.66,2.67c0,1.68,1.92,2.28,3.21,2.61
		l2.52,0.57c2.16,0.33,4.41,1.59,4.41,4.29c0,3.36-3.33,4.65-6.21,4.65c-3.6,0-6.06-1.68-6.36-5.46h1.89
		c0.15,2.55,2.04,3.87,4.56,3.87c1.77,0,4.23-0.78,4.23-2.94c0-1.8-1.68-2.4-3.39-2.82l-2.43-0.54c-2.46-0.66-4.32-1.5-4.32-4.14
		c0-3.15,3.09-4.35,5.82-4.35c3.09,0,5.55,1.62,5.67,4.98H38.97z"/>
	<path class="st0" d="M50.16,387.54h2.01l5.1,13.2l4.77-13.2h1.89l-6.72,17.85c-1.08,2.61-1.71,3.36-4.08,3.36
		c-0.75-0.03-1.14-0.03-1.44-0.15V407c0.45,0.09,0.87,0.15,1.29,0.15c1.68,0,2.07-0.99,2.7-2.43l0.66-1.77L50.16,387.54z"/>
	<path class="st0" d="M78.72,395.28c0,4.44-2.58,8.19-7.32,8.19s-7.32-3.75-7.32-8.19c0-4.44,2.58-8.19,7.32-8.19
		S78.72,390.83,78.72,395.28z M65.97,395.28c0,3.3,1.8,6.6,5.43,6.6s5.43-3.3,5.43-6.6c0-3.3-1.8-6.6-5.43-6.6
		S65.97,391.97,65.97,395.28z"/>
	<path class="st0" d="M93.6,403.01h-1.74v-2.79H91.8c-0.99,2.07-3.03,3.24-5.34,3.24c-3.9,0-5.43-2.28-5.43-5.88v-10.05h1.89v10.08
		c0.09,2.79,1.14,4.26,4.14,4.26c3.24,0,4.65-3.06,4.65-6.21v-8.13h1.89V403.01z"/>
	<path class="st0" d="M96.69,387.54h1.74v3.63h0.06c0.96-2.49,3.06-3.96,5.85-3.84v1.89c-3.42-0.18-5.76,2.34-5.76,5.55v8.25h-1.89
		V387.54z"/>
	<path class="st0" d="M113.91,381.6h1.89v21.42h-1.89V381.6z"/>
	<path class="st0" d="M118.92,381.6h1.89v3.03h-1.89V381.6z M118.92,387.54h1.89v15.48h-1.89V387.54z"/>
	<path class="st0" d="M129.99,389.12h-3.06v13.89h-1.89v-13.89h-2.64v-1.59h2.64v-1.41c-0.03-2.67,0.72-4.53,3.75-4.53
		c0.54,0,0.99,0.03,1.59,0.12v1.62c-0.51-0.09-0.93-0.15-1.38-0.15c-2.1,0-2.04,1.32-2.07,3v1.35h3.06V389.12z"/>
	<path class="st0" d="M132.09,395.79c0.03,2.76,1.47,6.09,5.1,6.09c2.76,0,4.26-1.62,4.86-3.96h1.89c-0.81,3.51-2.85,5.55-6.75,5.55
		c-4.92,0-6.99-3.78-6.99-8.19c0-4.08,2.07-8.19,6.99-8.19c4.98,0,6.96,4.35,6.81,8.7H132.09z M142.11,394.2
		c-0.09-2.85-1.86-5.52-4.92-5.52c-3.09,0-4.8,2.7-5.1,5.52H142.11z"/>
	<path class="st0" d="M154.32,381.6h1.89v3.03h-1.89V381.6z M154.32,387.54h1.89v15.48h-1.89V387.54z"/>
	<path class="st0" d="M159.29,387.54h1.89v2.67h0.06c0.69-1.86,2.76-3.12,4.95-3.12c4.35,0,5.67,2.28,5.67,5.97v9.96h-1.89v-9.66
		c0-2.67-0.87-4.68-3.93-4.68c-3,0-4.8,2.28-4.86,5.31v9.03h-1.89V387.54z"/>
	<path class="st0" d="M184.17,392.07c-0.09-2.34-1.89-3.39-4.05-3.39c-1.68,0-3.66,0.66-3.66,2.67c0,1.68,1.92,2.28,3.21,2.61
		l2.52,0.57c2.16,0.33,4.41,1.59,4.41,4.29c0,3.36-3.33,4.65-6.21,4.65c-3.6,0-6.06-1.68-6.36-5.46h1.89
		c0.15,2.55,2.04,3.87,4.56,3.87c1.77,0,4.23-0.78,4.23-2.94c0-1.8-1.68-2.4-3.39-2.82l-2.43-0.54c-2.46-0.66-4.32-1.5-4.32-4.14
		c0-3.15,3.09-4.35,5.82-4.35c3.09,0,5.55,1.62,5.67,4.98H184.17z"/>
	<path class="st0" d="M201.33,403.01h-1.74v-2.79h-0.06c-0.99,2.07-3.03,3.24-5.34,3.24c-3.9,0-5.43-2.28-5.43-5.88v-10.05h1.89
		v10.08c0.09,2.79,1.14,4.26,4.14,4.26c3.24,0,4.65-3.06,4.65-6.21v-8.13h1.89V403.01z"/>
	<path class="st0" d="M204.41,387.54h1.74v3.63h0.06c0.96-2.49,3.06-3.96,5.85-3.84v1.89c-3.42-0.18-5.76,2.34-5.76,5.55v8.25h-1.89
		V387.54z"/>
	<path class="st0" d="M213.05,392.28c0.18-3.63,2.73-5.19,6.27-5.19c2.73,0,5.7,0.84,5.7,4.98v8.22c0,0.72,0.36,1.14,1.11,1.14
		c0.21,0,0.45-0.06,0.6-0.12v1.59c-0.42,0.09-0.72,0.12-1.23,0.12c-1.92,0-2.22-1.08-2.22-2.7h-0.06c-1.32,2.01-2.67,3.15-5.64,3.15
		c-2.85,0-5.19-1.41-5.19-4.53c0-4.35,4.23-4.5,8.31-4.98c1.56-0.18,2.43-0.39,2.43-2.1c0-2.55-1.83-3.18-4.05-3.18
		c-2.34,0-4.08,1.08-4.14,3.6H213.05z M223.13,394.55h-0.06c-0.24,0.45-1.08,0.6-1.59,0.69c-3.21,0.57-7.2,0.54-7.2,3.57
		c0,1.89,1.68,3.06,3.45,3.06c2.88,0,5.43-1.83,5.4-4.86V394.55z"/>
	<path class="st0" d="M228.41,387.54h1.89v2.67h0.06c0.69-1.86,2.76-3.12,4.95-3.12c4.35,0,5.67,2.28,5.67,5.97v9.96h-1.89v-9.66
		c0-2.67-0.87-4.68-3.93-4.68c-3,0-4.8,2.28-4.86,5.31v9.03h-1.89V387.54z"/>
	<path class="st0" d="M254.99,392.4c-0.51-2.31-1.92-3.72-4.38-3.72c-3.63,0-5.43,3.3-5.43,6.6c0,3.3,1.8,6.6,5.43,6.6
		c2.34,0,4.26-1.83,4.5-4.41H257c-0.51,3.72-2.94,6-6.39,6c-4.74,0-7.32-3.75-7.32-8.19c0-4.44,2.58-8.19,7.32-8.19
		c3.3,0,5.85,1.77,6.27,5.31H254.99z"/>
	<path class="st0" d="M260.36,395.79c0.03,2.76,1.47,6.09,5.1,6.09c2.76,0,4.26-1.62,4.86-3.96h1.89c-0.81,3.51-2.85,5.55-6.75,5.55
		c-4.92,0-6.99-3.78-6.99-8.19c0-4.08,2.07-8.19,6.99-8.19c4.98,0,6.96,4.35,6.81,8.7H260.36z M270.38,394.2
		c-0.09-2.85-1.86-5.52-4.92-5.52c-3.09,0-4.8,2.7-5.1,5.52H270.38z"/>
</g>
<g>
	<path class="st0" d="M34.53,422.4c-0.51-2.31-1.92-3.72-4.38-3.72c-3.63,0-5.43,3.3-5.43,6.6c0,3.3,1.8,6.6,5.43,6.6
		c2.34,0,4.26-1.83,4.5-4.41h1.89c-0.51,3.72-2.94,6-6.39,6c-4.74,0-7.32-3.75-7.32-8.19c0-4.44,2.58-8.19,7.32-8.19
		c3.3,0,5.85,1.77,6.27,5.31H34.53z"/>
	<path class="st0" d="M38.73,411.6h1.89v8.61h0.06c0.69-1.86,2.76-3.12,4.95-3.12c4.35,0,5.67,2.28,5.67,5.97v9.96h-1.89v-9.66
		c0-2.67-0.87-4.68-3.93-4.68c-3,0-4.8,2.28-4.86,5.31v9.03h-1.89V411.6z"/>
	<path class="st0" d="M54.21,422.28c0.18-3.63,2.73-5.19,6.27-5.19c2.73,0,5.7,0.84,5.7,4.98v8.22c0,0.72,0.36,1.14,1.11,1.14
		c0.21,0,0.45-0.06,0.6-0.12v1.59c-0.42,0.09-0.72,0.12-1.23,0.12c-1.92,0-2.22-1.08-2.22-2.7h-0.06c-1.32,2.01-2.67,3.15-5.64,3.15
		c-2.85,0-5.19-1.41-5.19-4.53c0-4.35,4.23-4.5,8.31-4.98c1.56-0.18,2.43-0.39,2.43-2.1c0-2.55-1.83-3.18-4.05-3.18
		c-2.34,0-4.08,1.08-4.14,3.6H54.21z M64.29,424.55h-0.06c-0.24,0.45-1.08,0.6-1.59,0.69c-3.21,0.57-7.2,0.54-7.2,3.57
		c0,1.89,1.68,3.06,3.45,3.06c2.88,0,5.43-1.83,5.4-4.86V424.55z"/>
	<path class="st0" d="M69.57,417.54h1.89v2.67h0.06c0.69-1.86,2.76-3.12,4.95-3.12c4.35,0,5.67,2.28,5.67,5.97v9.96h-1.89v-9.66
		c0-2.67-0.87-4.68-3.93-4.68c-3,0-4.8,2.28-4.86,5.31v9.03h-1.89V417.54z"/>
	<path class="st0" d="M98.31,431.75c-0.03,4.62-1.8,7.44-6.87,7.44c-3.09,0-6.15-1.38-6.42-4.68h1.89c0.42,2.28,2.43,3.09,4.53,3.09
		c3.48,0,4.98-2.07,4.98-5.85v-2.1h-0.06c-0.87,1.89-2.7,3.18-4.92,3.18c-4.95,0-6.99-3.54-6.99-7.95c0-4.26,2.52-7.8,6.99-7.8
		c2.25,0,4.17,1.41,4.92,3.12h0.06v-2.67h1.89V431.75z M96.42,425.09c0-3.03-1.41-6.42-4.98-6.42c-3.6,0-5.1,3.21-5.1,6.42
		c0,3.12,1.62,6.15,5.1,6.15C94.71,431.25,96.42,428.25,96.42,425.09z"/>
	<path class="st0" d="M101.43,411.6h1.89v3.03h-1.89V411.6z M101.43,417.54h1.89v15.48h-1.89V417.54z"/>
	<path class="st0" d="M106.44,417.54h1.89v2.67h0.06c0.69-1.86,2.76-3.12,4.95-3.12c4.35,0,5.67,2.28,5.67,5.97v9.96h-1.89v-9.66
		c0-2.67-0.87-4.68-3.93-4.68c-3,0-4.8,2.28-4.86,5.31v9.03h-1.89V417.54z"/>
	<path class="st0" d="M135.18,431.75c-0.03,4.62-1.8,7.44-6.87,7.44c-3.09,0-6.15-1.38-6.42-4.68h1.89
		c0.42,2.28,2.43,3.09,4.53,3.09c3.48,0,4.98-2.07,4.98-5.85v-2.1h-0.06c-0.87,1.89-2.7,3.18-4.92,3.18c-4.95,0-6.99-3.54-6.99-7.95
		c0-4.26,2.52-7.8,6.99-7.8c2.25,0,4.17,1.41,4.92,3.12h0.06v-2.67h1.89V431.75z M133.29,425.09c0-3.03-1.41-6.42-4.98-6.42
		c-3.6,0-5.1,3.21-5.1,6.42c0,3.12,1.62,6.15,5.1,6.15C131.58,431.25,133.29,428.25,133.29,425.09z"/>
	<path class="st0" d="M141.33,429.83v3.21c-0.03,1.74-0.84,3.57-2.64,4.08v-1.29c0.99-0.36,1.44-1.83,1.38-2.82h-1.26v-3.18H141.33z
		"/>
	<path class="st0" d="M156.78,417.54h3.15v1.59h-3.15v10.44c0,1.23,0.18,1.95,1.53,2.04c0.54,0,1.08-0.03,1.62-0.09v1.62
		c-0.57,0-1.11,0.06-1.68,0.06c-2.52,0-3.39-0.84-3.36-3.48v-10.59h-2.7v-1.59h2.7v-4.65h1.89V417.54z"/>
	<path class="st0" d="M175.23,425.28c0,4.44-2.58,8.19-7.32,8.19c-4.74,0-7.32-3.75-7.32-8.19c0-4.44,2.58-8.19,7.32-8.19
		C172.65,417.08,175.23,420.83,175.23,425.28z M162.48,425.28c0,3.3,1.8,6.6,5.43,6.6s5.43-3.3,5.43-6.6c0-3.3-1.8-6.6-5.43-6.6
		S162.48,421.97,162.48,425.28z"/>
	<path class="st0" d="M191.46,425.28c0,4.44-2.58,8.19-7.32,8.19c-4.74,0-7.32-3.75-7.32-8.19c0-4.44,2.58-8.19,7.32-8.19
		C188.88,417.08,191.46,420.83,191.46,425.28z M178.71,425.28c0,3.3,1.8,6.6,5.43,6.6s5.43-3.3,5.43-6.6c0-3.3-1.8-6.6-5.43-6.6
		S178.71,421.97,178.71,425.28z"/>
	<path class="st0" d="M191.97,418.2c0.03-4.26,2.46-7.05,6.81-7.05c3.33,0,6.09,2.07,6.09,5.55c0,2.22-1.08,3.66-2.61,5.1
		c-2.55,2.55-2.7,2.19-2.79,5.85h-1.89c-0.09-3.69,0.93-4.65,3.45-6.99c1.11-1.05,1.95-2.31,1.95-3.87c0-2.4-1.95-4.05-4.29-4.05
		c-3.27,0-4.89,2.37-4.83,5.46H191.97z M197.28,429.83h2.52v3.18h-2.52V429.83z"/>
</g>
</svg>
