<?xml version="1.0" encoding="utf-8"?>
<!-- Generator: Adobe Illustrator 24.2.3, SVG Export Plug-In . SVG Version: 6.00 Build 0)  -->
<svg version="1.1" id="Layer_1" xmlns="http://www.w3.org/2000/svg" xmlns:xlink="http://www.w3.org/1999/xlink" x="0px" y="0px"
	 viewBox="0 0 300 600" style="enable-background:new 0 0 300 600;" xml:space="preserve">
<style type="text/css">
	.st0{fill:#FFFFFF;}
</style>
<g>
	<path class="st0" d="M29.94,334.2l-8.43-12.6h2.43l7.05,10.86l7.02-10.86h2.43l-8.46,12.6v8.82h-2.04V334.2z"/>
	<path class="st0" d="M52.59,335.28c0,4.44-2.58,8.19-7.32,8.19c-4.74,0-7.32-3.75-7.32-8.19c0-4.44,2.58-8.19,7.32-8.19
		C50.01,327.08,52.59,330.83,52.59,335.28z M39.84,335.28c0,3.3,1.8,6.6,5.43,6.6s5.43-3.3,5.43-6.6c0-3.3-1.8-6.6-5.43-6.6
		S39.84,331.97,39.84,335.28z"/>
	<path class="st0" d="M67.44,343.01H65.7v-2.79h-0.06c-0.99,2.07-3.03,3.24-5.34,3.24c-3.9,0-5.43-2.28-5.43-5.88v-10.05h1.89v10.08
		c0.09,2.79,1.14,4.26,4.14,4.26c3.24,0,4.65-3.06,4.65-6.21v-8.13h1.89V343.01z"/>
	<path class="st0" d="M70.53,327.54h1.74v3.63h0.06c0.96-2.49,3.06-3.96,5.85-3.84v1.89c-3.42-0.18-5.76,2.34-5.76,5.55v8.25h-1.89
		V327.54z"/>
	<path class="st0" d="M87.78,321.6h1.89v21.42h-1.89V321.6z"/>
	<path class="st0" d="M92.79,321.6h1.89v3.03h-1.89V321.6z M92.79,327.54h1.89v15.48h-1.89V327.54z"/>
	<path class="st0" d="M103.86,329.12h-3.06v13.89h-1.89v-13.89h-2.64v-1.59h2.64v-1.41c-0.03-2.67,0.72-4.53,3.75-4.53
		c0.54,0,0.99,0.03,1.59,0.12v1.62c-0.51-0.09-0.93-0.15-1.38-0.15c-2.1,0-2.04,1.32-2.07,3v1.35h3.06V329.12z"/>
	<path class="st0" d="M105.96,335.79c0.03,2.76,1.47,6.09,5.1,6.09c2.76,0,4.26-1.62,4.86-3.96h1.89c-0.81,3.51-2.85,5.55-6.75,5.55
		c-4.92,0-6.99-3.78-6.99-8.19c0-4.08,2.07-8.19,6.99-8.19c4.98,0,6.96,4.35,6.81,8.7H105.96z M115.98,334.2
		c-0.09-2.85-1.86-5.52-4.92-5.52c-3.09,0-4.8,2.7-5.1,5.52H115.98z"/>
	<path class="st0" d="M128.22,321.6h1.89v3.03h-1.89V321.6z M128.22,327.54h1.89v15.48h-1.89V327.54z"/>
	<path class="st0" d="M142.53,332.07c-0.09-2.34-1.89-3.39-4.05-3.39c-1.68,0-3.66,0.66-3.66,2.67c0,1.68,1.92,2.28,3.21,2.61
		l2.52,0.57c2.16,0.33,4.41,1.59,4.41,4.29c0,3.36-3.33,4.65-6.21,4.65c-3.6,0-6.06-1.68-6.36-5.46h1.89
		c0.15,2.55,2.04,3.87,4.56,3.87c1.77,0,4.23-0.78,4.23-2.94c0-1.8-1.68-2.4-3.39-2.82l-2.43-0.54c-2.46-0.66-4.32-1.5-4.32-4.14
		c0-3.15,3.09-4.35,5.82-4.35c3.09,0,5.55,1.62,5.67,4.98H142.53z"/>
	<path class="st0" d="M166.38,332.4c-0.51-2.31-1.92-3.72-4.38-3.72c-3.63,0-5.43,3.3-5.43,6.6c0,3.3,1.8,6.6,5.43,6.6
		c2.34,0,4.26-1.83,4.5-4.41h1.89c-0.51,3.72-2.94,6-6.39,6c-4.74,0-7.32-3.75-7.32-8.19c0-4.44,2.58-8.19,7.32-8.19
		c3.3,0,5.85,1.77,6.27,5.31H166.38z"/>
	<path class="st0" d="M170.58,321.6h1.89v8.61h0.06c0.69-1.86,2.76-3.12,4.95-3.12c4.35,0,5.67,2.28,5.67,5.97v9.96h-1.89v-9.66
		c0-2.67-0.87-4.68-3.93-4.68c-3,0-4.8,2.28-4.86,5.31v9.03h-1.89V321.6z"/>
	<path class="st0" d="M186.06,332.28c0.18-3.63,2.73-5.19,6.27-5.19c2.73,0,5.7,0.84,5.7,4.98v8.22c0,0.72,0.36,1.14,1.11,1.14
		c0.21,0,0.45-0.06,0.6-0.12v1.59c-0.42,0.09-0.72,0.12-1.23,0.12c-1.92,0-2.22-1.08-2.22-2.7h-0.06c-1.32,2.01-2.67,3.15-5.64,3.15
		c-2.85,0-5.19-1.41-5.19-4.53c0-4.35,4.23-4.5,8.31-4.98c1.56-0.18,2.43-0.39,2.43-2.1c0-2.55-1.83-3.18-4.05-3.18
		c-2.34,0-4.08,1.08-4.14,3.6H186.06z M196.13,334.55h-0.06c-0.24,0.45-1.08,0.6-1.59,0.69c-3.21,0.57-7.2,0.54-7.2,3.57
		c0,1.89,1.68,3.06,3.45,3.06c2.88,0,5.43-1.83,5.4-4.86V334.55z"/>
	<path class="st0" d="M201.42,327.54h1.89v2.67h0.06c0.69-1.86,2.76-3.12,4.95-3.12c4.35,0,5.67,2.28,5.67,5.97v9.96h-1.89v-9.66
		c0-2.67-0.87-4.68-3.93-4.68c-3,0-4.8,2.28-4.86,5.31v9.03h-1.89V327.54z"/>
	<path class="st0" d="M230.15,341.75c-0.03,4.62-1.8,7.44-6.87,7.44c-3.09,0-6.15-1.38-6.42-4.68h1.89
		c0.42,2.28,2.43,3.09,4.53,3.09c3.48,0,4.98-2.07,4.98-5.85v-2.1h-0.06c-0.87,1.89-2.7,3.18-4.92,3.18c-4.95,0-6.99-3.54-6.99-7.95
		c0-4.26,2.52-7.8,6.99-7.8c2.25,0,4.17,1.41,4.92,3.12h0.06v-2.67h1.89V341.75z M228.26,335.09c0-3.03-1.41-6.42-4.98-6.42
		c-3.6,0-5.1,3.21-5.1,6.42c0,3.12,1.62,6.15,5.1,6.15C226.55,341.25,228.26,338.25,228.26,335.09z"/>
	<path class="st0" d="M233.28,321.6h1.89v3.03h-1.89V321.6z M233.28,327.54h1.89v15.48h-1.89V327.54z"/>
	<path class="st0" d="M238.28,327.54h1.89v2.67h0.06c0.69-1.86,2.76-3.12,4.95-3.12c4.35,0,5.67,2.28,5.67,5.97v9.96h-1.89v-9.66
		c0-2.67-0.87-4.68-3.93-4.68c-3,0-4.8,2.28-4.86,5.31v9.03h-1.89V327.54z"/>
	<path class="st0" d="M267.02,341.75c-0.03,4.62-1.8,7.44-6.87,7.44c-3.09,0-6.15-1.38-6.42-4.68h1.89
		c0.42,2.28,2.43,3.09,4.53,3.09c3.48,0,4.98-2.07,4.98-5.85v-2.1h-0.06c-0.87,1.89-2.7,3.18-4.92,3.18c-4.95,0-6.99-3.54-6.99-7.95
		c0-4.26,2.52-7.8,6.99-7.8c2.25,0,4.17,1.41,4.92,3.12h0.06v-2.67h1.89V341.75z M265.13,335.09c0-3.03-1.41-6.42-4.98-6.42
		c-3.6,0-5.1,3.21-5.1,6.42c0,3.12,1.62,6.15,5.1,6.15C263.42,341.25,265.13,338.25,265.13,335.09z"/>
	<path class="st0" d="M270.66,343.01v-3.18h2.52v3.18H270.66z"/>
</g>
</svg>
