<?xml version="1.0" encoding="utf-8"?>
<!-- Generator: Adobe Illustrator 24.2.3, SVG Export Plug-In . SVG Version: 6.00 Build 0)  -->
<svg version="1.1" id="Layer_1" xmlns="http://www.w3.org/2000/svg" xmlns:xlink="http://www.w3.org/1999/xlink" x="0px" y="0px"
	 viewBox="0 0 160 600" style="enable-background:new 0 0 160 600;" xml:space="preserve">
<style type="text/css">
	.st0{fill:#FF7F30;}
	.st1{fill:#FFFFFF;}
</style>
<rect x="12.18" y="522.7" class="st0" width="133.82" height="32.77"/>
<g>
	<path class="st1" d="M33.36,533.33h2.74l4.54,12.14h-2.77l-0.92-2.7H32.4l-0.95,2.7h-2.7L33.36,533.33z M33.1,540.78h3.15
		l-1.53-4.45h-0.03L33.1,540.78z"/>
	<path class="st1" d="M41.69,533.33h5.47c3.03,0,4.2,1.92,4.2,3.89s-1.17,3.89-4.2,3.89h-2.8v4.35h-2.67V533.33z M44.36,539.04h2.07
		c1.24,0,2.35-0.27,2.35-1.82s-1.1-1.82-2.35-1.82h-2.07V539.04z"/>
	<path class="st1" d="M53.03,533.33h5.47c3.03,0,4.2,1.92,4.2,3.89s-1.17,3.89-4.2,3.89h-2.8v4.35h-2.67V533.33z M55.69,539.04h2.07
		c1.24,0,2.35-0.27,2.35-1.82s-1.1-1.82-2.35-1.82h-2.07V539.04z"/>
	<path class="st1" d="M64.36,533.33h2.67v9.89h5.92v2.24h-8.58V533.33z"/>
	<path class="st1" d="M75.72,540.74l-4.47-7.41h3.01l2.84,4.79l2.82-4.79h2.97l-4.5,7.48v4.66h-2.67V540.74z"/>
	<path class="st1" d="M88.64,533.33h2.65l5.07,8.14h0.03v-8.14h2.5v12.14h-2.67l-5.05-8.12h-0.03v8.12h-2.5V533.33z"/>
	<path class="st1" d="M106.68,533.04c3.76,0,5.97,2.8,5.97,6.41c0,3.5-2.21,6.31-5.97,6.31s-5.97-2.8-5.97-6.31
		C100.71,535.85,102.92,533.04,106.68,533.04z M106.68,543.51c2.4,0,3.3-2.04,3.3-4.06c0-2.12-0.9-4.16-3.3-4.16s-3.3,2.04-3.3,4.16
		C103.38,541.48,104.28,543.51,106.68,543.51z"/>
	<path class="st1" d="M126.02,545.47h-2.65l-2.06-8.26h-0.03l-2.02,8.26h-2.7l-3.21-12.14h2.67l1.92,8.26h0.03l2.11-8.26h2.5
		l2.07,8.36h0.03l1.99-8.36h2.62L126.02,545.47z"/>
</g>
</svg>
