<svg id="Layer_1" xmlns="http://www.w3.org/2000/svg" viewBox="0 0 300 250"><style>.st0{fill:#fff}</style><path class="st0" d="M42.25 44.25h-1.57l-.29-4.16h-.06c-1.54 3.26-4.61 4.64-7.9 4.64-7.2 0-10.78-5.66-10.78-11.9s3.58-11.9 10.78-11.9c4.8 0 8.7 2.59 9.54 7.58h-2.18c-.29-2.62-3.01-5.73-7.36-5.73-6.05 0-8.61 5.06-8.61 10.05s2.56 10.05 8.61 10.05c5.06 0 8-3.55 7.9-8.38h-7.78v-1.86h9.7v11.61zM46.89 36.54c.03 2.94 1.57 6.5 5.44 6.5 2.94 0 4.54-1.73 5.18-4.22h2.02c-.86 3.74-3.04 5.92-7.2 5.92-5.25 0-7.46-4.03-7.46-8.74 0-4.35 2.21-8.74 7.46-8.74 5.31 0 7.42 4.64 7.26 9.28h-12.7zm10.69-1.7c-.1-3.04-1.98-5.89-5.25-5.89-3.3 0-5.12 2.88-5.44 5.89h10.69zM64.68 27.74h3.36v1.7h-3.36v11.14c0 1.31.19 2.08 1.63 2.18.58 0 1.15-.03 1.73-.1v1.73c-.61 0-1.18.06-1.79.06-2.69 0-3.62-.9-3.58-3.71v-11.3h-2.88v-1.7h2.88v-4.96h2.02v4.96zM89.16 32.57c-.1-2.5-2.02-3.62-4.32-3.62-1.79 0-3.9.7-3.9 2.85 0 1.79 2.05 2.43 3.42 2.78l2.69.61c2.3.35 4.7 1.7 4.7 4.58 0 3.58-3.55 4.96-6.62 4.96-3.84 0-6.46-1.79-6.78-5.82h2.02c.16 2.72 2.18 4.13 4.86 4.13 1.89 0 4.51-.83 4.51-3.14 0-1.92-1.79-2.56-3.62-3.01l-2.59-.58c-2.62-.7-4.61-1.6-4.61-4.42 0-3.36 3.3-4.64 6.21-4.64 3.3 0 5.92 1.73 6.05 5.31h-2.02zM94.22 27.74h1.86v3.14h.06c.93-2.24 3.23-3.62 5.89-3.62 5.02 0 7.42 4.06 7.42 8.74s-2.4 8.74-7.42 8.74c-2.46 0-4.86-1.25-5.73-3.62h-.06v9.25h-2.02V27.74zm7.8 1.21c-4.45 0-5.79 3.3-5.79 7.04 0 3.42 1.5 7.04 5.79 7.04 3.84 0 5.41-3.62 5.41-7.04s-1.57-7.04-5.41-7.04zM113.29 36.54c.03 2.94 1.57 6.5 5.44 6.5 2.94 0 4.54-1.73 5.18-4.22h2.02c-.86 3.74-3.04 5.92-7.2 5.92-5.25 0-7.46-4.03-7.46-8.74 0-4.35 2.21-8.74 7.46-8.74 5.31 0 7.42 4.64 7.26 9.28h-12.7zm10.69-1.7c-.1-3.04-1.98-5.89-5.25-5.89-3.3 0-5.12 2.88-5.44 5.89h10.69zM140.04 32.92c-.54-2.46-2.05-3.97-4.67-3.97-3.87 0-5.79 3.52-5.79 7.04s1.92 7.04 5.79 7.04c2.5 0 4.54-1.95 4.8-4.7h2.02c-.54 3.97-3.14 6.4-6.81 6.4-5.06 0-7.81-4-7.81-8.74s2.75-8.74 7.81-8.74c3.52 0 6.24 1.89 6.69 5.66h-2.03zM144.52 21.4h2.02v3.23h-2.02V21.4zm0 6.34h2.02v16.51h-2.02V27.74zM149.77 32.79c.19-3.87 2.91-5.54 6.69-5.54 2.91 0 6.08.9 6.08 5.31v8.77c0 .77.38 1.22 1.18 1.22.22 0 .48-.06.64-.13v1.7c-.45.1-.77.13-1.31.13-2.05 0-2.37-1.15-2.37-2.88h-.06c-1.41 2.14-2.85 3.36-6.02 3.36-3.04 0-5.54-1.5-5.54-4.83 0-4.64 4.51-4.8 8.86-5.31 1.66-.19 2.59-.42 2.59-2.24 0-2.72-1.95-3.39-4.32-3.39-2.5 0-4.35 1.15-4.42 3.84h-2zm10.75 2.43h-.06c-.26.48-1.15.64-1.7.74-3.42.61-7.68.58-7.68 3.81 0 2.02 1.79 3.26 3.68 3.26 3.07 0 5.79-1.95 5.76-5.18v-2.63zM166.15 21.4h2.02v22.85h-2.02V21.4z"/><g><path class="st0" d="M36.3 75.89c-.03 4.93-1.92 7.94-7.33 7.94-3.3 0-6.56-1.47-6.85-4.99h2.02c.45 2.43 2.59 3.3 4.83 3.3 3.71 0 5.31-2.21 5.31-6.24v-2.24h-.06c-.93 2.02-2.88 3.39-5.25 3.39-5.28 0-7.46-3.78-7.46-8.48 0-4.54 2.69-8.32 7.46-8.32 2.4 0 4.45 1.5 5.25 3.33h.06v-2.85h2.02v15.16zm-2.02-7.1c0-3.23-1.5-6.85-5.31-6.85-3.84 0-5.44 3.42-5.44 6.85 0 3.33 1.73 6.56 5.44 6.56 3.49 0 5.31-3.2 5.31-6.56zM39.62 60.73h1.86v3.87h.06c1.02-2.66 3.26-4.22 6.24-4.1v2.02c-3.65-.19-6.14 2.5-6.14 5.92v8.8h-2.02V60.73zM63.56 68.98c0 4.74-2.75 8.74-7.81 8.74s-7.81-4-7.81-8.74 2.75-8.74 7.81-8.74 7.81 4.01 7.81 8.74zm-13.6 0c0 3.52 1.92 7.04 5.79 7.04s5.79-3.52 5.79-7.04-1.92-7.04-5.79-7.04-5.79 3.52-5.79 7.04zM79.43 77.24h-1.86v-2.98h-.06c-1.06 2.21-3.23 3.46-5.7 3.46-4.16 0-5.79-2.43-5.79-6.27V60.73h2.02v10.75c.1 2.98 1.22 4.54 4.42 4.54 3.46 0 4.96-3.26 4.96-6.62v-8.67h2.02v16.51zM82.73 60.73h1.86v3.14h.06c.93-2.24 3.23-3.62 5.89-3.62 5.02 0 7.42 4.06 7.42 8.74 0 4.67-2.4 8.74-7.42 8.74-2.46 0-4.86-1.25-5.73-3.62h-.06v9.25h-2.02V60.73zm7.81 1.21c-4.45 0-5.79 3.3-5.79 7.04 0 3.42 1.5 7.04 5.79 7.04 3.84 0 5.41-3.62 5.41-7.04s-1.57-7.04-5.41-7.04zM109.38 60.73h1.86v3.87h.06c1.02-2.66 3.26-4.22 6.24-4.1v2.02c-3.65-.19-6.14 2.5-6.14 5.92v8.8h-2.02V60.73zM118.6 65.78c.19-3.87 2.91-5.54 6.69-5.54 2.91 0 6.08.9 6.08 5.31v8.77c0 .77.38 1.22 1.18 1.22.22 0 .48-.06.64-.13v1.7c-.45.1-.77.13-1.31.13-2.05 0-2.37-1.15-2.37-2.88h-.06c-1.41 2.14-2.85 3.36-6.02 3.36-3.04 0-5.54-1.5-5.54-4.83 0-4.64 4.51-4.8 8.86-5.31 1.66-.19 2.59-.42 2.59-2.24 0-2.72-1.95-3.39-4.32-3.39-2.5 0-4.35 1.15-4.42 3.84h-2zm10.75 2.43h-.06c-.26.48-1.15.64-1.7.74-3.42.61-7.68.58-7.68 3.81 0 2.02 1.79 3.26 3.68 3.26 3.07 0 5.79-1.95 5.76-5.18v-2.63zM137.74 60.73h3.36v1.7h-3.36v11.14c0 1.31.19 2.08 1.63 2.18.58 0 1.15-.03 1.73-.1v1.73c-.61 0-1.18.06-1.79.06-2.69 0-3.62-.9-3.58-3.71v-11.3h-2.88v-1.7h2.88v-4.96h2.02v4.96zM143.91 69.53c.03 2.94 1.57 6.5 5.44 6.5 2.94 0 4.54-1.73 5.18-4.22h2.02c-.86 3.74-3.04 5.92-7.2 5.92-5.25 0-7.46-4.03-7.46-8.74 0-4.35 2.21-8.74 7.46-8.74 5.31 0 7.42 4.64 7.26 9.28h-12.7zm10.69-1.7c-.1-3.04-1.98-5.89-5.25-5.89-3.3 0-5.12 2.88-5.44 5.89h10.69zM168.9 65.56c-.1-2.5-2.02-3.62-4.32-3.62-1.79 0-3.9.7-3.9 2.85 0 1.79 2.05 2.43 3.42 2.78l2.69.61c2.3.35 4.7 1.7 4.7 4.58 0 3.58-3.55 4.96-6.62 4.96-3.84 0-6.46-1.79-6.78-5.82h2.02c.16 2.72 2.18 4.13 4.86 4.13 1.89 0 4.51-.83 4.51-3.14 0-1.92-1.79-2.56-3.62-3.01l-2.59-.58c-2.62-.7-4.61-1.6-4.61-4.42 0-3.36 3.29-4.64 6.21-4.64 3.3 0 5.92 1.73 6.05 5.31h-2.02zM197.48 68.98c0 4.74-2.75 8.74-7.81 8.74s-7.81-4-7.81-8.74 2.75-8.74 7.81-8.74 7.81 4.01 7.81 8.74zm-13.6 0c0 3.52 1.92 7.04 5.79 7.04s5.79-3.52 5.79-7.04-1.92-7.04-5.79-7.04-5.79 3.52-5.79 7.04zM199.97 60.73h2.02v2.85h.06c.74-1.98 2.94-3.33 5.28-3.33 4.64 0 6.05 2.43 6.05 6.37v10.62h-2.02v-10.3c0-2.85-.93-4.99-4.19-4.99-3.2 0-5.12 2.43-5.18 5.66v9.63h-2.02V60.73z"/></g><g><path class="st0" d="M22.73 87.38h2.18v20.99h12.8v1.86H22.73V87.38zM39.98 102.52c.03 2.94 1.57 6.5 5.44 6.5 2.94 0 4.54-1.73 5.18-4.22h2.02c-.86 3.74-3.04 5.92-7.2 5.92-5.25 0-7.46-4.03-7.46-8.74 0-4.35 2.21-8.74 7.46-8.74 5.31 0 7.42 4.64 7.26 9.28h-12.7zm10.68-1.7c-.1-3.04-1.98-5.89-5.25-5.89-3.3 0-5.12 2.88-5.44 5.89h10.69zM52.68 93.72h2.24l5.18 14.5h.06l5.12-14.5h2.08l-6.18 16.51h-2.14l-6.36-16.51zM69.54 102.52c.03 2.94 1.57 6.5 5.44 6.5 2.94 0 4.54-1.73 5.18-4.22h2.02c-.86 3.74-3.04 5.92-7.2 5.92-5.25 0-7.46-4.03-7.46-8.74 0-4.35 2.21-8.74 7.46-8.74 5.31 0 7.42 4.64 7.26 9.28h-12.7zm10.69-1.7c-.1-3.04-1.98-5.89-5.25-5.89-3.3 0-5.12 2.88-5.44 5.89h10.69zM84.65 87.38h2.02v22.85h-2.02V87.38zM96.78 87.38h18.11v1.86h-7.97v20.99h-2.18V89.24h-7.97v-1.86zM114.31 102.52c.03 2.94 1.57 6.5 5.44 6.5 2.94 0 4.54-1.73 5.18-4.22h2.02c-.86 3.74-3.04 5.92-7.2 5.92-5.25 0-7.46-4.03-7.46-8.74 0-4.35 2.21-8.74 7.46-8.74 5.31 0 7.42 4.64 7.26 9.28h-12.7zm10.69-1.7c-.1-3.04-1.98-5.89-5.25-5.89-3.3 0-5.12 2.88-5.44 5.89H125zM129.38 93.72h1.86v3.87h.06c1.02-2.66 3.26-4.22 6.24-4.1v2.02c-3.65-.19-6.14 2.5-6.14 5.92v8.8h-2.02V93.72zM139.14 93.72H141v2.78h.1c1.06-1.98 2.78-3.26 5.41-3.26 2.18 0 4.13 1.06 4.74 3.23.99-2.18 3.07-3.23 5.25-3.23 3.62 0 5.47 1.89 5.47 5.79v11.2h-2.02v-11.1c0-2.72-1.02-4.19-3.9-4.19-3.49 0-4.48 2.88-4.48 5.95v9.34h-2.02v-11.2c.03-2.24-.9-4.1-3.46-4.1-3.49 0-4.9 2.62-4.93 6.08v9.22h-2.02V93.72z"/></g><g><path class="st0" d="M22.73 120.38h2.18v20.99h12.8v1.86H22.73v-22.85zM39.24 120.38h2.02v3.23h-2.02v-3.23zm0 6.33h2.02v16.51h-2.02v-16.51zM51.05 128.41h-3.26v14.81h-2.02v-14.81h-2.82v-1.7h2.82v-1.5c-.03-2.85.77-4.83 4-4.83.58 0 1.06.03 1.7.13v1.73c-.54-.1-.99-.16-1.47-.16-2.24 0-2.18 1.41-2.21 3.2v1.44h3.26v1.69zM53.26 135.51c.03 2.94 1.57 6.5 5.44 6.5 2.94 0 4.54-1.73 5.18-4.22h2.02c-.86 3.74-3.04 5.92-7.2 5.92-5.25 0-7.46-4.03-7.46-8.74 0-4.35 2.21-8.73 7.46-8.73 5.31 0 7.42 4.64 7.26 9.28h-12.7zm10.68-1.69c-.1-3.04-1.98-5.89-5.25-5.89-3.3 0-5.12 2.88-5.44 5.89h10.69zM77.51 120.38h2.18v22.85h-2.18v-22.85zM83.4 126.71h2.02v2.85h.06c.74-1.98 2.94-3.33 5.28-3.33 4.64 0 6.05 2.43 6.05 6.37v10.62h-2.02v-10.3c0-2.85-.93-4.99-4.19-4.99-3.2 0-5.12 2.43-5.18 5.66v9.63H83.4v-16.51zM109.93 131.54c-.1-2.5-2.02-3.62-4.32-3.62-1.79 0-3.9.7-3.9 2.85 0 1.79 2.05 2.43 3.42 2.78l2.69.61c2.3.35 4.7 1.7 4.7 4.58 0 3.58-3.55 4.96-6.62 4.96-3.84 0-6.46-1.79-6.78-5.82h2.02c.16 2.72 2.18 4.13 4.86 4.13 1.89 0 4.51-.83 4.51-3.14 0-1.92-1.79-2.56-3.62-3.01l-2.59-.58c-2.62-.7-4.61-1.6-4.61-4.42 0-3.36 3.3-4.64 6.21-4.64 3.3 0 5.92 1.73 6.05 5.31h-2.02zM128.23 143.22h-1.86v-2.98h-.06c-1.06 2.21-3.23 3.46-5.7 3.46-4.16 0-5.79-2.43-5.79-6.27v-10.72h2.02v10.75c.1 2.98 1.22 4.54 4.42 4.54 3.46 0 4.96-3.26 4.96-6.62v-8.67h2.02v16.51zM131.49 126.71h1.86v3.87h.06c1.02-2.66 3.26-4.22 6.24-4.1v2.02c-3.65-.19-6.14 2.5-6.14 5.92v8.8h-2.02v-16.51zM140.74 131.77c.19-3.87 2.91-5.54 6.69-5.54 2.91 0 6.08.9 6.08 5.31v8.77c0 .77.38 1.22 1.18 1.22.22 0 .48-.06.64-.13v1.7c-.45.1-.77.13-1.31.13-2.05 0-2.37-1.15-2.37-2.88h-.06c-1.41 2.14-2.85 3.36-6.02 3.36-3.04 0-5.54-1.5-5.54-4.83 0-4.64 4.51-4.8 8.86-5.31 1.66-.19 2.59-.42 2.59-2.24 0-2.72-1.95-3.39-4.32-3.39-2.5 0-4.35 1.15-4.42 3.84h-2zm10.75 2.43h-.06c-.26.48-1.15.64-1.7.74-3.42.61-7.68.58-7.68 3.81 0 2.02 1.79 3.26 3.68 3.26 3.07 0 5.79-1.95 5.76-5.18v-2.63zM157.09 126.71h2.02v2.85h.06c.74-1.98 2.94-3.33 5.28-3.33 4.64 0 6.05 2.43 6.05 6.37v10.62h-2.02v-10.3c0-2.85-.93-4.99-4.19-4.99-3.2 0-5.12 2.43-5.18 5.66v9.63h-2.02v-16.51zM185.45 131.9c-.54-2.46-2.05-3.97-4.67-3.97-3.87 0-5.79 3.52-5.79 7.04s1.92 7.04 5.79 7.04c2.5 0 4.54-1.95 4.8-4.7h2.02c-.54 3.97-3.14 6.4-6.82 6.4-5.06 0-7.81-4-7.81-8.74s2.75-8.73 7.81-8.73c3.52 0 6.24 1.89 6.69 5.66h-2.02zM191.17 135.51c.03 2.94 1.57 6.5 5.44 6.5 2.94 0 4.54-1.73 5.18-4.22h2.02c-.86 3.74-3.04 5.92-7.2 5.92-5.25 0-7.46-4.03-7.46-8.74 0-4.35 2.21-8.73 7.46-8.73 5.31 0 7.42 4.64 7.26 9.28h-12.7zm10.69-1.69c-.1-3.04-1.98-5.89-5.25-5.89-3.29 0-5.12 2.88-5.44 5.89h10.69zM206.63 143.22v-3.39h2.69v3.39h-2.69z"/></g></svg>