<svg id="Layer_1" xmlns="http://www.w3.org/2000/svg" viewBox="0 0 300 600"><style>.st0{fill:#fff}</style><path class="st0" d="M29.94 334.2l-8.43-12.6h2.43l7.05 10.86 7.02-10.86h2.43l-8.46 12.6v8.82h-2.04v-8.82zM52.59 335.28c0 4.44-2.58 8.19-7.32 8.19s-7.32-3.75-7.32-8.19c0-4.44 2.58-8.19 7.32-8.19 4.74-.01 7.32 3.74 7.32 8.19zm-12.75 0c0 3.3 1.8 6.6 5.43 6.6s5.43-3.3 5.43-6.6-1.8-6.6-5.43-6.6-5.43 3.29-5.43 6.6zM67.44 343.01H65.7v-2.79h-.06c-.99 2.07-3.03 3.24-5.34 3.24-3.9 0-5.43-2.28-5.43-5.88v-10.05h1.89v10.08c.09 2.79 1.14 4.26 4.14 4.26 3.24 0 4.65-3.06 4.65-6.21v-8.13h1.89v15.48zM70.53 327.54h1.74v3.63h.06c.96-2.49 3.06-3.96 5.85-3.84v1.89c-3.42-.18-5.76 2.34-5.76 5.55v8.25h-1.89v-15.48zM87.78 321.6h1.89v21.42h-1.89V321.6zM92.79 321.6h1.89v3.03h-1.89v-3.03zm0 5.94h1.89v15.48h-1.89v-15.48zM103.86 329.12h-3.06v13.89h-1.89v-13.89h-2.64v-1.59h2.64v-1.41c-.03-2.67.72-4.53 3.75-4.53.54 0 .99.03 1.59.12v1.62c-.51-.09-.93-.15-1.38-.15-2.1 0-2.04 1.32-2.07 3v1.35h3.06v1.59zM105.96 335.79c.03 2.76 1.47 6.09 5.1 6.09 2.76 0 4.26-1.62 4.86-3.96h1.89c-.81 3.51-2.85 5.55-6.75 5.55-4.92 0-6.99-3.78-6.99-8.19 0-4.08 2.07-8.19 6.99-8.19 4.98 0 6.96 4.35 6.81 8.7h-11.91zm10.02-1.59c-.09-2.85-1.86-5.52-4.92-5.52-3.09 0-4.8 2.7-5.1 5.52h10.02zM128.22 321.6h1.89v3.03h-1.89v-3.03zm0 5.94h1.89v15.48h-1.89v-15.48zM142.53 332.07c-.09-2.34-1.89-3.39-4.05-3.39-1.68 0-3.66.66-3.66 2.67 0 1.68 1.92 2.28 3.21 2.61l2.52.57c2.16.33 4.41 1.59 4.41 4.29 0 3.36-3.33 4.65-6.21 4.65-3.6 0-6.06-1.68-6.36-5.46h1.89c.15 2.55 2.04 3.87 4.56 3.87 1.77 0 4.23-.78 4.23-2.94 0-1.8-1.68-2.4-3.39-2.82l-2.43-.54c-2.46-.66-4.32-1.5-4.32-4.14 0-3.15 3.09-4.35 5.82-4.35 3.09 0 5.55 1.62 5.67 4.98h-1.89zM166.38 332.4c-.51-2.31-1.92-3.72-4.38-3.72-3.63 0-5.43 3.3-5.43 6.6s1.8 6.6 5.43 6.6c2.34 0 4.26-1.83 4.5-4.41h1.89c-.51 3.72-2.94 6-6.39 6-4.74 0-7.32-3.75-7.32-8.19 0-4.44 2.58-8.19 7.32-8.19 3.3 0 5.85 1.77 6.27 5.31h-1.89zM170.58 321.6h1.89v8.61h.06c.69-1.86 2.76-3.12 4.95-3.12 4.35 0 5.67 2.28 5.67 5.97v9.96h-1.89v-9.66c0-2.67-.87-4.68-3.93-4.68-3 0-4.8 2.28-4.86 5.31v9.03h-1.89V321.6zM186.06 332.28c.18-3.63 2.73-5.19 6.27-5.19 2.73 0 5.7.84 5.7 4.98v8.22c0 .72.36 1.14 1.11 1.14.21 0 .45-.06.6-.12v1.59c-.42.09-.72.12-1.23.12-1.92 0-2.22-1.08-2.22-2.7h-.06c-1.32 2.01-2.67 3.15-5.64 3.15-2.85 0-5.19-1.41-5.19-4.53 0-4.35 4.23-4.5 8.31-4.98 1.56-.18 2.43-.39 2.43-2.1 0-2.55-1.83-3.18-4.05-3.18-2.34 0-4.08 1.08-4.14 3.6h-1.89zm10.07 2.27h-.06c-.24.45-1.08.6-1.59.69-3.21.57-7.2.54-7.2 3.57 0 1.89 1.68 3.06 3.45 3.06 2.88 0 5.43-1.83 5.4-4.86v-2.46zM201.42 327.54h1.89v2.67h.06c.69-1.86 2.76-3.12 4.95-3.12 4.35 0 5.67 2.28 5.67 5.97v9.96h-1.89v-9.66c0-2.67-.87-4.68-3.93-4.68-3 0-4.8 2.28-4.86 5.31v9.03h-1.89v-15.48zM230.15 341.75c-.03 4.62-1.8 7.44-6.87 7.44-3.09 0-6.15-1.38-6.42-4.68h1.89c.42 2.28 2.43 3.09 4.53 3.09 3.48 0 4.98-2.07 4.98-5.85v-2.1h-.06c-.87 1.89-2.7 3.18-4.92 3.18-4.95 0-6.99-3.54-6.99-7.95 0-4.26 2.52-7.8 6.99-7.8 2.25 0 4.17 1.41 4.92 3.12h.06v-2.67h1.89v14.22zm-1.89-6.66c0-3.03-1.41-6.42-4.98-6.42-3.6 0-5.1 3.21-5.1 6.42 0 3.12 1.62 6.15 5.1 6.15 3.27.01 4.98-2.99 4.98-6.15zM233.28 321.6h1.89v3.03h-1.89v-3.03zm0 5.94h1.89v15.48h-1.89v-15.48zM238.28 327.54h1.89v2.67h.06c.69-1.86 2.76-3.12 4.95-3.12 4.35 0 5.67 2.28 5.67 5.97v9.96h-1.89v-9.66c0-2.67-.87-4.68-3.93-4.68-3 0-4.8 2.28-4.86 5.31v9.03h-1.89v-15.48zM267.02 341.75c-.03 4.62-1.8 7.44-6.87 7.44-3.09 0-6.15-1.38-6.42-4.68h1.89c.42 2.28 2.43 3.09 4.53 3.09 3.48 0 4.98-2.07 4.98-5.85v-2.1h-.06c-.87 1.89-2.7 3.18-4.92 3.18-4.95 0-6.99-3.54-6.99-7.95 0-4.26 2.52-7.8 6.99-7.8 2.25 0 4.17 1.41 4.92 3.12h.06v-2.67h1.89v14.22zm-1.89-6.66c0-3.03-1.41-6.42-4.98-6.42-3.6 0-5.1 3.21-5.1 6.42 0 3.12 1.62 6.15 5.1 6.15 3.27.01 4.98-2.99 4.98-6.15zM270.66 343.01v-3.18h2.52v3.18h-2.52z"/></svg>