<svg id="Layer_1" xmlns="http://www.w3.org/2000/svg" viewBox="0 0 300 600"><style>.st0{fill:#ff7f30}.st1{fill:#fff}</style><path class="st0" d="M132.65 529.43h144.08v35.28H132.65z"/><path class="st1" d="M150.75 540.56h3.23l5.35 14.32h-3.27l-1.08-3.19h-5.35l-1.12 3.19h-3.19l5.43-14.32zm-.3 8.78h3.71l-1.8-5.25h-.04l-1.87 5.25zM160.58 540.56h6.46c3.57 0 4.95 2.27 4.95 4.59 0 2.33-1.38 4.59-4.95 4.59h-3.31v5.13h-3.15v-14.31zm3.14 6.74h2.45c1.46 0 2.77-.32 2.77-2.15 0-1.82-1.3-2.15-2.77-2.15h-2.45v4.3zM173.95 540.56h6.46c3.57 0 4.95 2.27 4.95 4.59 0 2.33-1.38 4.59-4.95 4.59h-3.31v5.13h-3.15v-14.31zm3.15 6.74h2.45c1.46 0 2.77-.32 2.77-2.15 0-1.82-1.3-2.15-2.77-2.15h-2.45v4.3zM187.32 540.56h3.15v11.67h6.98v2.65h-10.12v-14.32zM200.71 549.3l-5.27-8.74h3.55l3.35 5.65 3.33-5.65h3.51l-5.31 8.82v5.49h-3.15v-5.57zM215.95 540.56h3.13l5.97 9.6h.04v-9.6h2.95v14.32h-3.15l-5.96-9.58h-.04v9.58h-2.95v-14.32zM237.22 540.22c4.43 0 7.04 3.31 7.04 7.56 0 4.13-2.61 7.44-7.04 7.44s-7.04-3.31-7.04-7.44c0-4.25 2.61-7.56 7.04-7.56zm0 12.35c2.83 0 3.89-2.41 3.89-4.79 0-2.51-1.06-4.91-3.89-4.91s-3.89 2.41-3.89 4.91c0 2.39 1.06 4.79 3.89 4.79zM260.03 554.88h-3.13l-2.43-9.74h-.04l-2.39 9.74h-3.19l-3.79-14.32h3.15l2.27 9.74h.04l2.49-9.74h2.95l2.45 9.86h.04l2.35-9.86h3.09l-3.86 14.32z"/></svg>