<?xml version="1.0" encoding="utf-8"?>
<!-- Generator: Adobe Illustrator 24.2.3, SVG Export Plug-In . SVG Version: 6.00 Build 0)  -->
<svg version="1.1" id="Layer_1" xmlns="http://www.w3.org/2000/svg" xmlns:xlink="http://www.w3.org/1999/xlink" x="0px" y="0px"
	 viewBox="0 0 300 250" style="enable-background:new 0 0 300 250;" xml:space="preserve">
<style type="text/css">
	.st0{fill:#006098;}
</style>
<g>
	<path class="st0" d="M42.11,42.85h-3.6l-0.33-2.34c-1.47,2.07-3.99,2.79-5.97,2.79c-6.48,0-10.68-4.95-10.68-11.16
		c0-6.21,4.2-11.16,10.68-11.16c4.44,0,9.18,2.37,9.69,7.74h-5.58c-0.18-1.83-1.98-2.94-4.23-2.94c-3.6,0-4.98,3.18-4.98,6.36
		c0,3.18,1.38,6.36,4.98,6.36c2.76,0,4.62-1.29,4.92-3.24h-3.9v-4.14h9V42.85z"/>
	<path class="st0" d="M49.52,36.31c0.09,2.13,1.32,3.54,3.48,3.54c1.23,0,2.43-0.57,2.91-1.71h4.77c-0.93,3.6-4.26,5.16-7.74,5.16
		c-5.07,0-8.52-3.06-8.52-8.28c0-4.77,3.81-8.19,8.4-8.19c5.58,0,8.37,4.2,8.13,9.48H49.52z M55.85,33.46
		c-0.09-1.74-1.32-3.18-3.03-3.18c-1.8,0-3,1.29-3.3,3.18H55.85z"/>
	<path class="st0" d="M72.32,30.58h-3.15v7.08c0,1.23,0.72,1.5,1.83,1.5c0.42,0,0.87-0.06,1.32-0.06v3.75
		C71.39,42.88,70.46,43,69.53,43c-4.35,0-5.46-1.26-5.46-5.49v-6.93H61.5v-3.3h2.58v-4.71h5.1v4.71h3.15V30.58z"/>
	<path class="st0" d="M87.44,37.72c0,0.78,0.33,1.35,0.84,1.74c0.48,0.36,1.17,0.54,1.89,0.54c0.99,0,2.4-0.42,2.4-1.65
		c0-1.2-1.59-1.44-2.49-1.65c-3.21-0.81-7.23-0.9-7.23-5.1c0-3.75,4.05-4.77,7.11-4.77c3.42,0,6.99,0.99,7.17,5.04h-4.71
		c0-0.66-0.24-1.08-0.66-1.35s-0.99-0.39-1.62-0.39c-0.84,0-2.19,0.09-2.19,1.17c0,1.47,3.42,1.74,5.76,2.25
		c3.15,0.63,3.96,2.91,3.96,4.2c0,4.17-3.96,5.55-7.47,5.55c-3.69,0-7.47-1.23-7.62-5.58H87.44z"/>
	<path class="st0" d="M99.29,27.28h4.86v1.8h0.06c0.99-1.47,2.49-2.25,4.29-2.25c4.89,0,6.96,4.2,6.96,8.58
		c0,4.05-2.16,7.89-6.57,7.89c-1.92,0-3.39-0.72-4.44-2.13h-0.06v6.9h-5.1V27.28z M104.21,34.9c0,2.73,0.78,4.5,3.09,4.5
		c2.28,0,3.06-2.37,3.06-4.5c0-1.98-0.78-4.17-3.03-4.17C105.95,30.73,104.21,31.69,104.21,34.9z"/>
	<path class="st0" d="M122.15,36.31c0.09,2.13,1.32,3.54,3.48,3.54c1.23,0,2.43-0.57,2.91-1.71h4.77c-0.93,3.6-4.26,5.16-7.74,5.16
		c-5.07,0-8.52-3.06-8.52-8.28c0-4.77,3.81-8.19,8.4-8.19c5.58,0,8.37,4.2,8.13,9.48H122.15z M128.48,33.46
		c-0.09-1.74-1.32-3.18-3.03-3.18c-1.8,0-3,1.29-3.3,3.18H128.48z"/>
	<path class="st0" d="M145.85,32.98c-0.03-1.32-1.2-2.25-2.49-2.25c-2.85,0-3.3,2.43-3.3,4.59c0,2.01,0.87,4.08,3.03,4.08
		c1.77,0,2.67-1.02,2.91-2.67h4.95c-0.45,4.17-3.69,6.57-7.83,6.57c-4.68,0-8.16-3.21-8.16-7.98c0-4.95,3.15-8.49,8.16-8.49
		c3.87,0,7.32,2.04,7.68,6.15H145.85z"/>
	<path class="st0" d="M157.91,25.33h-5.1v-3.9h5.1V25.33z M152.81,27.28h5.1v15.57h-5.1V27.28z"/>
	<path class="st0" d="M160.49,32.08c0.09-2.04,1.05-3.36,2.43-4.17c1.38-0.78,3.18-1.08,4.95-1.08c3.69,0,7.26,0.81,7.26,5.22v6.81
		c0,1.32,0,2.76,0.6,3.99h-5.13c-0.18-0.48-0.24-0.96-0.3-1.47c-1.32,1.38-3.27,1.92-5.13,1.92c-2.97,0-5.31-1.5-5.31-4.71
		c0-5.07,5.52-4.68,9.06-5.4c0.87-0.18,1.35-0.48,1.35-1.44c0-1.17-1.41-1.62-2.46-1.62c-1.41,0-2.31,0.63-2.55,1.95H160.49z
		 M167.09,40.15c2.43,0,3.24-1.38,3.12-4.59c-0.72,0.45-2.04,0.54-3.15,0.84c-1.14,0.27-2.1,0.75-2.1,1.98
		C164.96,39.64,165.95,40.15,167.09,40.15z"/>
	<path class="st0" d="M177.92,21.43h5.1v21.42h-5.1V21.43z"/>
</g>
<g>
	<path class="st0" d="M37.19,70.96c0,2.55-0.48,7.35-7.77,7.35c-3.63,0-7.05-0.81-7.65-4.98h5.1c0.12,0.69,0.39,1.11,0.87,1.35
		c0.45,0.24,1.08,0.33,1.86,0.33c2.43,0,2.67-1.71,2.67-3.63v-1.47h-0.06c-0.93,1.44-2.49,2.28-4.14,2.28
		c-4.71,0-6.84-3.36-6.84-7.74c0-4.14,2.43-7.62,6.84-7.62c1.86,0,3.27,0.81,4.17,2.4h0.06v-1.95h4.89V70.96z M29.3,60.73
		c-2.25,0-2.97,1.98-2.97,3.9c0,1.83,0.84,3.66,2.94,3.66c2.16,0,3.09-1.68,3.09-3.63C32.36,62.68,31.58,60.73,29.3,60.73z"/>
	<path class="st0" d="M39.9,57.28h4.95v2.73h0.06c0.75-1.98,2.49-3.03,4.68-3.03c0.39,0,0.81,0.03,1.2,0.12v4.65
		c-0.66-0.18-1.26-0.3-1.95-0.3c-2.52,0-3.84,1.74-3.84,3.69v7.71h-5.1V57.28z"/>
	<path class="st0" d="M59.12,56.83c4.83,0,8.22,3.57,8.22,8.25c0,4.68-3.39,8.22-8.22,8.22c-4.83,0-8.19-3.54-8.19-8.22
		C50.94,60.4,54.29,56.83,59.12,56.83z M59.12,69.4c2.37,0,3.12-2.34,3.12-4.32s-0.75-4.35-3.12-4.35c-2.37,0-3.09,2.37-3.09,4.35
		S56.75,69.4,59.12,69.4z"/>
	<path class="st0" d="M84.86,72.85h-4.95v-2.13h-0.06c-0.96,1.59-2.94,2.58-4.74,2.58c-4.47,0-5.76-2.58-5.76-6.66v-9.36h5.1v9.03
		c0,2.07,0.9,2.79,2.52,2.79c1.11,0,2.79-0.72,2.79-3.48v-8.34h5.1V72.85z"/>
	<path class="st0" d="M87.53,57.28h4.86v1.8h0.06c0.99-1.47,2.49-2.25,4.29-2.25c4.89,0,6.96,4.2,6.96,8.58
		c0,4.05-2.16,7.89-6.57,7.89c-1.92,0-3.39-0.72-4.44-2.13h-0.06v6.9h-5.1V57.28z M92.45,64.9c0,2.73,0.78,4.5,3.09,4.5
		c2.28,0,3.06-2.37,3.06-4.5c0-1.98-0.78-4.17-3.03-4.17C94.19,60.73,92.45,61.69,92.45,64.9z"/>
	<path class="st0" d="M115.52,57.28h4.95v2.73h0.06c0.75-1.98,2.49-3.03,4.68-3.03c0.39,0,0.81,0.03,1.2,0.12v4.65
		c-0.66-0.18-1.26-0.3-1.95-0.3c-2.52,0-3.84,1.74-3.84,3.69v7.71h-5.1V57.28z"/>
	<path class="st0" d="M127.31,62.08c0.09-2.04,1.05-3.36,2.43-4.17c1.38-0.78,3.18-1.08,4.95-1.08c3.69,0,7.26,0.81,7.26,5.22v6.81
		c0,1.32,0,2.76,0.6,3.99h-5.13c-0.18-0.48-0.24-0.96-0.3-1.47c-1.32,1.38-3.27,1.92-5.13,1.92c-2.97,0-5.31-1.5-5.31-4.71
		c0-5.07,5.52-4.68,9.06-5.4c0.87-0.18,1.35-0.48,1.35-1.44c0-1.17-1.41-1.62-2.46-1.62c-1.41,0-2.31,0.63-2.55,1.95H127.31z
		 M133.91,70.15c2.43,0,3.24-1.38,3.12-4.59c-0.72,0.45-2.04,0.54-3.15,0.84c-1.14,0.27-2.1,0.75-2.1,1.98
		C131.78,69.64,132.77,70.15,133.91,70.15z"/>
	<path class="st0" d="M153.8,60.58h-3.15v7.08c0,1.23,0.72,1.5,1.83,1.5c0.42,0,0.87-0.06,1.32-0.06v3.75
		c-0.93,0.03-1.86,0.15-2.79,0.15c-4.35,0-5.46-1.26-5.46-5.49v-6.93h-2.58v-3.3h2.58v-4.71h5.1v4.71h3.15V60.58z"/>
	<path class="st0" d="M159.47,66.31c0.09,2.13,1.32,3.54,3.48,3.54c1.23,0,2.43-0.57,2.91-1.71h4.77c-0.93,3.6-4.26,5.16-7.74,5.16
		c-5.07,0-8.52-3.06-8.52-8.28c0-4.77,3.81-8.19,8.4-8.19c5.58,0,8.37,4.2,8.13,9.48H159.47z M165.8,63.46
		c-0.09-1.74-1.32-3.18-3.03-3.18c-1.8,0-3,1.29-3.3,3.18H165.8z"/>
	<path class="st0" d="M176.66,67.72c0,0.78,0.33,1.35,0.84,1.74c0.48,0.36,1.17,0.54,1.89,0.54c0.99,0,2.4-0.42,2.4-1.65
		c0-1.2-1.59-1.44-2.49-1.65c-3.21-0.81-7.23-0.9-7.23-5.1c0-3.75,4.05-4.77,7.11-4.77c3.42,0,6.99,0.99,7.17,5.04h-4.71
		c0-0.66-0.24-1.08-0.66-1.35s-0.99-0.39-1.62-0.39c-0.84,0-2.19,0.09-2.19,1.17c0,1.47,3.42,1.74,5.76,2.25
		c3.15,0.63,3.96,2.91,3.96,4.2c0,4.17-3.96,5.55-7.47,5.55c-3.69,0-7.47-1.23-7.62-5.58H176.66z"/>
</g>
<g>
	<path class="st0" d="M29.57,86.83c4.83,0,8.22,3.57,8.22,8.25c0,4.68-3.39,8.22-8.22,8.22c-4.83,0-8.19-3.54-8.19-8.22
		C21.39,90.4,24.75,86.83,29.57,86.83z M29.57,99.4c2.37,0,3.12-2.34,3.12-4.32s-0.75-4.35-3.12-4.35c-2.37,0-3.09,2.37-3.09,4.35
		S27.21,99.4,29.57,99.4z"/>
	<path class="st0" d="M39.83,87.28h4.95v2.13h0.06c0.93-1.59,3.03-2.58,4.89-2.58c5.19,0,5.61,3.78,5.61,6.03v9.99h-5.1v-7.53
		c0-2.13,0.24-4.29-2.55-4.29c-1.92,0-2.76,1.62-2.76,3.33v8.49h-5.1V87.28z"/>
	<path class="st0" d="M67.82,81.43h5.58v16.62h9.99v4.8H67.82V81.43z"/>
	<path class="st0" d="M89.48,96.31c0.09,2.13,1.32,3.54,3.48,3.54c1.23,0,2.43-0.57,2.91-1.71h4.77c-0.93,3.6-4.26,5.16-7.74,5.16
		c-5.07,0-8.52-3.06-8.52-8.28c0-4.77,3.81-8.19,8.4-8.19c5.58,0,8.37,4.2,8.13,9.48H89.48z M95.81,93.46
		c-0.09-1.74-1.32-3.18-3.03-3.18c-1.8,0-3,1.29-3.3,3.18H95.81z"/>
	<path class="st0" d="M111.86,102.85h-5.88l-5.19-15.57h5.31l2.85,10.29h0.06l2.88-10.29h5.19L111.86,102.85z"/>
	<path class="st0" d="M122.03,96.31c0.09,2.13,1.32,3.54,3.48,3.54c1.23,0,2.43-0.57,2.91-1.71h4.77c-0.93,3.6-4.26,5.16-7.74,5.16
		c-5.07,0-8.52-3.06-8.52-8.28c0-4.77,3.81-8.19,8.4-8.19c5.58,0,8.37,4.2,8.13,9.48H122.03z M128.36,93.46
		c-0.09-1.74-1.32-3.18-3.03-3.18c-1.8,0-3,1.29-3.3,3.18H128.36z"/>
	<path class="st0" d="M135.62,81.43h5.1v21.42h-5.1V81.43z"/>
	<path class="st0" d="M170.42,86.23h-6.39v16.62h-5.58V86.23h-6.39v-4.8h18.36V86.23z"/>
	<path class="st0" d="M174.35,96.31c0.09,2.13,1.32,3.54,3.48,3.54c1.23,0,2.43-0.57,2.91-1.71h4.77c-0.93,3.6-4.26,5.16-7.74,5.16
		c-5.07,0-8.52-3.06-8.52-8.28c0-4.77,3.81-8.19,8.4-8.19c5.58,0,8.37,4.2,8.13,9.48H174.35z M180.68,93.46
		c-0.09-1.74-1.32-3.18-3.03-3.18c-1.8,0-3,1.29-3.3,3.18H180.68z"/>
	<path class="st0" d="M187.85,87.28h4.95v2.73h0.06c0.75-1.98,2.49-3.03,4.68-3.03c0.39,0,0.81,0.03,1.2,0.12v4.65
		c-0.66-0.18-1.26-0.3-1.95-0.3c-2.52,0-3.84,1.74-3.84,3.69v7.71h-5.1V87.28z"/>
	<path class="st0" d="M199.88,87.28h4.95v2.13h0.06c0.93-1.56,2.58-2.58,4.47-2.58c1.95,0,3.69,0.63,4.53,2.52
		c1.23-1.65,2.76-2.52,4.86-2.52c4.95,0,5.49,3.75,5.49,6.72v9.3h-5.1V93.7c0-1.68-0.81-2.67-2.13-2.67c-2.19,0-2.4,1.68-2.4,4.2
		v7.62h-5.1V94c0-1.83-0.54-2.97-1.92-2.97c-1.83,0-2.61,1.05-2.61,4.23v7.59h-5.1V87.28z"/>
</g>
<g>
	<path class="st0" d="M22.35,111.43h5.58v16.62h9.99v4.8H22.35V111.43z"/>
	<path class="st0" d="M44.99,115.33h-5.1v-3.9h5.1V115.33z M39.9,117.28h5.1v15.57h-5.1V117.28z"/>
	<path class="st0" d="M49.07,120.58h-2.46v-3.3h2.46c0-4.47,1.56-5.85,5.91-5.85c0.81,0,1.65,0.06,2.46,0.09v3.6
		c-0.48-0.06-0.93-0.09-1.38-0.09c-1.17,0-1.89,0.15-1.89,1.56v0.69h3.06v3.3h-3.06v12.27h-5.1V120.58z"/>
	<path class="st0" d="M62.78,126.31c0.09,2.13,1.32,3.54,3.48,3.54c1.23,0,2.43-0.57,2.91-1.71h4.77c-0.93,3.6-4.26,5.16-7.74,5.16
		c-5.07,0-8.52-3.06-8.52-8.28c0-4.77,3.81-8.19,8.4-8.19c5.58,0,8.37,4.2,8.13,9.48H62.78z M69.11,123.46
		c-0.09-1.74-1.32-3.18-3.03-3.18c-1.8,0-3,1.29-3.3,3.18H69.11z"/>
	<path class="st0" d="M85.88,111.43h5.58v21.42h-5.58V111.43z"/>
	<path class="st0" d="M94.4,117.28h4.95v2.13h0.06c0.93-1.59,3.03-2.58,4.89-2.58c5.19,0,5.61,3.78,5.61,6.03v9.99h-5.1v-7.53
		c0-2.13,0.24-4.29-2.55-4.29c-1.92,0-2.76,1.62-2.76,3.33v8.49h-5.1V117.28z"/>
	<path class="st0" d="M116.36,127.72c0,0.78,0.33,1.35,0.84,1.74c0.48,0.36,1.17,0.54,1.89,0.54c0.99,0,2.4-0.42,2.4-1.65
		c0-1.2-1.59-1.44-2.49-1.65c-3.21-0.81-7.23-0.9-7.23-5.1c0-3.75,4.05-4.77,7.11-4.77c3.42,0,6.99,0.99,7.17,5.04h-4.71
		c0-0.66-0.24-1.08-0.66-1.35s-0.99-0.39-1.62-0.39c-0.84,0-2.19,0.09-2.19,1.17c0,1.47,3.42,1.74,5.76,2.25
		c3.15,0.63,3.96,2.91,3.96,4.2c0,4.17-3.96,5.55-7.47,5.55c-3.69,0-7.47-1.23-7.62-5.58H116.36z"/>
	<path class="st0" d="M143.63,132.85h-4.95v-2.13h-0.06c-0.96,1.59-2.94,2.58-4.74,2.58c-4.47,0-5.76-2.58-5.76-6.66v-9.36h5.1v9.03
		c0,2.07,0.9,2.79,2.52,2.79c1.11,0,2.79-0.72,2.79-3.48v-8.34h5.1V132.85z"/>
	<path class="st0" d="M146.45,117.28h4.95v2.73h0.06c0.75-1.98,2.49-3.03,4.68-3.03c0.39,0,0.81,0.03,1.2,0.12v4.65
		c-0.66-0.18-1.26-0.3-1.95-0.3c-2.52,0-3.84,1.74-3.84,3.69v7.71h-5.1V117.28z"/>
	<path class="st0" d="M158.24,122.08c0.09-2.04,1.05-3.36,2.43-4.17c1.38-0.78,3.18-1.08,4.95-1.08c3.69,0,7.26,0.81,7.26,5.22v6.81
		c0,1.32,0,2.76,0.6,3.99h-5.13c-0.18-0.48-0.24-0.96-0.3-1.47c-1.32,1.38-3.27,1.92-5.13,1.92c-2.97,0-5.31-1.5-5.31-4.71
		c0-5.07,5.52-4.68,9.06-5.4c0.87-0.18,1.35-0.48,1.35-1.44c0-1.17-1.41-1.62-2.46-1.62c-1.41,0-2.31,0.63-2.55,1.95H158.24z
		 M164.84,130.15c2.43,0,3.24-1.38,3.12-4.59c-0.72,0.45-2.04,0.54-3.15,0.84c-1.14,0.27-2.1,0.75-2.1,1.98
		C162.71,129.64,163.7,130.15,164.84,130.15z"/>
	<path class="st0" d="M175.49,117.28h4.95v2.13h0.06c0.93-1.59,3.03-2.58,4.89-2.58c5.19,0,5.61,3.78,5.61,6.03v9.99h-5.1v-7.53
		c0-2.13,0.24-4.29-2.55-4.29c-1.92,0-2.76,1.62-2.76,3.33v8.49h-5.1V117.28z"/>
	<path class="st0" d="M203.9,122.98c-0.03-1.32-1.2-2.25-2.49-2.25c-2.85,0-3.3,2.43-3.3,4.59c0,2.01,0.87,4.08,3.03,4.08
		c1.77,0,2.67-1.02,2.91-2.67H209c-0.45,4.17-3.69,6.57-7.83,6.57c-4.68,0-8.16-3.21-8.16-7.98c0-4.95,3.15-8.49,8.16-8.49
		c3.87,0,7.32,2.04,7.68,6.15H203.9z"/>
	<path class="st0" d="M214.85,126.31c0.09,2.13,1.32,3.54,3.48,3.54c1.23,0,2.43-0.57,2.91-1.71h4.77c-0.93,3.6-4.26,5.16-7.74,5.16
		c-5.07,0-8.52-3.06-8.52-8.28c0-4.77,3.81-8.19,8.4-8.19c5.58,0,8.37,4.2,8.13,9.48H214.85z M221.18,123.46
		c-0.09-1.74-1.32-3.18-3.03-3.18c-1.8,0-3,1.29-3.3,3.18H221.18z"/>
	<path class="st0" d="M228.2,127.27h5.58v5.58h-5.58V127.27z"/>
</g>
</svg>
