<?xml version="1.0" encoding="utf-8"?>
<!-- Generator: Adobe Illustrator 24.2.3, SVG Export Plug-In . SVG Version: 6.00 Build 0)  -->
<svg version="1.1" id="Layer_1" xmlns="http://www.w3.org/2000/svg" xmlns:xlink="http://www.w3.org/1999/xlink" x="0px" y="0px"
	 viewBox="0 0 300 250" style="enable-background:new 0 0 300 250;" xml:space="preserve">
<style type="text/css">
	.st0{fill:#FFFFFF;}
</style>
<g>
	<path class="st0" d="M21.06,39.87h8.91V66.4h15.94v7.66H21.06V39.87z"/>
	<path class="st0" d="M56.97,46.09h-8.14v-6.23h8.14V46.09z M48.83,49.21h8.14v24.85h-8.14V49.21z"/>
	<path class="st0" d="M63.24,54.47h-3.93v-5.27h3.93c0-7.13,2.49-9.34,9.43-9.34c1.29,0,2.63,0.1,3.93,0.14v5.75
		c-0.77-0.1-1.48-0.14-2.2-0.14c-1.87,0-3.02,0.24-3.02,2.49v1.1h4.88v5.27h-4.88v19.58h-8.14V54.47z"/>
	<path class="st0" d="M84.89,63.62c0.14,3.4,2.11,5.65,5.55,5.65c1.96,0,3.88-0.91,4.64-2.73h7.61c-1.48,5.75-6.8,8.24-12.35,8.24
		c-8.09,0-13.6-4.88-13.6-13.22c0-7.61,6.08-13.07,13.41-13.07c8.91,0,13.36,6.7,12.98,15.13H84.89z M94.99,59.07
		C94.85,56.29,92.88,54,90.15,54c-2.87,0-4.79,2.06-5.27,5.08H94.99z"/>
	<path class="st0" d="M137.6,58.3c-0.05-2.11-1.92-3.59-3.97-3.59c-4.55,0-5.27,3.88-5.27,7.33c0,3.21,1.39,6.51,4.84,6.51
		c2.83,0,4.26-1.63,4.64-4.26h7.9c-0.72,6.66-5.89,10.49-12.5,10.49c-7.47,0-13.02-5.12-13.02-12.74c0-7.9,5.03-13.55,13.02-13.55
		c6.18,0,11.68,3.26,12.26,9.82H137.6z"/>
	<path class="st0" d="M159.67,48.49c7.71,0,13.12,5.7,13.12,13.17s-5.41,13.12-13.12,13.12s-13.07-5.65-13.07-13.12
		S151.96,48.49,159.67,48.49z M159.67,68.55c3.78,0,4.98-3.73,4.98-6.9s-1.2-6.94-4.98-6.94c-3.78,0-4.93,3.78-4.93,6.94
		S155.89,68.55,159.67,68.55z"/>
	<path class="st0" d="M175.76,49.21h7.9v3.4h0.1c1.48-2.49,4.12-4.12,7.13-4.12c3.11,0,5.89,1.01,7.23,4.02
		c1.96-2.63,4.41-4.02,7.76-4.02c7.9,0,8.76,5.98,8.76,10.73v14.84h-8.14v-14.6c0-2.68-1.29-4.26-3.4-4.26
		c-3.5,0-3.83,2.68-3.83,6.7v12.16h-8.14V59.93c0-2.92-0.86-4.74-3.06-4.74c-2.92,0-4.17,1.68-4.17,6.75v12.11h-8.14V49.21z"/>
	<path class="st0" d="M225.88,63.62c0.14,3.4,2.11,5.65,5.55,5.65c1.96,0,3.88-0.91,4.64-2.73h7.61c-1.48,5.75-6.8,8.24-12.35,8.24
		c-8.09,0-13.6-4.88-13.6-13.22c0-7.61,6.08-13.07,13.41-13.07c8.91,0,13.36,6.7,12.98,15.13H225.88z M235.99,59.07
		c-0.14-2.78-2.11-5.08-4.84-5.08c-2.87,0-4.79,2.06-5.27,5.08H235.99z"/>
	<path class="st0" d="M253.08,65.87c0,1.25,0.53,2.15,1.34,2.78c0.77,0.57,1.87,0.86,3.02,0.86c1.58,0,3.83-0.67,3.83-2.63
		c0-1.92-2.54-2.3-3.97-2.63c-5.12-1.29-11.54-1.44-11.54-8.14c0-5.99,6.46-7.61,11.35-7.61c5.46,0,11.16,1.58,11.44,8.04h-7.52
		c0-1.05-0.38-1.72-1.05-2.15c-0.67-0.43-1.58-0.62-2.58-0.62c-1.34,0-3.5,0.14-3.5,1.87c0,2.35,5.46,2.78,9.19,3.59
		c5.03,1.01,6.32,4.64,6.32,6.7c0,6.66-6.32,8.86-11.92,8.86c-5.89,0-11.92-1.96-12.16-8.91H253.08z"/>
</g>
<g>
	<path class="st0" d="M20.39,100.49c0.14-3.26,1.68-5.36,3.88-6.66c2.2-1.25,5.08-1.72,7.9-1.72c5.89,0,11.59,1.29,11.59,8.33v10.87
		c0,2.11,0,4.4,0.96,6.37h-8.19c-0.29-0.77-0.38-1.53-0.48-2.35c-2.11,2.2-5.22,3.06-8.19,3.06c-4.74,0-8.48-2.39-8.48-7.52
		c0-8.09,8.81-7.47,14.46-8.62c1.39-0.29,2.15-0.77,2.15-2.3c0-1.87-2.25-2.59-3.93-2.59c-2.25,0-3.69,1.01-4.07,3.11H20.39z
		 M30.93,113.37c3.88,0,5.17-2.2,4.98-7.33c-1.15,0.72-3.26,0.86-5.03,1.34c-1.82,0.43-3.35,1.2-3.35,3.16
		C27.53,112.55,29.11,113.37,30.93,113.37z"/>
	<path class="st0" d="M62.43,98.09H57.4v11.3c0,1.96,1.15,2.39,2.92,2.39c0.67,0,1.39-0.1,2.11-0.1v5.99
		c-1.48,0.05-2.97,0.24-4.45,0.24c-6.94,0-8.71-2.01-8.71-8.76V98.09h-4.12v-5.27h4.12v-7.52h8.14v7.52h5.03V98.09z"/>
	<path class="st0" d="M93.84,119.88c-1.96,5.46-4.88,6.13-10.39,6.13h-3.83v-6.61h2.82c1.87,0,3.26-1.05,3.26-2.78
		c0-1.34-1.58-5.17-2.06-6.51l-6.42-17.29h8.62l4.69,16.18h0.1l4.69-16.18h8.33L93.84,119.88z"/>
	<path class="st0" d="M116.1,92.11c7.71,0,13.12,5.7,13.12,13.17s-5.41,13.12-13.12,13.12s-13.07-5.65-13.07-13.12
		S108.39,92.11,116.1,92.11z M116.1,112.17c3.78,0,4.98-3.73,4.98-6.9s-1.2-6.94-4.98-6.94s-4.93,3.78-4.93,6.94
		S112.32,112.17,116.1,112.17z"/>
	<path class="st0" d="M156.89,117.67h-7.9v-3.4h-0.1c-1.53,2.54-4.69,4.12-7.56,4.12c-7.13,0-9.19-4.12-9.19-10.63V92.82h8.14v14.41
		c0,3.3,1.44,4.45,4.02,4.45c1.77,0,4.45-1.15,4.45-5.55V92.82h8.14V117.67z"/>
	<path class="st0" d="M178.29,98.09h-3.93v-5.27h3.93c0-7.13,2.49-9.34,9.43-9.34c1.29,0,2.63,0.1,3.93,0.14v5.75
		c-0.77-0.1-1.48-0.14-2.2-0.14c-1.87,0-3.02,0.24-3.02,2.49v1.1h4.88v5.27h-4.88v19.58h-8.14V98.09z"/>
	<path class="st0" d="M192.94,100.49c0.14-3.26,1.68-5.36,3.88-6.66c2.2-1.25,5.08-1.72,7.9-1.72c5.89,0,11.59,1.29,11.59,8.33
		v10.87c0,2.11,0,4.4,0.96,6.37h-8.19c-0.29-0.77-0.38-1.53-0.48-2.35c-2.11,2.2-5.22,3.06-8.19,3.06c-4.74,0-8.47-2.39-8.47-7.52
		c0-8.09,8.81-7.47,14.46-8.62c1.39-0.29,2.16-0.77,2.16-2.3c0-1.87-2.25-2.59-3.93-2.59c-2.25,0-3.69,1.01-4.07,3.11H192.94z
		 M203.48,113.37c3.88,0,5.17-2.2,4.98-7.33c-1.15,0.72-3.26,0.86-5.03,1.34c-1.82,0.43-3.35,1.2-3.35,3.16
		C200.08,112.55,201.66,113.37,203.48,113.37z"/>
	<path class="st0" d="M226.36,109.49c0,1.25,0.53,2.15,1.34,2.78c0.77,0.57,1.87,0.86,3.02,0.86c1.58,0,3.83-0.67,3.83-2.63
		c0-1.92-2.54-2.3-3.97-2.63c-5.12-1.29-11.54-1.44-11.54-8.14c0-5.99,6.46-7.61,11.35-7.61c5.46,0,11.16,1.58,11.44,8.04h-7.52
		c0-1.05-0.38-1.72-1.05-2.15c-0.67-0.43-1.58-0.62-2.58-0.62c-1.34,0-3.5,0.14-3.5,1.87c0,2.35,5.46,2.78,9.19,3.59
		c5.03,1.01,6.32,4.64,6.32,6.7c0,6.66-6.32,8.86-11.92,8.86c-5.89,0-11.92-1.96-12.16-8.91H226.36z"/>
	<path class="st0" d="M260.69,98.09h-5.03v11.3c0,1.96,1.15,2.39,2.92,2.39c0.67,0,1.39-0.1,2.11-0.1v5.99
		c-1.48,0.05-2.97,0.24-4.45,0.24c-6.94,0-8.71-2.01-8.71-8.76V98.09h-4.12v-5.27h4.12v-7.52h8.14v7.52h5.03V98.09z"/>
	<path class="st0" d="M263.66,108.77h8.91v8.91h-8.91V108.77z"/>
</g>
</svg>
