<?xml version="1.0" encoding="utf-8"?>
<!-- Generator: Adobe Illustrator 24.2.3, SVG Export Plug-In . SVG Version: 6.00 Build 0)  -->
<svg version="1.1" id="Layer_1" xmlns="http://www.w3.org/2000/svg" xmlns:xlink="http://www.w3.org/1999/xlink" x="0px" y="0px"
	 viewBox="0 0 300 250" style="enable-background:new 0 0 300 250;" xml:space="preserve">
<style type="text/css">
	.st0{fill:#FFFFFF;}
</style>
<g>
	<path class="st0" d="M19.43,56.91l-8.99-13.44h2.59l7.52,11.58l7.49-11.58h2.59l-9.02,13.44v9.41h-2.18V56.91z"/>
	<path class="st0" d="M43.59,58.06c0,4.74-2.75,8.74-7.81,8.74s-7.81-4-7.81-8.74s2.75-8.74,7.81-8.74S43.59,53.33,43.59,58.06z
		 M29.99,58.06c0,3.52,1.92,7.04,5.79,7.04c3.87,0,5.79-3.52,5.79-7.04c0-3.52-1.92-7.04-5.79-7.04
		C31.91,51.02,29.99,54.54,29.99,58.06z"/>
	<path class="st0" d="M59.43,66.32h-1.86v-2.98h-0.06c-1.06,2.21-3.23,3.46-5.7,3.46c-4.16,0-5.79-2.43-5.79-6.27V49.81h2.02v10.75
		c0.1,2.98,1.22,4.54,4.42,4.54c3.46,0,4.96-3.26,4.96-6.62v-8.67h2.02V66.32z"/>
	<path class="st0" d="M62.73,49.81h1.86v3.87h0.06c1.02-2.66,3.26-4.22,6.24-4.1v2.02c-3.65-0.19-6.14,2.5-6.14,5.92v8.8h-2.02
		V49.81z"/>
	<path class="st0" d="M81.16,43.47h2.02v22.85h-2.02V43.47z"/>
	<path class="st0" d="M86.5,43.47h2.02v3.23H86.5V43.47z M86.5,49.81h2.02v16.51H86.5V49.81z"/>
	<path class="st0" d="M98.31,51.5h-3.26v14.81h-2.02V51.5h-2.82v-1.7h2.82v-1.5c-0.03-2.85,0.77-4.83,4-4.83
		c0.58,0,1.06,0.03,1.7,0.13v1.73c-0.54-0.1-0.99-0.16-1.47-0.16c-2.24,0-2.18,1.41-2.21,3.2v1.44h3.26V51.5z"/>
	<path class="st0" d="M100.52,58.61c0.03,2.94,1.57,6.5,5.44,6.5c2.94,0,4.54-1.73,5.18-4.22h2.02c-0.86,3.74-3.04,5.92-7.2,5.92
		c-5.25,0-7.46-4.03-7.46-8.74c0-4.35,2.21-8.74,7.46-8.74c5.31,0,7.42,4.64,7.26,9.28H100.52z M111.21,56.91
		c-0.1-3.04-1.98-5.89-5.25-5.89c-3.3,0-5.12,2.88-5.44,5.89H111.21z"/>
	<path class="st0" d="M124.26,43.47h2.02v3.23h-2.02V43.47z M124.26,49.81h2.02v16.51h-2.02V49.81z"/>
	<path class="st0" d="M139.52,54.64c-0.1-2.5-2.02-3.62-4.32-3.62c-1.79,0-3.9,0.7-3.9,2.85c0,1.79,2.05,2.43,3.42,2.78l2.69,0.61
		c2.3,0.35,4.7,1.7,4.7,4.58c0,3.58-3.55,4.96-6.62,4.96c-3.84,0-6.46-1.79-6.78-5.82h2.02c0.16,2.72,2.18,4.13,4.86,4.13
		c1.89,0,4.51-0.83,4.51-3.14c0-1.92-1.79-2.56-3.62-3.01l-2.59-0.58c-2.62-0.7-4.61-1.6-4.61-4.42c0-3.36,3.3-4.64,6.21-4.64
		c3.3,0,5.92,1.73,6.05,5.31H139.52z"/>
	<path class="st0" d="M164.96,54.99c-0.54-2.46-2.05-3.97-4.67-3.97c-3.87,0-5.79,3.52-5.79,7.04c0,3.52,1.92,7.04,5.79,7.04
		c2.5,0,4.54-1.95,4.8-4.7h2.02c-0.54,3.97-3.14,6.4-6.82,6.4c-5.06,0-7.81-4-7.81-8.74s2.75-8.74,7.81-8.74
		c3.52,0,6.24,1.89,6.69,5.66H164.96z"/>
	<path class="st0" d="M169.45,43.47h2.02v9.18h0.06c0.74-1.98,2.94-3.33,5.28-3.33c4.64,0,6.05,2.43,6.05,6.37v10.62h-2.02v-10.3
		c0-2.85-0.93-4.99-4.19-4.99c-3.2,0-5.12,2.43-5.18,5.66v9.63h-2.02V43.47z"/>
	<path class="st0" d="M185.92,54.86c0.19-3.87,2.91-5.54,6.69-5.54c2.91,0,6.08,0.9,6.08,5.31v8.77c0,0.77,0.38,1.22,1.18,1.22
		c0.22,0,0.48-0.06,0.64-0.13v1.7c-0.45,0.1-0.77,0.13-1.31,0.13c-2.05,0-2.37-1.15-2.37-2.88h-0.06c-1.41,2.14-2.85,3.36-6.02,3.36
		c-3.04,0-5.54-1.5-5.54-4.83c0-4.64,4.51-4.8,8.86-5.31c1.66-0.19,2.59-0.42,2.59-2.24c0-2.72-1.95-3.39-4.32-3.39
		c-2.5,0-4.35,1.15-4.42,3.84H185.92z M196.68,57.3h-0.06c-0.26,0.48-1.15,0.64-1.7,0.74c-3.42,0.61-7.68,0.58-7.68,3.81
		c0,2.02,1.79,3.26,3.68,3.26c3.07,0,5.79-1.95,5.76-5.18V57.3z"/>
	<path class="st0" d="M202.28,49.81h2.02v2.85h0.06c0.74-1.98,2.94-3.33,5.28-3.33c4.64,0,6.05,2.43,6.05,6.37v10.62h-2.02v-10.3
		c0-2.85-0.93-4.99-4.19-4.99c-3.2,0-5.12,2.43-5.18,5.66v9.63h-2.02V49.81z"/>
	<path class="st0" d="M232.93,64.98c-0.03,4.93-1.92,7.94-7.33,7.94c-3.29,0-6.56-1.47-6.85-4.99h2.02c0.45,2.43,2.59,3.3,4.83,3.3
		c3.71,0,5.31-2.21,5.31-6.24v-2.24h-0.06c-0.93,2.02-2.88,3.39-5.25,3.39c-5.28,0-7.46-3.78-7.46-8.48c0-4.54,2.69-8.32,7.46-8.32
		c2.4,0,4.45,1.5,5.25,3.33h0.06v-2.85h2.02V64.98z M230.92,57.87c0-3.23-1.5-6.85-5.31-6.85c-3.84,0-5.44,3.42-5.44,6.85
		c0,3.33,1.73,6.56,5.44,6.56C229.09,64.43,230.92,61.23,230.92,57.87z"/>
	<path class="st0" d="M236.26,43.47h2.02v3.23h-2.02V43.47z M236.26,49.81h2.02v16.51h-2.02V49.81z"/>
	<path class="st0" d="M241.57,49.81h2.02v2.85h0.06c0.74-1.98,2.94-3.33,5.28-3.33c4.64,0,6.05,2.43,6.05,6.37v10.62h-2.02v-10.3
		c0-2.85-0.93-4.99-4.19-4.99c-3.2,0-5.12,2.43-5.18,5.66v9.63h-2.02V49.81z"/>
	<path class="st0" d="M272.23,64.98c-0.03,4.93-1.92,7.94-7.33,7.94c-3.29,0-6.56-1.47-6.85-4.99h2.02c0.45,2.43,2.59,3.3,4.83,3.3
		c3.71,0,5.31-2.21,5.31-6.24v-2.24h-0.06c-0.93,2.02-2.88,3.39-5.25,3.39c-5.28,0-7.46-3.78-7.46-8.48c0-4.54,2.69-8.32,7.46-8.32
		c2.4,0,4.45,1.5,5.25,3.33h0.06v-2.85h2.02V64.98z M270.21,57.87c0-3.23-1.5-6.85-5.31-6.85c-3.84,0-5.44,3.42-5.44,6.85
		c0,3.33,1.73,6.56,5.44,6.56C268.39,64.43,270.21,61.23,270.21,57.87z"/>
	<path class="st0" d="M276.1,66.32v-3.39h2.69v3.39H276.1z"/>
</g>
</svg>
