<?xml version="1.0" encoding="utf-8"?>
<!-- Generator: Adobe Illustrator 24.2.3, SVG Export Plug-In . SVG Version: 6.00 Build 0)  -->
<svg version="1.1" id="Layer_1" xmlns="http://www.w3.org/2000/svg" xmlns:xlink="http://www.w3.org/1999/xlink" x="0px" y="0px"
	 viewBox="0 0 300 250" style="enable-background:new 0 0 300 250;" xml:space="preserve">
<style type="text/css">
	.st0{fill:#FF7F30;}
	.st1{fill:#FFFFFF;}
</style>
<rect x="168.48" y="198.15" class="st0" width="115.26" height="28.23"/>
<g>
	<path class="st1" d="M185.54,207.25l4.28,11.45h-2.61l-0.87-2.55h-4.28l-0.9,2.55h-2.53l4.33-11.45H185.54z M185.69,214.28
		l-1.44-4.2h-0.03l-1.49,4.2H185.69z"/>
	<path class="st1" d="M195.99,207.25c0.72,0,1.33,0.1,1.83,0.31c0.5,0.21,0.91,0.48,1.23,0.83c0.32,0.34,0.54,0.73,0.69,1.17
		s0.22,0.89,0.22,1.36c0,0.46-0.07,0.91-0.22,1.36c-0.14,0.44-0.37,0.84-0.69,1.18c-0.32,0.34-0.72,0.62-1.23,0.83
		c-0.5,0.21-1.11,0.31-1.83,0.31h-2.65v4.11h-2.52v-11.45H195.99z M195.3,212.64c0.29,0,0.57-0.02,0.83-0.06
		c0.27-0.04,0.5-0.12,0.71-0.25s0.37-0.3,0.49-0.52c0.12-0.22,0.18-0.52,0.18-0.88s-0.06-0.66-0.18-0.88
		c-0.12-0.22-0.29-0.4-0.49-0.52s-0.44-0.21-0.71-0.25c-0.27-0.04-0.54-0.06-0.83-0.06h-1.96v3.43H195.3z"/>
	<path class="st1" d="M206.68,207.25c0.72,0,1.33,0.1,1.83,0.31c0.5,0.21,0.91,0.48,1.23,0.83c0.32,0.34,0.54,0.73,0.69,1.17
		s0.22,0.89,0.22,1.36c0,0.46-0.07,0.91-0.22,1.36c-0.14,0.44-0.37,0.84-0.69,1.18c-0.32,0.34-0.72,0.62-1.23,0.83
		c-0.5,0.21-1.11,0.31-1.83,0.31h-2.65v4.11h-2.52v-11.45H206.68z M205.99,212.64c0.29,0,0.57-0.02,0.83-0.06
		c0.27-0.04,0.5-0.12,0.71-0.25s0.37-0.3,0.49-0.52c0.12-0.22,0.18-0.52,0.18-0.88s-0.06-0.66-0.18-0.88
		c-0.12-0.22-0.29-0.4-0.49-0.52s-0.44-0.21-0.71-0.25c-0.27-0.04-0.54-0.06-0.83-0.06h-1.96v3.43H205.99z"/>
	<path class="st1" d="M214.73,207.25v9.33h5.58v2.12h-8.1v-11.45H214.73z"/>
	<path class="st1" d="M218.73,207.25h2.82l2.68,4.52l2.66-4.52h2.81l-4.25,7.06v4.39h-2.52v-4.46L218.73,207.25z"/>
	<path class="st1" d="M237.62,207.25l4.78,7.68h0.03v-7.68h2.36v11.45h-2.52l-4.76-7.67h-0.03v7.67h-2.36v-11.45H237.62z"/>
	<path class="st1" d="M246.89,210.64c0.26-0.73,0.63-1.37,1.11-1.92c0.48-0.54,1.07-0.97,1.77-1.28c0.7-0.31,1.49-0.46,2.37-0.46
		c0.89,0,1.68,0.16,2.37,0.46c0.7,0.31,1.28,0.74,1.76,1.28c0.48,0.54,0.85,1.18,1.11,1.92c0.26,0.73,0.38,1.53,0.38,2.38
		c0,0.83-0.13,1.61-0.38,2.33s-0.63,1.35-1.11,1.88c-0.48,0.53-1.07,0.95-1.76,1.26s-1.49,0.46-2.37,0.46
		c-0.88,0-1.67-0.15-2.37-0.46s-1.29-0.72-1.77-1.26c-0.48-0.54-0.85-1.16-1.11-1.88s-0.38-1.5-0.38-2.33
		C246.5,212.17,246.63,211.38,246.89,210.64z M249.19,214.43c0.11,0.46,0.29,0.86,0.54,1.23s0.57,0.65,0.96,0.87
		c0.4,0.22,0.88,0.33,1.44,0.33c0.57,0,1.05-0.11,1.44-0.33c0.4-0.22,0.72-0.51,0.96-0.87s0.42-0.77,0.54-1.23
		c0.11-0.45,0.17-0.92,0.17-1.4c0-0.5-0.06-0.99-0.17-1.46s-0.29-0.89-0.54-1.26c-0.25-0.37-0.57-0.66-0.96-0.88
		c-0.4-0.22-0.88-0.33-1.44-0.33c-0.57,0-1.05,0.11-1.44,0.33c-0.4,0.22-0.72,0.51-0.96,0.88c-0.25,0.37-0.42,0.79-0.54,1.26
		s-0.17,0.96-0.17,1.46C249.02,213.51,249.08,213.98,249.19,214.43z"/>
	<path class="st1" d="M267.88,218.7l-1.94-7.79h-0.03L264,218.7h-2.55l-3.03-11.45h2.52l1.81,7.79h0.03l1.99-7.79h2.36l1.96,7.89
		h0.03l1.88-7.89h2.47l-3.08,11.45H267.88z"/>
</g>
</svg>
