<?xml version="1.0" encoding="utf-8"?>
<!-- Generator: Adobe Illustrator 24.2.3, SVG Export Plug-In . SVG Version: 6.00 Build 0)  -->
<svg version="1.1" id="Layer_1" xmlns="http://www.w3.org/2000/svg" xmlns:xlink="http://www.w3.org/1999/xlink" x="0px" y="0px"
	 viewBox="0 0 160 600" style="enable-background:new 0 0 160 600;" xml:space="preserve">
<style type="text/css">
	.st0{fill:#FFFFFF;}
</style>
<g>
	<path class="st0" d="M13.66,132.11h7.81v23.27h13.99v6.72h-21.8V132.11z"/>
	<path class="st0" d="M45.29,137.57h-7.14v-5.46h7.14V137.57z M38.15,140.3h7.14v21.8h-7.14V140.3z"/>
	<path class="st0" d="M51.08,144.92h-3.44v-4.62h3.44c0-6.26,2.18-8.19,8.28-8.19c1.13,0,2.31,0.08,3.44,0.13v5.04
		c-0.67-0.08-1.3-0.13-1.93-0.13c-1.64,0-2.65,0.21-2.65,2.18v0.97h4.29v4.62h-4.29v17.18h-7.14V144.92z"/>
	<path class="st0" d="M70.2,152.94c0.13,2.98,1.85,4.96,4.87,4.96c1.72,0,3.4-0.8,4.07-2.39h6.68c-1.3,5.04-5.96,7.23-10.84,7.23
		c-7.1,0-11.93-4.28-11.93-11.59c0-6.68,5.33-11.47,11.76-11.47c7.81,0,11.72,5.88,11.38,13.27H70.2z M79.06,148.95
		c-0.13-2.44-1.85-4.45-4.24-4.45c-2.52,0-4.2,1.81-4.62,4.45H79.06z"/>
</g>
<g>
	<path class="st0" d="M27.57,190.28c-0.04-1.85-1.68-3.15-3.49-3.15c-3.99,0-4.62,3.4-4.62,6.43c0,2.81,1.22,5.71,4.24,5.71
		c2.48,0,3.74-1.43,4.07-3.74h6.93c-0.63,5.84-5.17,9.2-10.96,9.2c-6.55,0-11.43-4.49-11.43-11.17c0-6.93,4.41-11.89,11.43-11.89
		c5.42,0,10.25,2.86,10.75,8.61H27.57z"/>
	<path class="st0" d="M48.02,181.67c6.76,0,11.51,5,11.51,11.55s-4.75,11.51-11.51,11.51c-6.76,0-11.47-4.96-11.47-11.51
		S41.26,181.67,48.02,181.67z M48.02,199.27c3.32,0,4.37-3.28,4.37-6.05s-1.05-6.09-4.37-6.09s-4.33,3.32-4.33,6.09
		S44.7,199.27,48.02,199.27z"/>
	<path class="st0" d="M62.59,182.3h6.93v2.98h0.08c1.3-2.18,3.61-3.61,6.26-3.61c2.73,0,5.17,0.88,6.34,3.53
		c1.72-2.31,3.87-3.53,6.81-3.53c6.93,0,7.69,5.25,7.69,9.41v13.02h-7.14v-12.81c0-2.35-1.13-3.74-2.98-3.74
		c-3.07,0-3.36,2.35-3.36,5.88v10.67h-7.14v-12.39c0-2.56-0.76-4.16-2.69-4.16c-2.56,0-3.65,1.47-3.65,5.92v10.63h-7.14V182.3z"/>
	<path class="st0" d="M106.9,194.94c0.13,2.98,1.85,4.96,4.87,4.96c1.72,0,3.4-0.8,4.07-2.39h6.68c-1.3,5.04-5.96,7.23-10.84,7.23
		c-7.1,0-11.93-4.28-11.93-11.59c0-6.68,5.33-11.47,11.76-11.47c7.81,0,11.72,5.88,11.38,13.27H106.9z M115.77,190.95
		c-0.13-2.44-1.85-4.45-4.24-4.45c-2.52,0-4.2,1.81-4.62,4.45H115.77z"/>
	<path class="st0" d="M131.43,196.92c0,1.09,0.46,1.89,1.18,2.44c0.67,0.5,1.64,0.76,2.65,0.76c1.39,0,3.36-0.59,3.36-2.31
		c0-1.68-2.23-2.02-3.49-2.31c-4.49-1.13-10.12-1.26-10.12-7.14c0-5.25,5.67-6.68,9.96-6.68c4.79,0,9.79,1.39,10.04,7.06h-6.59
		c0-0.92-0.34-1.51-0.92-1.89s-1.39-0.55-2.27-0.55c-1.18,0-3.07,0.13-3.07,1.64c0,2.06,4.79,2.44,8.07,3.15
		c4.41,0.88,5.54,4.07,5.54,5.88c0,5.84-5.54,7.77-10.46,7.77c-5.17,0-10.46-1.72-10.67-7.81H131.43z"/>
</g>
<g>
	<path class="st0" d="M13.08,231.02c0.13-2.86,1.47-4.71,3.4-5.84c1.93-1.09,4.45-1.51,6.93-1.51c5.17,0,10.17,1.13,10.17,7.31v9.54
		c0,1.85,0,3.86,0.84,5.59h-7.18c-0.25-0.67-0.34-1.34-0.42-2.06c-1.85,1.93-4.58,2.69-7.18,2.69c-4.16,0-7.44-2.1-7.44-6.59
		c0-7.1,7.73-6.55,12.69-7.56c1.22-0.25,1.89-0.67,1.89-2.02c0-1.64-1.97-2.27-3.44-2.27c-1.97,0-3.24,0.88-3.57,2.73H13.08z
		 M22.32,242.32c3.4,0,4.54-1.93,4.37-6.43c-1.01,0.63-2.86,0.76-4.41,1.18c-1.6,0.38-2.94,1.05-2.94,2.77
		C19.33,241.6,20.72,242.32,22.32,242.32z"/>
	<path class="st0" d="M50.58,228.92h-4.41v9.91c0,1.72,1.01,2.1,2.56,2.1c0.59,0,1.22-0.08,1.85-0.08v5.25
		c-1.3,0.04-2.6,0.21-3.91,0.21c-6.09,0-7.65-1.76-7.65-7.69v-9.7h-3.61v-4.62h3.61v-6.6h7.14v6.6h4.41V228.92z"/>
	<path class="st0" d="M78.13,248.03c-1.72,4.79-4.28,5.38-9.12,5.38h-3.36v-5.8h2.48c1.64,0,2.86-0.92,2.86-2.44
		c0-1.18-1.39-4.54-1.81-5.71l-5.63-15.16h7.56l4.12,14.2h0.08l4.12-14.2h7.31L78.13,248.03z"/>
	<path class="st0" d="M97.92,223.67c6.76,0,11.51,5,11.51,11.55s-4.75,11.51-11.51,11.51c-6.76,0-11.47-4.96-11.47-11.51
		S91.15,223.67,97.92,223.67z M97.92,241.27c3.32,0,4.37-3.28,4.37-6.05s-1.05-6.09-4.37-6.09s-4.33,3.32-4.33,6.09
		S94.6,241.27,97.92,241.27z"/>
	<path class="st0" d="M134,246.1h-6.93v-2.98h-0.08c-1.34,2.23-4.12,3.61-6.64,3.61c-6.26,0-8.07-3.61-8.07-9.33V224.3h7.14v12.64
		c0,2.9,1.26,3.91,3.53,3.91c1.55,0,3.91-1.01,3.91-4.87V224.3H134V246.1z"/>
</g>
<g>
	<path class="st0" d="M14.92,270.92h-3.44v-4.62h3.44c0-6.26,2.18-8.19,8.28-8.19c1.13,0,2.31,0.08,3.44,0.13v5.04
		c-0.67-0.08-1.3-0.13-1.93-0.13c-1.64,0-2.65,0.21-2.65,2.18v0.97h4.29v4.62h-4.29v17.18h-7.14V270.92z"/>
	<path class="st0" d="M27.9,273.02c0.13-2.86,1.47-4.71,3.4-5.84c1.93-1.09,4.45-1.51,6.93-1.51c5.17,0,10.17,1.13,10.17,7.31v9.54
		c0,1.85,0,3.86,0.84,5.59h-7.18c-0.25-0.67-0.34-1.34-0.42-2.06c-1.85,1.93-4.58,2.69-7.18,2.69c-4.16,0-7.44-2.1-7.44-6.59
		c0-7.1,7.73-6.55,12.69-7.56c1.22-0.25,1.89-0.67,1.89-2.02c0-1.64-1.97-2.27-3.44-2.27c-1.97,0-3.24,0.88-3.57,2.73H27.9z
		 M37.14,284.32c3.4,0,4.54-1.93,4.37-6.43c-1.01,0.63-2.86,0.76-4.41,1.18c-1.6,0.38-2.94,1.05-2.94,2.77
		C34.16,283.6,35.55,284.32,37.14,284.32z"/>
	<path class="st0" d="M58.1,280.92c0,1.09,0.46,1.89,1.18,2.44c0.67,0.5,1.64,0.76,2.65,0.76c1.39,0,3.36-0.59,3.36-2.31
		c0-1.68-2.23-2.02-3.49-2.31c-4.49-1.13-10.12-1.26-10.12-7.14c0-5.25,5.67-6.68,9.96-6.68c4.79,0,9.79,1.39,10.04,7.06h-6.59
		c0-0.92-0.34-1.51-0.92-1.89s-1.39-0.55-2.27-0.55c-1.18,0-3.07,0.13-3.07,1.64c0,2.06,4.79,2.44,8.07,3.15
		c4.41,0.88,5.54,4.07,5.54,5.88c0,5.84-5.54,7.77-10.46,7.77c-5.17,0-10.46-1.72-10.67-7.81H58.1z"/>
	<path class="st0" d="M88.42,270.92h-4.41v9.91c0,1.72,1.01,2.1,2.56,2.1c0.59,0,1.22-0.08,1.85-0.08v5.25
		c-1.3,0.04-2.6,0.21-3.91,0.21c-6.09,0-7.65-1.76-7.65-7.69v-9.7h-3.61v-4.62h3.61v-6.6h7.14v6.6h4.41V270.92z"/>
	<path class="st0" d="M91.99,280.29h7.81v7.81h-7.81V280.29z"/>
</g>
</svg>
