<?xml version="1.0" encoding="utf-8"?>
<!-- Generator: Adobe Illustrator 24.2.3, SVG Export Plug-In . SVG Version: 6.00 Build 0)  -->
<svg version="1.1" id="Layer_1" xmlns="http://www.w3.org/2000/svg" xmlns:xlink="http://www.w3.org/1999/xlink" x="0px" y="0px"
	 viewBox="0 0 160 600" style="enable-background:new 0 0 160 600;" xml:space="preserve">
<style type="text/css">
	.st0{fill:#006098;}
</style>
<g>
	<path class="st0" d="M28.5,254.39h-2.76l-0.25-1.79c-1.13,1.59-3.06,2.14-4.58,2.14c-4.97,0-8.19-3.79-8.19-8.55
		c0-4.76,3.22-8.55,8.19-8.55c3.4,0,7.04,1.82,7.43,5.93h-4.28c-0.14-1.4-1.52-2.25-3.24-2.25c-2.76,0-3.82,2.44-3.82,4.88
		c0,2.44,1.06,4.87,3.82,4.87c2.12,0,3.54-0.99,3.77-2.48H21.6v-3.17h6.9V254.39z"/>
	<path class="st0" d="M34.35,249.38c0.07,1.63,1.01,2.71,2.67,2.71c0.94,0,1.86-0.44,2.23-1.31h3.66c-0.71,2.76-3.27,3.96-5.93,3.96
		c-3.89,0-6.53-2.35-6.53-6.35c0-3.66,2.92-6.28,6.44-6.28c4.28,0,6.42,3.22,6.23,7.27H34.35z M39.2,247.19
		c-0.07-1.33-1.01-2.44-2.32-2.44c-1.38,0-2.3,0.99-2.53,2.44H39.2z"/>
	<path class="st0" d="M51.87,244.99h-2.41v5.43c0,0.94,0.55,1.15,1.4,1.15c0.32,0,0.67-0.05,1.01-0.05v2.87
		c-0.71,0.02-1.43,0.11-2.14,0.11c-3.33,0-4.19-0.97-4.19-4.21v-5.31h-1.98v-2.53h1.98v-3.61h3.91v3.61h2.41V244.99z"/>
</g>
<g>
	<path class="st0" d="M16.22,273.46c0,0.6,0.25,1.03,0.64,1.33c0.37,0.28,0.9,0.41,1.45,0.41c0.76,0,1.84-0.32,1.84-1.26
		c0-0.92-1.22-1.1-1.91-1.26c-2.46-0.62-5.54-0.69-5.54-3.91c0-2.87,3.1-3.66,5.45-3.66c2.62,0,5.36,0.76,5.5,3.86h-3.61
		c0-0.51-0.18-0.83-0.51-1.04c-0.32-0.21-0.76-0.3-1.24-0.3c-0.64,0-1.68,0.07-1.68,0.9c0,1.13,2.62,1.33,4.42,1.72
		c2.41,0.48,3.04,2.23,3.04,3.22c0,3.2-3.04,4.25-5.73,4.25c-2.83,0-5.73-0.94-5.84-4.28H16.22z"/>
	<path class="st0" d="M25.81,265.46h3.73v1.38h0.05c0.76-1.13,1.91-1.72,3.29-1.72c3.75,0,5.33,3.22,5.33,6.58
		c0,3.1-1.66,6.05-5.04,6.05c-1.47,0-2.6-0.55-3.4-1.63h-0.05v5.29h-3.91V265.46z M29.58,271.3c0,2.09,0.6,3.45,2.37,3.45
		c1.75,0,2.35-1.82,2.35-3.45c0-1.52-0.6-3.2-2.32-3.2C30.92,268.1,29.58,268.84,29.58,271.3z"/>
	<path class="st0" d="M43.38,272.38c0.07,1.63,1.01,2.71,2.67,2.71c0.94,0,1.86-0.44,2.23-1.31h3.66c-0.71,2.76-3.27,3.96-5.93,3.96
		c-3.89,0-6.53-2.35-6.53-6.35c0-3.66,2.92-6.28,6.44-6.28c4.28,0,6.42,3.22,6.23,7.27H43.38z M48.24,270.19
		c-0.07-1.33-1.01-2.44-2.32-2.44c-1.38,0-2.3,0.99-2.53,2.44H48.24z"/>
	<path class="st0" d="M61.62,269.83c-0.02-1.01-0.92-1.72-1.91-1.72c-2.18,0-2.53,1.86-2.53,3.52c0,1.54,0.67,3.13,2.32,3.13
		c1.36,0,2.05-0.78,2.23-2.05h3.79c-0.34,3.2-2.83,5.04-6,5.04c-3.59,0-6.25-2.46-6.25-6.12c0-3.79,2.41-6.51,6.25-6.51
		c2.97,0,5.61,1.56,5.89,4.71H61.62z"/>
	<path class="st0" d="M71.26,263.96h-3.91v-2.99h3.91V263.96z M67.35,265.46h3.91v11.93h-3.91V265.46z"/>
	<path class="st0" d="M73.61,269.14c0.07-1.56,0.8-2.58,1.86-3.2c1.06-0.6,2.44-0.83,3.79-0.83c2.83,0,5.56,0.62,5.56,4v5.22
		c0,1.01,0,2.12,0.46,3.06h-3.93c-0.14-0.37-0.18-0.74-0.23-1.13c-1.01,1.06-2.51,1.47-3.93,1.47c-2.28,0-4.07-1.15-4.07-3.61
		c0-3.89,4.23-3.59,6.94-4.14c0.67-0.14,1.04-0.37,1.04-1.1c0-0.9-1.08-1.24-1.89-1.24c-1.08,0-1.77,0.48-1.96,1.49H73.61z
		 M78.67,275.32c1.86,0,2.48-1.06,2.39-3.52c-0.55,0.35-1.56,0.41-2.42,0.64c-0.87,0.21-1.61,0.57-1.61,1.52
		C77.03,274.93,77.79,275.32,78.67,275.32z"/>
	<path class="st0" d="M87.29,260.97h3.91v16.42h-3.91V260.97z"/>
</g>
<g>
	<path class="st0" d="M24.73,298.94c0,1.95-0.37,5.63-5.96,5.63c-2.78,0-5.4-0.62-5.86-3.82h3.91c0.09,0.53,0.3,0.85,0.67,1.03
		c0.34,0.18,0.83,0.25,1.43,0.25c1.86,0,2.05-1.31,2.05-2.78v-1.13h-0.05c-0.71,1.1-1.91,1.75-3.17,1.75
		c-3.61,0-5.24-2.58-5.24-5.93c0-3.17,1.86-5.84,5.24-5.84c1.43,0,2.51,0.62,3.2,1.84h0.05v-1.49h3.75V298.94z M18.68,291.1
		c-1.72,0-2.28,1.52-2.28,2.99c0,1.4,0.64,2.81,2.25,2.81c1.66,0,2.37-1.29,2.37-2.78C21.03,292.6,20.43,291.1,18.68,291.1z"/>
	<path class="st0" d="M27.15,288.46h3.79v2.09h0.05c0.57-1.52,1.91-2.32,3.59-2.32c0.3,0,0.62,0.02,0.92,0.09v3.56
		c-0.51-0.14-0.97-0.23-1.49-0.23c-1.93,0-2.94,1.33-2.94,2.83v5.91h-3.91V288.46z"/>
	<path class="st0" d="M42.39,288.11c3.7,0,6.3,2.74,6.3,6.32c0,3.59-2.6,6.3-6.3,6.3s-6.28-2.71-6.28-6.3
		C36.12,290.85,38.69,288.11,42.39,288.11z M42.39,297.75c1.82,0,2.39-1.79,2.39-3.31s-0.57-3.33-2.39-3.33
		c-1.82,0-2.37,1.82-2.37,3.33S40.58,297.75,42.39,297.75z"/>
	<path class="st0" d="M62.29,300.39h-3.79v-1.63h-0.05c-0.74,1.22-2.25,1.98-3.63,1.98c-3.43,0-4.42-1.98-4.42-5.1v-7.17h3.91v6.92
		c0,1.59,0.69,2.14,1.93,2.14c0.85,0,2.14-0.55,2.14-2.67v-6.39h3.91V300.39z"/>
	<path class="st0" d="M64.71,288.46h3.73v1.38h0.05c0.76-1.13,1.91-1.72,3.29-1.72c3.75,0,5.33,3.22,5.33,6.58
		c0,3.1-1.66,6.05-5.04,6.05c-1.47,0-2.6-0.55-3.4-1.63h-0.05v5.29h-3.91V288.46z M68.48,294.3c0,2.09,0.6,3.45,2.37,3.45
		c1.75,0,2.35-1.82,2.35-3.45c0-1.52-0.6-3.2-2.32-3.2C69.81,291.1,68.48,291.84,68.48,294.3z"/>
	<path class="st0" d="M86.16,288.46h3.79v2.09H90c0.57-1.52,1.91-2.32,3.59-2.32c0.3,0,0.62,0.02,0.92,0.09v3.56
		c-0.51-0.14-0.97-0.23-1.5-0.23c-1.93,0-2.94,1.33-2.94,2.83v5.91h-3.91V288.46z"/>
	<path class="st0" d="M95.52,292.14c0.07-1.56,0.8-2.58,1.86-3.2c1.06-0.6,2.44-0.83,3.79-0.83c2.83,0,5.56,0.62,5.56,4v5.22
		c0,1.01,0,2.12,0.46,3.06h-3.93c-0.14-0.37-0.18-0.74-0.23-1.13c-1.01,1.06-2.51,1.47-3.93,1.47c-2.28,0-4.07-1.15-4.07-3.61
		c0-3.89,4.23-3.59,6.94-4.14c0.67-0.14,1.04-0.37,1.04-1.1c0-0.9-1.08-1.24-1.89-1.24c-1.08,0-1.77,0.48-1.96,1.49H95.52z
		 M100.58,298.32c1.86,0,2.48-1.06,2.39-3.52c-0.55,0.35-1.56,0.41-2.42,0.64c-0.87,0.21-1.61,0.57-1.61,1.52
		C98.95,297.93,99.71,298.32,100.58,298.32z"/>
	<path class="st0" d="M116.18,290.99h-2.41v5.43c0,0.94,0.55,1.15,1.4,1.15c0.32,0,0.67-0.05,1.01-0.05v2.87
		c-0.71,0.02-1.43,0.11-2.14,0.11c-3.33,0-4.18-0.97-4.18-4.21v-5.31h-1.98v-2.53h1.98v-3.61h3.91v3.61h2.41V290.99z"/>
	<path class="st0" d="M120.85,295.38c0.07,1.63,1.01,2.71,2.67,2.71c0.94,0,1.86-0.44,2.23-1.31h3.66
		c-0.71,2.76-3.27,3.96-5.93,3.96c-3.89,0-6.53-2.35-6.53-6.35c0-3.66,2.92-6.28,6.44-6.28c4.28,0,6.42,3.22,6.23,7.27H120.85z
		 M125.7,293.19c-0.07-1.33-1.01-2.44-2.32-2.44c-1.38,0-2.3,0.99-2.53,2.44H125.7z"/>
	<path class="st0" d="M134.37,296.46c0,0.6,0.25,1.03,0.64,1.33c0.37,0.28,0.9,0.41,1.45,0.41c0.76,0,1.84-0.32,1.84-1.26
		c0-0.92-1.22-1.1-1.91-1.26c-2.46-0.62-5.54-0.69-5.54-3.91c0-2.87,3.1-3.66,5.45-3.66c2.62,0,5.36,0.76,5.5,3.86h-3.61
		c0-0.51-0.18-0.83-0.51-1.04c-0.32-0.21-0.76-0.3-1.24-0.3c-0.64,0-1.68,0.07-1.68,0.9c0,1.13,2.62,1.33,4.42,1.72
		c2.41,0.48,3.04,2.23,3.04,3.22c0,3.2-3.04,4.25-5.73,4.25c-2.83,0-5.73-0.94-5.84-4.28H134.37z"/>
</g>
<g>
	<path class="st0" d="M18.89,311.11c3.7,0,6.3,2.74,6.3,6.32c0,3.59-2.6,6.3-6.3,6.3s-6.28-2.71-6.28-6.3
		C12.61,313.85,15.19,311.11,18.89,311.11z M18.89,320.75c1.82,0,2.39-1.79,2.39-3.31s-0.57-3.33-2.39-3.33
		c-1.82,0-2.37,1.82-2.37,3.33S17.07,320.75,18.89,320.75z"/>
	<path class="st0" d="M26.99,311.46h3.79v1.63h0.05c0.71-1.22,2.32-1.98,3.75-1.98c3.98,0,4.3,2.9,4.3,4.62v7.66h-3.91v-5.77
		c0-1.63,0.18-3.29-1.95-3.29c-1.47,0-2.12,1.24-2.12,2.55v6.51h-3.91V311.46z"/>
	<path class="st0" d="M48.47,306.97h4.28v12.74h7.66v3.68H48.47V306.97z"/>
	<path class="st0" d="M65.39,318.38c0.07,1.63,1.01,2.71,2.67,2.71c0.94,0,1.86-0.44,2.23-1.31h3.66c-0.71,2.76-3.27,3.96-5.93,3.96
		c-3.89,0-6.53-2.35-6.53-6.35c0-3.66,2.92-6.28,6.44-6.28c4.28,0,6.42,3.22,6.23,7.27H65.39z M70.25,316.19
		c-0.07-1.33-1.01-2.44-2.32-2.44c-1.38,0-2.3,0.99-2.53,2.44H70.25z"/>
	<path class="st0" d="M82.74,323.39h-4.51l-3.98-11.93h4.07l2.18,7.89h0.05l2.21-7.89h3.98L82.74,323.39z"/>
	<path class="st0" d="M90.76,318.38c0.07,1.63,1.01,2.71,2.67,2.71c0.94,0,1.86-0.44,2.23-1.31h3.66c-0.71,2.76-3.27,3.96-5.93,3.96
		c-3.89,0-6.53-2.35-6.53-6.35c0-3.66,2.92-6.28,6.44-6.28c4.28,0,6.42,3.22,6.23,7.27H90.76z M95.61,316.19
		c-0.07-1.33-1.01-2.44-2.32-2.44c-1.38,0-2.3,0.99-2.53,2.44H95.61z"/>
	<path class="st0" d="M101.34,306.97h3.91v16.42h-3.91V306.97z"/>
</g>
<g>
	<path class="st0" d="M26.36,333.65h-4.9v12.74h-4.28v-12.74h-4.9v-3.68h14.07V333.65z"/>
	<path class="st0" d="M29.19,341.38c0.07,1.63,1.01,2.71,2.67,2.71c0.94,0,1.86-0.44,2.23-1.31h3.66c-0.71,2.76-3.27,3.96-5.93,3.96
		c-3.89,0-6.53-2.35-6.53-6.35c0-3.66,2.92-6.28,6.44-6.28c4.28,0,6.42,3.22,6.23,7.27H29.19z M34.04,339.19
		c-0.07-1.33-1.01-2.44-2.32-2.44c-1.38,0-2.3,0.99-2.53,2.44H34.04z"/>
	<path class="st0" d="M39.73,334.46h3.79v2.09h0.05c0.57-1.52,1.91-2.32,3.59-2.32c0.3,0,0.62,0.02,0.92,0.09v3.56
		c-0.51-0.14-0.97-0.23-1.49-0.23c-1.93,0-2.94,1.33-2.94,2.83v5.91h-3.91V334.46z"/>
	<path class="st0" d="M49.18,334.46h3.79v1.63h0.05c0.71-1.2,1.98-1.98,3.43-1.98c1.49,0,2.83,0.48,3.47,1.93
		c0.94-1.26,2.12-1.93,3.73-1.93c3.79,0,4.21,2.87,4.21,5.15v7.13h-3.91v-7.01c0-1.29-0.62-2.05-1.63-2.05
		c-1.68,0-1.84,1.29-1.84,3.22v5.84h-3.91v-6.78c0-1.4-0.41-2.28-1.47-2.28c-1.4,0-2,0.8-2,3.24v5.82h-3.91V334.46z"/>
	<path class="st0" d="M77.45,329.97h4.28v12.74h7.66v3.68H77.45V329.97z"/>
	<path class="st0" d="M94.9,332.96h-3.91v-2.99h3.91V332.96z M90.99,334.46h3.91v11.93h-3.91V334.46z"/>
	<path class="st0" d="M98.21,336.99h-1.88v-2.53h1.88c0-3.43,1.2-4.48,4.53-4.48c0.62,0,1.26,0.05,1.89,0.07v2.76
		c-0.37-0.05-0.71-0.07-1.06-0.07c-0.9,0-1.45,0.12-1.45,1.2v0.53h2.35v2.53h-2.35v9.41h-3.91V336.99z"/>
	<path class="st0" d="M108.82,341.38c0.07,1.63,1.01,2.71,2.67,2.71c0.94,0,1.86-0.44,2.23-1.31h3.66
		c-0.71,2.76-3.27,3.96-5.93,3.96c-3.89,0-6.53-2.35-6.53-6.35c0-3.66,2.92-6.28,6.44-6.28c4.28,0,6.42,3.22,6.23,7.27H108.82z
		 M113.67,339.19c-0.07-1.33-1.01-2.44-2.32-2.44c-1.38,0-2.3,0.99-2.53,2.44H113.67z"/>
</g>
<g>
	<path class="st0" d="M13.35,352.97h4.28v16.42h-4.28V352.97z"/>
	<path class="st0" d="M20.25,357.46h3.79v1.63h0.05c0.71-1.22,2.32-1.98,3.75-1.98c3.98,0,4.3,2.9,4.3,4.62v7.66h-3.91v-5.77
		c0-1.63,0.18-3.29-1.95-3.29c-1.47,0-2.12,1.24-2.12,2.55v6.51h-3.91V357.46z"/>
	<path class="st0" d="M37.59,365.46c0,0.6,0.25,1.04,0.64,1.33c0.37,0.28,0.9,0.41,1.45,0.41c0.76,0,1.84-0.32,1.84-1.26
		c0-0.92-1.22-1.1-1.91-1.26c-2.46-0.62-5.54-0.69-5.54-3.91c0-2.87,3.1-3.66,5.45-3.66c2.62,0,5.36,0.76,5.5,3.86H41.4
		c0-0.51-0.18-0.83-0.51-1.04c-0.32-0.21-0.76-0.3-1.24-0.3c-0.64,0-1.68,0.07-1.68,0.9c0,1.13,2.62,1.33,4.42,1.72
		c2.41,0.48,3.04,2.23,3.04,3.22c0,3.2-3.04,4.25-5.73,4.25c-2.83,0-5.73-0.94-5.84-4.28H37.59z"/>
	<path class="st0" d="M58.98,369.39h-3.79v-1.63h-0.05c-0.74,1.22-2.25,1.98-3.63,1.98c-3.43,0-4.42-1.98-4.42-5.1v-7.17H51v6.92
		c0,1.59,0.69,2.14,1.93,2.14c0.85,0,2.14-0.55,2.14-2.67v-6.39h3.91V369.39z"/>
	<path class="st0" d="M61.48,357.46h3.79v2.09h0.05c0.57-1.52,1.91-2.32,3.59-2.32c0.3,0,0.62,0.02,0.92,0.09v3.56
		c-0.51-0.14-0.97-0.23-1.49-0.23c-1.93,0-2.94,1.33-2.94,2.83v5.91h-3.91V357.46z"/>
	<path class="st0" d="M70.85,361.14c0.07-1.56,0.8-2.58,1.86-3.2c1.06-0.6,2.44-0.83,3.79-0.83c2.83,0,5.56,0.62,5.56,4v5.22
		c0,1.01,0,2.12,0.46,3.06H78.6c-0.14-0.37-0.18-0.74-0.23-1.13c-1.01,1.06-2.51,1.47-3.93,1.47c-2.28,0-4.07-1.15-4.07-3.61
		c0-3.89,4.23-3.59,6.94-4.14c0.67-0.14,1.04-0.37,1.04-1.1c0-0.9-1.08-1.24-1.89-1.24c-1.08,0-1.77,0.48-1.96,1.5H70.85z
		 M75.91,367.32c1.86,0,2.48-1.06,2.39-3.52c-0.55,0.34-1.56,0.41-2.42,0.64c-0.87,0.21-1.61,0.58-1.61,1.52
		C74.27,366.93,75.03,367.32,75.91,367.32z"/>
	<path class="st0" d="M84.46,357.46h3.79v1.63h0.05c0.71-1.22,2.32-1.98,3.75-1.98c3.98,0,4.3,2.9,4.3,4.62v7.66h-3.91v-5.77
		c0-1.63,0.18-3.29-1.96-3.29c-1.47,0-2.12,1.24-2.12,2.55v6.51h-3.91V357.46z"/>
	<path class="st0" d="M106.49,361.83c-0.02-1.01-0.92-1.72-1.91-1.72c-2.18,0-2.53,1.86-2.53,3.52c0,1.54,0.67,3.13,2.32,3.13
		c1.36,0,2.05-0.78,2.23-2.05h3.79c-0.34,3.2-2.83,5.04-6,5.04c-3.59,0-6.25-2.46-6.25-6.12c0-3.79,2.41-6.51,6.25-6.51
		c2.97,0,5.61,1.56,5.89,4.71H106.49z"/>
	<path class="st0" d="M115.44,364.38c0.07,1.63,1.01,2.71,2.67,2.71c0.94,0,1.86-0.44,2.23-1.31H124c-0.71,2.76-3.27,3.96-5.93,3.96
		c-3.89,0-6.53-2.35-6.53-6.35c0-3.66,2.92-6.28,6.44-6.28c4.28,0,6.42,3.22,6.23,7.27H115.44z M120.29,362.19
		c-0.07-1.33-1.01-2.44-2.32-2.44c-1.38,0-2.3,0.99-2.53,2.44H120.29z"/>
	<path class="st0" d="M125.95,365.11h4.28v4.28h-4.28V365.11z"/>
</g>
</svg>
