<?xml version="1.0" encoding="utf-8"?>
<!-- Generator: Adobe Illustrator 24.2.3, SVG Export Plug-In . SVG Version: 6.00 Build 0)  -->
<svg version="1.1" id="Layer_1" xmlns="http://www.w3.org/2000/svg" xmlns:xlink="http://www.w3.org/1999/xlink" x="0px" y="0px"
	 viewBox="0 0 160 600" style="enable-background:new 0 0 160 600;" xml:space="preserve">
<style type="text/css">
	.st0{fill:#006098;}
</style>
<g>
	<path class="st0" d="M13.98,44.44h5.21v19.99h-5.21V44.44z"/>
	<path class="st0" d="M26.13,59.64c0,0.73,0.31,1.26,0.78,1.62c0.45,0.34,1.09,0.5,1.76,0.5c0.92,0,2.24-0.39,2.24-1.54
		c0-1.12-1.48-1.34-2.32-1.54c-3-0.76-6.75-0.84-6.75-4.76c0-3.5,3.78-4.45,6.64-4.45c3.19,0,6.52,0.92,6.69,4.7h-4.4
		c0-0.62-0.22-1.01-0.62-1.26c-0.39-0.25-0.92-0.36-1.51-0.36c-0.78,0-2.04,0.08-2.04,1.09c0,1.37,3.19,1.62,5.38,2.1
		c2.94,0.59,3.7,2.72,3.7,3.92c0,3.89-3.7,5.18-6.97,5.18c-3.44,0-6.97-1.15-7.11-5.21H26.13z"/>
	<path class="st0" d="M54.24,65.72c-1.15,3.19-2.86,3.58-6.08,3.58h-2.24v-3.86h1.65c1.09,0,1.9-0.62,1.9-1.62
		c0-0.78-0.92-3.02-1.2-3.81L44.52,49.9h5.04l2.74,9.46h0.06l2.74-9.46h4.87L54.24,65.72z"/>
	<path class="st0" d="M67.54,49.48c4.51,0,7.67,3.33,7.67,7.7s-3.16,7.67-7.67,7.67s-7.64-3.3-7.64-7.67S63.03,49.48,67.54,49.48z
		 M67.54,61.21c2.21,0,2.91-2.18,2.91-4.03s-0.7-4.06-2.91-4.06s-2.88,2.21-2.88,4.06S65.33,61.21,67.54,61.21z"/>
	<path class="st0" d="M91.73,64.43h-4.62v-1.99h-0.06c-0.9,1.48-2.74,2.41-4.42,2.41c-4.17,0-5.38-2.41-5.38-6.22V49.9h4.76v8.43
		c0,1.93,0.84,2.6,2.35,2.6c1.04,0,2.6-0.67,2.6-3.25V49.9h4.76V64.43z"/>
	<path class="st0" d="M94.73,49.9h4.62v2.55h0.06c0.7-1.85,2.32-2.83,4.37-2.83c0.36,0,0.76,0.03,1.12,0.11v4.34
		c-0.62-0.17-1.18-0.28-1.82-0.28c-2.35,0-3.58,1.62-3.58,3.44v7.2h-4.76V49.9z"/>
</g>
<g>
	<path class="st0" d="M13.95,72.44h4.76v19.99h-4.76V72.44z"/>
	<path class="st0" d="M26.49,76.08h-4.76v-3.64h4.76V76.08z M21.73,77.9h4.76v14.53h-4.76V77.9z"/>
	<path class="st0" d="M30.47,80.98h-2.3V77.9h2.3c0-4.17,1.46-5.46,5.52-5.46c0.76,0,1.54,0.06,2.3,0.08v3.36
		c-0.45-0.06-0.87-0.08-1.29-0.08c-1.09,0-1.76,0.14-1.76,1.46v0.64h2.86v3.08h-2.86v11.45h-4.76V80.98z"/>
	<path class="st0" d="M43.35,86.33c0.08,1.99,1.23,3.3,3.25,3.3c1.15,0,2.27-0.53,2.72-1.6h4.45c-0.87,3.36-3.98,4.82-7.22,4.82
		c-4.73,0-7.95-2.86-7.95-7.73c0-4.45,3.56-7.64,7.84-7.64c5.21,0,7.81,3.92,7.59,8.85H43.35z M49.26,83.67
		c-0.08-1.62-1.23-2.97-2.83-2.97c-1.68,0-2.8,1.2-3.08,2.97H49.26z"/>
</g>
<g>
	<path class="st0" d="M18.71,104.08h-4.76v-3.64h4.76V104.08z M13.95,105.9h4.76v14.53h-4.76V105.9z"/>
	<path class="st0" d="M21.62,105.9h4.62v1.99h0.06c0.87-1.48,2.83-2.41,4.56-2.41c4.84,0,5.24,3.53,5.24,5.63v9.32h-4.76v-7.03
		c0-1.99,0.22-4-2.38-4c-1.79,0-2.58,1.51-2.58,3.11v7.92h-4.76V105.9z"/>
	<path class="st0" d="M42.68,115.64c0,0.73,0.31,1.26,0.78,1.62c0.45,0.34,1.09,0.5,1.76,0.5c0.92,0,2.24-0.39,2.24-1.54
		c0-1.12-1.48-1.34-2.32-1.54c-3-0.76-6.75-0.84-6.75-4.76c0-3.5,3.78-4.45,6.64-4.45c3.19,0,6.52,0.92,6.69,4.7h-4.4
		c0-0.62-0.22-1.01-0.62-1.26c-0.39-0.25-0.92-0.36-1.51-0.36c-0.78,0-2.04,0.08-2.04,1.09c0,1.37,3.19,1.62,5.38,2.1
		c2.94,0.59,3.7,2.72,3.7,3.92c0,3.89-3.7,5.18-6.97,5.18c-3.44,0-6.97-1.15-7.11-5.21H42.68z"/>
	<path class="st0" d="M68.66,120.43h-4.62v-1.99h-0.06c-0.9,1.48-2.74,2.41-4.42,2.41c-4.17,0-5.38-2.41-5.38-6.22v-8.74h4.76v8.43
		c0,1.93,0.84,2.6,2.35,2.6c1.04,0,2.6-0.67,2.6-3.25v-7.78h4.76V120.43z"/>
	<path class="st0" d="M71.63,105.9h4.62v2.55h0.06c0.7-1.85,2.32-2.83,4.37-2.83c0.36,0,0.76,0.03,1.12,0.11v4.34
		c-0.62-0.17-1.18-0.28-1.82-0.28c-2.35,0-3.58,1.62-3.58,3.44v7.2h-4.76V105.9z"/>
	<path class="st0" d="M82.94,110.38c0.08-1.9,0.98-3.14,2.27-3.89c1.29-0.73,2.97-1.01,4.62-1.01c3.44,0,6.78,0.76,6.78,4.87v6.36
		c0,1.23,0,2.58,0.56,3.72h-4.79c-0.17-0.45-0.22-0.9-0.28-1.37c-1.23,1.29-3.05,1.79-4.79,1.79c-2.77,0-4.96-1.4-4.96-4.4
		c0-4.73,5.15-4.37,8.46-5.04c0.81-0.17,1.26-0.45,1.26-1.34c0-1.09-1.32-1.51-2.3-1.51c-1.32,0-2.16,0.59-2.38,1.82H82.94z
		 M89.1,117.91c2.27,0,3.02-1.29,2.91-4.28c-0.67,0.42-1.9,0.5-2.94,0.78c-1.06,0.25-1.96,0.7-1.96,1.85
		C87.11,117.43,88.04,117.91,89.1,117.91z"/>
	<path class="st0" d="M99.43,105.9h4.62v1.99h0.06c0.87-1.48,2.83-2.41,4.56-2.41c4.84,0,5.24,3.53,5.24,5.63v9.32h-4.76v-7.03
		c0-1.99,0.22-4-2.38-4c-1.79,0-2.58,1.51-2.58,3.11v7.92h-4.76V105.9z"/>
	<path class="st0" d="M126.17,111.22c-0.03-1.23-1.12-2.1-2.32-2.1c-2.66,0-3.08,2.27-3.08,4.28c0,1.88,0.81,3.81,2.83,3.81
		c1.65,0,2.49-0.95,2.72-2.49h4.62c-0.42,3.89-3.44,6.13-7.31,6.13c-4.37,0-7.62-3-7.62-7.45c0-4.62,2.94-7.92,7.62-7.92
		c3.61,0,6.83,1.9,7.17,5.74H126.17z"/>
	<path class="st0" d="M136.98,114.33c0.08,1.99,1.23,3.3,3.25,3.3c1.15,0,2.27-0.53,2.72-1.6h4.45c-0.87,3.36-3.98,4.82-7.22,4.82
		c-4.73,0-7.95-2.86-7.95-7.73c0-4.45,3.56-7.64,7.84-7.64c5.21,0,7.81,3.92,7.59,8.85H136.98z M142.89,111.67
		c-0.08-1.62-1.23-2.97-2.83-2.97c-1.68,0-2.8,1.2-3.08,2.97H142.89z"/>
</g>
<g>
	<path class="st0" d="M13.78,128.44h4.76v10.3l4.34-4.84h5.52l-5.32,5.49l5.99,9.04h-5.74l-3.56-5.85l-1.23,1.2v4.65h-4.76V128.44z"
		/>
	<path class="st0" d="M33.41,142.33c0.08,1.99,1.23,3.3,3.25,3.3c1.15,0,2.27-0.53,2.72-1.6h4.45c-0.87,3.36-3.98,4.82-7.22,4.82
		c-4.73,0-7.95-2.86-7.95-7.73c0-4.45,3.56-7.64,7.84-7.64c5.21,0,7.81,3.92,7.59,8.85H33.41z M39.32,139.67
		c-0.08-1.62-1.23-2.97-2.83-2.97c-1.68,0-2.8,1.2-3.08,2.97H39.32z"/>
	<path class="st0" d="M50.18,142.33c0.08,1.99,1.23,3.3,3.25,3.3c1.15,0,2.27-0.53,2.72-1.6h4.45c-0.87,3.36-3.98,4.82-7.22,4.82
		c-4.73,0-7.95-2.86-7.95-7.73c0-4.45,3.56-7.64,7.84-7.64c5.21,0,7.81,3.92,7.59,8.85H50.18z M56.09,139.67
		c-0.08-1.62-1.23-2.97-2.83-2.97c-1.68,0-2.8,1.2-3.08,2.97H56.09z"/>
	<path class="st0" d="M62.89,133.9h4.54v1.68h0.06c0.92-1.37,2.32-2.1,4-2.1c4.56,0,6.5,3.92,6.5,8.01c0,3.78-2.02,7.36-6.13,7.36
		c-1.79,0-3.16-0.67-4.14-1.99h-0.06v6.44h-4.76V133.9z M67.48,141.01c0,2.55,0.73,4.2,2.88,4.2c2.13,0,2.86-2.21,2.86-4.2
		c0-1.85-0.73-3.89-2.83-3.89C69.11,137.12,67.48,138.01,67.48,141.01z"/>
	<path class="st0" d="M85.12,132.08h-4.76v-3.64h4.76V132.08z M80.36,133.9h4.76v14.53h-4.76V133.9z"/>
	<path class="st0" d="M88.06,133.9h4.62v1.99h0.06c0.87-1.48,2.83-2.41,4.56-2.41c4.84,0,5.24,3.53,5.24,5.63v9.32h-4.76v-7.03
		c0-1.99,0.22-4-2.38-4c-1.79,0-2.58,1.51-2.58,3.11v7.92h-4.76V133.9z"/>
	<path class="st0" d="M119.51,146.67c0,2.38-0.45,6.86-7.25,6.86c-3.39,0-6.58-0.76-7.14-4.65h4.76c0.11,0.64,0.36,1.04,0.81,1.26
		c0.42,0.22,1.01,0.31,1.74,0.31c2.27,0,2.49-1.6,2.49-3.39v-1.37h-0.06c-0.87,1.34-2.32,2.13-3.86,2.13c-4.4,0-6.38-3.14-6.38-7.22
		c0-3.86,2.27-7.11,6.38-7.11c1.74,0,3.05,0.76,3.89,2.24h0.06v-1.82h4.56V146.67z M112.14,137.12c-2.1,0-2.77,1.85-2.77,3.64
		c0,1.71,0.78,3.42,2.74,3.42c2.02,0,2.88-1.57,2.88-3.39C115,138.94,114.27,137.12,112.14,137.12z"/>
</g>
<g>
	<path class="st0" d="M28.23,176.43h-4.62v-1.99h-0.06c-0.9,1.48-2.74,2.41-4.42,2.41c-4.17,0-5.38-2.41-5.38-6.22v-8.74h4.76v8.43
		c0,1.93,0.84,2.6,2.35,2.6c1.04,0,2.6-0.67,2.6-3.25v-7.78h4.76V176.43z"/>
	<path class="st0" d="M31.14,161.9h4.54v1.68h0.06c0.92-1.37,2.32-2.1,4-2.1c4.56,0,6.5,3.92,6.5,8.01c0,3.78-2.02,7.36-6.13,7.36
		c-1.79,0-3.16-0.67-4.14-1.99H35.9v6.44h-4.76V161.9z M35.73,169.01c0,2.55,0.73,4.2,2.88,4.2c2.13,0,2.86-2.21,2.86-4.2
		c0-1.85-0.73-3.89-2.83-3.89C37.36,165.12,35.73,166.01,35.73,169.01z"/>
	<path class="st0" d="M48,162.99c0.06-4.42,2.97-6.97,7.34-6.97c3.5,0,7,1.85,7,5.71c0,2.72-1.32,3.7-3.44,5.04
		c-1.46,0.95-1.82,1.37-1.85,3.05h-4.42v-1.4c0-2.18,1.23-3.14,2.27-3.89c1.15-0.78,2.24-1.37,2.24-2.77c0-1.06-0.81-1.71-1.82-1.71
		c-1.54,0-2.32,0.92-2.41,2.41v0.53H48z M52.23,171.22h5.21v5.21h-5.21V171.22z"/>
</g>
</svg>
