<?xml version="1.0" encoding="utf-8"?>
<!-- Generator: Adobe Illustrator 24.2.3, SVG Export Plug-In . SVG Version: 6.00 Build 0)  -->
<svg version="1.1" id="Layer_1" xmlns="http://www.w3.org/2000/svg" xmlns:xlink="http://www.w3.org/1999/xlink" x="0px" y="0px"
	 viewBox="0 0 300 600" style="enable-background:new 0 0 300 600;" xml:space="preserve">
<style type="text/css">
	.st0{fill:#FFFFFF;}
</style>
<g>
	<path class="st0" d="M38.62,97.23h3.81v39.98h-3.81V97.23z"/>
	<path class="st0" d="M54.02,108.32h5.88v2.97h-5.88v19.49c0,2.3,0.34,3.64,2.86,3.81c1.01,0,2.02-0.06,3.02-0.17v3.02
		c-1.06,0-2.07,0.11-3.14,0.11c-4.7,0-6.33-1.57-6.27-6.5v-19.77h-5.04v-2.97h5.04v-8.68h3.53V108.32z"/>
	<path class="st0" d="M70.37,97.23v5.99c-0.06,3.25-1.57,6.66-4.98,7.62v-2.41c1.9-0.67,2.74-3.42,2.63-5.26h-2.35v-5.94H70.37z"/>
	<path class="st0" d="M91.37,116.78c-0.17-4.37-3.53-6.33-7.56-6.33c-3.14,0-6.83,1.23-6.83,4.98c0,3.14,3.58,4.26,5.99,4.87
		l4.7,1.06c4.03,0.62,8.23,2.97,8.23,8.01c0,6.27-6.22,8.68-11.59,8.68c-6.72,0-11.31-3.14-11.87-10.19h3.53
		c0.28,4.76,3.81,7.22,8.51,7.22c3.3,0,7.9-1.46,7.9-5.49c0-3.36-3.14-4.48-6.33-5.26l-4.54-1.01c-4.59-1.23-8.06-2.8-8.06-7.73
		c0-5.88,5.77-8.12,10.86-8.12c5.77,0,10.36,3.02,10.58,9.3H91.37z"/>
	<path class="st0" d="M121.17,108.32h5.88v2.97h-5.88v19.49c0,2.3,0.34,3.64,2.86,3.81c1.01,0,2.02-0.06,3.02-0.17v3.02
		c-1.06,0-2.07,0.11-3.14,0.11c-4.7,0-6.33-1.57-6.27-6.5v-19.77h-5.04v-2.97h5.04v-8.68h3.53V108.32z"/>
	<path class="st0" d="M130.29,97.23h3.53v5.66h-3.53V97.23z M130.29,108.32h3.53v28.9h-3.53V108.32z"/>
	<path class="st0" d="M139.25,108.32h3.25v4.87h0.17c1.85-3.47,4.87-5.71,9.46-5.71c3.81,0,7.22,1.85,8.29,5.66
		c1.74-3.81,5.38-5.66,9.18-5.66c6.33,0,9.58,3.3,9.58,10.14v19.6h-3.53v-19.43c0-4.76-1.79-7.34-6.83-7.34
		c-6.1,0-7.84,5.04-7.84,10.42v16.35h-3.53v-19.6c0.06-3.92-1.57-7.17-6.05-7.17c-6.1,0-8.57,4.59-8.62,10.64v16.13h-3.53V108.32z"
		/>
	<path class="st0" d="M186.8,123.72c0.06,5.15,2.74,11.37,9.52,11.37c5.15,0,7.95-3.02,9.07-7.39h3.53
		c-1.51,6.55-5.32,10.36-12.6,10.36c-9.18,0-13.05-7.06-13.05-15.29c0-7.62,3.86-15.29,13.05-15.29c9.3,0,12.99,8.12,12.71,16.24
		H186.8z M205.5,120.75c-0.17-5.32-3.47-10.3-9.18-10.3c-5.77,0-8.96,5.04-9.52,10.3H205.5z"/>
</g>
<g>
	<path class="st0" d="M48.81,167.29H43.1v25.93h-3.53v-25.93h-4.93v-2.97h4.93v-2.63c-0.06-4.98,1.34-8.46,7-8.46
		c1.01,0,1.85,0.06,2.97,0.22v3.02c-0.95-0.17-1.74-0.28-2.58-0.28c-3.92,0-3.81,2.46-3.86,5.6v2.52h5.71V167.29z"/>
	<path class="st0" d="M75.97,178.77c0,8.29-4.82,15.29-13.66,15.29s-13.66-7-13.66-15.29c0-8.29,4.82-15.29,13.66-15.29
		S75.97,170.48,75.97,178.77z M52.17,178.77c0,6.16,3.36,12.32,10.14,12.32s10.14-6.16,10.14-12.32c0-6.16-3.36-12.32-10.14-12.32
		S52.17,172.61,52.17,178.77z"/>
	<path class="st0" d="M80.01,164.32h3.25v6.78h0.11c1.79-4.65,5.71-7.39,10.92-7.17v3.53c-6.38-0.34-10.75,4.37-10.75,10.36v15.4
		h-3.53V164.32z"/>
	<path class="st0" d="M111.87,173.17c0.34-6.78,5.1-9.69,11.7-9.69c5.1,0,10.64,1.57,10.64,9.3v15.34c0,1.34,0.67,2.13,2.07,2.13
		c0.39,0,0.84-0.11,1.12-0.22v2.97c-0.78,0.17-1.34,0.22-2.3,0.22c-3.58,0-4.14-2.02-4.14-5.04h-0.11
		c-2.46,3.75-4.98,5.88-10.53,5.88c-5.32,0-9.69-2.63-9.69-8.46c0-8.12,7.9-8.4,15.51-9.3c2.91-0.34,4.54-0.73,4.54-3.92
		c0-4.76-3.42-5.94-7.56-5.94c-4.37,0-7.62,2.02-7.73,6.72H111.87z M130.69,177.43h-0.11c-0.45,0.84-2.02,1.12-2.97,1.29
		c-5.99,1.06-13.44,1.01-13.44,6.66c0,3.53,3.14,5.71,6.44,5.71c5.38,0,10.14-3.42,10.08-9.07V177.43z"/>
</g>
<g>
	<path class="st0" d="M37.73,209.23h3.53v39.98h-3.53V209.23z"/>
	<path class="st0" d="M48.93,235.72c0.06,5.15,2.74,11.37,9.52,11.37c5.15,0,7.95-3.02,9.07-7.39h3.53
		c-1.51,6.55-5.32,10.36-12.6,10.36c-9.18,0-13.05-7.06-13.05-15.29c0-7.62,3.86-15.29,13.05-15.29c9.3,0,12.99,8.12,12.71,16.24
		H48.93z M67.63,232.75c-0.17-5.32-3.47-10.3-9.18-10.3c-5.77,0-8.96,5.04-9.52,10.3H67.63z"/>
	<path class="st0" d="M70.77,220.32h3.92l9.07,25.37h0.11l8.96-25.37h3.64l-10.81,28.9h-3.75L70.77,220.32z"/>
	<path class="st0" d="M99.83,235.72c0.06,5.15,2.74,11.37,9.52,11.37c5.15,0,7.95-3.02,9.07-7.39h3.53
		c-1.51,6.55-5.32,10.36-12.6,10.36c-9.18,0-13.05-7.06-13.05-15.29c0-7.62,3.86-15.29,13.05-15.29c9.3,0,12.99,8.12,12.71,16.24
		H99.83z M118.53,232.75c-0.17-5.32-3.47-10.3-9.18-10.3c-5.77,0-8.96,5.04-9.52,10.3H118.53z"/>
	<path class="st0" d="M125.93,209.23h3.53v39.98h-3.53V209.23z"/>
	<path class="st0" d="M168.04,228.78c-0.17-4.37-3.53-6.33-7.56-6.33c-3.14,0-6.83,1.23-6.83,4.98c0,3.14,3.58,4.26,5.99,4.87
		l4.7,1.06c4.03,0.62,8.23,2.97,8.23,8.01c0,6.27-6.22,8.68-11.59,8.68c-6.72,0-11.31-3.14-11.87-10.19h3.53
		c0.28,4.76,3.81,7.22,8.51,7.22c3.3,0,7.9-1.46,7.9-5.49c0-3.36-3.14-4.48-6.33-5.26l-4.54-1.01c-4.59-1.23-8.06-2.8-8.06-7.73
		c0-5.88,5.77-8.12,10.86-8.12c5.77,0,10.36,3.02,10.58,9.3H168.04z"/>
	<path class="st0" d="M178.4,235.72c0.06,5.15,2.74,11.37,9.52,11.37c5.15,0,7.95-3.02,9.07-7.39h3.53
		c-1.51,6.55-5.32,10.36-12.6,10.36c-9.18,0-13.05-7.06-13.05-15.29c0-7.62,3.86-15.29,13.05-15.29c9.3,0,12.99,8.12,12.71,16.24
		H178.4z M197.1,232.75c-0.17-5.32-3.47-10.3-9.18-10.3c-5.77,0-8.96,5.04-9.52,10.3H197.1z"/>
	<path class="st0" d="M209.14,220.32h5.88v2.97h-5.88v19.49c0,2.3,0.34,3.64,2.86,3.81c1.01,0,2.02-0.06,3.02-0.17v3.02
		c-1.06,0-2.07,0.11-3.14,0.11c-4.7,0-6.33-1.57-6.27-6.5v-19.77h-5.04v-2.97h5.04v-8.68h3.53V220.32z"/>
	<path class="st0" d="M219.44,249.22v-5.94h4.7v5.94H219.44z"/>
</g>
</svg>
