<?xml version="1.0" encoding="utf-8"?>
<!-- Generator: Adobe Illustrator 24.2.3, SVG Export Plug-In . SVG Version: 6.00 Build 0)  -->
<svg version="1.1" id="Layer_1" xmlns="http://www.w3.org/2000/svg" xmlns:xlink="http://www.w3.org/1999/xlink" x="0px" y="0px"
	 viewBox="0 0 160 600" style="enable-background:new 0 0 160 600;" xml:space="preserve">
<style type="text/css">
	.st0{fill:#231F20;}
</style>
<g>
	<path class="st0" d="M10.58,586.7v-4.29h0.57v3.79h2.12v0.51H10.58z"/>
	<path class="st0" d="M13.75,584.58c0-0.51,0.05-0.92,0.16-1.23s0.26-0.55,0.47-0.72s0.47-0.25,0.78-0.25
		c0.23,0,0.43,0.05,0.61,0.14c0.17,0.09,0.32,0.23,0.43,0.4s0.2,0.39,0.27,0.64s0.1,0.59,0.1,1.01c0,0.5-0.05,0.91-0.16,1.22
		c-0.1,0.31-0.26,0.55-0.46,0.72s-0.47,0.25-0.78,0.25c-0.41,0-0.74-0.15-0.98-0.45C13.89,585.97,13.75,585.39,13.75,584.58z
		 M14.29,584.58c0,0.71,0.08,1.17,0.25,1.41c0.17,0.23,0.37,0.35,0.61,0.35s0.45-0.12,0.61-0.35s0.25-0.7,0.25-1.41
		c0-0.71-0.08-1.18-0.25-1.41s-0.37-0.35-0.62-0.35c-0.24,0-0.44,0.1-0.58,0.31C14.38,583.39,14.29,583.88,14.29,584.58z"/>
	<path class="st0" d="M18.05,584.37c-0.22-0.08-0.38-0.19-0.49-0.34s-0.16-0.33-0.16-0.53c0-0.31,0.11-0.58,0.34-0.79
		s0.52-0.32,0.9-0.32c0.38,0,0.68,0.11,0.91,0.33c0.23,0.22,0.34,0.48,0.34,0.8c0,0.2-0.05,0.37-0.16,0.52s-0.26,0.26-0.48,0.34
		c0.26,0.09,0.46,0.22,0.6,0.42s0.21,0.42,0.21,0.69c0,0.37-0.13,0.68-0.39,0.93s-0.6,0.38-1.03,0.38s-0.77-0.12-1.03-0.38
		s-0.39-0.56-0.39-0.94c0-0.28,0.07-0.51,0.21-0.7S17.79,584.44,18.05,584.37z M17.77,585.46c0,0.15,0.04,0.3,0.11,0.44
		s0.18,0.25,0.32,0.33c0.14,0.08,0.29,0.12,0.45,0.12c0.25,0,0.46-0.08,0.62-0.24s0.25-0.37,0.25-0.62c0-0.25-0.08-0.46-0.25-0.63
		s-0.38-0.25-0.63-0.25c-0.25,0-0.45,0.08-0.62,0.25S17.77,585.21,17.77,585.46z M17.94,583.48c0,0.2,0.07,0.37,0.2,0.5
		s0.3,0.19,0.51,0.19c0.2,0,0.37-0.06,0.5-0.19s0.19-0.29,0.19-0.47c0-0.19-0.07-0.36-0.2-0.49c-0.13-0.13-0.3-0.2-0.5-0.2
		c-0.2,0-0.37,0.06-0.5,0.19S17.94,583.3,17.94,583.48z"/>
	<path class="st0" d="M23.4,586.19v0.51h-2.84c0-0.13,0.02-0.25,0.06-0.37c0.07-0.19,0.19-0.38,0.35-0.57s0.39-0.4,0.69-0.65
		c0.47-0.38,0.78-0.69,0.95-0.91c0.16-0.22,0.25-0.43,0.25-0.63c0-0.21-0.07-0.39-0.22-0.53c-0.15-0.14-0.34-0.22-0.58-0.22
		c-0.25,0-0.46,0.08-0.61,0.23s-0.23,0.36-0.23,0.63l-0.54-0.06c0.04-0.4,0.18-0.71,0.42-0.92s0.57-0.32,0.98-0.32
		c0.41,0,0.74,0.11,0.98,0.34s0.36,0.51,0.36,0.85c0,0.17-0.04,0.34-0.11,0.51s-0.19,0.34-0.35,0.52s-0.43,0.44-0.81,0.76
		c-0.32,0.27-0.52,0.45-0.61,0.54c-0.09,0.1-0.16,0.19-0.22,0.29H23.4z"/>
	<path class="st0" d="M24.05,584.58c0-0.51,0.05-0.92,0.16-1.23s0.26-0.55,0.47-0.72s0.47-0.25,0.78-0.25
		c0.23,0,0.43,0.05,0.61,0.14c0.17,0.09,0.32,0.23,0.43,0.4s0.2,0.39,0.27,0.64s0.1,0.59,0.1,1.01c0,0.5-0.05,0.91-0.16,1.22
		c-0.1,0.31-0.26,0.55-0.46,0.72s-0.47,0.25-0.78,0.25c-0.41,0-0.74-0.15-0.98-0.45C24.19,585.97,24.05,585.39,24.05,584.58z
		 M24.59,584.58c0,0.71,0.08,1.17,0.25,1.41c0.17,0.23,0.37,0.35,0.61,0.35s0.45-0.12,0.61-0.35s0.25-0.7,0.25-1.41
		c0-0.71-0.08-1.18-0.25-1.41s-0.37-0.35-0.62-0.35c-0.24,0-0.44,0.1-0.58,0.31C24.68,583.39,24.59,583.88,24.59,584.58z"/>
	<path class="st0" d="M27.58,584.58c0-0.51,0.05-0.92,0.16-1.23s0.26-0.55,0.47-0.72s0.47-0.25,0.78-0.25
		c0.23,0,0.43,0.05,0.61,0.14c0.17,0.09,0.32,0.23,0.43,0.4s0.2,0.39,0.27,0.64s0.1,0.59,0.1,1.01c0,0.5-0.05,0.91-0.16,1.22
		c-0.1,0.31-0.26,0.55-0.46,0.72s-0.47,0.25-0.78,0.25c-0.41,0-0.74-0.15-0.98-0.45C27.72,585.97,27.58,585.39,27.58,584.58z
		 M28.12,584.58c0,0.71,0.08,1.17,0.25,1.41c0.17,0.23,0.37,0.35,0.61,0.35s0.45-0.12,0.61-0.35s0.25-0.7,0.25-1.41
		c0-0.71-0.08-1.18-0.25-1.41s-0.37-0.35-0.62-0.35c-0.24,0-0.44,0.1-0.58,0.31C28.21,583.39,28.12,583.88,28.12,584.58z"/>
	<path class="st0" d="M31.11,584.58c0-0.51,0.05-0.92,0.16-1.23s0.26-0.55,0.47-0.72s0.47-0.25,0.78-0.25
		c0.23,0,0.43,0.05,0.61,0.14c0.17,0.09,0.32,0.23,0.43,0.4s0.2,0.39,0.27,0.64s0.1,0.59,0.1,1.01c0,0.5-0.05,0.91-0.16,1.22
		c-0.1,0.31-0.26,0.55-0.46,0.72s-0.47,0.25-0.78,0.25c-0.41,0-0.74-0.15-0.98-0.45C31.25,585.97,31.11,585.39,31.11,584.58z
		 M31.65,584.58c0,0.71,0.08,1.17,0.25,1.41c0.17,0.23,0.37,0.35,0.61,0.35s0.45-0.12,0.61-0.35s0.25-0.7,0.25-1.41
		c0-0.71-0.08-1.18-0.25-1.41s-0.37-0.35-0.62-0.35c-0.24,0-0.44,0.1-0.58,0.31C31.74,583.39,31.65,583.88,31.65,584.58z"/>
	<path class="st0" d="M34.45,582.97v-0.51h2.78v0.41c-0.27,0.29-0.54,0.68-0.81,1.16s-0.48,0.98-0.62,1.49
		c-0.11,0.36-0.17,0.75-0.2,1.18h-0.54c0.01-0.34,0.07-0.75,0.2-1.22s0.31-0.94,0.55-1.38c0.24-0.44,0.49-0.82,0.76-1.12H34.45z"/>
	<path class="st0" d="M39.51,586.7h-0.53v-3.36c-0.13,0.12-0.29,0.24-0.5,0.36s-0.39,0.21-0.56,0.27v-0.51
		c0.29-0.14,0.55-0.31,0.77-0.5s0.38-0.39,0.47-0.57h0.34V586.7z"/>
	<path class="st0" d="M40.71,585.58l0.55-0.05c0.04,0.27,0.14,0.47,0.29,0.61c0.15,0.14,0.33,0.2,0.54,0.2
		c0.25,0,0.47-0.1,0.64-0.29s0.26-0.45,0.26-0.76c0-0.3-0.08-0.54-0.25-0.71s-0.39-0.26-0.66-0.26c-0.17,0-0.32,0.04-0.46,0.12
		s-0.24,0.18-0.32,0.3l-0.5-0.06l0.42-2.21h2.14v0.5h-1.71l-0.23,1.15c0.26-0.18,0.53-0.27,0.81-0.27c0.38,0,0.69,0.13,0.95,0.39
		s0.39,0.59,0.39,1c0,0.39-0.11,0.72-0.34,1.01c-0.28,0.35-0.65,0.52-1.13,0.52c-0.39,0-0.71-0.11-0.96-0.33
		S40.74,585.94,40.71,585.58z"/>
	<path class="st0" d="M44.11,582.97v-0.51h2.78v0.41c-0.27,0.29-0.54,0.68-0.81,1.16s-0.48,0.98-0.62,1.49
		c-0.11,0.36-0.17,0.75-0.2,1.18h-0.54c0.01-0.34,0.07-0.75,0.2-1.22s0.31-0.94,0.55-1.38c0.24-0.44,0.49-0.82,0.76-1.12H44.11z"/>
	<path class="st0" d="M47.62,587.89v-5.49h1.16v0.44h-0.64v4.61h0.64v0.44H47.62z"/>
	<path class="st0" d="M51.35,585.7l0.54,0.07c-0.09,0.32-0.25,0.57-0.48,0.74s-0.53,0.26-0.89,0.26c-0.46,0-0.82-0.14-1.08-0.42
		s-0.4-0.67-0.4-1.18c0-0.52,0.13-0.93,0.4-1.22s0.62-0.43,1.05-0.43c0.42,0,0.76,0.14,1.02,0.42s0.4,0.68,0.4,1.2
		c0,0.03,0,0.08,0,0.14h-2.32c0.02,0.34,0.12,0.6,0.29,0.79s0.39,0.27,0.65,0.27c0.19,0,0.36-0.05,0.5-0.15
		S51.27,585.92,51.35,585.7z M49.62,584.85h1.74c-0.02-0.26-0.09-0.46-0.2-0.59c-0.17-0.2-0.39-0.3-0.65-0.3
		c-0.24,0-0.45,0.08-0.61,0.24S49.64,584.57,49.62,584.85z"/>
	<path class="st0" d="M52.16,586.7l1.14-1.62l-1.05-1.49h0.66l0.48,0.73c0.09,0.14,0.16,0.25,0.22,0.35
		c0.09-0.13,0.17-0.24,0.24-0.34l0.52-0.74h0.63l-1.08,1.46l1.16,1.65h-0.65l-0.64-0.97l-0.17-0.26l-0.82,1.23H52.16z"/>
	<path class="st0" d="M55.59,587.89v-4.3h0.48v0.4c0.11-0.16,0.24-0.28,0.38-0.36c0.14-0.08,0.32-0.12,0.52-0.12
		c0.27,0,0.5,0.07,0.7,0.21s0.36,0.33,0.46,0.58c0.1,0.25,0.16,0.52,0.16,0.82c0,0.32-0.06,0.6-0.17,0.86
		c-0.11,0.25-0.28,0.45-0.5,0.59c-0.22,0.13-0.45,0.2-0.69,0.2c-0.18,0-0.33-0.04-0.47-0.11s-0.25-0.17-0.34-0.28v1.51H55.59z
		 M56.07,585.16c0,0.4,0.08,0.7,0.24,0.89s0.36,0.29,0.59,0.29c0.23,0,0.44-0.1,0.6-0.3s0.25-0.51,0.25-0.92
		c0-0.4-0.08-0.69-0.24-0.89s-0.36-0.3-0.58-0.3c-0.22,0-0.42,0.11-0.6,0.32S56.07,584.76,56.07,585.16z"/>
	<path class="st0" d="M58.93,584.58c0-0.51,0.05-0.92,0.16-1.23s0.26-0.55,0.47-0.72s0.47-0.25,0.78-0.25
		c0.23,0,0.43,0.05,0.61,0.14c0.17,0.09,0.32,0.23,0.43,0.4s0.2,0.39,0.27,0.64s0.1,0.59,0.1,1.01c0,0.5-0.05,0.91-0.16,1.22
		c-0.1,0.31-0.26,0.55-0.46,0.72s-0.47,0.25-0.78,0.25c-0.41,0-0.74-0.15-0.98-0.45C59.07,585.97,58.93,585.39,58.93,584.58z
		 M59.47,584.58c0,0.71,0.08,1.17,0.25,1.41c0.17,0.23,0.37,0.35,0.61,0.35s0.45-0.12,0.61-0.35s0.25-0.7,0.25-1.41
		c0-0.71-0.08-1.18-0.25-1.41s-0.37-0.35-0.62-0.35c-0.24,0-0.44,0.1-0.58,0.31C59.56,583.39,59.47,583.88,59.47,584.58z"/>
	<path class="st0" d="M63.23,584.37c-0.22-0.08-0.38-0.19-0.49-0.34s-0.16-0.33-0.16-0.53c0-0.31,0.11-0.58,0.34-0.79
		s0.52-0.32,0.9-0.32c0.38,0,0.68,0.11,0.91,0.33c0.23,0.22,0.34,0.48,0.34,0.8c0,0.2-0.05,0.37-0.16,0.52s-0.26,0.26-0.48,0.34
		c0.26,0.09,0.46,0.22,0.6,0.42s0.21,0.42,0.21,0.69c0,0.37-0.13,0.68-0.39,0.93s-0.6,0.38-1.03,0.38s-0.77-0.12-1.03-0.38
		s-0.39-0.56-0.39-0.94c0-0.28,0.07-0.51,0.21-0.7S62.96,584.44,63.23,584.37z M62.95,585.46c0,0.15,0.04,0.3,0.11,0.44
		s0.18,0.25,0.32,0.33c0.14,0.08,0.29,0.12,0.45,0.12c0.25,0,0.46-0.08,0.62-0.24s0.25-0.37,0.25-0.62c0-0.25-0.08-0.46-0.25-0.63
		s-0.38-0.25-0.63-0.25c-0.25,0-0.45,0.08-0.62,0.25S62.95,585.21,62.95,585.46z M63.12,583.48c0,0.2,0.07,0.37,0.2,0.5
		s0.3,0.19,0.51,0.19c0.2,0,0.37-0.06,0.5-0.19s0.19-0.29,0.19-0.47c0-0.19-0.07-0.36-0.2-0.49c-0.13-0.13-0.3-0.2-0.5-0.2
		c-0.2,0-0.37,0.06-0.5,0.19S63.12,583.3,63.12,583.48z"/>
	<path class="st0" d="M68.58,586.19v0.51h-2.84c0-0.13,0.02-0.25,0.06-0.37c0.07-0.19,0.19-0.38,0.35-0.57s0.39-0.4,0.69-0.65
		c0.47-0.38,0.78-0.69,0.95-0.91c0.16-0.22,0.25-0.43,0.25-0.63c0-0.21-0.07-0.39-0.22-0.53c-0.15-0.14-0.34-0.22-0.58-0.22
		c-0.25,0-0.46,0.08-0.61,0.23s-0.23,0.36-0.23,0.63l-0.54-0.06c0.04-0.4,0.18-0.71,0.42-0.92s0.57-0.32,0.98-0.32
		c0.41,0,0.74,0.11,0.98,0.34s0.36,0.51,0.36,0.85c0,0.17-0.04,0.34-0.11,0.51s-0.19,0.34-0.35,0.52s-0.43,0.44-0.81,0.76
		c-0.32,0.27-0.52,0.45-0.61,0.54c-0.09,0.1-0.16,0.19-0.22,0.29H68.58z"/>
	<path class="st0" d="M71.06,586.7h-0.53v-3.36c-0.13,0.12-0.29,0.24-0.5,0.36s-0.39,0.21-0.56,0.27v-0.51
		c0.29-0.14,0.55-0.31,0.77-0.5s0.38-0.39,0.47-0.57h0.34V586.7z"/>
	<path class="st0" d="M73.25,587.89h-1.16v-0.44h0.64v-4.61h-0.64v-0.44h1.16V587.89z"/>
	<path class="st0" d="M74.18,587.89v-5.49h1.16v0.44h-0.64v4.61h0.64v0.44H74.18z"/>
	<path class="st0" d="M75.46,586.7l1.65-4.29h0.61l1.76,4.29h-0.65l-0.5-1.3h-1.8l-0.47,1.3H75.46z M76.7,584.94h1.46l-0.45-1.19
		c-0.14-0.36-0.24-0.66-0.3-0.89c-0.05,0.28-0.13,0.55-0.23,0.82L76.7,584.94z"/>
	<path class="st0" d="M80.01,586.7v-4.29h0.53v4.29H80.01z"/>
	<path class="st0" d="M81.39,586.7v-4.29h0.53v4.29H81.39z"/>
	<path class="st0" d="M84.17,585.32l0.54-0.05c0.03,0.21,0.08,0.39,0.18,0.53c0.09,0.14,0.24,0.25,0.43,0.33
		c0.2,0.09,0.42,0.13,0.66,0.13c0.22,0,0.41-0.03,0.57-0.1s0.29-0.15,0.37-0.27c0.08-0.11,0.12-0.23,0.12-0.37
		c0-0.13-0.04-0.25-0.12-0.35c-0.08-0.1-0.21-0.18-0.39-0.25c-0.12-0.04-0.37-0.11-0.76-0.21c-0.39-0.09-0.67-0.18-0.83-0.27
		c-0.21-0.11-0.36-0.24-0.46-0.4c-0.1-0.16-0.15-0.34-0.15-0.53c0-0.22,0.06-0.42,0.18-0.61c0.12-0.19,0.3-0.33,0.54-0.43
		s0.5-0.15,0.79-0.15c0.32,0,0.6,0.05,0.84,0.15c0.24,0.1,0.43,0.25,0.56,0.45s0.2,0.42,0.21,0.68l-0.54,0.04
		c-0.03-0.27-0.13-0.48-0.3-0.62s-0.42-0.21-0.75-0.21c-0.34,0-0.59,0.06-0.75,0.19c-0.16,0.12-0.24,0.28-0.24,0.46
		c0,0.15,0.06,0.28,0.17,0.38c0.11,0.1,0.39,0.2,0.86,0.31c0.46,0.1,0.78,0.2,0.95,0.27c0.25,0.12,0.43,0.26,0.55,0.44
		c0.12,0.18,0.18,0.38,0.18,0.61c0,0.23-0.07,0.44-0.2,0.65c-0.13,0.2-0.32,0.36-0.56,0.47c-0.25,0.11-0.52,0.17-0.83,0.17
		c-0.39,0-0.71-0.06-0.98-0.17s-0.47-0.28-0.62-0.51C84.25,585.87,84.18,585.61,84.17,585.32z"/>
	<path class="st0" d="M89.52,586.23l0.08,0.47c-0.15,0.03-0.28,0.05-0.4,0.05c-0.19,0-0.34-0.03-0.45-0.09s-0.18-0.14-0.22-0.24
		c-0.04-0.1-0.06-0.31-0.06-0.62V584h-0.39v-0.41h0.39v-0.77l0.52-0.32v1.09h0.53V584h-0.53v1.82c0,0.15,0.01,0.25,0.03,0.29
		c0.02,0.04,0.05,0.08,0.09,0.1s0.1,0.04,0.18,0.04C89.35,586.25,89.42,586.24,89.52,586.23z"/>
	<path class="st0" d="M92.18,586.32c-0.2,0.17-0.38,0.28-0.56,0.35s-0.37,0.1-0.58,0.1c-0.34,0-0.6-0.08-0.79-0.25
		c-0.18-0.17-0.28-0.38-0.28-0.64c0-0.15,0.03-0.29,0.1-0.42c0.07-0.12,0.16-0.23,0.27-0.3c0.11-0.08,0.24-0.13,0.38-0.17
		c0.1-0.03,0.26-0.05,0.47-0.08c0.43-0.05,0.74-0.11,0.94-0.18c0-0.07,0-0.12,0-0.14c0-0.21-0.05-0.37-0.15-0.45
		c-0.13-0.12-0.33-0.18-0.6-0.18c-0.25,0-0.43,0.04-0.55,0.13c-0.12,0.09-0.21,0.24-0.26,0.46l-0.52-0.07
		c0.05-0.22,0.12-0.4,0.23-0.53s0.26-0.24,0.47-0.31c0.2-0.07,0.44-0.11,0.71-0.11c0.27,0,0.48,0.03,0.65,0.09s0.29,0.14,0.37,0.24
		s0.13,0.21,0.16,0.36c0.02,0.09,0.03,0.25,0.03,0.49v0.7c0,0.49,0.01,0.8,0.03,0.93c0.02,0.13,0.07,0.25,0.13,0.37h-0.55
		C92.23,586.59,92.19,586.46,92.18,586.32z M92.13,585.14c-0.19,0.08-0.48,0.14-0.86,0.2c-0.22,0.03-0.37,0.07-0.46,0.11
		s-0.16,0.1-0.21,0.17c-0.05,0.08-0.07,0.16-0.07,0.25c0,0.14,0.05,0.26,0.16,0.35c0.11,0.09,0.26,0.14,0.47,0.14
		c0.2,0,0.38-0.04,0.54-0.13c0.16-0.09,0.27-0.21,0.35-0.36c0.06-0.12,0.08-0.29,0.08-0.53V585.14z"/>
	<path class="st0" d="M94.66,586.23l0.08,0.47c-0.15,0.03-0.28,0.05-0.4,0.05c-0.19,0-0.34-0.03-0.45-0.09s-0.18-0.14-0.22-0.24
		c-0.04-0.1-0.06-0.31-0.06-0.62V584h-0.39v-0.41h0.39v-0.77l0.52-0.32v1.09h0.53V584h-0.53v1.82c0,0.15,0.01,0.25,0.03,0.29
		c0.02,0.04,0.05,0.08,0.09,0.1s0.1,0.04,0.18,0.04C94.49,586.25,94.57,586.24,94.66,586.23z"/>
	<path class="st0" d="M97.32,585.7l0.54,0.07c-0.09,0.32-0.25,0.57-0.48,0.74s-0.53,0.26-0.89,0.26c-0.46,0-0.82-0.14-1.08-0.42
		c-0.27-0.28-0.4-0.67-0.4-1.18c0-0.52,0.13-0.93,0.4-1.22s0.62-0.43,1.05-0.43c0.42,0,0.76,0.14,1.02,0.42s0.4,0.68,0.4,1.2
		c0,0.03,0,0.08,0,0.14h-2.32c0.02,0.34,0.12,0.6,0.29,0.79s0.39,0.27,0.65,0.27c0.19,0,0.36-0.05,0.5-0.15
		S97.24,585.92,97.32,585.7z M95.59,584.85h1.74c-0.02-0.26-0.09-0.46-0.2-0.59c-0.17-0.2-0.39-0.3-0.65-0.3
		c-0.24,0-0.45,0.08-0.61,0.24C95.7,584.36,95.61,584.57,95.59,584.85z"/>
	<path class="st0" d="M98.4,585.77l0.52-0.08c0.03,0.21,0.11,0.37,0.25,0.48c0.13,0.11,0.32,0.17,0.56,0.17
		c0.24,0,0.42-0.05,0.54-0.15c0.12-0.1,0.18-0.21,0.18-0.35c0-0.12-0.05-0.21-0.16-0.28c-0.07-0.05-0.25-0.11-0.54-0.18
		c-0.39-0.1-0.66-0.18-0.8-0.25c-0.15-0.07-0.26-0.17-0.34-0.29c-0.08-0.13-0.12-0.27-0.12-0.42c0-0.14,0.03-0.27,0.09-0.38
		s0.15-0.22,0.26-0.29c0.08-0.06,0.19-0.11,0.34-0.15c0.14-0.04,0.29-0.06,0.46-0.06c0.24,0,0.46,0.04,0.64,0.11
		c0.19,0.07,0.32,0.17,0.41,0.29c0.09,0.12,0.15,0.28,0.18,0.48l-0.52,0.07c-0.02-0.16-0.09-0.29-0.2-0.38s-0.27-0.13-0.48-0.13
		c-0.24,0-0.42,0.04-0.52,0.12S99,584.25,99,584.35c0,0.07,0.02,0.13,0.06,0.18c0.04,0.06,0.11,0.1,0.2,0.14
		c0.05,0.02,0.21,0.06,0.47,0.13c0.37,0.1,0.63,0.18,0.78,0.24c0.15,0.06,0.26,0.16,0.35,0.28s0.13,0.27,0.13,0.45
		c0,0.18-0.05,0.34-0.15,0.5c-0.1,0.16-0.25,0.28-0.44,0.36c-0.19,0.08-0.41,0.13-0.66,0.13c-0.4,0-0.71-0.08-0.92-0.25
		S98.46,586.1,98.4,585.77z"/>
	<path class="st0" d="M102.42,587.89h-1.16v-0.44h0.64v-4.61h-0.64v-0.44h1.16V587.89z"/>
	<path class="st0" d="M103.35,587.89v-5.49h1.16v0.44h-0.64v4.61h0.64v0.44H103.35z"/>
	<path class="st0" d="M105.17,586.7v-4.29h1.48c0.33,0,0.59,0.02,0.76,0.06c0.25,0.06,0.46,0.16,0.63,0.31
		c0.23,0.19,0.4,0.44,0.51,0.73c0.11,0.3,0.17,0.64,0.17,1.02c0,0.33-0.04,0.62-0.11,0.87s-0.17,0.46-0.29,0.63
		s-0.25,0.29-0.39,0.39c-0.14,0.1-0.31,0.17-0.51,0.22c-0.2,0.05-0.43,0.07-0.69,0.07H105.17z M105.74,586.19h0.92
		c0.28,0,0.5-0.03,0.67-0.08c0.16-0.05,0.29-0.13,0.38-0.22c0.13-0.13,0.24-0.32,0.31-0.54s0.11-0.5,0.11-0.83
		c0-0.45-0.07-0.79-0.22-1.04c-0.15-0.24-0.33-0.4-0.54-0.49c-0.15-0.06-0.4-0.09-0.74-0.09h-0.9V586.19z"/>
	<path class="st0" d="M112.67,585.19l0.57,0.14c-0.12,0.47-0.33,0.82-0.64,1.07c-0.31,0.25-0.69,0.37-1.14,0.37
		c-0.46,0-0.84-0.09-1.13-0.28c-0.29-0.19-0.51-0.46-0.66-0.82s-0.23-0.74-0.23-1.15c0-0.45,0.08-0.84,0.26-1.17
		s0.41-0.59,0.73-0.76c0.31-0.17,0.66-0.26,1.04-0.26c0.43,0,0.79,0.11,1.08,0.33s0.5,0.53,0.61,0.92l-0.56,0.13
		c-0.1-0.31-0.24-0.54-0.43-0.68s-0.43-0.21-0.71-0.21c-0.33,0-0.61,0.08-0.83,0.24s-0.38,0.37-0.47,0.64
		c-0.09,0.27-0.13,0.54-0.13,0.83c0,0.37,0.05,0.68,0.16,0.96c0.11,0.27,0.27,0.48,0.5,0.61s0.47,0.2,0.73,0.2
		c0.32,0,0.59-0.09,0.81-0.28S112.59,585.56,112.67,585.19z"/>
	<path class="st0" d="M114.02,586.7v-0.6h0.6v0.6c0,0.22-0.04,0.4-0.12,0.54c-0.08,0.13-0.2,0.24-0.37,0.31l-0.15-0.23
		c0.11-0.05,0.19-0.12,0.25-0.22s0.08-0.23,0.09-0.41H114.02z"/>
	<path class="st0" d="M117.52,585.02v-0.5l1.82,0v1.59c-0.28,0.22-0.57,0.39-0.86,0.5c-0.3,0.11-0.6,0.17-0.91,0.17
		c-0.42,0-0.81-0.09-1.15-0.27s-0.6-0.44-0.78-0.78s-0.26-0.72-0.26-1.15c0-0.42,0.09-0.81,0.26-1.17c0.17-0.36,0.43-0.63,0.75-0.81
		s0.71-0.26,1.13-0.26c0.31,0,0.59,0.05,0.84,0.15c0.25,0.1,0.45,0.24,0.59,0.42s0.25,0.41,0.33,0.7l-0.51,0.14
		c-0.06-0.22-0.14-0.39-0.24-0.52s-0.23-0.22-0.41-0.3c-0.18-0.07-0.38-0.11-0.59-0.11c-0.26,0-0.48,0.04-0.67,0.12
		c-0.19,0.08-0.34,0.18-0.46,0.31s-0.21,0.27-0.27,0.42c-0.11,0.27-0.16,0.55-0.16,0.86c0,0.38,0.07,0.7,0.2,0.96
		c0.13,0.26,0.32,0.45,0.58,0.57s0.52,0.19,0.8,0.19c0.25,0,0.49-0.05,0.72-0.14c0.23-0.09,0.41-0.2,0.53-0.3v-0.8H117.52z"/>
	<path class="st0" d="M123.09,582.41h0.57v2.48c0,0.43-0.05,0.77-0.15,1.03s-0.27,0.46-0.53,0.62c-0.25,0.16-0.59,0.24-1,0.24
		c-0.4,0-0.73-0.07-0.99-0.21s-0.44-0.34-0.55-0.6s-0.16-0.62-0.16-1.08v-2.48h0.57v2.48c0,0.37,0.03,0.65,0.1,0.82
		c0.07,0.18,0.19,0.31,0.36,0.41c0.17,0.1,0.38,0.14,0.62,0.14c0.42,0,0.72-0.09,0.89-0.28s0.27-0.55,0.27-1.09V582.41z"/>
	<path class="st0" d="M124.63,586.7v-0.6h0.6v0.6c0,0.22-0.04,0.4-0.12,0.54c-0.08,0.13-0.2,0.24-0.37,0.31l-0.15-0.23
		c0.11-0.05,0.19-0.12,0.25-0.22s0.08-0.23,0.09-0.41H124.63z"/>
	<path class="st0" d="M126.32,586.7v-4.29h0.86l1.02,3.04c0.09,0.28,0.16,0.5,0.21,0.64c0.05-0.16,0.12-0.39,0.23-0.69l1.03-2.99
		h0.76v4.29h-0.55v-3.59l-1.25,3.59h-0.51l-1.24-3.66v3.66H126.32z"/>
	<path class="st0" d="M131.48,586.7v-4.29h1.62c0.29,0,0.5,0.01,0.65,0.04c0.21,0.04,0.39,0.1,0.53,0.2s0.26,0.24,0.34,0.41
		c0.09,0.18,0.13,0.37,0.13,0.59c0,0.37-0.12,0.67-0.35,0.93s-0.65,0.38-1.26,0.38h-1.1v1.75H131.48z M132.04,584.45h1.11
		c0.37,0,0.63-0.07,0.78-0.21s0.23-0.33,0.23-0.58c0-0.18-0.05-0.33-0.14-0.46c-0.09-0.13-0.21-0.21-0.36-0.25
		c-0.1-0.03-0.27-0.04-0.53-0.04h-1.1V584.45z"/>
	<path class="st0" d="M134.95,586.7v-0.6h0.6v0.6c0,0.22-0.04,0.4-0.12,0.54c-0.08,0.13-0.2,0.24-0.37,0.31l-0.15-0.23
		c0.11-0.05,0.19-0.12,0.25-0.22s0.08-0.23,0.09-0.41H134.95z"/>
	<path class="st0" d="M136.65,586.7v-4.29h1.62c0.29,0,0.5,0.01,0.65,0.04c0.21,0.04,0.39,0.1,0.53,0.2s0.26,0.24,0.34,0.41
		c0.09,0.18,0.13,0.37,0.13,0.59c0,0.37-0.12,0.67-0.35,0.93s-0.65,0.38-1.26,0.38h-1.1v1.75H136.65z M137.22,584.45h1.11
		c0.37,0,0.63-0.07,0.78-0.21s0.23-0.33,0.23-0.58c0-0.18-0.05-0.33-0.14-0.46c-0.09-0.13-0.21-0.21-0.36-0.25
		c-0.1-0.03-0.27-0.04-0.53-0.04h-1.1V584.45z"/>
	<path class="st0" d="M140.69,586.7v-4.29h1.9c0.38,0,0.67,0.04,0.87,0.12c0.2,0.08,0.36,0.21,0.48,0.41s0.18,0.41,0.18,0.65
		c0,0.3-0.1,0.56-0.3,0.77s-0.5,0.34-0.91,0.4c0.15,0.07,0.26,0.14,0.34,0.21c0.17,0.15,0.32,0.34,0.47,0.57l0.75,1.17h-0.71
		l-0.57-0.89c-0.17-0.26-0.3-0.46-0.41-0.59s-0.2-0.23-0.29-0.29c-0.09-0.05-0.17-0.09-0.26-0.11c-0.06-0.01-0.17-0.02-0.32-0.02
		h-0.66v1.91H140.69z M141.26,584.3h1.22c0.26,0,0.46-0.03,0.61-0.08c0.15-0.05,0.26-0.14,0.33-0.26c0.08-0.12,0.11-0.25,0.11-0.38
		c0-0.2-0.07-0.37-0.22-0.5s-0.38-0.2-0.7-0.2h-1.36V584.3z"/>
	<path class="st0" d="M145.23,586.7v-0.6h0.6v0.6c0,0.22-0.04,0.4-0.12,0.54c-0.08,0.13-0.2,0.24-0.37,0.31l-0.15-0.23
		c0.11-0.05,0.19-0.12,0.25-0.22s0.08-0.23,0.09-0.41H145.23z"/>
	<path class="st0" d="M147.71,586.7l-1.66-4.29h0.62l1.12,3.12c0.09,0.25,0.17,0.48,0.23,0.7c0.07-0.23,0.14-0.47,0.23-0.7
		l1.16-3.12h0.58l-1.68,4.29H147.71z"/>
	<path class="st0" d="M150.67,586.7v-4.29h0.57v4.29H150.67z"/>
	<path class="st0" d="M153.12,587.89h-1.16v-0.44h0.64v-4.61h-0.64v-0.44h1.16V587.89z"/>
</g>
</svg>
