<svg id="Layer_1" xmlns="http://www.w3.org/2000/svg" viewBox="0 0 728 90"><style>.st0{fill:#fff}</style><path class="st0" d="M55.52 42.46h-1.47l-.27-3.9h-.06c-1.44 3.06-4.32 4.35-7.41 4.35-6.75 0-10.11-5.31-10.11-11.16 0-5.85 3.36-11.16 10.11-11.16 4.5 0 8.16 2.43 8.94 7.11h-2.04c-.27-2.46-2.82-5.37-6.9-5.37-5.67 0-8.07 4.74-8.07 9.42s2.4 9.42 8.07 9.42c4.74 0 7.5-3.33 7.41-7.86h-7.29v-1.74h9.09v10.89zM59.87 35.23c.03 2.76 1.47 6.09 5.1 6.09 2.76 0 4.26-1.62 4.86-3.96h1.89c-.81 3.51-2.85 5.55-6.75 5.55-4.92 0-6.99-3.78-6.99-8.19 0-4.08 2.07-8.19 6.99-8.19 4.98 0 6.96 4.35 6.81 8.7H59.87zm10.02-1.59c-.09-2.85-1.86-5.52-4.92-5.52-3.09 0-4.8 2.7-5.1 5.52h10.02zM76.58 26.98h3.15v1.59h-3.15v10.44c0 1.23.18 1.95 1.53 2.04.54 0 1.08-.03 1.62-.09v1.62c-.57 0-1.11.06-1.68.06-2.52 0-3.39-.84-3.36-3.48V28.57h-2.7v-1.59h2.7v-4.65h1.89v4.65zM99.53 31.51c-.09-2.34-1.89-3.39-4.05-3.39-1.68 0-3.66.66-3.66 2.67 0 1.68 1.92 2.28 3.21 2.61l2.52.57c2.16.33 4.41 1.59 4.41 4.29 0 3.36-3.33 4.65-6.21 4.65-3.6 0-6.06-1.68-6.36-5.46h1.89c.15 2.55 2.04 3.87 4.56 3.87 1.77 0 4.23-.78 4.23-2.94 0-1.8-1.68-2.4-3.39-2.82l-2.43-.54c-2.46-.66-4.32-1.5-4.32-4.14 0-3.15 3.09-4.35 5.82-4.35 3.09 0 5.55 1.62 5.67 4.98h-1.89zM104.24 26.98h1.74v2.94h.06c.87-2.1 3.03-3.39 5.52-3.39 4.71 0 6.96 3.81 6.96 8.19s-2.25 8.19-6.96 8.19c-2.31 0-4.56-1.17-5.37-3.39h-.06v8.67h-1.89V26.98zm7.32 1.14c-4.17 0-5.43 3.09-5.43 6.6 0 3.21 1.41 6.6 5.43 6.6 3.6 0 5.07-3.39 5.07-6.6s-1.47-6.6-5.07-6.6zM122.12 35.23c.03 2.76 1.47 6.09 5.1 6.09 2.76 0 4.26-1.62 4.86-3.96h1.89c-.81 3.51-2.85 5.55-6.75 5.55-4.92 0-6.99-3.78-6.99-8.19 0-4.08 2.07-8.19 6.99-8.19 4.98 0 6.96 4.35 6.81 8.7h-11.91zm10.02-1.59c-.09-2.85-1.86-5.52-4.92-5.52-3.09 0-4.8 2.7-5.1 5.52h10.02zM147.23 31.84c-.51-2.31-1.92-3.72-4.38-3.72-3.63 0-5.43 3.3-5.43 6.6s1.8 6.6 5.43 6.6c2.34 0 4.26-1.83 4.5-4.41h1.89c-.51 3.72-2.94 6-6.39 6-4.74 0-7.32-3.75-7.32-8.19s2.58-8.19 7.32-8.19c3.3 0 5.85 1.77 6.27 5.31h-1.89zM151.43 21.04h1.89v3.03h-1.89v-3.03zm0 5.94h1.89v15.48h-1.89V26.98zM156.32 31.72c.18-3.63 2.73-5.19 6.27-5.19 2.73 0 5.7.84 5.7 4.98v8.22c0 .72.36 1.14 1.11 1.14.21 0 .45-.06.6-.12v1.59c-.42.09-.72.12-1.23.12-1.92 0-2.22-1.08-2.22-2.7h-.06c-1.32 2.01-2.67 3.15-5.64 3.15-2.85 0-5.19-1.41-5.19-4.53 0-4.35 4.23-4.5 8.31-4.98 1.56-.18 2.43-.39 2.43-2.1 0-2.55-1.83-3.18-4.05-3.18-2.34 0-4.08 1.08-4.14 3.6h-1.89zM166.4 34h-.06c-.24.45-1.08.6-1.59.69-3.21.57-7.2.54-7.2 3.57 0 1.89 1.68 3.06 3.45 3.06 2.88 0 5.43-1.83 5.4-4.86V34zM171.68 21.04h1.89v21.42h-1.89V21.04zM198.05 41.2c-.03 4.62-1.8 7.44-6.87 7.44-3.09 0-6.15-1.38-6.42-4.68h1.89c.42 2.28 2.43 3.09 4.53 3.09 3.48 0 4.98-2.07 4.98-5.85v-2.1h-.06c-.87 1.89-2.7 3.18-4.92 3.18-4.95 0-6.99-3.54-6.99-7.95 0-4.26 2.52-7.8 6.99-7.8 2.25 0 4.17 1.41 4.92 3.12h.06v-2.67h1.89V41.2zm-1.89-6.66c0-3.03-1.41-6.42-4.98-6.42-3.6 0-5.1 3.21-5.1 6.42 0 3.12 1.62 6.15 5.1 6.15 3.27 0 4.98-3 4.98-6.15zM201.17 26.98h1.74v3.63h.06c.96-2.49 3.06-3.96 5.85-3.84v1.89c-3.42-.18-5.76 2.34-5.76 5.55v8.25h-1.89V26.98zM223.61 34.72c0 4.44-2.58 8.19-7.32 8.19s-7.32-3.75-7.32-8.19 2.58-8.19 7.32-8.19 7.32 3.75 7.32 8.19zm-12.75 0c0 3.3 1.8 6.6 5.43 6.6s5.43-3.3 5.43-6.6-1.8-6.6-5.43-6.6-5.43 3.3-5.43 6.6zM238.49 42.46h-1.74v-2.79h-.06c-.99 2.07-3.03 3.24-5.34 3.24-3.9 0-5.43-2.28-5.43-5.88V26.98h1.89v10.08c.09 2.79 1.14 4.26 4.14 4.26 3.24 0 4.65-3.06 4.65-6.21v-8.13h1.89v15.48zM241.58 26.98h1.74v2.94h.06c.87-2.1 3.03-3.39 5.52-3.39 4.71 0 6.96 3.81 6.96 8.19s-2.25 8.19-6.96 8.19c-2.31 0-4.56-1.17-5.37-3.39h-.06v8.67h-1.89V26.98zm7.32 1.14c-4.17 0-5.43 3.09-5.43 6.6 0 3.21 1.41 6.6 5.43 6.6 3.6 0 5.07-3.39 5.07-6.6s-1.47-6.6-5.07-6.6zM266.6 26.98h1.74v3.63h.06c.96-2.49 3.06-3.96 5.85-3.84v1.89c-3.42-.18-5.76 2.34-5.76 5.55v8.25h-1.89V26.98zM275.24 31.72c.18-3.63 2.73-5.19 6.27-5.19 2.73 0 5.7.84 5.7 4.98v8.22c0 .72.36 1.14 1.11 1.14.21 0 .45-.06.6-.12v1.59c-.42.09-.72.12-1.23.12-1.92 0-2.22-1.08-2.22-2.7h-.06c-1.32 2.01-2.67 3.15-5.64 3.15-2.85 0-5.19-1.41-5.19-4.53 0-4.35 4.23-4.5 8.31-4.98 1.56-.18 2.43-.39 2.43-2.1 0-2.55-1.83-3.18-4.05-3.18-2.34 0-4.08 1.08-4.14 3.6h-1.89zM285.31 34h-.06c-.24.45-1.08.6-1.59.69-3.21.57-7.2.54-7.2 3.57 0 1.89 1.68 3.06 3.45 3.06 2.88 0 5.43-1.83 5.4-4.86V34zM293.2 26.98h3.15v1.59h-3.15v10.44c0 1.23.18 1.95 1.53 2.04.54 0 1.08-.03 1.62-.09v1.62c-.57 0-1.11.06-1.68.06-2.52 0-3.39-.84-3.36-3.48V28.57h-2.7v-1.59h2.7v-4.65h1.89v4.65zM298.99 35.23c.03 2.76 1.47 6.09 5.1 6.09 2.76 0 4.26-1.62 4.86-3.96h1.89c-.81 3.51-2.85 5.55-6.75 5.55-4.92 0-6.99-3.78-6.99-8.19 0-4.08 2.07-8.19 6.99-8.19 4.98 0 6.96 4.35 6.81 8.7h-11.91zm10.02-1.59c-.09-2.85-1.86-5.52-4.92-5.52-3.09 0-4.8 2.7-5.1 5.52h10.02zM322.42 31.51c-.09-2.34-1.89-3.39-4.05-3.39-1.68 0-3.66.66-3.66 2.67 0 1.68 1.92 2.28 3.21 2.61l2.52.57c2.16.33 4.41 1.59 4.41 4.29 0 3.36-3.33 4.65-6.21 4.65-3.6 0-6.06-1.68-6.36-5.46h1.89c.15 2.55 2.04 3.87 4.56 3.87 1.77 0 4.23-.78 4.23-2.94 0-1.8-1.68-2.4-3.39-2.82l-2.43-.54c-2.46-.66-4.32-1.5-4.32-4.14 0-3.15 3.09-4.35 5.82-4.35 3.09 0 5.55 1.62 5.67 4.98h-1.89zM349.24 34.72c0 4.44-2.58 8.19-7.32 8.19s-7.32-3.75-7.32-8.19 2.58-8.19 7.32-8.19 7.32 3.75 7.32 8.19zm-12.75 0c0 3.3 1.8 6.6 5.43 6.6s5.43-3.3 5.43-6.6-1.8-6.6-5.43-6.6-5.43 3.3-5.43 6.6zM351.58 26.98h1.89v2.67h.06c.69-1.86 2.76-3.12 4.95-3.12 4.35 0 5.67 2.28 5.67 5.97v9.96h-1.89V32.8c0-2.67-.87-4.68-3.93-4.68-3 0-4.8 2.28-4.86 5.31v9.03h-1.89V26.98z"/><g><path class="st0" d="M37.22 51.04h2.04v19.68h12v1.74H37.22V51.04zM53.39 65.23c.03 2.76 1.47 6.09 5.1 6.09 2.76 0 4.26-1.62 4.86-3.96h1.89c-.81 3.51-2.85 5.55-6.75 5.55-4.92 0-6.99-3.78-6.99-8.19 0-4.08 2.07-8.19 6.99-8.19 4.98 0 6.96 4.35 6.81 8.7H53.39zm10.02-1.59c-.09-2.85-1.86-5.52-4.92-5.52-3.09 0-4.8 2.7-5.1 5.52h10.02zM65.33 56.98h2.1l4.86 13.59h.06l4.8-13.59h1.95l-5.79 15.48H71.3l-5.97-15.48zM81.14 65.23c.03 2.76 1.47 6.09 5.1 6.09 2.76 0 4.26-1.62 4.86-3.96h1.89c-.81 3.51-2.85 5.55-6.75 5.55-4.92 0-6.99-3.78-6.99-8.19 0-4.08 2.07-8.19 6.99-8.19 4.98 0 6.96 4.35 6.81 8.7H81.14zm10.02-1.59c-.09-2.85-1.86-5.52-4.92-5.52-3.09 0-4.8 2.7-5.1 5.52h10.02zM95.33 51.04h1.89v21.42h-1.89V51.04zM106.7 51.04h16.98v1.74h-7.47v19.68h-2.04V52.78h-7.47v-1.74zM123.17 65.23c.03 2.76 1.47 6.09 5.1 6.09 2.76 0 4.26-1.62 4.86-3.96h1.89c-.81 3.51-2.85 5.55-6.75 5.55-4.92 0-6.99-3.78-6.99-8.19 0-4.08 2.07-8.19 6.99-8.19 4.98 0 6.96 4.35 6.81 8.7h-11.91zm10.02-1.59c-.09-2.85-1.86-5.52-4.92-5.52-3.09 0-4.8 2.7-5.1 5.52h10.02zM137.3 56.98h1.74v3.63h.06c.96-2.49 3.06-3.96 5.85-3.84v1.89c-3.42-.18-5.76 2.34-5.76 5.55v8.25h-1.89V56.98zM146.45 56.98h1.74v2.61h.09c.99-1.86 2.61-3.06 5.07-3.06 2.04 0 3.87.99 4.44 3.03.93-2.04 2.88-3.03 4.92-3.03 3.39 0 5.13 1.77 5.13 5.43v10.5h-1.89V62.05c0-2.55-.96-3.93-3.66-3.93-3.27 0-4.2 2.7-4.2 5.58v8.76h-1.89v-10.5c.03-2.1-.84-3.84-3.24-3.84-3.27 0-4.59 2.46-4.62 5.7v8.64h-1.89V56.98zM179.57 51.04h2.04v19.68h12v1.74h-14.04V51.04zM195.08 51.04h1.89v3.03h-1.89v-3.03zm0 5.94h1.89v15.48h-1.89V56.98zM206.15 58.57h-3.06v13.89h-1.89V58.57h-2.64v-1.59h2.64v-1.41c-.03-2.67.72-4.53 3.75-4.53.54 0 .99.03 1.59.12v1.62c-.51-.09-.93-.15-1.38-.15-2.1 0-2.04 1.32-2.07 3v1.35h3.06v1.59zM208.25 65.23c.03 2.76 1.47 6.09 5.1 6.09 2.76 0 4.26-1.62 4.86-3.96h1.89c-.81 3.51-2.85 5.55-6.75 5.55-4.92 0-6.99-3.78-6.99-8.19 0-4.08 2.07-8.19 6.99-8.19 4.98 0 6.96 4.35 6.81 8.7h-11.91zm10.02-1.59c-.09-2.85-1.86-5.52-4.92-5.52-3.09 0-4.8 2.7-5.1 5.52h10.02zM230.96 51.04H233v21.42h-2.04V51.04zM236.48 56.98h1.89v2.67h.06c.69-1.86 2.76-3.12 4.95-3.12 4.35 0 5.67 2.28 5.67 5.97v9.96h-1.89V62.8c0-2.67-.87-4.68-3.93-4.68-3 0-4.8 2.28-4.86 5.31v9.03h-1.89V56.98zM261.34 61.51c-.09-2.34-1.89-3.39-4.05-3.39-1.68 0-3.66.66-3.66 2.67 0 1.68 1.92 2.28 3.21 2.61l2.52.57c2.16.33 4.41 1.59 4.41 4.29 0 3.36-3.33 4.65-6.21 4.65-3.6 0-6.06-1.68-6.36-5.46h1.89c.15 2.55 2.04 3.87 4.56 3.87 1.77 0 4.23-.78 4.23-2.94 0-1.8-1.68-2.4-3.39-2.82l-2.43-.54c-2.46-.66-4.32-1.5-4.32-4.14 0-3.15 3.09-4.35 5.82-4.35 3.09 0 5.55 1.62 5.67 4.98h-1.89zM278.5 72.46h-1.74v-2.79h-.06c-.99 2.07-3.03 3.24-5.34 3.24-3.9 0-5.43-2.28-5.43-5.88V56.98h1.89v10.08c.09 2.79 1.14 4.26 4.14 4.26 3.24 0 4.65-3.06 4.65-6.21v-8.13h1.89v15.48zM281.59 56.98h1.74v3.63h.06c.96-2.49 3.06-3.96 5.85-3.84v1.89c-3.42-.18-5.76 2.34-5.76 5.55v8.25h-1.89V56.98zM290.23 61.72c.18-3.63 2.73-5.19 6.27-5.19 2.73 0 5.7.84 5.7 4.98v8.22c0 .72.36 1.14 1.11 1.14.21 0 .45-.06.6-.12v1.59c-.42.09-.72.12-1.23.12-1.92 0-2.22-1.08-2.22-2.7h-.06c-1.32 2.01-2.67 3.15-5.64 3.15-2.85 0-5.19-1.41-5.19-4.53 0-4.35 4.23-4.5 8.31-4.98 1.56-.18 2.43-.39 2.43-2.1 0-2.55-1.83-3.18-4.05-3.18-2.34 0-4.08 1.08-4.14 3.6h-1.89zM300.31 64h-.06c-.24.45-1.08.6-1.59.69-3.21.57-7.2.54-7.2 3.57 0 1.89 1.68 3.06 3.45 3.06 2.88 0 5.43-1.83 5.4-4.86V64zM305.59 56.98h1.89v2.67h.06c.69-1.86 2.76-3.12 4.95-3.12 4.35 0 5.67 2.28 5.67 5.97v9.96h-1.89V62.8c0-2.67-.87-4.68-3.93-4.68-3 0-4.8 2.28-4.86 5.31v9.03h-1.89V56.98zM332.17 61.84c-.51-2.31-1.92-3.72-4.38-3.72-3.63 0-5.43 3.3-5.43 6.6s1.8 6.6 5.43 6.6c2.34 0 4.26-1.83 4.5-4.41h1.89c-.51 3.72-2.94 6-6.39 6-4.74 0-7.32-3.75-7.32-8.19 0-4.44 2.58-8.19 7.32-8.19 3.3 0 5.85 1.77 6.27 5.31h-1.89zM337.54 65.23c.03 2.76 1.47 6.09 5.1 6.09 2.76 0 4.26-1.62 4.86-3.96h1.89c-.81 3.51-2.85 5.55-6.75 5.55-4.92 0-6.99-3.78-6.99-8.19 0-4.08 2.07-8.19 6.99-8.19 4.98 0 6.96 4.35 6.81 8.7h-11.91zm10.02-1.59c-.09-2.85-1.86-5.52-4.92-5.52-3.09 0-4.8 2.7-5.1 5.52h10.02zM352.03 72.46v-3.18h2.52v3.18h-2.52z"/></g></svg>