<svg xmlns="http://www.w3.org/2000/svg" viewBox="0 0 300 250"><path d="M11.26 241.88l-.72-.34c.98-.49 1.74-1.15 2.1-2.05-.19.19-.46.33-.81.33-.98 0-1.64-.73-1.64-1.65 0-.96.72-1.66 1.7-1.66.93 0 1.73.65 1.73 1.85 0 1.36-1 2.82-2.36 3.52zm.61-4.71c-.53 0-.94.41-.94 1.02 0 .58.39 1.02.95 1.02.41 0 .85-.17.99-.73.01-.08.01-.16.01-.25 0-.58-.48-1.06-1.01-1.06zM16.99 240.35v1.37h-.73v-1.37h-2.04l-.13-.58 2.41-3.16h.49v3.14h.6v.59h-.6zm-.73-2.46c-.14.23-.3.44-.46.64l-.94 1.23h1.41v-1.24c0-.2 0-.4.01-.62l-.02-.01zM19.23 241.88l-.72-.34c.98-.49 1.74-1.15 2.1-2.05-.19.19-.46.33-.81.33-.98 0-1.64-.73-1.64-1.65 0-.96.72-1.66 1.7-1.66.93 0 1.73.65 1.73 1.85.01 1.36-.99 2.82-2.36 3.52zm.62-4.71c-.53 0-.94.41-.94 1.02 0 .58.39 1.02.95 1.02.41 0 .85-.17.99-.73.01-.08.01-.16.01-.25 0-.58-.48-1.06-1.01-1.06zM23.16 241.81c-.26 0-.6-.06-.85-.17l-.08-.71c.26.14.6.24.9.24.56 0 1.15-.32 1.15-1.05 0-.53-.48-.99-1.06-.99-.02 0-.09 0-.14.01l-.14-.6c.53-.1.94-.42.94-.81 0-.36-.29-.58-.66-.58-.3 0-.52.06-.82.23l-.13-.62c.3-.17.61-.25.98-.25.78 0 1.36.47 1.36 1.15 0 .55-.36.9-.72 1.01.55.13 1.14.63 1.14 1.54-.01.92-.68 1.6-1.87 1.6zM26.59 241.72h-.78l1.94-4.48H25.4v-.62h3.38l-2.19 5.1zM30.76 241.81c-.93 0-1.73-.65-1.73-1.85 0-1.36 1-2.81 2.37-3.52l.72.34c-.96.48-1.71 1.16-2.09 2.05.19-.19.45-.33.79-.33.98 0 1.64.73 1.64 1.65 0 .95-.72 1.66-1.7 1.66zm.01-2.64c-.4 0-.85.15-.99.71-.01.09-.01.18-.01.26 0 .58.48 1.06 1.01 1.06s.94-.41.94-1.02c0-.57-.39-1.01-.95-1.01z"/></svg>