<svg id="Layer_1" xmlns="http://www.w3.org/2000/svg" viewBox="0 0 300 250"><style>.st0{fill:#0d4c87}</style><path class="st0" d="M78.23 79.25c-4.4 0-8.85-2.87-8.85-8.35 0-5.5 4.55-8.37 8.77-8.37 2.2 0 4.1.6 5.17 1.32l-.73 3.2c-.97-.65-2.47-1.12-4.05-1.12-2.9 0-5.32 1.92-5.32 5.1 0 2.97 2.3 4.95 5.17 4.95.92 0 1.62-.15 2.17-.47v-2.52h-2.77V70h6.32v7.6c-1.33 1.07-3.28 1.65-5.88 1.65zM96.96 72.58l-1.62 1.65h-5.55c.17.92 1.42 1.97 3.35 1.97 1.17 0 2.37-.35 3.12-.85l-.35 3.15c-.85.45-2.15.75-3.6.75-3.45 0-6.22-2.4-6.22-6.1 0-3.65 2.65-5.97 5.9-5.97 3.15 0 5.07 2.17 5.07 4.52 0 .28-.05.65-.1.88zm-4.98-2.65c-1.07 0-1.97.82-2.2 1.85h3.82c0-.08.03-.15.03-.25 0-.78-.67-1.6-1.65-1.6zM106.53 70.55h-2.95v4.2c0 .97.52 1.37 1.5 1.37.43 0 .67-.02.95-.15l-.32 2.77c-.35.17-.97.3-1.7.3-2.55 0-4.07-1.35-4.07-3.6v-4.9h-1.9v-3h1.9v-2.42l3.65-1.32v3.75h3.65l-.71 3zM119.16 84.65c-3.3 0-5.5-1.87-5.5-4.25 0-1.72 1.15-2.75 2.32-3.05l-1.45-1.45c.1-.73.73-1.35 1.38-1.62-.85-.52-1.65-1.6-1.65-3.02 0-2.4 1.72-4.07 4.67-4.07.67 0 1.2.1 1.67.23.5.12 1.05.2 1.62.2.62 0 1.27-.15 1.77-.37l.67 2.8c-.35.2-.9.37-1.4.35.12.23.27.75.27 1.15 0 1.9-1.5 3.5-3.7 3.65-.45.02-.75.12-.75.42 0 .12.1.28.3.35l1.75.62c2.22.8 3.42 1.92 3.42 4 .03 2.31-2.09 4.06-5.39 4.06zm.77-5.33l-1.35-.37c-.88.02-1.52.65-1.52 1.47 0 .77.67 1.42 2 1.42 1.3 0 2-.6 2-1.25 0-.52-.4-1.07-1.13-1.27zm-1-9.47c-.82 0-1.45.62-1.45 1.35 0 .75.62 1.35 1.45 1.35.8 0 1.45-.6 1.45-1.35 0-.72-.6-1.35-1.45-1.35zM133.48 78.88v-1.55h-.02c-.45 1.2-1.65 1.87-3.47 1.87-2.47 0-3.97-1.37-3.97-3.77v-7.87h3.67v6.95c0 .82.57 1.55 1.7 1.55 1.1 0 1.77-.73 1.77-1.62v-6.87h3.67v11.32h-3.35zM147.16 79.38c-.67-.15-1.45-.67-1.75-1.5-.5.92-1.58 1.38-2.95 1.38-2 0-3.77-1.4-3.77-3.75 0-2.07 1.62-3.47 3.87-3.7l2.25-.23v-.38c0-.67-.55-1.12-1.77-1.12-1.1 0-2.32.35-3.15.88l-.65-2.77c.92-.6 2.47-1 3.97-1 3 0 5.12 1.38 5.12 4.1v3.7c0 1.32.5 2.02 1.38 2.35l-2.55 2.04zm-2.35-5.45l-1.37.12c-.95.07-1.38.75-1.38 1.42 0 .6.45 1.1 1.15 1.1.88 0 1.6-.67 1.6-1.65v-.99zM157.98 71.45c-.22-.12-.72-.27-1.1-.27-1.17 0-2.25.62-2.25 2.42v5.27h-3.67V67.55h3.62v2.52h.03c.38-1.77 1.7-2.72 3.22-2.72.35 0 .78.05 1.05.15l-.9 3.95zM168.03 79.38c-.67-.15-1.45-.67-1.75-1.5-.5.92-1.57 1.38-2.95 1.38-2 0-3.77-1.4-3.77-3.75 0-2.07 1.62-3.47 3.87-3.7l2.25-.23v-.38c0-.67-.55-1.12-1.77-1.12-1.1 0-2.32.35-3.15.88l-.65-2.77c.92-.6 2.47-1 3.97-1 3 0 5.12 1.38 5.12 4.1v3.7c0 1.32.5 2.02 1.37 2.35l-2.54 2.04zm-2.35-5.45l-1.38.12c-.95.07-1.37.75-1.37 1.42 0 .6.45 1.1 1.15 1.1.88 0 1.6-.67 1.6-1.65v-.99zM178.98 78.88v-6.95c0-.82-.55-1.55-1.67-1.55-1.1 0-1.8.7-1.8 1.6v6.9h-3.67V67.55h3.37v1.52h.03c.45-1.2 1.62-1.87 3.45-1.87 2.47 0 3.97 1.4 3.97 3.8v7.87h-3.68zM192.41 70.55h-2.95v4.2c0 .97.52 1.37 1.5 1.37.42 0 .67-.02.95-.15l-.33 2.77c-.35.17-.97.3-1.7.3-2.55 0-4.07-1.35-4.07-3.6v-4.9h-1.9v-3h1.9v-2.42l3.65-1.32v3.75h3.65l-.7 3zM204.5 72.58l-1.62 1.65h-5.55c.17.92 1.42 1.97 3.35 1.97 1.17 0 2.37-.35 3.12-.85l-.35 3.15c-.85.45-2.15.75-3.6.75-3.45 0-6.22-2.4-6.22-6.1 0-3.65 2.65-5.97 5.9-5.97 3.15 0 5.07 2.17 5.07 4.52 0 .28-.05.65-.1.88zm-4.97-2.65c-1.08 0-1.97.82-2.2 1.85h3.82c0-.08.03-.15.03-.25 0-.78-.67-1.6-1.65-1.6zM216.71 72.58l-1.62 1.65h-5.55c.17.92 1.42 1.97 3.35 1.97 1.17 0 2.37-.35 3.12-.85l-.35 3.15c-.85.45-2.15.75-3.6.75-3.45 0-6.22-2.4-6.22-6.1 0-3.65 2.65-5.97 5.9-5.97 3.15 0 5.07 2.17 5.07 4.52-.01.28-.06.65-.1.88zm-4.98-2.65c-1.08 0-1.97.82-2.2 1.85h3.82c0-.08.03-.15.03-.25 0-.78-.67-1.6-1.65-1.6zM227.05 78.88v-1.4h-.02c-.62 1.15-1.92 1.72-3.5 1.72-2.77 0-5.45-2.1-5.45-5.97 0-3.65 2.6-6.02 5.75-6.02 1.2 0 2.42.4 2.87.77v-6.9h3.57v17.8h-3.22zm-.34-7.43c-.35-.47-1.1-1.02-2.22-1.02-1.6 0-2.72 1.25-2.72 2.87s1.12 2.87 2.72 2.87c1.08 0 1.82-.58 2.22-1.17v-3.55z"/><g><path class="st0" d="M55.71 105.88v-6.95c0-.82-.4-1.55-1.6-1.55-1.17 0-1.7.7-1.7 1.6v6.9h-3.67v-6.95c0-.82-.4-1.55-1.6-1.55-1.17 0-1.7.7-1.7 1.6v6.9h-3.67V94.55h3.4v1.52h.02c.45-1.2 1.57-1.87 3.35-1.87 1.62 0 2.85.65 3.35 1.85.48-1.1 1.8-1.85 3.5-1.85 2.57 0 4 1.4 4 3.8v7.87h-3.68zM67.36 106.23c-3.42 0-6.17-2.42-6.17-6.02s2.75-6.02 6.17-6.02c3.4 0 6.17 2.42 6.17 6.02s-2.77 6.02-6.17 6.02zm0-8.85c-1.37 0-2.55 1.2-2.55 2.87 0 1.67 1.17 2.87 2.55 2.87 1.35 0 2.55-1.2 2.55-2.87 0-1.67-1.2-2.87-2.55-2.87zM82.51 105.88v-6.95c0-.82-.55-1.55-1.67-1.55-1.1 0-1.8.7-1.8 1.6v6.9h-3.67V94.55h3.37v1.52h.02c.45-1.2 1.62-1.87 3.45-1.87 2.47 0 3.97 1.4 3.97 3.8v7.87h-3.67zM95.93 97.55h-2.95v4.2c0 .97.52 1.37 1.5 1.37.43 0 .67-.02.95-.15l-.32 2.77c-.35.17-.97.3-1.7.3-2.55 0-4.07-1.35-4.07-3.6v-4.9h-1.9v-3h1.9v-2.42l3.65-1.32v3.75h3.65l-.71 3zM105.11 105.88v-6.95c0-.82-.58-1.55-1.7-1.55-1.1 0-1.77.7-1.77 1.6v6.9h-3.67v-17.8h3.62v7.52h.02c.58-.88 1.62-1.4 3.2-1.4 2.5 0 3.97 1.4 3.97 3.8v7.87h-3.67zM114.98 106.32c-2.32-.1-3.87-1.3-3.87-4.02V88.08h3.62v13.77c0 .92.52 1.42 1.52 1.5l-1.27 2.97zM124.21 104.75c-1.72 4.55-3.52 6.2-5.65 7.02l-2.25-2.25c1.82-.7 3.22-2.02 4.15-4.42l-4.07-10.55h3.55l1.65 4.4c.25.65.5 1.42.67 2.22h.05c.23-.77.48-1.57.73-2.22l1.65-4.4h3.37l-3.85 10.2zM137.03 93c-.65 0-1.97-1.32-1.97-1.97s1.32-1.95 1.97-1.95 1.97 1.3 1.97 1.95-1.32 1.97-1.97 1.97zm-1.85 12.88V94.55h3.7v11.32h-3.7zM148.41 105.88v-6.95c0-.82-.55-1.55-1.67-1.55-1.1 0-1.8.7-1.8 1.6v6.9h-3.67V94.55h3.37v1.52h.03c.45-1.2 1.62-1.87 3.45-1.87 2.47 0 3.97 1.4 3.97 3.8v7.87h-3.68zM162.96 98.2c-.75-.47-1.52-.72-2.42-.72-1.6 0-2.88 1.15-2.88 2.8 0 1.62 1.28 2.8 2.95 2.8.95 0 1.67-.2 2.47-.62l-.33 3.12c-.75.35-1.72.55-2.77.55-3.17 0-6.12-2.25-6.12-5.9 0-3.7 2.97-5.92 6.05-5.92 1.5 0 2.72.3 3.72.85l-.67 3.04zM170.88 106.23c-3.42 0-6.17-2.42-6.17-6.02s2.75-6.02 6.17-6.02c3.4 0 6.17 2.42 6.17 6.02s-2.77 6.02-6.17 6.02zm0-8.85c-1.38 0-2.55 1.2-2.55 2.87 0 1.67 1.17 2.87 2.55 2.87 1.35 0 2.55-1.2 2.55-2.87 0-1.67-1.2-2.87-2.55-2.87zM192.83 105.88v-6.95c0-.82-.4-1.55-1.6-1.55-1.17 0-1.7.7-1.7 1.6v6.9h-3.67v-6.95c0-.82-.4-1.55-1.6-1.55-1.17 0-1.7.7-1.7 1.6v6.9h-3.67V94.55h3.4v1.52h.02c.45-1.2 1.58-1.87 3.35-1.87 1.62 0 2.85.65 3.35 1.85.47-1.1 1.8-1.85 3.5-1.85 2.57 0 4 1.4 4 3.8v7.87h-3.68zM209.21 99.58l-1.62 1.65h-5.55c.17.92 1.42 1.97 3.35 1.97 1.17 0 2.37-.35 3.12-.85l-.35 3.15c-.85.45-2.15.75-3.6.75-3.45 0-6.22-2.4-6.22-6.1 0-3.65 2.65-5.97 5.9-5.97 3.15 0 5.07 2.17 5.07 4.52 0 .28-.05.65-.1.88zm-4.98-2.65c-1.08 0-1.97.82-2.2 1.85h3.82c0-.08.03-.15.03-.25 0-.78-.67-1.6-1.65-1.6zM224.28 97.55h-2.95v4.2c0 .97.52 1.37 1.5 1.37.42 0 .67-.02.95-.15l-.33 2.77c-.35.17-.97.3-1.7.3-2.55 0-4.07-1.35-4.07-3.6v-4.9h-1.9v-3h1.9v-2.42l3.65-1.32v3.75h3.65l-.7 3zM233.46 105.88v-6.95c0-.82-.57-1.55-1.7-1.55-1.1 0-1.77.7-1.77 1.6v6.9h-3.67v-17.8h3.62v7.52h.02c.58-.88 1.62-1.4 3.2-1.4 2.5 0 3.97 1.4 3.97 3.8v7.87h-3.67zM247.41 106.38c-.67-.15-1.45-.67-1.75-1.5-.5.92-1.57 1.38-2.95 1.38-2 0-3.77-1.4-3.77-3.75 0-2.07 1.62-3.47 3.87-3.7l2.25-.23v-.38c0-.67-.55-1.12-1.77-1.12-1.1 0-2.32.35-3.15.88l-.65-2.77c.92-.6 2.47-1 3.97-1 3 0 5.12 1.38 5.12 4.1v3.7c0 1.32.5 2.02 1.37 2.35l-2.54 2.04zm-2.35-5.45l-1.38.12c-.95.07-1.37.75-1.37 1.42 0 .6.45 1.1 1.15 1.1.88 0 1.6-.67 1.6-1.65v-.99zM258.53 97.55h-2.95v4.2c0 .97.52 1.37 1.5 1.37.42 0 .67-.02.95-.15l-.33 2.77c-.35.17-.97.3-1.7.3-2.55 0-4.07-1.35-4.07-3.6v-4.9h-1.9v-3h1.9v-2.42l3.65-1.32v3.75h3.65l-.7 3z"/></g><g><path class="st0" d="M80.13 132.88v-6.95c0-.83-.55-1.55-1.67-1.55-1.1 0-1.8.7-1.8 1.6v6.9h-3.67v-11.32h3.37v1.52h.02c.45-1.2 1.62-1.87 3.45-1.87 2.47 0 3.97 1.4 3.97 3.8v7.87h-3.67zM96.48 126.58l-1.62 1.65h-5.55c.17.92 1.42 1.97 3.35 1.97 1.17 0 2.37-.35 3.12-.85l-.35 3.15c-.85.45-2.15.75-3.6.75-3.45 0-6.22-2.4-6.22-6.1 0-3.65 2.65-5.97 5.9-5.97 3.15 0 5.07 2.17 5.07 4.52 0 .28-.05.65-.1.88zm-4.97-2.65c-1.07 0-1.97.82-2.2 1.85h3.82c0-.07.03-.15.03-.25 0-.78-.68-1.6-1.65-1.6zM104.18 132.97h-2.75l-4.35-11.42h3.55l1.6 4.32c.23.6.45 1.45.62 2.2h.05c.17-.72.42-1.6.65-2.2l1.6-4.32h3.4l-4.37 11.42zM119.73 126.58l-1.62 1.65h-5.55c.17.92 1.42 1.97 3.35 1.97 1.17 0 2.37-.35 3.12-.85l-.35 3.15c-.85.45-2.15.75-3.6.75-3.45 0-6.22-2.4-6.22-6.1 0-3.65 2.65-5.97 5.9-5.97 3.15 0 5.07 2.17 5.07 4.52 0 .28-.05.65-.1.88zm-4.97-2.65c-1.07 0-1.97.82-2.2 1.85h3.82c0-.07.02-.15.02-.25.01-.78-.67-1.6-1.64-1.6zM128.66 125.45c-.23-.12-.72-.28-1.1-.28-1.17 0-2.25.62-2.25 2.42v5.27h-3.67v-11.32h3.62v2.52h.03c.37-1.77 1.7-2.72 3.22-2.72.35 0 .77.05 1.05.15l-.9 3.96zM143.46 125.45c-.22-.12-.72-.28-1.1-.28-1.17 0-2.25.62-2.25 2.42v5.27h-3.67v-11.32h3.62v2.52h.03c.37-1.77 1.7-2.72 3.22-2.72.35 0 .77.05 1.05.15l-.9 3.96zM153.03 132.88v-1.55H153c-.45 1.2-1.65 1.88-3.47 1.88-2.47 0-3.97-1.38-3.97-3.77v-7.87h3.67v6.95c0 .83.58 1.55 1.7 1.55 1.1 0 1.77-.72 1.77-1.62v-6.87h3.67v11.32h-3.34zM165.88 132.88v-6.95c0-.83-.55-1.55-1.67-1.55-1.1 0-1.8.7-1.8 1.6v6.9h-3.67v-11.32h3.37v1.52h.03c.45-1.2 1.62-1.87 3.45-1.87 2.47 0 3.97 1.4 3.97 3.8v7.87h-3.68zM175.51 133.12c-1.55 0-2.67-.33-3.6-.8l-.32-3.25c1 .7 2.3 1.22 3.55 1.22.67 0 1.1-.35 1.1-.78 0-.47-.38-.67-1.02-.87-2.17-.62-3.47-1.72-3.47-3.7 0-2.22 1.8-3.65 4.25-3.65 1.4 0 2.77.38 3.35.67l-.62 2.7c-.55-.3-1.45-.62-2.35-.62-.6 0-1 .27-1 .72 0 .43.3.65 1 .82 2.55.67 3.6 1.95 3.6 3.85-.02 1.95-1.42 3.69-4.47 3.69zM193.11 133.22c-3.42 0-6.17-2.42-6.17-6.02 0-3.6 2.75-6.02 6.17-6.02 3.4 0 6.17 2.42 6.17 6.02 0 3.6-2.77 6.02-6.17 6.02zm0-8.84c-1.38 0-2.55 1.2-2.55 2.87 0 1.67 1.17 2.88 2.55 2.88 1.35 0 2.55-1.2 2.55-2.88 0-1.67-1.2-2.87-2.55-2.87zM208.53 132.88v-1.55h-.03c-.45 1.2-1.65 1.88-3.47 1.88-2.47 0-3.97-1.38-3.97-3.77v-7.87h3.67v6.95c0 .83.58 1.55 1.7 1.55 1.1 0 1.77-.72 1.77-1.62v-6.87h3.67v11.32h-3.34zM221.83 124.55h-2.95v4.2c0 .97.52 1.38 1.5 1.38.42 0 .67-.03.95-.15l-.33 2.77c-.35.17-.97.3-1.7.3-2.55 0-4.07-1.35-4.07-3.6v-4.9h-1.9v-3h1.9v-2.42l3.65-1.32v3.75h3.65l-.7 2.99zM225.33 133.22c-.67 0-2.07-1.4-2.07-2.07 0-.65 1.4-2.05 2.07-2.05s2.07 1.4 2.07 2.05c.01.68-1.39 2.07-2.07 2.07z"/></g></svg>