<svg id="Layer_1" xmlns="http://www.w3.org/2000/svg" viewBox="0 0 300 250"><style>.st0{fill:#0d4c87}</style><path class="st0" d="M102.59 108.88l-.52-5.87c-.08-.88-.15-1.92-.15-2.95h-.05c-.38 1-.9 2.1-1.35 3l-3 5.87h-1.55l-3.05-5.87c-.47-.9-.95-1.95-1.35-2.97h-.05c0 1.02-.05 2.07-.12 2.92l-.5 5.87h-3.6l1.37-15.95h3.2l3.47 6.7c.5.97 1.17 2.35 1.6 3.4h.03c.4-1.05 1.02-2.35 1.55-3.4l3.45-6.7h3l1.4 15.95h-3.78zM114.97 107.75c-1.72 4.55-3.52 6.2-5.65 7.02l-2.25-2.25c1.82-.7 3.22-2.02 4.15-4.42l-4.07-10.55h3.55l1.65 4.4c.25.65.5 1.42.67 2.22h.05c.23-.77.48-1.57.73-2.22l1.65-4.4h3.37l-3.85 10.2zM132.09 102.6h-2.35v6.27h-3.72V92.93h6.07c2.72 0 5.15 1.82 5.15 4.82s-2.4 4.85-5.15 4.85zm-.55-6.55h-1.8v3.57h1.8c1 0 1.97-.55 1.97-1.77.01-1.2-.97-1.8-1.97-1.8zM148.89 102.58l-1.62 1.65h-5.55c.17.92 1.42 1.97 3.35 1.97 1.17 0 2.37-.35 3.12-.85l-.35 3.15c-.85.45-2.15.75-3.6.75-3.45 0-6.22-2.4-6.22-6.1 0-3.65 2.65-5.97 5.9-5.97 3.15 0 5.07 2.17 5.07 4.52 0 .28-.05.65-.1.88zm-4.97-2.65c-1.08 0-1.97.82-2.2 1.85h3.82c0-.08.03-.15.03-.25 0-.78-.68-1.6-1.65-1.6zM157.82 101.45c-.22-.12-.72-.27-1.1-.27-1.17 0-2.25.62-2.25 2.42v5.27h-3.67V97.55h3.62v2.52h.03c.38-1.77 1.7-2.72 3.22-2.72.35 0 .78.05 1.05.15l-.9 3.95zM163.39 109.12c-1.55 0-2.67-.33-3.6-.8l-.33-3.25c1 .7 2.3 1.22 3.55 1.22.67 0 1.1-.35 1.1-.77 0-.48-.38-.67-1.02-.88-2.17-.62-3.47-1.72-3.47-3.7 0-2.22 1.8-3.65 4.25-3.65 1.4 0 2.77.38 3.35.67l-.62 2.7c-.55-.3-1.45-.62-2.35-.62-.6 0-1 .27-1 .72 0 .42.3.65 1 .82 2.55.67 3.6 1.95 3.6 3.85-.01 1.95-1.41 3.69-4.46 3.69zM175.22 109.23c-3.42 0-6.17-2.42-6.17-6.02s2.75-6.02 6.17-6.02c3.4 0 6.17 2.42 6.17 6.02s-2.78 6.02-6.17 6.02zm0-8.85c-1.38 0-2.55 1.2-2.55 2.87 0 1.67 1.17 2.87 2.55 2.87 1.35 0 2.55-1.2 2.55-2.87-.01-1.67-1.2-2.87-2.55-2.87zM190.37 108.88v-6.95c0-.82-.55-1.55-1.67-1.55-1.1 0-1.8.7-1.8 1.6v6.9h-3.67V97.55h3.37v1.52h.03c.45-1.2 1.62-1.87 3.45-1.87 2.47 0 3.97 1.4 3.97 3.8v7.87h-3.68zM204.32 109.38c-.67-.15-1.45-.67-1.75-1.5-.5.92-1.57 1.38-2.95 1.38-2 0-3.77-1.4-3.77-3.75 0-2.07 1.62-3.47 3.87-3.7l2.25-.23v-.38c0-.67-.55-1.12-1.77-1.12-1.1 0-2.32.35-3.15.88l-.65-2.77c.92-.6 2.47-1 3.97-1 3 0 5.12 1.38 5.12 4.1v3.7c0 1.32.5 2.02 1.37 2.35l-2.54 2.04zm-2.35-5.45l-1.38.12c-.95.07-1.37.75-1.37 1.42 0 .6.45 1.1 1.15 1.1.88 0 1.6-.67 1.6-1.65v-.99zM211.94 109.32c-2.33-.1-3.88-1.3-3.88-4.02V91.08h3.62v13.77c0 .92.52 1.42 1.52 1.5l-1.26 2.97zM62.29 129.6h-2.35v6.27h-3.72v-15.95h6.07c2.72 0 5.15 1.82 5.15 4.82 0 3.01-2.4 4.86-5.15 4.86zm-.55-6.55h-1.8v3.57h1.8c1 0 1.97-.55 1.97-1.77.01-1.2-.97-1.8-1.97-1.8zM79.09 129.58l-1.62 1.65h-5.55c.17.92 1.42 1.97 3.35 1.97 1.17 0 2.37-.35 3.12-.85l-.35 3.15c-.85.45-2.15.75-3.6.75-3.45 0-6.22-2.4-6.22-6.1 0-3.65 2.65-5.97 5.9-5.97 3.15 0 5.07 2.17 5.07 4.52 0 .28-.05.65-.1.88zm-4.97-2.65c-1.07 0-1.97.83-2.2 1.85h3.82c0-.07.02-.15.02-.25.01-.78-.67-1.6-1.64-1.6zM88.14 135.88v-6.95c0-.83-.55-1.55-1.67-1.55-1.1 0-1.8.7-1.8 1.6v6.9H81v-11.32h3.37v1.52h.02c.45-1.2 1.62-1.87 3.45-1.87 2.47 0 3.97 1.4 3.97 3.8v7.87h-3.67zM97.77 136.12c-1.55 0-2.67-.33-3.6-.8l-.32-3.25c1 .7 2.3 1.22 3.55 1.22.67 0 1.1-.35 1.1-.78 0-.47-.37-.67-1.02-.87-2.17-.62-3.47-1.72-3.47-3.7 0-2.22 1.8-3.65 4.25-3.65 1.4 0 2.77.38 3.35.67l-.62 2.7c-.55-.3-1.45-.62-2.35-.62-.6 0-1 .28-1 .73 0 .42.3.65 1 .82 2.55.67 3.6 1.95 3.6 3.85-.02 1.94-1.42 3.68-4.47 3.68zM105.92 123c-.65 0-1.97-1.32-1.97-1.97s1.32-1.95 1.97-1.95 1.97 1.3 1.97 1.95-1.32 1.97-1.97 1.97zm-1.85 12.88v-11.32h3.7v11.32h-3.7zM115.79 136.22c-3.42 0-6.17-2.42-6.17-6.02 0-3.6 2.75-6.02 6.17-6.02 3.4 0 6.17 2.42 6.17 6.02 0 3.6-2.77 6.02-6.17 6.02zm0-8.84c-1.37 0-2.55 1.2-2.55 2.87 0 1.67 1.17 2.88 2.55 2.88 1.35 0 2.55-1.2 2.55-2.88 0-1.67-1.2-2.87-2.55-2.87zM130.94 135.88v-6.95c0-.83-.55-1.55-1.67-1.55-1.1 0-1.8.7-1.8 1.6v6.9h-3.67v-11.32h3.37v1.52h.02c.45-1.2 1.62-1.87 3.45-1.87 2.47 0 3.97 1.4 3.97 3.8v7.87h-3.67zM151.14 128.2c-.75-.48-1.52-.73-2.42-.73-1.6 0-2.88 1.15-2.88 2.8 0 1.62 1.28 2.8 2.95 2.8.95 0 1.67-.2 2.47-.62l-.33 3.12c-.75.35-1.72.55-2.77.55-3.17 0-6.12-2.25-6.12-5.9 0-3.7 2.97-5.92 6.05-5.92 1.5 0 2.72.3 3.72.85l-.67 3.05zM161.49 136.38c-.67-.15-1.45-.67-1.75-1.5-.5.92-1.57 1.38-2.95 1.38-2 0-3.77-1.4-3.77-3.75 0-2.07 1.62-3.47 3.87-3.7l2.25-.22v-.38c0-.67-.55-1.12-1.77-1.12-1.1 0-2.32.35-3.15.88l-.65-2.77c.92-.6 2.47-1 3.97-1 3 0 5.12 1.38 5.12 4.1v3.7c0 1.33.5 2.02 1.37 2.35l-2.54 2.03zm-2.35-5.45l-1.38.12c-.95.08-1.37.75-1.37 1.42 0 .6.45 1.1 1.15 1.1.88 0 1.6-.67 1.6-1.65v-.99zM169.12 136.33c-2.33-.1-3.88-1.3-3.88-4.02v-14.22h3.62v13.77c0 .92.52 1.42 1.52 1.5l-1.26 2.97zM180.29 128.2c-.75-.48-1.52-.73-2.42-.73-1.6 0-2.88 1.15-2.88 2.8 0 1.62 1.28 2.8 2.95 2.8.95 0 1.67-.2 2.47-.62l-.33 3.12c-.75.35-1.72.55-2.77.55-3.17 0-6.12-2.25-6.12-5.9 0-3.7 2.97-5.92 6.05-5.92 1.5 0 2.72.3 3.72.85l-.67 3.05zM190.19 135.88v-1.55h-.03c-.45 1.2-1.65 1.88-3.47 1.88-2.47 0-3.97-1.38-3.97-3.77v-7.87h3.67v6.95c0 .83.58 1.55 1.7 1.55 1.1 0 1.77-.72 1.77-1.62v-6.87h3.67v11.32h-3.34zM199.82 136.33c-2.33-.1-3.87-1.3-3.87-4.02v-14.22h3.62v13.77c0 .92.52 1.42 1.52 1.5l-1.27 2.97zM210.61 136.38c-.67-.15-1.45-.67-1.75-1.5-.5.92-1.57 1.38-2.95 1.38-2 0-3.77-1.4-3.77-3.75 0-2.07 1.62-3.47 3.87-3.7l2.25-.22v-.38c0-.67-.55-1.12-1.77-1.12-1.1 0-2.32.35-3.15.88l-.65-2.77c.92-.6 2.47-1 3.97-1 3 0 5.12 1.38 5.12 4.1v3.7c0 1.33.5 2.02 1.37 2.35l-2.54 2.03zm-2.35-5.45l-1.38.12c-.95.08-1.37.75-1.37 1.42 0 .6.45 1.1 1.15 1.1.88 0 1.6-.67 1.6-1.65v-.99zM221.74 127.55h-2.95v4.2c0 .97.52 1.38 1.5 1.38.42 0 .67-.03.95-.15l-.33 2.77c-.35.17-.97.3-1.7.3-2.55 0-4.07-1.35-4.07-3.6v-4.9h-1.9v-3h1.9v-2.42l3.65-1.32v3.75h3.65l-.7 2.99zM229.14 136.22c-3.42 0-6.17-2.42-6.17-6.02 0-3.6 2.75-6.02 6.17-6.02 3.4 0 6.17 2.42 6.17 6.02 0 3.6-2.77 6.02-6.17 6.02zm0-8.84c-1.38 0-2.55 1.2-2.55 2.87 0 1.67 1.17 2.88 2.55 2.88 1.35 0 2.55-1.2 2.55-2.88 0-1.67-1.2-2.87-2.55-2.87zM244.16 128.45c-.22-.12-.72-.28-1.1-.28-1.17 0-2.25.62-2.25 2.42v5.27h-3.67v-11.32h3.62v2.52h.03c.38-1.77 1.7-2.72 3.22-2.72.35 0 .78.05 1.05.15l-.9 3.96z"/></svg>