<svg id="Layer_1" xmlns="http://www.w3.org/2000/svg" viewBox="0 0 300 250"><style>.st0{fill:#006098}</style><path class="st0" d="M42.11 42.85h-3.6l-.33-2.34c-1.47 2.07-3.99 2.79-5.97 2.79-6.48 0-10.68-4.95-10.68-11.16s4.2-11.16 10.68-11.16c4.44 0 9.18 2.37 9.69 7.74h-5.58c-.18-1.83-1.98-2.94-4.23-2.94-3.6 0-4.98 3.18-4.98 6.36s1.38 6.36 4.98 6.36c2.76 0 4.62-1.29 4.92-3.24h-3.9v-4.14h9v11.73zM49.52 36.31c.09 2.13 1.32 3.54 3.48 3.54 1.23 0 2.43-.57 2.91-1.71h4.77c-.93 3.6-4.26 5.16-7.74 5.16-5.07 0-8.52-3.06-8.52-8.28 0-4.77 3.81-8.19 8.4-8.19 5.58 0 8.37 4.2 8.13 9.48H49.52zm6.33-2.85c-.09-1.74-1.32-3.18-3.03-3.18-1.8 0-3 1.29-3.3 3.18h6.33zM72.32 30.58h-3.15v7.08c0 1.23.72 1.5 1.83 1.5.42 0 .87-.06 1.32-.06v3.75c-.93.03-1.86.15-2.79.15-4.35 0-5.46-1.26-5.46-5.49v-6.93H61.5v-3.3h2.58v-4.71h5.1v4.71h3.15v3.3zM87.44 37.72c0 .78.33 1.35.84 1.74.48.36 1.17.54 1.89.54.99 0 2.4-.42 2.4-1.65 0-1.2-1.59-1.44-2.49-1.65-3.21-.81-7.23-.9-7.23-5.1 0-3.75 4.05-4.77 7.11-4.77 3.42 0 6.99.99 7.17 5.04h-4.71c0-.66-.24-1.08-.66-1.35s-.99-.39-1.62-.39c-.84 0-2.19.09-2.19 1.17 0 1.47 3.42 1.74 5.76 2.25 3.15.63 3.96 2.91 3.96 4.2 0 4.17-3.96 5.55-7.47 5.55-3.69 0-7.47-1.23-7.62-5.58h4.86zM99.29 27.28h4.86v1.8h.06c.99-1.47 2.49-2.25 4.29-2.25 4.89 0 6.96 4.2 6.96 8.58 0 4.05-2.16 7.89-6.57 7.89-1.92 0-3.39-.72-4.44-2.13h-.06v6.9h-5.1V27.28zm4.92 7.62c0 2.73.78 4.5 3.09 4.5 2.28 0 3.06-2.37 3.06-4.5 0-1.98-.78-4.17-3.03-4.17-1.38 0-3.12.96-3.12 4.17zM122.15 36.31c.09 2.13 1.32 3.54 3.48 3.54 1.23 0 2.43-.57 2.91-1.71h4.77c-.93 3.6-4.26 5.16-7.74 5.16-5.07 0-8.52-3.06-8.52-8.28 0-4.77 3.81-8.19 8.4-8.19 5.58 0 8.37 4.2 8.13 9.48h-11.43zm6.33-2.85c-.09-1.74-1.32-3.18-3.03-3.18-1.8 0-3 1.29-3.3 3.18h6.33zM145.85 32.98c-.03-1.32-1.2-2.25-2.49-2.25-2.85 0-3.3 2.43-3.3 4.59 0 2.01.87 4.08 3.03 4.08 1.77 0 2.67-1.02 2.91-2.67h4.95c-.45 4.17-3.69 6.57-7.83 6.57-4.68 0-8.16-3.21-8.16-7.98 0-4.95 3.15-8.49 8.16-8.49 3.87 0 7.32 2.04 7.68 6.15h-4.95zM157.91 25.33h-5.1v-3.9h5.1v3.9zm-5.1 1.95h5.1v15.57h-5.1V27.28zM160.49 32.08c.09-2.04 1.05-3.36 2.43-4.17 1.38-.78 3.18-1.08 4.95-1.08 3.69 0 7.26.81 7.26 5.22v6.81c0 1.32 0 2.76.6 3.99h-5.13c-.18-.48-.24-.96-.3-1.47-1.32 1.38-3.27 1.92-5.13 1.92-2.97 0-5.31-1.5-5.31-4.71 0-5.07 5.52-4.68 9.06-5.4.87-.18 1.35-.48 1.35-1.44 0-1.17-1.41-1.62-2.46-1.62-1.41 0-2.31.63-2.55 1.95h-4.77zm6.6 8.07c2.43 0 3.24-1.38 3.12-4.59-.72.45-2.04.54-3.15.84-1.14.27-2.1.75-2.1 1.98 0 1.26.99 1.77 2.13 1.77zM177.92 21.43h5.1v21.42h-5.1V21.43z"/><g><path class="st0" d="M37.19 70.96c0 2.55-.48 7.35-7.77 7.35-3.63 0-7.05-.81-7.65-4.98h5.1c.12.69.39 1.11.87 1.35.45.24 1.08.33 1.86.33 2.43 0 2.67-1.71 2.67-3.63v-1.47h-.06a4.93 4.93 0 0 1-4.14 2.28c-4.71 0-6.84-3.36-6.84-7.74 0-4.14 2.43-7.62 6.84-7.62 1.86 0 3.27.81 4.17 2.4h.06v-1.95h4.89v13.68zM29.3 60.73c-2.25 0-2.97 1.98-2.97 3.9 0 1.83.84 3.66 2.94 3.66 2.16 0 3.09-1.68 3.09-3.63 0-1.98-.78-3.93-3.06-3.93zM39.9 57.28h4.95v2.73h.06c.75-1.98 2.49-3.03 4.68-3.03.39 0 .81.03 1.2.12v4.65c-.66-.18-1.26-.3-1.95-.3-2.52 0-3.84 1.74-3.84 3.69v7.71h-5.1V57.28zM59.12 56.83c4.83 0 8.22 3.57 8.22 8.25s-3.39 8.22-8.22 8.22-8.19-3.54-8.19-8.22c.01-4.68 3.36-8.25 8.19-8.25zm0 12.57c2.37 0 3.12-2.34 3.12-4.32s-.75-4.35-3.12-4.35-3.09 2.37-3.09 4.35.72 4.32 3.09 4.32zM84.86 72.85h-4.95v-2.13h-.06c-.96 1.59-2.94 2.58-4.74 2.58-4.47 0-5.76-2.58-5.76-6.66v-9.36h5.1v9.03c0 2.07.9 2.79 2.52 2.79 1.11 0 2.79-.72 2.79-3.48v-8.34h5.1v15.57zM87.53 57.28h4.86v1.8h.06c.99-1.47 2.49-2.25 4.29-2.25 4.89 0 6.96 4.2 6.96 8.58 0 4.05-2.16 7.89-6.57 7.89-1.92 0-3.39-.72-4.44-2.13h-.06v6.9h-5.1V57.28zm4.92 7.62c0 2.73.78 4.5 3.09 4.5 2.28 0 3.06-2.37 3.06-4.5 0-1.98-.78-4.17-3.03-4.17-1.38 0-3.12.96-3.12 4.17zM115.52 57.28h4.95v2.73h.06c.75-1.98 2.49-3.03 4.68-3.03.39 0 .81.03 1.2.12v4.65c-.66-.18-1.26-.3-1.95-.3-2.52 0-3.84 1.74-3.84 3.69v7.71h-5.1V57.28zM127.31 62.08c.09-2.04 1.05-3.36 2.43-4.17 1.38-.78 3.18-1.08 4.95-1.08 3.69 0 7.26.81 7.26 5.22v6.81c0 1.32 0 2.76.6 3.99h-5.13c-.18-.48-.24-.96-.3-1.47-1.32 1.38-3.27 1.92-5.13 1.92-2.97 0-5.31-1.5-5.31-4.71 0-5.07 5.52-4.68 9.06-5.4.87-.18 1.35-.48 1.35-1.44 0-1.17-1.41-1.62-2.46-1.62-1.41 0-2.31.63-2.55 1.95h-4.77zm6.6 8.07c2.43 0 3.24-1.38 3.12-4.59-.72.45-2.04.54-3.15.84-1.14.27-2.1.75-2.1 1.98 0 1.26.99 1.77 2.13 1.77zM153.8 60.58h-3.15v7.08c0 1.23.72 1.5 1.83 1.5.42 0 .87-.06 1.32-.06v3.75c-.93.03-1.86.15-2.79.15-4.35 0-5.46-1.26-5.46-5.49v-6.93h-2.58v-3.3h2.58v-4.71h5.1v4.71h3.15v3.3zM159.47 66.31c.09 2.13 1.32 3.54 3.48 3.54 1.23 0 2.43-.57 2.91-1.71h4.77c-.93 3.6-4.26 5.16-7.74 5.16-5.07 0-8.52-3.06-8.52-8.28 0-4.77 3.81-8.19 8.4-8.19 5.58 0 8.37 4.2 8.13 9.48h-11.43zm6.33-2.85c-.09-1.74-1.32-3.18-3.03-3.18-1.8 0-3 1.29-3.3 3.18h6.33zM176.66 67.72c0 .78.33 1.35.84 1.74.48.36 1.17.54 1.89.54.99 0 2.4-.42 2.4-1.65 0-1.2-1.59-1.44-2.49-1.65-3.21-.81-7.23-.9-7.23-5.1 0-3.75 4.05-4.77 7.11-4.77 3.42 0 6.99.99 7.17 5.04h-4.71c0-.66-.24-1.08-.66-1.35s-.99-.39-1.62-.39c-.84 0-2.19.09-2.19 1.17 0 1.47 3.42 1.74 5.76 2.25 3.15.63 3.96 2.91 3.96 4.2 0 4.17-3.96 5.55-7.47 5.55-3.69 0-7.47-1.23-7.62-5.58h4.86z"/></g><g><path class="st0" d="M29.57 86.83c4.83 0 8.22 3.57 8.22 8.25s-3.39 8.22-8.22 8.22-8.19-3.54-8.19-8.22c.01-4.68 3.37-8.25 8.19-8.25zm0 12.57c2.37 0 3.12-2.34 3.12-4.32s-.75-4.35-3.12-4.35-3.09 2.37-3.09 4.35.73 4.32 3.09 4.32zM39.83 87.28h4.95v2.13h.06c.93-1.59 3.03-2.58 4.89-2.58 5.19 0 5.61 3.78 5.61 6.03v9.99h-5.1v-7.53c0-2.13.24-4.29-2.55-4.29-1.92 0-2.76 1.62-2.76 3.33v8.49h-5.1V87.28zM67.82 81.43h5.58v16.62h9.99v4.8H67.82V81.43zM89.48 96.31c.09 2.13 1.32 3.54 3.48 3.54 1.23 0 2.43-.57 2.91-1.71h4.77c-.93 3.6-4.26 5.16-7.74 5.16-5.07 0-8.52-3.06-8.52-8.28 0-4.77 3.81-8.19 8.4-8.19 5.58 0 8.37 4.2 8.13 9.48H89.48zm6.33-2.85c-.09-1.74-1.32-3.18-3.03-3.18-1.8 0-3 1.29-3.3 3.18h6.33zM111.86 102.85h-5.88l-5.19-15.57h5.31l2.85 10.29h.06l2.88-10.29h5.19l-5.22 15.57zM122.03 96.31c.09 2.13 1.32 3.54 3.48 3.54 1.23 0 2.43-.57 2.91-1.71h4.77c-.93 3.6-4.26 5.16-7.74 5.16-5.07 0-8.52-3.06-8.52-8.28 0-4.77 3.81-8.19 8.4-8.19 5.58 0 8.37 4.2 8.13 9.48h-11.43zm6.33-2.85c-.09-1.74-1.32-3.18-3.03-3.18-1.8 0-3 1.29-3.3 3.18h6.33zM135.62 81.43h5.1v21.42h-5.1V81.43zM170.42 86.23h-6.39v16.62h-5.58V86.23h-6.39v-4.8h18.36v4.8zM174.35 96.31c.09 2.13 1.32 3.54 3.48 3.54 1.23 0 2.43-.57 2.91-1.71h4.77c-.93 3.6-4.26 5.16-7.74 5.16-5.07 0-8.52-3.06-8.52-8.28 0-4.77 3.81-8.19 8.4-8.19 5.58 0 8.37 4.2 8.13 9.48h-11.43zm6.33-2.85c-.09-1.74-1.32-3.18-3.03-3.18-1.8 0-3 1.29-3.3 3.18h6.33zM187.85 87.28h4.95v2.73h.06c.75-1.98 2.49-3.03 4.68-3.03.39 0 .81.03 1.2.12v4.65c-.66-.18-1.26-.3-1.95-.3-2.52 0-3.84 1.74-3.84 3.69v7.71h-5.1V87.28zM199.88 87.28h4.95v2.13h.06c.93-1.56 2.58-2.58 4.47-2.58 1.95 0 3.69.63 4.53 2.52 1.23-1.65 2.76-2.52 4.86-2.52 4.95 0 5.49 3.75 5.49 6.72v9.3h-5.1V93.7c0-1.68-.81-2.67-2.13-2.67-2.19 0-2.4 1.68-2.4 4.2v7.62h-5.1V94c0-1.83-.54-2.97-1.92-2.97-1.83 0-2.61 1.05-2.61 4.23v7.59h-5.1V87.28z"/></g><g><path class="st0" d="M22.35 111.43h5.58v16.62h9.99v4.8H22.35v-21.42zM44.99 115.33h-5.1v-3.9h5.1v3.9zm-5.09 1.95H45v15.57h-5.1v-15.57zM49.07 120.58h-2.46v-3.3h2.46c0-4.47 1.56-5.85 5.91-5.85.81 0 1.65.06 2.46.09v3.6c-.48-.06-.93-.09-1.38-.09-1.17 0-1.89.15-1.89 1.56v.69h3.06v3.3h-3.06v12.27h-5.1v-12.27zM62.78 126.31c.09 2.13 1.32 3.54 3.48 3.54 1.23 0 2.43-.57 2.91-1.71h4.77c-.93 3.6-4.26 5.16-7.74 5.16-5.07 0-8.52-3.06-8.52-8.28 0-4.77 3.81-8.19 8.4-8.19 5.58 0 8.37 4.2 8.13 9.48H62.78zm6.33-2.85c-.09-1.74-1.32-3.18-3.03-3.18-1.8 0-3 1.29-3.3 3.18h6.33zM85.88 111.43h5.58v21.42h-5.58v-21.42zM94.4 117.28h4.95v2.13h.06c.93-1.59 3.03-2.58 4.89-2.58 5.19 0 5.61 3.78 5.61 6.03v9.99h-5.1v-7.53c0-2.13.24-4.29-2.55-4.29-1.92 0-2.76 1.62-2.76 3.33v8.49h-5.1v-15.57zM116.36 127.72c0 .78.33 1.35.84 1.74.48.36 1.17.54 1.89.54.99 0 2.4-.42 2.4-1.65 0-1.2-1.59-1.44-2.49-1.65-3.21-.81-7.23-.9-7.23-5.1 0-3.75 4.05-4.77 7.11-4.77 3.42 0 6.99.99 7.17 5.04h-4.71c0-.66-.24-1.08-.66-1.35s-.99-.39-1.62-.39c-.84 0-2.19.09-2.19 1.17 0 1.47 3.42 1.74 5.76 2.25 3.15.63 3.96 2.91 3.96 4.2 0 4.17-3.96 5.55-7.47 5.55-3.69 0-7.47-1.23-7.62-5.58h4.86zM143.63 132.85h-4.95v-2.13h-.06c-.96 1.59-2.94 2.58-4.74 2.58-4.47 0-5.76-2.58-5.76-6.66v-9.36h5.1v9.03c0 2.07.9 2.79 2.52 2.79 1.11 0 2.79-.72 2.79-3.48v-8.34h5.1v15.57zM146.45 117.28h4.95v2.73h.06c.75-1.98 2.49-3.03 4.68-3.03.39 0 .81.03 1.2.12v4.65c-.66-.18-1.26-.3-1.95-.3-2.52 0-3.84 1.74-3.84 3.69v7.71h-5.1v-15.57zM158.24 122.08c.09-2.04 1.05-3.36 2.43-4.17 1.38-.78 3.18-1.08 4.95-1.08 3.69 0 7.26.81 7.26 5.22v6.81c0 1.32 0 2.76.6 3.99h-5.13c-.18-.48-.24-.96-.3-1.47-1.32 1.38-3.27 1.92-5.13 1.92-2.97 0-5.31-1.5-5.31-4.71 0-5.07 5.52-4.68 9.06-5.4.87-.18 1.35-.48 1.35-1.44 0-1.17-1.41-1.62-2.46-1.62-1.41 0-2.31.63-2.55 1.95h-4.77zm6.6 8.07c2.43 0 3.24-1.38 3.12-4.59-.72.45-2.04.54-3.15.84-1.14.27-2.1.75-2.1 1.98 0 1.26.99 1.77 2.13 1.77zM175.49 117.28h4.95v2.13h.06c.93-1.59 3.03-2.58 4.89-2.58 5.19 0 5.61 3.78 5.61 6.03v9.99h-5.1v-7.53c0-2.13.24-4.29-2.55-4.29-1.92 0-2.76 1.62-2.76 3.33v8.49h-5.1v-15.57zM203.9 122.98c-.03-1.32-1.2-2.25-2.49-2.25-2.85 0-3.3 2.43-3.3 4.59 0 2.01.87 4.08 3.03 4.08 1.77 0 2.67-1.02 2.91-2.67H209c-.45 4.17-3.69 6.57-7.83 6.57-4.68 0-8.16-3.21-8.16-7.98 0-4.95 3.15-8.49 8.16-8.49 3.87 0 7.32 2.04 7.68 6.15h-4.95zM214.85 126.31c.09 2.13 1.32 3.54 3.48 3.54 1.23 0 2.43-.57 2.91-1.71h4.77c-.93 3.6-4.26 5.16-7.74 5.16-5.07 0-8.52-3.06-8.52-8.28 0-4.77 3.81-8.19 8.4-8.19 5.58 0 8.37 4.2 8.13 9.48h-11.43zm6.33-2.85c-.09-1.74-1.32-3.18-3.03-3.18-1.8 0-3 1.29-3.3 3.18h6.33zM228.2 127.27h5.58v5.58h-5.58v-5.58z"/></g></svg>