<svg id="Layer_1" xmlns="http://www.w3.org/2000/svg" xmlns:xlink="http://www.w3.org/1999/xlink" viewBox="0 0 300 250"><style>.st0{fill:#0e4c87}.st1{clip-path:url(#SVGID_2_);fill:#fff}.st2{clip-path:url(#SVGID_4_);fill:url(#SVGID_5_)}.st3{clip-path:url(#SVGID_7_);fill:url(#SVGID_8_)}.st4{clip-path:url(#SVGID_10_);fill:url(#SVGID_11_)}</style><path class="st0" d="M150.58 18.95v3.58h-6.34V39.7h-4.01V22.53h-6.34v-3.58h16.69zm1.7 20.75h4.01V18.95h-4.01V39.7zm24.74 0h-4.13l-2.13-5.11h-7.03l-2.11 5.11h-4.03l8.84-21.03h1.75l8.84 21.03zm19.43 0h-4.13l-2.13-5.11h-7.03l-2.11 5.11h-4.03l8.84-21.03h1.75l8.84 21.03zm-27.06-8.49l-2.12-5.17-2.14 5.17h4.26zm19.43 0l-2.12-5.17-2.14 5.17h4.26z"/><defs><path id="SVGID_1_" d="M101.25 14h97.49v32.78h-97.49z"/></defs><clipPath id="SVGID_2_"><use xlink:href="#SVGID_1_" overflow="visible"/></clipPath><path class="st1" d="M119.36 41.05c1.78 0 3.39-.74 4.55-1.92l4.91-4.91a6.394 6.394 0 0 0 1.85-4.45v-15.3h-15.28c-1.78 0-3.39.74-4.55 1.92l-4.91 4.91a6.394 6.394 0 0 0-1.85 4.45v15.3h15.28z"/><defs><path id="SVGID_3_" d="M117.17 15.82a5.03 5.03 0 0 0-5.03 5.01v1.7h10.47V33h1.68c2.78 0 5.03-2.25 5.03-5.03V15.82h-12.15z"/></defs><clipPath id="SVGID_4_"><use xlink:href="#SVGID_3_" overflow="visible"/></clipPath><linearGradient id="SVGID_5_" gradientUnits="userSpaceOnUse" x1=".623" y1="251.46" x2="1.623" y2="251.46" gradientTransform="scale(16.8965 -16.8965) rotate(45 309.307 132.54)"><stop offset="0" stop-color="#9edcf9"/><stop offset=".1" stop-color="#9edcf9"/><stop offset=".9" stop-color="#079dd9"/><stop offset="1" stop-color="#079dd9"/></linearGradient><path class="st2" d="M103.55 24.41l17.18-17.18 17.18 17.18-17.18 17.18z"/><g><defs><path id="SVGID_6_" d="M124.29 34.34H110.8l-5.36 5.36h13.93c1.36 0 2.63-.54 3.59-1.51l4.51-4.51-.12-.12c-.92.5-1.96.78-3.06.78"/></defs><clipPath id="SVGID_7_"><use xlink:href="#SVGID_6_" overflow="visible"/></clipPath><linearGradient id="SVGID_8_" gradientUnits="userSpaceOnUse" x1=".546" y1="251.045" x2="1.546" y2="251.045" gradientTransform="matrix(22.0274 0 0 -22.0274 93.403 5566.505)"><stop offset="0" stop-color="#17b0e6"/><stop offset=".114" stop-color="#18ace2"/><stop offset=".264" stop-color="#16a1d7"/><stop offset=".433" stop-color="#1290c7"/><stop offset=".617" stop-color="#0d7ab4"/><stop offset=".81" stop-color="#00619f"/><stop offset=".9" stop-color="#005595"/><stop offset="1" stop-color="#005595"/></linearGradient><path class="st3" d="M105.43 33.56h22.03v6.14h-22.03z"/></g><g><defs><path id="SVGID_9_" d="M106.94 22.19c-.98.96-1.51 2.23-1.51 3.59V39.7l5.36-5.36V20.85c0-1.11.28-2.15.78-3.06l-.12-.12-4.51 4.52z"/></defs><clipPath id="SVGID_10_"><use xlink:href="#SVGID_9_" overflow="visible"/></clipPath><linearGradient id="SVGID_11_" gradientUnits="userSpaceOnUse" x1="1.045" y1="251.454" x2="2.045" y2="251.454" gradientTransform="matrix(0 -22.0277 -22.0277 0 5647.457 62.731)"><stop offset="0" stop-color="#0582be"/><stop offset=".219" stop-color="#0478b4"/><stop offset=".653" stop-color="#00609e"/><stop offset=".85" stop-color="#005595"/><stop offset="1" stop-color="#005595"/></linearGradient><path class="st4" d="M105.43 17.68h6.14v22.03h-6.14z"/></g></svg>