<svg id="Layer_1" xmlns="http://www.w3.org/2000/svg" viewBox="0 0 160 600"><style>.st0{fill:#fff}</style><path class="st0" d="M18.26 390.39h1.97v20.71h-1.97v-20.71zM32.64 400.52c-.09-2.26-1.83-3.28-3.92-3.28-1.62 0-3.54.64-3.54 2.58 0 1.62 1.86 2.21 3.1 2.52l2.44.55c2.09.32 4.26 1.54 4.26 4.15 0 3.25-3.22 4.5-6 4.5-3.48 0-5.86-1.62-6.15-5.28h1.83c.15 2.46 1.97 3.74 4.41 3.74 1.71 0 4.09-.75 4.09-2.84 0-1.74-1.62-2.32-3.28-2.73l-2.35-.52c-2.38-.64-4.18-1.45-4.18-4 0-3.05 2.99-4.21 5.63-4.21 2.99 0 5.37 1.57 5.48 4.81h-1.82zM43.46 396.14h1.94l4.93 12.76 4.61-12.76h1.83l-6.5 17.26c-1.04 2.52-1.65 3.25-3.94 3.25-.73-.03-1.1-.03-1.39-.14v-1.54c.44.09.84.14 1.25.14 1.62 0 2-.96 2.61-2.35l.64-1.71-5.98-14.91zM71.07 403.62c0 4.29-2.5 7.92-7.08 7.92s-7.08-3.63-7.08-7.92 2.49-7.92 7.08-7.92 7.08 3.63 7.08 7.92zm-12.33 0c0 3.19 1.74 6.38 5.25 6.38s5.25-3.19 5.25-6.38-1.74-6.38-5.25-6.38-5.25 3.19-5.25 6.38zM85.48 411.1H83.8v-2.7h-.06c-.96 2-2.93 3.13-5.16 3.13-3.77 0-5.25-2.21-5.25-5.69v-9.72h1.83v9.75c.09 2.7 1.1 4.12 4 4.12 3.13 0 4.5-2.96 4.5-6v-7.86h1.83v14.97zM88.49 396.14h1.68v3.51h.06c.93-2.41 2.96-3.83 5.66-3.71v1.83c-3.31-.17-5.57 2.26-5.57 5.37v7.98h-1.83v-14.98z"/><g><path class="st0" d="M17.79 427.92h1.83v20.71h-1.83v-20.71zM22.67 427.92h1.83v2.93h-1.83v-2.93zm0 5.74h1.83v14.97h-1.83v-14.97zM33.37 435.2h-2.96v13.43h-1.83V435.2h-2.55v-1.54h2.55v-1.36c-.03-2.58.7-4.38 3.63-4.38.52 0 .96.03 1.54.12v1.57c-.49-.09-.9-.15-1.33-.15-2.03 0-1.97 1.28-2 2.9v1.3h2.96v1.54zM35.42 441.64c.03 2.67 1.42 5.89 4.93 5.89 2.67 0 4.12-1.57 4.7-3.83h1.83c-.78 3.39-2.76 5.37-6.53 5.37-4.76 0-6.76-3.66-6.76-7.92 0-3.95 2-7.92 6.76-7.92 4.82 0 6.73 4.21 6.58 8.41H35.42zm9.69-1.54c-.09-2.76-1.8-5.34-4.76-5.34-2.99 0-4.64 2.61-4.93 5.34h9.69z"/></g><g><path class="st0" d="M17.79 457.91h1.83v2.93h-1.83v-2.93zm0 5.74h1.83v14.97h-1.83v-14.97zM22.64 463.65h1.83v2.58h.06c.67-1.8 2.67-3.02 4.79-3.02 4.21 0 5.48 2.2 5.48 5.77v9.63h-1.83v-9.34c0-2.58-.84-4.53-3.8-4.53-2.9 0-4.64 2.2-4.7 5.13v8.73h-1.83v-14.95zM46.71 468.03c-.09-2.26-1.83-3.28-3.92-3.28-1.62 0-3.54.64-3.54 2.58 0 1.62 1.86 2.21 3.1 2.52l2.44.55c2.09.32 4.26 1.54 4.26 4.15 0 3.25-3.22 4.5-6 4.5-3.48 0-5.86-1.62-6.15-5.28h1.83c.15 2.46 1.97 3.74 4.41 3.74 1.71 0 4.09-.75 4.09-2.84 0-1.74-1.62-2.32-3.28-2.73l-2.35-.52c-2.38-.64-4.18-1.45-4.18-4 0-3.05 2.99-4.21 5.63-4.21 2.99 0 5.37 1.57 5.48 4.81h-1.82zM63.33 478.62h-1.68v-2.7h-.06c-.96 2-2.93 3.13-5.16 3.13-3.77 0-5.25-2.21-5.25-5.69v-9.72H53v9.75c.09 2.7 1.1 4.12 4 4.12 3.13 0 4.5-2.96 4.5-6v-7.86h1.83v14.97zM66.31 463.65h1.68v3.51h.06c.93-2.41 2.96-3.83 5.66-3.71v1.83c-3.31-.17-5.57 2.26-5.57 5.37v7.98h-1.83v-14.98zM74.69 468.23c.17-3.51 2.64-5.02 6.06-5.02 2.64 0 5.51.81 5.51 4.81v7.95c0 .7.35 1.1 1.07 1.1.2 0 .43-.06.58-.12v1.54c-.41.09-.7.12-1.19.12-1.86 0-2.15-1.04-2.15-2.61h-.06c-1.28 1.94-2.58 3.05-5.45 3.05-2.76 0-5.02-1.36-5.02-4.38 0-4.21 4.09-4.35 8.04-4.81 1.51-.17 2.35-.38 2.35-2.03 0-2.46-1.77-3.07-3.92-3.07-2.26 0-3.94 1.04-4 3.48h-1.82zm9.75 2.21h-.06c-.23.43-1.04.58-1.54.67-3.1.55-6.96.52-6.96 3.45 0 1.83 1.62 2.96 3.34 2.96 2.78 0 5.25-1.77 5.22-4.7v-2.38zM89.54 463.65h1.83v2.58h.06c.67-1.8 2.67-3.02 4.79-3.02 4.21 0 5.48 2.2 5.48 5.77v9.63h-1.83v-9.34c0-2.58-.84-4.53-3.8-4.53-2.9 0-4.64 2.2-4.7 5.13v8.73h-1.83v-14.95zM115.23 468.35c-.49-2.23-1.86-3.6-4.24-3.6-3.51 0-5.25 3.19-5.25 6.38s1.74 6.38 5.25 6.38c2.26 0 4.12-1.77 4.35-4.26h1.83c-.49 3.6-2.84 5.8-6.18 5.8-4.58 0-7.08-3.63-7.08-7.92s2.49-7.92 7.08-7.92c3.19 0 5.66 1.71 6.06 5.13h-1.82zM120.45 471.63c.03 2.67 1.42 5.89 4.93 5.89 2.67 0 4.12-1.57 4.7-3.83h1.83c-.78 3.39-2.76 5.37-6.53 5.37-4.76 0-6.76-3.66-6.76-7.92 0-3.95 2-7.92 6.76-7.92 4.81 0 6.73 4.21 6.58 8.41h-11.51zm9.69-1.54c-.09-2.76-1.8-5.34-4.76-5.34-2.99 0-4.64 2.61-4.93 5.34h9.69z"/></g><g><path class="st0" d="M28.32 498.33c-.49-2.23-1.86-3.6-4.23-3.6-3.51 0-5.25 3.19-5.25 6.38s1.74 6.38 5.25 6.38c2.26 0 4.12-1.77 4.35-4.26h1.83c-.49 3.6-2.84 5.8-6.18 5.8-4.58 0-7.08-3.63-7.08-7.92s2.49-7.92 7.08-7.92c3.19 0 5.66 1.71 6.06 5.13h-1.83zM32.38 487.89h1.83v8.33h.06c.67-1.8 2.67-3.02 4.79-3.02 4.21 0 5.48 2.2 5.48 5.77v9.63h-1.83v-9.34c0-2.58-.84-4.53-3.8-4.53-2.9 0-4.64 2.2-4.7 5.13v8.73h-1.83v-20.7zM47.34 498.22c.17-3.51 2.64-5.02 6.06-5.02 2.64 0 5.51.81 5.51 4.81v7.95c0 .7.35 1.1 1.07 1.1.2 0 .44-.06.58-.12v1.54c-.41.09-.7.12-1.19.12-1.86 0-2.15-1.04-2.15-2.61h-.06c-1.28 1.94-2.58 3.05-5.45 3.05-2.76 0-5.02-1.36-5.02-4.38 0-4.21 4.09-4.35 8.04-4.81 1.51-.17 2.35-.38 2.35-2.03 0-2.46-1.77-3.07-3.92-3.07-2.26 0-3.95 1.04-4 3.48h-1.82zm9.75 2.2h-.06c-.23.43-1.04.58-1.54.67-3.1.55-6.96.52-6.96 3.45 0 1.83 1.62 2.96 3.34 2.96 2.78 0 5.25-1.77 5.22-4.7v-2.38zM62.19 493.63h1.83v2.58h.06c.67-1.8 2.67-3.02 4.79-3.02 4.21 0 5.48 2.2 5.48 5.77v9.63h-1.83v-9.34c0-2.58-.84-4.53-3.8-4.53-2.9 0-4.64 2.2-4.7 5.13v8.73h-1.83v-14.95zM89.98 507.38c-.03 4.47-1.74 7.19-6.64 7.19-2.99 0-5.95-1.33-6.21-4.53h1.83c.41 2.21 2.35 2.99 4.38 2.99 3.36 0 4.81-2 4.81-5.66v-2.03h-.06c-.84 1.83-2.61 3.08-4.76 3.08-4.79 0-6.76-3.42-6.76-7.69 0-4.12 2.44-7.54 6.76-7.54 2.17 0 4.03 1.36 4.76 3.02h.06v-2.58h1.83v13.75zm-1.83-6.44c0-2.93-1.36-6.21-4.81-6.21-3.48 0-4.93 3.1-4.93 6.21 0 3.02 1.57 5.95 4.93 5.95 3.16 0 4.81-2.9 4.81-5.95zM92.99 487.89h1.83v2.93h-1.83v-2.93zm0 5.74h1.83v14.97h-1.83v-14.97zM97.83 493.63h1.83v2.58h.06c.67-1.8 2.67-3.02 4.79-3.02 4.21 0 5.48 2.2 5.48 5.77v9.63h-1.83v-9.34c0-2.58-.84-4.53-3.8-4.53-2.9 0-4.64 2.2-4.7 5.13v8.73h-1.83v-14.95zM125.62 507.38c-.03 4.47-1.74 7.19-6.64 7.19-2.99 0-5.95-1.33-6.21-4.53h1.83c.41 2.21 2.35 2.99 4.38 2.99 3.36 0 4.81-2 4.81-5.66v-2.03h-.06c-.84 1.83-2.61 3.08-4.76 3.08-4.79 0-6.76-3.42-6.76-7.69 0-4.12 2.44-7.54 6.76-7.54 2.17 0 4.03 1.36 4.76 3.02h.06v-2.58h1.83v13.75zm-1.83-6.44c0-2.93-1.36-6.21-4.81-6.21-3.48 0-4.93 3.1-4.93 6.21 0 3.02 1.57 5.95 4.93 5.95 3.16 0 4.81-2.9 4.81-5.95zM131.59 505.53v3.1c-.03 1.68-.81 3.45-2.55 3.94v-1.25c.96-.35 1.39-1.77 1.33-2.73h-1.22v-3.08h2.44z"/></g><g><path class="st0" d="M20.67 523.62h3.05v1.54h-3.05v10.09c0 1.19.17 1.89 1.48 1.97.52 0 1.04-.03 1.57-.09v1.57c-.55 0-1.07.06-1.62.06-2.44 0-3.28-.81-3.25-3.36v-10.24h-2.61v-1.54h2.61v-4.5h1.83v4.5zM38.5 531.11c0 4.29-2.49 7.92-7.08 7.92s-7.08-3.63-7.08-7.92 2.49-7.92 7.08-7.92 7.08 3.62 7.08 7.92zm-12.33 0c0 3.19 1.74 6.38 5.25 6.38s5.25-3.19 5.25-6.38-1.74-6.38-5.25-6.38-5.25 3.18-5.25 6.38zM54.19 531.11c0 4.29-2.49 7.92-7.08 7.92s-7.08-3.63-7.08-7.92 2.49-7.92 7.08-7.92 7.08 3.62 7.08 7.92zm-12.33 0c0 3.19 1.74 6.38 5.25 6.38s5.25-3.19 5.25-6.38-1.74-6.38-5.25-6.38-5.25 3.18-5.25 6.38zM54.71 524.26c.03-4.12 2.38-6.82 6.58-6.82 3.22 0 5.89 2 5.89 5.37 0 2.15-1.04 3.54-2.52 4.93-2.47 2.47-2.61 2.12-2.7 5.66h-1.83c-.09-3.57.9-4.5 3.34-6.76 1.07-1.01 1.89-2.23 1.89-3.74 0-2.32-1.89-3.92-4.15-3.92-3.16 0-4.73 2.29-4.67 5.28h-1.83zm5.13 11.25h2.44v3.08h-2.44v-3.08z"/></g></svg>