<svg id="Layer_1" xmlns="http://www.w3.org/2000/svg" viewBox="0 0 160 600"><style>.st0{fill:#fff}</style><path class="st0" d="M14.86 116.84h2.45v25.7h-2.45v-25.7zM24.98 123.97h3.78v1.91h-3.78v12.53c0 1.48.22 2.34 1.84 2.45.65 0 1.3-.04 1.94-.11v1.94c-.68 0-1.33.07-2.02.07-3.02 0-4.07-1.01-4.03-4.18v-12.71h-3.24v-1.91h3.24v-5.58h2.27v5.59zM35.71 116.84v3.85c-.04 2.09-1.01 4.28-3.2 4.9v-1.55c1.22-.43 1.76-2.2 1.69-3.38h-1.51v-3.82h3.02zM49.49 129.4c-.11-2.81-2.27-4.07-4.86-4.07-2.02 0-4.39.79-4.39 3.2 0 2.02 2.3 2.74 3.85 3.13l3.02.68c2.59.4 5.29 1.91 5.29 5.15 0 4.03-4 5.58-7.45 5.58-4.32 0-7.27-2.02-7.63-6.55h2.27c.18 3.06 2.45 4.64 5.47 4.64 2.12 0 5.08-.94 5.08-3.53 0-2.16-2.02-2.88-4.07-3.38l-2.92-.65c-2.95-.79-5.18-1.8-5.18-4.97 0-3.78 3.71-5.22 6.98-5.22 3.71 0 6.66 1.94 6.8 5.98h-2.26zM68.61 123.97h3.78v1.91h-3.78v12.53c0 1.48.22 2.34 1.84 2.45.65 0 1.3-.04 1.94-.11v1.94c-.68 0-1.33.07-2.02.07-3.02 0-4.07-1.01-4.03-4.18v-12.71H63.1v-1.91h3.24v-5.58h2.27v5.59zM74.69 116.84h2.27v3.64h-2.27v-3.64zm0 7.13h2.27v18.57h-2.27v-18.57zM80.63 123.97h2.09v3.13h.11c1.19-2.23 3.13-3.67 6.08-3.67 2.45 0 4.64 1.19 5.33 3.64 1.12-2.45 3.46-3.64 5.9-3.64 4.07 0 6.16 2.12 6.16 6.52v12.6h-2.27v-12.49c0-3.06-1.15-4.72-4.39-4.72-3.92 0-5.04 3.24-5.04 6.7v10.51h-2.27v-12.6c.04-2.52-1.01-4.61-3.89-4.61-3.92 0-5.51 2.95-5.54 6.84v10.37h-2.27v-18.58zM111.38 133.87c.04 3.31 1.76 7.31 6.12 7.31 3.31 0 5.11-1.94 5.83-4.75h2.27c-.97 4.21-3.42 6.66-8.1 6.66-5.9 0-8.39-4.54-8.39-9.83 0-4.9 2.48-9.83 8.39-9.83 5.98 0 8.35 5.22 8.17 10.44h-14.29zm12.02-1.91c-.11-3.42-2.23-6.62-5.9-6.62-3.71 0-5.76 3.24-6.12 6.62h12.02z"/><g><path class="st0" d="M21.41 161.88h-3.67v16.67h-2.27v-16.67H12.3v-1.91h3.17v-1.69c-.04-3.2.86-5.44 4.5-5.44.65 0 1.19.04 1.91.14v1.94c-.61-.11-1.12-.18-1.66-.18-2.52 0-2.45 1.58-2.48 3.6v1.62h3.67v1.92zM39.09 169.26c0 5.33-3.1 9.83-8.78 9.83-5.69 0-8.78-4.5-8.78-9.83s3.1-9.83 8.78-9.83 8.78 4.5 8.78 9.83zm-15.3 0c0 3.96 2.16 7.92 6.52 7.92s6.52-3.96 6.52-7.92-2.16-7.92-6.52-7.92-6.52 3.96-6.52 7.92zM41.9 159.97h2.09v4.36h.07c1.15-2.99 3.67-4.75 7.02-4.61v2.27c-4.1-.22-6.91 2.81-6.91 6.66v9.9H41.9v-18.58zM62.35 165.66c.22-4.36 3.28-6.23 7.52-6.23 3.28 0 6.84 1.01 6.84 5.98v9.86c0 .86.43 1.37 1.33 1.37.25 0 .54-.07.72-.14v1.91c-.5.11-.86.14-1.48.14-2.3 0-2.66-1.3-2.66-3.24h-.07c-1.58 2.41-3.2 3.78-6.77 3.78-3.42 0-6.23-1.69-6.23-5.44 0-5.22 5.08-5.4 9.97-5.98 1.87-.22 2.92-.47 2.92-2.52 0-3.06-2.2-3.82-4.86-3.82-2.81 0-4.9 1.3-4.97 4.32h-2.26zm12.09 2.73h-.07c-.29.54-1.3.72-1.91.83-3.85.68-8.64.65-8.64 4.28 0 2.27 2.02 3.67 4.14 3.67 3.46 0 6.52-2.2 6.48-5.83v-2.95z"/></g><g><path class="st0" d="M14.29 188.84h2.27v25.7h-2.27v-25.7zM21.67 205.87c.04 3.31 1.76 7.31 6.12 7.31 3.31 0 5.11-1.94 5.83-4.75h2.27c-.97 4.21-3.42 6.66-8.1 6.66-5.9 0-8.39-4.54-8.39-9.83 0-4.9 2.48-9.83 8.39-9.83 5.98 0 8.35 5.22 8.17 10.44H21.67zm12.02-1.91c-.11-3.42-2.23-6.62-5.9-6.62-3.71 0-5.76 3.24-6.12 6.62h12.02zM35.92 195.97h2.52l5.83 16.31h.07l5.76-16.31h2.34l-6.95 18.57h-2.41l-7.16-18.57zM54.82 205.87c.04 3.31 1.76 7.31 6.12 7.31 3.31 0 5.11-1.94 5.83-4.75h2.27c-.97 4.21-3.42 6.66-8.1 6.66-5.9 0-8.39-4.54-8.39-9.83 0-4.9 2.48-9.83 8.39-9.83 5.98 0 8.35 5.22 8.17 10.44H54.82zm12.02-1.91c-.11-3.42-2.23-6.62-5.9-6.62-3.71 0-5.76 3.24-6.12 6.62h12.02zM71.78 188.84h2.27v25.7h-2.27v-25.7zM98.81 201.4c-.11-2.81-2.27-4.07-4.86-4.07-2.02 0-4.39.79-4.39 3.2 0 2.02 2.3 2.74 3.85 3.13l3.02.68c2.59.4 5.29 1.91 5.29 5.15 0 4.03-4 5.58-7.45 5.58-4.32 0-7.27-2.02-7.63-6.55h2.27c.18 3.06 2.45 4.64 5.47 4.64 2.12 0 5.08-.94 5.08-3.53 0-2.16-2.02-2.88-4.07-3.38l-2.92-.65c-2.95-.79-5.18-1.8-5.18-4.97 0-3.78 3.71-5.22 6.98-5.22 3.71 0 6.66 1.94 6.8 5.98h-2.26zM105.65 205.87c.04 3.31 1.76 7.31 6.12 7.31 3.31 0 5.11-1.94 5.83-4.75h2.27c-.97 4.21-3.42 6.66-8.1 6.66-5.9 0-8.39-4.54-8.39-9.83 0-4.9 2.48-9.83 8.39-9.83 5.98 0 8.35 5.22 8.17 10.44h-14.29zm12.03-1.91c-.11-3.42-2.23-6.62-5.9-6.62-3.71 0-5.76 3.24-6.12 6.62h12.02zM125.63 195.97h3.78v1.91h-3.78v12.53c0 1.48.22 2.34 1.84 2.45.65 0 1.3-.04 1.94-.11v1.94c-.68 0-1.33.07-2.02.07-3.02 0-4.07-1.01-4.03-4.18v-12.71h-3.24v-1.91h3.24v-5.58h2.27v5.59zM132.47 214.54v-3.82h3.02v3.82h-3.02z"/></g></svg>