<?xml version="1.0" encoding="utf-8"?>
<!-- Generator: Adobe Illustrator 24.2.3, SVG Export Plug-In . SVG Version: 6.00 Build 0)  -->
<svg version="1.1" id="Layer_1" xmlns="http://www.w3.org/2000/svg" xmlns:xlink="http://www.w3.org/1999/xlink" x="0px" y="0px"
	 viewBox="0 0 300 250" style="enable-background:new 0 0 300 250;" xml:space="preserve">
<style type="text/css">
	.st0{fill:#FFFFFF;}
</style>
<g>
	<path class="st0" d="M42.25,44.25h-1.57l-0.29-4.16h-0.06c-1.54,3.26-4.61,4.64-7.9,4.64c-7.2,0-10.78-5.66-10.78-11.9
		c0-6.24,3.58-11.9,10.78-11.9c4.8,0,8.7,2.59,9.54,7.58h-2.18c-0.29-2.62-3.01-5.73-7.36-5.73c-6.05,0-8.61,5.06-8.61,10.05
		s2.56,10.05,8.61,10.05c5.06,0,8-3.55,7.9-8.38h-7.78v-1.86h9.7V44.25z"/>
	<path class="st0" d="M46.89,36.54c0.03,2.94,1.57,6.5,5.44,6.5c2.94,0,4.54-1.73,5.18-4.22h2.02c-0.86,3.74-3.04,5.92-7.2,5.92
		c-5.25,0-7.46-4.03-7.46-8.74c0-4.35,2.21-8.74,7.46-8.74c5.31,0,7.42,4.64,7.26,9.28H46.89z M57.58,34.84
		c-0.1-3.04-1.98-5.89-5.25-5.89c-3.3,0-5.12,2.88-5.44,5.89H57.58z"/>
	<path class="st0" d="M64.68,27.74h3.36v1.7h-3.36v11.14c0,1.31,0.19,2.08,1.63,2.18c0.58,0,1.15-0.03,1.73-0.1v1.73
		c-0.61,0-1.18,0.06-1.79,0.06c-2.69,0-3.62-0.9-3.58-3.71v-11.3h-2.88v-1.7h2.88v-4.96h2.02V27.74z"/>
	<path class="st0" d="M89.16,32.57c-0.1-2.5-2.02-3.62-4.32-3.62c-1.79,0-3.9,0.7-3.9,2.85c0,1.79,2.05,2.43,3.42,2.78l2.69,0.61
		c2.3,0.35,4.7,1.7,4.7,4.58c0,3.58-3.55,4.96-6.62,4.96c-3.84,0-6.46-1.79-6.78-5.82h2.02c0.16,2.72,2.18,4.13,4.86,4.13
		c1.89,0,4.51-0.83,4.51-3.14c0-1.92-1.79-2.56-3.62-3.01l-2.59-0.58c-2.62-0.7-4.61-1.6-4.61-4.42c0-3.36,3.3-4.64,6.21-4.64
		c3.3,0,5.92,1.73,6.05,5.31H89.16z"/>
	<path class="st0" d="M94.22,27.74h1.86v3.14h0.06c0.93-2.24,3.23-3.62,5.89-3.62c5.02,0,7.42,4.06,7.42,8.74s-2.4,8.74-7.42,8.74
		c-2.46,0-4.86-1.25-5.73-3.62h-0.06v9.25h-2.02V27.74z M102.02,28.95c-4.45,0-5.79,3.3-5.79,7.04c0,3.42,1.5,7.04,5.79,7.04
		c3.84,0,5.41-3.62,5.41-7.04S105.86,28.95,102.02,28.95z"/>
	<path class="st0" d="M113.29,36.54c0.03,2.94,1.57,6.5,5.44,6.5c2.94,0,4.54-1.73,5.18-4.22h2.02c-0.86,3.74-3.04,5.92-7.2,5.92
		c-5.25,0-7.46-4.03-7.46-8.74c0-4.35,2.21-8.74,7.46-8.74c5.31,0,7.42,4.64,7.26,9.28H113.29z M123.98,34.84
		c-0.1-3.04-1.98-5.89-5.25-5.89c-3.3,0-5.12,2.88-5.44,5.89H123.98z"/>
	<path class="st0" d="M140.04,32.92c-0.54-2.46-2.05-3.97-4.67-3.97c-3.87,0-5.79,3.52-5.79,7.04s1.92,7.04,5.79,7.04
		c2.5,0,4.54-1.95,4.8-4.7h2.02c-0.54,3.97-3.14,6.4-6.81,6.4c-5.06,0-7.81-4-7.81-8.74s2.75-8.74,7.81-8.74
		c3.52,0,6.24,1.89,6.69,5.66H140.04z"/>
	<path class="st0" d="M144.52,21.4h2.02v3.23h-2.02V21.4z M144.52,27.74h2.02v16.51h-2.02V27.74z"/>
	<path class="st0" d="M149.77,32.79c0.19-3.87,2.91-5.54,6.69-5.54c2.91,0,6.08,0.9,6.08,5.31v8.77c0,0.77,0.38,1.22,1.18,1.22
		c0.22,0,0.48-0.06,0.64-0.13v1.7c-0.45,0.1-0.77,0.13-1.31,0.13c-2.05,0-2.37-1.15-2.37-2.88h-0.06c-1.41,2.14-2.85,3.36-6.02,3.36
		c-3.04,0-5.54-1.5-5.54-4.83c0-4.64,4.51-4.8,8.86-5.31c1.66-0.19,2.59-0.42,2.59-2.24c0-2.72-1.95-3.39-4.32-3.39
		c-2.5,0-4.35,1.15-4.42,3.84H149.77z M160.52,35.22h-0.06c-0.26,0.48-1.15,0.64-1.7,0.74c-3.42,0.61-7.68,0.58-7.68,3.81
		c0,2.02,1.79,3.26,3.68,3.26c3.07,0,5.79-1.95,5.76-5.18V35.22z"/>
	<path class="st0" d="M166.15,21.4h2.02v22.85h-2.02V21.4z"/>
</g>
<g>
	<path class="st0" d="M36.3,75.89c-0.03,4.93-1.92,7.94-7.33,7.94c-3.3,0-6.56-1.47-6.85-4.99h2.02c0.45,2.43,2.59,3.3,4.83,3.3
		c3.71,0,5.31-2.21,5.31-6.24v-2.24h-0.06c-0.93,2.02-2.88,3.39-5.25,3.39c-5.28,0-7.46-3.78-7.46-8.48c0-4.54,2.69-8.32,7.46-8.32
		c2.4,0,4.45,1.5,5.25,3.33h0.06v-2.85h2.02V75.89z M34.28,68.79c0-3.23-1.5-6.85-5.31-6.85c-3.84,0-5.44,3.42-5.44,6.85
		c0,3.33,1.73,6.56,5.44,6.56C32.46,75.35,34.28,72.15,34.28,68.79z"/>
	<path class="st0" d="M39.62,60.73h1.86v3.87h0.06c1.02-2.66,3.26-4.22,6.24-4.1v2.02c-3.65-0.19-6.14,2.5-6.14,5.92v8.8h-2.02
		V60.73z"/>
	<path class="st0" d="M63.56,68.98c0,4.74-2.75,8.74-7.81,8.74s-7.81-4-7.81-8.74s2.75-8.74,7.81-8.74S63.56,64.25,63.56,68.98z
		 M49.96,68.98c0,3.52,1.92,7.04,5.79,7.04c3.87,0,5.79-3.52,5.79-7.04c0-3.52-1.92-7.04-5.79-7.04
		C51.88,61.94,49.96,65.46,49.96,68.98z"/>
	<path class="st0" d="M79.43,77.24h-1.86v-2.98h-0.06c-1.06,2.21-3.23,3.46-5.7,3.46c-4.16,0-5.79-2.43-5.79-6.27V60.73h2.02v10.75
		c0.1,2.98,1.22,4.54,4.42,4.54c3.46,0,4.96-3.26,4.96-6.62v-8.67h2.02V77.24z"/>
	<path class="st0" d="M82.73,60.73h1.86v3.14h0.06c0.93-2.24,3.23-3.62,5.89-3.62c5.02,0,7.42,4.06,7.42,8.74
		c0,4.67-2.4,8.74-7.42,8.74c-2.46,0-4.86-1.25-5.73-3.62h-0.06v9.25h-2.02V60.73z M90.54,61.94c-4.45,0-5.79,3.3-5.79,7.04
		c0,3.42,1.5,7.04,5.79,7.04c3.84,0,5.41-3.62,5.41-7.04S94.38,61.94,90.54,61.94z"/>
	<path class="st0" d="M109.38,60.73h1.86v3.87h0.06c1.02-2.66,3.26-4.22,6.24-4.1v2.02c-3.65-0.19-6.14,2.5-6.14,5.92v8.8h-2.02
		V60.73z"/>
	<path class="st0" d="M118.6,65.78c0.19-3.87,2.91-5.54,6.69-5.54c2.91,0,6.08,0.9,6.08,5.31v8.77c0,0.77,0.38,1.22,1.18,1.22
		c0.22,0,0.48-0.06,0.64-0.13v1.7c-0.45,0.1-0.77,0.13-1.31,0.13c-2.05,0-2.37-1.15-2.37-2.88h-0.06c-1.41,2.14-2.85,3.36-6.02,3.36
		c-3.04,0-5.54-1.5-5.54-4.83c0-4.64,4.51-4.8,8.86-5.31c1.66-0.19,2.59-0.42,2.59-2.24c0-2.72-1.95-3.39-4.32-3.39
		c-2.5,0-4.35,1.15-4.42,3.84H118.6z M129.35,68.21h-0.06c-0.26,0.48-1.15,0.64-1.7,0.74c-3.42,0.61-7.68,0.58-7.68,3.81
		c0,2.02,1.79,3.26,3.68,3.26c3.07,0,5.79-1.95,5.76-5.18V68.21z"/>
	<path class="st0" d="M137.74,60.73h3.36v1.7h-3.36v11.14c0,1.31,0.19,2.08,1.63,2.18c0.58,0,1.15-0.03,1.73-0.1v1.73
		c-0.61,0-1.18,0.06-1.79,0.06c-2.69,0-3.62-0.9-3.58-3.71v-11.3h-2.88v-1.7h2.88v-4.96h2.02V60.73z"/>
	<path class="st0" d="M143.91,69.53c0.03,2.94,1.57,6.5,5.44,6.5c2.94,0,4.54-1.73,5.18-4.22h2.02c-0.86,3.74-3.04,5.92-7.2,5.92
		c-5.25,0-7.46-4.03-7.46-8.74c0-4.35,2.21-8.74,7.46-8.74c5.31,0,7.42,4.64,7.26,9.28H143.91z M154.6,67.83
		c-0.1-3.04-1.98-5.89-5.25-5.89c-3.3,0-5.12,2.88-5.44,5.89H154.6z"/>
	<path class="st0" d="M168.9,65.56c-0.1-2.5-2.02-3.62-4.32-3.62c-1.79,0-3.9,0.7-3.9,2.85c0,1.79,2.05,2.43,3.42,2.78l2.69,0.61
		c2.3,0.35,4.7,1.7,4.7,4.58c0,3.58-3.55,4.96-6.62,4.96c-3.84,0-6.46-1.79-6.78-5.82h2.02c0.16,2.72,2.18,4.13,4.86,4.13
		c1.89,0,4.51-0.83,4.51-3.14c0-1.92-1.79-2.56-3.62-3.01l-2.59-0.58c-2.62-0.7-4.61-1.6-4.61-4.42c0-3.36,3.29-4.64,6.21-4.64
		c3.3,0,5.92,1.73,6.05,5.31H168.9z"/>
	<path class="st0" d="M197.48,68.98c0,4.74-2.75,8.74-7.81,8.74s-7.81-4-7.81-8.74s2.75-8.74,7.81-8.74S197.48,64.25,197.48,68.98z
		 M183.88,68.98c0,3.52,1.92,7.04,5.79,7.04c3.87,0,5.79-3.52,5.79-7.04c0-3.52-1.92-7.04-5.79-7.04
		C185.8,61.94,183.88,65.46,183.88,68.98z"/>
	<path class="st0" d="M199.97,60.73h2.02v2.85h0.06c0.74-1.98,2.94-3.33,5.28-3.33c4.64,0,6.05,2.43,6.05,6.37v10.62h-2.02v-10.3
		c0-2.85-0.93-4.99-4.19-4.99c-3.2,0-5.12,2.43-5.18,5.66v9.63h-2.02V60.73z"/>
</g>
<g>
	<path class="st0" d="M22.73,87.38h2.18v20.99h12.8v1.86H22.73V87.38z"/>
	<path class="st0" d="M39.98,102.52c0.03,2.94,1.57,6.5,5.44,6.5c2.94,0,4.54-1.73,5.18-4.22h2.02c-0.86,3.74-3.04,5.92-7.2,5.92
		c-5.25,0-7.46-4.03-7.46-8.74c0-4.35,2.21-8.74,7.46-8.74c5.31,0,7.42,4.64,7.26,9.28H39.98z M50.66,100.82
		c-0.1-3.04-1.98-5.89-5.25-5.89c-3.3,0-5.12,2.88-5.44,5.89H50.66z"/>
	<path class="st0" d="M52.68,93.72h2.24l5.18,14.5h0.06l5.12-14.5h2.08l-6.18,16.51h-2.14L52.68,93.72z"/>
	<path class="st0" d="M69.54,102.52c0.03,2.94,1.57,6.5,5.44,6.5c2.94,0,4.54-1.73,5.18-4.22h2.02c-0.86,3.74-3.04,5.92-7.2,5.92
		c-5.25,0-7.46-4.03-7.46-8.74c0-4.35,2.21-8.74,7.46-8.74c5.31,0,7.42,4.64,7.26,9.28H69.54z M80.23,100.82
		c-0.1-3.04-1.98-5.89-5.25-5.89c-3.3,0-5.12,2.88-5.44,5.89H80.23z"/>
	<path class="st0" d="M84.65,87.38h2.02v22.85h-2.02V87.38z"/>
	<path class="st0" d="M96.78,87.38h18.11v1.86h-7.97v20.99h-2.18V89.24h-7.97V87.38z"/>
	<path class="st0" d="M114.31,102.52c0.03,2.94,1.57,6.5,5.44,6.5c2.94,0,4.54-1.73,5.18-4.22h2.02c-0.86,3.74-3.04,5.92-7.2,5.92
		c-5.25,0-7.46-4.03-7.46-8.74c0-4.35,2.21-8.74,7.46-8.74c5.31,0,7.42,4.64,7.26,9.28H114.31z M125,100.82
		c-0.1-3.04-1.98-5.89-5.25-5.89c-3.3,0-5.12,2.88-5.44,5.89H125z"/>
	<path class="st0" d="M129.38,93.72h1.86v3.87h0.06c1.02-2.66,3.26-4.22,6.24-4.1v2.02c-3.65-0.19-6.14,2.5-6.14,5.92v8.8h-2.02
		V93.72z"/>
	<path class="st0" d="M139.14,93.72H141v2.78h0.1c1.06-1.98,2.78-3.26,5.41-3.26c2.18,0,4.13,1.06,4.74,3.23
		c0.99-2.18,3.07-3.23,5.25-3.23c3.62,0,5.47,1.89,5.47,5.79v11.2h-2.02v-11.1c0-2.72-1.02-4.19-3.9-4.19
		c-3.49,0-4.48,2.88-4.48,5.95v9.34h-2.02v-11.2c0.03-2.24-0.9-4.1-3.46-4.1c-3.49,0-4.9,2.62-4.93,6.08v9.22h-2.02V93.72z"/>
</g>
<g>
	<path class="st0" d="M22.73,120.38h2.18v20.99h12.8v1.86H22.73V120.38z"/>
	<path class="st0" d="M39.24,120.38h2.02v3.23h-2.02V120.38z M39.24,126.71h2.02v16.51h-2.02V126.71z"/>
	<path class="st0" d="M51.05,128.41h-3.26v14.81h-2.02v-14.81h-2.82v-1.7h2.82v-1.5c-0.03-2.85,0.77-4.83,4-4.83
		c0.58,0,1.06,0.03,1.7,0.13v1.73c-0.54-0.1-0.99-0.16-1.47-0.16c-2.24,0-2.18,1.41-2.21,3.2v1.44h3.26V128.41z"/>
	<path class="st0" d="M53.26,135.51c0.03,2.94,1.57,6.5,5.44,6.5c2.94,0,4.54-1.73,5.18-4.22h2.02c-0.86,3.74-3.04,5.92-7.2,5.92
		c-5.25,0-7.46-4.03-7.46-8.74c0-4.35,2.21-8.73,7.46-8.73c5.31,0,7.42,4.64,7.26,9.28H53.26z M63.94,133.82
		c-0.1-3.04-1.98-5.89-5.25-5.89c-3.3,0-5.12,2.88-5.44,5.89H63.94z"/>
	<path class="st0" d="M77.51,120.38h2.18v22.85h-2.18V120.38z"/>
	<path class="st0" d="M83.4,126.71h2.02v2.85h0.06c0.74-1.98,2.94-3.33,5.28-3.33c4.64,0,6.05,2.43,6.05,6.37v10.62h-2.02v-10.3
		c0-2.85-0.93-4.99-4.19-4.99c-3.2,0-5.12,2.43-5.18,5.66v9.63H83.4V126.71z"/>
	<path class="st0" d="M109.93,131.54c-0.1-2.5-2.02-3.62-4.32-3.62c-1.79,0-3.9,0.7-3.9,2.85c0,1.79,2.05,2.43,3.42,2.78l2.69,0.61
		c2.3,0.35,4.7,1.7,4.7,4.58c0,3.58-3.55,4.96-6.62,4.96c-3.84,0-6.46-1.79-6.78-5.82h2.02c0.16,2.72,2.18,4.13,4.86,4.13
		c1.89,0,4.51-0.83,4.51-3.14c0-1.92-1.79-2.56-3.62-3.01l-2.59-0.58c-2.62-0.7-4.61-1.6-4.61-4.42c0-3.36,3.3-4.64,6.21-4.64
		c3.3,0,5.92,1.73,6.05,5.31H109.93z"/>
	<path class="st0" d="M128.23,143.22h-1.86v-2.98h-0.06c-1.06,2.21-3.23,3.46-5.7,3.46c-4.16,0-5.79-2.43-5.79-6.27v-10.72h2.02
		v10.75c0.1,2.98,1.22,4.54,4.42,4.54c3.46,0,4.96-3.26,4.96-6.62v-8.67h2.02V143.22z"/>
	<path class="st0" d="M131.49,126.71h1.86v3.87h0.06c1.02-2.66,3.26-4.22,6.24-4.1v2.02c-3.65-0.19-6.14,2.5-6.14,5.92v8.8h-2.02
		V126.71z"/>
	<path class="st0" d="M140.74,131.77c0.19-3.87,2.91-5.54,6.69-5.54c2.91,0,6.08,0.9,6.08,5.31v8.77c0,0.77,0.38,1.22,1.18,1.22
		c0.22,0,0.48-0.06,0.64-0.13v1.7c-0.45,0.1-0.77,0.13-1.31,0.13c-2.05,0-2.37-1.15-2.37-2.88h-0.06c-1.41,2.14-2.85,3.36-6.02,3.36
		c-3.04,0-5.54-1.5-5.54-4.83c0-4.64,4.51-4.8,8.86-5.31c1.66-0.19,2.59-0.42,2.59-2.24c0-2.72-1.95-3.39-4.32-3.39
		c-2.5,0-4.35,1.15-4.42,3.84H140.74z M151.49,134.2h-0.06c-0.26,0.48-1.15,0.64-1.7,0.74c-3.42,0.61-7.68,0.58-7.68,3.81
		c0,2.02,1.79,3.26,3.68,3.26c3.07,0,5.79-1.95,5.76-5.18V134.2z"/>
	<path class="st0" d="M157.09,126.71h2.02v2.85h0.06c0.74-1.98,2.94-3.33,5.28-3.33c4.64,0,6.05,2.43,6.05,6.37v10.62h-2.02v-10.3
		c0-2.85-0.93-4.99-4.19-4.99c-3.2,0-5.12,2.43-5.18,5.66v9.63h-2.02V126.71z"/>
	<path class="st0" d="M185.45,131.9c-0.54-2.46-2.05-3.97-4.67-3.97c-3.87,0-5.79,3.52-5.79,7.04c0,3.52,1.92,7.04,5.79,7.04
		c2.5,0,4.54-1.95,4.8-4.7h2.02c-0.54,3.97-3.14,6.4-6.82,6.4c-5.06,0-7.81-4-7.81-8.74c0-4.74,2.75-8.73,7.81-8.73
		c3.52,0,6.24,1.89,6.69,5.66H185.45z"/>
	<path class="st0" d="M191.17,135.51c0.03,2.94,1.57,6.5,5.44,6.5c2.94,0,4.54-1.73,5.18-4.22h2.02c-0.86,3.74-3.04,5.92-7.2,5.92
		c-5.25,0-7.46-4.03-7.46-8.74c0-4.35,2.21-8.73,7.46-8.73c5.31,0,7.42,4.64,7.26,9.28H191.17z M201.86,133.82
		c-0.1-3.04-1.98-5.89-5.25-5.89c-3.29,0-5.12,2.88-5.44,5.89H201.86z"/>
	<path class="st0" d="M206.63,143.22v-3.39h2.69v3.39H206.63z"/>
</g>
</svg>
