<svg id="Layer_1" xmlns="http://www.w3.org/2000/svg" viewBox="0 0 728 90"><style>.st0{fill:#fff}</style><path class="st0" d="M339.96 32.55l-7.02-10.5h2.02l5.87 9.05 5.85-9.05h2.02l-7.05 10.5v7.35h-1.7v-7.35zM358.91 33.45c0 3.7-2.15 6.82-6.1 6.82s-6.1-3.12-6.1-6.82 2.15-6.82 6.1-6.82 6.1 3.12 6.1 6.82zm-10.63 0c0 2.75 1.5 5.5 4.52 5.5s4.52-2.75 4.52-5.5-1.5-5.5-4.52-5.5-4.52 2.75-4.52 5.5zM371.33 39.9h-1.45v-2.32h-.05c-.82 1.72-2.52 2.7-4.45 2.7-3.25 0-4.52-1.9-4.52-4.9V27h1.57v8.4c.08 2.32.95 3.55 3.45 3.55 2.7 0 3.87-2.55 3.87-5.17V27h1.58v12.9zM373.96 27h1.45v3.02h.05c.8-2.07 2.55-3.3 4.87-3.2v1.57c-2.85-.15-4.8 1.95-4.8 4.62v6.87h-1.57V27zM388.36 22.05h1.58V39.9h-1.58V22.05zM392.58 22.05h1.58v2.52h-1.58v-2.52zm0 4.95h1.58v12.9h-1.58V27zM401.86 28.32h-2.55V39.9h-1.57V28.32h-2.2V27h2.2v-1.17c-.03-2.22.6-3.77 3.12-3.77.45 0 .83.02 1.33.1v1.35c-.43-.08-.78-.12-1.15-.12-1.75 0-1.7 1.1-1.72 2.5V27h2.55v1.32zM403.63 33.87c.02 2.3 1.22 5.07 4.25 5.07 2.3 0 3.55-1.35 4.05-3.3h1.57c-.67 2.92-2.37 4.62-5.62 4.62-4.1 0-5.82-3.15-5.82-6.82 0-3.4 1.72-6.82 5.82-6.82 4.15 0 5.8 3.62 5.67 7.25h-9.92zm8.35-1.32c-.08-2.37-1.55-4.6-4.1-4.6-2.58 0-4 2.25-4.25 4.6h8.35zM422.18 22.05h1.58v2.52h-1.58v-2.52zm0 4.95h1.58v12.9h-1.58V27zM434.16 30.77c-.08-1.95-1.57-2.82-3.37-2.82-1.4 0-3.05.55-3.05 2.22 0 1.4 1.6 1.9 2.67 2.17l2.1.48c1.8.27 3.67 1.32 3.67 3.57 0 2.8-2.77 3.87-5.17 3.87-3 0-5.05-1.4-5.3-4.55h1.58c.12 2.12 1.7 3.22 3.8 3.22 1.47 0 3.52-.65 3.52-2.45 0-1.5-1.4-2-2.82-2.35l-2.02-.45c-2.05-.55-3.6-1.25-3.6-3.45 0-2.62 2.57-3.62 4.85-3.62 2.57 0 4.62 1.35 4.72 4.15h-1.58zM454.05 31.05c-.42-1.92-1.6-3.1-3.65-3.1-3.02 0-4.52 2.75-4.52 5.5s1.5 5.5 4.52 5.5c1.95 0 3.55-1.52 3.75-3.67h1.58c-.43 3.1-2.45 5-5.32 5-3.95 0-6.1-3.12-6.1-6.82s2.15-6.82 6.1-6.82c2.75 0 4.87 1.47 5.22 4.42h-1.58zM457.61 22.05h1.57v7.17h.05c.57-1.55 2.3-2.6 4.12-2.6 3.62 0 4.72 1.9 4.72 4.97v8.3h-1.58v-8.05c0-2.22-.72-3.9-3.27-3.9-2.5 0-4 1.9-4.05 4.42v7.52h-1.57V22.05zM470.53 30.95c.15-3.02 2.27-4.32 5.22-4.32 2.27 0 4.75.7 4.75 4.15v6.85c0 .6.3.95.92.95.17 0 .38-.05.5-.1v1.32c-.35.08-.6.1-1.03.1-1.6 0-1.85-.9-1.85-2.25H479c-1.1 1.67-2.22 2.62-4.7 2.62-2.38 0-4.32-1.17-4.32-3.77 0-3.62 3.52-3.75 6.92-4.15 1.3-.15 2.03-.32 2.03-1.75 0-2.12-1.53-2.65-3.38-2.65-1.95 0-3.4.9-3.45 3h-1.57zm8.4 1.9h-.05c-.2.38-.9.5-1.32.57-2.67.48-6 .45-6 2.97 0 1.57 1.4 2.55 2.88 2.55 2.4 0 4.52-1.52 4.5-4.05v-2.04zM483.36 27h1.57v2.22h.05c.57-1.55 2.3-2.6 4.12-2.6 3.62 0 4.72 1.9 4.72 4.97v8.3h-1.58v-8.05c0-2.22-.72-3.9-3.27-3.9-2.5 0-4 1.9-4.05 4.42v7.52h-1.57V27zM507.35 38.85c-.03 3.85-1.5 6.2-5.72 6.2-2.58 0-5.12-1.15-5.35-3.9h1.58c.35 1.9 2.02 2.57 3.77 2.57 2.9 0 4.15-1.72 4.15-4.87V37.1h-.05c-.72 1.57-2.25 2.65-4.1 2.65-4.12 0-5.82-2.95-5.82-6.62 0-3.55 2.1-6.5 5.82-6.5 1.87 0 3.47 1.17 4.1 2.6h.05V27h1.58v11.85zm-1.57-5.55c0-2.52-1.17-5.35-4.15-5.35-3 0-4.25 2.67-4.25 5.35 0 2.6 1.35 5.12 4.25 5.12 2.72 0 4.15-2.5 4.15-5.12zM510.01 22.05h1.58v2.52h-1.58v-2.52zm0 4.95h1.58v12.9h-1.58V27zM514.21 27h1.57v2.22h.05c.57-1.55 2.3-2.6 4.12-2.6 3.62 0 4.72 1.9 4.72 4.97v8.3h-1.58v-8.05c0-2.22-.72-3.9-3.27-3.9-2.5 0-4 1.9-4.05 4.42v7.52h-1.57V27zM538.2 38.85c-.03 3.85-1.5 6.2-5.72 6.2-2.58 0-5.12-1.15-5.35-3.9h1.58c.35 1.9 2.02 2.57 3.77 2.57 2.9 0 4.15-1.72 4.15-4.87V37.1h-.05c-.72 1.57-2.25 2.65-4.1 2.65-4.12 0-5.82-2.95-5.82-6.62 0-3.55 2.1-6.5 5.82-6.5 1.87 0 3.47 1.17 4.1 2.6h.05V27h1.58v11.85zm-1.57-5.55c0-2.52-1.17-5.35-4.15-5.35-3 0-4.25 2.67-4.25 5.35 0 2.6 1.35 5.12 4.25 5.12 2.72 0 4.15-2.5 4.15-5.12zM541.28 39.9v-2.65h2.1v2.65h-2.1z"/></svg>