<svg id="Layer_1" xmlns="http://www.w3.org/2000/svg" viewBox="0 0 160 600"><style>.st0{fill:#006098}</style><path class="st0" d="M28.5 254.39h-2.76l-.25-1.79c-1.13 1.59-3.06 2.14-4.58 2.14-4.97 0-8.19-3.79-8.19-8.55 0-4.76 3.22-8.55 8.19-8.55 3.4 0 7.04 1.82 7.43 5.93h-4.28c-.14-1.4-1.52-2.25-3.24-2.25-2.76 0-3.82 2.44-3.82 4.88s1.06 4.87 3.82 4.87c2.12 0 3.54-.99 3.77-2.48H21.6v-3.17h6.9v8.97zM34.35 249.38c.07 1.63 1.01 2.71 2.67 2.71.94 0 1.86-.44 2.23-1.31h3.66c-.71 2.76-3.27 3.96-5.93 3.96-3.89 0-6.53-2.35-6.53-6.35 0-3.66 2.92-6.28 6.44-6.28 4.28 0 6.42 3.22 6.23 7.27h-8.77zm4.85-2.19c-.07-1.33-1.01-2.44-2.32-2.44-1.38 0-2.3.99-2.53 2.44h4.85zM51.87 244.99h-2.41v5.43c0 .94.55 1.15 1.4 1.15.32 0 .67-.05 1.01-.05v2.87c-.71.02-1.43.11-2.14.11-3.33 0-4.19-.97-4.19-4.21v-5.31h-1.98v-2.53h1.98v-3.61h3.91v3.61h2.41v2.54zM16.22 273.46c0 .6.25 1.03.64 1.33.37.28.9.41 1.45.41.76 0 1.84-.32 1.84-1.26 0-.92-1.22-1.1-1.91-1.26-2.46-.62-5.54-.69-5.54-3.91 0-2.87 3.1-3.66 5.45-3.66 2.62 0 5.36.76 5.5 3.86h-3.61c0-.51-.18-.83-.51-1.04-.32-.21-.76-.3-1.24-.3-.64 0-1.68.07-1.68.9 0 1.13 2.62 1.33 4.42 1.72 2.41.48 3.04 2.23 3.04 3.22 0 3.2-3.04 4.25-5.73 4.25-2.83 0-5.73-.94-5.84-4.28h3.72zM25.81 265.46h3.73v1.38h.05c.76-1.13 1.91-1.72 3.29-1.72 3.75 0 5.33 3.22 5.33 6.58 0 3.1-1.66 6.05-5.04 6.05-1.47 0-2.6-.55-3.4-1.63h-.05v5.29h-3.91v-15.95zm3.77 5.84c0 2.09.6 3.45 2.37 3.45 1.75 0 2.35-1.82 2.35-3.45 0-1.52-.6-3.2-2.32-3.2-1.06 0-2.4.74-2.4 3.2zM43.38 272.38c.07 1.63 1.01 2.71 2.67 2.71.94 0 1.86-.44 2.23-1.31h3.66c-.71 2.76-3.27 3.96-5.93 3.96-3.89 0-6.53-2.35-6.53-6.35 0-3.66 2.92-6.28 6.44-6.28 4.28 0 6.42 3.22 6.23 7.27h-8.77zm4.86-2.19c-.07-1.33-1.01-2.44-2.32-2.44-1.38 0-2.3.99-2.53 2.44h4.85zM61.62 269.83c-.02-1.01-.92-1.72-1.91-1.72-2.18 0-2.53 1.86-2.53 3.52 0 1.54.67 3.13 2.32 3.13 1.36 0 2.05-.78 2.23-2.05h3.79c-.34 3.2-2.83 5.04-6 5.04-3.59 0-6.25-2.46-6.25-6.12 0-3.79 2.41-6.51 6.25-6.51 2.97 0 5.61 1.56 5.89 4.71h-3.79zM71.26 263.96h-3.91v-2.99h3.91v2.99zm-3.91 1.5h3.91v11.93h-3.91v-11.93zM73.61 269.14c.07-1.56.8-2.58 1.86-3.2 1.06-.6 2.44-.83 3.79-.83 2.83 0 5.56.62 5.56 4v5.22c0 1.01 0 2.12.46 3.06h-3.93c-.14-.37-.18-.74-.23-1.13-1.01 1.06-2.51 1.47-3.93 1.47-2.28 0-4.07-1.15-4.07-3.61 0-3.89 4.23-3.59 6.94-4.14.67-.14 1.04-.37 1.04-1.1 0-.9-1.08-1.24-1.89-1.24-1.08 0-1.77.48-1.96 1.49h-3.64zm5.06 6.18c1.86 0 2.48-1.06 2.39-3.52-.55.35-1.56.41-2.42.64-.87.21-1.61.57-1.61 1.52 0 .97.76 1.36 1.64 1.36zM87.29 260.97h3.91v16.42h-3.91v-16.42z"/><g><path class="st0" d="M24.73 298.94c0 1.95-.37 5.63-5.96 5.63-2.78 0-5.4-.62-5.86-3.82h3.91c.09.53.3.85.67 1.03.34.18.83.25 1.43.25 1.86 0 2.05-1.31 2.05-2.78v-1.13h-.05a3.787 3.787 0 0 1-3.17 1.75c-3.61 0-5.24-2.58-5.24-5.93 0-3.17 1.86-5.84 5.24-5.84 1.43 0 2.51.62 3.2 1.84H21v-1.49h3.75v10.49zm-6.05-7.84c-1.72 0-2.28 1.52-2.28 2.99 0 1.4.64 2.81 2.25 2.81 1.66 0 2.37-1.29 2.37-2.78.01-1.52-.59-3.02-2.34-3.02zM27.15 288.46h3.79v2.09h.05c.57-1.52 1.91-2.32 3.59-2.32.3 0 .62.02.92.09v3.56c-.51-.14-.97-.23-1.49-.23-1.93 0-2.94 1.33-2.94 2.83v5.91h-3.91v-11.93zM42.39 288.11c3.7 0 6.3 2.74 6.3 6.32 0 3.59-2.6 6.3-6.3 6.3s-6.28-2.71-6.28-6.3c.01-3.58 2.58-6.32 6.28-6.32zm0 9.64c1.82 0 2.39-1.79 2.39-3.31s-.57-3.33-2.39-3.33c-1.82 0-2.37 1.82-2.37 3.33s.56 3.31 2.37 3.31zM62.29 300.39H58.5v-1.63h-.05c-.74 1.22-2.25 1.98-3.63 1.98-3.43 0-4.42-1.98-4.42-5.1v-7.17h3.91v6.92c0 1.59.69 2.14 1.93 2.14.85 0 2.14-.55 2.14-2.67v-6.39h3.91v11.92zM64.71 288.46h3.73v1.38h.05c.76-1.13 1.91-1.72 3.29-1.72 3.75 0 5.33 3.22 5.33 6.58 0 3.1-1.66 6.05-5.04 6.05-1.47 0-2.6-.55-3.4-1.63h-.05v5.29h-3.91v-15.95zm3.77 5.84c0 2.09.6 3.45 2.37 3.45 1.75 0 2.35-1.82 2.35-3.45 0-1.52-.6-3.2-2.32-3.2-1.07 0-2.4.74-2.4 3.2zM86.16 288.46h3.79v2.09H90c.57-1.52 1.91-2.32 3.59-2.32.3 0 .62.02.92.09v3.56c-.51-.14-.97-.23-1.5-.23-1.93 0-2.94 1.33-2.94 2.83v5.91h-3.91v-11.93zM95.52 292.14c.07-1.56.8-2.58 1.86-3.2 1.06-.6 2.44-.83 3.79-.83 2.83 0 5.56.62 5.56 4v5.22c0 1.01 0 2.12.46 3.06h-3.93c-.14-.37-.18-.74-.23-1.13-1.01 1.06-2.51 1.47-3.93 1.47-2.28 0-4.07-1.15-4.07-3.61 0-3.89 4.23-3.59 6.94-4.14.67-.14 1.04-.37 1.04-1.1 0-.9-1.08-1.24-1.89-1.24-1.08 0-1.77.48-1.96 1.49h-3.64zm5.06 6.18c1.86 0 2.48-1.06 2.39-3.52-.55.35-1.56.41-2.42.64-.87.21-1.61.57-1.61 1.52.01.97.77 1.36 1.64 1.36zM116.18 290.99h-2.41v5.43c0 .94.55 1.15 1.4 1.15.32 0 .67-.05 1.01-.05v2.87c-.71.02-1.43.11-2.14.11-3.33 0-4.18-.97-4.18-4.21v-5.31h-1.98v-2.53h1.98v-3.61h3.91v3.61h2.41v2.54zM120.85 295.38c.07 1.63 1.01 2.71 2.67 2.71.94 0 1.86-.44 2.23-1.31h3.66c-.71 2.76-3.27 3.96-5.93 3.96-3.89 0-6.53-2.35-6.53-6.35 0-3.66 2.92-6.28 6.44-6.28 4.28 0 6.42 3.22 6.23 7.27h-8.77zm4.85-2.19c-.07-1.33-1.01-2.44-2.32-2.44-1.38 0-2.3.99-2.53 2.44h4.85zM134.37 296.46c0 .6.25 1.03.64 1.33.37.28.9.41 1.45.41.76 0 1.84-.32 1.84-1.26 0-.92-1.22-1.1-1.91-1.26-2.46-.62-5.54-.69-5.54-3.91 0-2.87 3.1-3.66 5.45-3.66 2.62 0 5.36.76 5.5 3.86h-3.61c0-.51-.18-.83-.51-1.04-.32-.21-.76-.3-1.24-.3-.64 0-1.68.07-1.68.9 0 1.13 2.62 1.33 4.42 1.72 2.41.48 3.04 2.23 3.04 3.22 0 3.2-3.04 4.25-5.73 4.25-2.83 0-5.73-.94-5.84-4.28h3.72z"/></g><g><path class="st0" d="M18.89 311.11c3.7 0 6.3 2.74 6.3 6.32 0 3.59-2.6 6.3-6.3 6.3s-6.28-2.71-6.28-6.3c0-3.58 2.58-6.32 6.28-6.32zm0 9.64c1.82 0 2.39-1.79 2.39-3.31s-.57-3.33-2.39-3.33c-1.82 0-2.37 1.82-2.37 3.33s.55 3.31 2.37 3.31zM26.99 311.46h3.79v1.63h.05c.71-1.22 2.32-1.98 3.75-1.98 3.98 0 4.3 2.9 4.3 4.62v7.66h-3.91v-5.77c0-1.63.18-3.29-1.95-3.29-1.47 0-2.12 1.24-2.12 2.55v6.51h-3.91v-11.93zM48.47 306.97h4.28v12.74h7.66v3.68H48.47v-16.42zM65.39 318.38c.07 1.63 1.01 2.71 2.67 2.71.94 0 1.86-.44 2.23-1.31h3.66c-.71 2.76-3.27 3.96-5.93 3.96-3.89 0-6.53-2.35-6.53-6.35 0-3.66 2.92-6.28 6.44-6.28 4.28 0 6.42 3.22 6.23 7.27h-8.77zm4.86-2.19c-.07-1.33-1.01-2.44-2.32-2.44-1.38 0-2.3.99-2.53 2.44h4.85zM82.74 323.39h-4.51l-3.98-11.93h4.07l2.18 7.89h.05l2.21-7.89h3.98l-4 11.93zM90.76 318.38c.07 1.63 1.01 2.71 2.67 2.71.94 0 1.86-.44 2.23-1.31h3.66c-.71 2.76-3.27 3.96-5.93 3.96-3.89 0-6.53-2.35-6.53-6.35 0-3.66 2.92-6.28 6.44-6.28 4.28 0 6.42 3.22 6.23 7.27h-8.77zm4.85-2.19c-.07-1.33-1.01-2.44-2.32-2.44-1.38 0-2.3.99-2.53 2.44h4.85zM101.34 306.97h3.91v16.42h-3.91v-16.42z"/></g><g><path class="st0" d="M26.36 333.65h-4.9v12.74h-4.28v-12.74h-4.9v-3.68h14.07v3.68zM29.19 341.38c.07 1.63 1.01 2.71 2.67 2.71.94 0 1.86-.44 2.23-1.31h3.66c-.71 2.76-3.27 3.96-5.93 3.96-3.89 0-6.53-2.35-6.53-6.35 0-3.66 2.92-6.28 6.44-6.28 4.28 0 6.42 3.22 6.23 7.27h-8.77zm4.85-2.19c-.07-1.33-1.01-2.44-2.32-2.44-1.38 0-2.3.99-2.53 2.44h4.85zM39.73 334.46h3.79v2.09h.05c.57-1.52 1.91-2.32 3.59-2.32.3 0 .62.02.92.09v3.56c-.51-.14-.97-.23-1.49-.23-1.93 0-2.94 1.33-2.94 2.83v5.91h-3.91v-11.93zM49.18 334.46h3.79v1.63h.05c.71-1.2 1.98-1.98 3.43-1.98 1.49 0 2.83.48 3.47 1.93.94-1.26 2.12-1.93 3.73-1.93 3.79 0 4.21 2.87 4.21 5.15v7.13h-3.91v-7.01c0-1.29-.62-2.05-1.63-2.05-1.68 0-1.84 1.29-1.84 3.22v5.84h-3.91v-6.78c0-1.4-.41-2.28-1.47-2.28-1.4 0-2 .8-2 3.24v5.82h-3.91v-11.93zM77.45 329.97h4.28v12.74h7.66v3.68H77.45v-16.42zM94.9 332.96h-3.91v-2.99h3.91v2.99zm-3.91 1.5h3.91v11.93h-3.91v-11.93zM98.21 336.99h-1.88v-2.53h1.88c0-3.43 1.2-4.48 4.53-4.48.62 0 1.26.05 1.89.07v2.76c-.37-.05-.71-.07-1.06-.07-.9 0-1.45.12-1.45 1.2v.53h2.35V337h-2.35v9.41h-3.91v-9.42zM108.82 341.38c.07 1.63 1.01 2.71 2.67 2.71.94 0 1.86-.44 2.23-1.31h3.66c-.71 2.76-3.27 3.96-5.93 3.96-3.89 0-6.53-2.35-6.53-6.35 0-3.66 2.92-6.28 6.44-6.28 4.28 0 6.42 3.22 6.23 7.27h-8.77zm4.85-2.19c-.07-1.33-1.01-2.44-2.32-2.44-1.38 0-2.3.99-2.53 2.44h4.85z"/></g><g><path class="st0" d="M13.35 352.97h4.28v16.42h-4.28v-16.42zM20.25 357.46h3.79v1.63h.05c.71-1.22 2.32-1.98 3.75-1.98 3.98 0 4.3 2.9 4.3 4.62v7.66h-3.91v-5.77c0-1.63.18-3.29-1.95-3.29-1.47 0-2.12 1.24-2.12 2.55v6.51h-3.91v-11.93zM37.59 365.46c0 .6.25 1.04.64 1.33.37.28.9.41 1.45.41.76 0 1.84-.32 1.84-1.26 0-.92-1.22-1.1-1.91-1.26-2.46-.62-5.54-.69-5.54-3.91 0-2.87 3.1-3.66 5.45-3.66 2.62 0 5.36.76 5.5 3.86H41.4c0-.51-.18-.83-.51-1.04-.32-.21-.76-.3-1.24-.3-.64 0-1.68.07-1.68.9 0 1.13 2.62 1.33 4.42 1.72 2.41.48 3.04 2.23 3.04 3.22 0 3.2-3.04 4.25-5.73 4.25-2.83 0-5.73-.94-5.84-4.28h3.73zM58.98 369.39h-3.79v-1.63h-.05c-.74 1.22-2.25 1.98-3.63 1.98-3.43 0-4.42-1.98-4.42-5.1v-7.17H51v6.92c0 1.59.69 2.14 1.93 2.14.85 0 2.14-.55 2.14-2.67v-6.39h3.91v11.92zM61.48 357.46h3.79v2.09h.05c.57-1.52 1.91-2.32 3.59-2.32.3 0 .62.02.92.09v3.56c-.51-.14-.97-.23-1.49-.23-1.93 0-2.94 1.33-2.94 2.83v5.91h-3.91v-11.93zM70.85 361.14c.07-1.56.8-2.58 1.86-3.2 1.06-.6 2.44-.83 3.79-.83 2.83 0 5.56.62 5.56 4v5.22c0 1.01 0 2.12.46 3.06H78.6c-.14-.37-.18-.74-.23-1.13-1.01 1.06-2.51 1.47-3.93 1.47-2.28 0-4.07-1.15-4.07-3.61 0-3.89 4.23-3.59 6.94-4.14.67-.14 1.04-.37 1.04-1.1 0-.9-1.08-1.24-1.89-1.24-1.08 0-1.77.48-1.96 1.5h-3.65zm5.06 6.18c1.86 0 2.48-1.06 2.39-3.52-.55.34-1.56.41-2.42.64-.87.21-1.61.58-1.61 1.52 0 .97.76 1.36 1.64 1.36zM84.46 357.46h3.79v1.63h.05c.71-1.22 2.32-1.98 3.75-1.98 3.98 0 4.3 2.9 4.3 4.62v7.66h-3.91v-5.77c0-1.63.18-3.29-1.96-3.29-1.47 0-2.12 1.24-2.12 2.55v6.51h-3.91v-11.93zM106.49 361.83c-.02-1.01-.92-1.72-1.91-1.72-2.18 0-2.53 1.86-2.53 3.52 0 1.54.67 3.13 2.32 3.13 1.36 0 2.05-.78 2.23-2.05h3.79c-.34 3.2-2.83 5.04-6 5.04-3.59 0-6.25-2.46-6.25-6.12 0-3.79 2.41-6.51 6.25-6.51 2.97 0 5.61 1.56 5.89 4.71h-3.79zM115.44 364.38c.07 1.63 1.01 2.71 2.67 2.71.94 0 1.86-.44 2.23-1.31H124c-.71 2.76-3.27 3.96-5.93 3.96-3.89 0-6.53-2.35-6.53-6.35 0-3.66 2.92-6.28 6.44-6.28 4.28 0 6.42 3.22 6.23 7.27h-8.77zm4.85-2.19c-.07-1.33-1.01-2.44-2.32-2.44-1.38 0-2.3.99-2.53 2.44h4.85zM125.95 365.11h4.28v4.28h-4.28v-4.28z"/></g></svg>