<svg id="Layer_1" xmlns="http://www.w3.org/2000/svg" viewBox="0 0 160 600"><style>.st0{fill:#006098}</style><path class="st0" d="M13.98 44.44h5.21v19.99h-5.21V44.44zM26.13 59.64c0 .73.31 1.26.78 1.62.45.34 1.09.5 1.76.5.92 0 2.24-.39 2.24-1.54 0-1.12-1.48-1.34-2.32-1.54-3-.76-6.75-.84-6.75-4.76 0-3.5 3.78-4.45 6.64-4.45 3.19 0 6.52.92 6.69 4.7h-4.4c0-.62-.22-1.01-.62-1.26-.39-.25-.92-.36-1.51-.36-.78 0-2.04.08-2.04 1.09 0 1.37 3.19 1.62 5.38 2.1 2.94.59 3.7 2.72 3.7 3.92 0 3.89-3.7 5.18-6.97 5.18-3.44 0-6.97-1.15-7.11-5.21h4.53zM54.24 65.72c-1.15 3.19-2.86 3.58-6.08 3.58h-2.24v-3.86h1.65c1.09 0 1.9-.62 1.9-1.62 0-.78-.92-3.02-1.2-3.81L44.52 49.9h5.04l2.74 9.46h.06l2.74-9.46h4.87l-5.73 15.82zM67.54 49.48c4.51 0 7.67 3.33 7.67 7.7s-3.16 7.67-7.67 7.67-7.64-3.3-7.64-7.67 3.13-7.7 7.64-7.7zm0 11.73c2.21 0 2.91-2.18 2.91-4.03s-.7-4.06-2.91-4.06-2.88 2.21-2.88 4.06.67 4.03 2.88 4.03zM91.73 64.43h-4.62v-1.99h-.06c-.9 1.48-2.74 2.41-4.42 2.41-4.17 0-5.38-2.41-5.38-6.22V49.9h4.76v8.43c0 1.93.84 2.6 2.35 2.6 1.04 0 2.6-.67 2.6-3.25V49.9h4.76v14.53zM94.73 49.9h4.62v2.55h.06c.7-1.85 2.32-2.83 4.37-2.83.36 0 .76.03 1.12.11v4.34c-.62-.17-1.18-.28-1.82-.28-2.35 0-3.58 1.62-3.58 3.44v7.2h-4.76V49.9z"/><g><path class="st0" d="M13.95 72.44h4.76v19.99h-4.76V72.44zM26.49 76.08h-4.76v-3.64h4.76v3.64zm-4.76 1.82h4.76v14.53h-4.76V77.9zM30.47 80.98h-2.3V77.9h2.3c0-4.17 1.46-5.46 5.52-5.46.76 0 1.54.06 2.3.08v3.36c-.45-.06-.87-.08-1.29-.08-1.09 0-1.76.14-1.76 1.46v.64h2.86v3.08h-2.86v11.45h-4.76V80.98zM43.35 86.33c.08 1.99 1.23 3.3 3.25 3.3 1.15 0 2.27-.53 2.72-1.6h4.45c-.87 3.36-3.98 4.82-7.22 4.82-4.73 0-7.95-2.86-7.95-7.73 0-4.45 3.56-7.64 7.84-7.64 5.21 0 7.81 3.92 7.59 8.85H43.35zm5.91-2.66c-.08-1.62-1.23-2.97-2.83-2.97-1.68 0-2.8 1.2-3.08 2.97h5.91z"/></g><g><path class="st0" d="M18.71 104.08h-4.76v-3.64h4.76v3.64zm-4.76 1.82h4.76v14.53h-4.76V105.9zM21.62 105.9h4.62v1.99h.06c.87-1.48 2.83-2.41 4.56-2.41 4.84 0 5.24 3.53 5.24 5.63v9.32h-4.76v-7.03c0-1.99.22-4-2.38-4-1.79 0-2.58 1.51-2.58 3.11v7.92h-4.76V105.9zM42.68 115.64c0 .73.31 1.26.78 1.62.45.34 1.09.5 1.76.5.92 0 2.24-.39 2.24-1.54 0-1.12-1.48-1.34-2.32-1.54-3-.76-6.75-.84-6.75-4.76 0-3.5 3.78-4.45 6.64-4.45 3.19 0 6.52.92 6.69 4.7h-4.4c0-.62-.22-1.01-.62-1.26-.39-.25-.92-.36-1.51-.36-.78 0-2.04.08-2.04 1.09 0 1.37 3.19 1.62 5.38 2.1 2.94.59 3.7 2.72 3.7 3.92 0 3.89-3.7 5.18-6.97 5.18-3.44 0-6.97-1.15-7.11-5.21h4.53zM68.66 120.43h-4.62v-1.99h-.06c-.9 1.48-2.74 2.41-4.42 2.41-4.17 0-5.38-2.41-5.38-6.22v-8.74h4.76v8.43c0 1.93.84 2.6 2.35 2.6 1.04 0 2.6-.67 2.6-3.25v-7.78h4.76v14.54zM71.63 105.9h4.62v2.55h.06c.7-1.85 2.32-2.83 4.37-2.83.36 0 .76.03 1.12.11v4.34c-.62-.17-1.18-.28-1.82-.28-2.35 0-3.58 1.62-3.58 3.44v7.2h-4.76V105.9zM82.94 110.38c.08-1.9.98-3.14 2.27-3.89 1.29-.73 2.97-1.01 4.62-1.01 3.44 0 6.78.76 6.78 4.87v6.36c0 1.23 0 2.58.56 3.72h-4.79c-.17-.45-.22-.9-.28-1.37-1.23 1.29-3.05 1.79-4.79 1.79-2.77 0-4.96-1.4-4.96-4.4 0-4.73 5.15-4.37 8.46-5.04.81-.17 1.26-.45 1.26-1.34 0-1.09-1.32-1.51-2.3-1.51-1.32 0-2.16.59-2.38 1.82h-4.45zm6.16 7.53c2.27 0 3.02-1.29 2.91-4.28-.67.42-1.9.5-2.94.78-1.06.25-1.96.7-1.96 1.85 0 1.17.93 1.65 1.99 1.65zM99.43 105.9h4.62v1.99h.06c.87-1.48 2.83-2.41 4.56-2.41 4.84 0 5.24 3.53 5.24 5.63v9.32h-4.76v-7.03c0-1.99.22-4-2.38-4-1.79 0-2.58 1.51-2.58 3.11v7.92h-4.76V105.9zM126.17 111.22c-.03-1.23-1.12-2.1-2.32-2.1-2.66 0-3.08 2.27-3.08 4.28 0 1.88.81 3.81 2.83 3.81 1.65 0 2.49-.95 2.72-2.49h4.62c-.42 3.89-3.44 6.13-7.31 6.13-4.37 0-7.62-3-7.62-7.45 0-4.62 2.94-7.92 7.62-7.92 3.61 0 6.83 1.9 7.17 5.74h-4.63zM136.98 114.33c.08 1.99 1.23 3.3 3.25 3.3 1.15 0 2.27-.53 2.72-1.6h4.45c-.87 3.36-3.98 4.82-7.22 4.82-4.73 0-7.95-2.86-7.95-7.73 0-4.45 3.56-7.64 7.84-7.64 5.21 0 7.81 3.92 7.59 8.85h-10.68zm5.91-2.66c-.08-1.62-1.23-2.97-2.83-2.97-1.68 0-2.8 1.2-3.08 2.97h5.91z"/></g><g><path class="st0" d="M13.78 128.44h4.76v10.3l4.34-4.84h5.52l-5.32 5.49 5.99 9.04h-5.74l-3.56-5.85-1.23 1.2v4.65h-4.76v-19.99z"/><path class="st0" d="M33.41 142.33c.08 1.99 1.23 3.3 3.25 3.3 1.15 0 2.27-.53 2.72-1.6h4.45c-.87 3.36-3.98 4.82-7.22 4.82-4.73 0-7.95-2.86-7.95-7.73 0-4.45 3.56-7.64 7.84-7.64 5.21 0 7.81 3.92 7.59 8.85H33.41zm5.91-2.66c-.08-1.62-1.23-2.97-2.83-2.97-1.68 0-2.8 1.2-3.08 2.97h5.91zM50.18 142.33c.08 1.99 1.23 3.3 3.25 3.3 1.15 0 2.27-.53 2.72-1.6h4.45c-.87 3.36-3.98 4.82-7.22 4.82-4.73 0-7.95-2.86-7.95-7.73 0-4.45 3.56-7.64 7.84-7.64 5.21 0 7.81 3.92 7.59 8.85H50.18zm5.91-2.66c-.08-1.62-1.23-2.97-2.83-2.97-1.68 0-2.8 1.2-3.08 2.97h5.91zM62.89 133.9h4.54v1.68h.06c.92-1.37 2.32-2.1 4-2.1 4.56 0 6.5 3.92 6.5 8.01 0 3.78-2.02 7.36-6.13 7.36-1.79 0-3.16-.67-4.14-1.99h-.06v6.44H62.9v-19.4zm4.59 7.11c0 2.55.73 4.2 2.88 4.2 2.13 0 2.86-2.21 2.86-4.2 0-1.85-.73-3.89-2.83-3.89-1.28 0-2.91.89-2.91 3.89zM85.12 132.08h-4.76v-3.64h4.76v3.64zm-4.76 1.82h4.76v14.53h-4.76V133.9zM88.06 133.9h4.62v1.99h.06c.87-1.48 2.83-2.41 4.56-2.41 4.84 0 5.24 3.53 5.24 5.63v9.32h-4.76v-7.03c0-1.99.22-4-2.38-4-1.79 0-2.58 1.51-2.58 3.11v7.92h-4.76V133.9zM119.51 146.67c0 2.38-.45 6.86-7.25 6.86-3.39 0-6.58-.76-7.14-4.65h4.76c.11.64.36 1.04.81 1.26.42.22 1.01.31 1.74.31 2.27 0 2.49-1.6 2.49-3.39v-1.37h-.06c-.87 1.34-2.32 2.13-3.86 2.13-4.4 0-6.38-3.14-6.38-7.22 0-3.86 2.27-7.11 6.38-7.11 1.74 0 3.05.76 3.89 2.24h.06v-1.82h4.56v12.76zm-7.37-9.55c-2.1 0-2.77 1.85-2.77 3.64 0 1.71.78 3.42 2.74 3.42 2.02 0 2.88-1.57 2.88-3.39.01-1.85-.72-3.67-2.85-3.67z"/></g><g><path class="st0" d="M28.23 176.43h-4.62v-1.99h-.06c-.9 1.48-2.74 2.41-4.42 2.41-4.17 0-5.38-2.41-5.38-6.22v-8.74h4.76v8.43c0 1.93.84 2.6 2.35 2.6 1.04 0 2.6-.67 2.6-3.25v-7.78h4.76v14.54zM31.14 161.9h4.54v1.68h.06c.92-1.37 2.32-2.1 4-2.1 4.56 0 6.5 3.92 6.5 8.01 0 3.78-2.02 7.36-6.13 7.36-1.79 0-3.16-.67-4.14-1.99h-.07v6.44h-4.76v-19.4zm4.59 7.11c0 2.55.73 4.2 2.88 4.2 2.13 0 2.86-2.21 2.86-4.2 0-1.85-.73-3.89-2.83-3.89-1.28 0-2.91.89-2.91 3.89zM48 162.99c.06-4.42 2.97-6.97 7.34-6.97 3.5 0 7 1.85 7 5.71 0 2.72-1.32 3.7-3.44 5.04-1.46.95-1.82 1.37-1.85 3.05h-4.42v-1.4c0-2.18 1.23-3.14 2.27-3.89 1.15-.78 2.24-1.37 2.24-2.77 0-1.06-.81-1.71-1.82-1.71-1.54 0-2.32.92-2.41 2.41v.53H48zm4.23 8.23h5.21v5.21h-5.21v-5.21z"/></g></svg>