<?xml version="1.0" encoding="utf-8"?>
<!-- Generator: Adobe Illustrator 24.2.3, SVG Export Plug-In . SVG Version: 6.00 Build 0)  -->
<svg version="1.1" id="Layer_1" xmlns="http://www.w3.org/2000/svg" xmlns:xlink="http://www.w3.org/1999/xlink" x="0px" y="0px"
	 viewBox="0 0 728 90" style="enable-background:new 0 0 728 90;" xml:space="preserve">
<style type="text/css">
	.st0{fill:#231F20;}
</style>
<g>
	<path class="st0" d="M574.97,81.81v-4.29h0.57v3.79h2.12v0.51H574.97z"/>
	<path class="st0" d="M578.15,79.7c0-0.51,0.05-0.92,0.16-1.23c0.1-0.31,0.26-0.55,0.46-0.72s0.47-0.25,0.78-0.25
		c0.23,0,0.43,0.05,0.61,0.14c0.17,0.09,0.32,0.23,0.43,0.4s0.2,0.39,0.27,0.64s0.1,0.59,0.1,1.01c0,0.5-0.05,0.91-0.16,1.22
		c-0.1,0.31-0.26,0.55-0.46,0.72s-0.47,0.25-0.78,0.25c-0.41,0-0.74-0.15-0.98-0.45C578.29,81.08,578.15,80.5,578.15,79.7z
		 M578.69,79.7c0,0.71,0.08,1.17,0.25,1.41c0.16,0.23,0.37,0.35,0.61,0.35s0.45-0.12,0.61-0.35s0.25-0.7,0.25-1.41
		c0-0.71-0.08-1.18-0.25-1.41s-0.37-0.35-0.62-0.35c-0.24,0-0.44,0.1-0.58,0.31C578.78,78.51,578.69,78.99,578.69,79.7z"/>
	<path class="st0" d="M582.44,79.49c-0.22-0.08-0.38-0.19-0.49-0.34s-0.16-0.33-0.16-0.53c0-0.31,0.11-0.58,0.34-0.79
		s0.52-0.32,0.9-0.32c0.38,0,0.68,0.11,0.91,0.33c0.23,0.22,0.34,0.48,0.34,0.8c0,0.2-0.05,0.37-0.16,0.52s-0.26,0.26-0.48,0.34
		c0.26,0.09,0.46,0.22,0.6,0.42c0.14,0.19,0.21,0.42,0.21,0.69c0,0.37-0.13,0.68-0.39,0.93s-0.6,0.38-1.03,0.38
		s-0.77-0.12-1.03-0.38s-0.39-0.56-0.39-0.94c0-0.28,0.07-0.51,0.21-0.7S582.18,79.55,582.44,79.49z M582.17,80.58
		c0,0.15,0.04,0.3,0.11,0.44c0.07,0.14,0.18,0.25,0.32,0.33c0.14,0.08,0.29,0.12,0.45,0.12c0.25,0,0.46-0.08,0.62-0.24
		s0.25-0.37,0.25-0.62c0-0.25-0.08-0.46-0.25-0.63c-0.17-0.17-0.38-0.25-0.63-0.25c-0.25,0-0.45,0.08-0.62,0.25
		S582.17,80.33,582.17,80.58z M582.34,78.59c0,0.2,0.07,0.37,0.2,0.5s0.3,0.19,0.51,0.19c0.2,0,0.37-0.06,0.5-0.19
		s0.2-0.29,0.2-0.47c0-0.19-0.07-0.36-0.2-0.49c-0.13-0.13-0.3-0.2-0.5-0.2c-0.2,0-0.37,0.06-0.5,0.19S582.34,78.41,582.34,78.59z"
		/>
	<path class="st0" d="M587.8,81.31v0.51h-2.84c0-0.13,0.02-0.25,0.06-0.37c0.07-0.19,0.19-0.38,0.35-0.57s0.39-0.4,0.69-0.65
		c0.47-0.38,0.78-0.69,0.95-0.91c0.16-0.22,0.25-0.43,0.25-0.63c0-0.21-0.07-0.39-0.22-0.53c-0.15-0.14-0.34-0.22-0.58-0.22
		c-0.25,0-0.46,0.08-0.61,0.23s-0.23,0.36-0.23,0.63l-0.54-0.06c0.04-0.4,0.18-0.71,0.42-0.92s0.57-0.32,0.98-0.32
		c0.41,0,0.74,0.11,0.98,0.34s0.36,0.51,0.36,0.85c0,0.17-0.04,0.34-0.11,0.51s-0.19,0.34-0.35,0.52s-0.43,0.44-0.81,0.76
		c-0.32,0.27-0.52,0.45-0.61,0.54c-0.09,0.1-0.16,0.19-0.22,0.29H587.8z"/>
	<path class="st0" d="M588.44,79.7c0-0.51,0.05-0.92,0.16-1.23c0.1-0.31,0.26-0.55,0.46-0.72s0.47-0.25,0.78-0.25
		c0.23,0,0.43,0.05,0.61,0.14c0.17,0.09,0.32,0.23,0.43,0.4s0.2,0.39,0.27,0.64s0.1,0.59,0.1,1.01c0,0.5-0.05,0.91-0.16,1.22
		c-0.1,0.31-0.26,0.55-0.46,0.72s-0.47,0.25-0.78,0.25c-0.41,0-0.74-0.15-0.98-0.45C588.58,81.08,588.44,80.5,588.44,79.7z
		 M588.99,79.7c0,0.71,0.08,1.17,0.25,1.41c0.16,0.23,0.37,0.35,0.61,0.35s0.45-0.12,0.61-0.35s0.25-0.7,0.25-1.41
		c0-0.71-0.08-1.18-0.25-1.41s-0.37-0.35-0.62-0.35c-0.24,0-0.44,0.1-0.58,0.31C589.08,78.51,588.99,78.99,588.99,79.7z"/>
	<path class="st0" d="M591.97,79.7c0-0.51,0.05-0.92,0.16-1.23c0.1-0.31,0.26-0.55,0.46-0.72s0.47-0.25,0.78-0.25
		c0.23,0,0.43,0.05,0.61,0.14c0.17,0.09,0.32,0.23,0.43,0.4s0.2,0.39,0.27,0.64s0.1,0.59,0.1,1.01c0,0.5-0.05,0.91-0.16,1.22
		c-0.1,0.31-0.26,0.55-0.46,0.72s-0.47,0.25-0.78,0.25c-0.41,0-0.74-0.15-0.98-0.45C592.11,81.08,591.97,80.5,591.97,79.7z
		 M592.51,79.7c0,0.71,0.08,1.17,0.25,1.41c0.16,0.23,0.37,0.35,0.61,0.35s0.45-0.12,0.61-0.35s0.25-0.7,0.25-1.41
		c0-0.71-0.08-1.18-0.25-1.41s-0.37-0.35-0.62-0.35c-0.24,0-0.44,0.1-0.58,0.31C592.61,78.51,592.51,78.99,592.51,79.7z"/>
	<path class="st0" d="M595.51,79.7c0-0.51,0.05-0.92,0.16-1.23c0.1-0.31,0.26-0.55,0.46-0.72s0.47-0.25,0.78-0.25
		c0.23,0,0.43,0.05,0.61,0.14c0.17,0.09,0.32,0.23,0.43,0.4s0.2,0.39,0.27,0.64s0.1,0.59,0.1,1.01c0,0.5-0.05,0.91-0.16,1.22
		c-0.1,0.31-0.26,0.55-0.46,0.72s-0.47,0.25-0.78,0.25c-0.41,0-0.74-0.15-0.98-0.45C595.65,81.08,595.51,80.5,595.51,79.7z
		 M596.05,79.7c0,0.71,0.08,1.17,0.25,1.41c0.16,0.23,0.37,0.35,0.61,0.35s0.45-0.12,0.61-0.35s0.25-0.7,0.25-1.41
		c0-0.71-0.08-1.18-0.25-1.41s-0.37-0.35-0.62-0.35c-0.24,0-0.44,0.1-0.58,0.31C596.14,78.51,596.05,78.99,596.05,79.7z"/>
	<path class="st0" d="M598.85,78.08v-0.51h2.78v0.41c-0.27,0.29-0.54,0.68-0.81,1.16c-0.27,0.48-0.48,0.98-0.62,1.49
		c-0.11,0.36-0.17,0.75-0.2,1.18h-0.54c0.01-0.34,0.07-0.75,0.2-1.22s0.31-0.94,0.55-1.38c0.24-0.44,0.49-0.82,0.76-1.12H598.85z"/>
	<path class="st0" d="M603.91,81.81h-0.53v-3.36c-0.13,0.12-0.29,0.24-0.5,0.36c-0.21,0.12-0.39,0.21-0.56,0.27v-0.51
		c0.29-0.14,0.55-0.31,0.77-0.5s0.38-0.39,0.47-0.57h0.34V81.81z"/>
	<path class="st0" d="M605.1,80.69l0.55-0.05c0.04,0.27,0.14,0.47,0.29,0.61c0.15,0.14,0.33,0.2,0.54,0.2c0.25,0,0.47-0.1,0.64-0.29
		s0.26-0.45,0.26-0.76c0-0.3-0.08-0.54-0.25-0.71s-0.39-0.26-0.66-0.26c-0.17,0-0.32,0.04-0.46,0.12s-0.24,0.18-0.32,0.3l-0.5-0.06
		l0.42-2.21h2.14v0.5h-1.71l-0.23,1.15c0.26-0.18,0.53-0.27,0.81-0.27c0.38,0,0.69,0.13,0.95,0.39s0.39,0.59,0.39,1
		c0,0.39-0.11,0.72-0.34,1.01c-0.28,0.35-0.65,0.52-1.13,0.52c-0.39,0-0.71-0.11-0.96-0.33S605.14,81.05,605.1,80.69z"/>
	<path class="st0" d="M608.51,78.08v-0.51h2.78v0.41c-0.27,0.29-0.54,0.68-0.81,1.16c-0.27,0.48-0.48,0.98-0.62,1.49
		c-0.11,0.36-0.17,0.75-0.2,1.18h-0.54c0.01-0.34,0.07-0.75,0.2-1.22s0.31-0.94,0.55-1.38c0.24-0.44,0.49-0.82,0.76-1.12H608.51z"/>
	<path class="st0" d="M612.02,83.01v-5.49h1.16v0.44h-0.64v4.61h0.64v0.44H612.02z"/>
	<path class="st0" d="M615.75,80.81l0.54,0.07c-0.09,0.32-0.25,0.57-0.48,0.74s-0.53,0.26-0.89,0.26c-0.46,0-0.82-0.14-1.08-0.42
		c-0.27-0.28-0.4-0.67-0.4-1.18c0-0.52,0.13-0.93,0.4-1.22s0.62-0.43,1.05-0.43c0.42,0,0.76,0.14,1.02,0.42s0.4,0.68,0.4,1.2
		c0,0.03,0,0.08,0,0.14h-2.32c0.02,0.34,0.12,0.6,0.29,0.79s0.39,0.27,0.65,0.27c0.19,0,0.36-0.05,0.5-0.15
		S615.67,81.04,615.75,80.81z M614.01,79.96h1.74c-0.02-0.26-0.09-0.46-0.2-0.59c-0.17-0.2-0.39-0.3-0.65-0.3
		c-0.24,0-0.45,0.08-0.61,0.24C614.12,79.47,614.03,79.69,614.01,79.96z"/>
	<path class="st0" d="M616.55,81.81l1.14-1.62l-1.05-1.49h0.66l0.48,0.73c0.09,0.14,0.16,0.25,0.22,0.35
		c0.09-0.13,0.17-0.24,0.24-0.34l0.52-0.74h0.63l-1.08,1.46l1.16,1.65h-0.65l-0.64-0.97l-0.17-0.26l-0.82,1.23H616.55z"/>
	<path class="st0" d="M619.99,83.01v-4.3h0.48v0.4c0.11-0.16,0.24-0.28,0.38-0.36c0.14-0.08,0.32-0.12,0.52-0.12
		c0.27,0,0.5,0.07,0.7,0.21s0.36,0.33,0.46,0.58c0.1,0.25,0.16,0.52,0.16,0.82c0,0.32-0.06,0.6-0.17,0.86
		c-0.12,0.25-0.28,0.45-0.5,0.59c-0.22,0.13-0.45,0.2-0.69,0.2c-0.18,0-0.33-0.04-0.47-0.11c-0.14-0.07-0.25-0.17-0.34-0.28v1.51
		H619.99z M620.47,80.28c0,0.4,0.08,0.7,0.24,0.89s0.36,0.29,0.59,0.29c0.23,0,0.44-0.1,0.6-0.3c0.17-0.2,0.25-0.51,0.25-0.92
		c0-0.4-0.08-0.69-0.25-0.89s-0.36-0.3-0.58-0.3c-0.22,0-0.42,0.11-0.6,0.32C620.55,79.57,620.47,79.88,620.47,80.28z"/>
	<path class="st0" d="M623.32,79.7c0-0.51,0.05-0.92,0.16-1.23c0.1-0.31,0.26-0.55,0.46-0.72s0.47-0.25,0.78-0.25
		c0.23,0,0.43,0.05,0.61,0.14c0.17,0.09,0.32,0.23,0.43,0.4s0.2,0.39,0.27,0.64s0.1,0.59,0.1,1.01c0,0.5-0.05,0.91-0.16,1.22
		c-0.1,0.31-0.26,0.55-0.46,0.72s-0.47,0.25-0.78,0.25c-0.41,0-0.74-0.15-0.98-0.45C623.46,81.08,623.32,80.5,623.32,79.7z
		 M623.87,79.7c0,0.71,0.08,1.17,0.25,1.41c0.16,0.23,0.37,0.35,0.61,0.35s0.45-0.12,0.61-0.35s0.25-0.7,0.25-1.41
		c0-0.71-0.08-1.18-0.25-1.41s-0.37-0.35-0.62-0.35c-0.24,0-0.44,0.1-0.58,0.31C623.96,78.51,623.87,78.99,623.87,79.7z"/>
	<path class="st0" d="M627.62,79.49c-0.22-0.08-0.38-0.19-0.49-0.34s-0.16-0.33-0.16-0.53c0-0.31,0.11-0.58,0.34-0.79
		s0.52-0.32,0.9-0.32c0.38,0,0.68,0.11,0.91,0.33c0.23,0.22,0.34,0.48,0.34,0.8c0,0.2-0.05,0.37-0.16,0.52s-0.26,0.26-0.48,0.34
		c0.26,0.09,0.46,0.22,0.6,0.42c0.14,0.19,0.21,0.42,0.21,0.69c0,0.37-0.13,0.68-0.39,0.93s-0.6,0.38-1.03,0.38
		s-0.77-0.12-1.03-0.38s-0.39-0.56-0.39-0.94c0-0.28,0.07-0.51,0.21-0.7S627.36,79.55,627.62,79.49z M627.35,80.58
		c0,0.15,0.04,0.3,0.11,0.44c0.07,0.14,0.18,0.25,0.32,0.33c0.14,0.08,0.29,0.12,0.45,0.12c0.25,0,0.46-0.08,0.62-0.24
		s0.25-0.37,0.25-0.62c0-0.25-0.08-0.46-0.25-0.63c-0.17-0.17-0.38-0.25-0.63-0.25c-0.25,0-0.45,0.08-0.62,0.25
		S627.35,80.33,627.35,80.58z M627.52,78.59c0,0.2,0.07,0.37,0.2,0.5s0.3,0.19,0.51,0.19c0.2,0,0.37-0.06,0.5-0.19
		s0.2-0.29,0.2-0.47c0-0.19-0.07-0.36-0.2-0.49c-0.13-0.13-0.3-0.2-0.5-0.2c-0.2,0-0.37,0.06-0.5,0.19S627.52,78.41,627.52,78.59z"
		/>
	<path class="st0" d="M632.98,81.31v0.51h-2.84c0-0.13,0.02-0.25,0.06-0.37c0.07-0.19,0.19-0.38,0.35-0.57s0.39-0.4,0.69-0.65
		c0.47-0.38,0.78-0.69,0.95-0.91c0.16-0.22,0.25-0.43,0.25-0.63c0-0.21-0.07-0.39-0.22-0.53c-0.15-0.14-0.34-0.22-0.58-0.22
		c-0.25,0-0.46,0.08-0.61,0.23s-0.23,0.36-0.23,0.63l-0.54-0.06c0.04-0.4,0.18-0.71,0.42-0.92s0.57-0.32,0.98-0.32
		c0.41,0,0.74,0.11,0.98,0.34s0.36,0.51,0.36,0.85c0,0.17-0.04,0.34-0.11,0.51s-0.19,0.34-0.35,0.52s-0.43,0.44-0.81,0.76
		c-0.32,0.27-0.52,0.45-0.61,0.54c-0.09,0.1-0.16,0.19-0.22,0.29H632.98z"/>
	<path class="st0" d="M635.46,81.81h-0.53v-3.36c-0.13,0.12-0.29,0.24-0.5,0.36c-0.21,0.12-0.39,0.21-0.56,0.27v-0.51
		c0.29-0.14,0.55-0.31,0.77-0.5s0.38-0.39,0.47-0.57h0.34V81.81z"/>
	<path class="st0" d="M637.65,83.01h-1.16v-0.44h0.64v-4.61h-0.64v-0.44h1.16V83.01z"/>
	<path class="st0" d="M638.58,83.01v-5.49h1.16v0.44h-0.64v4.61h0.64v0.44H638.58z"/>
	<path class="st0" d="M639.86,81.81l1.65-4.29h0.61l1.76,4.29h-0.65l-0.5-1.3h-1.8l-0.47,1.3H639.86z M641.1,80.05h1.46l-0.45-1.19
		c-0.14-0.36-0.24-0.66-0.3-0.89c-0.05,0.28-0.13,0.55-0.23,0.82L641.1,80.05z"/>
	<path class="st0" d="M644.41,81.81v-4.29h0.53v4.29H644.41z"/>
	<path class="st0" d="M645.79,81.81v-4.29h0.53v4.29H645.79z"/>
	<path class="st0" d="M648.56,80.43l0.54-0.05c0.03,0.21,0.08,0.39,0.18,0.53c0.09,0.14,0.24,0.25,0.43,0.33
		c0.2,0.09,0.42,0.13,0.66,0.13c0.22,0,0.41-0.03,0.57-0.1s0.29-0.15,0.37-0.27c0.08-0.11,0.12-0.23,0.12-0.37
		c0-0.13-0.04-0.25-0.12-0.35c-0.08-0.1-0.21-0.18-0.39-0.25c-0.12-0.04-0.37-0.11-0.76-0.21c-0.39-0.09-0.67-0.18-0.83-0.27
		c-0.21-0.11-0.36-0.24-0.46-0.4c-0.1-0.16-0.15-0.34-0.15-0.53c0-0.22,0.06-0.42,0.18-0.61c0.12-0.19,0.3-0.33,0.54-0.43
		s0.5-0.15,0.79-0.15c0.32,0,0.6,0.05,0.84,0.15c0.24,0.1,0.43,0.25,0.56,0.45s0.2,0.42,0.21,0.68l-0.54,0.04
		c-0.03-0.27-0.13-0.48-0.3-0.62s-0.42-0.21-0.75-0.21c-0.34,0-0.59,0.06-0.75,0.19c-0.16,0.12-0.24,0.28-0.24,0.46
		c0,0.15,0.06,0.28,0.17,0.38c0.11,0.1,0.39,0.2,0.86,0.31c0.46,0.1,0.78,0.2,0.95,0.27c0.25,0.12,0.43,0.26,0.55,0.44
		c0.12,0.18,0.18,0.38,0.18,0.61c0,0.23-0.07,0.44-0.2,0.65c-0.13,0.2-0.32,0.36-0.56,0.47c-0.25,0.11-0.52,0.17-0.83,0.17
		c-0.39,0-0.71-0.06-0.98-0.17s-0.47-0.28-0.62-0.51C648.65,80.98,648.57,80.72,648.56,80.43z"/>
	<path class="st0" d="M653.92,81.34l0.08,0.47c-0.15,0.03-0.28,0.05-0.4,0.05c-0.19,0-0.34-0.03-0.45-0.09s-0.18-0.14-0.22-0.24
		c-0.04-0.1-0.06-0.31-0.06-0.62v-1.79h-0.39V78.7h0.39v-0.77l0.52-0.32v1.09h0.53v0.41h-0.53v1.82c0,0.15,0.01,0.25,0.03,0.29
		c0.02,0.04,0.05,0.08,0.09,0.1s0.1,0.04,0.18,0.04C653.74,81.36,653.82,81.36,653.92,81.34z"/>
	<path class="st0" d="M656.58,81.43c-0.2,0.17-0.38,0.28-0.56,0.35s-0.37,0.1-0.58,0.1c-0.34,0-0.6-0.08-0.79-0.25
		c-0.18-0.17-0.28-0.38-0.28-0.64c0-0.15,0.03-0.29,0.1-0.42c0.07-0.12,0.16-0.23,0.27-0.3c0.11-0.08,0.24-0.13,0.38-0.17
		c0.1-0.03,0.26-0.05,0.47-0.08c0.43-0.05,0.74-0.11,0.94-0.18c0-0.07,0-0.12,0-0.14c0-0.21-0.05-0.37-0.15-0.45
		c-0.13-0.12-0.33-0.18-0.6-0.18c-0.25,0-0.43,0.04-0.55,0.13c-0.12,0.09-0.21,0.24-0.26,0.46l-0.52-0.07
		c0.05-0.22,0.12-0.4,0.23-0.53s0.26-0.24,0.47-0.31c0.2-0.07,0.44-0.11,0.71-0.11c0.27,0,0.48,0.03,0.65,0.09s0.29,0.14,0.37,0.24
		s0.13,0.21,0.16,0.36c0.02,0.09,0.03,0.25,0.03,0.49v0.7c0,0.49,0.01,0.8,0.03,0.93c0.02,0.13,0.07,0.25,0.13,0.37h-0.55
		C656.63,81.71,656.59,81.58,656.58,81.43z M656.53,80.25c-0.19,0.08-0.48,0.14-0.86,0.2c-0.22,0.03-0.37,0.07-0.46,0.11
		s-0.16,0.1-0.21,0.17c-0.05,0.08-0.07,0.16-0.07,0.25c0,0.14,0.05,0.26,0.16,0.35c0.11,0.09,0.26,0.14,0.47,0.14
		c0.2,0,0.38-0.04,0.54-0.13c0.16-0.09,0.27-0.21,0.35-0.36c0.06-0.12,0.08-0.29,0.08-0.53V80.25z"/>
	<path class="st0" d="M659.06,81.34l0.08,0.47c-0.15,0.03-0.28,0.05-0.4,0.05c-0.19,0-0.34-0.03-0.45-0.09s-0.18-0.14-0.22-0.24
		c-0.04-0.1-0.06-0.31-0.06-0.62v-1.79h-0.39V78.7H658v-0.77l0.52-0.32v1.09h0.53v0.41h-0.53v1.82c0,0.15,0.01,0.25,0.03,0.29
		c0.02,0.04,0.05,0.08,0.09,0.1s0.1,0.04,0.18,0.04C658.88,81.36,658.96,81.36,659.06,81.34z"/>
	<path class="st0" d="M661.72,80.81l0.54,0.07c-0.09,0.32-0.25,0.57-0.48,0.74s-0.53,0.26-0.89,0.26c-0.46,0-0.82-0.14-1.08-0.42
		c-0.27-0.28-0.4-0.67-0.4-1.18c0-0.52,0.13-0.93,0.4-1.22s0.62-0.43,1.05-0.43c0.42,0,0.76,0.14,1.02,0.42s0.4,0.68,0.4,1.2
		c0,0.03,0,0.08,0,0.14h-2.32c0.02,0.34,0.12,0.6,0.29,0.79s0.39,0.27,0.65,0.27c0.19,0,0.36-0.05,0.5-0.15
		S661.64,81.04,661.72,80.81z M659.99,79.96h1.74c-0.02-0.26-0.09-0.46-0.2-0.59c-0.17-0.2-0.39-0.3-0.65-0.3
		c-0.24,0-0.45,0.08-0.61,0.24C660.1,79.47,660.01,79.69,659.99,79.96z"/>
	<path class="st0" d="M662.79,80.89l0.52-0.08c0.03,0.21,0.11,0.37,0.25,0.48c0.13,0.11,0.32,0.17,0.56,0.17
		c0.24,0,0.42-0.05,0.54-0.15c0.12-0.1,0.18-0.21,0.18-0.35c0-0.12-0.05-0.21-0.16-0.28c-0.07-0.05-0.25-0.11-0.54-0.18
		c-0.39-0.1-0.66-0.18-0.8-0.25c-0.15-0.07-0.26-0.17-0.34-0.29c-0.08-0.13-0.12-0.27-0.12-0.42c0-0.14,0.03-0.27,0.09-0.38
		s0.15-0.22,0.26-0.29c0.08-0.06,0.19-0.11,0.34-0.15c0.14-0.04,0.29-0.06,0.46-0.06c0.24,0,0.46,0.04,0.64,0.11
		c0.19,0.07,0.32,0.17,0.41,0.29c0.09,0.12,0.15,0.28,0.18,0.48l-0.52,0.07c-0.02-0.16-0.09-0.29-0.2-0.38s-0.27-0.13-0.48-0.13
		c-0.24,0-0.42,0.04-0.52,0.12s-0.16,0.17-0.16,0.28c0,0.07,0.02,0.13,0.06,0.18c0.04,0.06,0.11,0.1,0.2,0.14
		c0.05,0.02,0.21,0.06,0.47,0.13c0.37,0.1,0.63,0.18,0.78,0.24c0.15,0.06,0.26,0.16,0.35,0.28s0.13,0.27,0.13,0.45
		c0,0.18-0.05,0.34-0.15,0.5c-0.1,0.16-0.25,0.28-0.44,0.36c-0.19,0.08-0.41,0.13-0.66,0.13c-0.4,0-0.71-0.08-0.92-0.25
		S662.85,81.22,662.79,80.89z"/>
	<path class="st0" d="M666.82,83.01h-1.16v-0.44h0.64v-4.61h-0.64v-0.44h1.16V83.01z"/>
	<path class="st0" d="M667.74,83.01v-5.49h1.16v0.44h-0.64v4.61h0.64v0.44H667.74z"/>
	<path class="st0" d="M669.57,81.81v-4.29h1.48c0.33,0,0.59,0.02,0.76,0.06c0.25,0.06,0.46,0.16,0.63,0.31
		c0.23,0.19,0.4,0.44,0.51,0.73c0.11,0.3,0.17,0.64,0.17,1.02c0,0.33-0.04,0.62-0.11,0.87s-0.17,0.46-0.29,0.63
		s-0.25,0.29-0.39,0.39c-0.14,0.1-0.31,0.17-0.51,0.22c-0.2,0.05-0.43,0.07-0.69,0.07H669.57z M670.14,81.31h0.92
		c0.28,0,0.5-0.03,0.67-0.08c0.16-0.05,0.29-0.13,0.38-0.22c0.13-0.13,0.24-0.32,0.31-0.54s0.11-0.5,0.11-0.83
		c0-0.45-0.07-0.79-0.22-1.04c-0.15-0.24-0.33-0.4-0.54-0.49c-0.15-0.06-0.4-0.09-0.74-0.09h-0.9V81.31z"/>
	<path class="st0" d="M677.06,80.31l0.57,0.14c-0.12,0.47-0.33,0.82-0.64,1.07c-0.31,0.25-0.69,0.37-1.14,0.37
		c-0.46,0-0.84-0.09-1.13-0.28c-0.29-0.19-0.51-0.46-0.66-0.82s-0.23-0.74-0.23-1.15c0-0.45,0.08-0.84,0.26-1.17
		s0.41-0.59,0.73-0.76c0.31-0.17,0.66-0.26,1.04-0.26c0.43,0,0.79,0.11,1.08,0.33s0.5,0.53,0.61,0.92L677,78.83
		c-0.1-0.31-0.24-0.54-0.43-0.68s-0.43-0.21-0.71-0.21c-0.33,0-0.61,0.08-0.83,0.24s-0.38,0.37-0.47,0.64
		c-0.09,0.27-0.13,0.54-0.13,0.83c0,0.37,0.05,0.68,0.16,0.96c0.11,0.27,0.27,0.48,0.5,0.61s0.47,0.2,0.73,0.2
		c0.32,0,0.59-0.09,0.81-0.28S676.98,80.67,677.06,80.31z"/>
	<path class="st0" d="M678.41,81.81v-0.6h0.6v0.6c0,0.22-0.04,0.4-0.12,0.54c-0.08,0.13-0.2,0.24-0.37,0.31l-0.15-0.23
		c0.11-0.05,0.19-0.12,0.25-0.22s0.08-0.23,0.09-0.41H678.41z"/>
	<path class="st0" d="M681.92,80.13v-0.5l1.82,0v1.59c-0.28,0.22-0.57,0.39-0.86,0.5c-0.3,0.11-0.6,0.17-0.91,0.17
		c-0.42,0-0.81-0.09-1.15-0.27s-0.6-0.44-0.78-0.78s-0.26-0.72-0.26-1.15c0-0.42,0.09-0.81,0.26-1.17c0.17-0.36,0.43-0.63,0.75-0.81
		s0.71-0.26,1.13-0.26c0.31,0,0.59,0.05,0.84,0.15c0.25,0.1,0.45,0.24,0.59,0.42s0.25,0.41,0.33,0.7l-0.51,0.14
		c-0.06-0.22-0.14-0.39-0.24-0.52s-0.23-0.22-0.41-0.3c-0.18-0.07-0.38-0.11-0.59-0.11c-0.26,0-0.48,0.04-0.67,0.12
		c-0.19,0.08-0.34,0.18-0.46,0.31s-0.21,0.27-0.27,0.42c-0.11,0.27-0.16,0.55-0.16,0.86c0,0.38,0.07,0.7,0.2,0.96
		c0.13,0.26,0.32,0.45,0.58,0.57s0.52,0.19,0.8,0.19c0.25,0,0.49-0.05,0.72-0.14c0.23-0.09,0.41-0.2,0.53-0.3v-0.8H681.92z"/>
	<path class="st0" d="M687.49,77.52h0.57V80c0,0.43-0.05,0.77-0.15,1.03s-0.27,0.46-0.53,0.62c-0.25,0.16-0.59,0.24-1,0.24
		c-0.4,0-0.73-0.07-0.99-0.21s-0.44-0.34-0.55-0.6s-0.16-0.62-0.16-1.08v-2.48h0.57V80c0,0.37,0.03,0.65,0.1,0.82
		c0.07,0.18,0.19,0.31,0.36,0.41c0.17,0.1,0.38,0.14,0.62,0.14c0.42,0,0.72-0.09,0.89-0.28s0.27-0.55,0.27-1.09V77.52z"/>
	<path class="st0" d="M689.03,81.81v-0.6h0.6v0.6c0,0.22-0.04,0.4-0.12,0.54c-0.08,0.13-0.2,0.24-0.37,0.31l-0.15-0.23
		c0.11-0.05,0.19-0.12,0.25-0.22s0.08-0.23,0.09-0.41H689.03z"/>
	<path class="st0" d="M690.71,81.81v-4.29h0.86l1.02,3.04c0.09,0.28,0.16,0.5,0.21,0.64c0.05-0.16,0.12-0.39,0.23-0.69l1.03-2.99
		h0.76v4.29h-0.55v-3.59l-1.25,3.59h-0.51l-1.24-3.66v3.66H690.71z"/>
	<path class="st0" d="M695.87,81.81v-4.29h1.62c0.29,0,0.5,0.01,0.65,0.04c0.21,0.04,0.39,0.1,0.53,0.2s0.26,0.24,0.34,0.41
		c0.09,0.18,0.13,0.37,0.13,0.59c0,0.37-0.12,0.67-0.35,0.93s-0.65,0.38-1.26,0.38h-1.1v1.75H695.87z M696.44,79.56h1.11
		c0.37,0,0.63-0.07,0.78-0.21s0.23-0.33,0.23-0.58c0-0.18-0.05-0.33-0.14-0.46c-0.09-0.13-0.21-0.21-0.36-0.25
		c-0.1-0.03-0.27-0.04-0.53-0.04h-1.1V79.56z"/>
	<path class="st0" d="M699.35,81.81v-0.6h0.6v0.6c0,0.22-0.04,0.4-0.12,0.54c-0.08,0.13-0.2,0.24-0.37,0.31l-0.15-0.23
		c0.11-0.05,0.19-0.12,0.25-0.22s0.08-0.23,0.09-0.41H699.35z"/>
	<path class="st0" d="M701.04,81.81v-4.29h1.62c0.29,0,0.5,0.01,0.65,0.04c0.21,0.04,0.39,0.1,0.53,0.2s0.26,0.24,0.34,0.41
		c0.09,0.18,0.13,0.37,0.13,0.59c0,0.37-0.12,0.67-0.35,0.93s-0.65,0.38-1.26,0.38h-1.1v1.75H701.04z M701.61,79.56h1.11
		c0.37,0,0.63-0.07,0.78-0.21s0.23-0.33,0.23-0.58c0-0.18-0.05-0.33-0.14-0.46c-0.09-0.13-0.21-0.21-0.36-0.25
		c-0.1-0.03-0.27-0.04-0.53-0.04h-1.1V79.56z"/>
	<path class="st0" d="M705.08,81.81v-4.29h1.9c0.38,0,0.67,0.04,0.87,0.12c0.2,0.08,0.36,0.21,0.48,0.41s0.18,0.41,0.18,0.65
		c0,0.3-0.1,0.56-0.3,0.77s-0.5,0.34-0.91,0.4c0.15,0.07,0.26,0.14,0.34,0.21c0.17,0.15,0.32,0.34,0.47,0.57l0.75,1.17h-0.71
		l-0.57-0.89c-0.17-0.26-0.3-0.46-0.41-0.59s-0.2-0.23-0.29-0.29c-0.09-0.05-0.17-0.09-0.26-0.11c-0.06-0.01-0.17-0.02-0.32-0.02
		h-0.66v1.91H705.08z M705.65,79.42h1.22c0.26,0,0.46-0.03,0.61-0.08c0.15-0.05,0.26-0.14,0.33-0.26c0.08-0.12,0.11-0.25,0.11-0.38
		c0-0.2-0.07-0.37-0.22-0.5s-0.38-0.2-0.7-0.2h-1.36V79.42z"/>
	<path class="st0" d="M709.63,81.81v-0.6h0.6v0.6c0,0.22-0.04,0.4-0.12,0.54c-0.08,0.13-0.2,0.24-0.37,0.31l-0.15-0.23
		c0.11-0.05,0.19-0.12,0.25-0.22s0.08-0.23,0.09-0.41H709.63z"/>
	<path class="st0" d="M712.11,81.81l-1.66-4.29h0.62l1.12,3.12c0.09,0.25,0.17,0.48,0.23,0.7c0.07-0.23,0.14-0.47,0.23-0.7
		l1.16-3.12h0.58l-1.68,4.29H712.11z"/>
	<path class="st0" d="M715.07,81.81v-4.29h0.57v4.29H715.07z"/>
	<path class="st0" d="M717.51,83.01h-1.16v-0.44h0.64v-4.61h-0.64v-0.44h1.16V83.01z"/>
</g>
</svg>
