<?xml version="1.0" encoding="utf-8"?>
<!-- Generator: Adobe Illustrator 23.0.6, SVG Export Plug-In . SVG Version: 6.00 Build 0)  -->
<svg version="1.1" id="Layer_1" xmlns="http://www.w3.org/2000/svg" xmlns:xlink="http://www.w3.org/1999/xlink" x="0px" y="0px"
	 viewBox="0 0 300 250" style="enable-background:new 0 0 300 250;" xml:space="preserve">
<style type="text/css">
	.st0{fill:#0D4C87;}
</style>
<g>
	<path class="st0" d="M39.54,167.2c-1.51,0-2.96-0.44-3.76-0.92l-0.31-3.04c1.09,0.76,2.52,1.28,3.86,1.28
		c1.15,0,1.89-0.52,1.89-1.34c0-0.78-0.48-1.22-1.72-1.55c-2.62-0.71-3.84-2.16-3.84-4.2c0-2.23,1.66-4.01,4.56-4.01
		c1.53,0,2.81,0.44,3.36,0.76l-0.59,2.62c-0.55-0.31-1.62-0.69-2.54-0.69c-1.13,0-1.66,0.5-1.66,1.16c0,0.67,0.57,1.03,1.6,1.32
		c2.56,0.71,4.09,2.04,4.09,4.41C44.47,165.57,42.79,167.2,39.54,167.2z"/>
	<path class="st0" d="M54.85,161.72l-1.36,1.39h-4.66c0.15,0.78,1.2,1.66,2.81,1.66c0.99,0,1.99-0.29,2.62-0.71l-0.29,2.64
		c-0.71,0.38-1.81,0.63-3.02,0.63c-2.9,0-5.23-2.02-5.23-5.12c0-3.07,2.23-5.02,4.96-5.02c2.65,0,4.26,1.83,4.26,3.8
		C54.93,161.22,54.89,161.54,54.85,161.72z M50.67,159.5c-0.9,0-1.66,0.69-1.85,1.55h3.21c0-0.06,0.02-0.13,0.02-0.21
		C52.05,160.19,51.49,159.5,50.67,159.5z"/>
	<path class="st0" d="M65.12,161.72l-1.36,1.39h-4.66c0.15,0.78,1.2,1.66,2.81,1.66c0.99,0,1.99-0.29,2.62-0.71l-0.29,2.64
		c-0.71,0.38-1.81,0.63-3.02,0.63c-2.9,0-5.23-2.02-5.23-5.12c0-3.07,2.23-5.02,4.96-5.02c2.65,0,4.26,1.83,4.26,3.8
		C65.2,161.22,65.16,161.54,65.12,161.72z M60.94,159.5c-0.9,0-1.66,0.69-1.85,1.55h3.21c0-0.06,0.02-0.13,0.02-0.21
		C62.32,160.19,61.76,159.5,60.94,159.5z"/>
	<path class="st0" d="M77.48,167.01v-5.84c0-0.69-0.48-1.3-1.43-1.3c-0.92,0-1.49,0.59-1.49,1.34v5.79h-3.09v-14.95h3.04v6.32h0.02
		c0.48-0.73,1.36-1.18,2.69-1.18c2.1,0,3.34,1.18,3.34,3.19v6.61H77.48z"/>
	<path class="st0" d="M87.27,167.31c-2.88,0-5.19-2.04-5.19-5.06s2.31-5.06,5.19-5.06c2.86,0,5.19,2.04,5.19,5.06
		S90.13,167.31,87.27,167.31z M87.27,159.88c-1.15,0-2.14,1.01-2.14,2.42c0,1.41,0.99,2.41,2.14,2.41c1.13,0,2.14-1.01,2.14-2.41
		C89.41,160.88,88.4,159.88,87.27,159.88z"/>
	<path class="st0" d="M103.96,167.1h-2.12l-1.28-3.78c-0.19-0.59-0.38-1.26-0.57-1.97h-0.04c-0.15,0.71-0.34,1.41-0.52,1.95
		l-1.28,3.8h-2.02l-3.32-9.59h2.81l1.18,3.61c0.17,0.54,0.36,1.22,0.46,1.83h0.04c0.1-0.59,0.27-1.28,0.46-1.83l1.2-3.61h2.33
		l1.2,3.59c0.19,0.59,0.31,1.24,0.44,1.85h0.04c0.13-0.61,0.29-1.28,0.48-1.85l1.2-3.59h2.62L103.96,167.1z"/>
	<path class="st0" d="M124.88,167.01v-5.84c0-0.69-0.34-1.3-1.34-1.3c-0.99,0-1.43,0.59-1.43,1.34v5.79h-3.09v-5.84
		c0-0.69-0.34-1.3-1.34-1.3c-0.99,0-1.43,0.59-1.43,1.34v5.79h-3.09v-9.51h2.86v1.28h0.02c0.38-1.01,1.32-1.58,2.81-1.58
		c1.36,0,2.39,0.55,2.81,1.55c0.4-0.92,1.51-1.55,2.94-1.55c2.16,0,3.36,1.18,3.36,3.19v6.61H124.88z"/>
	<path class="st0" d="M136.2,167.01v-1.3h-0.02c-0.38,1.01-1.39,1.57-2.92,1.57c-2.08,0-3.34-1.15-3.34-3.17v-6.61h3.09v5.84
		c0,0.69,0.48,1.3,1.43,1.3c0.92,0,1.49-0.61,1.49-1.37v-5.77h3.09v9.51H136.2z"/>
	<path class="st0" d="M148.21,160.57c-0.63-0.4-1.28-0.61-2.04-0.61c-1.34,0-2.42,0.97-2.42,2.35c0,1.36,1.07,2.35,2.48,2.35
		c0.8,0,1.41-0.17,2.08-0.52l-0.27,2.62c-0.63,0.29-1.45,0.46-2.33,0.46c-2.67,0-5.14-1.89-5.14-4.96c0-3.11,2.5-4.98,5.08-4.98
		c1.26,0,2.29,0.25,3.13,0.71L148.21,160.57z"/>
	<path class="st0" d="M156.34,167.01v-5.84c0-0.69-0.48-1.3-1.43-1.3c-0.92,0-1.49,0.59-1.49,1.34v5.79h-3.09v-14.95h3.04v6.32h0.02
		c0.48-0.73,1.36-1.18,2.69-1.18c2.1,0,3.34,1.18,3.34,3.19v6.61H156.34z"/>
	<path class="st0" d="M171.88,166.07c-1.45,3.82-2.96,5.21-4.75,5.9l-1.89-1.89c1.53-0.59,2.71-1.7,3.48-3.72l-3.42-8.86h2.98
		l1.39,3.7c0.21,0.54,0.42,1.2,0.57,1.87h0.04c0.19-0.65,0.4-1.32,0.61-1.87l1.39-3.7h2.83L171.88,166.07z"/>
	<path class="st0" d="M180.59,167.31c-2.88,0-5.19-2.04-5.19-5.06s2.31-5.06,5.19-5.06c2.86,0,5.19,2.04,5.19,5.06
		S183.45,167.31,180.59,167.31z M180.59,159.88c-1.15,0-2.14,1.01-2.14,2.42c0,1.41,0.99,2.41,2.14,2.41c1.13,0,2.14-1.01,2.14-2.41
		C182.74,160.88,181.73,159.88,180.59,159.88z"/>
	<path class="st0" d="M193.57,167.01v-1.3h-0.02c-0.38,1.01-1.39,1.57-2.92,1.57c-2.08,0-3.34-1.15-3.34-3.17v-6.61h3.09v5.84
		c0,0.69,0.48,1.3,1.43,1.3c0.92,0,1.49-0.61,1.49-1.37v-5.77h3.09v9.51H193.57z"/>
	<path class="st0" d="M210.27,160.57c-0.63-0.4-1.28-0.61-2.04-0.61c-1.34,0-2.42,0.97-2.42,2.35c0,1.36,1.07,2.35,2.48,2.35
		c0.8,0,1.41-0.17,2.08-0.52l-0.27,2.62c-0.63,0.29-1.45,0.46-2.33,0.46c-2.67,0-5.14-1.89-5.14-4.96c0-3.11,2.5-4.98,5.08-4.98
		c1.26,0,2.29,0.25,3.13,0.71L210.27,160.57z"/>
	<path class="st0" d="M218.98,167.43c-0.57-0.13-1.22-0.57-1.47-1.26c-0.42,0.78-1.32,1.16-2.48,1.16c-1.68,0-3.17-1.18-3.17-3.15
		c0-1.74,1.37-2.92,3.25-3.11l1.89-0.19v-0.32c0-0.57-0.46-0.94-1.49-0.94c-0.92,0-1.95,0.29-2.65,0.74l-0.55-2.33
		c0.78-0.5,2.08-0.84,3.34-0.84c2.52,0,4.3,1.16,4.3,3.44v3.11c0,1.11,0.42,1.7,1.16,1.97L218.98,167.43z M217.01,162.86l-1.16,0.11
		c-0.8,0.06-1.16,0.63-1.16,1.2c0,0.5,0.38,0.92,0.97,0.92c0.73,0,1.34-0.57,1.34-1.39V162.86z"/>
	<path class="st0" d="M228.2,167.01v-5.84c0-0.69-0.46-1.3-1.41-1.3c-0.92,0-1.51,0.59-1.51,1.34v5.79h-3.09v-9.51h2.83v1.28h0.02
		c0.38-1.01,1.37-1.58,2.9-1.58c2.08,0,3.34,1.18,3.34,3.19v6.61H228.2z"/>
	<path class="st0" d="M242.12,171.87c-2.77,0-4.62-1.58-4.62-3.57c0-1.45,0.97-2.31,1.95-2.56l-1.22-1.22
		c0.08-0.61,0.61-1.13,1.16-1.36c-0.71-0.44-1.39-1.34-1.39-2.54c0-2.02,1.45-3.42,3.93-3.42c0.57,0,1.01,0.08,1.41,0.19
		c0.42,0.11,0.88,0.17,1.36,0.17c0.53,0,1.07-0.12,1.49-0.31l0.57,2.35c-0.29,0.17-0.76,0.31-1.18,0.29
		c0.1,0.19,0.23,0.63,0.23,0.97c0,1.6-1.26,2.94-3.11,3.07c-0.38,0.02-0.63,0.1-0.63,0.36c0,0.11,0.08,0.23,0.25,0.29l1.47,0.52
		c1.87,0.67,2.88,1.62,2.88,3.36C246.68,170.39,244.89,171.87,242.12,171.87z M242.77,167.39l-1.13-0.31
		c-0.74,0.02-1.28,0.54-1.28,1.24c0,0.65,0.57,1.2,1.68,1.2c1.09,0,1.68-0.5,1.68-1.05C243.72,168.02,243.38,167.56,242.77,167.39z
		 M241.93,159.44c-0.69,0-1.22,0.52-1.22,1.13c0,0.63,0.52,1.13,1.22,1.13c0.67,0,1.22-0.5,1.22-1.13
		C243.15,159.96,242.65,159.44,241.93,159.44z"/>
	<path class="st0" d="M256.61,161.72l-1.36,1.39h-4.66c0.15,0.78,1.2,1.66,2.81,1.66c0.99,0,2-0.29,2.62-0.71l-0.29,2.64
		c-0.71,0.38-1.81,0.63-3.02,0.63c-2.9,0-5.23-2.02-5.23-5.12c0-3.07,2.23-5.02,4.96-5.02c2.65,0,4.26,1.83,4.26,3.8
		C256.7,161.22,256.65,161.54,256.61,161.72z M252.43,159.5c-0.9,0-1.66,0.69-1.85,1.55h3.21c0-0.06,0.02-0.13,0.02-0.21
		C253.82,160.19,253.25,159.5,252.43,159.5z"/>
	<path class="st0" d="M264.66,160.02h-2.48v3.53c0,0.82,0.44,1.15,1.26,1.15c0.36,0,0.57-0.02,0.8-0.13l-0.27,2.33
		c-0.29,0.15-0.82,0.25-1.43,0.25c-2.14,0-3.42-1.13-3.42-3.02v-4.12h-1.6v-2.52h1.6v-2.04l3.07-1.11v3.15h3.07L264.66,160.02z"/>
</g>
<g>
	<path class="st0" d="M73.31,178.21c-0.55,0-1.66-1.11-1.66-1.66s1.11-1.64,1.66-1.64s1.66,1.09,1.66,1.64
		S73.85,178.21,73.31,178.21z M71.75,189.02v-9.51h3.11v9.51H71.75z"/>
	<path class="st0" d="M82.88,189.02v-5.84c0-0.69-0.46-1.3-1.41-1.3c-0.92,0-1.51,0.59-1.51,1.34v5.79h-3.09v-9.51h2.83v1.28h0.02
		c0.38-1.01,1.36-1.58,2.9-1.58c2.08,0,3.34,1.18,3.34,3.19v6.61H82.88z"/>
	<path class="st0" d="M92.56,193.94l-1.83-1.83c1.15-0.38,1.93-1.16,1.93-2.79v-9.8h3.11v9.97
		C95.78,191.88,94.24,193.41,92.56,193.94z M94.22,178.21c-0.55,0-1.66-1.11-1.66-1.66s1.11-1.64,1.66-1.64s1.66,1.09,1.66,1.64
		S94.77,178.21,94.22,178.21z"/>
	<path class="st0" d="M104.05,189.02v-1.3h-0.02c-0.38,1.01-1.39,1.57-2.92,1.57c-2.08,0-3.34-1.15-3.34-3.17v-6.61h3.09v5.84
		c0,0.69,0.48,1.3,1.43,1.3c0.92,0,1.49-0.61,1.49-1.37v-5.77h3.09v9.51H104.05z"/>
	<path class="st0" d="M111.9,189.23c-1.3,0-2.25-0.27-3.02-0.67l-0.27-2.73c0.84,0.59,1.93,1.03,2.98,1.03
		c0.57,0,0.92-0.29,0.92-0.65c0-0.4-0.31-0.57-0.86-0.73c-1.83-0.53-2.92-1.45-2.92-3.11c0-1.87,1.51-3.07,3.57-3.07
		c1.18,0,2.33,0.32,2.81,0.57l-0.52,2.27c-0.46-0.25-1.22-0.52-1.97-0.52c-0.5,0-0.84,0.23-0.84,0.61c0,0.36,0.25,0.55,0.84,0.69
		c2.14,0.57,3.02,1.64,3.02,3.23C115.64,187.76,114.47,189.23,111.9,189.23z"/>
	<path class="st0" d="M123.39,182.03h-2.48v3.53c0,0.82,0.44,1.15,1.26,1.15c0.36,0,0.57-0.02,0.8-0.13l-0.27,2.33
		c-0.29,0.15-0.82,0.25-1.43,0.25c-2.14,0-3.42-1.13-3.42-3.02v-4.12h-1.6v-2.52h1.6v-2.04l3.07-1.11v3.15h3.07L123.39,182.03z"/>
	<path class="st0" d="M132.53,189.27c-0.78,0-1.85-0.17-2.54-0.46l-0.27-2.69c0.65,0.36,1.43,0.59,2.25,0.59
		c1.24,0,2.33-0.61,2.33-1.91c0-1.03-0.94-1.81-2.08-1.81c-0.13,0-0.21,0.02-0.4,0.04l-0.5-2.25c1.15-0.23,2.1-0.84,2.1-1.62
		c0-0.67-0.55-1.11-1.32-1.11c-0.73,0-1.32,0.21-1.91,0.55l-0.59-2.58c0.71-0.38,1.78-0.67,2.92-0.67c2.5,0,4.09,1.28,4.09,3.21
		c0,1.41-1.01,2.31-1.91,2.56c1.43,0.32,2.96,1.62,2.96,3.74C137.65,187.66,135.59,189.27,132.53,189.27z"/>
	<path class="st0" d="M143.84,189.34c-2.65,0-4.83-2.23-4.83-7.03c0-4.79,2.18-7.01,4.83-7.01c2.62,0,4.81,2.23,4.81,7.01
		C148.65,187.11,146.47,189.34,143.84,189.34z M143.84,177.94c-0.94,0-1.76,1.47-1.76,4.37c0,2.94,0.82,4.37,1.76,4.37
		s1.76-1.41,1.76-4.37C145.61,179.38,144.79,177.94,143.84,177.94z"/>
	<path class="st0" d="M158.1,189.23c-1.3,0-2.25-0.27-3.02-0.67l-0.27-2.73c0.84,0.59,1.93,1.03,2.98,1.03
		c0.57,0,0.92-0.29,0.92-0.65c0-0.4-0.32-0.57-0.86-0.73c-1.83-0.53-2.92-1.45-2.92-3.11c0-1.87,1.51-3.07,3.57-3.07
		c1.18,0,2.33,0.32,2.81,0.57l-0.53,2.27c-0.46-0.25-1.22-0.52-1.97-0.52c-0.5,0-0.84,0.23-0.84,0.61c0,0.36,0.25,0.55,0.84,0.69
		c2.14,0.57,3.02,1.64,3.02,3.23C161.84,187.76,160.67,189.23,158.1,189.23z"/>
	<path class="st0" d="M171.98,183.73l-1.37,1.39h-4.66c0.15,0.78,1.2,1.66,2.81,1.66c0.99,0,1.99-0.29,2.62-0.71l-0.29,2.64
		c-0.71,0.38-1.8,0.63-3.02,0.63c-2.9,0-5.23-2.02-5.23-5.12c0-3.07,2.23-5.02,4.96-5.02c2.65,0,4.26,1.83,4.26,3.8
		C172.07,183.23,172.03,183.54,171.98,183.73z M167.81,181.51c-0.9,0-1.66,0.69-1.85,1.55h3.21c0-0.06,0.02-0.13,0.02-0.21
		C169.19,182.2,168.62,181.51,167.81,181.51z"/>
	<path class="st0" d="M180.76,182.58c-0.63-0.4-1.28-0.61-2.04-0.61c-1.34,0-2.41,0.97-2.41,2.35c0,1.36,1.07,2.35,2.48,2.35
		c0.8,0,1.41-0.17,2.08-0.52l-0.27,2.62c-0.63,0.29-1.45,0.46-2.33,0.46c-2.67,0-5.14-1.89-5.14-4.96c0-3.11,2.5-4.98,5.08-4.98
		c1.26,0,2.29,0.25,3.13,0.71L180.76,182.58z"/>
	<path class="st0" d="M187.44,189.32c-2.88,0-5.19-2.04-5.19-5.06s2.31-5.06,5.19-5.06c2.86,0,5.19,2.04,5.19,5.06
		S190.29,189.32,187.44,189.32z M187.44,181.88c-1.15,0-2.14,1.01-2.14,2.42c0,1.41,0.99,2.41,2.14,2.41c1.13,0,2.14-1.01,2.14-2.41
		C189.58,182.89,188.57,181.88,187.44,181.88z"/>
	<path class="st0" d="M200.19,189.02v-5.84c0-0.69-0.46-1.3-1.41-1.3c-0.92,0-1.51,0.59-1.51,1.34v5.79h-3.09v-9.51h2.83v1.28h0.02
		c0.38-1.01,1.37-1.58,2.9-1.58c2.08,0,3.34,1.18,3.34,3.19v6.61H200.19z"/>
	<path class="st0" d="M212.37,189.02v-1.18h-0.02c-0.53,0.97-1.62,1.45-2.94,1.45c-2.33,0-4.58-1.76-4.58-5.02
		c0-3.07,2.18-5.06,4.83-5.06c1.01,0,2.04,0.34,2.41,0.65v-5.79h3v14.95H212.37z M212.07,182.79c-0.29-0.4-0.92-0.86-1.87-0.86
		c-1.34,0-2.29,1.05-2.29,2.41c0,1.37,0.94,2.42,2.29,2.42c0.9,0,1.53-0.48,1.87-0.99V182.79z"/>
	<path class="st0" d="M220.16,189.23c-1.3,0-2.25-0.27-3.02-0.67l-0.27-2.73c0.84,0.59,1.93,1.03,2.98,1.03
		c0.57,0,0.92-0.29,0.92-0.65c0-0.4-0.32-0.57-0.86-0.73c-1.83-0.53-2.92-1.45-2.92-3.11c0-1.87,1.51-3.07,3.57-3.07
		c1.18,0,2.33,0.32,2.81,0.57l-0.53,2.27c-0.46-0.25-1.22-0.52-1.97-0.52c-0.5,0-0.84,0.23-0.84,0.61c0,0.36,0.25,0.55,0.84,0.69
		c2.14,0.57,3.02,1.64,3.02,3.23C223.9,187.76,222.72,189.23,220.16,189.23z"/>
	<path class="st0" d="M226.92,189.32c-0.57,0-1.74-1.18-1.74-1.74c0-0.55,1.18-1.72,1.74-1.72c0.57,0,1.74,1.18,1.74,1.72
		C228.66,188.14,227.49,189.32,226.92,189.32z"/>
</g>
</svg>
