<svg id="Layer_1" xmlns="http://www.w3.org/2000/svg" viewBox="0 0 300 600"><style>.st0{fill:#373535}</style><path class="st0" d="M28.56 585.58v-5.01h.66v4.42h2.47v.59h-3.13zM32.23 583.11c0-.59.06-1.07.18-1.43.12-.36.3-.64.54-.84.24-.2.54-.29.91-.29.27 0 .5.05.71.16s.37.26.5.47.24.45.31.75.11.69.11 1.18c0 .59-.06 1.06-.18 1.42s-.3.64-.54.84c-.24.2-.54.3-.91.3-.48 0-.86-.17-1.14-.52-.32-.43-.49-1.1-.49-2.04zm.64 0c0 .82.1 1.37.29 1.64.19.27.43.41.71.41s.52-.14.71-.41c.19-.27.29-.82.29-1.64 0-.83-.1-1.37-.29-1.64-.19-.27-.43-.41-.72-.41-.28 0-.51.12-.68.36-.21.3-.31.86-.31 1.69zM37.07 582.86c-.26-.09-.44-.23-.57-.4s-.18-.38-.18-.62c0-.36.13-.67.39-.92s.61-.37 1.05-.37c.44 0 .79.13 1.06.38s.4.56.4.93c0 .23-.06.44-.18.61-.12.17-.31.3-.56.4.31.1.54.26.7.48.16.22.24.49.24.8 0 .43-.15.79-.45 1.08-.3.29-.7.44-1.2.44s-.89-.15-1.2-.44-.45-.66-.45-1.1c0-.33.08-.6.25-.82.16-.22.4-.37.7-.45zm-.32 1.27c0 .17.04.34.12.51.08.16.21.29.37.38s.34.14.53.14c.29 0 .54-.09.73-.28s.29-.43.29-.72c0-.3-.1-.54-.3-.73-.2-.19-.44-.29-.74-.29-.29 0-.53.1-.72.29-.18.17-.28.41-.28.7zm.2-2.31a.783.783 0 0 0 .82.81c.24 0 .43-.07.58-.22.15-.15.23-.33.23-.55 0-.23-.08-.42-.23-.57a.816.816 0 0 0-.58-.23c-.23 0-.43.08-.58.23s-.24.32-.24.53zM43.25 584.98v.59h-3.31c0-.15.02-.29.07-.43.08-.22.22-.45.4-.67.19-.22.45-.47.81-.76.54-.45.91-.8 1.1-1.06s.29-.51.29-.74c0-.24-.09-.45-.26-.62-.17-.17-.4-.25-.68-.25-.3 0-.53.09-.71.27s-.27.42-.27.74l-.63-.06c.04-.47.21-.83.49-1.08s.66-.37 1.14-.37c.48 0 .86.13 1.14.4.28.27.42.6.42.99 0 .2-.04.4-.12.59s-.22.4-.41.61c-.19.21-.51.51-.95.88-.37.31-.61.52-.71.63s-.19.22-.26.33h2.45zM43.91 583.11c0-.59.06-1.07.18-1.43.12-.36.3-.64.54-.84.24-.2.54-.29.91-.29.27 0 .5.05.71.16s.37.26.5.47.24.45.31.75.11.69.11 1.18c0 .59-.06 1.06-.18 1.42s-.3.64-.54.84c-.24.2-.54.3-.91.3-.48 0-.86-.17-1.14-.52-.32-.43-.49-1.1-.49-2.04zm.63 0c0 .82.1 1.37.29 1.64.19.27.43.41.71.41s.52-.14.71-.41c.19-.27.29-.82.29-1.64 0-.83-.1-1.37-.29-1.64-.19-.27-.43-.41-.72-.41-.28 0-.51.12-.68.36-.2.3-.31.86-.31 1.69zM47.81 583.11c0-.59.06-1.07.18-1.43.12-.36.3-.64.54-.84.24-.2.54-.29.91-.29.27 0 .5.05.71.16s.37.26.5.47.24.45.31.75.11.69.11 1.18c0 .59-.06 1.06-.18 1.42s-.3.64-.54.84c-.24.2-.54.3-.91.3-.48 0-.86-.17-1.14-.52-.33-.43-.49-1.1-.49-2.04zm.63 0c0 .82.1 1.37.29 1.64.19.27.43.41.71.41s.52-.14.71-.41c.19-.27.29-.82.29-1.64 0-.83-.1-1.37-.29-1.64-.19-.27-.43-.41-.72-.41-.28 0-.51.12-.68.36-.21.3-.31.86-.31 1.69zM51.7 583.11c0-.59.06-1.07.18-1.43.12-.36.3-.64.54-.84.24-.2.54-.29.91-.29.27 0 .5.05.71.16s.37.26.5.47.24.45.31.75.11.69.11 1.18c0 .59-.06 1.06-.18 1.42s-.3.64-.54.84c-.24.2-.54.3-.91.3-.48 0-.86-.17-1.14-.52-.33-.43-.49-1.1-.49-2.04zm.63 0c0 .82.1 1.37.29 1.64.19.27.43.41.71.41s.52-.14.71-.41c.19-.27.29-.82.29-1.64 0-.83-.1-1.37-.29-1.64-.19-.27-.43-.41-.72-.41-.28 0-.51.12-.68.36-.2.3-.31.86-.31 1.69zM55.63 581.22v-.59h3.24v.48c-.32.34-.64.79-.95 1.35-.31.56-.56 1.14-.73 1.74-.12.42-.2.88-.24 1.38h-.63c.01-.39.08-.87.23-1.43s.36-1.1.64-1.62.57-.96.88-1.31h-2.44zM61.8 585.58h-.62v-3.92c-.15.14-.34.28-.58.42-.24.14-.46.25-.65.32v-.59c.34-.16.65-.36.9-.59s.44-.45.55-.67h.4v5.03zM63.38 584.26l.65-.05c.05.31.16.55.33.71.17.16.38.24.63.24.3 0 .55-.11.75-.34.21-.22.31-.52.31-.89 0-.35-.1-.63-.3-.83-.2-.2-.46-.3-.77-.3-.2 0-.38.05-.54.14s-.28.21-.38.35l-.58-.08.49-2.57h2.49v.59h-2l-.27 1.35c.3-.21.62-.31.95-.31.44 0 .81.15 1.11.46.3.3.45.69.45 1.17 0 .45-.13.85-.4 1.18-.32.41-.76.61-1.32.61-.46 0-.83-.13-1.12-.38-.28-.29-.44-.62-.48-1.05zM67.31 581.22v-.59h3.24v.48c-.32.34-.64.79-.95 1.35-.31.56-.56 1.14-.73 1.74-.12.42-.2.88-.24 1.38H68c.01-.39.08-.87.23-1.43s.36-1.1.64-1.62.57-.96.88-1.31h-2.44zM71.35 586.97v-6.4h1.36v.51h-.74v5.38h.74v.51h-1.36zM75.76 584.41l.64.08c-.1.37-.29.66-.56.86s-.62.31-1.04.31c-.53 0-.95-.16-1.26-.49-.31-.33-.47-.79-.47-1.38 0-.61.16-1.08.47-1.42s.72-.51 1.22-.51c.49 0 .88.17 1.19.5.31.33.46.8.46 1.39v.16H73.7c.02.4.14.71.34.92.2.21.46.32.76.32.23 0 .42-.06.58-.18s.29-.3.38-.56zm-2.02-1h2.03c-.03-.3-.1-.53-.23-.69a.942.942 0 0 0-.76-.36c-.28 0-.52.09-.71.28-.2.2-.3.46-.33.77zM76.76 585.58l1.33-1.89-1.23-1.74h.77l.56.85c.1.16.19.3.25.41.1-.15.19-.28.28-.4l.61-.86h.73l-1.25 1.71 1.35 1.92h-.76l-.75-1.13-.2-.3-.95 1.43h-.74zM80.67 586.97v-5.02h.56v.47c.13-.18.28-.32.45-.42.17-.09.37-.14.6-.14.31 0 .58.08.82.24s.42.38.54.67c.12.29.18.61.18.96 0 .37-.07.71-.2 1-.13.3-.33.53-.58.68-.25.16-.52.24-.8.24-.21 0-.39-.04-.55-.13-.16-.09-.3-.2-.4-.33v1.77h-.62zm.56-3.19c0 .47.09.81.28 1.04s.42.33.69.33c.27 0 .51-.12.7-.35.2-.23.29-.59.29-1.08 0-.46-.1-.81-.29-1.04-.19-.23-.42-.35-.68-.35-.26 0-.49.12-.7.37-.19.26-.29.61-.29 1.08zM84.4 583.11c0-.59.06-1.07.18-1.43.12-.36.3-.64.54-.84.24-.2.54-.29.91-.29.27 0 .5.05.71.16s.37.26.5.47.24.45.31.75.11.69.11 1.18c0 .59-.06 1.06-.18 1.42s-.3.64-.54.84c-.24.2-.54.3-.91.3-.48 0-.86-.17-1.14-.52-.33-.43-.49-1.1-.49-2.04zm.63 0c0 .82.1 1.37.29 1.64.19.27.43.41.71.41s.52-.14.71-.41c.19-.27.29-.82.29-1.64 0-.83-.1-1.37-.29-1.64-.19-.27-.43-.41-.72-.41-.28 0-.51.12-.68.36-.21.3-.31.86-.31 1.69zM89.23 582.86c-.26-.09-.44-.23-.57-.4s-.18-.38-.18-.62c0-.36.13-.67.39-.92s.61-.37 1.05-.37c.44 0 .79.13 1.06.38s.4.56.4.93c0 .23-.06.44-.18.61-.12.17-.31.3-.56.4.31.1.54.26.7.48.16.22.24.49.24.8 0 .43-.15.79-.45 1.08-.3.29-.7.44-1.2.44s-.89-.15-1.2-.44-.45-.66-.45-1.1c0-.33.08-.6.25-.82.16-.22.4-.37.7-.45zm-.32 1.27c0 .17.04.34.12.51.08.16.21.29.37.38s.34.14.53.14c.29 0 .54-.09.73-.28s.29-.43.29-.72c0-.3-.1-.54-.3-.73-.2-.19-.44-.29-.74-.29-.29 0-.53.1-.72.29-.18.17-.28.41-.28.7zm.2-2.31a.783.783 0 0 0 .82.81c.24 0 .43-.07.58-.22.15-.15.23-.33.23-.55 0-.23-.08-.42-.23-.57a.816.816 0 0 0-.58-.23c-.23 0-.43.08-.58.23s-.24.32-.24.53zM95.41 584.98v.59H92.1c0-.15.02-.29.07-.43.08-.22.22-.45.4-.67.19-.22.45-.47.81-.76.54-.45.91-.8 1.1-1.06s.29-.51.29-.74c0-.24-.09-.45-.26-.62-.17-.17-.4-.25-.68-.25-.3 0-.53.09-.71.27s-.27.42-.27.74l-.63-.06c.04-.47.21-.83.49-1.08s.66-.37 1.14-.37c.48 0 .86.13 1.14.4.28.27.42.6.42.99 0 .2-.04.4-.12.59s-.22.4-.41.61c-.19.21-.51.51-.95.88-.37.31-.61.52-.71.63s-.19.22-.26.33h2.45zM98.39 585.58h-.62v-3.92c-.15.14-.34.28-.58.42-.24.14-.46.25-.65.32v-.59c.34-.16.65-.36.9-.59s.44-.45.55-.67h.4v5.03zM101.17 586.97h-1.36v-.51h.74v-5.38h-.74v-.51h1.36v6.4zM102.1 586.97v-6.4h1.36v.51h-.74v5.38h.74v.51h-1.36zM103.56 585.58l1.92-5.01h.71l2.05 5.01h-.76l-.58-1.52h-2.1l-.55 1.52h-.69zm1.44-2.06h1.7l-.52-1.39c-.16-.42-.28-.77-.36-1.04-.06.32-.15.64-.27.96l-.55 1.47zM108.68 585.58v-5.01h.62v5.01h-.62zM110.24 585.58v-5.01h.62v5.01h-.62zM113.6 583.97l.63-.05c.03.25.1.46.21.62.11.16.28.29.5.39.23.1.48.15.77.15.25 0 .48-.04.67-.11s.34-.18.43-.31c.09-.13.14-.27.14-.43 0-.16-.05-.29-.14-.41s-.24-.22-.45-.3c-.13-.05-.43-.13-.89-.24s-.78-.21-.97-.31a1.32 1.32 0 0 1-.54-.47c-.12-.19-.18-.39-.18-.62 0-.25.07-.49.22-.71s.35-.39.63-.5c.28-.11.58-.17.92-.17.37 0 .7.06.98.18s.5.3.65.53.23.5.25.79l-.64.05c-.03-.32-.15-.56-.35-.72-.2-.16-.49-.24-.87-.24-.4 0-.69.07-.88.22-.18.15-.27.32-.27.53 0 .18.06.33.19.44.13.12.46.24 1 .36s.91.23 1.11.32c.29.13.51.3.65.51s.21.44.21.71c0 .27-.08.52-.23.75-.15.24-.37.42-.66.55-.29.13-.61.2-.97.2-.45 0-.83-.07-1.14-.2-.31-.13-.55-.33-.72-.6a2.04 2.04 0 0 1-.26-.91zM119.76 585.03l.09.54c-.17.04-.33.05-.46.05-.22 0-.4-.04-.52-.11s-.21-.16-.26-.28-.08-.36-.08-.73v-2.09h-.45v-.48h.45v-.9l.61-.37v1.27h.62v.48h-.62v2.12c0 .18.01.29.03.34.02.05.06.09.11.12s.12.04.21.04c.07.02.16.01.27 0zM122.73 585.13c-.23.19-.45.33-.66.41-.21.08-.44.12-.68.12-.4 0-.71-.1-.92-.29a.982.982 0 0 1-.32-.75.983.983 0 0 1 .44-.84c.13-.09.28-.16.44-.2.12-.03.3-.06.55-.09.5-.06.86-.13 1.1-.21v-.16c0-.25-.06-.43-.17-.53-.16-.14-.39-.21-.7-.21-.29 0-.5.05-.64.15-.14.1-.24.28-.31.54l-.6-.08c.05-.26.14-.47.27-.62s.31-.28.54-.37c.24-.08.51-.13.82-.13.31 0 .56.04.76.11s.34.17.43.28.15.25.19.42c.02.1.03.29.03.57v.82c0 .57.01.93.04 1.09.03.15.08.3.16.44h-.64c-.07-.15-.11-.3-.13-.47zm-.05-1.38c-.22.09-.56.17-1 .23-.25.04-.43.08-.54.12-.1.05-.19.11-.24.2s-.09.19-.09.29c0 .16.06.3.19.41.12.11.31.16.54.16.24 0 .45-.05.63-.16s.32-.25.41-.42c.07-.14.1-.34.1-.62v-.21zM125.6 585.03l.09.54c-.17.04-.33.05-.46.05-.22 0-.4-.04-.52-.11s-.21-.16-.26-.28-.08-.36-.08-.73v-2.09h-.45v-.48h.45v-.9l.61-.37v1.27h.62v.48h-.62v2.12c0 .18.01.29.03.34.02.05.06.09.11.12s.12.04.21.04c.07.02.16.01.27 0zM128.69 584.41l.64.08c-.1.37-.29.66-.56.86s-.62.31-1.04.31c-.53 0-.95-.16-1.26-.49-.31-.33-.47-.79-.47-1.38 0-.61.16-1.08.47-1.42s.72-.51 1.22-.51c.49 0 .88.17 1.19.5.31.33.46.8.46 1.39v.16h-2.71c.02.4.14.71.34.92.2.21.46.32.76.32.23 0 .42-.06.58-.18s.29-.3.38-.56zm-2.02-1h2.03c-.03-.3-.1-.53-.23-.69a.942.942 0 0 0-.76-.36c-.28 0-.52.09-.71.28-.2.2-.31.46-.33.77zM129.85 584.49l.61-.1c.03.24.13.43.29.56.16.13.37.2.65.2s.49-.06.63-.17.21-.25.21-.41c0-.14-.06-.25-.18-.33-.08-.05-.29-.12-.63-.21-.45-.11-.76-.21-.94-.3a.96.96 0 0 1-.4-.34.931.931 0 0 1-.14-.49c0-.16.04-.31.11-.45s.18-.25.3-.34c.1-.07.23-.13.39-.18.17-.05.34-.07.53-.07.28 0 .54.04.75.12.22.08.37.19.48.33.1.14.17.33.21.56l-.6.08a.687.687 0 0 0-.24-.44c-.13-.1-.32-.16-.56-.16-.28 0-.48.05-.6.14-.12.09-.18.2-.18.33 0 .08.02.15.08.22.05.07.13.12.24.16.06.02.24.08.54.16.44.12.74.21.91.29.17.07.31.18.41.32s.15.32.15.53c0 .21-.06.4-.18.58-.12.18-.29.32-.52.42-.23.1-.48.15-.77.15-.47 0-.83-.1-1.08-.29-.24-.19-.4-.48-.47-.87zM134.63 586.97h-1.36v-.51h.74v-5.38h-.74v-.51h1.36v6.4zM135.56 586.97v-6.4h1.36v.51h-.74v5.38h.74v.51h-1.36zM137.56 585.58v-5.01h1.73c.39 0 .69.02.89.07.29.07.53.19.73.36.26.22.46.51.59.86s.2.74.2 1.19c0 .38-.04.72-.13 1.01-.09.29-.2.54-.34.73s-.29.34-.46.45c-.16.11-.36.19-.6.25-.23.06-.5.09-.8.09h-1.81zm.67-.6h1.07c.33 0 .59-.03.78-.09.19-.06.34-.15.45-.26.16-.16.28-.37.37-.63s.13-.59.13-.97c0-.52-.09-.93-.26-1.21s-.38-.47-.63-.57c-.18-.07-.46-.1-.86-.1h-1.05v3.83zM146.2 583.82l.66.17c-.14.54-.39.96-.75 1.25s-.8.43-1.33.43c-.54 0-.98-.11-1.32-.33-.34-.22-.6-.54-.77-.96a3.37 3.37 0 0 1-.26-1.34c0-.52.1-.98.3-1.37s.48-.68.85-.89c.37-.2.77-.3 1.21-.3.5 0 .92.13 1.26.38.34.25.58.61.71 1.08l-.65.15c-.12-.37-.29-.63-.51-.8s-.5-.25-.83-.25c-.38 0-.71.09-.97.28s-.44.43-.54.74c-.1.31-.16.63-.16.96 0 .43.06.8.19 1.12.12.32.32.56.58.71s.55.24.85.24c.37 0 .69-.11.94-.32.27-.21.44-.53.54-.95zM147.76 585.58v-.7h.7v.7c0 .26-.04.47-.14.62-.09.16-.24.28-.43.37l-.17-.26c.13-.06.23-.14.29-.25s.1-.27.1-.48h-.35zM151.96 583.61v-.59h2.12v1.86c-.33.26-.66.46-1.01.59s-.7.2-1.07.2c-.49 0-.94-.11-1.34-.32s-.71-.52-.91-.91c-.21-.4-.31-.84-.31-1.34 0-.49.1-.94.31-1.37s.5-.74.88-.94.82-.31 1.32-.31c.36 0 .69.06.98.18s.52.28.69.49.29.48.38.82l-.6.16c-.08-.25-.17-.46-.28-.6s-.27-.26-.48-.35-.44-.13-.69-.13c-.3 0-.57.05-.79.14-.22.09-.4.21-.54.36s-.24.32-.32.5c-.13.31-.19.65-.19 1.01 0 .45.08.82.23 1.12.15.3.38.52.67.67.29.15.61.22.94.22.29 0 .57-.06.84-.17s.48-.23.62-.35v-.93h-1.45zM158.35 580.57h.66v2.9c0 .5-.06.9-.17 1.2s-.32.54-.62.72c-.3.19-.69.28-1.17.28-.47 0-.85-.08-1.15-.24s-.51-.4-.64-.7c-.13-.31-.19-.73-.19-1.26v-2.9h.66v2.89c0 .44.04.76.12.96s.22.37.42.48c.2.11.44.17.72.17.49 0 .83-.11 1.04-.33.21-.22.31-.65.31-1.28v-2.89zM160.2 585.58v-.7h.7v.7c0 .26-.04.47-.14.62-.09.16-.24.28-.43.37l-.17-.26c.13-.06.23-.14.29-.25s.1-.27.1-.48h-.35zM162.04 585.58v-5.01h1l1.19 3.55c.11.33.19.58.24.74.06-.18.15-.45.27-.8l1.2-3.49h.89v5.01h-.64v-4.19l-1.46 4.19h-.6l-1.45-4.27v4.27h-.64zM167.9 585.58v-5.01h1.89c.33 0 .59.02.76.05.25.04.45.12.62.23.17.12.3.28.4.48s.15.44.15.68c0 .43-.14.79-.41 1.08s-.76.44-1.47.44h-1.29v2.04h-.65zm.66-2.63h1.29c.43 0 .73-.08.91-.24.18-.16.27-.38.27-.67 0-.21-.05-.39-.16-.54a.786.786 0 0 0-.42-.3c-.11-.03-.32-.04-.62-.04h-1.28v1.79zM172.65 585.58v-.7h.7v.7c0 .26-.04.47-.14.62-.09.16-.24.28-.43.37l-.17-.26c.13-.06.23-.14.29-.25s.1-.27.1-.48h-.35zM174.51 585.58v-5.01h1.89c.33 0 .59.02.76.05.25.04.45.12.62.23.17.12.3.28.4.48s.15.44.15.68c0 .43-.14.79-.41 1.08s-.76.44-1.47.44h-1.29v2.04h-.65zm.66-2.63h1.29c.43 0 .73-.08.91-.24.18-.16.27-.38.27-.67 0-.21-.05-.39-.16-.54a.786.786 0 0 0-.42-.3c-.11-.03-.32-.04-.62-.04h-1.28v1.79zM179.19 585.58v-5.01h2.22c.45 0 .79.04 1.02.13s.42.25.56.48c.14.23.21.48.21.75 0 .36-.12.66-.35.9-.23.24-.59.4-1.07.46.18.08.31.17.4.25.19.18.38.4.55.67l.87 1.36h-.83l-.66-1.04c-.19-.3-.35-.53-.48-.69-.12-.16-.24-.27-.34-.34-.1-.06-.2-.11-.3-.13-.08-.02-.2-.02-.37-.02h-.77v2.22h-.66zm.66-2.8h1.43c.3 0 .54-.03.71-.09s.3-.16.39-.3.13-.29.13-.45c0-.24-.09-.43-.26-.58-.17-.15-.44-.23-.82-.23h-1.59v1.65zM184.32 585.58v-.7h.7v.7c0 .26-.04.47-.14.62-.09.16-.24.28-.43.37l-.17-.26c.13-.06.23-.14.29-.25s.1-.27.1-.48h-.35zM187.61 585.58l-1.94-5.01h.72l1.3 3.64c.1.29.19.57.26.82.08-.27.17-.55.27-.82l1.35-3.64h.68l-1.96 5.01h-.68zM190.96 585.58v-5.01h.66v5.01h-.66zM193.74 586.97h-1.36v-.51h.74v-5.38h-.74v-.51h1.36v6.4z"/></svg>