<svg id="Layer_1" xmlns="http://www.w3.org/2000/svg" viewBox="0 0 300 600"><style>.st0{fill:#006098}</style><path class="st0" d="M30.42 87.38h6.88v26.42h-6.88V87.38zM46.36 107.47c0 .96.41 1.67 1.04 2.15.59.44 1.44.67 2.33.67 1.22 0 2.96-.52 2.96-2.04 0-1.48-1.96-1.78-3.07-2.04-3.96-1-8.92-1.11-8.92-6.29 0-4.63 5-5.88 8.77-5.88 4.22 0 8.62 1.22 8.84 6.22H52.5c0-.81-.3-1.33-.81-1.67s-1.22-.48-2-.48c-1.04 0-2.7.11-2.7 1.44 0 1.81 4.22 2.15 7.1 2.78 3.89.78 4.88 3.59 4.88 5.18 0 5.14-4.88 6.85-9.21 6.85-4.55 0-9.21-1.52-9.4-6.88h6zM83.48 115.5c-1.52 4.22-3.77 4.74-8.03 4.74h-2.96v-5.11h2.18c1.44 0 2.52-.81 2.52-2.15 0-1.04-1.22-4-1.59-5.03L70.64 94.6h6.66l3.63 12.51H81l3.63-12.51h6.44l-7.59 20.9zM100.94 94.04c5.96 0 10.14 4.4 10.14 10.18s-4.18 10.14-10.14 10.14-10.1-4.37-10.1-10.14 4.14-10.18 10.1-10.18zm0 15.51c2.92 0 3.85-2.89 3.85-5.33s-.93-5.37-3.85-5.37-3.81 2.92-3.81 5.37c0 2.44.89 5.33 3.81 5.33zM132.8 113.8h-6.11v-2.63h-.07c-1.18 1.96-3.63 3.18-5.85 3.18-5.51 0-7.1-3.18-7.1-8.21V94.6h6.29v11.14c0 2.55 1.11 3.44 3.11 3.44 1.37 0 3.44-.89 3.44-4.29V94.6h6.29v19.2zM136.64 94.6h6.11v3.37h.07c.92-2.44 3.07-3.74 5.77-3.74.48 0 1 .04 1.48.15v5.74c-.81-.22-1.55-.37-2.4-.37-3.11 0-4.74 2.15-4.74 4.55v9.51h-6.29V94.6z"/><g><path class="st0" d="M30.38 124.38h6.29v26.42h-6.29v-26.42zM46.85 129.19h-6.29v-4.81h6.29v4.81zm-6.29 2.41h6.29v19.2h-6.29v-19.2zM52.02 135.67h-3.03v-4.07h3.03c0-5.51 1.92-7.22 7.29-7.22 1 0 2.04.07 3.03.11v4.44c-.59-.07-1.15-.11-1.7-.11-1.44 0-2.33.19-2.33 1.92v.85h3.77v4.07h-3.77v15.13h-6.29v-15.12zM68.93 142.74c.11 2.63 1.63 4.37 4.29 4.37 1.52 0 3-.7 3.59-2.11h5.88c-1.15 4.44-5.25 6.36-9.55 6.36-6.25 0-10.51-3.77-10.51-10.21 0-5.88 4.7-10.1 10.36-10.1 6.88 0 10.32 5.18 10.03 11.69H68.93zm7.81-3.52c-.11-2.15-1.63-3.92-3.74-3.92-2.22 0-3.7 1.59-4.07 3.92h7.81zM103.68 129.19h-6.29v-4.81h6.29v4.81zm-6.29 2.41h6.29v19.2h-6.29v-19.2zM107.49 131.6h6.1v2.63h.07c1.15-1.96 3.74-3.18 6.03-3.18 6.4 0 6.92 4.66 6.92 7.44v12.32h-6.29v-9.29c0-2.63.3-5.29-3.15-5.29-2.37 0-3.4 2-3.4 4.11v10.47h-6.29V131.6zM135.24 144.47c0 .96.41 1.67 1.04 2.15.59.44 1.44.67 2.33.67 1.22 0 2.96-.52 2.96-2.04 0-1.48-1.96-1.78-3.07-2.04-3.96-1-8.92-1.11-8.92-6.29 0-4.63 5-5.88 8.77-5.88 4.22 0 8.62 1.22 8.84 6.22h-5.81c0-.81-.3-1.33-.81-1.67-.52-.33-1.22-.48-2-.48-1.04 0-2.7.11-2.7 1.44 0 1.81 4.22 2.15 7.1 2.78 3.89.78 4.88 3.59 4.88 5.18 0 5.14-4.88 6.85-9.21 6.85-4.55 0-9.21-1.52-9.4-6.88h6zM169.54 150.8h-6.11v-2.63h-.07c-1.18 1.96-3.63 3.18-5.85 3.18-5.51 0-7.1-3.18-7.1-8.21V131.6h6.29v11.14c0 2.55 1.11 3.44 3.11 3.44 1.37 0 3.44-.89 3.44-4.29V131.6h6.29v19.2zM173.38 131.6h6.11v3.37h.07c.92-2.44 3.07-3.74 5.77-3.74.48 0 1 .04 1.48.15v5.74c-.81-.22-1.55-.37-2.4-.37-3.11 0-4.74 2.15-4.74 4.55v9.51h-6.29V131.6zM188.29 137.52c.11-2.52 1.29-4.14 3-5.14 1.7-.96 3.92-1.33 6.11-1.33 4.55 0 8.95 1 8.95 6.44v8.4c0 1.63 0 3.4.74 4.92h-6.33c-.22-.59-.3-1.18-.37-1.81-1.63 1.7-4.03 2.37-6.33 2.37-3.66 0-6.55-1.85-6.55-5.81 0-6.25 6.81-5.77 11.17-6.66 1.07-.22 1.67-.59 1.67-1.78 0-1.44-1.74-2-3.03-2-1.74 0-2.85.78-3.15 2.41h-5.88zm8.14 9.95c3 0 4-1.7 3.85-5.66-.89.56-2.52.67-3.88 1.04-1.41.33-2.59.93-2.59 2.44 0 1.55 1.22 2.18 2.62 2.18zM210.05 131.6h6.11v2.63h.07c1.15-1.96 3.74-3.18 6.03-3.18 6.4 0 6.92 4.66 6.92 7.44v12.32h-6.29v-9.29c0-2.63.3-5.29-3.15-5.29-2.37 0-3.4 2-3.4 4.11v10.47h-6.29V131.6zM245.35 138.63c-.04-1.63-1.48-2.78-3.07-2.78-3.52 0-4.07 3-4.07 5.66 0 2.48 1.07 5.03 3.74 5.03 2.18 0 3.29-1.26 3.59-3.29h6.11c-.55 5.14-4.55 8.1-9.66 8.1-5.77 0-10.07-3.96-10.07-9.84 0-6.11 3.89-10.47 10.07-10.47 4.77 0 9.03 2.52 9.47 7.59h-6.11zM259.55 142.74c.11 2.63 1.63 4.37 4.29 4.37 1.52 0 3-.7 3.59-2.11h5.88c-1.15 4.44-5.25 6.36-9.55 6.36-6.25 0-10.51-3.77-10.51-10.21 0-5.88 4.7-10.1 10.36-10.1 6.88 0 10.32 5.18 10.03 11.69h-14.09zm7.81-3.52c-.11-2.15-1.63-3.92-3.74-3.92-2.22 0-3.7 1.59-4.07 3.92h7.81z"/></g><g><path class="st0" d="M30.16 167.04h6.29v13.62l5.74-6.4h7.29l-7.03 7.25 7.92 11.95h-7.59l-4.7-7.73-1.63 1.59v6.14h-6.29v-26.42z"/><path class="st0" d="M55.98 185.4c.11 2.63 1.63 4.37 4.29 4.37 1.52 0 3-.7 3.59-2.11h5.88c-1.15 4.44-5.25 6.36-9.55 6.36-6.25 0-10.51-3.77-10.51-10.21 0-5.88 4.7-10.1 10.36-10.1 6.88 0 10.32 5.18 10.03 11.69H55.98zm7.81-3.52c-.11-2.15-1.63-3.92-3.74-3.92-2.22 0-3.7 1.59-4.07 3.92h7.81zM78.04 185.4c.11 2.63 1.63 4.37 4.29 4.37 1.52 0 3-.7 3.59-2.11h5.88c-1.15 4.44-5.25 6.36-9.55 6.36-6.25 0-10.51-3.77-10.51-10.21 0-5.88 4.7-10.1 10.36-10.1 6.88 0 10.32 5.18 10.03 11.69H78.04zm7.8-3.52c-.11-2.15-1.63-3.92-3.74-3.92-2.22 0-3.7 1.59-4.07 3.92h7.81zM94.76 174.26h5.99v2.22h.07c1.22-1.81 3.07-2.77 5.29-2.77 6.03 0 8.58 5.18 8.58 10.58 0 5-2.66 9.73-8.1 9.73-2.37 0-4.18-.89-5.48-2.63h-.07v8.51h-6.29v-25.64zm6.07 9.4c0 3.37.96 5.55 3.81 5.55 2.81 0 3.77-2.92 3.77-5.55 0-2.44-.96-5.14-3.74-5.14-1.7-.01-3.84 1.18-3.84 5.14zM124.06 171.85h-6.29v-4.81h6.29v4.81zm-6.29 2.41h6.29v19.2h-6.29v-19.2zM127.87 174.26h6.1v2.63h.07c1.15-1.96 3.74-3.18 6.03-3.18 6.4 0 6.92 4.66 6.92 7.44v12.32h-6.29v-9.29c0-2.63.3-5.29-3.15-5.29-2.37 0-3.4 2-3.4 4.11v10.47h-6.29v-19.21zM169.32 191.13c0 3.15-.59 9.07-9.58 9.07-4.48 0-8.7-1-9.44-6.14h6.29c.15.85.48 1.37 1.07 1.67.56.3 1.33.41 2.29.41 3 0 3.29-2.11 3.29-4.48v-1.81h-.07c-1.15 1.78-3.07 2.81-5.11 2.81-5.81 0-8.44-4.14-8.44-9.55 0-5.11 3-9.4 8.44-9.4 2.29 0 4.03 1 5.14 2.96h.07v-2.4h6.03v16.86zm-9.74-12.62c-2.78 0-3.66 2.44-3.66 4.81 0 2.26 1.04 4.51 3.63 4.51 2.66 0 3.81-2.07 3.81-4.48 0-2.43-.96-4.84-3.78-4.84zM203.43 193.46h-6.11v-2.63h-.07c-1.18 1.96-3.63 3.18-5.85 3.18-5.51 0-7.1-3.18-7.1-8.21v-11.54h6.29v11.14c0 2.55 1.11 3.44 3.11 3.44 1.37 0 3.44-.89 3.44-4.29v-10.29h6.29v19.2zM207.16 174.26h5.99v2.22h.07c1.22-1.81 3.07-2.77 5.29-2.77 6.03 0 8.58 5.18 8.58 10.58 0 5-2.66 9.73-8.1 9.73-2.37 0-4.18-.89-5.48-2.63h-.07v8.51h-6.29v-25.64zm6.07 9.4c0 3.37.96 5.55 3.81 5.55 2.81 0 3.77-2.92 3.77-5.55 0-2.44-.96-5.14-3.74-5.14-1.69-.01-3.84 1.18-3.84 5.14zM229.36 175.7c.07-5.85 3.92-9.21 9.69-9.21 4.62 0 9.25 2.44 9.25 7.55 0 3.59-1.74 4.88-4.55 6.66-1.92 1.26-2.41 1.81-2.44 4.03h-5.85v-1.85c0-2.89 1.63-4.14 3-5.14 1.52-1.04 2.96-1.81 2.96-3.66 0-1.41-1.07-2.26-2.41-2.26-2.04 0-3.07 1.22-3.18 3.18v.7h-6.47zm5.59 10.88h6.88v6.88h-6.88v-6.88z"/></g></svg>