<?xml version="1.0" encoding="utf-8"?>
<!-- Generator: Adobe Illustrator 24.2.3, SVG Export Plug-In . SVG Version: 6.00 Build 0)  -->
<svg version="1.1" id="Layer_1" xmlns="http://www.w3.org/2000/svg" xmlns:xlink="http://www.w3.org/1999/xlink" x="0px" y="0px"
	 viewBox="0 0 728 90" style="enable-background:new 0 0 728 90;" xml:space="preserve">
<g>
	<path d="M575.74,83.07v-4.29h0.57v3.79h2.12v0.51H575.74z"/>
	<path d="M578.89,80.95c0-0.51,0.05-0.92,0.16-1.23c0.1-0.31,0.26-0.55,0.46-0.72s0.47-0.25,0.78-0.25c0.23,0,0.43,0.05,0.61,0.14
		s0.32,0.23,0.43,0.4s0.2,0.39,0.27,0.64s0.1,0.59,0.1,1.02c0,0.5-0.05,0.91-0.16,1.22s-0.26,0.55-0.46,0.72s-0.47,0.25-0.78,0.25
		c-0.41,0-0.74-0.15-0.98-0.45C579.03,82.34,578.89,81.76,578.89,80.95z M579.43,80.95c0,0.71,0.08,1.17,0.25,1.41
		c0.16,0.23,0.37,0.35,0.61,0.35s0.45-0.12,0.61-0.35s0.25-0.7,0.25-1.41c0-0.71-0.08-1.18-0.25-1.41s-0.37-0.35-0.62-0.35
		c-0.24,0-0.44,0.1-0.58,0.31C579.52,79.76,579.43,80.25,579.43,80.95z"/>
	<path d="M583.04,80.74c-0.22-0.08-0.38-0.2-0.49-0.34s-0.16-0.33-0.16-0.53c0-0.31,0.11-0.57,0.34-0.79s0.52-0.32,0.9-0.32
		c0.38,0,0.68,0.11,0.91,0.33s0.34,0.48,0.34,0.8c0,0.2-0.05,0.37-0.16,0.52s-0.26,0.26-0.48,0.34c0.26,0.09,0.46,0.22,0.6,0.42
		c0.14,0.19,0.21,0.42,0.21,0.69c0,0.37-0.13,0.68-0.39,0.93s-0.6,0.38-1.03,0.38s-0.77-0.13-1.03-0.38s-0.39-0.56-0.39-0.94
		c0-0.28,0.07-0.51,0.21-0.7S582.77,80.81,583.04,80.74z M582.76,81.83c0,0.15,0.04,0.29,0.11,0.44c0.07,0.14,0.18,0.25,0.32,0.33
		s0.29,0.12,0.45,0.12c0.25,0,0.46-0.08,0.62-0.24s0.25-0.37,0.25-0.62c0-0.25-0.08-0.46-0.25-0.63c-0.17-0.17-0.38-0.25-0.63-0.25
		c-0.25,0-0.45,0.08-0.62,0.25S582.76,81.58,582.76,81.83z M582.93,79.85c0,0.2,0.07,0.37,0.2,0.5s0.3,0.19,0.51,0.19
		c0.2,0,0.37-0.06,0.5-0.19s0.2-0.29,0.2-0.47c0-0.19-0.07-0.36-0.2-0.49s-0.3-0.2-0.5-0.2c-0.2,0-0.37,0.06-0.5,0.19
		S582.93,79.67,582.93,79.85z"/>
	<path d="M588.33,82.56v0.51h-2.84c0-0.13,0.02-0.25,0.06-0.37c0.07-0.19,0.19-0.38,0.35-0.57s0.39-0.4,0.69-0.65
		c0.47-0.38,0.78-0.69,0.95-0.91s0.25-0.43,0.25-0.63c0-0.21-0.07-0.39-0.22-0.53c-0.15-0.14-0.34-0.21-0.58-0.21
		c-0.25,0-0.46,0.08-0.61,0.23s-0.23,0.36-0.23,0.63L585.59,80c0.04-0.4,0.18-0.71,0.42-0.92s0.57-0.32,0.98-0.32
		c0.41,0,0.74,0.12,0.98,0.34s0.36,0.51,0.36,0.85c0,0.17-0.04,0.34-0.11,0.51s-0.19,0.34-0.35,0.53s-0.43,0.44-0.81,0.76
		c-0.32,0.27-0.52,0.45-0.61,0.54s-0.16,0.19-0.22,0.29H588.33z"/>
	<path d="M588.9,80.95c0-0.51,0.05-0.92,0.16-1.23c0.1-0.31,0.26-0.55,0.46-0.72s0.47-0.25,0.78-0.25c0.23,0,0.43,0.05,0.61,0.14
		s0.32,0.23,0.43,0.4s0.2,0.39,0.27,0.64s0.1,0.59,0.1,1.02c0,0.5-0.05,0.91-0.16,1.22s-0.26,0.55-0.46,0.72s-0.47,0.25-0.78,0.25
		c-0.41,0-0.74-0.15-0.98-0.45C589.04,82.34,588.9,81.76,588.9,80.95z M589.44,80.95c0,0.71,0.08,1.17,0.25,1.41
		c0.16,0.23,0.37,0.35,0.61,0.35s0.45-0.12,0.61-0.35s0.25-0.7,0.25-1.41c0-0.71-0.08-1.18-0.25-1.41s-0.37-0.35-0.62-0.35
		c-0.24,0-0.44,0.1-0.58,0.31C589.53,79.76,589.44,80.25,589.44,80.95z"/>
	<path d="M592.24,80.95c0-0.51,0.05-0.92,0.16-1.23c0.1-0.31,0.26-0.55,0.46-0.72s0.47-0.25,0.78-0.25c0.23,0,0.43,0.05,0.61,0.14
		s0.32,0.23,0.43,0.4s0.2,0.39,0.27,0.64s0.1,0.59,0.1,1.02c0,0.5-0.05,0.91-0.16,1.22s-0.26,0.55-0.46,0.72s-0.47,0.25-0.78,0.25
		c-0.41,0-0.74-0.15-0.98-0.45C592.38,82.34,592.24,81.76,592.24,80.95z M592.78,80.95c0,0.71,0.08,1.17,0.25,1.41
		c0.16,0.23,0.37,0.35,0.61,0.35s0.45-0.12,0.61-0.35s0.25-0.7,0.25-1.41c0-0.71-0.08-1.18-0.25-1.41s-0.37-0.35-0.62-0.35
		c-0.24,0-0.44,0.1-0.58,0.31C592.87,79.76,592.78,80.25,592.78,80.95z"/>
	<path d="M595.57,80.95c0-0.51,0.05-0.92,0.16-1.23c0.1-0.31,0.26-0.55,0.46-0.72s0.47-0.25,0.78-0.25c0.23,0,0.43,0.05,0.61,0.14
		s0.32,0.23,0.43,0.4s0.2,0.39,0.27,0.64s0.1,0.59,0.1,1.02c0,0.5-0.05,0.91-0.16,1.22s-0.26,0.55-0.46,0.72s-0.47,0.25-0.78,0.25
		c-0.41,0-0.74-0.15-0.98-0.45C595.71,82.34,595.57,81.76,595.57,80.95z M596.11,80.95c0,0.71,0.08,1.17,0.25,1.41
		c0.16,0.23,0.37,0.35,0.61,0.35s0.45-0.12,0.61-0.35s0.25-0.7,0.25-1.41c0-0.71-0.08-1.18-0.25-1.41s-0.37-0.35-0.62-0.35
		c-0.24,0-0.44,0.1-0.58,0.31C596.21,79.76,596.11,80.25,596.11,80.95z"/>
	<path d="M598.94,79.34v-0.51h2.78v0.41c-0.27,0.29-0.54,0.68-0.81,1.16c-0.27,0.48-0.48,0.98-0.62,1.49
		c-0.11,0.36-0.17,0.75-0.2,1.18h-0.54c0.01-0.34,0.07-0.75,0.2-1.22s0.31-0.94,0.55-1.38c0.24-0.44,0.49-0.82,0.76-1.12H598.94z"/>
	<path d="M604.23,83.07h-0.53v-3.36c-0.13,0.12-0.29,0.24-0.5,0.36c-0.21,0.12-0.39,0.21-0.56,0.27v-0.51
		c0.29-0.14,0.55-0.31,0.77-0.5s0.38-0.39,0.47-0.57h0.34V83.07z"/>
	<path d="M605.58,81.94l0.55-0.05c0.04,0.27,0.14,0.47,0.29,0.61c0.15,0.14,0.33,0.2,0.54,0.2c0.25,0,0.47-0.1,0.64-0.29
		s0.26-0.45,0.26-0.76c0-0.3-0.08-0.54-0.25-0.71s-0.39-0.26-0.66-0.26c-0.17,0-0.32,0.04-0.46,0.12s-0.24,0.18-0.32,0.3l-0.5-0.06
		l0.42-2.21h2.14v0.5h-1.71l-0.23,1.15c0.26-0.18,0.53-0.27,0.81-0.27c0.38,0,0.69,0.13,0.95,0.39s0.39,0.59,0.39,1
		c0,0.39-0.11,0.72-0.34,1.01c-0.28,0.35-0.65,0.52-1.13,0.52c-0.39,0-0.71-0.11-0.96-0.33S605.62,82.3,605.58,81.94z"/>
	<path d="M608.96,79.34v-0.51h2.78v0.41c-0.27,0.29-0.54,0.68-0.81,1.16c-0.27,0.48-0.48,0.98-0.62,1.49
		c-0.11,0.36-0.17,0.75-0.2,1.18h-0.54c0.01-0.34,0.07-0.75,0.2-1.22s0.31-0.94,0.55-1.38c0.24-0.44,0.49-0.82,0.76-1.12H608.96z"/>
	<path d="M612.42,84.26v-5.49h1.16v0.44h-0.64v4.61h0.64v0.44H612.42z"/>
	<path d="M616.2,82.07l0.54,0.07c-0.09,0.32-0.25,0.56-0.48,0.74s-0.53,0.26-0.89,0.26c-0.46,0-0.82-0.14-1.08-0.42
		c-0.27-0.28-0.4-0.67-0.4-1.18c0-0.52,0.13-0.93,0.4-1.22s0.62-0.43,1.05-0.43c0.42,0,0.76,0.14,1.02,0.43s0.4,0.68,0.4,1.2
		c0,0.03,0,0.08,0,0.14h-2.32c0.02,0.34,0.12,0.6,0.29,0.79s0.39,0.27,0.65,0.27c0.19,0,0.36-0.05,0.5-0.15
		S616.12,82.29,616.2,82.07z M614.47,81.21h1.74c-0.02-0.26-0.09-0.46-0.2-0.59c-0.17-0.2-0.39-0.3-0.65-0.3
		c-0.24,0-0.45,0.08-0.61,0.24C614.58,80.73,614.49,80.94,614.47,81.21z"/>
	<path d="M617.06,83.07l1.14-1.62l-1.05-1.49h0.66l0.48,0.73c0.09,0.14,0.16,0.25,0.22,0.35c0.09-0.13,0.17-0.24,0.24-0.34
		l0.52-0.74h0.63l-1.08,1.46l1.16,1.65h-0.65l-0.64-0.97l-0.17-0.26l-0.82,1.23H617.06z"/>
	<path d="M620.41,84.26v-4.3h0.48v0.4c0.11-0.16,0.24-0.28,0.38-0.36s0.32-0.12,0.52-0.12c0.27,0,0.5,0.07,0.7,0.21
		s0.36,0.33,0.46,0.58s0.16,0.52,0.16,0.82c0,0.32-0.06,0.6-0.17,0.86c-0.12,0.25-0.28,0.45-0.5,0.59c-0.22,0.14-0.45,0.2-0.69,0.2
		c-0.18,0-0.33-0.04-0.47-0.11c-0.14-0.07-0.25-0.17-0.34-0.28v1.52H620.41z M620.88,81.53c0,0.4,0.08,0.7,0.24,0.89
		s0.36,0.29,0.59,0.29c0.23,0,0.44-0.1,0.6-0.3c0.17-0.2,0.25-0.51,0.25-0.92c0-0.4-0.08-0.69-0.25-0.89s-0.36-0.29-0.58-0.29
		c-0.22,0-0.42,0.1-0.6,0.31C620.97,80.83,620.88,81.13,620.88,81.53z"/>
	<path d="M623.6,80.95c0-0.51,0.05-0.92,0.16-1.23c0.1-0.31,0.26-0.55,0.46-0.72s0.47-0.25,0.78-0.25c0.23,0,0.43,0.05,0.61,0.14
		s0.32,0.23,0.43,0.4s0.2,0.39,0.27,0.64s0.1,0.59,0.1,1.02c0,0.5-0.05,0.91-0.16,1.22s-0.26,0.55-0.46,0.72s-0.47,0.25-0.78,0.25
		c-0.41,0-0.74-0.15-0.98-0.45C623.74,82.34,623.6,81.76,623.6,80.95z M624.14,80.95c0,0.71,0.08,1.17,0.25,1.41
		c0.16,0.23,0.37,0.35,0.61,0.35s0.45-0.12,0.61-0.35s0.25-0.7,0.25-1.41c0-0.71-0.08-1.18-0.25-1.41s-0.37-0.35-0.62-0.35
		c-0.24,0-0.44,0.1-0.58,0.31C624.23,79.76,624.14,80.25,624.14,80.95z"/>
	<path d="M627.75,80.74c-0.22-0.08-0.38-0.2-0.49-0.34s-0.16-0.33-0.16-0.53c0-0.31,0.11-0.57,0.34-0.79s0.52-0.32,0.9-0.32
		c0.38,0,0.68,0.11,0.91,0.33s0.34,0.48,0.34,0.8c0,0.2-0.05,0.37-0.16,0.52s-0.26,0.26-0.48,0.34c0.26,0.09,0.46,0.22,0.6,0.42
		c0.14,0.19,0.21,0.42,0.21,0.69c0,0.37-0.13,0.68-0.39,0.93s-0.6,0.38-1.03,0.38s-0.77-0.13-1.03-0.38s-0.39-0.56-0.39-0.94
		c0-0.28,0.07-0.51,0.21-0.7S627.48,80.81,627.75,80.74z M627.47,81.83c0,0.15,0.04,0.29,0.11,0.44c0.07,0.14,0.18,0.25,0.32,0.33
		s0.29,0.12,0.45,0.12c0.25,0,0.46-0.08,0.62-0.24s0.25-0.37,0.25-0.62c0-0.25-0.08-0.46-0.25-0.63c-0.17-0.17-0.38-0.25-0.63-0.25
		c-0.25,0-0.45,0.08-0.62,0.25S627.47,81.58,627.47,81.83z M627.64,79.85c0,0.2,0.07,0.37,0.2,0.5s0.3,0.19,0.51,0.19
		c0.2,0,0.37-0.06,0.5-0.19s0.2-0.29,0.2-0.47c0-0.19-0.07-0.36-0.2-0.49s-0.3-0.2-0.5-0.2c-0.2,0-0.37,0.06-0.5,0.19
		S627.64,79.67,627.64,79.85z"/>
	<path d="M633.04,82.56v0.51h-2.84c0-0.13,0.02-0.25,0.06-0.37c0.07-0.19,0.19-0.38,0.35-0.57s0.39-0.4,0.69-0.65
		c0.47-0.38,0.78-0.69,0.95-0.91s0.25-0.43,0.25-0.63c0-0.21-0.07-0.39-0.22-0.53c-0.15-0.14-0.34-0.21-0.58-0.21
		c-0.25,0-0.46,0.08-0.61,0.23s-0.23,0.36-0.23,0.63L630.3,80c0.04-0.4,0.18-0.71,0.42-0.92s0.57-0.32,0.98-0.32
		c0.41,0,0.74,0.12,0.98,0.34s0.36,0.51,0.36,0.85c0,0.17-0.04,0.34-0.11,0.51s-0.19,0.34-0.35,0.53s-0.43,0.44-0.81,0.76
		c-0.32,0.27-0.52,0.45-0.61,0.54s-0.16,0.19-0.22,0.29H633.04z"/>
	<path d="M635.59,83.07h-0.53v-3.36c-0.13,0.12-0.29,0.24-0.5,0.36c-0.21,0.12-0.39,0.21-0.56,0.27v-0.51
		c0.29-0.14,0.55-0.31,0.77-0.5s0.38-0.39,0.47-0.57h0.34V83.07z"/>
	<path d="M637.97,84.26h-1.16v-0.44h0.64v-4.61h-0.64v-0.44h1.16V84.26z"/>
	<path d="M638.77,84.26v-5.49h1.16v0.44h-0.64v4.61h0.64v0.44H638.77z"/>
	<path d="M640.02,83.07l1.65-4.29h0.61l1.76,4.29h-0.65l-0.5-1.3h-1.8l-0.47,1.3H640.02z M641.26,81.3h1.46l-0.45-1.19
		c-0.14-0.36-0.24-0.66-0.3-0.89c-0.05,0.28-0.13,0.55-0.23,0.82L641.26,81.3z"/>
	<path d="M644.42,83.07v-4.29h0.53v4.29H644.42z"/>
	<path d="M645.75,83.07v-4.29h0.53v4.29H645.75z"/>
	<path d="M648.63,81.69l0.54-0.05c0.03,0.21,0.08,0.39,0.18,0.53s0.24,0.25,0.43,0.33s0.42,0.13,0.66,0.13
		c0.22,0,0.41-0.03,0.57-0.1s0.29-0.15,0.37-0.26c0.08-0.11,0.12-0.24,0.12-0.37c0-0.13-0.04-0.25-0.12-0.35s-0.21-0.18-0.39-0.25
		c-0.12-0.04-0.37-0.12-0.76-0.21s-0.67-0.18-0.83-0.27c-0.21-0.11-0.36-0.24-0.46-0.4s-0.15-0.34-0.15-0.53
		c0-0.22,0.06-0.42,0.18-0.61s0.3-0.33,0.54-0.43s0.5-0.15,0.79-0.15c0.32,0,0.6,0.05,0.84,0.15c0.24,0.1,0.43,0.25,0.56,0.45
		s0.2,0.43,0.21,0.68l-0.54,0.04c-0.03-0.27-0.13-0.48-0.3-0.62s-0.42-0.21-0.75-0.21c-0.34,0-0.59,0.06-0.75,0.19
		s-0.24,0.28-0.24,0.46c0,0.15,0.06,0.28,0.17,0.38c0.11,0.1,0.39,0.2,0.86,0.31c0.46,0.1,0.78,0.2,0.95,0.27
		c0.25,0.12,0.43,0.26,0.55,0.44s0.18,0.38,0.18,0.61c0,0.23-0.07,0.44-0.2,0.65s-0.32,0.36-0.56,0.47s-0.52,0.17-0.83,0.17
		c-0.39,0-0.71-0.06-0.98-0.17s-0.47-0.28-0.62-0.51C648.72,82.23,648.64,81.98,648.63,81.69z"/>
	<path d="M653.91,82.6l0.08,0.46c-0.15,0.03-0.28,0.05-0.4,0.05c-0.19,0-0.34-0.03-0.45-0.09s-0.18-0.14-0.22-0.24
		s-0.06-0.31-0.06-0.62v-1.79h-0.39v-0.41h0.39v-0.77l0.52-0.32v1.09h0.53v0.41h-0.53v1.82c0,0.15,0.01,0.25,0.03,0.29
		c0.02,0.04,0.05,0.08,0.09,0.1s0.1,0.04,0.18,0.04C653.74,82.62,653.82,82.61,653.91,82.6z"/>
	<path d="M656.46,82.69c-0.2,0.17-0.38,0.28-0.56,0.35s-0.37,0.1-0.58,0.1c-0.34,0-0.6-0.08-0.79-0.25s-0.28-0.38-0.28-0.64
		c0-0.15,0.03-0.29,0.1-0.42s0.16-0.23,0.27-0.3c0.11-0.08,0.24-0.13,0.38-0.17c0.1-0.03,0.26-0.05,0.47-0.08
		c0.43-0.05,0.74-0.11,0.94-0.18c0-0.07,0-0.12,0-0.14c0-0.21-0.05-0.37-0.15-0.46c-0.13-0.12-0.33-0.18-0.6-0.18
		c-0.25,0-0.43,0.04-0.55,0.13c-0.12,0.09-0.21,0.24-0.26,0.46l-0.52-0.07c0.05-0.22,0.12-0.4,0.23-0.54s0.26-0.24,0.47-0.31
		s0.44-0.11,0.71-0.11c0.27,0,0.48,0.03,0.65,0.09s0.29,0.14,0.37,0.24s0.13,0.21,0.16,0.36c0.02,0.09,0.03,0.25,0.03,0.49v0.7
		c0,0.49,0.01,0.8,0.03,0.93c0.02,0.13,0.07,0.25,0.13,0.37h-0.55C656.51,82.96,656.48,82.83,656.46,82.69z M656.42,81.51
		c-0.19,0.08-0.48,0.14-0.86,0.2c-0.22,0.03-0.37,0.07-0.46,0.11s-0.16,0.1-0.21,0.17s-0.07,0.16-0.07,0.25
		c0,0.14,0.05,0.26,0.16,0.35c0.11,0.09,0.26,0.14,0.47,0.14c0.2,0,0.38-0.04,0.54-0.13s0.27-0.21,0.35-0.36
		c0.06-0.12,0.08-0.29,0.08-0.53V81.51z"/>
	<path d="M658.92,82.6l0.08,0.46c-0.15,0.03-0.28,0.05-0.4,0.05c-0.19,0-0.34-0.03-0.45-0.09s-0.18-0.14-0.22-0.24
		s-0.06-0.31-0.06-0.62v-1.79h-0.39v-0.41h0.39v-0.77l0.52-0.32v1.09h0.53v0.41h-0.53v1.82c0,0.15,0.01,0.25,0.03,0.29
		c0.02,0.04,0.05,0.08,0.09,0.1s0.1,0.04,0.18,0.04C658.75,82.62,658.82,82.61,658.92,82.6z"/>
	<path d="M661.56,82.07l0.54,0.07c-0.09,0.32-0.25,0.56-0.48,0.74s-0.53,0.26-0.89,0.26c-0.46,0-0.82-0.14-1.08-0.42
		c-0.27-0.28-0.4-0.67-0.4-1.18c0-0.52,0.13-0.93,0.4-1.22s0.62-0.43,1.05-0.43c0.42,0,0.76,0.14,1.02,0.43s0.4,0.68,0.4,1.2
		c0,0.03,0,0.08,0,0.14h-2.32c0.02,0.34,0.12,0.6,0.29,0.79s0.39,0.27,0.65,0.27c0.19,0,0.36-0.05,0.5-0.15
		S661.48,82.29,661.56,82.07z M659.83,81.21h1.74c-0.02-0.26-0.09-0.46-0.2-0.59c-0.17-0.2-0.39-0.3-0.65-0.3
		c-0.24,0-0.45,0.08-0.61,0.24C659.94,80.73,659.85,80.94,659.83,81.21z"/>
	<path d="M662.56,82.14l0.52-0.08c0.03,0.21,0.11,0.37,0.25,0.48c0.13,0.11,0.32,0.17,0.56,0.17c0.24,0,0.42-0.05,0.54-0.15
		s0.18-0.21,0.18-0.35c0-0.12-0.05-0.21-0.16-0.28c-0.07-0.05-0.25-0.11-0.54-0.18c-0.39-0.1-0.66-0.18-0.8-0.25
		c-0.15-0.07-0.26-0.17-0.34-0.3c-0.08-0.13-0.12-0.27-0.12-0.42c0-0.14,0.03-0.27,0.09-0.38s0.15-0.22,0.26-0.29
		c0.08-0.06,0.19-0.11,0.34-0.15c0.14-0.04,0.29-0.06,0.46-0.06c0.24,0,0.46,0.04,0.64,0.11c0.19,0.07,0.32,0.17,0.41,0.29
		s0.15,0.28,0.18,0.48l-0.52,0.07c-0.02-0.16-0.09-0.29-0.2-0.38s-0.27-0.13-0.48-0.13c-0.24,0-0.42,0.04-0.52,0.12
		s-0.16,0.17-0.16,0.28c0,0.07,0.02,0.13,0.06,0.18c0.04,0.06,0.11,0.1,0.2,0.14c0.05,0.02,0.21,0.06,0.47,0.13
		c0.37,0.1,0.63,0.18,0.78,0.25s0.26,0.16,0.35,0.28s0.13,0.27,0.13,0.45c0,0.18-0.05,0.34-0.15,0.5c-0.1,0.16-0.25,0.28-0.44,0.36
		s-0.41,0.13-0.66,0.13c-0.4,0-0.71-0.08-0.92-0.25S662.62,82.47,662.56,82.14z"/>
	<path d="M666.65,84.26h-1.16v-0.44h0.64v-4.61h-0.64v-0.44h1.16V84.26z"/>
	<path d="M667.45,84.26v-5.49h1.16v0.44h-0.64v4.61h0.64v0.44H667.45z"/>
	<path d="M669.17,83.07v-4.29h1.48c0.33,0,0.59,0.02,0.76,0.06c0.25,0.06,0.46,0.16,0.63,0.31c0.23,0.19,0.4,0.44,0.51,0.73
		c0.11,0.3,0.17,0.64,0.17,1.02c0,0.33-0.04,0.62-0.11,0.87s-0.17,0.46-0.29,0.62s-0.25,0.29-0.39,0.39s-0.31,0.17-0.51,0.22
		c-0.2,0.05-0.43,0.07-0.69,0.07H669.17z M669.74,82.56h0.92c0.28,0,0.5-0.03,0.67-0.08c0.16-0.05,0.29-0.13,0.38-0.22
		c0.13-0.13,0.24-0.32,0.31-0.54s0.11-0.5,0.11-0.83c0-0.45-0.07-0.79-0.22-1.04c-0.15-0.24-0.33-0.4-0.54-0.48
		c-0.15-0.06-0.4-0.09-0.74-0.09h-0.9V82.56z"/>
	<path d="M676.57,81.56l0.57,0.14c-0.12,0.47-0.33,0.82-0.64,1.07c-0.31,0.25-0.69,0.37-1.14,0.37c-0.46,0-0.84-0.09-1.13-0.28
		c-0.29-0.19-0.51-0.46-0.66-0.82s-0.23-0.74-0.23-1.15c0-0.45,0.08-0.84,0.26-1.17s0.41-0.59,0.73-0.76
		c0.31-0.17,0.66-0.26,1.04-0.26c0.43,0,0.79,0.11,1.08,0.33s0.5,0.53,0.61,0.92l-0.56,0.13c-0.1-0.31-0.24-0.54-0.43-0.68
		s-0.43-0.21-0.71-0.21c-0.33,0-0.61,0.08-0.83,0.24s-0.38,0.37-0.47,0.64s-0.13,0.54-0.13,0.83c0,0.37,0.05,0.68,0.16,0.96
		c0.11,0.27,0.27,0.48,0.5,0.61s0.47,0.2,0.73,0.2c0.32,0,0.59-0.09,0.81-0.28S676.49,81.92,676.57,81.56z"/>
	<path d="M677.91,83.07v-0.6h0.6v0.6c0,0.22-0.04,0.4-0.12,0.54s-0.2,0.24-0.37,0.31l-0.15-0.22c0.11-0.05,0.19-0.12,0.25-0.22
		s0.08-0.23,0.09-0.41H677.91z"/>
	<path d="M681.51,81.38v-0.5l1.82,0v1.59c-0.28,0.22-0.57,0.39-0.86,0.5s-0.6,0.17-0.91,0.17c-0.42,0-0.81-0.09-1.15-0.27
		s-0.6-0.44-0.78-0.78s-0.26-0.72-0.26-1.15c0-0.42,0.09-0.81,0.26-1.17c0.17-0.36,0.43-0.63,0.75-0.81s0.71-0.26,1.13-0.26
		c0.31,0,0.59,0.05,0.84,0.15c0.25,0.1,0.45,0.24,0.59,0.42s0.25,0.41,0.33,0.7l-0.51,0.14c-0.06-0.22-0.14-0.39-0.24-0.52
		s-0.23-0.22-0.41-0.3s-0.38-0.11-0.59-0.11c-0.26,0-0.48,0.04-0.67,0.12s-0.34,0.18-0.46,0.31s-0.21,0.27-0.27,0.43
		c-0.11,0.27-0.16,0.55-0.16,0.86c0,0.38,0.07,0.7,0.2,0.96c0.13,0.26,0.32,0.45,0.58,0.57s0.52,0.19,0.8,0.19
		c0.25,0,0.49-0.05,0.72-0.14s0.41-0.2,0.53-0.3v-0.8H681.51z"/>
	<path d="M686.99,78.77h0.57v2.48c0,0.43-0.05,0.77-0.15,1.03s-0.27,0.46-0.53,0.62c-0.25,0.16-0.59,0.24-1,0.24
		c-0.4,0-0.73-0.07-0.99-0.21s-0.44-0.34-0.55-0.6s-0.16-0.62-0.16-1.08v-2.48h0.57v2.48c0,0.37,0.03,0.65,0.1,0.83
		c0.07,0.18,0.19,0.31,0.36,0.41c0.17,0.1,0.38,0.14,0.62,0.14c0.42,0,0.72-0.09,0.89-0.28s0.27-0.55,0.27-1.09V78.77z"/>
	<path d="M688.58,83.07v-0.6h0.6v0.6c0,0.22-0.04,0.4-0.12,0.54s-0.2,0.24-0.37,0.31l-0.15-0.22c0.11-0.05,0.19-0.12,0.25-0.22
		s0.08-0.23,0.09-0.41H688.58z"/>
	<path d="M690.15,83.07v-4.29h0.86l1.02,3.04c0.09,0.28,0.16,0.5,0.21,0.64c0.05-0.16,0.12-0.39,0.23-0.69l1.03-2.99h0.76v4.29
		h-0.55v-3.59l-1.25,3.59h-0.51l-1.24-3.66v3.66H690.15z"/>
	<path d="M695.17,83.07v-4.29h1.62c0.29,0,0.5,0.01,0.65,0.04c0.21,0.04,0.39,0.1,0.53,0.2s0.26,0.24,0.34,0.41
		c0.09,0.18,0.13,0.37,0.13,0.59c0,0.37-0.12,0.67-0.35,0.93s-0.65,0.38-1.26,0.38h-1.1v1.75H695.17z M695.74,80.82h1.11
		c0.37,0,0.63-0.07,0.78-0.21s0.23-0.33,0.23-0.58c0-0.18-0.05-0.33-0.14-0.46c-0.09-0.13-0.21-0.21-0.36-0.25
		c-0.1-0.03-0.27-0.04-0.53-0.04h-1.1V80.82z"/>
	<path d="M698.47,83.07v-0.6h0.6v0.6c0,0.22-0.04,0.4-0.12,0.54s-0.2,0.24-0.37,0.31l-0.15-0.22c0.11-0.05,0.19-0.12,0.25-0.22
		s0.08-0.23,0.09-0.41H698.47z"/>
	<path d="M700.07,83.07v-4.29h1.62c0.29,0,0.5,0.01,0.65,0.04c0.21,0.04,0.39,0.1,0.53,0.2s0.26,0.24,0.34,0.41
		c0.09,0.18,0.13,0.37,0.13,0.59c0,0.37-0.12,0.67-0.35,0.93s-0.65,0.38-1.26,0.38h-1.1v1.75H700.07z M700.63,80.82h1.11
		c0.37,0,0.63-0.07,0.78-0.21s0.23-0.33,0.23-0.58c0-0.18-0.05-0.33-0.14-0.46c-0.09-0.13-0.21-0.21-0.36-0.25
		c-0.1-0.03-0.27-0.04-0.53-0.04h-1.1V80.82z"/>
	<path d="M704.08,83.07v-4.29h1.9c0.38,0,0.67,0.04,0.87,0.12s0.36,0.21,0.48,0.41s0.18,0.41,0.18,0.65c0,0.3-0.1,0.56-0.3,0.77
		s-0.5,0.34-0.91,0.4c0.15,0.07,0.26,0.14,0.34,0.21c0.17,0.15,0.32,0.34,0.47,0.57l0.75,1.17h-0.71l-0.57-0.89
		c-0.17-0.26-0.3-0.46-0.41-0.59s-0.2-0.23-0.29-0.29c-0.09-0.05-0.17-0.09-0.26-0.12c-0.06-0.01-0.17-0.02-0.32-0.02h-0.66v1.91
		H704.08z M704.64,80.67h1.22c0.26,0,0.46-0.03,0.61-0.08s0.26-0.14,0.33-0.26s0.11-0.25,0.11-0.39c0-0.2-0.07-0.37-0.22-0.5
		s-0.38-0.2-0.7-0.2h-1.36V80.67z"/>
	<path d="M708.47,83.07v-0.6h0.6v0.6c0,0.22-0.04,0.4-0.12,0.54s-0.2,0.24-0.37,0.31l-0.15-0.22c0.11-0.05,0.19-0.12,0.25-0.22
		s0.08-0.23,0.09-0.41H708.47z"/>
	<path d="M711.29,83.07l-1.66-4.29h0.62l1.12,3.12c0.09,0.25,0.17,0.48,0.23,0.7c0.07-0.23,0.14-0.47,0.23-0.7l1.16-3.12h0.58
		l-1.68,4.29H711.29z"/>
	<path d="M714.17,83.07v-4.29h0.57v4.29H714.17z"/>
	<path d="M716.55,84.26h-1.16v-0.44h0.64v-4.61h-0.64v-0.44h1.16V84.26z"/>
</g>
</svg>
