<?xml version="1.0" encoding="utf-8"?>
<!-- Generator: Adobe Illustrator 24.2.3, SVG Export Plug-In . SVG Version: 6.00 Build 0)  -->
<svg version="1.1" id="Layer_1" xmlns="http://www.w3.org/2000/svg" xmlns:xlink="http://www.w3.org/1999/xlink" x="0px" y="0px"
	 viewBox="0 0 300 250" style="enable-background:new 0 0 300 250;" xml:space="preserve">
<style type="text/css">
	.st0{fill:#FFFFFF;}
</style>
<g>
	<path class="st0" d="M25.54,47.91h2.95v30.96h-2.95V47.91z"/>
	<path class="st0" d="M37.59,56.5h4.55v2.3h-4.55v15.09c0,1.78,0.26,2.82,2.21,2.95c0.78,0,1.56-0.04,2.34-0.13v2.34
		c-0.82,0-1.6,0.09-2.43,0.09c-3.64,0-4.9-1.21-4.86-5.03V58.8h-3.9v-2.3h3.9v-6.72h2.73V56.5z"/>
	<path class="st0" d="M50.43,47.91v4.64c-0.04,2.52-1.21,5.16-3.86,5.9v-1.86c1.47-0.52,2.12-2.65,2.04-4.08h-1.82v-4.6H50.43z"/>
	<path class="st0" d="M66.91,63.05c-0.13-3.38-2.73-4.9-5.85-4.9c-2.43,0-5.29,0.95-5.29,3.86c0,2.43,2.78,3.3,4.64,3.77l3.64,0.82
		c3.12,0.48,6.38,2.3,6.38,6.2c0,4.86-4.81,6.72-8.98,6.72c-5.2,0-8.76-2.43-9.19-7.89h2.73c0.22,3.69,2.95,5.59,6.59,5.59
		c2.56,0,6.11-1.13,6.11-4.25c0-2.6-2.43-3.47-4.9-4.08l-3.51-0.78c-3.56-0.95-6.24-2.17-6.24-5.98c0-4.55,4.47-6.29,8.41-6.29
		c4.47,0,8.02,2.34,8.2,7.2H66.91z"/>
	<path class="st0" d="M89.97,56.5h4.55v2.3h-4.55v15.09c0,1.78,0.26,2.82,2.21,2.95c0.78,0,1.56-0.04,2.34-0.13v2.34
		c-0.82,0-1.6,0.09-2.43,0.09c-3.64,0-4.9-1.21-4.86-5.03V58.8h-3.9v-2.3h3.9v-6.72h2.73V56.5z"/>
	<path class="st0" d="M97.17,47.91h2.73v4.38h-2.73V47.91z M97.17,56.5h2.73v22.38h-2.73V56.5z"/>
	<path class="st0" d="M104.24,56.5h2.52v3.77h0.13c1.43-2.69,3.77-4.42,7.33-4.42c2.95,0,5.59,1.43,6.42,4.38
		c1.34-2.95,4.16-4.38,7.11-4.38c4.9,0,7.42,2.56,7.42,7.85v15.18h-2.73V63.83c0-3.69-1.39-5.68-5.29-5.68
		c-4.73,0-6.07,3.9-6.07,8.07v12.66h-2.73V63.7c0.04-3.04-1.21-5.55-4.68-5.55c-4.73,0-6.63,3.56-6.68,8.24v12.49h-2.73V56.5z"/>
	<path class="st0" d="M141.18,68.42c0.04,3.99,2.12,8.8,7.37,8.8c3.99,0,6.16-2.34,7.03-5.72h2.73c-1.17,5.07-4.12,8.02-9.76,8.02
		c-7.11,0-10.1-5.46-10.1-11.84c0-5.9,2.99-11.84,10.1-11.84c7.2,0,10.06,6.29,9.84,12.58H141.18z M155.66,66.13
		c-0.13-4.12-2.69-7.98-7.11-7.98c-4.47,0-6.94,3.9-7.37,7.98H155.66z"/>
	<path class="st0" d="M181.98,58.8h-4.42v20.08h-2.73V58.8h-3.82v-2.3h3.82v-2.04c-0.04-3.86,1.04-6.55,5.42-6.55
		c0.78,0,1.43,0.04,2.3,0.17v2.34c-0.74-0.13-1.34-0.22-1.99-0.22c-3.04,0-2.95,1.91-2.99,4.34v1.95h4.42V58.8z"/>
	<path class="st0" d="M203.19,67.69c0,6.42-3.73,11.84-10.58,11.84s-10.58-5.42-10.58-11.84c0-6.42,3.73-11.84,10.58-11.84
		S203.19,61.27,203.19,67.69z M184.75,67.69c0,4.77,2.6,9.54,7.85,9.54s7.85-4.77,7.85-9.54c0-4.77-2.6-9.54-7.85-9.54
		S184.75,62.92,184.75,67.69z"/>
	<path class="st0" d="M206.43,56.5h2.52v5.25h0.09c1.39-3.6,4.42-5.72,8.46-5.55v2.73c-4.94-0.26-8.33,3.38-8.33,8.02v11.93h-2.73
		V56.5z"/>
	<path class="st0" d="M231.06,63.35c0.26-5.25,3.95-7.5,9.06-7.5c3.95,0,8.24,1.21,8.24,7.2v11.88c0,1.04,0.52,1.65,1.6,1.65
		c0.3,0,0.65-0.09,0.87-0.17v2.3c-0.61,0.13-1.04,0.17-1.78,0.17c-2.78,0-3.21-1.56-3.21-3.9h-0.09c-1.91,2.91-3.86,4.55-8.15,4.55
		c-4.12,0-7.5-2.04-7.5-6.55c0-6.29,6.11-6.5,12.01-7.2c2.25-0.26,3.51-0.56,3.51-3.04c0-3.69-2.64-4.6-5.85-4.6
		c-3.38,0-5.9,1.56-5.98,5.2H231.06z M245.63,66.65h-0.09c-0.35,0.65-1.56,0.87-2.3,1c-4.64,0.82-10.41,0.78-10.41,5.16
		c0,2.73,2.43,4.42,4.99,4.42c4.16,0,7.85-2.65,7.81-7.02V66.65z"/>
</g>
<g>
	<path class="st0" d="M24.85,92.62h2.73v30.96h-2.73V92.62z"/>
	<path class="st0" d="M33.65,113.13c0.04,3.99,2.12,8.8,7.37,8.8c3.99,0,6.16-2.34,7.03-5.72h2.73c-1.17,5.07-4.12,8.02-9.76,8.02
		c-7.11,0-10.1-5.46-10.1-11.84c0-5.9,2.99-11.84,10.1-11.84c7.2,0,10.06,6.29,9.84,12.58H33.65z M48.13,110.83
		c-0.13-4.12-2.69-7.98-7.11-7.98c-4.47,0-6.94,3.9-7.37,7.98H48.13z"/>
	<path class="st0" d="M50.73,101.2h3.04l7.03,19.64h0.09l6.94-19.64h2.82l-8.37,22.38h-2.91L50.73,101.2z"/>
	<path class="st0" d="M73.41,113.13c0.04,3.99,2.12,8.8,7.37,8.8c3.99,0,6.16-2.34,7.03-5.72h2.73c-1.17,5.07-4.12,8.02-9.76,8.02
		c-7.11,0-10.1-5.46-10.1-11.84c0-5.9,2.99-11.84,10.1-11.84c7.2,0,10.06,6.29,9.84,12.58H73.41z M87.89,110.83
		c-0.13-4.12-2.69-7.98-7.11-7.98c-4.47,0-6.94,3.9-7.37,7.98H87.89z"/>
	<path class="st0" d="M93.75,92.62h2.73v30.96h-2.73V92.62z"/>
	<path class="st0" d="M126.35,107.75c-0.13-3.38-2.73-4.9-5.85-4.9c-2.43,0-5.29,0.95-5.29,3.86c0,2.43,2.78,3.3,4.64,3.77
		l3.64,0.82c3.12,0.48,6.38,2.3,6.38,6.2c0,4.86-4.81,6.72-8.98,6.72c-5.2,0-8.76-2.43-9.19-7.89h2.73
		c0.22,3.69,2.95,5.59,6.59,5.59c2.56,0,6.11-1.13,6.11-4.25c0-2.6-2.43-3.47-4.9-4.08l-3.51-0.78c-3.56-0.95-6.24-2.17-6.24-5.98
		c0-4.55,4.47-6.29,8.41-6.29c4.47,0,8.02,2.34,8.2,7.2H126.35z"/>
	<path class="st0" d="M134.5,113.13c0.04,3.99,2.12,8.8,7.37,8.8c3.99,0,6.16-2.34,7.03-5.72h2.73c-1.17,5.07-4.12,8.02-9.76,8.02
		c-7.11,0-10.1-5.46-10.1-11.84c0-5.9,2.99-11.84,10.1-11.84c7.2,0,10.06,6.29,9.84,12.58H134.5z M148.99,110.83
		c-0.13-4.12-2.69-7.98-7.11-7.98c-4.47,0-6.94,3.9-7.37,7.98H148.99z"/>
	<path class="st0" d="M158.48,101.2h4.55v2.3h-4.55v15.09c0,1.78,0.26,2.82,2.21,2.95c0.78,0,1.56-0.04,2.34-0.13v2.34
		c-0.82,0-1.6,0.09-2.43,0.09c-3.64,0-4.9-1.21-4.86-5.03V103.5h-3.9v-2.3h3.9v-6.72h2.73V101.2z"/>
	<path class="st0" d="M166.63,123.58v-4.6h3.64v4.6H166.63z"/>
</g>
</svg>
