<?xml version="1.0" encoding="utf-8"?>
<!-- Generator: Adobe Illustrator 24.2.3, SVG Export Plug-In . SVG Version: 6.00 Build 0)  -->
<svg version="1.1" id="Layer_1" xmlns="http://www.w3.org/2000/svg" xmlns:xlink="http://www.w3.org/1999/xlink" x="0px" y="0px"
	 viewBox="0 0 160 600" style="enable-background:new 0 0 160 600;" xml:space="preserve">
<style type="text/css">
	.st0{clip-path:url(#SVGID_2_);}
	.st1{clip-path:url(#SVGID_2_);fill:#A4CE4E;}
	.st2{clip-path:url(#SVGID_2_);fill:#0090DA;}
	.st3{clip-path:url(#SVGID_2_);fill:#0061A0;}
</style>
<g>
	<defs>
		<rect id="SVGID_1_" x="68.88" y="552.67" width="87.12" height="20.75"/>
	</defs>
	<clipPath id="SVGID_2_">
		<use xlink:href="#SVGID_1_"  style="overflow:visible;"/>
	</clipPath>
	<path class="st0" d="M132.28,558.77c-0.64,0-1.17-0.53-1.17-1.17c0-0.64,0.53-1.17,1.17-1.17c0.66,0,1.17,0.51,1.17,1.17
		C133.45,558.24,132.92,558.77,132.28,558.77 M99.23,566.31h2.08l0.25-6.25l2.11,3.71h1.13l1.99-3.75l0.27,6.29h2.18l-0.45-9.62
		h-2.08l-2.45,4.52l-2.51-4.52h-2.06L99.23,566.31z M115.96,564.26c-0.15,0.11-0.4,0.25-0.74,0.41c-0.34,0.16-0.78,0.24-1.31,0.24
		c-0.55,0-0.98-0.14-1.29-0.41c-0.31-0.27-0.47-0.59-0.48-0.96h4.82v-0.35c0-0.57-0.07-1.09-0.22-1.57
		c-0.14-0.48-0.36-0.89-0.64-1.23c-0.28-0.34-0.63-0.61-1.05-0.8c-0.41-0.19-0.89-0.29-1.44-0.29c-0.55,0-1.04,0.1-1.47,0.3
		c-0.43,0.2-0.8,0.46-1.1,0.79c-0.3,0.33-0.53,0.71-0.68,1.15c-0.16,0.44-0.24,0.89-0.24,1.36c0,0.54,0.08,1.03,0.25,1.48
		c0.17,0.45,0.41,0.83,0.74,1.15c0.32,0.32,0.71,0.57,1.18,0.74c0.46,0.18,0.98,0.27,1.56,0.27c0.43,0,0.82-0.04,1.16-0.12
		c0.34-0.08,0.63-0.18,0.87-0.28c0.25-0.11,0.44-0.21,0.6-0.33c0.15-0.11,0.27-0.19,0.35-0.24L115.96,564.26z M112.13,562.21
		c0-0.14,0.03-0.29,0.09-0.44c0.06-0.15,0.15-0.29,0.27-0.41c0.12-0.12,0.27-0.23,0.45-0.31c0.18-0.08,0.39-0.12,0.64-0.12
		c0.24,0,0.45,0.04,0.62,0.12c0.17,0.08,0.32,0.19,0.43,0.31c0.12,0.12,0.2,0.26,0.26,0.41c0.06,0.15,0.09,0.3,0.09,0.44H112.13z
		 M124,566.31h6.33v-1.78h-4.15v-7.84H124V566.31z M131.24,566.31h2.08v-6.77h-1.04h-1.04V566.31z M140.37,557.14
		c-0.31-0.26-0.65-0.44-1.02-0.55c-0.38-0.11-0.75-0.16-1.11-0.16c-0.35,0-0.69,0.05-1.02,0.17c-0.33,0.11-0.63,0.28-0.89,0.51
		c-0.26,0.23-0.47,0.51-0.63,0.86c-0.16,0.35-0.24,0.76-0.24,1.24v0.35h-1.1v1.63h1.1v5.14h2.06v-5.14h1.6v-1.63h-1.6v-0.38
		c0-0.34,0.09-0.6,0.26-0.78c0.17-0.18,0.4-0.27,0.69-0.27c0.18,0,0.36,0.03,0.53,0.09c0.17,0.06,0.33,0.14,0.48,0.24L140.37,557.14
		z M122.39,564.51c-0.13,0.1-0.28,0.18-0.43,0.25c-0.15,0.07-0.34,0.11-0.55,0.11c-0.28,0-0.48-0.09-0.61-0.27
		c-0.13-0.18-0.2-0.43-0.2-0.76v-2.67h1.75v-1.63h-1.75v-1.81h-2.08v1.81h-1.07v1.63h1.07v2.55c0,0.42,0.04,0.81,0.13,1.15
		c0.09,0.35,0.23,0.64,0.43,0.89c0.2,0.24,0.47,0.44,0.79,0.58c0.33,0.14,0.73,0.21,1.21,0.21c0.77,0,1.48-0.26,2.13-0.78
		L122.39,564.51z M145.38,564.26c-0.15,0.11-0.4,0.25-0.74,0.41c-0.34,0.16-0.78,0.24-1.31,0.24c-0.55,0-0.98-0.14-1.29-0.41
		c-0.31-0.27-0.47-0.59-0.48-0.96h4.82v-0.35c0-0.57-0.07-1.09-0.22-1.57c-0.14-0.48-0.36-0.89-0.64-1.23
		c-0.28-0.34-0.63-0.61-1.05-0.8c-0.41-0.19-0.9-0.29-1.44-0.29c-0.55,0-1.04,0.1-1.47,0.3c-0.43,0.2-0.8,0.46-1.1,0.79
		c-0.3,0.33-0.53,0.71-0.69,1.15c-0.16,0.44-0.24,0.89-0.24,1.36c0,0.54,0.08,1.03,0.25,1.48c0.17,0.45,0.41,0.83,0.74,1.15
		c0.32,0.32,0.72,0.57,1.18,0.74c0.46,0.18,0.98,0.27,1.56,0.27c0.43,0,0.82-0.04,1.15-0.12c0.34-0.08,0.63-0.18,0.87-0.28
		c0.24-0.11,0.44-0.21,0.6-0.33c0.15-0.11,0.27-0.19,0.35-0.24L145.38,564.26z M141.56,562.21c0-0.14,0.03-0.29,0.09-0.44
		c0.06-0.15,0.15-0.29,0.27-0.41c0.12-0.12,0.27-0.23,0.45-0.31c0.18-0.08,0.4-0.12,0.63-0.12c0.24,0,0.45,0.04,0.62,0.12
		c0.17,0.08,0.32,0.19,0.43,0.31c0.12,0.12,0.2,0.26,0.26,0.41c0.06,0.15,0.09,0.3,0.09,0.44H141.56z"/>
	<path class="st1" d="M86.42,558.81c1.63,2.16,2.6,4.86,2.6,7.78c0,0.71-0.06,1.4-0.17,2.07h4.73c0.41,0,0.74-0.33,0.74-0.75v-13.08
		c0-0.49-0.46-0.85-0.93-0.72C90.58,554.85,88.14,556.54,86.42,558.81"/>
	<path class="st2" d="M83.99,568.66c-0.11-0.67-0.17-1.37-0.17-2.07c0-2.92,0.97-5.62,2.6-7.78c-1.71-2.27-4.16-3.95-6.99-4.7
		c-0.47-0.12-0.93,0.24-0.93,0.72v13.08c0,0.41,0.33,0.75,0.75,0.75H83.99z"/>
	<path class="st3" d="M86.42,558.81c-1.63,2.16-2.6,4.86-2.6,7.78c0,0.71,0.06,1.4,0.17,2.07h4.88c0.11-0.67,0.17-1.37,0.17-2.07
		C89.03,563.67,88.06,560.97,86.42,558.81"/>
</g>
</svg>
