<svg id="Layer_1" xmlns="http://www.w3.org/2000/svg" viewBox="0 0 160 600"><style>.st0{fill:#fff}</style><path class="st0" d="M13.66 132.11h7.81v23.27h13.99v6.72h-21.8v-29.99zM45.29 137.57h-7.14v-5.46h7.14v5.46zm-7.14 2.73h7.14v21.8h-7.14v-21.8zM51.08 144.92h-3.44v-4.62h3.44c0-6.26 2.18-8.19 8.28-8.19 1.13 0 2.31.08 3.44.13v5.04c-.67-.08-1.3-.13-1.93-.13-1.64 0-2.65.21-2.65 2.18v.97h4.29v4.62h-4.29v17.18h-7.14v-17.18zM70.2 152.94c.13 2.98 1.85 4.96 4.87 4.96 1.72 0 3.4-.8 4.07-2.39h6.68c-1.3 5.04-5.96 7.23-10.84 7.23-7.1 0-11.93-4.28-11.93-11.59 0-6.68 5.33-11.47 11.76-11.47 7.81 0 11.72 5.88 11.38 13.27H70.2zm8.86-3.99c-.13-2.44-1.85-4.45-4.24-4.45-2.52 0-4.2 1.81-4.62 4.45h8.86z"/><g><path class="st0" d="M27.57 190.28c-.04-1.85-1.68-3.15-3.49-3.15-3.99 0-4.62 3.4-4.62 6.43 0 2.81 1.22 5.71 4.24 5.71 2.48 0 3.74-1.43 4.07-3.74h6.93c-.63 5.84-5.17 9.2-10.96 9.2-6.55 0-11.43-4.49-11.43-11.17 0-6.93 4.41-11.89 11.43-11.89 5.42 0 10.25 2.86 10.75 8.61h-6.92zM48.02 181.67c6.76 0 11.51 5 11.51 11.55s-4.75 11.51-11.51 11.51-11.47-4.96-11.47-11.51 4.71-11.55 11.47-11.55zm0 17.6c3.32 0 4.37-3.28 4.37-6.05s-1.05-6.09-4.37-6.09-4.33 3.32-4.33 6.09 1.01 6.05 4.33 6.05zM62.59 182.3h6.93v2.98h.08c1.3-2.18 3.61-3.61 6.26-3.61 2.73 0 5.17.88 6.34 3.53 1.72-2.31 3.87-3.53 6.81-3.53 6.93 0 7.69 5.25 7.69 9.41v13.02h-7.14v-12.81c0-2.35-1.13-3.74-2.98-3.74-3.07 0-3.36 2.35-3.36 5.88v10.67h-7.14v-12.39c0-2.56-.76-4.16-2.69-4.16-2.56 0-3.65 1.47-3.65 5.92v10.63H62.6v-21.8zM106.9 194.94c.13 2.98 1.85 4.96 4.87 4.96 1.72 0 3.4-.8 4.07-2.39h6.68c-1.3 5.04-5.96 7.23-10.84 7.23-7.1 0-11.93-4.28-11.93-11.59 0-6.68 5.33-11.47 11.76-11.47 7.81 0 11.72 5.88 11.38 13.27H106.9zm8.87-3.99c-.13-2.44-1.85-4.45-4.24-4.45-2.52 0-4.2 1.81-4.62 4.45h8.86zM131.43 196.92c0 1.09.46 1.89 1.18 2.44.67.5 1.64.76 2.65.76 1.39 0 3.36-.59 3.36-2.31 0-1.68-2.23-2.02-3.49-2.31-4.49-1.13-10.12-1.26-10.12-7.14 0-5.25 5.67-6.68 9.96-6.68 4.79 0 9.79 1.39 10.04 7.06h-6.59c0-.92-.34-1.51-.92-1.89s-1.39-.55-2.27-.55c-1.18 0-3.07.13-3.07 1.64 0 2.06 4.79 2.44 8.07 3.15 4.41.88 5.54 4.07 5.54 5.88 0 5.84-5.54 7.77-10.46 7.77-5.17 0-10.46-1.72-10.67-7.81h6.79z"/></g><g><path class="st0" d="M13.08 231.02c.13-2.86 1.47-4.71 3.4-5.84 1.93-1.09 4.45-1.51 6.93-1.51 5.17 0 10.17 1.13 10.17 7.31v9.54c0 1.85 0 3.86.84 5.59h-7.18c-.25-.67-.34-1.34-.42-2.06-1.85 1.93-4.58 2.69-7.18 2.69-4.16 0-7.44-2.1-7.44-6.59 0-7.1 7.73-6.55 12.69-7.56 1.22-.25 1.89-.67 1.89-2.02 0-1.64-1.97-2.27-3.44-2.27-1.97 0-3.24.88-3.57 2.73h-6.69zm9.24 11.3c3.4 0 4.54-1.93 4.37-6.43-1.01.63-2.86.76-4.41 1.18-1.6.38-2.94 1.05-2.94 2.77-.01 1.76 1.38 2.48 2.98 2.48zM50.58 228.92h-4.41v9.91c0 1.72 1.01 2.1 2.56 2.1.59 0 1.22-.08 1.85-.08v5.25c-1.3.04-2.6.21-3.91.21-6.09 0-7.65-1.76-7.65-7.69v-9.7h-3.61v-4.62h3.61v-6.6h7.14v6.6h4.41v4.62zM78.13 248.03c-1.72 4.79-4.28 5.38-9.12 5.38h-3.36v-5.8h2.48c1.64 0 2.86-.92 2.86-2.44 0-1.18-1.39-4.54-1.81-5.71l-5.63-15.16h7.56l4.12 14.2h.08l4.12-14.2h7.31l-8.61 23.73zM97.92 223.67c6.76 0 11.51 5 11.51 11.55s-4.75 11.51-11.51 11.51-11.47-4.96-11.47-11.51 4.7-11.55 11.47-11.55zm0 17.6c3.32 0 4.37-3.28 4.37-6.05s-1.05-6.09-4.37-6.09-4.33 3.32-4.33 6.09 1.01 6.05 4.33 6.05zM134 246.1h-6.93v-2.98h-.08c-1.34 2.23-4.12 3.61-6.64 3.61-6.26 0-8.07-3.61-8.07-9.33v-13.1h7.14v12.64c0 2.9 1.26 3.91 3.53 3.91 1.55 0 3.91-1.01 3.91-4.87V224.3H134v21.8z"/></g><g><path class="st0" d="M14.92 270.92h-3.44v-4.62h3.44c0-6.26 2.18-8.19 8.28-8.19 1.13 0 2.31.08 3.44.13v5.04c-.67-.08-1.3-.13-1.93-.13-1.64 0-2.65.21-2.65 2.18v.97h4.29v4.62h-4.29v17.18h-7.14v-17.18zM27.9 273.02c.13-2.86 1.47-4.71 3.4-5.84 1.93-1.09 4.45-1.51 6.93-1.51 5.17 0 10.17 1.13 10.17 7.31v9.54c0 1.85 0 3.86.84 5.59h-7.18c-.25-.67-.34-1.34-.42-2.06-1.85 1.93-4.58 2.69-7.18 2.69-4.16 0-7.44-2.1-7.44-6.59 0-7.1 7.73-6.55 12.69-7.56 1.22-.25 1.89-.67 1.89-2.02 0-1.64-1.97-2.27-3.44-2.27-1.97 0-3.24.88-3.57 2.73H27.9zm9.24 11.3c3.4 0 4.54-1.93 4.37-6.43-1.01.63-2.86.76-4.41 1.18-1.6.38-2.94 1.05-2.94 2.77 0 1.76 1.39 2.48 2.98 2.48zM58.1 280.92c0 1.09.46 1.89 1.18 2.44.67.5 1.64.76 2.65.76 1.39 0 3.36-.59 3.36-2.31 0-1.68-2.23-2.02-3.49-2.31-4.49-1.13-10.12-1.26-10.12-7.14 0-5.25 5.67-6.68 9.96-6.68 4.79 0 9.79 1.39 10.04 7.06h-6.59c0-.92-.34-1.51-.92-1.89s-1.39-.55-2.27-.55c-1.18 0-3.07.13-3.07 1.64 0 2.06 4.79 2.44 8.07 3.15 4.41.88 5.54 4.07 5.54 5.88 0 5.84-5.54 7.77-10.46 7.77-5.17 0-10.46-1.72-10.67-7.81h6.79zM88.42 270.92h-4.41v9.91c0 1.72 1.01 2.1 2.56 2.1.59 0 1.22-.08 1.85-.08v5.25c-1.3.04-2.6.21-3.91.21-6.09 0-7.65-1.76-7.65-7.69v-9.7h-3.61v-4.62h3.61v-6.6H84v6.6h4.41v4.62zM91.99 280.29h7.81v7.81h-7.81v-7.81z"/></g></svg>