<svg id="Layer_1" xmlns="http://www.w3.org/2000/svg" viewBox="0 0 160 600"><style>.st0{fill:#ff7f30}.st1{fill:#fff}</style><path class="st0" d="M13.18 521.7H147v32.77H13.18z"/><path class="st1" d="M34.36 532.33h2.74l4.54 12.14h-2.77l-.92-2.7H33.4l-.95 2.7h-2.7l4.61-12.14zm-.26 7.45h3.15l-1.53-4.45h-.03l-1.59 4.45zM42.69 532.33h5.47c3.03 0 4.2 1.92 4.2 3.89s-1.17 3.89-4.2 3.89h-2.8v4.35h-2.67v-12.13zm2.67 5.71h2.07c1.24 0 2.35-.27 2.35-1.82s-1.1-1.82-2.35-1.82h-2.07v3.64zM54.03 532.33h5.47c3.03 0 4.2 1.92 4.2 3.89s-1.17 3.89-4.2 3.89h-2.8v4.35h-2.67v-12.13zm2.66 5.71h2.07c1.24 0 2.35-.27 2.35-1.82s-1.1-1.82-2.35-1.82h-2.07v3.64zM65.36 532.33h2.67v9.89h5.92v2.24h-8.58v-12.13zM76.72 539.74l-4.47-7.41h3.01l2.84 4.79 2.82-4.79h2.97l-4.5 7.48v4.66h-2.67v-4.73zM89.64 532.33h2.65l5.07 8.14h.03v-8.14h2.5v12.14h-2.67l-5.05-8.12h-.03v8.12h-2.5v-12.14zM107.68 532.04c3.76 0 5.97 2.8 5.97 6.41 0 3.5-2.21 6.31-5.97 6.31s-5.97-2.8-5.97-6.31c0-3.6 2.21-6.41 5.97-6.41zm0 10.47c2.4 0 3.3-2.04 3.3-4.06 0-2.12-.9-4.16-3.3-4.16s-3.3 2.04-3.3 4.16c0 2.03.9 4.06 3.3 4.06zM127.02 544.47h-2.65l-2.06-8.26h-.03l-2.02 8.26h-2.7l-3.21-12.14h2.67l1.92 8.26h.03l2.11-8.26h2.5l2.07 8.36h.03l1.99-8.36h2.62l-3.27 12.14z"/></svg>